<svg xmlns="http://www.w3.org/2000/svg" xmlns:xlink="http://www.w3.org/1999/xlink" id="body_63" preserveAspectRatio="xMinYMin meet" viewBox="0 0 793 1121"><defs><clipPath id="1"><path d="M0 841L0 0L0 0L595 0L595 0L595 841L595 841L0 841z" /></clipPath><clipPath id="2"><path d="M0 56L595 56L595 56L595 784.5547L595 784.5547L0 784.5547z" /></clipPath><clipPath id="3"><path d="M48.77049 184.3008L543.2282 184.3008L543.2282 184.3008L543.2282 784.5547L543.2282 784.5547L48.77049 784.5547z" /></clipPath></defs><g transform="matrix(1.333333 0 0 1.333333 0 0)"><g><g clip-path="url(#1)"><g clip-path="url(#2)"><path transform="matrix(1 0 0 -1 0 841)" d="M0 45955.48L595 45955.48L595 45955.48L595 -12022.13L595 -12022.13L0 -12022.13z" stroke="none" fill="#FFFFFF" fill-rule="winding" /><path transform="matrix(1 0 0 -1 0 841)" d="M84.78562 777.125C 84.78562 776.6055 84.60249 776.1641 84.23622 775.7969C 83.86995 775.4336 83.42782 775.25 82.90984 775.2461C 82.39185 775.25 81.94971 775.4336 81.58344 775.7969C 81.21717 776.1641 81.03404 776.6055 81.03405 777.125C 81.03404 777.6406 81.21717 778.0859 81.58344 778.4531C 81.94971 778.8164 82.39185 779 82.90984 779C 83.42782 779 83.86995 778.8164 84.23622 778.4531C 84.60249 778.0859 84.78562 777.6406 84.78562 777.125z" stroke="#333333" stroke-width="0.7503152" fill="none" /><path transform="matrix(1 0 0 -1 0 841)" d="M84.78562 762.1172C 84.78562 761.6016 84.60249 761.1602 84.23622 760.793C 83.86995 760.4258 83.42782 760.2461 82.90984 760.2422C 82.39185 760.2461 81.94971 760.4258 81.58344 760.793C 81.21717 761.1602 81.03404 761.6016 81.03405 762.1172C 81.03404 762.6367 81.21717 763.082 81.58344 763.4492C 81.94971 763.8125 82.39185 763.9922 82.90984 763.9922C 83.42782 763.9922 83.86995 763.8125 84.23622 763.4492C 84.60249 763.082 84.78562 762.6367 84.78562 762.1172z" stroke="#333333" stroke-width="0.7503152" fill="none" /><path transform="matrix(1 0 0 -1 0 841)" d="M62.27617 747.1094C 62.27617 746.5938 62.09303 746.1523 61.72676 745.7852C 61.36049 745.418 60.91836 745.2383 60.40038 745.2383C 59.88239 745.2383 59.44026 745.418 59.07399 745.7852C 58.70772 746.1523 58.52458 746.5938 58.52459 747.1094C 58.52458 747.6289 58.70772 748.0742 59.07399 748.4375C 59.44026 748.8047 59.88239 748.9883 60.40038 748.9883C 60.91836 748.9883 61.36049 748.8047 61.72676 748.4375C 62.09303 748.0742 62.27617 747.6289 62.27617 747.1094z" stroke="none" fill="#333333" fill-rule="winding" /><path transform="matrix(1 0 0 -1 0 841)" d="M84.78562 726.8516C 84.78562 726.3359 84.60249 725.8945 84.23622 725.5273C 83.86995 725.1602 83.42782 724.9805 82.90984 724.9766C 82.39185 724.9805 81.94971 725.1602 81.58344 725.5273C 81.21717 725.8945 81.03404 726.3359 81.03405 726.8516C 81.03404 727.3711 81.21717 727.8164 81.58344 728.1836C 81.94971 728.5469 82.39185 728.7266 82.90984 728.7266C 83.42782 728.7266 83.86995 728.5469 84.23622 728.1836C 84.60249 727.8164 84.78562 727.3711 84.78562 726.8516z" stroke="#333333" stroke-width="0.7503152" fill="none" /><path transform="matrix(1 0 0 -1 0 841)" d="M48.39533 39.9375L48.39533 661.1992C 48.39533 661.7188 48.57846 662.1602 48.94473 662.5273C 49.311 662.8945 49.75313 663.0742 50.27112 663.0742L50.27112 663.0742L544.7289 663.0742C 545.2468 663.0742 545.6889 662.8945 546.0552 662.5273C 546.4214 662.1602 546.6046 661.7188 546.6047 661.1992L546.6047 661.1992L546.6047 39.9375C 546.6046 39.42188 546.4214 38.98047 546.0552 38.61328C 545.6889 38.24609 545.2468 38.0625 544.7289 38.0625L544.7289 38.0625L50.27112 38.0625C 49.75313 38.0625 49.311 38.24609 48.94473 38.61328C 48.57846 38.98047 48.39533 39.42188 48.39533 39.9375z" stroke="none" fill="#F8F8F8" fill-rule="winding" /><path transform="matrix(1 0 0 -1 0 841)" d="M48.39533 39.9375L48.39533 661.1992C 48.39533 661.7188 48.57846 662.1602 48.94473 662.5273C 49.311 662.8945 49.75313 663.0742 50.27112 663.0742L50.27112 663.0742L544.7289 663.0742C 545.2468 663.0742 545.6889 662.8945 546.0552 662.5273C 546.4214 662.1602 546.6046 661.7188 546.6047 661.1992L546.6047 661.1992L546.6047 39.9375C 546.6046 39.42188 546.4214 38.98047 546.0552 38.61328C 545.6889 38.24609 545.2468 38.0625 544.7289 38.0625L544.7289 38.0625L50.27112 38.0625C 49.75313 38.0625 49.311 38.24609 48.94473 38.61328C 48.57846 38.98047 48.39533 39.42188 48.39533 39.9375z" stroke="#E7EAED" stroke-width="0.7503152" fill="none" /></g><g clip-path="url(#3)"><path transform="matrix(1 0 0 -1 0 841)" d="M48.77049 656.6992L543.2282 656.6992L543.2282 656.6992L543.2282 42.94141L543.2282 42.94141L48.77049 42.94141z" stroke="none" fill="#F8F8F8" fill-rule="winding" /><path transform="matrix(1 0 0 -1 0 841)" d="M48.77049 656.6992L543.2282 656.6992L543.2282 656.6992L543.2282 42.94141L543.2282 42.94141L48.77049 42.94141z" stroke="none" fill="#F8F8F8" fill-rule="winding" /><path transform="matrix(1 0 0 -1 0 841)" d="M48.77049 656.6992L75.78184 656.6992L75.78184 656.6992L75.78184 -171.6484L75.78184 -171.6484L48.77049 -171.6484z" stroke="none" fill="#F8F8F8" fill-rule="winding" /><path transform="matrix(1 0 0 -1 0 841)" d="M75.03152 656.6992L75.78184 656.6992L75.78184 656.6992L75.78184 -171.6484L75.78184 -171.6484L75.03152 -171.6484z" stroke="none" fill="#DDDDDD" fill-rule="winding" /></g><g transform="matrix(0.2399193 0 0 0.2399322 0 -14.78003)"><g transform="matrix(1 0 0 1 0 0)"><image x="0" y="0" xlink:href="img_02.png" width="2480" height="295" /></g></g><g transform="matrix(0.4798387 0 0 0.4798876 0 798.29)"><g transform="matrix(1 0 0 1 0 0)"><image x="0" y="0" xlink:href="img_03.png" width="1240" height="89" /></g></g></g></g></g></svg>