<svg xmlns="http://www.w3.org/2000/svg" xmlns:xlink="http://www.w3.org/1999/xlink" id="body_29" preserveAspectRatio="xMinYMin meet" viewBox="0 0 793 1121"><defs><clipPath id="1"><path d="M0 841L0 0L0 0L595 0L595 0L595 841L595 841L0 841z" /></clipPath><clipPath id="2"><path d="M0 56L595 56L595 56L595 784.5566L595 784.5566L0 784.5566z" /></clipPath><clipPath id="3"><path d="M48.77049 430.4082L543.2282 430.4082L543.2282 430.4082L543.2282 784.5566L543.2282 784.5566L48.77049 784.5566z" /></clipPath></defs><g transform="matrix(1.333333 0 0 1.333333 0 0)"><g><g clip-path="url(#1)"><g clip-path="url(#2)"><path transform="matrix(1 0 0 -1 0 841)" d="M0 21184.57L595 21184.57L595 21184.57L595 -36793.04L595 -36793.04L0 -36793.04z" stroke="none" fill="#FFFFFF" fill-rule="winding" /><g transform="matrix(0.7503152 0 0 0.7503152 95.29004 56)"><g transform="matrix(1 0 0 1 0 0)"><image x="0" y="0" xlink:href="img_62.png" width="540" height="445" /></g></g><path transform="matrix(1 0 0 -1 0 841)" d="M48.39533 -365.2344L48.39533 415.0938C 48.39533 415.6133 48.57846 416.0547 48.94473 416.4219C 49.311 416.7871 49.75313 416.9688 50.27112 416.9688L50.27112 416.9688L544.7289 416.9688C 545.2468 416.9688 545.6889 416.7871 546.0552 416.4219C 546.4214 416.0547 546.6046 415.6133 546.6047 415.0938L546.6047 415.0938L546.6047 -365.2344C 546.6046 -365.752 546.4214 -366.1914 546.0552 -366.5586C 545.6889 -366.9258 545.2468 -367.1074 544.7289 -367.1094L544.7289 -367.1094L50.27112 -367.1094C 49.75313 -367.1074 49.311 -366.9258 48.94473 -366.5586C 48.57846 -366.1914 48.39533 -365.752 48.39533 -365.2344z" stroke="none" fill="#F8F8F8" fill-rule="winding" /><path transform="matrix(1 0 0 -1 0 841)" d="M48.39533 -365.2344L48.39533 415.0938C 48.39533 415.6133 48.57846 416.0547 48.94473 416.4219C 49.311 416.7871 49.75313 416.9688 50.27112 416.9688L50.27112 416.9688L544.7289 416.9688C 545.2468 416.9688 545.6889 416.7871 546.0552 416.4219C 546.4214 416.0547 546.6046 415.6133 546.6047 415.0938L546.6047 415.0938L546.6047 -365.2344C 546.6046 -365.752 546.4214 -366.1914 546.0552 -366.5586C 545.6889 -366.9258 545.2468 -367.1074 544.7289 -367.1094L544.7289 -367.1094L50.27112 -367.1094C 49.75313 -367.1074 49.311 -366.9258 48.94473 -366.5586C 48.57846 -366.1914 48.39533 -365.752 48.39533 -365.2344z" stroke="#E7EAED" stroke-width="0.7503152" fill="none" /></g><g clip-path="url(#3)"><path transform="matrix(1 0 0 -1 0 841)" d="M48.77049 410.5918L543.2282 410.5918L543.2282 410.5918L543.2282 -362.2324L543.2282 -362.2324L48.77049 -362.2324z" stroke="none" fill="#F8F8F8" fill-rule="winding" /><path transform="matrix(1 0 0 -1 0 841)" d="M48.77049 410.5918L543.2282 410.5918L543.2282 410.5918L543.2282 -362.2324L543.2282 -362.2324L48.77049 -362.2324z" stroke="none" fill="#F8F8F8" fill-rule="winding" /><path transform="matrix(1 0 0 -1 0 841)" d="M48.77049 410.5918L75.78184 410.5918L75.78184 410.5918L75.78184 -573.0703L75.78184 -573.0703L48.77049 -573.0703z" stroke="none" fill="#F8F8F8" fill-rule="winding" /><path transform="matrix(1 0 0 -1 0 841)" d="M75.03152 410.5918L75.78184 410.5918L75.78184 410.5918L75.78184 -573.0703L75.78184 -573.0703L75.03152 -573.0703z" stroke="none" fill="#DDDDDD" fill-rule="winding" /></g><g transform="matrix(0.2399193 0 0 0.2399322 0 -14.78003)"><g transform="matrix(1 0 0 1 0 0)"><image x="0" y="0" xlink:href="img_02.png" width="2480" height="295" /></g></g><g transform="matrix(0.4798387 0 0 0.4798876 0 798.29)"><g transform="matrix(1 0 0 1 0 0)"><image x="0" y="0" xlink:href="img_03.png" width="1240" height="89" /></g></g></g></g></g></svg>