<svg xmlns="http://www.w3.org/2000/svg" xmlns:xlink="http://www.w3.org/1999/xlink" id="body_28" preserveAspectRatio="xMinYMin meet" viewBox="0 0 793 1121"><defs><clipPath id="1"><path d="M0 841L0 0L0 0L595 0L595 0L595 841L595 841L0 841z" /></clipPath><clipPath id="2"><path d="M0 56L595 56L595 56L595 784.5547L595 784.5547L0 784.5547z" /></clipPath><clipPath id="3"><path d="M48.77049 523.4453L543.2282 523.4453L543.2282 523.4453L543.2282 590.9746L543.2282 590.9746L48.77049 590.9746z" /></clipPath><clipPath id="4"><path d="M0 56L595 56L595 56L595 784.5547L595 784.5547L0 784.5547z" /></clipPath><clipPath id="5"><path d="M48.77049 640.4941L543.2282 640.4941L543.2282 640.4941L543.2282 735.0352L543.2282 735.0352L48.77049 735.0352z" /></clipPath><clipPath id="6"><path d="M0 56L595 56L595 56L595 784.5547L595 784.5547L0 784.5547z" /></clipPath><clipPath id="7"><path d="M48.77049 523.4453L543.2282 523.4453L543.2282 523.4453L543.2282 590.9746L543.2282 590.9746L48.77049 590.9746z" /></clipPath><clipPath id="8"><path d="M48.77049 640.4941L543.2282 640.4941L543.2282 640.4941L543.2282 735.0352L543.2282 735.0352L48.77049 735.0352z" /></clipPath></defs><g transform="matrix(1.333333 0 0 1.333333 0 0)"><g><g clip-path="url(#1)"><g clip-path="url(#2)"><path transform="matrix(1 0 0 -1 0 841)" d="M0 20456.02L595 20456.02L595 20456.02L595 -37521.59L595 -37521.59L0 -37521.59z" stroke="none" fill="#FFFFFF" fill-rule="winding" /><path transform="matrix(1 0 0 -1 0 841)" d="M48.02018 233.5195L51.02144 233.5195L51.02144 233.5195L51.02144 218.5137L51.02144 218.5137L48.02018 218.5137z" stroke="none" fill="#DFE2E5" fill-rule="winding" /><path transform="matrix(1 0 0 -1 0 841)" d="M48.02018 89.45898L51.02144 89.45898L51.02144 89.45898L51.02144 74.45313L51.02144 74.45313L48.02018 74.45313z" stroke="none" fill="#DFE2E5" fill-rule="winding" /><g transform="matrix(0.7503152 0 0 0.7503152 184.5775 56)"><g transform="matrix(1 0 0 1 0 0)"><image x="0" y="0" xlink:href="img_60.png" width="302" height="501" /></g></g><path transform="matrix(1 0 0 -1 0 841)" d="M48.39533 247.0254L48.39533 322.0566C 48.39533 322.5742 48.57846 323.0176 48.94473 323.3848C 49.311 323.748 49.75313 323.9316 50.27112 323.9316L50.27112 323.9316L544.7289 323.9316C 545.2468 323.9316 545.6889 323.748 546.0552 323.3848C 546.4214 323.0176 546.6046 322.5742 546.6047 322.0566L546.6047 322.0566L546.6047 247.0254C 546.6046 246.5078 546.4214 246.0645 546.0552 245.6992C 545.6889 245.332 545.2468 245.1484 544.7289 245.1484L544.7289 245.1484L50.27112 245.1484C 49.75313 245.1484 49.311 245.332 48.94473 245.6992C 48.57846 246.0645 48.39533 246.5078 48.39533 247.0254z" stroke="none" fill="#F8F8F8" fill-rule="winding" /><path transform="matrix(1 0 0 -1 0 841)" d="M48.39533 247.0254L48.39533 322.0566C 48.39533 322.5742 48.57846 323.0176 48.94473 323.3848C 49.311 323.748 49.75313 323.9316 50.27112 323.9316L50.27112 323.9316L544.7289 323.9316C 545.2468 323.9316 545.6889 323.748 546.0552 323.3848C 546.4214 323.0176 546.6046 322.5742 546.6047 322.0566L546.6047 322.0566L546.6047 247.0254C 546.6046 246.5078 546.4214 246.0645 546.0552 245.6992C 545.6889 245.332 545.2468 245.1484 544.7289 245.1484L544.7289 245.1484L50.27112 245.1484C 49.75313 245.1484 49.311 245.332 48.94473 245.6992C 48.57846 246.0645 48.39533 246.5078 48.39533 247.0254z" stroke="#E7EAED" stroke-width="0.7503152" fill="none" /></g><g clip-path="url(#3)"><path transform="matrix(1 0 0 -1 0 841)" d="M48.77049 317.5547L543.2282 317.5547L543.2282 317.5547L543.2282 250.0254L543.2282 250.0254L48.77049 250.0254z" stroke="none" fill="#F8F8F8" fill-rule="winding" /></g><g clip-path="url(#4)"><path transform="matrix(1 0 0 -1 0 841)" d="M48.39533 102.9648L48.39533 205.0078C 48.39533 205.5254 48.57846 205.9688 48.94473 206.334C 49.311 206.6992 49.75313 206.8828 50.27112 206.8828L50.27112 206.8828L544.7289 206.8828C 545.2468 206.8828 545.6889 206.6992 546.0552 206.334C 546.4214 205.9688 546.6046 205.5254 546.6047 205.0078L546.6047 205.0078L546.6047 102.9648C 546.6046 102.4473 546.4214 102.0059 546.0552 101.6387C 545.6889 101.2734 545.2468 101.0898 544.7289 101.0879L544.7289 101.0879L50.27112 101.0879C 49.75313 101.0898 49.311 101.2734 48.94473 101.6387C 48.57846 102.0059 48.39533 102.4473 48.39533 102.9648z" stroke="none" fill="#F8F8F8" fill-rule="winding" /><path transform="matrix(1 0 0 -1 0 841)" d="M48.39533 102.9648L48.39533 205.0078C 48.39533 205.5254 48.57846 205.9688 48.94473 206.334C 49.311 206.6992 49.75313 206.8828 50.27112 206.8828L50.27112 206.8828L544.7289 206.8828C 545.2468 206.8828 545.6889 206.6992 546.0552 206.334C 546.4214 205.9688 546.6046 205.5254 546.6047 205.0078L546.6047 205.0078L546.6047 102.9648C 546.6046 102.4473 546.4214 102.0059 546.0552 101.6387C 545.6889 101.2734 545.2468 101.0898 544.7289 101.0879L544.7289 101.0879L50.27112 101.0879C 49.75313 101.0898 49.311 101.2734 48.94473 101.6387C 48.57846 102.0059 48.39533 102.4473 48.39533 102.9648z" stroke="#E7EAED" stroke-width="0.7503152" fill="none" /></g><g clip-path="url(#5)"><path transform="matrix(1 0 0 -1 0 841)" d="M48.77049 200.5059L543.2282 200.5059L543.2282 200.5059L543.2282 105.9648L543.2282 105.9648L48.77049 105.9648z" stroke="none" fill="#F8F8F8" fill-rule="winding" /></g><g clip-path="url(#6)"></g><g clip-path="url(#7)"><path transform="matrix(1 0 0 -1 0 841)" d="M48.77049 317.5547L543.2282 317.5547L543.2282 317.5547L543.2282 250.0254L543.2282 250.0254L48.77049 250.0254z" stroke="none" fill="#F8F8F8" fill-rule="winding" /><path transform="matrix(1 0 0 -1 0 841)" d="M48.77049 317.5547L69.77932 317.5547L69.77932 317.5547L69.77932 231.2676L69.77932 231.2676L48.77049 231.2676z" stroke="none" fill="#F8F8F8" fill-rule="winding" /><path transform="matrix(1 0 0 -1 0 841)" d="M69.029 317.5547L69.77932 317.5547L69.77932 317.5547L69.77932 231.2676L69.77932 231.2676L69.029 231.2676z" stroke="none" fill="#DDDDDD" fill-rule="winding" /></g><g clip-path="url(#8)"><path transform="matrix(1 0 0 -1 0 841)" d="M48.77049 200.5059L543.2282 200.5059L543.2282 200.5059L543.2282 105.9648L543.2282 105.9648L48.77049 105.9648z" stroke="none" fill="#F8F8F8" fill-rule="winding" /><path transform="matrix(1 0 0 -1 0 841)" d="M48.77049 200.5059L69.77932 200.5059L69.77932 200.5059L69.77932 79.70508L69.77932 79.70508L48.77049 79.70508z" stroke="none" fill="#F8F8F8" fill-rule="winding" /><path transform="matrix(1 0 0 -1 0 841)" d="M69.029 200.5059L69.77932 200.5059L69.77932 200.5059L69.77932 79.70508L69.77932 79.70508L69.029 79.70508z" stroke="none" fill="#DDDDDD" fill-rule="winding" /></g><g transform="matrix(0.2399193 0 0 0.2399322 0 -14.78003)"><g transform="matrix(1 0 0 1 0 0)"><image x="0" y="0" xlink:href="img_02.png" width="2480" height="295" /></g></g><g transform="matrix(0.4798387 0 0 0.4798876 0 798.29)"><g transform="matrix(1 0 0 1 0 0)"><image x="0" y="0" xlink:href="img_03.png" width="1240" height="89" /></g></g></g></g></g></svg>