<svg xmlns="http://www.w3.org/2000/svg" xmlns:xlink="http://www.w3.org/1999/xlink" id="body_39" preserveAspectRatio="xMinYMin meet" viewBox="0 0 793 1121"><defs><clipPath id="1"><path d="M0 841L0 0L0 0L595 0L595 0L595 841L595 841L0 841z" /></clipPath><clipPath id="2"><path d="M0 56L595 56L595 56L595 784.5547L595 784.5547L0 784.5547z" /></clipPath><clipPath id="3"><path d="M48.77049 62.75195L543.2282 62.75195L543.2282 62.75195L543.2282 116.7754L543.2282 116.7754L48.77049 116.7754z" /></clipPath><clipPath id="4"><path d="M0 56L595 56L595 56L595 784.5547L595 784.5547L0 784.5547z" /></clipPath><clipPath id="5"><path d="M48.77049 166.2949L543.2282 166.2949L543.2282 166.2949L543.2282 274.3418L543.2282 274.3418L48.77049 274.3418z" /></clipPath><clipPath id="6"><path d="M0 56L595 56L595 56L595 784.5547L595 784.5547L0 784.5547z" /></clipPath><clipPath id="7"><path d="M48.77049 644.9961L543.2282 644.9961L543.2282 644.9961L543.2282 712.5254L543.2282 712.5254L48.77049 712.5254z" /></clipPath><clipPath id="8"><path d="M0 56L595 56L595 56L595 784.5547L595 784.5547L0 784.5547z" /></clipPath><clipPath id="9"><path d="M48.77049 62.75195L543.2282 62.75195L543.2282 62.75195L543.2282 116.7754L543.2282 116.7754L48.77049 116.7754z" /></clipPath><clipPath id="10"><path d="M48.77049 166.2949L543.2282 166.2949L543.2282 166.2949L543.2282 274.3418L543.2282 274.3418L48.77049 274.3418z" /></clipPath><clipPath id="11"><path d="M48.77049 644.9961L543.2282 644.9961L543.2282 644.9961L543.2282 712.5254L543.2282 712.5254L48.77049 712.5254z" /></clipPath></defs><g transform="matrix(1.333333 0 0 1.333333 0 0)"><g><g clip-path="url(#1)"><g clip-path="url(#2)"><path transform="matrix(1 0 0 -1 0 841)" d="M0 28470.13L595 28470.13L595 28470.13L595 -29507.48L595 -29507.48L0 -29507.48z" stroke="none" fill="#FFFFFF" fill-rule="winding" /><path transform="matrix(1 0 0 -1 0 841)" d="M48.39533 721.2246L48.39533 782.75C 48.39533 783.2695 48.57846 783.7109 48.94473 784.0781C 49.311 784.4434 49.75313 784.625 50.27112 784.625L50.27112 784.625L544.7289 784.625C 545.2468 784.625 545.6889 784.4434 546.0552 784.0781C 546.4214 783.7109 546.6046 783.2695 546.6047 782.75L546.6047 782.75L546.6047 721.2246C 546.6046 720.709 546.4214 720.2656 546.0552 719.8984C 545.6889 719.5332 545.2468 719.3516 544.7289 719.3477L544.7289 719.3477L50.27112 719.3477C 49.75313 719.3516 49.311 719.5332 48.94473 719.8984C 48.57846 720.2656 48.39533 720.709 48.39533 721.2246z" stroke="none" fill="#F8F8F8" fill-rule="winding" /><path transform="matrix(1 0 0 -1 0 841)" d="M48.39533 721.2246L48.39533 782.75C 48.39533 783.2695 48.57846 783.7109 48.94473 784.0781C 49.311 784.4434 49.75313 784.625 50.27112 784.625L50.27112 784.625L544.7289 784.625C 545.2468 784.625 545.6889 784.4434 546.0552 784.0781C 546.4214 783.7109 546.6046 783.2695 546.6047 782.75L546.6047 782.75L546.6047 721.2246C 546.6046 720.709 546.4214 720.2656 546.0552 719.8984C 545.6889 719.5332 545.2468 719.3516 544.7289 719.3477L544.7289 719.3477L50.27112 719.3477C 49.75313 719.3516 49.311 719.5332 48.94473 719.8984C 48.57846 720.2656 48.39533 720.709 48.39533 721.2246z" stroke="#E7EAED" stroke-width="0.7503152" fill="none" /></g><g clip-path="url(#3)"><path transform="matrix(1 0 0 -1 0 841)" d="M48.77049 778.248L543.2282 778.248L543.2282 778.248L543.2282 724.2246L543.2282 724.2246L48.77049 724.2246z" stroke="none" fill="#F8F8F8" fill-rule="winding" /></g><g clip-path="url(#4)"><path transform="matrix(1 0 0 -1 0 841)" d="M48.39533 563.6582L48.39533 679.207C 48.39533 679.7246 48.57846 680.168 48.94473 680.5332C 49.311 680.9004 49.75313 681.082 50.27112 681.082L50.27112 681.082L544.7289 681.082C 545.2468 681.082 545.6889 680.9004 546.0552 680.5332C 546.4214 680.168 546.6046 679.7246 546.6047 679.207L546.6047 679.207L546.6047 563.6582C 546.6046 563.1426 546.4214 562.6992 546.0552 562.332C 545.6889 561.9668 545.2468 561.7852 544.7289 561.7813L544.7289 561.7813L50.27112 561.7813C 49.75313 561.7852 49.311 561.9668 48.94473 562.332C 48.57846 562.6992 48.39533 563.1426 48.39533 563.6582z" stroke="none" fill="#F8F8F8" fill-rule="winding" /><path transform="matrix(1 0 0 -1 0 841)" d="M48.39533 563.6582L48.39533 679.207C 48.39533 679.7246 48.57846 680.168 48.94473 680.5332C 49.311 680.9004 49.75313 681.082 50.27112 681.082L50.27112 681.082L544.7289 681.082C 545.2468 681.082 545.6889 680.9004 546.0552 680.5332C 546.4214 680.168 546.6046 679.7246 546.6047 679.207L546.6047 679.207L546.6047 563.6582C 546.6046 563.1426 546.4214 562.6992 546.0552 562.332C 545.6889 561.9668 545.2468 561.7852 544.7289 561.7813L544.7289 561.7813L50.27112 561.7813C 49.75313 561.7852 49.311 561.9668 48.94473 562.332C 48.57846 562.6992 48.39533 563.1426 48.39533 563.6582z" stroke="#E7EAED" stroke-width="0.7503152" fill="none" /></g><g clip-path="url(#5)"><path transform="matrix(1 0 0 -1 0 841)" d="M48.77049 674.7051L543.2282 674.7051L543.2282 674.7051L543.2282 566.6582L543.2282 566.6582L48.77049 566.6582z" stroke="none" fill="#F8F8F8" fill-rule="winding" /></g><g clip-path="url(#6)"><g transform="matrix(0.7503153 0 0 0.7503152 129.8045 290.8477)"><g transform="matrix(1 0 0 1 0 0)"><image x="0" y="0" xlink:href="img_78.png" width="448" height="359" /></g></g><path transform="matrix(1 0 0 -1 0 841)" d="M48.02018 233.5195L48.02018 238.7715C 48.02017 239.3965 48.23994 239.9258 48.67946 240.3652C 49.11898 240.8027 49.64954 241.0215 50.27112 241.0215L50.27112 241.0215L76.53216 241.0215C 77.15373 241.0215 77.68429 240.8027 78.12381 240.3652C 78.56333 239.9258 78.7831 239.3965 78.7831 238.7715L78.7831 238.7715L78.7831 233.5195C 78.7831 232.8984 78.56333 232.3672 78.12381 231.9277C 77.68429 231.4883 77.15373 231.2676 76.53216 231.2676L76.53216 231.2676L50.27112 231.2676C 49.64954 231.2676 49.11898 231.4883 48.67946 231.9277C 48.23994 232.3672 48.02017 232.8984 48.02018 233.5195z" stroke="none" fill="#F3F4F4" fill-rule="winding" /><path transform="matrix(1 0 0 -1 0 841)" d="M48.39533 233.5195L48.39533 238.7715C 48.39533 239.2891 48.57846 239.7324 48.94473 240.0996C 49.311 240.4648 49.75313 240.6465 50.27112 240.6465L50.27112 240.6465L76.53216 240.6465C 77.05013 240.6465 77.49226 240.4648 77.85854 240.0996C 78.2248 239.7324 78.40794 239.2891 78.40794 238.7715L78.40794 238.7715L78.40794 233.5195C 78.40794 233.0039 78.2248 232.5605 77.85854 232.1934C 77.49226 231.8281 77.05013 231.6465 76.53216 231.6426L76.53216 231.6426L50.27112 231.6426C 49.75313 231.6465 49.311 231.8281 48.94473 232.1934C 48.57846 232.5605 48.39533 233.0039 48.39533 233.5195z" stroke="#E7EAED" stroke-width="0.7503152" fill="none" /><path transform="matrix(1 0 0 -1 0 841)" d="M93.78941 233.5195L93.78941 238.7715C 93.7894 239.3965 94.00916 239.9258 94.44868 240.3652C 94.88821 240.8027 95.41876 241.0215 96.04035 241.0215L96.04035 241.0215L117.0492 241.0215C 117.6708 241.0215 118.2013 240.8027 118.6408 240.3652C 119.0804 239.9258 119.3001 239.3965 119.3001 238.7715L119.3001 238.7715L119.3001 233.5195C 119.3001 232.8984 119.0804 232.3672 118.6408 231.9277C 118.2013 231.4883 117.6708 231.2676 117.0492 231.2676L117.0492 231.2676L96.04035 231.2676C 95.41876 231.2676 94.88821 231.4883 94.44868 231.9277C 94.00916 232.3672 93.7894 232.8984 93.78941 233.5195z" stroke="none" fill="#F3F4F4" fill-rule="winding" /><path transform="matrix(1 0 0 -1 0 841)" d="M94.16457 233.5195L94.16457 238.7715C 94.16457 239.2891 94.34769 239.7324 94.71396 240.0996C 95.08023 240.4648 95.52236 240.6465 96.04035 240.6465L96.04035 240.6465L117.0492 240.6465C 117.5672 240.6465 118.0093 240.4648 118.3755 240.0996C 118.7418 239.7324 118.925 239.2891 118.925 238.7715L118.925 238.7715L118.925 233.5195C 118.925 233.0039 118.7418 232.5605 118.3755 232.1934C 118.0093 231.8281 117.5672 231.6465 117.0492 231.6426L117.0492 231.6426L96.04035 231.6426C 95.52236 231.6465 95.08023 231.8281 94.71396 232.1934C 94.34769 232.5605 94.16457 233.0039 94.16457 233.5195z" stroke="#E7EAED" stroke-width="0.7503152" fill="none" /><path transform="matrix(1 0 0 -1 0 841)" d="M183.0769 233.5195L183.0769 238.7715C 183.0769 239.3965 183.2967 239.9258 183.7362 240.3652C 184.1757 240.8027 184.7063 241.0215 185.3279 241.0215L185.3279 241.0215L211.5889 241.0215C 212.2105 241.0215 212.741 240.8027 213.1805 240.3652C 213.6201 239.9258 213.8398 239.3965 213.8398 238.7715L213.8398 238.7715L213.8398 233.5195C 213.8398 232.8984 213.6201 232.3672 213.1805 231.9277C 212.741 231.4883 212.2105 231.2676 211.5889 231.2676L211.5889 231.2676L185.3279 231.2676C 184.7063 231.2676 184.1757 231.4883 183.7362 231.9277C 183.2967 232.3672 183.0769 232.8984 183.0769 233.5195z" stroke="none" fill="#F3F4F4" fill-rule="winding" /><path transform="matrix(1 0 0 -1 0 841)" d="M183.4521 233.5195L183.4521 238.7715C 183.4521 239.2891 183.6352 239.7324 184.0015 240.0996C 184.3677 240.4648 184.8099 240.6465 185.3279 240.6465L185.3279 240.6465L211.5889 240.6465C 212.1069 240.6465 212.549 240.4648 212.9153 240.0996C 213.2815 239.7324 213.4647 239.2891 213.4647 238.7715L213.4647 238.7715L213.4647 233.5195C 213.4647 233.0039 213.2815 232.5605 212.9153 232.1934C 212.549 231.8281 212.1069 231.6465 211.5889 231.6426L211.5889 231.6426L185.3279 231.6426C 184.8099 231.6465 184.3677 231.8281 184.0015 232.1934C 183.6352 232.5605 183.4521 233.0039 183.4521 233.5195z" stroke="#E7EAED" stroke-width="0.7503152" fill="none" /><path transform="matrix(1 0 0 -1 0 841)" d="M48.39533 125.4746L48.39533 200.5059C 48.39533 201.0234 48.57846 201.4668 48.94473 201.832C 49.311 202.1992 49.75313 202.3809 50.27112 202.3809L50.27112 202.3809L544.7289 202.3809C 545.2468 202.3809 545.6889 202.1992 546.0552 201.832C 546.4214 201.4668 546.6046 201.0234 546.6047 200.5059L546.6047 200.5059L546.6047 125.4746C 546.6046 124.9551 546.4214 124.5156 546.0552 124.1484C 545.6889 123.7832 545.2468 123.6016 544.7289 123.5977L544.7289 123.5977L50.27112 123.5977C 49.75313 123.6016 49.311 123.7832 48.94473 124.1484C 48.57846 124.5156 48.39533 124.9551 48.39533 125.4746z" stroke="none" fill="#F8F8F8" fill-rule="winding" /><path transform="matrix(1 0 0 -1 0 841)" d="M48.39533 125.4746L48.39533 200.5059C 48.39533 201.0234 48.57846 201.4668 48.94473 201.832C 49.311 202.1992 49.75313 202.3809 50.27112 202.3809L50.27112 202.3809L544.7289 202.3809C 545.2468 202.3809 545.6889 202.1992 546.0552 201.832C 546.4214 201.4668 546.6046 201.0234 546.6047 200.5059L546.6047 200.5059L546.6047 125.4746C 546.6046 124.9551 546.4214 124.5156 546.0552 124.1484C 545.6889 123.7832 545.2468 123.6016 544.7289 123.5977L544.7289 123.5977L50.27112 123.5977C 49.75313 123.6016 49.311 123.7832 48.94473 124.1484C 48.57846 124.5156 48.39533 124.9551 48.39533 125.4746z" stroke="#E7EAED" stroke-width="0.7503152" fill="none" /></g><g clip-path="url(#7)"><path transform="matrix(1 0 0 -1 0 841)" d="M48.77049 196.0039L543.2282 196.0039L543.2282 196.0039L543.2282 128.4746L543.2282 128.4746L48.77049 128.4746z" stroke="none" fill="#F8F8F8" fill-rule="winding" /></g><g clip-path="url(#8)"></g><g clip-path="url(#9)"><path transform="matrix(1 0 0 -1 0 841)" d="M48.77049 778.248L543.2282 778.248L543.2282 778.248L543.2282 724.2246L543.2282 724.2246L48.77049 724.2246z" stroke="none" fill="#F8F8F8" fill-rule="winding" /><path transform="matrix(1 0 0 -1 0 841)" d="M48.77049 778.248L69.77932 778.248L69.77932 778.248L69.77932 709.2188L69.77932 709.2188L48.77049 709.2188z" stroke="none" fill="#F8F8F8" fill-rule="winding" /><path transform="matrix(1 0 0 -1 0 841)" d="M69.029 778.248L69.77932 778.248L69.77932 778.248L69.77932 709.2188L69.77932 709.2188L69.029 709.2188z" stroke="none" fill="#DDDDDD" fill-rule="winding" /></g><g clip-path="url(#10)"><path transform="matrix(1 0 0 -1 0 841)" d="M48.77049 674.7051L543.2282 674.7051L543.2282 674.7051L543.2282 566.6582L543.2282 566.6582L48.77049 566.6582z" stroke="none" fill="#F8F8F8" fill-rule="winding" /><path transform="matrix(1 0 0 -1 0 841)" d="M48.77049 674.7051L69.77932 674.7051L69.77932 674.7051L69.77932 536.6465L69.77932 536.6465L48.77049 536.6465z" stroke="none" fill="#F8F8F8" fill-rule="winding" /><path transform="matrix(1 0 0 -1 0 841)" d="M69.029 674.7051L69.77932 674.7051L69.77932 674.7051L69.77932 536.6465L69.77932 536.6465L69.029 536.6465z" stroke="none" fill="#DDDDDD" fill-rule="winding" /></g><g clip-path="url(#11)"><path transform="matrix(1 0 0 -1 0 841)" d="M48.77049 196.0039L543.2282 196.0039L543.2282 196.0039L543.2282 128.4746L543.2282 128.4746L48.77049 128.4746z" stroke="none" fill="#F8F8F8" fill-rule="winding" /><path transform="matrix(1 0 0 -1 0 841)" d="M48.77049 196.0039L69.77932 196.0039L69.77932 196.0039L69.77932 109.7168L69.77932 109.7168L48.77049 109.7168z" stroke="none" fill="#F8F8F8" fill-rule="winding" /><path transform="matrix(1 0 0 -1 0 841)" d="M69.029 196.0039L69.77932 196.0039L69.77932 196.0039L69.77932 109.7168L69.77932 109.7168L69.029 109.7168z" stroke="none" fill="#DDDDDD" fill-rule="winding" /></g><g transform="matrix(0.2399193 0 0 0.2399322 0 -14.78003)"><g transform="matrix(1 0 0 1 0 0)"><image x="0" y="0" xlink:href="img_02.png" width="2480" height="295" /></g></g><g transform="matrix(0.4798387 0 0 0.4798876 0 798.29)"><g transform="matrix(1 0 0 1 0 0)"><image x="0" y="0" xlink:href="img_03.png" width="1240" height="89" /></g></g></g></g></g></svg>