<svg xmlns="http://www.w3.org/2000/svg" xmlns:xlink="http://www.w3.org/1999/xlink" id="body_6" preserveAspectRatio="xMinYMin meet" viewBox="0 0 793 1121"><defs><clipPath id="1"><path d="M0 841L0 0L0 0L595 0L595 0L595 841L595 841L0 841z" /></clipPath><clipPath id="2"><path d="M0 56L595 56L595 56L595 784.5559L595 784.5559L0 784.5559z" /></clipPath><clipPath id="3"><path d="M48.77049 56L543.2282 56L543.2282 56L543.2282 366.6306L543.2282 366.6306L48.77049 366.6306z" /></clipPath><clipPath id="4"><path d="M0 56L595 56L595 56L595 784.5559L595 784.5559L0 784.5559z" /></clipPath><clipPath id="5"><path d="M288.2371 435.6594L295.0459 435.6594L295.0459 435.6594L295.0459 438.1355L295.0459 438.1355L288.2371 438.1355L288.2371 438.1355L288.2371 435.6594zM271.2417 435.6594L268.5002 435.6594L268.5002 435.6594L268.5002 438.1355L268.5002 438.1355L271.2417 438.1355L271.2417 438.1355L271.2417 435.6594zM0 56L0 784.5559L0 784.5559L595 784.5559L595 784.5559L595 56L595 56L0 56z" /></clipPath><clipPath id="6"><path d="M0 56L595 56L595 56L595 784.5559L595 784.5559L0 784.5559z" /></clipPath><clipPath id="7"><path d="M48.77049 570.7161L543.2282 570.7161L543.2282 570.7161L543.2282 678.7615L543.2282 678.7615L48.77049 678.7615z" /></clipPath><clipPath id="8"><path d="M0 56L595 56L595 56L595 784.5559L595 784.5559L0 784.5559z" /></clipPath><clipPath id="9"><path d="M48.77049 56L543.2282 56L543.2282 56L543.2282 366.6306L543.2282 366.6306L48.77049 366.6306z" /></clipPath><clipPath id="10"><path d="M48.77049 570.7161L543.2282 570.7161L543.2282 570.7161L543.2282 678.7615L543.2282 678.7615L48.77049 678.7615z" /></clipPath></defs><g transform="matrix(1.333333 0 0 1.333333 0 0)"><g><g clip-path="url(#1)"><g clip-path="url(#2)"><path transform="matrix(1 0 0 -1 0 841)" d="M0 4427.78L595 4427.78L595 4427.78L595 -53549.83L595 -53549.83L0 -53549.83z" stroke="none" fill="#FFFFFF" fill-rule="winding" /><path transform="matrix(1 0 0 -1 0 841)" d="M48.02018 303.2974L51.02144 303.2974L51.02144 303.2974L51.02144 288.291L51.02144 288.291L48.02018 288.291z" stroke="none" fill="#DFE2E5" fill-rule="winding" /><path transform="matrix(1 0 0 -1 0 841)" d="M48.39533 471.3679L48.39533 860.0313C 48.39533 860.5493 48.57846 860.9915 48.94473 861.3579C 49.311 861.7239 49.75313 861.907 50.27112 861.907L50.27112 861.907L544.7289 861.907C 545.2468 861.907 545.6889 861.7239 546.0552 861.3579C 546.4214 860.9915 546.6046 860.5493 546.6047 860.0313L546.6047 860.0313L546.6047 471.3679C 546.6046 470.8503 546.4214 470.4082 546.0552 470.0417C 545.6889 469.6758 545.2468 469.4924 544.7289 469.4922L544.7289 469.4922L50.27112 469.4922C 49.75313 469.4924 49.311 469.6758 48.94473 470.0417C 48.57846 470.4082 48.39533 470.8503 48.39533 471.3679z" stroke="none" fill="#F8F8F8" fill-rule="winding" /><path transform="matrix(1 0 0 -1 0 841)" d="M48.39533 471.3679L48.39533 860.0313C 48.39533 860.5493 48.57846 860.9915 48.94473 861.3579C 49.311 861.7239 49.75313 861.907 50.27112 861.907L50.27112 861.907L544.7289 861.907C 545.2468 861.907 545.6889 861.7239 546.0552 861.3579C 546.4214 860.9915 546.6046 860.5493 546.6047 860.0313L546.6047 860.0313L546.6047 471.3679C 546.6046 470.8503 546.4214 470.4082 546.0552 470.0417C 545.6889 469.6758 545.2468 469.4924 544.7289 469.4922L544.7289 469.4922L50.27112 469.4922C 49.75313 469.4924 49.311 469.6758 48.94473 470.0417C 48.57846 470.4082 48.39533 470.8503 48.39533 471.3679z" stroke="#E7EAED" stroke-width="0.7503152" fill="none" /></g><g clip-path="url(#3)"><path transform="matrix(1 0 0 -1 0 841)" d="M48.77049 855.5293L543.2282 855.5293L543.2282 855.5293L543.2282 474.3691L543.2282 474.3691L48.77049 474.3691z" stroke="none" fill="#F8F8F8" fill-rule="winding" /></g><g clip-path="url(#4)"></g><g clip-path="url(#5)"><path transform="matrix(1 0 0 -1 0 841)" d="M255.7637 404.5898L457.5399 404.5898L457.5399 404.5898L457.5399 403.8396L457.5399 403.8396L255.7637 403.8396z" stroke="none" fill="#4183C4" fill-rule="winding" /></g><g clip-path="url(#6)"><path transform="matrix(1 0 0 -1 0 841)" d="M62.27617 362.9475C 62.27617 362.4297 62.09303 361.9875 61.72676 361.6216C 61.36049 361.2551 60.91836 361.072 60.40038 361.072C 59.88239 361.072 59.44026 361.2551 59.07399 361.6216C 58.70772 361.9875 58.52458 362.4297 58.52459 362.9475C 58.52458 363.4653 58.70772 363.9077 59.07399 364.2739C 59.44026 364.6401 59.88239 364.8232 60.40038 364.8232C 60.91836 364.8232 61.36049 364.6401 61.72676 364.2739C 62.09303 363.9077 62.27617 363.4653 62.27617 362.9475z" stroke="none" fill="#333333" fill-rule="winding" /><path transform="matrix(1 0 0 -1 0 841)" d="M62.27617 347.9412C 62.27617 347.4233 62.09303 346.9812 61.72676 346.6147C 61.36049 346.2485 60.91836 346.0654 60.40038 346.0654C 59.88239 346.0654 59.44026 346.2485 59.07399 346.6147C 58.70772 346.9812 58.52458 347.4233 58.52459 347.9412C 58.52458 348.4595 58.70772 348.9016 59.07399 349.2678C 59.44026 349.6338 59.88239 349.8169 60.40038 349.8169C 60.91836 349.8169 61.36049 349.6338 61.72676 349.2678C 62.09303 348.9016 62.27617 348.4595 62.27617 347.9412z" stroke="none" fill="#333333" fill-rule="winding" /><path transform="matrix(1 0 0 -1 0 841)" d="M62.27617 332.9348C 62.27617 332.4172 62.09303 331.9749 61.72676 331.6089C 61.36049 331.2427 60.91836 331.0596 60.40038 331.0591C 59.88239 331.0596 59.44026 331.2427 59.07399 331.6089C 58.70772 331.9749 58.52458 332.4172 58.52459 332.9348C 58.52458 333.4529 58.70772 333.895 59.07399 334.2615C 59.44026 334.6274 59.88239 334.8105 60.40038 334.8105C 60.91836 334.8105 61.36049 334.6274 61.72676 334.2615C 62.09303 333.895 62.27617 333.4529 62.27617 332.9348z" stroke="none" fill="#333333" fill-rule="winding" /><path transform="matrix(1 0 0 -1 0 841)" d="M62.27617 317.9287C 62.27617 317.4106 62.09303 316.9688 61.72676 316.6021C 61.36049 316.2358 60.91836 316.0527 60.40038 316.0527C 59.88239 316.0527 59.44026 316.2358 59.07399 316.6021C 58.70772 316.9688 58.52458 317.4106 58.52459 317.9287C 58.52458 318.4468 58.70772 318.8887 59.07399 319.2549C 59.44026 319.6211 59.88239 319.8042 60.40038 319.8042C 60.91836 319.8042 61.36049 319.6211 61.72676 319.2549C 62.09303 318.8887 62.27617 318.4468 62.27617 317.9287z" stroke="none" fill="#333333" fill-rule="winding" /><path transform="matrix(1 0 0 -1 0 841)" d="M48.39533 159.2368L48.39533 274.7852C 48.39533 275.3032 48.57846 275.7456 48.94473 276.1118C 49.311 276.478 49.75313 276.6611 50.27112 276.6611L50.27112 276.6611L544.7289 276.6611C 545.2468 276.6611 545.6889 276.478 546.0552 276.1118C 546.4214 275.7456 546.6046 275.3032 546.6047 274.7852L546.6047 274.7852L546.6047 159.2368C 546.6046 158.7192 546.4214 158.2769 546.0552 157.9111C 545.6889 157.5444 545.2468 157.3613 544.7289 157.3608L544.7289 157.3608L50.27112 157.3608C 49.75313 157.3613 49.311 157.5444 48.94473 157.9111C 48.57846 158.2769 48.39533 158.7192 48.39533 159.2368z" stroke="none" fill="#F8F8F8" fill-rule="winding" /><path transform="matrix(1 0 0 -1 0 841)" d="M48.39533 159.2368L48.39533 274.7852C 48.39533 275.3032 48.57846 275.7456 48.94473 276.1118C 49.311 276.478 49.75313 276.6611 50.27112 276.6611L50.27112 276.6611L544.7289 276.6611C 545.2468 276.6611 545.6889 276.478 546.0552 276.1118C 546.4214 275.7456 546.6046 275.3032 546.6047 274.7852L546.6047 274.7852L546.6047 159.2368C 546.6046 158.7192 546.4214 158.2769 546.0552 157.9111C 545.6889 157.5444 545.2468 157.3613 544.7289 157.3608L544.7289 157.3608L50.27112 157.3608C 49.75313 157.3613 49.311 157.5444 48.94473 157.9111C 48.57846 158.2769 48.39533 158.7192 48.39533 159.2368z" stroke="#E7EAED" stroke-width="0.7503152" fill="none" /></g><g clip-path="url(#7)"><path transform="matrix(1 0 0 -1 0 841)" d="M48.77049 270.2837L543.2282 270.2837L543.2282 270.2837L543.2282 162.2383L543.2282 162.2383L48.77049 162.2383z" stroke="none" fill="#F8F8F8" fill-rule="winding" /></g><g clip-path="url(#8)"></g><g clip-path="url(#9)"><path transform="matrix(1 0 0 -1 0 841)" d="M48.77049 855.5293L543.2282 855.5293L543.2282 855.5293L543.2282 474.3691L543.2282 474.3691L48.77049 474.3691z" stroke="none" fill="#F8F8F8" fill-rule="winding" /><path transform="matrix(1 0 0 -1 0 841)" d="M48.77049 855.5293L75.78184 855.5293L75.78184 855.5293L75.78184 372.3264L75.78184 372.3264L48.77049 372.3264z" stroke="none" fill="#F8F8F8" fill-rule="winding" /><path transform="matrix(1 0 0 -1 0 841)" d="M75.03152 855.5293L75.78184 855.5293L75.78184 855.5293L75.78184 372.3264L75.78184 372.3264L75.03152 372.3264z" stroke="none" fill="#DDDDDD" fill-rule="winding" /></g><g clip-path="url(#10)"><path transform="matrix(1 0 0 -1 0 841)" d="M48.77049 270.2837L543.2282 270.2837L543.2282 270.2837L543.2282 162.2383L543.2282 162.2383L48.77049 162.2383z" stroke="none" fill="#F8F8F8" fill-rule="winding" /><path transform="matrix(1 0 0 -1 0 841)" d="M48.77049 270.2837L69.77932 270.2837L69.77932 270.2837L69.77932 132.2256L69.77932 132.2256L48.77049 132.2256z" stroke="none" fill="#F8F8F8" fill-rule="winding" /><path transform="matrix(1 0 0 -1 0 841)" d="M69.029 270.2837L69.77932 270.2837L69.77932 270.2837L69.77932 132.2256L69.77932 132.2256L69.029 132.2256z" stroke="none" fill="#DDDDDD" fill-rule="winding" /></g><g transform="matrix(0.2399193 0 0 0.2399322 0 -14.78003)"><g transform="matrix(1 0 0 1 0 0)"><image x="0" y="0" xlink:href="img_02.png" width="2480" height="295" /></g></g><g transform="matrix(0.4798387 0 0 0.4798876 0 798.29)"><g transform="matrix(1 0 0 1 0 0)"><image x="0" y="0" xlink:href="img_03.png" width="1240" height="89" /></g></g></g></g></g></svg>