<svg xmlns="http://www.w3.org/2000/svg" xmlns:xlink="http://www.w3.org/1999/xlink" id="body_46" preserveAspectRatio="xMinYMin meet" viewBox="0 0 793 1121"><defs><clipPath id="1"><path d="M0 841L0 0L0 0L595 0L595 0L595 841L595 841L0 841z" /></clipPath><clipPath id="2"><path d="M0 56L595 56L595 56L595 784.5586L595 784.5586L0 784.5586z" /></clipPath><clipPath id="3"><path d="M48.77049 166.2969L543.2282 166.2969L543.2282 166.2969L543.2282 233.8242L543.2282 233.8242L48.77049 233.8242z" /></clipPath><clipPath id="4"><path d="M0 56L595 56L595 56L595 784.5586L595 784.5586L0 784.5586z" /></clipPath><clipPath id="5"><path d="M48.77049 639.7461L543.2282 639.7461L543.2282 639.7461L543.2282 720.7813L543.2282 720.7813L48.77049 720.7813z" /></clipPath><clipPath id="6"><path d="M48.77049 166.2969L543.2282 166.2969L543.2282 166.2969L543.2282 233.8242L543.2282 233.8242L48.77049 233.8242z" /></clipPath><clipPath id="7"><path d="M48.77049 639.7461L543.2282 639.7461L543.2282 639.7461L543.2282 720.7813L543.2282 720.7813L48.77049 720.7813z" /></clipPath></defs><g transform="matrix(1.333333 0 0 1.333333 0 0)"><g><g clip-path="url(#1)"><g clip-path="url(#2)"><path transform="matrix(1 0 0 -1 0 841)" d="M0 33570.02L595 33570.02L595 33570.02L595 -24407.59L595 -24407.59L0 -24407.59z" stroke="none" fill="#FFFFFF" fill-rule="winding" /><path transform="matrix(1 0 0 -1 0 841)" d="M48.02018 707.7148L51.02144 707.7148L51.02144 707.7148L51.02144 692.7109L51.02144 692.7109L48.02018 692.7109z" stroke="none" fill="#DFE2E5" fill-rule="winding" /><path transform="matrix(1 0 0 -1 0 841)" d="M48.02018 234.2656L51.02144 234.2656L51.02144 234.2656L51.02144 219.2617L51.02144 219.2617L48.02018 219.2617z" stroke="none" fill="#DFE2E5" fill-rule="winding" /><path transform="matrix(1 0 0 -1 0 841)" d="M48.39533 604.1719L48.39533 679.2031C 48.39533 679.7227 48.57846 680.1641 48.94473 680.5313C 49.311 680.8984 49.75313 681.0781 50.27112 681.0781L50.27112 681.0781L544.7289 681.0781C 545.2468 681.0781 545.6889 680.8984 546.0552 680.5313C 546.4214 680.1641 546.6046 679.7227 546.6047 679.2031L546.6047 679.2031L546.6047 604.1719C 546.6046 603.6563 546.4214 603.2148 546.0552 602.8477C 545.6889 602.4805 545.2468 602.3008 544.7289 602.2969L544.7289 602.2969L50.27112 602.2969C 49.75313 602.3008 49.311 602.4805 48.94473 602.8477C 48.57846 603.2148 48.39533 603.6563 48.39533 604.1719z" stroke="none" fill="#F8F8F8" fill-rule="winding" /><path transform="matrix(1 0 0 -1 0 841)" d="M48.39533 604.1719L48.39533 679.2031C 48.39533 679.7227 48.57846 680.1641 48.94473 680.5313C 49.311 680.8984 49.75313 681.0781 50.27112 681.0781L50.27112 681.0781L544.7289 681.0781C 545.2468 681.0781 545.6889 680.8984 546.0552 680.5313C 546.4214 680.1641 546.6046 679.7227 546.6047 679.2031L546.6047 679.2031L546.6047 604.1719C 546.6046 603.6563 546.4214 603.2148 546.0552 602.8477C 545.6889 602.4805 545.2468 602.3008 544.7289 602.2969L544.7289 602.2969L50.27112 602.2969C 49.75313 602.3008 49.311 602.4805 48.94473 602.8477C 48.57846 603.2148 48.39533 603.6563 48.39533 604.1719z" stroke="#E7EAED" stroke-width="0.7503152" fill="none" /></g><g clip-path="url(#3)"><path transform="matrix(1 0 0 -1 0 841)" d="M48.77049 674.7031L543.2282 674.7031L543.2282 674.7031L543.2282 607.1758L543.2282 607.1758L48.77049 607.1758z" stroke="none" fill="#F8F8F8" fill-rule="winding" /></g><g clip-path="url(#4)"><g transform="matrix(0.7503152 0 0 0.7503152 174.0731 273.5938)"><g transform="matrix(1 0 0 1 0 0)"><image x="0" y="0" xlink:href="img_90.png" width="330" height="403" /></g></g><path transform="matrix(1 0 0 -1 0 841)" d="M48.39533 117.2188L48.39533 205.7539C 48.39533 206.2734 48.57846 206.7148 48.94473 207.082C 49.311 207.4492 49.75313 207.6328 50.27112 207.6328L50.27112 207.6328L544.7289 207.6328C 545.2468 207.6328 545.6889 207.4492 546.0552 207.082C 546.4214 206.7148 546.6046 206.2734 546.6047 205.7539L546.6047 205.7539L546.6047 117.2188C 546.6046 116.6992 546.4214 116.2578 546.0552 115.8945C 545.6889 115.5273 545.2468 115.3438 544.7289 115.3438L544.7289 115.3438L50.27112 115.3438C 49.75313 115.3438 49.311 115.5273 48.94473 115.8945C 48.57846 116.2578 48.39533 116.6992 48.39533 117.2188z" stroke="none" fill="#F8F8F8" fill-rule="winding" /><path transform="matrix(1 0 0 -1 0 841)" d="M48.39533 117.2188L48.39533 205.7539C 48.39533 206.2734 48.57846 206.7148 48.94473 207.082C 49.311 207.4492 49.75313 207.6328 50.27112 207.6328L50.27112 207.6328L544.7289 207.6328C 545.2468 207.6328 545.6889 207.4492 546.0552 207.082C 546.4214 206.7148 546.6046 206.2734 546.6047 205.7539L546.6047 205.7539L546.6047 117.2188C 546.6046 116.6992 546.4214 116.2578 546.0552 115.8945C 545.6889 115.5273 545.2468 115.3438 544.7289 115.3438L544.7289 115.3438L50.27112 115.3438C 49.75313 115.3438 49.311 115.5273 48.94473 115.8945C 48.57846 116.2578 48.39533 116.6992 48.39533 117.2188z" stroke="#E7EAED" stroke-width="0.7503152" fill="none" /></g><g clip-path="url(#5)"><path transform="matrix(1 0 0 -1 0 841)" d="M48.77049 201.2539L543.2282 201.2539L543.2282 201.2539L543.2282 120.2188L543.2282 120.2188L48.77049 120.2188z" stroke="none" fill="#F8F8F8" fill-rule="winding" /></g><g clip-path="url(#6)"><path transform="matrix(1 0 0 -1 0 841)" d="M48.77049 674.7031L543.2282 674.7031L543.2282 674.7031L543.2282 607.1758L543.2282 607.1758L48.77049 607.1758z" stroke="none" fill="#F8F8F8" fill-rule="winding" /><path transform="matrix(1 0 0 -1 0 841)" d="M48.77049 674.7031L69.77932 674.7031L69.77932 674.7031L69.77932 588.418L69.77932 588.418L48.77049 588.418z" stroke="none" fill="#F8F8F8" fill-rule="winding" /><path transform="matrix(1 0 0 -1 0 841)" d="M69.029 674.7031L69.77932 674.7031L69.77932 674.7031L69.77932 588.418L69.77932 588.418L69.029 588.418z" stroke="none" fill="#DDDDDD" fill-rule="winding" /></g><g clip-path="url(#7)"><path transform="matrix(1 0 0 -1 0 841)" d="M48.77049 201.2539L543.2282 201.2539L543.2282 201.2539L543.2282 120.2188L543.2282 120.2188L48.77049 120.2188z" stroke="none" fill="#F8F8F8" fill-rule="winding" /><path transform="matrix(1 0 0 -1 0 841)" d="M48.77049 201.2539L69.77932 201.2539L69.77932 201.2539L69.77932 97.71094L69.77932 97.71094L48.77049 97.71094z" stroke="none" fill="#F8F8F8" fill-rule="winding" /><path transform="matrix(1 0 0 -1 0 841)" d="M69.029 201.2539L69.77932 201.2539L69.77932 201.2539L69.77932 97.71094L69.77932 97.71094L69.029 97.71094z" stroke="none" fill="#DDDDDD" fill-rule="winding" /></g><g transform="matrix(0.2399193 0 0 0.2399322 0 -14.78003)"><g transform="matrix(1 0 0 1 0 0)"><image x="0" y="0" xlink:href="img_02.png" width="2480" height="295" /></g></g><g transform="matrix(0.4798387 0 0 0.4798876 0 798.29)"><g transform="matrix(1 0 0 1 0 0)"><image x="0" y="0" xlink:href="img_03.png" width="1240" height="89" /></g></g></g></g></g></svg>