<svg xmlns="http://www.w3.org/2000/svg" xmlns:xlink="http://www.w3.org/1999/xlink" id="body_73" preserveAspectRatio="xMinYMin meet" viewBox="0 0 793 1121"><defs><clipPath id="1"><path d="M0 841L0 0L0 0L595 0L595 0L595 841L595 841L0 841z" /></clipPath><clipPath id="2"><path d="M0 56L595 56L595 56L595 784.5586L595 784.5586L0 784.5586z" /></clipPath><clipPath id="3"><path d="M48.77049 56L543.2282 56L543.2282 56L543.2282 69.50781L543.2282 69.50781L48.77049 69.50781z" /></clipPath><clipPath id="4"><path d="M0 56L595 56L595 56L595 784.5586L595 784.5586L0 784.5586z" /></clipPath><clipPath id="5"><path d="M48.77049 301.3555L543.2282 301.3555L543.2282 301.3555L543.2282 784.5586L543.2282 784.5586L48.77049 784.5586z" /></clipPath><clipPath id="6"><path d="M48.77049 56L543.2282 56L543.2282 56L543.2282 69.50781L543.2282 69.50781L48.77049 69.50781z" /></clipPath><clipPath id="7"><path d="M48.77049 301.3555L543.2282 301.3555L543.2282 301.3555L543.2282 784.5586L543.2282 784.5586L48.77049 784.5586z" /></clipPath></defs><g transform="matrix(1.333333 0 0 1.333333 0 0)"><g><g clip-path="url(#1)"><g clip-path="url(#2)"><path transform="matrix(1 0 0 -1 0 841)" d="M0 53241.04L595 53241.04L595 53241.04L595 -4736.57L595 -4736.57L0 -4736.57z" stroke="none" fill="#FFFFFF" fill-rule="winding" /><path transform="matrix(1 0 0 -1 0 841)" d="M48.39533 768.4922L48.39533 983.082C 48.39533 983.6055 48.57846 984.043 48.94473 984.4141C 49.311 984.7773 49.75313 984.957 50.27112 984.957L50.27112 984.957L544.7289 984.957C 545.2468 984.957 545.6889 984.7773 546.0552 984.4141C 546.4214 984.043 546.6046 983.6055 546.6047 983.082L546.6047 983.082L546.6047 768.4922C 546.6046 767.9766 546.4214 767.5352 546.0552 767.168C 545.6889 766.7969 545.2468 766.6172 544.7289 766.6172L544.7289 766.6172L50.27112 766.6172C 49.75313 766.6172 49.311 766.7969 48.94473 767.168C 48.57846 767.5352 48.39533 767.9766 48.39533 768.4922z" stroke="none" fill="#F8F8F8" fill-rule="winding" /><path transform="matrix(1 0 0 -1 0 841)" d="M48.39533 768.4922L48.39533 983.082C 48.39533 983.6055 48.57846 984.043 48.94473 984.4141C 49.311 984.7773 49.75313 984.957 50.27112 984.957L50.27112 984.957L544.7289 984.957C 545.2468 984.957 545.6889 984.7773 546.0552 984.4141C 546.4214 984.043 546.6046 983.6055 546.6047 983.082L546.6047 983.082L546.6047 768.4922C 546.6046 767.9766 546.4214 767.5352 546.0552 767.168C 545.6889 766.7969 545.2468 766.6172 544.7289 766.6172L544.7289 766.6172L50.27112 766.6172C 49.75313 766.6172 49.311 766.7969 48.94473 767.168C 48.57846 767.5352 48.39533 767.9766 48.39533 768.4922z" stroke="#E7EAED" stroke-width="0.7503152" fill="none" /></g><g clip-path="url(#3)"><path transform="matrix(1 0 0 -1 0 841)" d="M48.77049 978.582L543.2282 978.582L543.2282 978.582L543.2282 771.4922L543.2282 771.4922L48.77049 771.4922z" stroke="none" fill="#F8F8F8" fill-rule="winding" /></g><g clip-path="url(#4)"><g transform="matrix(0.5581204 0 0 0.5591292 48.02018 86.01172)"><g transform="matrix(1 0 0 1 0 0)"><image x="0" y="0" xlink:href="img_141.png" width="894" height="208" /></g></g><path transform="matrix(1 0 0 -1 0 841)" d="M48.39533 -95.12109L48.39533 544.1484C 48.39533 544.668 48.57846 545.1094 48.94473 545.4805C 49.311 545.8438 49.75313 546.0234 50.27112 546.0234L50.27112 546.0234L544.7289 546.0234C 545.2468 546.0234 545.6889 545.8438 546.0552 545.4805C 546.4214 545.1094 546.6046 544.668 546.6047 544.1484L546.6047 544.1484L546.6047 -95.12109C 546.6046 -95.63672 546.4214 -96.07422 546.0552 -96.44531C 545.6889 -96.80859 545.2468 -96.99219 544.7289 -96.99609L544.7289 -96.99609L50.27112 -96.99609C 49.75313 -96.99219 49.311 -96.80859 48.94473 -96.44531C 48.57846 -96.07422 48.39533 -95.63672 48.39533 -95.12109z" stroke="none" fill="#F8F8F8" fill-rule="winding" /><path transform="matrix(1 0 0 -1 0 841)" d="M48.39533 -95.12109L48.39533 544.1484C 48.39533 544.668 48.57846 545.1094 48.94473 545.4805C 49.311 545.8438 49.75313 546.0234 50.27112 546.0234L50.27112 546.0234L544.7289 546.0234C 545.2468 546.0234 545.6889 545.8438 546.0552 545.4805C 546.4214 545.1094 546.6046 544.668 546.6047 544.1484L546.6047 544.1484L546.6047 -95.12109C 546.6046 -95.63672 546.4214 -96.07422 546.0552 -96.44531C 545.6889 -96.80859 545.2468 -96.99219 544.7289 -96.99609L544.7289 -96.99609L50.27112 -96.99609C 49.75313 -96.99219 49.311 -96.80859 48.94473 -96.44531C 48.57846 -96.07422 48.39533 -95.63672 48.39533 -95.12109z" stroke="#E7EAED" stroke-width="0.7503152" fill="none" /></g><g clip-path="url(#5)"><path transform="matrix(1 0 0 -1 0 841)" d="M48.77049 539.6445L543.2282 539.6445L543.2282 539.6445L543.2282 -92.12109L543.2282 -92.12109L48.77049 -92.12109z" stroke="none" fill="#F8F8F8" fill-rule="winding" /></g><g clip-path="url(#6)"><path transform="matrix(1 0 0 -1 0 841)" d="M48.77049 978.582L543.2282 978.582L543.2282 978.582L543.2282 771.4922L543.2282 771.4922L48.77049 771.4922z" stroke="none" fill="#F8F8F8" fill-rule="winding" /><path transform="matrix(1 0 0 -1 0 841)" d="M48.77049 978.582L75.78184 978.582L75.78184 978.582L75.78184 719.7227L75.78184 719.7227L48.77049 719.7227z" stroke="none" fill="#F8F8F8" fill-rule="winding" /><path transform="matrix(1 0 0 -1 0 841)" d="M75.03152 978.582L75.78184 978.582L75.78184 978.582L75.78184 719.7227L75.78184 719.7227L75.03152 719.7227z" stroke="none" fill="#DDDDDD" fill-rule="winding" /></g><g clip-path="url(#7)"><path transform="matrix(1 0 0 -1 0 841)" d="M48.77049 539.6445L543.2282 539.6445L543.2282 539.6445L543.2282 -92.12109L543.2282 -92.12109L48.77049 -92.12109z" stroke="none" fill="#F8F8F8" fill-rule="winding" /><path transform="matrix(1 0 0 -1 0 841)" d="M48.77049 539.6445L75.78184 539.6445L75.78184 539.6445L75.78184 -254.1875L75.78184 -254.1875L48.77049 -254.1875z" stroke="none" fill="#F8F8F8" fill-rule="winding" /><path transform="matrix(1 0 0 -1 0 841)" d="M75.03152 539.6445L75.78184 539.6445L75.78184 539.6445L75.78184 -254.1875L75.78184 -254.1875L75.03152 -254.1875z" stroke="none" fill="#DDDDDD" fill-rule="winding" /></g><g transform="matrix(0.2399193 0 0 0.2399322 0 -14.78003)"><g transform="matrix(1 0 0 1 0 0)"><image x="0" y="0" xlink:href="img_02.png" width="2480" height="295" /></g></g><g transform="matrix(0.4798387 0 0 0.4798876 0 798.29)"><g transform="matrix(1 0 0 1 0 0)"><image x="0" y="0" xlink:href="img_03.png" width="1240" height="89" /></g></g></g></g></g></svg>