<svg xmlns="http://www.w3.org/2000/svg" xmlns:xlink="http://www.w3.org/1999/xlink" id="body_30" preserveAspectRatio="xMinYMin meet" viewBox="0 0 793 1121"><defs><clipPath id="1"><path d="M0 841L0 0L0 0L595 0L595 0L595 841L595 841L0 841z" /></clipPath><clipPath id="2"><path d="M0 56L595 56L595 56L595 784.5566L595 784.5566L0 784.5566z" /></clipPath><clipPath id="3"><path d="M48.77049 56L543.2282 56L543.2282 56L543.2282 474.6758L543.2282 474.6758L48.77049 474.6758z" /></clipPath><clipPath id="4"><path d="M0 56L595 56L595 56L595 784.5566L595 784.5566L0 784.5566z" /></clipPath><clipPath id="5"><path d="M48.77049 524.1973L543.2282 524.1973L543.2282 524.1973L543.2282 578.2188L543.2282 578.2188L48.77049 578.2188z" /></clipPath><clipPath id="6"><path d="M0 56L595 56L595 56L595 784.5566L595 784.5566L0 784.5566z" /></clipPath><clipPath id="7"><path d="M48.77049 56L543.2282 56L543.2282 56L543.2282 474.6758L543.2282 474.6758L48.77049 474.6758z" /></clipPath><clipPath id="8"><path d="M48.77049 524.1973L543.2282 524.1973L543.2282 524.1973L543.2282 578.2188L543.2282 578.2188L48.77049 578.2188z" /></clipPath></defs><g transform="matrix(1.333333 0 0 1.333333 0 0)"><g><g clip-path="url(#1)"><g clip-path="url(#2)"><path transform="matrix(1 0 0 -1 0 841)" d="M0 21913.13L595 21913.13L595 21913.13L595 -36064.48L595 -36064.48L0 -36064.48z" stroke="none" fill="#FFFFFF" fill-rule="winding" /><path transform="matrix(1 0 0 -1 0 841)" d="M48.02018 349.8164L51.02144 349.8164L51.02144 349.8164L51.02144 334.8105L51.02144 334.8105L48.02018 334.8105z" stroke="none" fill="#DFE2E5" fill-rule="winding" /><path transform="matrix(1 0 0 -1 0 841)" d="M48.02018 246.2734L51.02144 246.2734L51.02144 246.2734L51.02144 231.2676L51.02144 231.2676L48.02018 231.2676z" stroke="none" fill="#DFE2E5" fill-rule="winding" /><path transform="matrix(1 0 0 -1 0 841)" d="M48.39533 363.3223L48.39533 1143.65C 48.39533 1144.17 48.57846 1144.611 48.94473 1144.979C 49.311 1145.344 49.75313 1145.525 50.27112 1145.525L50.27112 1145.525L544.7289 1145.525C 545.2468 1145.525 545.6889 1145.344 546.0552 1144.979C 546.4214 1144.611 546.6046 1144.17 546.6047 1143.65L546.6047 1143.65L546.6047 363.3223C 546.6046 362.8047 546.4214 362.3652 546.0552 361.998C 545.6889 361.6309 545.2468 361.4492 544.7289 361.4473L544.7289 361.4473L50.27112 361.4473C 49.75313 361.4492 49.311 361.6309 48.94473 361.998C 48.57846 362.3652 48.39533 362.8047 48.39533 363.3223z" stroke="none" fill="#F8F8F8" fill-rule="winding" /><path transform="matrix(1 0 0 -1 0 841)" d="M48.39533 363.3223L48.39533 1143.65C 48.39533 1144.17 48.57846 1144.611 48.94473 1144.979C 49.311 1145.344 49.75313 1145.525 50.27112 1145.525L50.27112 1145.525L544.7289 1145.525C 545.2468 1145.525 545.6889 1145.344 546.0552 1144.979C 546.4214 1144.611 546.6046 1144.17 546.6047 1143.65L546.6047 1143.65L546.6047 363.3223C 546.6046 362.8047 546.4214 362.3652 546.0552 361.998C 545.6889 361.6309 545.2468 361.4492 544.7289 361.4473L544.7289 361.4473L50.27112 361.4473C 49.75313 361.4492 49.311 361.6309 48.94473 361.998C 48.57846 362.3652 48.39533 362.8047 48.39533 363.3223z" stroke="#E7EAED" stroke-width="0.7503152" fill="none" /></g><g clip-path="url(#3)"><path transform="matrix(1 0 0 -1 0 841)" d="M48.77049 1139.148L543.2282 1139.148L543.2282 1139.148L543.2282 366.3242L543.2282 366.3242L48.77049 366.3242z" stroke="none" fill="#F8F8F8" fill-rule="winding" /></g><g clip-path="url(#4)"><path transform="matrix(1 0 0 -1 0 841)" d="M48.39533 259.7793L48.39533 321.3047C 48.39533 321.8242 48.57846 322.2656 48.94473 322.6328C 49.311 322.998 49.75313 323.1816 50.27112 323.1816L50.27112 323.1816L544.7289 323.1816C 545.2468 323.1816 545.6889 322.998 546.0552 322.6328C 546.4214 322.2656 546.6046 321.8242 546.6047 321.3047L546.6047 321.3047L546.6047 259.7793C 546.6046 259.2617 546.4214 258.8184 546.0552 258.4531C 545.6889 258.0859 545.2468 257.9043 544.7289 257.9043L544.7289 257.9043L50.27112 257.9043C 49.75313 257.9043 49.311 258.0859 48.94473 258.4531C 48.57846 258.8184 48.39533 259.2617 48.39533 259.7793z" stroke="none" fill="#F8F8F8" fill-rule="winding" /><path transform="matrix(1 0 0 -1 0 841)" d="M48.39533 259.7793L48.39533 321.3047C 48.39533 321.8242 48.57846 322.2656 48.94473 322.6328C 49.311 322.998 49.75313 323.1816 50.27112 323.1816L50.27112 323.1816L544.7289 323.1816C 545.2468 323.1816 545.6889 322.998 546.0552 322.6328C 546.4214 322.2656 546.6046 321.8242 546.6047 321.3047L546.6047 321.3047L546.6047 259.7793C 546.6046 259.2617 546.4214 258.8184 546.0552 258.4531C 545.6889 258.0859 545.2468 257.9043 544.7289 257.9043L544.7289 257.9043L50.27112 257.9043C 49.75313 257.9043 49.311 258.0859 48.94473 258.4531C 48.57846 258.8184 48.39533 259.2617 48.39533 259.7793z" stroke="#E7EAED" stroke-width="0.7503152" fill="none" /></g><g clip-path="url(#5)"><path transform="matrix(1 0 0 -1 0 841)" d="M48.77049 316.8027L543.2282 316.8027L543.2282 316.8027L543.2282 262.7813L543.2282 262.7813L48.77049 262.7813z" stroke="none" fill="#F8F8F8" fill-rule="winding" /></g><g clip-path="url(#6)"></g><g clip-path="url(#7)"><path transform="matrix(1 0 0 -1 0 841)" d="M48.77049 1139.148L543.2282 1139.148L543.2282 1139.148L543.2282 366.3242L543.2282 366.3242L48.77049 366.3242z" stroke="none" fill="#F8F8F8" fill-rule="winding" /><path transform="matrix(1 0 0 -1 0 841)" d="M48.77049 1139.148L75.78184 1139.148L75.78184 1139.148L75.78184 155.4863L75.78184 155.4863L48.77049 155.4863z" stroke="none" fill="#F8F8F8" fill-rule="winding" /><path transform="matrix(1 0 0 -1 0 841)" d="M75.03152 1139.148L75.78184 1139.148L75.78184 1139.148L75.78184 155.4863L75.78184 155.4863L75.03152 155.4863z" stroke="none" fill="#DDDDDD" fill-rule="winding" /></g><g clip-path="url(#8)"><path transform="matrix(1 0 0 -1 0 841)" d="M48.77049 316.8027L543.2282 316.8027L543.2282 316.8027L543.2282 262.7813L543.2282 262.7813L48.77049 262.7813z" stroke="none" fill="#F8F8F8" fill-rule="winding" /><path transform="matrix(1 0 0 -1 0 841)" d="M48.77049 316.8027L69.77932 316.8027L69.77932 316.8027L69.77932 247.7734L69.77932 247.7734L48.77049 247.7734z" stroke="none" fill="#F8F8F8" fill-rule="winding" /><path transform="matrix(1 0 0 -1 0 841)" d="M69.029 316.8027L69.77932 316.8027L69.77932 316.8027L69.77932 247.7734L69.77932 247.7734L69.029 247.7734z" stroke="none" fill="#DDDDDD" fill-rule="winding" /></g><g transform="matrix(0.2399193 0 0 0.2399322 0 -14.78003)"><g transform="matrix(1 0 0 1 0 0)"><image x="0" y="0" xlink:href="img_02.png" width="2480" height="295" /></g></g><g transform="matrix(0.4798387 0 0 0.4798876 0 798.29)"><g transform="matrix(1 0 0 1 0 0)"><image x="0" y="0" xlink:href="img_03.png" width="1240" height="89" /></g></g></g></g></g></svg>