<svg xmlns="http://www.w3.org/2000/svg" xmlns:xlink="http://www.w3.org/1999/xlink" id="body_32" preserveAspectRatio="xMinYMin meet" viewBox="0 0 793 1121"><defs><clipPath id="1"><path d="M0 841L0 0L0 0L595 0L595 0L595 841L595 841L0 841z" /></clipPath><clipPath id="2"><path d="M0 56L595 56L595 56L595 784.5547L595 784.5547L0 784.5547z" /></clipPath><clipPath id="3"><path d="M48.77049 56L543.2282 56L543.2282 56L543.2282 407.1465L543.2282 407.1465L48.77049 407.1465z" /></clipPath><clipPath id="4"><path d="M0 56L595 56L595 56L595 784.5547L595 784.5547L0 784.5547z" /></clipPath><clipPath id="5"><path d="M48.77049 678.0098L543.2282 678.0098L543.2282 678.0098L543.2282 705.0215L543.2282 705.0215L48.77049 705.0215z" /></clipPath><clipPath id="6"><path d="M0 56L595 56L595 56L595 784.5547L595 784.5547L0 784.5547z" /></clipPath><clipPath id="7"><path d="M48.77049 56L543.2282 56L543.2282 56L543.2282 407.1465L543.2282 407.1465L48.77049 407.1465z" /></clipPath><clipPath id="8"><path d="M48.77049 678.0098L543.2282 678.0098L543.2282 678.0098L543.2282 705.0215L543.2282 705.0215L48.77049 705.0215z" /></clipPath></defs><g transform="matrix(1.333333 0 0 1.333333 0 0)"><g><g clip-path="url(#1)"><g clip-path="url(#2)"><path transform="matrix(1 0 0 -1 0 841)" d="M0 23370.24L595 23370.24L595 23370.24L595 -34607.37L595 -34607.37L0 -34607.37z" stroke="none" fill="#FFFFFF" fill-rule="winding" /><path transform="matrix(1 0 0 -1 0 841)" d="M48.39533 430.8516L48.39533 1214.932C 48.39533 1215.451 48.57846 1215.895 48.94473 1216.26C 49.311 1216.625 49.75313 1216.807 50.27112 1216.807L50.27112 1216.807L544.7289 1216.807C 545.2468 1216.807 545.6889 1216.625 546.0552 1216.26C 546.4214 1215.895 546.6046 1215.451 546.6047 1214.932L546.6047 1214.932L546.6047 430.8516C 546.6046 430.3359 546.4214 429.8945 546.0552 429.5293C 545.6889 429.1621 545.2468 428.9785 544.7289 428.9766L544.7289 428.9766L50.27112 428.9766C 49.75313 428.9785 49.311 429.1621 48.94473 429.5293C 48.57846 429.8945 48.39533 430.3359 48.39533 430.8516z" stroke="none" fill="#F8F8F8" fill-rule="winding" /><path transform="matrix(1 0 0 -1 0 841)" d="M48.39533 430.8516L48.39533 1214.932C 48.39533 1215.451 48.57846 1215.895 48.94473 1216.26C 49.311 1216.625 49.75313 1216.807 50.27112 1216.807L50.27112 1216.807L544.7289 1216.807C 545.2468 1216.807 545.6889 1216.625 546.0552 1216.26C 546.4214 1215.895 546.6046 1215.451 546.6047 1214.932L546.6047 1214.932L546.6047 430.8516C 546.6046 430.3359 546.4214 429.8945 546.0552 429.5293C 545.6889 429.1621 545.2468 428.9785 544.7289 428.9766L544.7289 428.9766L50.27112 428.9766C 49.75313 428.9785 49.311 429.1621 48.94473 429.5293C 48.57846 429.8945 48.39533 430.3359 48.39533 430.8516z" stroke="#E7EAED" stroke-width="0.7503152" fill="none" /></g><g clip-path="url(#3)"><path transform="matrix(1 0 0 -1 0 841)" d="M48.77049 1210.43L543.2282 1210.43L543.2282 1210.43L543.2282 433.8535L543.2282 433.8535L48.77049 433.8535z" stroke="none" fill="#F8F8F8" fill-rule="winding" /></g><g clip-path="url(#4)"><path transform="matrix(1 0 0 -1 0 841)" d="M62.27617 363.6992C 62.27617 363.1816 62.09303 362.7402 61.72676 362.375C 61.36049 362.0078 60.91836 361.8242 60.40038 361.8242C 59.88239 361.8242 59.44026 362.0078 59.07399 362.375C 58.70772 362.7402 58.52458 363.1816 58.52459 363.6992C 58.52458 364.2188 58.70772 364.6621 59.07399 365.0273C 59.44026 365.3926 59.88239 365.5742 60.40038 365.5742C 60.91836 365.5742 61.36049 365.3926 61.72676 365.0273C 62.09303 364.6621 62.27617 364.2188 62.27617 363.6992z" stroke="none" fill="#333333" fill-rule="winding" /><path transform="matrix(1 0 0 -1 0 841)" d="M62.27617 333.6855C 62.27617 333.1699 62.09303 332.7285 61.72676 332.3633C 61.36049 331.9961 60.91836 331.8125 60.40038 331.8105C 59.88239 331.8125 59.44026 331.9961 59.07399 332.3633C 58.70772 332.7285 58.52458 333.1699 58.52459 333.6855C 58.52458 334.2051 58.70772 334.6484 59.07399 335.0137C 59.44026 335.3789 59.88239 335.5625 60.40038 335.5625C 60.91836 335.5625 61.36049 335.3789 61.72676 335.0137C 62.09303 334.6484 62.27617 334.2051 62.27617 333.6855z" stroke="none" fill="#333333" fill-rule="winding" /><path transform="matrix(1 0 0 -1 0 841)" d="M62.27617 303.6738C 62.27617 303.1563 62.09303 302.7129 61.72676 302.3477C 61.36049 301.9805 60.91836 301.7988 60.40038 301.7988C 59.88239 301.7988 59.44026 301.9805 59.07399 302.3477C 58.70772 302.7129 58.52458 303.1563 58.52459 303.6738C 58.52458 304.1934 58.70772 304.6367 59.07399 305.002C 59.44026 305.3672 59.88239 305.5488 60.40038 305.5488C 60.91836 305.5488 61.36049 305.3672 61.72676 305.002C 62.09303 304.6367 62.27617 304.1934 62.27617 303.6738z" stroke="none" fill="#333333" fill-rule="winding" /><path transform="matrix(1 0 0 -1 0 841)" d="M62.27617 258.6543C 62.27617 258.1387 62.09303 257.6973 61.72676 257.332C 61.36049 256.9648 60.91836 256.7813 60.40038 256.7813C 59.88239 256.7813 59.44026 256.9648 59.07399 257.332C 58.70772 257.6973 58.52458 258.1387 58.52459 258.6543C 58.52458 259.1738 58.70772 259.6152 59.07399 259.9824C 59.44026 260.3477 59.88239 260.5313 60.40038 260.5313C 60.91836 260.5313 61.36049 260.3477 61.72676 259.9824C 62.09303 259.6152 62.27617 259.1738 62.27617 258.6543z" stroke="none" fill="#333333" fill-rule="winding" /><path transform="matrix(1 0 0 -1 0 841)" d="M95.29004 185.5L95.29004 190.752C 95.29003 191.375 95.50979 191.9063 95.94932 192.3438C 96.38883 192.7832 96.91939 193.002 97.54099 193.002L97.54099 193.002L123.802 193.002C 124.4236 193.002 124.9541 192.7832 125.3937 192.3438C 125.8332 191.9063 126.053 191.375 126.053 190.752L126.053 190.752L126.053 185.5C 126.053 184.8789 125.8332 184.3496 125.3937 183.9082C 124.9541 183.4707 124.4236 183.25 123.802 183.248L123.802 183.248L97.54099 183.248C 96.91939 183.25 96.38883 183.4707 95.94932 183.9082C 95.50979 184.3496 95.29003 184.8789 95.29004 185.5z" stroke="none" fill="#F3F4F4" fill-rule="winding" /><path transform="matrix(1 0 0 -1 0 841)" d="M95.66519 185.5L95.66519 190.752C 95.66519 191.2695 95.84833 191.7129 96.21459 192.0781C 96.58086 192.4434 97.023 192.627 97.54099 192.627L97.54099 192.627L123.802 192.627C 124.32 192.627 124.7621 192.4434 125.1284 192.0781C 125.4947 191.7129 125.6778 191.2695 125.6778 190.752L125.6778 190.752L125.6778 185.5C 125.6778 184.9824 125.4947 184.541 125.1284 184.1738C 124.7621 183.8086 124.32 183.625 123.802 183.623L123.802 183.623L97.54099 183.623C 97.023 183.625 96.58086 183.8086 96.21459 184.1738C 95.84833 184.541 95.66519 184.9824 95.66519 185.5z" stroke="#E7EAED" stroke-width="0.7503152" fill="none" /><path transform="matrix(1 0 0 -1 0 841)" d="M350.3972 185.5L350.3972 190.752C 350.3972 191.375 350.617 191.9063 351.0565 192.3438C 351.496 192.7832 352.0266 193.002 352.6482 193.002L352.6482 193.002L373.657 193.002C 374.2786 193.002 374.8091 192.7832 375.2486 192.3438C 375.6881 191.9063 375.9079 191.375 375.9079 190.752L375.9079 190.752L375.9079 185.5C 375.9079 184.8789 375.6881 184.3496 375.2486 183.9082C 374.8091 183.4707 374.2786 183.25 373.657 183.248L373.657 183.248L352.6482 183.248C 352.0266 183.25 351.496 183.4707 351.0565 183.9082C 350.617 184.3496 350.3972 184.8789 350.3972 185.5z" stroke="none" fill="#F3F4F4" fill-rule="winding" /><path transform="matrix(1 0 0 -1 0 841)" d="M350.7724 185.5L350.7724 190.752C 350.7724 191.2695 350.9555 191.7129 351.3217 192.0781C 351.688 192.4434 352.1302 192.627 352.6482 192.627L352.6482 192.627L373.657 192.627C 374.175 192.627 374.6171 192.4434 374.9834 192.0781C 375.3496 191.7129 375.5328 191.2695 375.5328 190.752L375.5328 190.752L375.5328 185.5C 375.5328 184.9824 375.3496 184.541 374.9834 184.1738C 374.6171 183.8086 374.175 183.625 373.657 183.623L373.657 183.623L352.6482 183.623C 352.1302 183.625 351.688 183.8086 351.3217 184.1738C 350.9555 184.541 350.7724 184.9824 350.7724 185.5z" stroke="#E7EAED" stroke-width="0.7503152" fill="none" /><path transform="matrix(1 0 0 -1 0 841)" d="M385.662 185.5L385.662 190.752C 385.662 191.375 385.8818 191.9063 386.3213 192.3438C 386.7608 192.7832 387.2914 193.002 387.913 193.002L387.913 193.002L409.6721 193.002C 410.2937 193.002 410.8242 192.7832 411.2638 192.3438C 411.7033 191.9063 411.9231 191.375 411.9231 190.752L411.9231 190.752L411.9231 185.5C 411.9231 184.8789 411.7033 184.3496 411.2638 183.9082C 410.8242 183.4707 410.2937 183.25 409.6721 183.248L409.6721 183.248L387.913 183.248C 387.2914 183.25 386.7608 183.4707 386.3213 183.9082C 385.8818 184.3496 385.662 184.8789 385.662 185.5z" stroke="none" fill="#F3F4F4" fill-rule="winding" /><path transform="matrix(1 0 0 -1 0 841)" d="M386.0372 185.5L386.0372 190.752C 386.0371 191.2695 386.2203 191.7129 386.5865 192.0781C 386.9528 192.4434 387.395 192.627 387.913 192.627L387.913 192.627L409.6721 192.627C 410.1901 192.627 410.6322 192.4434 410.9984 192.0781C 411.3647 191.7129 411.5479 191.2695 411.5479 190.752L411.5479 190.752L411.5479 185.5C 411.5479 184.9824 411.3647 184.541 410.9984 184.1738C 410.6322 183.8086 410.1901 183.625 409.6721 183.623L409.6721 183.623L387.913 183.623C 387.395 183.625 386.9528 183.8086 386.5865 184.1738C 386.2203 184.541 386.0371 184.9824 386.0372 185.5z" stroke="#E7EAED" stroke-width="0.7503152" fill="none" /><path transform="matrix(1 0 0 -1 0 841)" d="M48.39533 132.9766L48.39533 167.4922C 48.39533 168.0078 48.57846 168.4512 48.94473 168.8184C 49.311 169.1836 49.75313 169.3672 50.27112 169.3672L50.27112 169.3672L544.7289 169.3672C 545.2468 169.3672 545.6889 169.1836 546.0552 168.8184C 546.4214 168.4512 546.6046 168.0078 546.6047 167.4922L546.6047 167.4922L546.6047 132.9766C 546.6046 132.459 546.4214 132.0176 546.0552 131.6504C 545.6889 131.2852 545.2468 131.1016 544.7289 131.1016L544.7289 131.1016L50.27112 131.1016C 49.75313 131.1016 49.311 131.2852 48.94473 131.6504C 48.57846 132.0176 48.39533 132.459 48.39533 132.9766z" stroke="none" fill="#F8F8F8" fill-rule="winding" /><path transform="matrix(1 0 0 -1 0 841)" d="M48.39533 132.9766L48.39533 167.4922C 48.39533 168.0078 48.57846 168.4512 48.94473 168.8184C 49.311 169.1836 49.75313 169.3672 50.27112 169.3672L50.27112 169.3672L544.7289 169.3672C 545.2468 169.3672 545.6889 169.1836 546.0552 168.8184C 546.4214 168.4512 546.6046 168.0078 546.6047 167.4922L546.6047 167.4922L546.6047 132.9766C 546.6046 132.459 546.4214 132.0176 546.0552 131.6504C 545.6889 131.2852 545.2468 131.1016 544.7289 131.1016L544.7289 131.1016L50.27112 131.1016C 49.75313 131.1016 49.311 131.2852 48.94473 131.6504C 48.57846 132.0176 48.39533 132.459 48.39533 132.9766z" stroke="#E7EAED" stroke-width="0.7503152" fill="none" /></g><g clip-path="url(#5)"><path transform="matrix(1 0 0 -1 0 841)" d="M48.77049 162.9902L543.2282 162.9902L543.2282 162.9902L543.2282 135.9785L543.2282 135.9785L48.77049 135.9785z" stroke="none" fill="#F8F8F8" fill-rule="winding" /></g><g clip-path="url(#6)"></g><g clip-path="url(#7)"><path transform="matrix(1 0 0 -1 0 841)" d="M48.77049 1210.43L543.2282 1210.43L543.2282 1210.43L543.2282 433.8535L543.2282 433.8535L48.77049 433.8535z" stroke="none" fill="#F8F8F8" fill-rule="winding" /><path transform="matrix(1 0 0 -1 0 841)" d="M48.77049 1210.43L75.78184 1210.43L75.78184 1210.43L75.78184 226.7656L75.78184 226.7656L48.77049 226.7656z" stroke="none" fill="#F8F8F8" fill-rule="winding" /><path transform="matrix(1 0 0 -1 0 841)" d="M75.03152 1210.43L75.78184 1210.43L75.78184 1210.43L75.78184 226.7656L75.78184 226.7656L75.03152 226.7656z" stroke="none" fill="#DDDDDD" fill-rule="winding" /></g><g clip-path="url(#8)"><path transform="matrix(1 0 0 -1 0 841)" d="M48.77049 162.9902L543.2282 162.9902L543.2282 162.9902L543.2282 135.9785L543.2282 135.9785L48.77049 135.9785z" stroke="none" fill="#F8F8F8" fill-rule="winding" /><path transform="matrix(1 0 0 -1 0 841)" d="M48.77049 162.9902L69.77932 162.9902L69.77932 162.9902L69.77932 128.4746L69.77932 128.4746L48.77049 128.4746z" stroke="none" fill="#F8F8F8" fill-rule="winding" /><path transform="matrix(1 0 0 -1 0 841)" d="M69.029 162.9902L69.77932 162.9902L69.77932 162.9902L69.77932 128.4746L69.77932 128.4746L69.029 128.4746z" stroke="none" fill="#DDDDDD" fill-rule="winding" /></g><g transform="matrix(0.2399193 0 0 0.2399322 0 -14.78003)"><g transform="matrix(1 0 0 1 0 0)"><image x="0" y="0" xlink:href="img_02.png" width="2480" height="295" /></g></g><g transform="matrix(0.4798387 0 0 0.4798876 0 798.29)"><g transform="matrix(1 0 0 1 0 0)"><image x="0" y="0" xlink:href="img_03.png" width="1240" height="89" /></g></g></g></g></g></svg>