<svg xmlns="http://www.w3.org/2000/svg" xmlns:xlink="http://www.w3.org/1999/xlink" id="body_7" preserveAspectRatio="xMinYMin meet" viewBox="0 0 793 1121"><defs><clipPath id="1"><path d="M0 841L0 0L0 0L595 0L595 0L595 841L595 841L0 841z" /></clipPath><clipPath id="2"><path d="M0 56L595 56L595 56L595 784.5562L595 784.5562L0 784.5562z" /></clipPath><clipPath id="3"><path d="M523.4586 383.8882L516.8832 383.8882L516.8832 383.8882L516.8832 386.3638L516.8832 386.3638L523.4586 386.3638L523.4586 386.3638L523.4586 383.8882zM286.9617 383.8882L293.7706 383.8882L293.7706 383.8882L293.7706 386.3638L293.7706 386.3638L286.9617 386.3638L286.9617 386.3638L286.9617 383.8882zM276.6437 383.8882L269.8349 383.8882L269.8349 383.8882L269.8349 386.3638L269.8349 386.3638L276.6437 386.3638L276.6437 386.3638L276.6437 383.8882zM212.6487 383.8882L215.3901 383.8882L215.3901 383.8882L215.3901 386.3638L215.3901 386.3638L212.6487 386.3638L212.6487 386.3638L212.6487 383.8882zM0 784.5562L0 56L0 56L595 56L595 56L595 784.5562L595 784.5562L0 784.5562z" /></clipPath><clipPath id="4"><path d="M0 56L595 56L595 56L595 784.5562L595 784.5562L0 784.5562z" /></clipPath><clipPath id="5"><path d="M135.1984 398.894L142.0072 398.894L142.0072 398.894L142.0072 401.3701L142.0072 401.3701L135.1984 401.3701L135.1984 401.3701L135.1984 398.894zM111.9305 398.894L105.1217 398.894L105.1217 398.894L105.1217 401.3701L105.1217 401.3701L111.9305 401.3701L111.9305 401.3701L111.9305 398.894zM87.69002 398.894L91.79836 398.894L91.79836 398.894L91.79836 401.3701L91.79836 401.3701L87.69002 401.3701L87.69002 401.3701L87.69002 398.894zM85.82111 398.894L83.07968 398.894L83.07968 398.894L83.07968 401.3701L83.07968 401.3701L85.82111 401.3701L85.82111 401.3701L85.82111 398.894zM56.24162 398.894L58.98306 398.894L58.98306 398.894L58.98306 401.3701L58.98306 401.3701L56.24162 401.3701L56.24162 401.3701L56.24162 398.894zM0 784.5562L0 56L0 56L595 56L595 56L595 784.5562L595 784.5562L0 784.5562z" /></clipPath><clipPath id="6"><path d="M0 56L595 56L595 56L595 784.5562L595 784.5562L0 784.5562z" /></clipPath></defs><g transform="matrix(1.333333 0 0 1.333333 0 0)"><g><g clip-path="url(#1)"><g clip-path="url(#2)"><path transform="matrix(1 0 0 -1 0 841)" d="M0 5156.336L595 5156.336L595 5156.336L595 -52821.27L595 -52821.27L0 -52821.27z" stroke="none" fill="#FFFFFF" fill-rule="winding" /><path transform="matrix(1 0 0 -1 0 841)" d="M48.02018 604.9243L51.02144 604.9243L51.02144 604.9243L51.02144 499.1299L51.02144 499.1299L48.02018 499.1299z" stroke="none" fill="#DFE2E5" fill-rule="winding" /><path transform="matrix(1 0 0 -1 0 841)" d="M48.02018 490.876L51.02144 490.876L51.02144 490.876L51.02144 475.8701L51.02144 475.8701L48.02018 475.8701z" stroke="none" fill="#DFE2E5" fill-rule="winding" /><path transform="matrix(1 0 0 -1 0 841)" d="M48.02018 260.5293L51.02144 260.5293L51.02144 260.5293L51.02144 245.5229L51.02144 245.5229L48.02018 245.5229z" stroke="none" fill="#DFE2E5" fill-rule="winding" /><path transform="matrix(1 0 0 -1 0 841)" d="M48.02018 205.7563L51.02144 205.7563L51.02144 205.7563L51.02144 190.75L51.02144 190.75L48.02018 190.75z" stroke="none" fill="#DFE2E5" fill-rule="winding" /><path transform="matrix(1 0 0 -1 0 841)" d="M48.02018 114.9683L51.02144 114.9683L51.02144 114.9683L51.02144 99.96191L51.02144 99.96191L48.02018 99.96191z" stroke="none" fill="#DFE2E5" fill-rule="winding" /><g transform="matrix(0.549515 0 0 0.5489527 48.02018 56)"><g transform="matrix(1 0 0 1 0 0)"><image x="0" y="0" xlink:href="img_15.png" width="908" height="313" /></g></g><path transform="matrix(1 0 0 -1 0 841)" d="M67.06607 505.3436L68.85686 505.3436L68.85686 505.3436L69.18058 506.2961L69.18058 506.2961L67.38979 506.2961L67.38979 506.2961L67.06607 505.3436zM67.59697 506.9057L69.38776 506.9057L69.38776 506.9057L69.71148 507.8583L69.71148 507.8583L67.92068 507.8583L67.92068 507.8583L67.59697 506.9057zM69.53317 505.3436L71.35254 505.3436L71.35254 505.3436L71.67625 506.2961L71.67625 506.2961L69.85689 506.2961L69.85689 506.2961L69.53317 505.3436zM72.20715 507.8583L70.38779 507.8583L70.38779 507.8583L70.06407 506.9057L70.06407 506.9057L71.88344 506.9057L71.88344 506.9057L72.20715 507.8583zM66.27612 510.8112C 66.46619 510.4175 66.70676 509.8174 66.99783 509.0109L66.99783 509.0109L66.15966 508.5346C 65.91939 509.3411 65.70859 509.9634 65.52726 510.4016L65.52726 510.4016L66.27612 510.8112zM66.23207 502.5812L68.59097 502.5431L68.59097 502.5431L71.78885 502.6193C 71.64775 502.4097 71.47359 502.1589 71.26637 501.8668L71.26637 501.8668L68.10696 501.8477L68.10696 501.8477L65.85931 501.9049C 64.78407 501.9176 64.15465 502.2891 63.97103 503.0193C 63.62866 502.778 63.10305 502.3526 62.39419 501.7429L62.39419 501.7429L62.2723 502.5335C 63.01886 503.0765 63.55747 503.4655 63.88813 503.7004L63.88813 503.7004L64.97746 506.9057L64.97746 506.9057L63.84393 506.9057L63.84393 506.9057L64.08348 507.6106L64.08348 507.6106L65.95047 507.6106L65.95047 507.6106L64.5666 503.5385C 64.74237 502.9066 65.29753 502.5875 66.23207 502.5812zM66.3053 503.1051L65.62899 503.1051L65.62899 503.1051L67.45155 508.4679L67.45155 508.4679L69.7472 508.4679C 69.35402 508.7124 68.94495 508.9569 68.51997 509.2014L68.51997 509.2014L69.0659 509.6586C 69.48239 509.4173 69.87251 509.1871 70.23627 508.968L70.23627 508.968L72.23923 509.8586L72.23923 509.8586L67.77177 509.8586L67.77177 509.8586L67.97896 510.4683L67.97896 510.4683L73.70377 510.4683L73.70377 510.4683L73.48685 509.8301L73.48685 509.8301L70.78019 508.6346C 70.87193 508.5775 70.961 508.5219 71.04742 508.4679L71.04742 508.4679L73.09064 508.4679L73.09064 508.4679L71.62744 504.1624C 71.38142 503.4385 70.92501 503.0765 70.25822 503.0765C 69.92801 503.0765 69.57244 503.086 69.19152 503.1051C 69.24178 503.3464 69.27724 503.5909 69.29794 503.8385C 69.68288 503.7941 70.01823 503.7719 70.30399 503.7719C 70.64691 503.7719 70.87448 503.937 70.9867 504.2672L70.9867 504.2672L71.14536 504.7339L71.14536 504.7339L69.32599 504.7339L69.32599 504.7339L68.82099 503.248L68.82099 503.248L68.14468 503.248L68.14468 503.248L68.64968 504.7339L68.64968 504.7339L66.85889 504.7339L66.85889 504.7339L66.3053 503.1051z" stroke="none" fill="#777777" fill-rule="winding" /><path transform="matrix(1 0 0 -1 0 841)" d="M75.91666 510.9255C 76.17176 510.4429 76.42828 509.8523 76.68621 509.1537C 76.3804 509.0013 76.10317 508.8489 75.85452 508.6965C 75.64724 509.376 75.43103 509.9825 75.20589 510.5159L75.20589 510.5159L75.91666 510.9255zM76.90916 507.3153L77.63593 507.744C 78.02811 506.8613 78.32204 506.1659 78.51771 505.6579L78.51771 505.6579L77.69539 505.1721C 77.4444 505.9659 77.18233 506.6803 76.90916 507.3153zM76.11684 502.6574L78.66297 502.6097L78.66297 502.6097L81.59109 502.705C 81.39681 502.451 81.20998 502.2002 81.03058 501.9525L81.03058 501.9525L78.22666 501.9144L78.22666 501.9144L75.80756 501.9715C 74.71962 501.9843 74.03931 502.3462 73.76665 503.0574C 73.54136 502.9178 73.03708 502.5177 72.25381 501.8572L72.25381 501.8572L72.12566 502.6574C 72.77101 503.1082 73.27971 503.4559 73.65175 503.7004L73.65175 503.7004L74.7637 506.9724L74.7637 506.9724L73.65874 506.9724L73.65874 506.9724L73.89182 507.6583L73.89182 507.6583L75.73024 507.6583L75.73024 507.6583L74.32694 503.529C 74.60159 502.9638 75.19823 502.6732 76.11684 502.6574zM77.14969 509.1442L81.23612 509.1442L81.23612 509.1442L81.85446 510.9636L81.85446 510.9636L82.62602 510.9636L82.62602 510.9636L82.00768 509.1442L82.00768 509.1442L83.64606 509.1442L83.64606 509.1442L83.40979 508.4489L83.40979 508.4489L81.77141 508.4489L81.77141 508.4489L80.42794 504.4958C 80.14957 503.6766 79.61666 503.267 78.82922 503.267C 78.41645 503.267 77.93489 503.2702 77.38455 503.2765C 77.43699 503.5242 77.48647 503.81 77.53301 504.1338C 78.02377 504.083 78.48824 504.0576 78.92641 504.0576C 79.32013 504.0576 79.58936 504.2799 79.73407 504.7244L79.73407 504.7244L80.99984 508.4489L80.99984 508.4489L76.91341 508.4489L76.91341 508.4489L77.14969 509.1442z" stroke="none" fill="#777777" fill-rule="winding" /><path transform="matrix(1 0 0 -1 0 841)" d="M115.413 505.877C 115.8819 506.0516 116.3429 506.231 116.7961 506.4152L116.7961 506.4152L117.5261 508.5632L117.5261 508.5632L116.3925 508.5632L116.3925 508.5632L116.6191 509.2299L116.6191 509.2299L117.7527 509.2299L117.7527 509.2299L118.3483 510.9827L118.3483 510.9827L119.0437 510.9827L119.0437 510.9827L118.448 509.2299L118.448 509.2299L119.5435 509.2299L119.5435 509.2299L119.3169 508.5632L119.3169 508.5632L118.2214 508.5632L118.2214 508.5632L117.6064 506.7533C 118.0075 506.9248 118.4034 507.0994 118.7941 507.2773C 118.7052 506.9597 118.6443 506.7057 118.6113 506.5152C 118.1868 506.3311 117.7622 506.1469 117.3376 505.9627L117.3376 505.9627L116.237 502.7241C 116.0169 502.0763 115.6252 501.7366 115.0619 501.7048C 114.8036 501.6921 114.5199 501.689 114.2109 501.6953C 114.2697 501.943 114.3212 502.2065 114.3653 502.4859C 114.6615 502.4605 114.908 502.4478 115.1049 502.4478C 115.3335 502.4478 115.4888 502.5685 115.5708 502.8098L115.5708 502.8098L116.5209 505.6055C 116.0889 505.4182 115.6564 505.2292 115.2234 505.0388L115.2234 505.0388L115.413 505.877zM121.139 506.5533C 120.5707 506.3945 119.9961 506.2453 119.4152 506.1056L119.4152 506.1056L118.9879 504.8482L118.9879 504.8482L120.5215 504.8482L120.5215 504.8482L120.3013 504.2005L120.3013 504.2005L118.7677 504.2005L118.7677 504.2005L118.2854 502.7812L118.2854 502.7812L120.1619 502.7812L120.1619 502.7812L121.8873 507.8583L121.8873 507.8583L119.1249 507.8583L119.1249 507.8583L119.358 508.5441L119.358 508.5441L122.1204 508.5441L122.1204 508.5441L122.5024 509.6681C 121.739 509.6269 120.9196 509.5887 120.0441 509.5538C 120.0793 509.7697 120.1115 509.9952 120.1405 510.2301C 122.1962 510.2809 124.1698 510.3984 126.0613 510.5826L126.0613 510.5826L125.9616 509.8968C 125.161 509.8301 124.2472 509.7666 123.2202 509.7062L123.2202 509.7062L122.8253 508.5441L122.8253 508.5441L125.8163 508.5441L125.8163 508.5441L125.5832 507.8583L125.5832 507.8583L122.5922 507.8583L122.5922 507.8583L120.8668 502.7812L120.8668 502.7812L122.7433 502.7812L122.7433 502.7812L123.2289 504.21L123.2289 504.21L121.7143 504.21L121.7143 504.21L121.9344 504.8578L121.9344 504.8578L123.449 504.8578L123.449 504.8578L123.8925 506.1628L123.8925 506.1628L122.3494 506.1628L122.3494 506.1628L122.5695 506.8105L122.5695 506.8105L124.7985 506.8105L124.7985 506.8105L123.0277 501.6L123.0277 501.6L122.3419 501.6L122.3419 501.6L122.5232 502.1335L122.5232 502.1335L118.0652 502.1335L118.0652 502.1335L117.8743 501.5715L117.8743 501.5715L117.198 501.5715L117.198 501.5715L118.9072 506.6009C 119.6703 506.7724 120.3818 506.9788 121.0417 507.2201L121.0417 507.2201L121.139 506.5533z" stroke="none" fill="#777777" fill-rule="winding" /><path transform="matrix(1 0 0 -1 0 841)" d="M125.255 506.2199C 126.5716 507.5154 127.8096 509.0839 128.9689 510.9255L128.9689 510.9255L129.6723 510.6969C 129.1859 509.9571 128.6961 509.2633 128.2029 508.6156L128.2029 508.6156L125.8316 501.6382L125.8316 501.6382L125.0791 501.6382L125.0791 501.6382L126.9163 507.0439C 126.3884 506.4438 125.8551 505.8929 125.3163 505.3912C 125.3138 505.6642 125.2934 505.9405 125.255 506.2199zM127.928 505.6484L131.2333 505.6484L131.2333 505.6484L132.0523 508.0583L132.0523 508.0583L130.2377 508.0583C 129.7485 507.3757 129.2603 506.766 128.7731 506.2294C 128.6494 506.4073 128.497 506.5755 128.3161 506.7343C 129.2797 507.7948 130.1267 508.9791 130.8571 510.2873L130.8571 510.2873L131.5542 510.0682C 131.2696 509.5951 130.9841 509.1474 130.6977 508.7251L130.6977 508.7251L132.2789 508.7251L132.2789 508.7251L133.0299 510.935L133.0299 510.935L133.7919 510.935L133.7919 510.935L133.0409 508.7251L133.0409 508.7251L135.3175 508.7251L135.3175 508.7251L135.0909 508.0583L135.0909 508.0583L132.8143 508.0583L132.8143 508.0583L131.9954 505.6484L131.9954 505.6484L134.5863 505.6484L134.5863 505.6484L134.3597 504.9816L134.3597 504.9816L131.7688 504.9816L131.7688 504.9816L130.6357 501.6477L130.6357 501.6477L129.8737 501.6477L129.8737 501.6477L131.0067 504.9816L131.0067 504.9816L127.7014 504.9816L127.7014 504.9816L127.928 505.6484z" stroke="none" fill="#777777" fill-rule="winding" /><path transform="matrix(1 0 0 -1 0 841)" d="M140.2964 506.8105L141.0231 507.2391C 141.4453 506.4073 141.7624 505.6865 141.9743 505.0768L141.9743 505.0768L141.1011 504.5815C 140.9006 505.3182 140.6324 506.0612 140.2964 506.8105zM139.1942 508.6965L137.051 508.6965L137.051 508.6965L136.2643 506.3818L136.2643 506.3818L138.4076 506.3818L138.4076 506.3818L139.1942 508.6965zM135.2123 503.2861L137.3555 503.2861L137.3555 503.2861L138.1745 505.696L138.1745 505.696L136.0313 505.696L136.0313 505.696L135.2123 503.2861zM139.6783 507.4582C 140.5968 508.4044 141.502 509.5824 142.3938 510.9922L142.3938 510.9922L143.126 510.7921C 142.8012 510.3127 142.4828 509.8618 142.171 509.4395L142.171 509.4395L145.2382 509.4395C 144.0528 506.1754 143.2911 504.1211 142.9532 503.2765C 142.57 502.2795 141.8767 501.781 140.8733 501.781C 140.2955 501.781 139.7145 501.8001 139.1305 501.8382C 139.2003 502.1557 139.2456 502.4383 139.2662 502.6859L139.2662 502.6859L139.2948 502.6859C 139.8996 502.597 140.4655 502.5526 140.9926 502.5526C 141.5705 502.5526 141.9853 502.8574 142.2369 503.467C 142.6283 504.4132 143.2748 506.1659 144.1762 508.7251L144.1762 508.7251L141.6234 508.7251C 141.1389 508.1123 140.6697 507.5725 140.2158 507.1058C 140.0853 507.2264 139.9062 507.3439 139.6783 507.4582zM136.5317 509.4109L137.4938 509.4109C 137.9252 509.9888 138.298 510.5159 138.6122 510.9922L138.6122 510.9922L139.3347 510.7636C 138.9696 510.2778 138.6227 509.8269 138.2939 509.4109L138.2939 509.4109L140.199 509.4109L140.199 509.4109L137.6222 501.8287L137.6222 501.8287L136.8602 501.8287L136.8602 501.8287L137.1127 502.5717L137.1127 502.5717L134.9695 502.5717L134.9695 502.5717L134.6943 501.762L134.6943 501.762L133.9323 501.762L133.9323 501.762L136.5317 509.4109z" stroke="none" fill="#777777" fill-rule="winding" /><path transform="matrix(1 0 0 -1 0 841)" d="M146.0155 509.3443L150.5878 509.3443C 150.4742 509.9539 150.3745 510.3984 150.2885 510.6778L150.2885 510.6778L151.1512 511.0303C 151.2362 510.7572 151.3519 510.3127 151.4981 509.6967L151.4981 509.6967L150.683 509.3443L150.683 509.3443L155.1981 509.3443L155.1981 509.3443L154.9521 508.6203L154.9521 508.6203L149.1749 508.6203C 148.9562 508.0424 148.7651 507.5503 148.6016 507.1439L148.6016 507.1439L153.2024 507.1439C 152.6579 505.7659 152.1686 504.5688 151.7344 503.5528C 151.2739 502.4034 150.5197 501.8287 149.4719 501.8287C 148.9893 501.8287 148.3534 501.8541 147.5642 501.9049C 147.6144 502.1462 147.6661 502.4383 147.7191 502.7812C 148.4889 502.6732 149.1247 502.6193 149.6264 502.6193C 150.2106 502.6193 150.6552 502.9654 150.9603 503.6576C 151.2933 504.4132 151.674 505.3372 152.1024 506.4295L152.1024 506.4295L148.3065 506.4295C 147.4165 504.3339 145.894 502.7082 143.739 501.5524C 143.6366 501.7556 143.5163 501.9715 143.3781 502.2002C 145.4301 503.3051 146.8315 504.7847 147.5823 506.639C 147.7972 507.1407 148.0582 507.8011 148.3652 508.6203L148.3652 508.6203L145.7695 508.6203L145.7695 508.6203L146.0155 509.3443z" stroke="none" fill="#777777" fill-rule="winding" /><path transform="matrix(1 0 0 -1 0 841)" d="M162.7814 510.4683L163.4036 510.9541C 163.7486 510.6239 164.0849 510.2492 164.4124 509.8301L164.4124 509.8301L163.6785 509.2681C 163.4123 509.6808 163.1133 510.0809 162.7814 510.4683zM153.5414 503.1241C 154.2882 503.2099 155.0567 503.3035 155.8469 503.4051L155.8469 503.4051L156.7548 506.077L156.7548 506.077L154.8974 506.077L154.8974 506.077L155.1402 506.7914L155.1402 506.7914L159.6172 506.7914L159.6172 506.7914L159.3744 506.077L159.3744 506.077L157.5359 506.077L157.5359 506.077L156.6652 503.5147C 157.4406 503.6194 158.2372 503.7306 159.055 503.8481C 158.9582 503.6004 158.8644 503.3432 158.7738 503.0765C 156.7695 502.8034 154.9983 502.5526 153.46 502.324L153.46 502.324L153.5414 503.1241zM155.5557 509.1633L160.8519 509.1633C 161.0261 509.7507 161.2185 510.373 161.4292 511.0303L161.4292 511.0303L162.2388 511.0303C 162.022 510.4016 161.8201 509.7793 161.6329 509.1633L161.6329 509.1633L164.9097 509.1633L164.9097 509.1633L164.6669 508.4489L164.6669 508.4489L161.4235 508.4489C 160.4597 505.2483 160.3343 503.3051 161.0474 502.6193C 161.2954 502.3399 161.5626 502.4161 161.849 502.8479C 162.0565 503.1781 162.3084 503.6671 162.6048 504.3148C 162.8665 504.2068 163.0956 504.1243 163.2922 504.0671C 162.919 503.3242 162.5848 502.7241 162.2897 502.2668C 161.9884 501.8287 161.6219 501.6096 161.1901 501.6096C 160.7519 501.6096 160.3924 501.8318 160.1117 502.2764C 159.5316 503.2416 159.7117 505.2991 160.652 508.4489L160.652 508.4489L155.3129 508.4489L155.3129 508.4489L155.5557 509.1633z" stroke="none" fill="#777777" fill-rule="winding" /><path transform="matrix(1 0 0 -1 0 841)" d="M166.6518 505.0959C 167.3027 504.7689 167.9488 504.437 168.5901 504.1005C 169.5454 504.6784 170.3173 505.3848 170.9059 506.2199L170.9059 506.2199L167.7101 506.2199C 167.3509 505.8357 166.9982 505.4611 166.6518 505.0959zM165.938 509.5824L170.2292 509.5824C 170.1067 509.9317 169.9508 510.2905 169.7616 510.6588L169.7616 510.6588L170.5454 511.0874C 170.7904 510.6683 170.9804 510.2651 171.1155 509.8777L171.1155 509.8777L170.5769 509.5824L170.5769 509.5824L174.4729 509.5824L174.4729 509.5824L173.8578 507.7726L173.8578 507.7726L173.0862 507.7726L173.0862 507.7726L173.4617 508.8775L173.4617 508.8775L166.4605 508.8775L166.4605 508.8775L166.085 507.7726L166.085 507.7726L165.323 507.7726L165.323 507.7726L165.938 509.5824zM163.3606 502.3907C 165.0376 502.6352 166.4775 503.0416 167.6804 503.6099C 166.9833 503.9973 166.243 504.3974 165.4593 504.8102C 165.9141 505.261 166.3707 505.7309 166.829 506.2199L166.829 506.2199L164.3286 506.2199L164.3286 506.2199L164.5681 506.9248L164.5681 506.9248L167.4829 506.9248C 167.9946 507.4868 168.5107 508.071 169.0311 508.6775L169.0311 508.6775L169.6768 508.3631C 169.2301 507.871 168.7925 507.3915 168.364 506.9248L168.364 506.9248L174.0174 506.9248L174.0174 506.9248L173.7779 506.2199L173.7779 506.2199L171.7346 506.2199C 171.0902 505.2578 170.263 504.4355 169.253 503.7528C 170.1 503.3019 170.9416 502.8447 171.7779 502.3811L171.7779 502.3811L171.0522 501.6191C 170.2564 502.1271 169.3655 502.659 168.3796 503.2146C 167.0221 502.4716 165.394 501.9366 163.4953 501.6096C 163.463 501.8509 163.4181 502.1112 163.3606 502.3907z" stroke="none" fill="#777777" fill-rule="winding" /><path transform="matrix(1 0 0 -1 0 841)" d="M175.7875 510.0872L176.4607 510.5826C 176.8767 510.1063 177.1811 509.7221 177.3739 509.43L177.3739 509.43L176.6147 508.8775C 176.3236 509.3665 176.0479 509.7697 175.7875 510.0872zM178.3941 511.0303L179.099 511.0303L179.099 511.0303L177.6067 506.639L177.6067 506.639L176.9018 506.639L176.9018 506.639L177.3987 508.1012C 176.579 507.7075 175.7195 507.2899 174.8202 506.8486C 174.8 506.9947 174.7496 507.2296 174.6692 507.5535C 175.7306 508.0139 176.7332 508.4695 177.677 508.9204L177.677 508.9204L178.3941 511.0303zM178.7636 507.8011L180.8307 507.8011L180.8307 507.8011L181.2612 509.068L181.2612 509.068L178.8607 509.068L178.8607 509.068L179.0842 509.7253L179.0842 509.7253L181.4846 509.7253L181.4846 509.7253L181.9216 511.0112L181.9216 511.0112L182.636 511.0112L182.636 511.0112L182.199 509.7253L182.199 509.7253L184.6566 509.7253L184.6566 509.7253L184.4332 509.068L184.4332 509.068L181.9756 509.068L181.9756 509.068L181.5451 507.8011L181.5451 507.8011L183.6788 507.8011L183.6788 507.8011L183.4554 507.1439L183.4554 507.1439L178.5402 507.1439L178.5402 507.1439L178.7636 507.8011zM178.5498 503.248C 178.4485 502.9685 178.3633 502.7177 178.2941 502.4955C 177.3674 502.2541 176.6231 502.0446 176.061 501.8668C 175.8468 501.7969 175.5826 501.6921 175.2684 501.5524L175.2684 501.5524L175.0467 502.1335C 175.2422 502.2605 175.3929 502.4796 175.4987 502.7907L175.4987 502.7907L175.7496 503.529C 174.9734 503.1511 174.1272 502.8098 173.2107 502.505C 173.1678 502.7336 173.1015 502.959 173.0119 503.1813C 174.893 503.7274 176.4795 504.4577 177.7714 505.3721L177.7714 505.3721L173.8802 505.3721L173.8802 505.3721L174.1069 506.0389L174.1069 506.0389L178.5695 506.0389C 178.5002 506.2834 178.4271 506.512 178.3502 506.7248L178.3502 506.7248L179.0861 507.0963C 179.1941 506.7787 179.2948 506.4866 179.3884 506.2199L179.3884 506.2199L179.022 506.0389L179.022 506.0389L183.4228 506.0389L183.4228 506.0389L183.1962 505.3721L183.1962 505.3721L178.8573 505.3721C 178.945 504.8546 179.1411 504.4085 179.4456 504.0338C 180.2691 504.3736 181.0901 504.7339 181.9086 505.115L181.9086 505.115L182.0723 504.4196C 181.3552 504.1688 180.6211 503.9005 179.8699 503.6147C 180.45 503.1448 181.2682 502.8288 182.3244 502.6669C 182.0476 502.4129 181.7921 502.1747 181.5578 501.9525C 179.6373 502.3557 178.5109 503.367 178.1786 504.9864C 177.6946 504.6276 177.1701 504.2894 176.605 503.9719L176.605 503.9719L176.1324 502.5812C 176.9592 502.7907 177.7651 503.013 178.5498 503.248z" stroke="none" fill="#777777" fill-rule="winding" /><path transform="matrix(1 0 0 -1 0 841)" d="M190.2223 507.2391C 191.1638 506.5152 192.0596 505.7786 192.9099 505.0292L192.9099 505.0292L192.1113 504.2767C 191.1333 505.2483 190.2747 506.0199 189.5354 506.5914L189.5354 506.5914L190.2223 507.2391zM185.3547 510.1539L194.4325 510.1539L194.4325 510.1539L194.18 509.4109L194.18 509.4109L190.6746 509.4109C 190.1907 508.8839 189.5717 508.2584 188.8176 507.5344L188.8176 507.5344L189.3701 507.5344L189.3701 507.5344L187.3404 501.562L187.3404 501.562L186.5212 501.562L186.5212 501.562L188.4505 507.2391C 186.9093 505.8992 185.2412 504.7562 183.4464 503.81C 183.3653 504.0386 183.2652 504.2672 183.146 504.4958C 185.5715 505.7468 187.7413 507.3852 189.6554 509.4109L189.6554 509.4109L185.1022 509.4109L185.1022 509.4109L185.3547 510.1539z" stroke="none" fill="#777777" fill-rule="winding" /><path transform="matrix(1 0 0 -1 0 841)" d="M196.0222 505.6103L199.3085 505.6103L199.3085 505.6103L199.5222 506.239C 200.3421 506.6708 201.0783 507.0994 201.7309 507.5249L201.7309 507.5249L197.3111 507.5249L197.3111 507.5249L197.5474 508.2203L197.5474 508.2203L203.0532 508.2203L203.0532 508.2203L202.7909 507.4487C 201.9684 506.9343 201.0845 506.4168 200.1391 505.8961L200.1391 505.8961L200.042 505.6103L200.042 505.6103L202.852 505.6103L202.852 505.6103L202.6157 504.9149L202.6157 504.9149L199.8056 504.9149L199.8056 504.9149L199.0773 502.7717C 198.8313 502.0478 198.3463 501.6858 197.6224 501.6858C 197.2795 501.6858 196.8223 501.6953 196.2509 501.7144C 196.3011 501.9557 196.3472 502.2129 196.3893 502.4859C 196.9773 502.4224 197.4174 502.3907 197.7095 502.3907C 198.0461 502.3907 198.2715 502.559 198.3859 502.8955L198.3859 502.8955L199.0722 504.9149L199.0722 504.9149L195.7859 504.9149L195.7859 504.9149L196.0222 505.6103zM194.9551 509.9539L197.6318 509.9539C 197.8828 510.3095 198.1275 510.6747 198.366 511.0493L198.366 511.0493L199.0791 510.8493C 198.8771 510.5445 198.6725 510.246 198.4652 509.9539L198.4652 509.9539L204.2615 509.9539L204.2615 509.9539L204.0219 509.249L204.0219 509.249L197.9494 509.249C 197.3419 508.4425 196.7184 507.6964 196.0789 507.0105L196.0789 507.0105L194.2629 501.6667L194.2629 501.6667L193.5295 501.6667L193.5295 501.6667L194.97 505.9056C 194.4727 505.442 193.9651 505.0133 193.4471 504.6196C 193.3956 504.8419 193.3209 505.0705 193.2229 505.3055C 194.6622 506.42 195.9599 507.7345 197.116 509.249L197.116 509.249L194.7155 509.249L194.7155 509.249L194.9551 509.9539z" stroke="none" fill="#777777" fill-rule="winding" /><path transform="matrix(1 0 0 -1 0 841)" d="M204.8484 503.0479L207.8298 503.0479L207.8298 503.0479L208.7978 505.8961L208.7978 505.8961L206.3212 505.8961L206.3212 505.8961L206.5542 506.5819L206.5542 506.5819L209.0309 506.5819L209.0309 506.5819L209.6815 508.4965L209.6815 508.4965L210.4626 508.4965L210.4626 508.4965L209.812 506.5819L209.812 506.5819L212.3267 506.5819L212.3267 506.5819L212.0936 505.8961L212.0936 505.8961L209.5789 505.8961L209.5789 505.8961L208.6109 503.0479L208.6109 503.0479L211.6686 503.0479L211.6686 503.0479L211.442 502.3811L211.442 502.3811L204.6217 502.3811L204.6217 502.3811L204.8484 503.0479zM204.7877 509.8206L207.5882 509.8206C 207.8744 510.2047 208.1479 510.5984 208.4087 511.0017L208.4087 511.0017L209.1313 510.8017C 208.9069 510.4683 208.6767 510.1412 208.4407 509.8206L208.4407 509.8206L213.9703 509.8206L213.9703 509.8206L213.7307 509.1157L213.7307 509.1157L207.9011 509.1157C 207.2352 508.2679 206.5225 507.4693 205.763 506.72L205.763 506.72L204.0488 501.6762L204.0488 501.6762L203.3058 501.6762L203.3058 501.6762L204.6752 505.7055C 204.1866 505.2769 203.6823 504.8673 203.1621 504.4767C 203.1043 504.699 203.0296 504.9276 202.938 505.1626C 204.5187 506.3755 205.8857 507.6932 207.0391 509.1157L207.0391 509.1157L204.5482 509.1157L204.5482 509.1157L204.7877 509.8206z" stroke="none" fill="#777777" fill-rule="winding" /><path transform="matrix(1 0 0 -1 0 841)" d="M215.6372 510.8017C 215.9894 510.2682 216.2836 509.7793 216.5199 509.3347L216.5199 509.3347L215.7195 508.8013C 215.4522 509.3601 215.1866 509.8682 214.9229 510.3254L214.9229 510.3254L215.6372 510.8017zM215.1647 504.0576C 215.0908 503.7655 215.0351 503.4988 214.9975 503.2575C 214.5002 502.9527 213.9997 502.6383 213.4959 502.3145C 213.2897 502.1747 213.0983 502.0319 212.9216 501.8858L212.9216 501.8858L212.5826 502.4859C 212.8485 502.6891 213.0484 502.9876 213.1822 503.3813L213.1822 503.3813L214.4479 507.1058L214.4479 507.1058L213.3715 507.1058L213.3715 507.1058L213.6079 507.8011L213.6079 507.8011L215.4272 507.8011L215.4272 507.8011L213.8734 503.2289C 214.3027 503.502 214.7332 503.7782 215.1647 504.0576zM214.6287 502.2002C 217.124 503.1146 219.4166 504.6006 221.5066 506.6581L221.5066 506.6581L222.0054 506.2199C 221.2161 505.4483 220.3987 504.753 219.5533 504.1338C 220.0861 503.5623 220.601 502.9844 221.0978 502.4002L221.0978 502.4002L220.3064 501.781C 219.9099 502.343 219.4308 502.9654 218.8691 503.648C 217.6125 502.8003 216.2961 502.1081 214.9199 501.5715C 214.8575 501.7429 214.7605 501.9525 214.6287 502.2002zM215.3182 504.2291C 216.7108 504.8324 217.9527 505.5531 219.0441 506.3914C 218.2922 506.3279 217.6123 506.2612 217.0043 506.1913C 216.7734 506.1659 216.5318 506.1183 216.2795 506.0485L216.2795 506.0485L216.1633 506.7438C 216.4202 506.8645 216.6849 507.0359 216.9573 507.2582C 217.4905 507.7154 218.0692 508.2552 218.6935 508.8775L218.6935 508.8775L216.8313 508.8775L216.8313 508.8775L217.0644 509.5634L217.0644 509.5634L220.2602 509.5634C 220.1274 509.9761 219.9959 510.3413 219.8657 510.6588L219.8657 510.6588L220.6175 511.0493C 220.7574 510.7509 220.9128 510.3857 221.0835 509.9539L221.0835 509.9539L220.3649 509.5634L220.3649 509.5634L223.5417 509.5634L223.5417 509.5634L223.3086 508.8775L223.3086 508.8775L219.5984 508.8775C 218.9051 508.2107 218.1987 507.5662 217.4792 506.9438C 218.1409 506.9851 218.9515 507.0391 219.9108 507.1058C 220.4069 507.5471 220.8666 508.0171 221.29 508.5156L221.29 508.5156L221.8592 508.144C 220.2066 506.2898 218.1414 504.7911 215.6637 503.648C 215.5528 503.8449 215.4376 504.0386 215.3182 504.2291z" stroke="none" fill="#777777" fill-rule="winding" /><path transform="matrix(1 0 0 -1 0 841)" d="M225.2815 510.5064L225.9895 510.9922C 226.2265 510.662 226.5294 510.1984 226.8981 509.6015L226.8981 509.6015L226.0944 509.0585C 225.7641 509.6935 225.4931 510.1761 225.2815 510.5064zM224.3293 509.1061L225.0723 509.1061L225.0723 509.1061L222.5344 501.6382L222.5344 501.6382L221.7914 501.6382L221.7914 501.6382L224.3293 509.1061zM229.2454 507.2868L226.5782 507.2868L226.5782 507.2868L225.7625 504.8864L225.7625 504.8864L228.4296 504.8864L228.4296 504.8864L229.2454 507.2868zM227.5018 509.6681L227.7446 510.3825L227.7446 510.3825L233.1931 510.3825L233.1931 510.3825L230.6909 503.0193C 230.3779 502.0985 229.8055 501.6382 228.9736 501.6382C 228.4338 501.6382 227.9152 501.6445 227.4179 501.6572C 227.4572 501.8477 227.4938 502.1049 227.5277 502.4288C 228.0419 502.3907 228.5434 502.3716 229.0324 502.3716C 229.4959 502.3716 229.8119 502.6193 229.9802 503.1146L229.9802 503.1146L232.2074 509.6681L232.2074 509.6681L227.5018 509.6681zM226.1319 507.9916L230.1707 507.9916L230.1707 507.9916L228.8759 504.1815L228.8759 504.1815L225.5229 504.1815L225.5229 504.1815L225.3383 503.6385L225.3383 503.6385L224.6525 503.6385L224.6525 503.6385L226.1319 507.9916z" stroke="none" fill="#777777" fill-rule="winding" /><path transform="matrix(1 0 0 -1 0 841)" d="M237.2517 509.992L235.1561 509.992L235.1561 509.992L234.8744 509.1633L234.8744 509.1633L236.97 509.1633L236.97 509.1633L237.2517 509.992zM234.3986 507.763L236.4942 507.763L236.4942 507.763L236.7791 508.6013L236.7791 508.6013L234.6835 508.6013L234.6835 508.6013L234.3986 507.763zM239.59 507.763L240.2187 507.763L240.2187 507.763L239.814 506.5724C 239.6025 505.95 239.3577 505.4166 239.0796 504.9721C 239.818 504.2672 240.351 503.7147 240.6786 503.3146L240.6786 503.3146L239.9927 502.8098C 239.6465 503.2861 239.1969 503.8036 238.6438 504.3624C 238.582 504.2926 238.5213 504.2259 238.4616 504.1624C 237.8734 503.5528 237.0616 503.0702 236.0263 502.7145C 235.9428 502.8987 235.835 503.086 235.7029 503.2765C 236.6912 503.5686 237.4399 503.9592 237.9491 504.4482C 238.456 504.9308 238.8713 505.6484 239.195 506.6009L239.195 506.6009L239.59 507.763zM238.2917 508.7918L239.6729 508.7918C 239.8637 509.1665 240.0407 509.5284 240.2038 509.8777L240.2038 509.8777L238.3083 509.8777L238.3083 509.8777L238.5186 510.4969L238.5186 510.4969L243.3004 510.4969L243.3004 510.4969L243.0901 509.8777L243.0901 509.8777L240.9087 509.8777C 240.7242 509.503 240.5377 509.1411 240.3492 508.7918L240.3492 508.7918L242.2162 508.7918L242.2162 508.7918L240.8436 504.753L240.8436 504.753L240.2149 504.753L240.2149 504.753L241.377 508.1726L241.377 508.1726L238.7099 508.1726L238.7099 508.1726L237.5478 504.753L237.5478 504.753L236.9191 504.753L236.9191 504.753L238.2917 508.7918zM234.7216 510.5635L238.0746 510.5635L238.0746 510.5635L236.8282 506.8962L236.8282 506.8962L236.1996 506.8962L236.1996 506.8962L236.3 507.1915L236.3 507.1915L234.2043 507.1915L234.2043 507.1915L234.104 506.8962L234.104 506.8962L233.4753 506.8962L233.4753 506.8962L234.7216 510.5635zM231.2935 502.4383C 231.9707 503.067 232.5518 504.0386 233.0366 505.3531L233.0366 505.3531L233.6938 505.3531C 233.541 504.9594 233.3819 504.5847 233.2166 504.2291C 233.307 503.8036 233.4889 503.4607 233.7624 503.2003L233.7624 503.2003L234.6462 505.8008L234.6462 505.8008L232.5125 505.8008L232.5125 505.8008L232.7228 506.42L232.7228 506.42L237.1236 506.42L237.1236 506.42L236.9132 505.8008L236.9132 505.8008L235.2749 505.8008L235.2749 505.8008L234.9317 504.7911L234.9317 504.7911L236.4653 504.7911L236.4653 504.7911L236.2549 504.1719L236.2549 504.1719L234.7213 504.1719L234.7213 504.1719L234.2745 502.8574C 234.6418 502.6859 235.0963 502.5939 235.6381 502.5812C 236.732 502.5113 238.4615 502.5272 240.8266 502.6288C 240.6855 502.4193 240.5114 502.1684 240.3042 501.8763C 238.0113 501.8191 236.3804 501.8318 235.4115 501.9144C 234.0083 501.9525 233.1331 502.451 232.7858 503.4099C 232.3768 502.6923 231.9177 502.07 231.4083 501.5429C 231.3828 501.8414 231.3445 502.1398 231.2935 502.4383z" stroke="none" fill="#777777" fill-rule="winding" /><path transform="matrix(1 0 0 -1 0 841)" d="M242.7655 502.4621C 242.8862 502.4621 243.0145 502.5081 243.1506 502.6002C 243.2867 502.6923 243.3795 502.8114 243.4292 502.9574C 243.4842 503.1194 243.4774 503.2487 243.4087 503.3456C 243.34 503.4424 243.2326 503.4908 243.0866 503.4908C 242.95 503.4908 242.8161 503.4424 242.6847 503.3456C 242.5534 503.2487 242.4608 503.1209 242.4068 502.9622C 242.3539 502.8066 242.3703 502.6844 242.456 502.5955C 242.5417 502.5066 242.6449 502.4621 242.7655 502.4621zM243.369 504.1957C 243.6801 504.1957 243.909 504.0751 244.0556 503.8338C 244.2022 503.5925 244.221 503.3115 244.112 502.9908C 243.989 502.6288 243.7731 502.3343 243.4641 502.1073C 243.1552 501.8802 242.8372 501.7668 242.5101 501.7668C 242.1831 501.7668 241.9407 501.8826 241.7829 502.1144C 241.6251 502.3462 241.6051 502.6352 241.7227 502.9812C 241.8425 503.3337 242.0666 503.6242 242.3951 503.8528C 242.7237 504.0815 243.0483 504.1957 243.369 504.1957z" stroke="none" fill="#777777" fill-rule="winding" /></g><g clip-path="url(#3)"><path transform="matrix(1 0 0 -1 0 841)" d="M199.9121 456.3618L542.7241 456.3618L542.7241 456.3618L542.7241 455.6113L542.7241 455.6113L199.9121 455.6113z" stroke="none" fill="#4183C4" fill-rule="winding" /></g><g clip-path="url(#4)"></g><g clip-path="url(#5)"><path transform="matrix(1 0 0 -1 0 841)" d="M48.02018 441.3555L150.403 441.3555L150.403 441.3555L150.403 440.605L150.403 440.605L48.02018 440.605z" stroke="none" fill="#4183C4" fill-rule="winding" /></g><g clip-path="url(#6)"><g transform="matrix(0.5230185 0 0 0.5228003 48.02018 410.149)"><g transform="matrix(1 0 0 1 0 0)"><image x="0" y="0" xlink:href="img_16.png" width="954" height="310" /></g></g><path transform="matrix(1 0 0 -1 0 841)" d="M62.27617 175.3687C 62.27617 174.8511 62.09303 174.4087 61.72676 174.0425C 61.36049 173.6763 60.91836 173.4927 60.40038 173.4927C 59.88239 173.4927 59.44026 173.6763 59.07399 174.0425C 58.70772 174.4087 58.52458 174.8511 58.52459 175.3687C 58.52458 175.8872 58.70772 176.3291 59.07399 176.6958C 59.44026 177.0615 59.88239 177.2446 60.40038 177.2446C 60.91836 177.2446 61.36049 177.0615 61.72676 176.6958C 62.09303 176.3291 62.27617 175.8872 62.27617 175.3687z" stroke="none" fill="#333333" fill-rule="winding" /><path transform="matrix(1 0 0 -1 0 841)" d="M62.27617 160.3623C 62.27617 159.8447 62.09303 159.4023 61.72676 159.0366C 61.36049 158.6699 60.91836 158.4868 60.40038 158.4863C 59.88239 158.4868 59.44026 158.6699 59.07399 159.0366C 58.70772 159.4023 58.52458 159.8447 58.52459 160.3623C 58.52458 160.8809 58.70772 161.3232 59.07399 161.6895C 59.44026 162.0552 59.88239 162.2383 60.40038 162.2383C 60.91836 162.2383 61.36049 162.0552 61.72676 161.6895C 62.09303 161.3232 62.27617 160.8809 62.27617 160.3623z" stroke="none" fill="#333333" fill-rule="winding" /><path transform="matrix(1 0 0 -1 0 841)" d="M62.27617 145.356C 62.27617 144.8384 62.09303 144.3965 61.72676 144.0303C 61.36049 143.6641 60.91836 143.4805 60.40038 143.4805C 59.88239 143.4805 59.44026 143.6641 59.07399 144.0303C 58.70772 144.3965 58.52458 144.8384 58.52459 145.356C 58.52458 145.8745 58.70772 146.3164 59.07399 146.6831C 59.44026 147.0488 59.88239 147.2319 60.40038 147.2319C 60.91836 147.2319 61.36049 147.0488 61.72676 146.6831C 62.09303 146.3164 62.27617 145.8745 62.27617 145.356z" stroke="none" fill="#333333" fill-rule="winding" /><path transform="matrix(1 0 0 -1 0 841)" d="M62.27617 84.58057C 62.27617 84.06299 62.09303 83.62061 61.72676 83.25439C 61.36049 82.88818 60.91836 82.70508 60.40038 82.70459C 59.88239 82.70508 59.44026 82.88818 59.07399 83.25439C 58.70772 83.62061 58.52458 84.06299 58.52459 84.58057C 58.52458 85.09912 58.70772 85.54102 59.07399 85.90771C 59.44026 86.27344 59.88239 86.45605 60.40038 86.45605C 60.91836 86.45605 61.36049 86.27344 61.72676 85.90771C 62.09303 85.54102 62.27617 85.09912 62.27617 84.58057z" stroke="none" fill="#333333" fill-rule="winding" /></g><g transform="matrix(0.2399193 0 0 0.2399322 0 -14.78003)"><g transform="matrix(1 0 0 1 0 0)"><image x="0" y="0" xlink:href="img_02.png" width="2480" height="295" /></g></g><g transform="matrix(0.4798387 0 0 0.4798876 0 798.29)"><g transform="matrix(1 0 0 1 0 0)"><image x="0" y="0" xlink:href="img_03.png" width="1240" height="89" /></g></g></g></g></g></svg>