<svg xmlns="http://www.w3.org/2000/svg" xmlns:xlink="http://www.w3.org/1999/xlink" id="body_43" preserveAspectRatio="xMinYMin meet" viewBox="0 0 793 1121"><defs><clipPath id="1"><path d="M0 841L0 0L0 0L595 0L595 0L595 841L595 841L0 841z" /></clipPath><clipPath id="2"><path d="M0 56L595 56L595 56L595 784.5547L595 784.5547L0 784.5547z" /></clipPath><clipPath id="3"><path d="M48.77049 111.5215L543.2282 111.5215L543.2282 111.5215L543.2282 233.0742L543.2282 233.0742L48.77049 233.0742z" /></clipPath><clipPath id="4"><path d="M0 56L595 56L595 56L595 784.5547L595 784.5547L0 784.5547z" /></clipPath><clipPath id="5"><path d="M48.77049 669.0059L543.2282 669.0059L543.2282 669.0059L543.2282 736.5352L543.2282 736.5352L48.77049 736.5352z" /></clipPath><clipPath id="6"><path d="M0 56L595 56L595 56L595 784.5547L595 784.5547L0 784.5547z" /></clipPath><clipPath id="7"><path d="M48.77049 111.5215L543.2282 111.5215L543.2282 111.5215L543.2282 233.0742L543.2282 233.0742L48.77049 233.0742z" /></clipPath><clipPath id="8"><path d="M48.77049 669.0059L543.2282 669.0059L543.2282 669.0059L543.2282 736.5352L543.2282 736.5352L48.77049 736.5352z" /></clipPath></defs><g transform="matrix(1.333333 0 0 1.333333 0 0)"><g><g clip-path="url(#1)"><g clip-path="url(#2)"><path transform="matrix(1 0 0 -1 0 841)" d="M0 31384.36L595 31384.36L595 31384.36L595 -26593.25L595 -26593.25L0 -26593.25z" stroke="none" fill="#FFFFFF" fill-rule="winding" /><path transform="matrix(1 0 0 -1 0 841)" d="M48.39533 604.9258L48.39533 733.9805C 48.39533 734.498 48.57846 734.9414 48.94473 735.3066C 49.311 735.6738 49.75313 735.8555 50.27112 735.8555L50.27112 735.8555L544.7289 735.8555C 545.2468 735.8555 545.6889 735.6738 546.0552 735.3066C 546.4214 734.9414 546.6046 734.498 546.6047 733.9805L546.6047 733.9805L546.6047 604.9258C 546.6046 604.4063 546.4214 603.9668 546.0552 603.5996C 545.6889 603.2344 545.2468 603.0488 544.7289 603.0488L544.7289 603.0488L50.27112 603.0488C 49.75313 603.0488 49.311 603.2344 48.94473 603.5996C 48.57846 603.9668 48.39533 604.4063 48.39533 604.9258z" stroke="none" fill="#F8F8F8" fill-rule="winding" /><path transform="matrix(1 0 0 -1 0 841)" d="M48.39533 604.9258L48.39533 733.9805C 48.39533 734.498 48.57846 734.9414 48.94473 735.3066C 49.311 735.6738 49.75313 735.8555 50.27112 735.8555L50.27112 735.8555L544.7289 735.8555C 545.2468 735.8555 545.6889 735.6738 546.0552 735.3066C 546.4214 734.9414 546.6046 734.498 546.6047 733.9805L546.6047 733.9805L546.6047 604.9258C 546.6046 604.4063 546.4214 603.9668 546.0552 603.5996C 545.6889 603.2344 545.2468 603.0488 544.7289 603.0488L544.7289 603.0488L50.27112 603.0488C 49.75313 603.0488 49.311 603.2344 48.94473 603.5996C 48.57846 603.9668 48.39533 604.4063 48.39533 604.9258z" stroke="#E7EAED" stroke-width="0.7503152" fill="none" /></g><g clip-path="url(#3)"><path transform="matrix(1 0 0 -1 0 841)" d="M48.77049 729.4785L543.2282 729.4785L543.2282 729.4785L543.2282 607.9258L543.2282 607.9258L48.77049 607.9258z" stroke="none" fill="#F8F8F8" fill-rule="winding" /></g><g clip-path="url(#4)"><g transform="matrix(0.7503153 0 0 0.7503152 138.058 249.5801)"><g transform="matrix(1 0 0 1 0 0)"><image x="0" y="0" xlink:href="img_85.png" width="426" height="434" /></g></g><path transform="matrix(1 0 0 -1 0 841)" d="M48.02018 218.5137L48.02018 223.7656C 48.02017 224.3887 48.23994 224.9199 48.67946 225.3594C 49.11898 225.7969 49.64954 226.0156 50.27112 226.0156L50.27112 226.0156L76.53216 226.0156C 77.15373 226.0156 77.68429 225.7969 78.12381 225.3594C 78.56333 224.9199 78.7831 224.3887 78.7831 223.7656L78.7831 223.7656L78.7831 218.5137C 78.7831 217.8906 78.56333 217.3613 78.12381 216.9219C 77.68429 216.4824 77.15373 216.2617 76.53216 216.2617L76.53216 216.2617L50.27112 216.2617C 49.64954 216.2617 49.11898 216.4824 48.67946 216.9219C 48.23994 217.3613 48.02017 217.8906 48.02018 218.5137z" stroke="none" fill="#F3F4F4" fill-rule="winding" /><path transform="matrix(1 0 0 -1 0 841)" d="M48.39533 218.5137L48.39533 223.7656C 48.39533 224.2832 48.57846 224.7266 48.94473 225.0938C 49.311 225.459 49.75313 225.6406 50.27112 225.6406L50.27112 225.6406L76.53216 225.6406C 77.05013 225.6406 77.49226 225.459 77.85854 225.0938C 78.2248 224.7266 78.40794 224.2832 78.40794 223.7656L78.40794 223.7656L78.40794 218.5137C 78.40794 217.998 78.2248 217.5566 77.85854 217.1914C 77.49226 216.8242 77.05013 216.6406 76.53216 216.6367L76.53216 216.6367L50.27112 216.6367C 49.75313 216.6406 49.311 216.8242 48.94473 217.1914C 48.57846 217.5566 48.39533 217.998 48.39533 218.5137z" stroke="#E7EAED" stroke-width="0.7503152" fill="none" /><path transform="matrix(1 0 0 -1 0 841)" d="M99.04161 194.502L99.04161 199.7559C 99.04161 200.3789 99.26138 200.9102 99.7009 201.3496C 100.1404 201.7871 100.671 202.0059 101.2926 202.0059L101.2926 202.0059L128.3039 202.0059C 128.9255 202.0059 129.456 201.7871 129.8955 201.3496C 130.3351 200.9102 130.5548 200.3789 130.5549 199.7559L130.5549 199.7559L130.5549 194.502C 130.5548 193.8809 130.3351 193.3516 129.8955 192.9121C 129.456 192.4746 128.9255 192.2539 128.3039 192.252L128.3039 192.252L101.2926 192.252C 100.671 192.2539 100.1404 192.4746 99.7009 192.9121C 99.26138 193.3516 99.04161 193.8809 99.04161 194.502z" stroke="none" fill="#F3F4F4" fill-rule="winding" /><path transform="matrix(1 0 0 -1 0 841)" d="M99.41677 194.502L99.41677 199.7559C 99.41677 200.2734 99.59991 200.7188 99.96617 201.0859C 100.3324 201.4492 100.7746 201.6309 101.2926 201.6309L101.2926 201.6309L128.3039 201.6309C 128.8219 201.6309 129.264 201.4492 129.6303 201.0859C 129.9966 200.7188 130.1797 200.2734 130.1797 199.7559L130.1797 199.7559L130.1797 194.502C 130.1797 193.9863 129.9966 193.5469 129.6303 193.1816C 129.264 192.8145 128.8219 192.6309 128.3039 192.627L128.3039 192.627L101.2926 192.627C 100.7746 192.6309 100.3324 192.8145 99.96617 193.1816C 99.59991 193.5469 99.41677 193.9863 99.41677 194.502z" stroke="#E7EAED" stroke-width="0.7503152" fill="none" /><path transform="matrix(1 0 0 -1 0 841)" d="M386.4124 194.502L386.4124 199.7559C 386.4123 200.3789 386.6321 200.9102 387.0716 201.3496C 387.5111 201.7871 388.0417 202.0059 388.6633 202.0059L388.6633 202.0059L414.9243 202.0059C 415.5459 202.0059 416.0764 201.7871 416.516 201.3496C 416.9554 200.9102 417.1752 200.3789 417.1753 199.7559L417.1753 199.7559L417.1753 194.502C 417.1752 193.8809 416.9554 193.3516 416.516 192.9121C 416.0764 192.4746 415.5459 192.2539 414.9243 192.252L414.9243 192.252L388.6633 192.252C 388.0417 192.2539 387.5111 192.4746 387.0716 192.9121C 386.6321 193.3516 386.4123 193.8809 386.4124 194.502z" stroke="none" fill="#F3F4F4" fill-rule="winding" /><path transform="matrix(1 0 0 -1 0 841)" d="M386.7875 194.502L386.7875 199.7559C 386.7875 200.2734 386.9706 200.7188 387.3369 201.0859C 387.7032 201.4492 388.1453 201.6309 388.6633 201.6309L388.6633 201.6309L414.9243 201.6309C 415.4423 201.6309 415.8844 201.4492 416.2507 201.0859C 416.617 200.7188 416.8001 200.2734 416.8001 199.7559L416.8001 199.7559L416.8001 194.502C 416.8001 193.9863 416.617 193.5469 416.2507 193.1816C 415.8844 192.8145 415.4423 192.6309 414.9243 192.627L414.9243 192.627L388.6633 192.627C 388.1453 192.6309 387.7032 192.8145 387.3369 193.1816C 386.9706 193.5469 386.7875 193.9863 386.7875 194.502z" stroke="#E7EAED" stroke-width="0.7503152" fill="none" /><path transform="matrix(1 0 0 -1 0 841)" d="M48.39533 101.4629L48.39533 176.4961C 48.39533 177.0137 48.57846 177.459 48.94473 177.8262C 49.311 178.1895 49.75313 178.3711 50.27112 178.3711L50.27112 178.3711L544.7289 178.3711C 545.2468 178.3711 545.6889 178.1895 546.0552 177.8262C 546.4214 177.459 546.6046 177.0137 546.6047 176.4961L546.6047 176.4961L546.6047 101.4629C 546.6046 100.9453 546.4214 100.5059 546.0552 100.1387C 545.6889 99.77344 545.2468 99.58789 544.7289 99.58789L544.7289 99.58789L50.27112 99.58789C 49.75313 99.58789 49.311 99.77344 48.94473 100.1387C 48.57846 100.5059 48.39533 100.9453 48.39533 101.4629z" stroke="none" fill="#F8F8F8" fill-rule="winding" /><path transform="matrix(1 0 0 -1 0 841)" d="M48.39533 101.4629L48.39533 176.4961C 48.39533 177.0137 48.57846 177.459 48.94473 177.8262C 49.311 178.1895 49.75313 178.3711 50.27112 178.3711L50.27112 178.3711L544.7289 178.3711C 545.2468 178.3711 545.6889 178.1895 546.0552 177.8262C 546.4214 177.459 546.6046 177.0137 546.6047 176.4961L546.6047 176.4961L546.6047 101.4629C 546.6046 100.9453 546.4214 100.5059 546.0552 100.1387C 545.6889 99.77344 545.2468 99.58789 544.7289 99.58789L544.7289 99.58789L50.27112 99.58789C 49.75313 99.58789 49.311 99.77344 48.94473 100.1387C 48.57846 100.5059 48.39533 100.9453 48.39533 101.4629z" stroke="#E7EAED" stroke-width="0.7503152" fill="none" /></g><g clip-path="url(#5)"><path transform="matrix(1 0 0 -1 0 841)" d="M48.77049 171.9941L543.2282 171.9941L543.2282 171.9941L543.2282 104.4648L543.2282 104.4648L48.77049 104.4648z" stroke="none" fill="#F8F8F8" fill-rule="winding" /></g><g clip-path="url(#6)"><path transform="matrix(1 0 0 -1 0 841)" d="M77.28247 76.70313L77.28247 81.95508C 77.28247 82.58008 77.50223 83.10938 77.94176 83.55078C 78.38128 83.98633 78.91183 84.20703 79.53342 84.20703L79.53342 84.20703L105.7944 84.20703C 106.416 84.20703 106.9466 83.98633 107.3861 83.55078C 107.8256 83.10938 108.0454 82.58008 108.0454 81.95508L108.0454 81.95508L108.0454 76.70313C 108.0454 76.08203 107.8256 75.55078 107.3861 75.11523C 106.9466 74.67578 106.416 74.45508 105.7944 74.45313L105.7944 74.45313L79.53342 74.45313C 78.91183 74.45508 78.38128 74.67578 77.94176 75.11523C 77.50223 75.55078 77.28247 76.08203 77.28247 76.70313z" stroke="none" fill="#F3F4F4" fill-rule="winding" /><path transform="matrix(1 0 0 -1 0 841)" d="M77.65763 76.70313L77.65763 81.95508C 77.65763 82.47461 77.84076 82.91992 78.20702 83.28711C 78.5733 83.65039 79.01543 83.83203 79.53342 83.83203L79.53342 83.83203L105.7944 83.83203C 106.3124 83.83203 106.7546 83.65039 107.1208 83.28711C 107.4871 82.91992 107.6702 82.47461 107.6702 81.95508L107.6702 81.95508L107.6702 76.70313C 107.6702 76.1875 107.4871 75.74805 107.1208 75.38086C 106.7546 75.01563 106.3124 74.83008 105.7944 74.82813L105.7944 74.82813L79.53342 74.82813C 79.01543 74.83008 78.5733 75.01563 78.20702 75.38086C 77.84076 75.74805 77.65763 76.1875 77.65763 76.70313z" stroke="#E7EAED" stroke-width="0.7503152" fill="none" /><path transform="matrix(1 0 0 -1 0 841)" d="M342.1438 76.70313L342.1438 81.95508C 342.1437 82.58008 342.3635 83.10938 342.803 83.55078C 343.2425 83.98633 343.7731 84.20703 344.3947 84.20703L344.3947 84.20703L408.1715 84.20703C 408.7931 84.20703 409.3236 83.98633 409.7631 83.55078C 410.2027 83.10938 410.4225 82.58008 410.4225 81.95508L410.4225 81.95508L410.4225 76.70313C 410.4225 76.08203 410.2027 75.55078 409.7631 75.11523C 409.3236 74.67578 408.7931 74.45508 408.1715 74.45313L408.1715 74.45313L344.3947 74.45313C 343.7731 74.45508 343.2425 74.67578 342.803 75.11523C 342.3635 75.55078 342.1437 76.08203 342.1438 76.70313z" stroke="none" fill="#F3F4F4" fill-rule="winding" /><path transform="matrix(1 0 0 -1 0 841)" d="M342.5189 76.70313L342.5189 81.95508C 342.5189 82.47461 342.702 82.91992 343.0683 83.28711C 343.4346 83.65039 343.8767 83.83203 344.3947 83.83203L344.3947 83.83203L408.1715 83.83203C 408.6895 83.83203 409.1316 83.65039 409.4978 83.28711C 409.8641 82.91992 410.0472 82.47461 410.0473 81.95508L410.0473 81.95508L410.0473 76.70313C 410.0472 76.1875 409.8641 75.74805 409.4978 75.38086C 409.1316 75.01563 408.6895 74.83008 408.1715 74.82813L408.1715 74.82813L344.3947 74.82813C 343.8767 74.83008 343.4346 75.01563 343.0683 75.38086C 342.702 75.74805 342.5189 76.1875 342.5189 76.70313z" stroke="#E7EAED" stroke-width="0.7503152" fill="none" /></g><g clip-path="url(#7)"><path transform="matrix(1 0 0 -1 0 841)" d="M48.77049 729.4785L543.2282 729.4785L543.2282 729.4785L543.2282 607.9258L543.2282 607.9258L48.77049 607.9258z" stroke="none" fill="#F8F8F8" fill-rule="winding" /><path transform="matrix(1 0 0 -1 0 841)" d="M48.77049 729.4785L69.77932 729.4785L69.77932 729.4785L69.77932 574.1621L69.77932 574.1621L48.77049 574.1621z" stroke="none" fill="#F8F8F8" fill-rule="winding" /><path transform="matrix(1 0 0 -1 0 841)" d="M69.029 729.4785L69.77932 729.4785L69.77932 729.4785L69.77932 574.1621L69.77932 574.1621L69.029 574.1621z" stroke="none" fill="#DDDDDD" fill-rule="winding" /></g><g clip-path="url(#8)"><path transform="matrix(1 0 0 -1 0 841)" d="M48.77049 171.9941L543.2282 171.9941L543.2282 171.9941L543.2282 104.4648L543.2282 104.4648L48.77049 104.4648z" stroke="none" fill="#F8F8F8" fill-rule="winding" /><path transform="matrix(1 0 0 -1 0 841)" d="M48.77049 171.9941L69.77932 171.9941L69.77932 171.9941L69.77932 85.70703L69.77932 85.70703L48.77049 85.70703z" stroke="none" fill="#F8F8F8" fill-rule="winding" /><path transform="matrix(1 0 0 -1 0 841)" d="M69.029 171.9941L69.77932 171.9941L69.77932 171.9941L69.77932 85.70703L69.77932 85.70703L69.029 85.70703z" stroke="none" fill="#DDDDDD" fill-rule="winding" /></g><g transform="matrix(0.2399193 0 0 0.2399322 0 -14.78003)"><g transform="matrix(1 0 0 1 0 0)"><image x="0" y="0" xlink:href="img_02.png" width="2480" height="295" /></g></g><g transform="matrix(0.4798387 0 0 0.4798876 0 798.29)"><g transform="matrix(1 0 0 1 0 0)"><image x="0" y="0" xlink:href="img_03.png" width="1240" height="89" /></g></g></g></g></g></svg>