<svg xmlns="http://www.w3.org/2000/svg" xmlns:xlink="http://www.w3.org/1999/xlink" id="body_58" preserveAspectRatio="xMinYMin meet" viewBox="0 0 793 1121"><defs><clipPath id="1"><path d="M0 841L0 0L0 0L595 0L595 0L595 841L595 841L0 841z" /></clipPath><clipPath id="2"><path d="M0 56L595 56L595 56L595 784.5547L595 784.5547L0 784.5547z" /></clipPath><clipPath id="3"><path d="M48.77049 56L543.2282 56L543.2282 56L543.2282 393.6406L543.2282 393.6406L48.77049 393.6406z" /></clipPath><clipPath id="4"><path d="M0 56L595 56L595 56L595 784.5547L595 784.5547L0 784.5547z" /></clipPath><clipPath id="5"><path d="M48.77049 56L543.2282 56L543.2282 56L543.2282 393.6406L543.2282 393.6406L48.77049 393.6406z" /></clipPath></defs><g transform="matrix(1.333333 0 0 1.333333 0 0)"><g><g clip-path="url(#1)"><g clip-path="url(#2)"><path transform="matrix(1 0 0 -1 0 841)" d="M0 42312.7L595 42312.7L595 42312.7L595 -15664.91L595 -15664.91L0 -15664.91z" stroke="none" fill="#FFFFFF" fill-rule="winding" /><path transform="matrix(1 0 0 -1 0 841)" d="M48.02018 430.8516L51.02144 430.8516L51.02144 430.8516L51.02144 415.8477L51.02144 415.8477L48.02018 415.8477z" stroke="none" fill="#DFE2E5" fill-rule="winding" /><path transform="matrix(1 0 0 -1 0 841)" d="M48.39533 444.3594L48.39533 873.5391C 48.39533 874.0586 48.57846 874.5039 48.94473 874.8672C 49.311 875.2305 49.75313 875.4141 50.27112 875.4141L50.27112 875.4141L544.7289 875.4141C 545.2468 875.4141 545.6889 875.2305 546.0552 874.8672C 546.4214 874.5039 546.6046 874.0586 546.6047 873.5391L546.6047 873.5391L546.6047 444.3594C 546.6046 443.8438 546.4214 443.4023 546.0552 443.0352C 545.6889 442.668 545.2468 442.4844 544.7289 442.4805L544.7289 442.4805L50.27112 442.4805C 49.75313 442.4844 49.311 442.668 48.94473 443.0352C 48.57846 443.4023 48.39533 443.8438 48.39533 444.3594z" stroke="none" fill="#F8F8F8" fill-rule="winding" /><path transform="matrix(1 0 0 -1 0 841)" d="M48.39533 444.3594L48.39533 873.5391C 48.39533 874.0586 48.57846 874.5039 48.94473 874.8672C 49.311 875.2305 49.75313 875.4141 50.27112 875.4141L50.27112 875.4141L544.7289 875.4141C 545.2468 875.4141 545.6889 875.2305 546.0552 874.8672C 546.4214 874.5039 546.6046 874.0586 546.6047 873.5391L546.6047 873.5391L546.6047 444.3594C 546.6046 443.8438 546.4214 443.4023 546.0552 443.0352C 545.6889 442.668 545.2468 442.4844 544.7289 442.4805L544.7289 442.4805L50.27112 442.4805C 49.75313 442.4844 49.311 442.668 48.94473 443.0352C 48.57846 443.4023 48.39533 443.8438 48.39533 444.3594z" stroke="#E7EAED" stroke-width="0.7503152" fill="none" /></g><g clip-path="url(#3)"><path transform="matrix(1 0 0 -1 0 841)" d="M48.77049 869.0352L543.2282 869.0352L543.2282 869.0352L543.2282 447.3594L543.2282 447.3594L48.77049 447.3594z" stroke="none" fill="#F8F8F8" fill-rule="winding" /></g><g clip-path="url(#4)"></g><g clip-path="url(#5)"><path transform="matrix(1 0 0 -1 0 841)" d="M48.77049 869.0352L543.2282 869.0352L543.2282 869.0352L543.2282 447.3594L543.2282 447.3594L48.77049 447.3594z" stroke="none" fill="#F8F8F8" fill-rule="winding" /><path transform="matrix(1 0 0 -1 0 841)" d="M48.77049 869.0352L75.78184 869.0352L75.78184 869.0352L75.78184 334.0625L75.78184 334.0625L48.77049 334.0625z" stroke="none" fill="#F8F8F8" fill-rule="winding" /><path transform="matrix(1 0 0 -1 0 841)" d="M75.03152 869.0352L75.78184 869.0352L75.78184 869.0352L75.78184 334.0625L75.78184 334.0625L75.03152 334.0625z" stroke="none" fill="#DDDDDD" fill-rule="winding" /></g><g transform="matrix(0.2399193 0 0 0.2399322 0 -14.78003)"><g transform="matrix(1 0 0 1 0 0)"><image x="0" y="0" xlink:href="img_02.png" width="2480" height="295" /></g></g><g transform="matrix(0.4798387 0 0 0.4798876 0 798.29)"><g transform="matrix(1 0 0 1 0 0)"><image x="0" y="0" xlink:href="img_03.png" width="1240" height="89" /></g></g></g></g></g></svg>