<svg xmlns="http://www.w3.org/2000/svg" xmlns:xlink="http://www.w3.org/1999/xlink" id="body_2" preserveAspectRatio="xMinYMin meet" viewBox="0 0 793 1121"><defs><clipPath id="1"><path d="M0 841L0 0L0 0L595 0L595 0L595 841L595 841L0 841z" /></clipPath><clipPath id="2"><path d="M0 56L595 56L595 56L595 784.5561L595 784.5561L0 784.5561z" /></clipPath></defs><g transform="matrix(1.333333 0 0 1.333333 0 0)"><g><g clip-path="url(#1)"><g clip-path="url(#2)"><path transform="matrix(1 0 0 -1 0 841)" d="M0 1513.556L595 1513.556L595 1513.556L595 -56464.05L595 -56464.05L0 -56464.05z" stroke="none" fill="#FFFFFF" fill-rule="winding" /><path transform="matrix(1 0 0 -1 0 841)" d="M48.02018 431.6014L51.02144 431.6014L51.02144 431.6014L51.02144 416.5951L51.02144 416.5951L48.02018 416.5951z" stroke="none" fill="#DFE2E5" fill-rule="winding" /><path transform="matrix(1 0 0 -1 0 841)" d="M48.02018 371.5762L51.02144 371.5762L51.02144 371.5762L51.02144 356.5699L51.02144 356.5699L48.02018 356.5699z" stroke="none" fill="#DFE2E5" fill-rule="winding" /><path transform="matrix(1 0 0 -1 0 841)" d="M48.02018 325.807L51.02144 325.807L51.02144 325.807L51.02144 310.8007L51.02144 310.8007L48.02018 310.8007z" stroke="none" fill="#DFE2E5" fill-rule="winding" /><path transform="matrix(1 0 0 -1 0 841)" d="M48.02018 265.0315L51.02144 265.0315L51.02144 265.0315L51.02144 250.0251L51.02144 250.0251L48.02018 250.0251z" stroke="none" fill="#DFE2E5" fill-rule="winding" /><g transform="matrix(0.6026083 0 0 0.6023473 48.02018 56)"><g transform="matrix(1 0 0 1 0 0)"><image x="0" y="0" xlink:href="img_05.png" width="828" height="573" /></g></g><path transform="matrix(1 0 0 -1 0 841)" d="M62.27617 158.8618C 62.27617 158.3439 62.09303 157.9017 61.72676 157.5355C 61.36049 157.1692 60.91836 156.9861 60.40038 156.9861C 59.88239 156.9861 59.44026 157.1692 59.07399 157.5355C 58.70772 157.9017 58.52458 158.3439 58.52459 158.8618C 58.52458 159.3799 58.70772 159.822 59.07399 160.1882C 59.44026 160.5546 59.88239 160.7377 60.40038 160.7377C 60.91836 160.7377 61.36049 160.5546 61.72676 160.1882C 62.09303 159.822 62.27617 159.3799 62.27617 158.8618z" stroke="none" fill="#333333" fill-rule="winding" /><path transform="matrix(1 0 0 -1 0 841)" d="M62.27617 108.5907C 62.27617 108.0728 62.09303 107.6306 61.72676 107.2644C 61.36049 106.8981 60.91836 106.7151 60.40038 106.715C 59.88239 106.7151 59.44026 106.8981 59.07399 107.2644C 58.70772 107.6306 58.52458 108.0728 58.52459 108.5907C 58.52458 109.1089 58.70772 109.551 59.07399 109.9172C 59.44026 110.2834 59.88239 110.4666 60.40038 110.4666C 60.91836 110.4666 61.36049 110.2834 61.72676 109.9172C 62.09303 109.551 62.27617 109.1089 62.27617 108.5907z" stroke="none" fill="#333333" fill-rule="winding" /><path transform="matrix(1 0 0 -1 0 841)" d="M62.27617 89.08252C 62.27617 88.56458 62.09303 88.12256 61.72676 87.75635C 61.36049 87.39001 60.91836 87.20679 60.40038 87.20679C 59.88239 87.20679 59.44026 87.39001 59.07399 87.75635C 58.70772 88.12256 58.52458 88.56458 58.52459 89.08252C 58.52458 89.60071 58.70772 90.04272 59.07399 90.40906C 59.44026 90.77527 59.88239 90.95837 60.40038 90.95837C 60.91836 90.95837 61.36049 90.77527 61.72676 90.40906C 62.09303 90.04272 62.27617 89.60071 62.27617 89.08252z" stroke="none" fill="#333333" fill-rule="winding" /></g><g transform="matrix(0.2399193 0 0 0.2399322 0 -14.78003)"><g transform="matrix(1 0 0 1 0 0)"><image x="0" y="0" xlink:href="img_02.png" width="2480" height="295" /></g></g><g transform="matrix(0.4798387 0 0 0.4798876 0 798.29)"><g transform="matrix(1 0 0 1 0 0)"><image x="0" y="0" xlink:href="img_03.png" width="1240" height="89" /></g></g></g></g></g></svg>