<svg xmlns="http://www.w3.org/2000/svg" xmlns:xlink="http://www.w3.org/1999/xlink" id="body_74" preserveAspectRatio="xMinYMin meet" viewBox="0 0 793 1121"><defs><clipPath id="1"><path d="M0 841L0 0L0 0L595 0L595 0L595 841L595 841L0 841z" /></clipPath><clipPath id="2"><path d="M0 56L595 56L595 56L595 784.5547L595 784.5547L0 784.5547z" /></clipPath><clipPath id="3"><path d="M48.77049 56L543.2282 56L543.2282 56L543.2282 204.5625L543.2282 204.5625L48.77049 204.5625z" /></clipPath><clipPath id="4"><path d="M0 56L595 56L595 56L595 784.5547L595 784.5547L0 784.5547z" /></clipPath><clipPath id="5"><path d="M48.77049 255.582L543.2282 255.582L543.2282 255.582L543.2282 784.5547L543.2282 784.5547L48.77049 784.5547z" /></clipPath><clipPath id="6"><path d="M48.77049 56L543.2282 56L543.2282 56L543.2282 204.5625L543.2282 204.5625L48.77049 204.5625z" /></clipPath><clipPath id="7"><path d="M48.77049 255.582L543.2282 255.582L543.2282 255.582L543.2282 784.5547L543.2282 784.5547L48.77049 784.5547z" /></clipPath></defs><g transform="matrix(1.333333 0 0 1.333333 0 0)"><g><g clip-path="url(#1)"><g clip-path="url(#2)"><path transform="matrix(1 0 0 -1 0 841)" d="M0 53969.6L595 53969.6L595 53969.6L595 -4008.012L595 -4008.012L0 -4008.012z" stroke="none" fill="#FFFFFF" fill-rule="winding" /><path transform="matrix(1 0 0 -1 0 841)" d="M48.39533 633.4375L48.39533 1272.707C 48.39533 1273.227 48.57846 1273.668 48.94473 1274.039C 49.311 1274.402 49.75313 1274.582 50.27112 1274.582L50.27112 1274.582L544.7289 1274.582C 545.2468 1274.582 545.6889 1274.402 546.0552 1274.039C 546.4214 1273.668 546.6046 1273.227 546.6047 1272.707L546.6047 1272.707L546.6047 633.4375C 546.6046 632.9219 546.4214 632.4844 546.0552 632.1133C 545.6889 631.75 545.2468 631.5664 544.7289 631.5625L544.7289 631.5625L50.27112 631.5625C 49.75313 631.5664 49.311 631.75 48.94473 632.1133C 48.57846 632.4844 48.39533 632.9219 48.39533 633.4375z" stroke="none" fill="#F8F8F8" fill-rule="winding" /><path transform="matrix(1 0 0 -1 0 841)" d="M48.39533 633.4375L48.39533 1272.707C 48.39533 1273.227 48.57846 1273.668 48.94473 1274.039C 49.311 1274.402 49.75313 1274.582 50.27112 1274.582L50.27112 1274.582L544.7289 1274.582C 545.2468 1274.582 545.6889 1274.402 546.0552 1274.039C 546.4214 1273.668 546.6046 1273.227 546.6047 1272.707L546.6047 1272.707L546.6047 633.4375C 546.6046 632.9219 546.4214 632.4844 546.0552 632.1133C 545.6889 631.75 545.2468 631.5664 544.7289 631.5625L544.7289 631.5625L50.27112 631.5625C 49.75313 631.5664 49.311 631.75 48.94473 632.1133C 48.57846 632.4844 48.39533 632.9219 48.39533 633.4375z" stroke="#E7EAED" stroke-width="0.7503152" fill="none" /></g><g clip-path="url(#3)"><path transform="matrix(1 0 0 -1 0 841)" d="M48.77049 1268.203L543.2282 1268.203L543.2282 1268.203L543.2282 636.4375L543.2282 636.4375L48.77049 636.4375z" stroke="none" fill="#F8F8F8" fill-rule="winding" /></g><g clip-path="url(#4)"><path transform="matrix(1 0 0 -1 0 841)" d="M48.39533 -769.6523L48.39533 589.918C 48.39533 590.4414 48.57846 590.8828 48.94473 591.25C 49.311 591.6133 49.75313 591.7969 50.27112 591.7969L50.27112 591.7969L544.7289 591.7969C 545.2468 591.7969 545.6889 591.6133 546.0552 591.25C 546.4214 590.8828 546.6046 590.4414 546.6047 589.918L546.6047 589.918L546.6047 -769.6523C 546.6046 -770.168 546.4214 -770.6055 546.0552 -770.9766C 545.6889 -771.3398 545.2468 -771.5195 544.7289 -771.5273L544.7289 -771.5273L50.27112 -771.5273C 49.75313 -771.5195 49.311 -771.3398 48.94473 -770.9766C 48.57846 -770.6055 48.39533 -770.168 48.39533 -769.6523z" stroke="none" fill="#F8F8F8" fill-rule="winding" /><path transform="matrix(1 0 0 -1 0 841)" d="M48.39533 -769.6523L48.39533 589.918C 48.39533 590.4414 48.57846 590.8828 48.94473 591.25C 49.311 591.6133 49.75313 591.7969 50.27112 591.7969L50.27112 591.7969L544.7289 591.7969C 545.2468 591.7969 545.6889 591.6133 546.0552 591.25C 546.4214 590.8828 546.6046 590.4414 546.6047 589.918L546.6047 589.918L546.6047 -769.6523C 546.6046 -770.168 546.4214 -770.6055 546.0552 -770.9766C 545.6889 -771.3398 545.2468 -771.5195 544.7289 -771.5273L544.7289 -771.5273L50.27112 -771.5273C 49.75313 -771.5195 49.311 -771.3398 48.94473 -770.9766C 48.57846 -770.6055 48.39533 -770.168 48.39533 -769.6523z" stroke="#E7EAED" stroke-width="0.7503152" fill="none" /></g><g clip-path="url(#5)"><path transform="matrix(1 0 0 -1 0 841)" d="M48.77049 585.418L543.2282 585.418L543.2282 585.418L543.2282 -766.6484L543.2282 -766.6484L48.77049 -766.6484z" stroke="none" fill="#F8F8F8" fill-rule="winding" /></g><g clip-path="url(#6)"><path transform="matrix(1 0 0 -1 0 841)" d="M48.77049 1268.203L543.2282 1268.203L543.2282 1268.203L543.2282 636.4375L543.2282 636.4375L48.77049 636.4375z" stroke="none" fill="#F8F8F8" fill-rule="winding" /><path transform="matrix(1 0 0 -1 0 841)" d="M48.77049 1268.203L75.78184 1268.203L75.78184 1268.203L75.78184 474.3711L75.78184 474.3711L48.77049 474.3711z" stroke="none" fill="#F8F8F8" fill-rule="winding" /><path transform="matrix(1 0 0 -1 0 841)" d="M75.03152 1268.203L75.78184 1268.203L75.78184 1268.203L75.78184 474.3711L75.78184 474.3711L75.03152 474.3711z" stroke="none" fill="#DDDDDD" fill-rule="winding" /></g><g clip-path="url(#7)"><path transform="matrix(1 0 0 -1 0 841)" d="M48.77049 585.418L543.2282 585.418L543.2282 585.418L543.2282 -766.6484L543.2282 -766.6484L48.77049 -766.6484z" stroke="none" fill="#F8F8F8" fill-rule="winding" /><path transform="matrix(1 0 0 -1 0 841)" d="M48.77049 585.418L75.78184 585.418L75.78184 585.418L75.78184 -1123.051L75.78184 -1123.051L48.77049 -1123.051z" stroke="none" fill="#F8F8F8" fill-rule="winding" /><path transform="matrix(1 0 0 -1 0 841)" d="M75.03152 585.418L75.78184 585.418L75.78184 585.418L75.78184 -1123.051L75.78184 -1123.051L75.03152 -1123.051z" stroke="none" fill="#DDDDDD" fill-rule="winding" /></g><g transform="matrix(0.2399193 0 0 0.2399322 0 -14.78003)"><g transform="matrix(1 0 0 1 0 0)"><image x="0" y="0" xlink:href="img_02.png" width="2480" height="295" /></g></g><g transform="matrix(0.4798387 0 0 0.4798876 0 798.29)"><g transform="matrix(1 0 0 1 0 0)"><image x="0" y="0" xlink:href="img_03.png" width="1240" height="89" /></g></g></g></g></g></svg>