<svg xmlns="http://www.w3.org/2000/svg" xmlns:xlink="http://www.w3.org/1999/xlink" id="body_19" preserveAspectRatio="xMinYMin meet" viewBox="0 0 793 1121"><defs><clipPath id="1"><path d="M0 841L0 0L0 0L595 0L595 0L595 841L595 841L0 841z" /></clipPath><clipPath id="2"><path d="M0 56L595 56L595 56L595 784.5566L595 784.5566L0 784.5566z" /></clipPath><clipPath id="3"><path d="M48.77049 56L543.2282 56L543.2282 56L543.2282 245.0801L543.2282 245.0801L48.77049 245.0801z" /></clipPath><clipPath id="4"><path d="M0 56L595 56L595 56L595 784.5566L595 784.5566L0 784.5566z" /></clipPath><clipPath id="5"><path d="M48.77049 56L543.2282 56L543.2282 56L543.2282 245.0801L543.2282 245.0801L48.77049 245.0801z" /></clipPath></defs><g transform="matrix(1.333333 0 0 1.333333 0 0)"><g><g clip-path="url(#1)"><g clip-path="url(#2)"><path transform="matrix(1 0 0 -1 0 841)" d="M0 13899.01L595 13899.01L595 13899.01L595 -44078.6L595 -44078.6L0 -44078.6z" stroke="none" fill="#FFFFFF" fill-rule="winding" /><path transform="matrix(1 0 0 -1 0 841)" d="M48.02018 97.71094L51.02144 97.71094L51.02144 97.71094L51.02144 82.70508L51.02144 82.70508L48.02018 82.70508z" stroke="none" fill="#DFE2E5" fill-rule="winding" /><path transform="matrix(1 0 0 -1 0 841)" d="M48.39533 592.9189L48.39533 881.04C 48.39533 881.5586 48.57846 882.002 48.94473 882.3682C 49.311 882.7324 49.75313 882.916 50.27112 882.916L50.27112 882.916L544.7289 882.916C 545.2468 882.916 545.6889 882.7324 546.0552 882.3682C 546.4214 882.002 546.6046 881.5586 546.6047 881.04L546.6047 881.04L546.6047 592.9189C 546.6046 592.4014 546.4214 591.959 546.0552 591.5928C 545.6889 591.2266 545.2468 591.043 544.7289 591.043L544.7289 591.043L50.27112 591.043C 49.75313 591.043 49.311 591.2266 48.94473 591.5928C 48.57846 591.959 48.39533 592.4014 48.39533 592.9189z" stroke="none" fill="#F8F8F8" fill-rule="winding" /><path transform="matrix(1 0 0 -1 0 841)" d="M48.39533 592.9189L48.39533 881.04C 48.39533 881.5586 48.57846 882.002 48.94473 882.3682C 49.311 882.7324 49.75313 882.916 50.27112 882.916L50.27112 882.916L544.7289 882.916C 545.2468 882.916 545.6889 882.7324 546.0552 882.3682C 546.4214 882.002 546.6046 881.5586 546.6047 881.04L546.6047 881.04L546.6047 592.9189C 546.6046 592.4014 546.4214 591.959 546.0552 591.5928C 545.6889 591.2266 545.2468 591.043 544.7289 591.043L544.7289 591.043L50.27112 591.043C 49.75313 591.043 49.311 591.2266 48.94473 591.5928C 48.57846 591.959 48.39533 592.4014 48.39533 592.9189z" stroke="#E7EAED" stroke-width="0.7503152" fill="none" /></g><g clip-path="url(#3)"><path transform="matrix(1 0 0 -1 0 841)" d="M48.77049 876.5381L543.2282 876.5381L543.2282 876.5381L543.2282 595.9199L543.2282 595.9199L48.77049 595.9199z" stroke="none" fill="#F8F8F8" fill-rule="winding" /></g><g clip-path="url(#4)"><g transform="matrix(0.7503152 0 0 0.7503152 162.8184 284.0957)"><g transform="matrix(1 0 0 1 0 0)"><image x="0" y="0" xlink:href="img_41.png" width="359" height="601" /></g></g></g><g clip-path="url(#5)"><path transform="matrix(1 0 0 -1 0 841)" d="M48.77049 876.5381L543.2282 876.5381L543.2282 876.5381L543.2282 595.9199L543.2282 595.9199L48.77049 595.9199z" stroke="none" fill="#F8F8F8" fill-rule="winding" /><path transform="matrix(1 0 0 -1 0 841)" d="M48.77049 876.5381L75.78184 876.5381L75.78184 876.5381L75.78184 531.3936L75.78184 531.3936L48.77049 531.3936z" stroke="none" fill="#F8F8F8" fill-rule="winding" /><path transform="matrix(1 0 0 -1 0 841)" d="M75.03152 876.5381L75.78184 876.5381L75.78184 876.5381L75.78184 531.3936L75.78184 531.3936L75.03152 531.3936z" stroke="none" fill="#DDDDDD" fill-rule="winding" /></g><g transform="matrix(0.2399193 0 0 0.2399322 0 -14.78003)"><g transform="matrix(1 0 0 1 0 0)"><image x="0" y="0" xlink:href="img_02.png" width="2480" height="295" /></g></g><g transform="matrix(0.4798387 0 0 0.4798876 0 798.29)"><g transform="matrix(1 0 0 1 0 0)"><image x="0" y="0" xlink:href="img_03.png" width="1240" height="89" /></g></g></g></g></g></svg>