<svg xmlns="http://www.w3.org/2000/svg" xmlns:xlink="http://www.w3.org/1999/xlink" id="body_3" preserveAspectRatio="xMinYMin meet" viewBox="0 0 793 1121"><defs><clipPath id="1"><path d="M0 841L0 0L0 0L595 0L595 0L595 841L595 841L0 841z" /></clipPath><clipPath id="2"><path d="M0 56L595 56L595 56L595 784.556L595 784.556L0 784.556z" /></clipPath><clipPath id="3"><path d="M194.8708 297.6016L197.6122 297.6016L197.6122 297.6016L197.6122 300.0776L197.6122 300.0776L194.8708 300.0776L194.8708 300.0776L194.8708 297.6016zM92.76043 297.6016L90.019 297.6016L90.019 297.6016L90.019 300.0776L90.019 300.0776L92.76043 300.0776L92.76043 300.0776L92.76043 297.6016zM0 56L0 784.556L0 784.556L595 784.556L595 784.556L595 56L595 56L0 56z" /></clipPath><clipPath id="4"><path d="M0 56L595 56L595 56L595 784.556L595 784.556L0 784.556z" /></clipPath></defs><g transform="matrix(1.333333 0 0 1.333333 0 0)"><g><g clip-path="url(#1)"><g clip-path="url(#2)"><path transform="matrix(1 0 0 -1 0 841)" d="M0 2242.112L595 2242.112L595 2242.112L595 -55735.5L595 -55735.5L0 -55735.5z" stroke="none" fill="#FFFFFF" fill-rule="winding" /><path transform="matrix(1 0 0 -1 0 841)" d="M62.27617 777.1216C 62.27617 776.6036 62.09303 776.1616 61.72676 775.7953C 61.36049 775.4291 60.91836 775.2458 60.40038 775.2458C 59.88239 775.2458 59.44026 775.4291 59.07399 775.7953C 58.70772 776.1616 58.52458 776.6036 58.52459 777.1216C 58.52458 777.6395 58.70772 778.0818 59.07399 778.448C 59.44026 778.8142 59.88239 778.9973 60.40038 778.9973C 60.91836 778.9973 61.36049 778.8142 61.72676 778.448C 62.09303 778.0818 62.27617 777.6395 62.27617 777.1216z" stroke="none" fill="#333333" fill-rule="winding" /><path transform="matrix(1 0 0 -1 0 841)" d="M48.02018 734.7288L546.9798 734.7288L546.9798 734.7288L546.9798 733.9784L546.9798 733.9784L48.02018 733.9784z" stroke="none" fill="#EEEEEE" fill-rule="winding" /><g transform="matrix(0.5968417 0 0 0.5975361 48.02018 146.7882)"><g transform="matrix(1 0 0 1 0 0)"><image x="0" y="0" xlink:href="img_07.png" width="836" height="221" /></g></g></g><g clip-path="url(#3)"><path transform="matrix(1 0 0 -1 0 841)" d="M77.28247 542.6481L297.4766 542.6481L297.4766 542.6481L297.4766 541.8977L297.4766 541.8977L77.28247 541.8977z" stroke="none" fill="#4183C4" fill-rule="winding" /></g><g clip-path="url(#4)"><g transform="matrix(0.5904848 0 0 0.5907994 48.02018 308.8563)"><g transform="matrix(1 0 0 1 0 0)"><image x="0" y="0" xlink:href="img_08.png" width="845" height="508" /></g></g></g><g transform="matrix(0.2399193 0 0 0.2399322 0 -14.78003)"><g transform="matrix(1 0 0 1 0 0)"><image x="0" y="0" xlink:href="img_02.png" width="2480" height="295" /></g></g><g transform="matrix(0.4798387 0 0 0.4798876 0 798.29)"><g transform="matrix(1 0 0 1 0 0)"><image x="0" y="0" xlink:href="img_03.png" width="1240" height="89" /></g></g></g></g></g></svg>