<svg xmlns="http://www.w3.org/2000/svg" xmlns:xlink="http://www.w3.org/1999/xlink" id="body_48" preserveAspectRatio="xMinYMin meet" viewBox="0 0 793 1121"><defs><clipPath id="1"><path d="M0 841L0 0L0 0L595 0L595 0L595 841L595 841L0 841z" /></clipPath><clipPath id="2"><path d="M0 56L595 56L595 56L595 784.5547L595 784.5547L0 784.5547z" /></clipPath><clipPath id="3"><path d="M48.77049 62.75391L543.2282 62.75391L543.2282 62.75391L543.2282 197.8086L543.2282 197.8086L48.77049 197.8086z" /></clipPath><clipPath id="4"><path d="M0 56L595 56L595 56L595 784.5547L595 784.5547L0 784.5547z" /></clipPath><clipPath id="5"><path d="M48.77049 247.332L543.2282 247.332L543.2282 247.332L543.2282 314.8594L543.2282 314.8594L48.77049 314.8594z" /></clipPath><clipPath id="6"><path d="M0 56L595 56L595 56L595 784.5547L595 784.5547L0 784.5547z" /></clipPath><clipPath id="7"><path d="M48.77049 364.3789L543.2282 364.3789L543.2282 364.3789L543.2282 784.5547L543.2282 784.5547L48.77049 784.5547z" /></clipPath><clipPath id="8"><path d="M48.77049 62.75391L543.2282 62.75391L543.2282 62.75391L543.2282 197.8086L543.2282 197.8086L48.77049 197.8086z" /></clipPath><clipPath id="9"><path d="M48.77049 247.332L543.2282 247.332L543.2282 247.332L543.2282 314.8594L543.2282 314.8594L48.77049 314.8594z" /></clipPath><clipPath id="10"><path d="M48.77049 364.3789L543.2282 364.3789L543.2282 364.3789L543.2282 784.5547L543.2282 784.5547L48.77049 784.5547z" /></clipPath></defs><g transform="matrix(1.333333 0 0 1.333333 0 0)"><g><g clip-path="url(#1)"><g clip-path="url(#2)"><path transform="matrix(1 0 0 -1 0 841)" d="M0 35027.14L595 35027.14L595 35027.14L595 -22950.47L595 -22950.47L0 -22950.47z" stroke="none" fill="#FFFFFF" fill-rule="winding" /><path transform="matrix(1 0 0 -1 0 841)" d="M48.39533 640.1875L48.39533 782.75C 48.39533 783.2656 48.57846 783.7109 48.94473 784.0781C 49.311 784.4414 49.75313 784.625 50.27112 784.625L50.27112 784.625L544.7289 784.625C 545.2468 784.625 545.6889 784.4414 546.0552 784.0781C 546.4214 783.7109 546.6046 783.2656 546.6047 782.75L546.6047 782.75L546.6047 640.1875C 546.6046 639.6719 546.4214 639.2344 546.0552 638.8672C 545.6889 638.5 545.2468 638.3164 544.7289 638.3125L544.7289 638.3125L50.27112 638.3125C 49.75313 638.3164 49.311 638.5 48.94473 638.8672C 48.57846 639.2344 48.39533 639.6719 48.39533 640.1875z" stroke="none" fill="#F8F8F8" fill-rule="winding" /><path transform="matrix(1 0 0 -1 0 841)" d="M48.39533 640.1875L48.39533 782.75C 48.39533 783.2656 48.57846 783.7109 48.94473 784.0781C 49.311 784.4414 49.75313 784.625 50.27112 784.625L50.27112 784.625L544.7289 784.625C 545.2468 784.625 545.6889 784.4414 546.0552 784.0781C 546.4214 783.7109 546.6046 783.2656 546.6047 782.75L546.6047 782.75L546.6047 640.1875C 546.6046 639.6719 546.4214 639.2344 546.0552 638.8672C 545.6889 638.5 545.2468 638.3164 544.7289 638.3125L544.7289 638.3125L50.27112 638.3125C 49.75313 638.3164 49.311 638.5 48.94473 638.8672C 48.57846 639.2344 48.39533 639.6719 48.39533 640.1875z" stroke="#E7EAED" stroke-width="0.7503152" fill="none" /></g><g clip-path="url(#3)"><path transform="matrix(1 0 0 -1 0 841)" d="M48.77049 778.2461L543.2282 778.2461L543.2282 778.2461L543.2282 643.1914L543.2282 643.1914L48.77049 643.1914z" stroke="none" fill="#F8F8F8" fill-rule="winding" /></g><g clip-path="url(#4)"><path transform="matrix(1 0 0 -1 0 841)" d="M48.39533 523.1406L48.39533 598.1719C 48.39533 598.6914 48.57846 599.1367 48.94473 599.5C 49.311 599.8672 49.75313 600.0469 50.27112 600.0469L50.27112 600.0469L544.7289 600.0469C 545.2468 600.0469 545.6889 599.8672 546.0552 599.5C 546.4214 599.1367 546.6046 598.6914 546.6047 598.1719L546.6047 598.1719L546.6047 523.1406C 546.6046 522.6211 546.4214 522.1797 546.0552 521.8164C 545.6889 521.4492 545.2468 521.2656 544.7289 521.2656L544.7289 521.2656L50.27112 521.2656C 49.75313 521.2656 49.311 521.4492 48.94473 521.8164C 48.57846 522.1797 48.39533 522.6211 48.39533 523.1406z" stroke="none" fill="#F8F8F8" fill-rule="winding" /><path transform="matrix(1 0 0 -1 0 841)" d="M48.39533 523.1406L48.39533 598.1719C 48.39533 598.6914 48.57846 599.1367 48.94473 599.5C 49.311 599.8672 49.75313 600.0469 50.27112 600.0469L50.27112 600.0469L544.7289 600.0469C 545.2468 600.0469 545.6889 599.8672 546.0552 599.5C 546.4214 599.1367 546.6046 598.6914 546.6047 598.1719L546.6047 598.1719L546.6047 523.1406C 546.6046 522.6211 546.4214 522.1797 546.0552 521.8164C 545.6889 521.4492 545.2468 521.2656 544.7289 521.2656L544.7289 521.2656L50.27112 521.2656C 49.75313 521.2656 49.311 521.4492 48.94473 521.8164C 48.57846 522.1797 48.39533 522.6211 48.39533 523.1406z" stroke="#E7EAED" stroke-width="0.7503152" fill="none" /></g><g clip-path="url(#5)"><path transform="matrix(1 0 0 -1 0 841)" d="M48.77049 593.668L543.2282 593.668L543.2282 593.668L543.2282 526.1406L543.2282 526.1406L48.77049 526.1406z" stroke="none" fill="#F8F8F8" fill-rule="winding" /></g><g clip-path="url(#6)"><path transform="matrix(1 0 0 -1 0 841)" d="M48.39533 -54.60156L48.39533 481.1211C 48.39533 481.6406 48.57846 482.082 48.94473 482.4492C 49.311 482.8164 49.75313 482.9961 50.27112 482.9961L50.27112 482.9961L544.7289 482.9961C 545.2468 482.9961 545.6889 482.8164 546.0552 482.4492C 546.4214 482.082 546.6046 481.6406 546.6047 481.1211L546.6047 481.1211L546.6047 -54.60156C 546.6046 -55.11719 546.4214 -55.55859 546.0552 -55.92578C 545.6889 -56.29297 545.2468 -56.47656 544.7289 -56.48047L544.7289 -56.48047L50.27112 -56.48047C 49.75313 -56.47656 49.311 -56.29297 48.94473 -55.92578C 48.57846 -55.55859 48.39533 -55.11719 48.39533 -54.60156z" stroke="none" fill="#F8F8F8" fill-rule="winding" /><path transform="matrix(1 0 0 -1 0 841)" d="M48.39533 -54.60156L48.39533 481.1211C 48.39533 481.6406 48.57846 482.082 48.94473 482.4492C 49.311 482.8164 49.75313 482.9961 50.27112 482.9961L50.27112 482.9961L544.7289 482.9961C 545.2468 482.9961 545.6889 482.8164 546.0552 482.4492C 546.4214 482.082 546.6046 481.6406 546.6047 481.1211L546.6047 481.1211L546.6047 -54.60156C 546.6046 -55.11719 546.4214 -55.55859 546.0552 -55.92578C 545.6889 -56.29297 545.2468 -56.47656 544.7289 -56.48047L544.7289 -56.48047L50.27112 -56.48047C 49.75313 -56.47656 49.311 -56.29297 48.94473 -55.92578C 48.57846 -55.55859 48.39533 -55.11719 48.39533 -54.60156z" stroke="#E7EAED" stroke-width="0.7503152" fill="none" /></g><g clip-path="url(#7)"><path transform="matrix(1 0 0 -1 0 841)" d="M48.77049 476.6211L543.2282 476.6211L543.2282 476.6211L543.2282 -51.60156L543.2282 -51.60156L48.77049 -51.60156z" stroke="none" fill="#F8F8F8" fill-rule="winding" /></g><g clip-path="url(#8)"><path transform="matrix(1 0 0 -1 0 841)" d="M48.77049 778.2461L543.2282 778.2461L543.2282 778.2461L543.2282 643.1914L543.2282 643.1914L48.77049 643.1914z" stroke="none" fill="#F8F8F8" fill-rule="winding" /><path transform="matrix(1 0 0 -1 0 841)" d="M48.77049 778.2461L69.77932 778.2461L69.77932 778.2461L69.77932 605.6758L69.77932 605.6758L48.77049 605.6758z" stroke="none" fill="#F8F8F8" fill-rule="winding" /><path transform="matrix(1 0 0 -1 0 841)" d="M69.029 778.2461L69.77932 778.2461L69.77932 778.2461L69.77932 605.6758L69.77932 605.6758L69.029 605.6758z" stroke="none" fill="#DDDDDD" fill-rule="winding" /></g><g clip-path="url(#9)"><path transform="matrix(1 0 0 -1 0 841)" d="M48.77049 593.668L543.2282 593.668L543.2282 593.668L543.2282 526.1406L543.2282 526.1406L48.77049 526.1406z" stroke="none" fill="#F8F8F8" fill-rule="winding" /><path transform="matrix(1 0 0 -1 0 841)" d="M48.77049 593.668L69.77932 593.668L69.77932 593.668L69.77932 507.3828L69.77932 507.3828L48.77049 507.3828z" stroke="none" fill="#F8F8F8" fill-rule="winding" /><path transform="matrix(1 0 0 -1 0 841)" d="M69.029 593.668L69.77932 593.668L69.77932 593.668L69.77932 507.3828L69.77932 507.3828L69.029 507.3828z" stroke="none" fill="#DDDDDD" fill-rule="winding" /></g><g clip-path="url(#10)"><path transform="matrix(1 0 0 -1 0 841)" d="M48.77049 476.6211L543.2282 476.6211L543.2282 476.6211L543.2282 -51.60156L543.2282 -51.60156L48.77049 -51.60156z" stroke="none" fill="#F8F8F8" fill-rule="winding" /><path transform="matrix(1 0 0 -1 0 841)" d="M48.77049 476.6211L75.78184 476.6211L75.78184 476.6211L75.78184 -196.4141L75.78184 -196.4141L48.77049 -196.4141z" stroke="none" fill="#F8F8F8" fill-rule="winding" /><path transform="matrix(1 0 0 -1 0 841)" d="M75.03152 476.6211L75.78184 476.6211L75.78184 476.6211L75.78184 -196.4141L75.78184 -196.4141L75.03152 -196.4141z" stroke="none" fill="#DDDDDD" fill-rule="winding" /></g><g transform="matrix(0.2399193 0 0 0.2399322 0 -14.78003)"><g transform="matrix(1 0 0 1 0 0)"><image x="0" y="0" xlink:href="img_02.png" width="2480" height="295" /></g></g><g transform="matrix(0.4798387 0 0 0.4798876 0 798.29)"><g transform="matrix(1 0 0 1 0 0)"><image x="0" y="0" xlink:href="img_03.png" width="1240" height="89" /></g></g></g></g></g></svg>