<svg xmlns="http://www.w3.org/2000/svg" xmlns:xlink="http://www.w3.org/1999/xlink" id="body_50" preserveAspectRatio="xMinYMin meet" viewBox="0 0 793 1121"><defs><clipPath id="1"><path d="M0 841L0 0L0 0L595 0L595 0L595 841L595 841L0 841z" /></clipPath><clipPath id="2"><path d="M0 56L595 56L595 56L595 784.5547L595 784.5547L0 784.5547z" /></clipPath><clipPath id="3"><path d="M48.77049 62.75391L543.2282 62.75391L543.2282 62.75391L543.2282 238.3242L543.2282 238.3242L48.77049 238.3242z" /></clipPath><clipPath id="4"><path d="M0 56L595 56L595 56L595 784.5547L595 784.5547L0 784.5547z" /></clipPath><clipPath id="5"><path d="M48.77049 407.8984L543.2282 407.8984L543.2282 407.8984L543.2282 596.9766L543.2282 596.9766L48.77049 596.9766z" /></clipPath><clipPath id="6"><path d="M0 56L595 56L595 56L595 784.5547L595 784.5547L0 784.5547z" /></clipPath><clipPath id="7"><path d="M48.77049 646.4961L543.2282 646.4961L543.2282 646.4961L543.2282 784.5547L543.2282 784.5547L48.77049 784.5547z" /></clipPath><clipPath id="8"><path d="M48.77049 62.75391L543.2282 62.75391L543.2282 62.75391L543.2282 238.3242L543.2282 238.3242L48.77049 238.3242z" /></clipPath><clipPath id="9"><path d="M48.77049 407.8984L543.2282 407.8984L543.2282 407.8984L543.2282 596.9766L543.2282 596.9766L48.77049 596.9766z" /></clipPath><clipPath id="10"><path d="M48.77049 646.4961L543.2282 646.4961L543.2282 646.4961L543.2282 784.5547L543.2282 784.5547L48.77049 784.5547z" /></clipPath></defs><g transform="matrix(1.333333 0 0 1.333333 0 0)"><g><g clip-path="url(#1)"><g clip-path="url(#2)"><path transform="matrix(1 0 0 -1 0 841)" d="M0 36484.25L595 36484.25L595 36484.25L595 -21493.36L595 -21493.36L0 -21493.36z" stroke="none" fill="#FFFFFF" fill-rule="winding" /><path transform="matrix(1 0 0 -1 0 841)" d="M48.39533 599.6719L48.39533 782.75C 48.39533 783.2734 48.57846 783.7148 48.94473 784.082C 49.311 784.4453 49.75313 784.625 50.27112 784.625L50.27112 784.625L544.7289 784.625C 545.2468 784.625 545.6889 784.4453 546.0552 784.082C 546.4214 783.7148 546.6046 783.2734 546.6047 782.75L546.6047 782.75L546.6047 599.6719C 546.6046 599.1523 546.4214 598.7148 546.0552 598.3477C 545.6889 597.9805 545.2468 597.7969 544.7289 597.7969L544.7289 597.7969L50.27112 597.7969C 49.75313 597.7969 49.311 597.9805 48.94473 598.3477C 48.57846 598.7148 48.39533 599.1523 48.39533 599.6719z" stroke="none" fill="#F8F8F8" fill-rule="winding" /><path transform="matrix(1 0 0 -1 0 841)" d="M48.39533 599.6719L48.39533 782.75C 48.39533 783.2734 48.57846 783.7148 48.94473 784.082C 49.311 784.4453 49.75313 784.625 50.27112 784.625L50.27112 784.625L544.7289 784.625C 545.2468 784.625 545.6889 784.4453 546.0552 784.082C 546.4214 783.7148 546.6046 783.2734 546.6047 782.75L546.6047 782.75L546.6047 599.6719C 546.6046 599.1523 546.4214 598.7148 546.0552 598.3477C 545.6889 597.9805 545.2468 597.7969 544.7289 597.7969L544.7289 597.7969L50.27112 597.7969C 49.75313 597.7969 49.311 597.9805 48.94473 598.3477C 48.57846 598.7148 48.39533 599.1523 48.39533 599.6719z" stroke="#E7EAED" stroke-width="0.7503152" fill="none" /></g><g clip-path="url(#3)"><path transform="matrix(1 0 0 -1 0 841)" d="M48.77049 778.2461L543.2282 778.2461L543.2282 778.2461L543.2282 602.6758L543.2282 602.6758L48.77049 602.6758z" stroke="none" fill="#F8F8F8" fill-rule="winding" /></g><g clip-path="url(#4)"><g transform="matrix(0.603337 0 0 0.6042808 48.02018 269.8398)"><g transform="matrix(1 0 0 1 0 0)"><image x="0" y="0" xlink:href="img_96.png" width="827" height="149" /></g></g><path transform="matrix(1 0 0 -1 0 841)" d="M48.39533 241.0234L48.39533 437.6055C 48.39533 438.125 48.57846 438.5703 48.94473 438.9336C 49.311 439.3008 49.75313 439.4805 50.27112 439.4805L50.27112 439.4805L544.7289 439.4805C 545.2468 439.4805 545.6889 439.3008 546.0552 438.9336C 546.4214 438.5703 546.6046 438.125 546.6047 437.6055L546.6047 437.6055L546.6047 241.0234C 546.6046 240.5078 546.4214 240.0664 546.0552 239.6992C 545.6889 239.3359 545.2468 239.1484 544.7289 239.1445L544.7289 239.1445L50.27112 239.1445C 49.75313 239.1484 49.311 239.3359 48.94473 239.6992C 48.57846 240.0664 48.39533 240.5078 48.39533 241.0234z" stroke="none" fill="#F8F8F8" fill-rule="winding" /><path transform="matrix(1 0 0 -1 0 841)" d="M48.39533 241.0234L48.39533 437.6055C 48.39533 438.125 48.57846 438.5703 48.94473 438.9336C 49.311 439.3008 49.75313 439.4805 50.27112 439.4805L50.27112 439.4805L544.7289 439.4805C 545.2468 439.4805 545.6889 439.3008 546.0552 438.9336C 546.4214 438.5703 546.6046 438.125 546.6047 437.6055L546.6047 437.6055L546.6047 241.0234C 546.6046 240.5078 546.4214 240.0664 546.0552 239.6992C 545.6889 239.3359 545.2468 239.1484 544.7289 239.1445L544.7289 239.1445L50.27112 239.1445C 49.75313 239.1484 49.311 239.3359 48.94473 239.6992C 48.57846 240.0664 48.39533 240.5078 48.39533 241.0234z" stroke="#E7EAED" stroke-width="0.7503152" fill="none" /></g><g clip-path="url(#5)"><path transform="matrix(1 0 0 -1 0 841)" d="M48.77049 433.1016L543.2282 433.1016L543.2282 433.1016L543.2282 244.0234L543.2282 244.0234L48.77049 244.0234z" stroke="none" fill="#F8F8F8" fill-rule="winding" /></g><g clip-path="url(#6)"><path transform="matrix(1 0 0 -1 0 841)" d="M48.39533 -486.7852L48.39533 199.0039C 48.39533 199.5234 48.57846 199.9688 48.94473 200.3359C 49.311 200.6992 49.75313 200.8789 50.27112 200.8789L50.27112 200.8789L544.7289 200.8789C 545.2468 200.8789 545.6889 200.6992 546.0552 200.3359C 546.4214 199.9688 546.6046 199.5234 546.6047 199.0039L546.6047 199.0039L546.6047 -486.7852C 546.6046 -487.3008 546.4214 -487.7422 546.0552 -488.1094C 545.6889 -488.4766 545.2468 -488.6602 544.7289 -488.6602L544.7289 -488.6602L50.27112 -488.6602C 49.75313 -488.6602 49.311 -488.4766 48.94473 -488.1094C 48.57846 -487.7422 48.39533 -487.3008 48.39533 -486.7852z" stroke="none" fill="#F8F8F8" fill-rule="winding" /><path transform="matrix(1 0 0 -1 0 841)" d="M48.39533 -486.7852L48.39533 199.0039C 48.39533 199.5234 48.57846 199.9688 48.94473 200.3359C 49.311 200.6992 49.75313 200.8789 50.27112 200.8789L50.27112 200.8789L544.7289 200.8789C 545.2468 200.8789 545.6889 200.6992 546.0552 200.3359C 546.4214 199.9688 546.6046 199.5234 546.6047 199.0039L546.6047 199.0039L546.6047 -486.7852C 546.6046 -487.3008 546.4214 -487.7422 546.0552 -488.1094C 545.6889 -488.4766 545.2468 -488.6602 544.7289 -488.6602L544.7289 -488.6602L50.27112 -488.6602C 49.75313 -488.6602 49.311 -488.4766 48.94473 -488.1094C 48.57846 -487.7422 48.39533 -487.3008 48.39533 -486.7852z" stroke="#E7EAED" stroke-width="0.7503152" fill="none" /></g><g clip-path="url(#7)"><path transform="matrix(1 0 0 -1 0 841)" d="M48.77049 194.5039L543.2282 194.5039L543.2282 194.5039L543.2282 -483.7813L543.2282 -483.7813L48.77049 -483.7813z" stroke="none" fill="#F8F8F8" fill-rule="winding" /></g><g clip-path="url(#8)"><path transform="matrix(1 0 0 -1 0 841)" d="M48.77049 778.2461L543.2282 778.2461L543.2282 778.2461L543.2282 602.6758L543.2282 602.6758L48.77049 602.6758z" stroke="none" fill="#F8F8F8" fill-rule="winding" /><path transform="matrix(1 0 0 -1 0 841)" d="M48.77049 778.2461L75.78184 778.2461L75.78184 778.2461L75.78184 553.9023L75.78184 553.9023L48.77049 553.9023z" stroke="none" fill="#F8F8F8" fill-rule="winding" /><path transform="matrix(1 0 0 -1 0 841)" d="M75.03152 778.2461L75.78184 778.2461L75.78184 778.2461L75.78184 553.9023L75.78184 553.9023L75.03152 553.9023z" stroke="none" fill="#DDDDDD" fill-rule="winding" /></g><g clip-path="url(#9)"><path transform="matrix(1 0 0 -1 0 841)" d="M48.77049 433.1016L543.2282 433.1016L543.2282 433.1016L543.2282 244.0234L543.2282 244.0234L48.77049 244.0234z" stroke="none" fill="#F8F8F8" fill-rule="winding" /><path transform="matrix(1 0 0 -1 0 841)" d="M48.77049 433.1016L75.78184 433.1016L75.78184 433.1016L75.78184 191.5L75.78184 191.5L48.77049 191.5z" stroke="none" fill="#F8F8F8" fill-rule="winding" /><path transform="matrix(1 0 0 -1 0 841)" d="M75.03152 433.1016L75.78184 433.1016L75.78184 433.1016L75.78184 191.5L75.78184 191.5L75.03152 191.5z" stroke="none" fill="#DDDDDD" fill-rule="winding" /></g><g clip-path="url(#10)"><path transform="matrix(1 0 0 -1 0 841)" d="M48.77049 194.5039L543.2282 194.5039L543.2282 194.5039L543.2282 -483.7813L543.2282 -483.7813L48.77049 -483.7813z" stroke="none" fill="#F8F8F8" fill-rule="winding" /><path transform="matrix(1 0 0 -1 0 841)" d="M48.77049 194.5039L75.78184 194.5039L75.78184 194.5039L75.78184 -668.3594L75.78184 -668.3594L48.77049 -668.3594z" stroke="none" fill="#F8F8F8" fill-rule="winding" /><path transform="matrix(1 0 0 -1 0 841)" d="M75.03152 194.5039L75.78184 194.5039L75.78184 194.5039L75.78184 -668.3594L75.78184 -668.3594L75.03152 -668.3594z" stroke="none" fill="#DDDDDD" fill-rule="winding" /></g><g transform="matrix(0.2399193 0 0 0.2399322 0 -14.78003)"><g transform="matrix(1 0 0 1 0 0)"><image x="0" y="0" xlink:href="img_02.png" width="2480" height="295" /></g></g><g transform="matrix(0.4798387 0 0 0.4798876 0 798.29)"><g transform="matrix(1 0 0 1 0 0)"><image x="0" y="0" xlink:href="img_03.png" width="1240" height="89" /></g></g></g></g></g></svg>