<svg xmlns="http://www.w3.org/2000/svg" xmlns:xlink="http://www.w3.org/1999/xlink" id="body_72" preserveAspectRatio="xMinYMin meet" viewBox="0 0 793 1121"><defs><clipPath id="1"><path d="M0 841L0 0L0 0L595 0L595 0L595 841L595 841L0 841z" /></clipPath><clipPath id="2"><path d="M0 56L595 56L595 56L595 784.5547L595 784.5547L0 784.5547z" /></clipPath><clipPath id="3"><path d="M150.744 67.25391L157.5528 67.25391L157.5528 67.25391L157.5528 69.72656L157.5528 69.72656L150.744 69.72656L150.744 69.72656L150.744 67.25391zM63.49813 67.25391L60.7567 67.25391L60.7567 67.25391L60.7567 69.72656L60.7567 69.72656L63.49813 69.72656L63.49813 69.72656L63.49813 67.25391zM0 56L0 784.5547L0 784.5547L595 784.5547L595 784.5547L595 56L595 56L0 56z" /></clipPath><clipPath id="4"><path d="M0 56L595 56L595 56L595 784.5547L595 784.5547L0 784.5547z" /></clipPath><clipPath id="5"><path d="M48.77049 590.9727L543.2282 590.9727L543.2282 590.9727L543.2282 784.5547L543.2282 784.5547L48.77049 784.5547z" /></clipPath></defs><g transform="matrix(1.333333 0 0 1.333333 0 0)"><g><g clip-path="url(#1)"><g clip-path="url(#2)"><path transform="matrix(1 0 0 -1 0 841)" d="M0 52512.48L595 52512.48L595 52512.48L595 -5465.125L595 -5465.125L0 -5465.125z" stroke="none" fill="#FFFFFF" fill-rule="winding" /></g><g clip-path="url(#3)"><path transform="matrix(1 0 0 -1 0 841)" d="M48.02018 772.9961L333.9606 772.9961L333.9606 772.9961L333.9606 772.2461L333.9606 772.2461L48.02018 772.2461z" stroke="none" fill="#4183C4" fill-rule="winding" /></g><g clip-path="url(#4)"><g transform="matrix(0.7503152 0 0 0.7503152 143.3102 78.50781)"><g transform="matrix(1 0 0 1 0 0)"><image x="0" y="0" xlink:href="img_139.png" width="411" height="435" /></g></g><path transform="matrix(1 0 0 -1 0 841)" d="M62.27617 365.1992C 62.27617 364.6836 62.09303 364.2422 61.72676 363.875C 61.36049 363.5039 60.91836 363.3242 60.40038 363.3242C 59.88239 363.3242 59.44026 363.5039 59.07399 363.875C 58.70772 364.2422 58.52458 364.6836 58.52459 365.1992C 58.52458 365.7227 58.70772 366.1602 59.07399 366.5313C 59.44026 366.8945 59.88239 367.0742 60.40038 367.0742C 60.91836 367.0742 61.36049 366.8945 61.72676 366.5313C 62.09303 366.1602 62.27617 365.7227 62.27617 365.1992z" stroke="none" fill="#333333" fill-rule="winding" /><path transform="matrix(1 0 0 -1 0 841)" d="M62.27617 320.1797C 62.27617 319.6641 62.09303 319.2266 61.72676 318.8555C 61.36049 318.4922 60.91836 318.3125 60.40038 318.3047C 59.88239 318.3125 59.44026 318.4922 59.07399 318.8555C 58.70772 319.2266 58.52458 319.6641 58.52459 320.1797C 58.52458 320.7031 58.70772 321.1406 59.07399 321.5117C 59.44026 321.875 59.88239 322.0547 60.40038 322.0547C 60.91836 322.0547 61.36049 321.875 61.72676 321.5117C 62.09303 321.1406 62.27617 320.7031 62.27617 320.1797z" stroke="none" fill="#333333" fill-rule="winding" /><path transform="matrix(1 0 0 -1 0 841)" d="M48.39533 39.9375L48.39533 254.5273C 48.39533 255.0508 48.57846 255.4883 48.94473 255.8594C 49.311 256.2227 49.75313 256.4023 50.27112 256.4023L50.27112 256.4023L544.7289 256.4023C 545.2468 256.4023 545.6889 256.2227 546.0552 255.8594C 546.4214 255.4883 546.6046 255.0508 546.6047 254.5273L546.6047 254.5273L546.6047 39.9375C 546.6046 39.42188 546.4214 38.98047 546.0552 38.61328C 545.6889 38.24219 545.2468 38.0625 544.7289 38.0625L544.7289 38.0625L50.27112 38.0625C 49.75313 38.0625 49.311 38.24219 48.94473 38.61328C 48.57846 38.98047 48.39533 39.42188 48.39533 39.9375z" stroke="none" fill="#F8F8F8" fill-rule="winding" /><path transform="matrix(1 0 0 -1 0 841)" d="M48.39533 39.9375L48.39533 254.5273C 48.39533 255.0508 48.57846 255.4883 48.94473 255.8594C 49.311 256.2227 49.75313 256.4023 50.27112 256.4023L50.27112 256.4023L544.7289 256.4023C 545.2468 256.4023 545.6889 256.2227 546.0552 255.8594C 546.4214 255.4883 546.6046 255.0508 546.6047 254.5273L546.6047 254.5273L546.6047 39.9375C 546.6046 39.42188 546.4214 38.98047 546.0552 38.61328C 545.6889 38.24219 545.2468 38.0625 544.7289 38.0625L544.7289 38.0625L50.27112 38.0625C 49.75313 38.0625 49.311 38.24219 48.94473 38.61328C 48.57846 38.98047 48.39533 39.42188 48.39533 39.9375z" stroke="#E7EAED" stroke-width="0.7503152" fill="none" /></g><g clip-path="url(#5)"><path transform="matrix(1 0 0 -1 0 841)" d="M48.77049 250.0273L543.2282 250.0273L543.2282 250.0273L543.2282 42.9375L543.2282 42.9375L48.77049 42.9375z" stroke="none" fill="#F8F8F8" fill-rule="winding" /><path transform="matrix(1 0 0 -1 0 841)" d="M48.77049 250.0273L543.2282 250.0273L543.2282 250.0273L543.2282 42.9375L543.2282 42.9375L48.77049 42.9375z" stroke="none" fill="#F8F8F8" fill-rule="winding" /><path transform="matrix(1 0 0 -1 0 841)" d="M48.77049 250.0273L75.78184 250.0273L75.78184 250.0273L75.78184 -8.832031L75.78184 -8.832031L48.77049 -8.832031z" stroke="none" fill="#F8F8F8" fill-rule="winding" /><path transform="matrix(1 0 0 -1 0 841)" d="M75.03152 250.0273L75.78184 250.0273L75.78184 250.0273L75.78184 -8.832031L75.78184 -8.832031L75.03152 -8.832031z" stroke="none" fill="#DDDDDD" fill-rule="winding" /></g><g transform="matrix(0.2399193 0 0 0.2399322 0 -14.78003)"><g transform="matrix(1 0 0 1 0 0)"><image x="0" y="0" xlink:href="img_02.png" width="2480" height="295" /></g></g><g transform="matrix(0.4798387 0 0 0.4798876 0 798.29)"><g transform="matrix(1 0 0 1 0 0)"><image x="0" y="0" xlink:href="img_03.png" width="1240" height="89" /></g></g></g></g></g></svg>