<svg xmlns="http://www.w3.org/2000/svg" xmlns:xlink="http://www.w3.org/1999/xlink" id="body_20" preserveAspectRatio="xMinYMin meet" viewBox="0 0 793 1121"><defs><clipPath id="1"><path d="M0 841L0 0L0 0L595 0L595 0L595 841L595 841L0 841z" /></clipPath><clipPath id="2"><path d="M0 56L595 56L595 56L595 784.5557L595 784.5557L0 784.5557z" /></clipPath><clipPath id="3"><path d="M48.77049 62.75293L543.2282 62.75293L543.2282 62.75293L543.2282 184.3037L543.2282 184.3037L48.77049 184.3037z" /></clipPath><clipPath id="4"><path d="M0 56L595 56L595 56L595 784.5557L595 784.5557L0 784.5557z" /></clipPath><clipPath id="5"><path d="M48.77049 697.5195L543.2282 697.5195L543.2282 697.5195L543.2282 784.5557L543.2282 784.5557L48.77049 784.5557z" /></clipPath><clipPath id="6"><path d="M48.77049 62.75293L543.2282 62.75293L543.2282 62.75293L543.2282 184.3037L543.2282 184.3037L48.77049 184.3037z" /></clipPath><clipPath id="7"><path d="M48.77049 697.5195L543.2282 697.5195L543.2282 697.5195L543.2282 784.5557L543.2282 784.5557L48.77049 784.5557z" /></clipPath><clipPath id="8"><path d="M241.63 422.648L469.126 422.648L469.126 422.648L469.126 362.648L469.126 362.648L241.63 362.648z" /></clipPath><clipPath id="9"><path d="M241.63 422.648L469.126 422.648L469.126 422.648L469.126 362.648L469.126 362.648L241.63 362.648z" /></clipPath></defs><g transform="matrix(1.333333 0 0 1.333333 0 0)"><g><g clip-path="url(#1)"><g clip-path="url(#2)"><path transform="matrix(1 0 0 -1 0 841)" d="M0 14627.57L595 14627.57L595 14627.57L595 -43350.04L595 -43350.04L0 -43350.04z" stroke="none" fill="#FFFFFF" fill-rule="winding" /><path transform="matrix(1 0 0 -1 0 841)" d="M48.39533 653.6953L48.39533 782.749C 48.39533 783.2686 48.57846 783.7109 48.94473 784.0771C 49.311 784.4424 49.75313 784.625 50.27112 784.625L50.27112 784.625L544.7289 784.625C 545.2468 784.625 545.6889 784.4424 546.0552 784.0771C 546.4214 783.7109 546.6046 783.2686 546.6047 782.749L546.6047 782.749L546.6047 653.6953C 546.6046 653.1777 546.4214 652.7363 546.0552 652.3701C 545.6889 652.0039 545.2468 651.8213 544.7289 651.8193L544.7289 651.8193L50.27112 651.8193C 49.75313 651.8213 49.311 652.0039 48.94473 652.3701C 48.57846 652.7363 48.39533 653.1777 48.39533 653.6953z" stroke="none" fill="#F8F8F8" fill-rule="winding" /><path transform="matrix(1 0 0 -1 0 841)" d="M48.39533 653.6953L48.39533 782.749C 48.39533 783.2686 48.57846 783.7109 48.94473 784.0771C 49.311 784.4424 49.75313 784.625 50.27112 784.625L50.27112 784.625L544.7289 784.625C 545.2468 784.625 545.6889 784.4424 546.0552 784.0771C 546.4214 783.7109 546.6046 783.2686 546.6047 782.749L546.6047 782.749L546.6047 653.6953C 546.6046 653.1777 546.4214 652.7363 546.0552 652.3701C 545.6889 652.0039 545.2468 651.8213 544.7289 651.8193L544.7289 651.8193L50.27112 651.8193C 49.75313 651.8213 49.311 652.0039 48.94473 652.3701C 48.57846 652.7363 48.39533 653.1777 48.39533 653.6953z" stroke="#E7EAED" stroke-width="0.7503152" fill="none" /></g><g clip-path="url(#3)"><path transform="matrix(1 0 0 -1 0 841)" d="M48.77049 778.2471L543.2282 778.2471L543.2282 778.2471L543.2282 656.6963L543.2282 656.6963L48.77049 656.6963z" stroke="none" fill="#F8F8F8" fill-rule="winding" /></g><g clip-path="url(#4)"><g transform="matrix(0.7503152 0 0 0.7503152 147.8121 200.8105)"><g transform="matrix(1 0 0 1 0 0)"><image x="0" y="0" xlink:href="img_43.png" width="400" height="603" /></g></g><path transform="matrix(1 0 0 -1 0 841)" d="M48.39533 -54.60254L48.39533 147.9824C 48.39533 148.502 48.57846 148.9443 48.94473 149.3105C 49.311 149.6758 49.75313 149.8584 50.27112 149.8584L50.27112 149.8584L544.7289 149.8584C 545.2468 149.8584 545.6889 149.6758 546.0552 149.3105C 546.4214 148.9443 546.6046 148.502 546.6047 147.9824L546.6047 147.9824L546.6047 -54.60254C 546.6046 -55.12012 546.4214 -55.5625 546.0552 -55.92871C 545.6889 -56.29395 545.2468 -56.47656 544.7289 -56.47852L544.7289 -56.47852L50.27112 -56.47852C 49.75313 -56.47656 49.311 -56.29395 48.94473 -55.92871C 48.57846 -55.5625 48.39533 -55.12012 48.39533 -54.60254z" stroke="none" fill="#F8F8F8" fill-rule="winding" /><path transform="matrix(1 0 0 -1 0 841)" d="M48.39533 -54.60254L48.39533 147.9824C 48.39533 148.502 48.57846 148.9443 48.94473 149.3105C 49.311 149.6758 49.75313 149.8584 50.27112 149.8584L50.27112 149.8584L544.7289 149.8584C 545.2468 149.8584 545.6889 149.6758 546.0552 149.3105C 546.4214 148.9443 546.6046 148.502 546.6047 147.9824L546.6047 147.9824L546.6047 -54.60254C 546.6046 -55.12012 546.4214 -55.5625 546.0552 -55.92871C 545.6889 -56.29395 545.2468 -56.47656 544.7289 -56.47852L544.7289 -56.47852L50.27112 -56.47852C 49.75313 -56.47656 49.311 -56.29395 48.94473 -55.92871C 48.57846 -55.5625 48.39533 -55.12012 48.39533 -54.60254z" stroke="#E7EAED" stroke-width="0.7503152" fill="none" /></g><g clip-path="url(#5)"><path transform="matrix(1 0 0 -1 0 841)" d="M48.77049 143.4805L543.2282 143.4805L543.2282 143.4805L543.2282 -51.60156L543.2282 -51.60156L48.77049 -51.60156z" stroke="none" fill="#F8F8F8" fill-rule="winding" /></g><g clip-path="url(#6)"><path transform="matrix(1 0 0 -1 0 841)" d="M48.77049 778.2471L543.2282 778.2471L543.2282 778.2471L543.2282 656.6963L543.2282 656.6963L48.77049 656.6963z" stroke="none" fill="#F8F8F8" fill-rule="winding" /><path transform="matrix(1 0 0 -1 0 841)" d="M48.77049 778.2471L69.77932 778.2471L69.77932 778.2471L69.77932 622.9326L69.77932 622.9326L48.77049 622.9326z" stroke="none" fill="#F8F8F8" fill-rule="winding" /><path transform="matrix(1 0 0 -1 0 841)" d="M69.029 778.2471L69.77932 778.2471L69.77932 778.2471L69.77932 622.9326L69.77932 622.9326L69.029 622.9326z" stroke="none" fill="#DDDDDD" fill-rule="winding" /></g><g clip-path="url(#7)"><path transform="matrix(1 0 0 -1 0 841)" d="M48.77049 143.4805L543.2282 143.4805L543.2282 143.4805L543.2282 -51.60156L543.2282 -51.60156L48.77049 -51.60156z" stroke="none" fill="#F8F8F8" fill-rule="winding" /><path transform="matrix(1 0 0 -1 0 841)" d="M48.77049 143.4805L75.78184 143.4805L75.78184 143.4805L75.78184 -98.12109L75.78184 -98.12109L48.77049 -98.12109z" stroke="none" fill="#F8F8F8" fill-rule="winding" /><path transform="matrix(1 0 0 -1 0 841)" d="M75.03152 143.4805L75.78184 143.4805L75.78184 143.4805L75.78184 -98.12109L75.78184 -98.12109L75.03152 -98.12109z" stroke="none" fill="#DDDDDD" fill-rule="winding" /></g><g transform="matrix(0.2399193 0 0 0.2399322 0 -14.78003)"><g transform="matrix(1 0 0 1 0 0)"><image x="0" y="0" xlink:href="img_02.png" width="2480" height="295" /></g></g><g transform="matrix(0.4798387 0 0 0.4798876 0 798.29)"><g transform="matrix(1 0 0 1 0 0)"><image x="0" y="0" xlink:href="img_03.png" width="1240" height="89" /></g></g><g clip-path="url(#8)"><g clip-path="url(#9)"></g></g></g></g></g></svg>