<svg xmlns="http://www.w3.org/2000/svg" xmlns:xlink="http://www.w3.org/1999/xlink" id="body_16" preserveAspectRatio="xMinYMin meet" viewBox="0 0 793 1121"><defs><clipPath id="1"><path d="M0 841L0 0L0 0L595 0L595 0L595 841L595 841L0 841z" /></clipPath><clipPath id="2"><path d="M0 56L595 56L595 56L595 784.5557L595 784.5557L0 784.5557z" /></clipPath><clipPath id="3"><path d="M48.77049 56L543.2282 56L543.2282 56L543.2282 380.1357L543.2282 380.1357L48.77049 380.1357z" /></clipPath><clipPath id="4"><path d="M0 56L595 56L595 56L595 784.5557L595 784.5557L0 784.5557z" /></clipPath><clipPath id="5"><path d="M48.77049 429.6572L543.2282 429.6572L543.2282 429.6572L543.2282 470.1738L543.2282 470.1738L48.77049 470.1738z" /></clipPath><clipPath id="6"><path d="M0 56L595 56L595 56L595 784.5557L595 784.5557L0 784.5557z" /></clipPath><clipPath id="7"><path d="M48.77049 56L543.2282 56L543.2282 56L543.2282 380.1357L543.2282 380.1357L48.77049 380.1357z" /></clipPath><clipPath id="8"><path d="M48.77049 429.6572L543.2282 429.6572L543.2282 429.6572L543.2282 470.1738L543.2282 470.1738L48.77049 470.1738z" /></clipPath></defs><g transform="matrix(1.333333 0 0 1.333333 0 0)"><g><g clip-path="url(#1)"><g clip-path="url(#2)"><path transform="matrix(1 0 0 -1 0 841)" d="M0 11713.34L595 11713.34L595 11713.34L595 -46264.27L595 -46264.27L0 -46264.27z" stroke="none" fill="#FFFFFF" fill-rule="winding" /><path transform="matrix(1 0 0 -1 0 841)" d="M48.02018 444.3574L51.02144 444.3574L51.02144 444.3574L51.02144 429.3506L51.02144 429.3506L48.02018 429.3506z" stroke="none" fill="#DFE2E5" fill-rule="winding" /><path transform="matrix(1 0 0 -1 0 841)" d="M48.39533 457.8623L48.39533 1337.982C 48.39533 1338.501 48.57846 1338.943 48.94473 1339.31C 49.311 1339.675 49.75313 1339.858 50.27112 1339.858L50.27112 1339.858L544.7289 1339.858C 545.2468 1339.858 545.6889 1339.675 546.0552 1339.31C 546.4214 1338.943 546.6046 1338.501 546.6047 1337.982L546.6047 1337.982L546.6047 457.8623C 546.6046 457.3457 546.4214 456.9033 546.0552 456.5371C 545.6889 456.1709 545.2468 455.9873 544.7289 455.9873L544.7289 455.9873L50.27112 455.9873C 49.75313 455.9873 49.311 456.1709 48.94473 456.5371C 48.57846 456.9033 48.39533 457.3457 48.39533 457.8623z" stroke="none" fill="#F8F8F8" fill-rule="winding" /><path transform="matrix(1 0 0 -1 0 841)" d="M48.39533 457.8623L48.39533 1337.982C 48.39533 1338.501 48.57846 1338.943 48.94473 1339.31C 49.311 1339.675 49.75313 1339.858 50.27112 1339.858L50.27112 1339.858L544.7289 1339.858C 545.2468 1339.858 545.6889 1339.675 546.0552 1339.31C 546.4214 1338.943 546.6046 1338.501 546.6047 1337.982L546.6047 1337.982L546.6047 457.8623C 546.6046 457.3457 546.4214 456.9033 546.0552 456.5371C 545.6889 456.1709 545.2468 455.9873 544.7289 455.9873L544.7289 455.9873L50.27112 455.9873C 49.75313 455.9873 49.311 456.1709 48.94473 456.5371C 48.57846 456.9033 48.39533 457.3457 48.39533 457.8623z" stroke="#E7EAED" stroke-width="0.7503152" fill="none" /></g><g clip-path="url(#3)"><path transform="matrix(1 0 0 -1 0 841)" d="M48.77049 1333.48L543.2282 1333.48L543.2282 1333.48L543.2282 460.8643L543.2282 460.8643L48.77049 460.8643z" stroke="none" fill="#F8F8F8" fill-rule="winding" /></g><g clip-path="url(#4)"><path transform="matrix(1 0 0 -1 0 841)" d="M48.39533 367.8252L48.39533 415.8447C 48.39533 416.3643 48.57846 416.8066 48.94473 417.1719C 49.311 417.5381 49.75313 417.7207 50.27112 417.7207L50.27112 417.7207L544.7289 417.7207C 545.2468 417.7207 545.6889 417.5381 546.0552 417.1719C 546.4214 416.8066 546.6046 416.3643 546.6047 415.8447L546.6047 415.8447L546.6047 367.8252C 546.6046 367.3066 546.4214 366.8652 546.0552 366.499C 545.6889 366.1328 545.2468 365.9502 544.7289 365.9492L544.7289 365.9492L50.27112 365.9492C 49.75313 365.9502 49.311 366.1328 48.94473 366.499C 48.57846 366.8652 48.39533 367.3066 48.39533 367.8252z" stroke="none" fill="#F8F8F8" fill-rule="winding" /><path transform="matrix(1 0 0 -1 0 841)" d="M48.39533 367.8252L48.39533 415.8447C 48.39533 416.3643 48.57846 416.8066 48.94473 417.1719C 49.311 417.5381 49.75313 417.7207 50.27112 417.7207L50.27112 417.7207L544.7289 417.7207C 545.2468 417.7207 545.6889 417.5381 546.0552 417.1719C 546.4214 416.8066 546.6046 416.3643 546.6047 415.8447L546.6047 415.8447L546.6047 367.8252C 546.6046 367.3066 546.4214 366.8652 546.0552 366.499C 545.6889 366.1328 545.2468 365.9502 544.7289 365.9492L544.7289 365.9492L50.27112 365.9492C 49.75313 365.9502 49.311 366.1328 48.94473 366.499C 48.57846 366.8652 48.39533 367.3066 48.39533 367.8252z" stroke="#E7EAED" stroke-width="0.7503152" fill="none" /></g><g clip-path="url(#5)"><path transform="matrix(1 0 0 -1 0 841)" d="M48.77049 411.3428L543.2282 411.3428L543.2282 411.3428L543.2282 370.8262L543.2282 370.8262L48.77049 370.8262z" stroke="none" fill="#F8F8F8" fill-rule="winding" /></g><g clip-path="url(#6)"></g><g clip-path="url(#7)"><path transform="matrix(1 0 0 -1 0 841)" d="M48.77049 1333.48L543.2282 1333.48L543.2282 1333.48L543.2282 460.8643L543.2282 460.8643L48.77049 460.8643z" stroke="none" fill="#F8F8F8" fill-rule="winding" /><path transform="matrix(1 0 0 -1 0 841)" d="M48.77049 1333.48L75.78184 1333.48L75.78184 1333.48L75.78184 229.0166L75.78184 229.0166L48.77049 229.0166z" stroke="none" fill="#F8F8F8" fill-rule="winding" /><path transform="matrix(1 0 0 -1 0 841)" d="M75.03152 1333.48L75.78184 1333.48L75.78184 1333.48L75.78184 229.0166L75.78184 229.0166L75.03152 229.0166z" stroke="none" fill="#DDDDDD" fill-rule="winding" /></g><g clip-path="url(#8)"><path transform="matrix(1 0 0 -1 0 841)" d="M48.77049 411.3428L543.2282 411.3428L543.2282 411.3428L543.2282 370.8262L543.2282 370.8262L48.77049 370.8262z" stroke="none" fill="#F8F8F8" fill-rule="winding" /><path transform="matrix(1 0 0 -1 0 841)" d="M48.77049 411.3428L69.77932 411.3428L69.77932 411.3428L69.77932 359.5713L69.77932 359.5713L48.77049 359.5713z" stroke="none" fill="#F8F8F8" fill-rule="winding" /><path transform="matrix(1 0 0 -1 0 841)" d="M69.029 411.3428L69.77932 411.3428L69.77932 411.3428L69.77932 359.5713L69.77932 359.5713L69.029 359.5713z" stroke="none" fill="#DDDDDD" fill-rule="winding" /></g><g transform="matrix(0.2399193 0 0 0.2399322 0 -14.78003)"><g transform="matrix(1 0 0 1 0 0)"><image x="0" y="0" xlink:href="img_02.png" width="2480" height="295" /></g></g><g transform="matrix(0.4798387 0 0 0.4798876 0 798.29)"><g transform="matrix(1 0 0 1 0 0)"><image x="0" y="0" xlink:href="img_03.png" width="1240" height="89" /></g></g></g></g></g></svg>