<svg xmlns="http://www.w3.org/2000/svg" xmlns:xlink="http://www.w3.org/1999/xlink" id="body_5" preserveAspectRatio="xMinYMin meet" viewBox="0 0 793 1121"><defs><clipPath id="1"><path d="M0 841L0 0L0 0L595 0L595 0L595 841L595 841L0 841z" /></clipPath><clipPath id="2"><path d="M0 56L595 56L595 56L595 784.5562L595 784.5562L0 784.5562z" /></clipPath><clipPath id="3"><path d="M48.77049 56L543.2282 56L543.2282 56L543.2282 690.7668L543.2282 690.7668L48.77049 690.7668z" /></clipPath><clipPath id="4"><path d="M0 56L595 56L595 56L595 784.5562L595 784.5562L0 784.5562z" /></clipPath><clipPath id="5"><path d="M48.77049 714.0266L543.2282 714.0266L543.2282 714.0266L543.2282 784.5562L543.2282 784.5562L48.77049 784.5562z" /></clipPath><clipPath id="6"><path d="M48.77049 56L543.2282 56L543.2282 56L543.2282 690.7668L543.2282 690.7668L48.77049 690.7668z" /></clipPath><clipPath id="7"><path d="M48.77049 714.0266L543.2282 714.0266L543.2282 714.0266L543.2282 784.5562L543.2282 784.5562L48.77049 784.5562z" /></clipPath></defs><g transform="matrix(1.333333 0 0 1.333333 0 0)"><g><g clip-path="url(#1)"><g clip-path="url(#2)"><path transform="matrix(1 0 0 -1 0 841)" d="M0 3699.224L595 3699.224L595 3699.224L595 -54278.39L595 -54278.39L0 -54278.39z" stroke="none" fill="#FFFFFF" fill-rule="winding" /><path transform="matrix(1 0 0 -1 0 841)" d="M48.39533 147.2319L48.39533 857.7805C 48.39533 858.2986 48.57846 858.7407 48.94473 859.1069C 49.311 859.4731 49.75313 859.6563 50.27112 859.6563L50.27112 859.6563L544.7289 859.6563C 545.2468 859.6563 545.6889 859.4731 546.0552 859.1069C 546.4214 858.7407 546.6046 858.2986 546.6047 857.7805L546.6047 857.7805L546.6047 147.2319C 546.6046 146.7144 546.4214 146.2722 546.0552 145.906C 545.6889 145.5398 545.2468 145.3564 544.7289 145.3562L544.7289 145.3562L50.27112 145.3562C 49.75313 145.3564 49.311 145.5398 48.94473 145.906C 48.57846 146.2722 48.39533 146.7144 48.39533 147.2319z" stroke="none" fill="#F8F8F8" fill-rule="winding" /><path transform="matrix(1 0 0 -1 0 841)" d="M48.39533 147.2319L48.39533 857.7805C 48.39533 858.2986 48.57846 858.7407 48.94473 859.1069C 49.311 859.4731 49.75313 859.6563 50.27112 859.6563L50.27112 859.6563L544.7289 859.6563C 545.2468 859.6563 545.6889 859.4731 546.0552 859.1069C 546.4214 858.7407 546.6046 858.2986 546.6047 857.7805L546.6047 857.7805L546.6047 147.2319C 546.6046 146.7144 546.4214 146.2722 546.0552 145.906C 545.6889 145.5398 545.2468 145.3564 544.7289 145.3562L544.7289 145.3562L50.27112 145.3562C 49.75313 145.3564 49.311 145.5398 48.94473 145.906C 48.57846 146.2722 48.39533 146.7144 48.39533 147.2319z" stroke="#E7EAED" stroke-width="0.7503152" fill="none" /></g><g clip-path="url(#3)"><path transform="matrix(1 0 0 -1 0 841)" d="M48.77049 853.2786L543.2282 853.2786L543.2282 853.2786L543.2282 150.2332L543.2282 150.2332L48.77049 150.2332z" stroke="none" fill="#F8F8F8" fill-rule="winding" /></g><g clip-path="url(#4)"><path transform="matrix(1 0 0 -1 0 841)" d="M48.39533 -257.188L48.39533 131.4753C 48.39533 131.9934 48.57846 132.4355 48.94473 132.802C 49.311 133.168 49.75313 133.3511 50.27112 133.3511L50.27112 133.3511L544.7289 133.3511C 545.2468 133.3511 545.6889 133.168 546.0552 132.802C 546.4214 132.4355 546.6046 131.9934 546.6047 131.4753L546.6047 131.4753L546.6047 -257.188C 546.6046 -257.7056 546.4214 -258.1477 546.0552 -258.5142C 545.6889 -258.8801 545.2468 -259.0635 544.7289 -259.0637L544.7289 -259.0637L50.27112 -259.0637C 49.75313 -259.0635 49.311 -258.8801 48.94473 -258.5142C 48.57846 -258.1477 48.39533 -257.7056 48.39533 -257.188z" stroke="none" fill="#F8F8F8" fill-rule="winding" /><path transform="matrix(1 0 0 -1 0 841)" d="M48.39533 -257.188L48.39533 131.4753C 48.39533 131.9934 48.57846 132.4355 48.94473 132.802C 49.311 133.168 49.75313 133.3511 50.27112 133.3511L50.27112 133.3511L544.7289 133.3511C 545.2468 133.3511 545.6889 133.168 546.0552 132.802C 546.4214 132.4355 546.6046 131.9934 546.6047 131.4753L546.6047 131.4753L546.6047 -257.188C 546.6046 -257.7056 546.4214 -258.1477 546.0552 -258.5142C 545.6889 -258.8801 545.2468 -259.0635 544.7289 -259.0637L544.7289 -259.0637L50.27112 -259.0637C 49.75313 -259.0635 49.311 -258.8801 48.94473 -258.5142C 48.57846 -258.1477 48.39533 -257.7056 48.39533 -257.188z" stroke="#E7EAED" stroke-width="0.7503152" fill="none" /></g><g clip-path="url(#5)"><path transform="matrix(1 0 0 -1 0 841)" d="M48.77049 126.9734L543.2282 126.9734L543.2282 126.9734L543.2282 -254.1868L543.2282 -254.1868L48.77049 -254.1868z" stroke="none" fill="#F8F8F8" fill-rule="winding" /></g><g clip-path="url(#6)"><path transform="matrix(1 0 0 -1 0 841)" d="M48.77049 853.2786L543.2282 853.2786L543.2282 853.2786L543.2282 150.2332L543.2282 150.2332L48.77049 150.2332z" stroke="none" fill="#F8F8F8" fill-rule="winding" /><path transform="matrix(1 0 0 -1 0 841)" d="M48.77049 853.2786L75.78184 853.2786L75.78184 853.2786L75.78184 -44.09839L75.78184 -44.09839L48.77049 -44.09839z" stroke="none" fill="#F8F8F8" fill-rule="winding" /><path transform="matrix(1 0 0 -1 0 841)" d="M75.03152 853.2786L75.78184 853.2786L75.78184 853.2786L75.78184 -44.09839L75.78184 -44.09839L75.03152 -44.09839z" stroke="none" fill="#DDDDDD" fill-rule="winding" /></g><g clip-path="url(#7)"><path transform="matrix(1 0 0 -1 0 841)" d="M48.77049 126.9734L543.2282 126.9734L543.2282 126.9734L543.2282 -254.1868L543.2282 -254.1868L48.77049 -254.1868z" stroke="none" fill="#F8F8F8" fill-rule="winding" /><path transform="matrix(1 0 0 -1 0 841)" d="M48.77049 126.9734L75.78184 126.9734L75.78184 126.9734L75.78184 -356.2295L75.78184 -356.2295L48.77049 -356.2295z" stroke="none" fill="#F8F8F8" fill-rule="winding" /><path transform="matrix(1 0 0 -1 0 841)" d="M75.03152 126.9734L75.78184 126.9734L75.78184 126.9734L75.78184 -356.2295L75.78184 -356.2295L75.03152 -356.2295z" stroke="none" fill="#DDDDDD" fill-rule="winding" /></g><g transform="matrix(0.2399193 0 0 0.2399322 0 -14.78003)"><g transform="matrix(1 0 0 1 0 0)"><image x="0" y="0" xlink:href="img_02.png" width="2480" height="295" /></g></g><g transform="matrix(0.4798387 0 0 0.4798876 0 798.29)"><g transform="matrix(1 0 0 1 0 0)"><image x="0" y="0" xlink:href="img_03.png" width="1240" height="89" /></g></g></g></g></g></svg>