<svg xmlns="http://www.w3.org/2000/svg" xmlns:xlink="http://www.w3.org/1999/xlink" id="body_12" preserveAspectRatio="xMinYMin meet" viewBox="0 0 793 1121"><defs><clipPath id="1"><path d="M0 841L0 0L0 0L595 0L595 0L595 841L595 841L0 841z" /></clipPath><clipPath id="2"><path d="M0 56L595 56L595 56L595 784.5557L595 784.5557L0 784.5557z" /></clipPath><clipPath id="3"><path d="M48.77049 536.9521L543.2282 536.9521L543.2282 536.9521L543.2282 550.458L543.2282 550.458L48.77049 550.458z" /></clipPath></defs><g transform="matrix(1.333333 0 0 1.333333 0 0)"><g><g clip-path="url(#1)"><g clip-path="url(#2)"><path transform="matrix(1 0 0 -1 0 841)" d="M0 8799.117L595 8799.117L595 8799.117L595 -49178.49L595 -49178.49L0 -49178.49z" stroke="none" fill="#FFFFFF" fill-rule="winding" /><g transform="matrix(0.7503153 0 0 0.7503152 145.5612 56)"><g transform="matrix(1 0 0 1 0 0)"><image x="0" y="0" xlink:href="img_27.png" width="405" height="370" /></g></g><g transform="matrix(0.7273465 0 0 0.7293274 48.02018 341.1201)"><g transform="matrix(1 0 0 1 0 0)"><image x="0" y="0" xlink:href="img_28.png" width="686" height="143" /></g></g><path transform="matrix(1 0 0 -1 0 841)" d="M48.39533 287.541L48.39533 308.5498C 48.39533 309.0684 48.57846 309.5107 48.94473 309.877C 49.311 310.2422 49.75313 310.4258 50.27112 310.4258L50.27112 310.4258L544.7289 310.4258C 545.2468 310.4258 545.6889 310.2422 546.0552 309.877C 546.4214 309.5107 546.6046 309.0684 546.6047 308.5498L546.6047 308.5498L546.6047 287.541C 546.6046 287.0234 546.4214 286.5811 546.0552 286.2148C 545.6889 285.8486 545.2468 285.665 544.7289 285.665L544.7289 285.665L50.27112 285.665C 49.75313 285.665 49.311 285.8486 48.94473 286.2148C 48.57846 286.5811 48.39533 287.0234 48.39533 287.541z" stroke="none" fill="#F8F8F8" fill-rule="winding" /><path transform="matrix(1 0 0 -1 0 841)" d="M48.39533 287.541L48.39533 308.5498C 48.39533 309.0684 48.57846 309.5107 48.94473 309.877C 49.311 310.2422 49.75313 310.4258 50.27112 310.4258L50.27112 310.4258L544.7289 310.4258C 545.2468 310.4258 545.6889 310.2422 546.0552 309.877C 546.4214 309.5107 546.6046 309.0684 546.6047 308.5498L546.6047 308.5498L546.6047 287.541C 546.6046 287.0234 546.4214 286.5811 546.0552 286.2148C 545.6889 285.8486 545.2468 285.665 544.7289 285.665L544.7289 285.665L50.27112 285.665C 49.75313 285.665 49.311 285.8486 48.94473 286.2148C 48.57846 286.5811 48.39533 287.0234 48.39533 287.541z" stroke="#E7EAED" stroke-width="0.7503152" fill="none" /></g><g clip-path="url(#3)"><path transform="matrix(1 0 0 -1 0 841)" d="M48.77049 304.0479L543.2282 304.0479L543.2282 304.0479L543.2282 290.542L543.2282 290.542L48.77049 290.542z" stroke="none" fill="#F8F8F8" fill-rule="winding" /><path transform="matrix(1 0 0 -1 0 841)" d="M48.77049 304.0479L543.2282 304.0479L543.2282 304.0479L543.2282 290.542L543.2282 290.542L48.77049 290.542z" stroke="none" fill="#F8F8F8" fill-rule="winding" /><path transform="matrix(1 0 0 -1 0 841)" d="M48.77049 304.0479L69.77932 304.0479L69.77932 304.0479L69.77932 281.5381L69.77932 281.5381L48.77049 281.5381z" stroke="none" fill="#F8F8F8" fill-rule="winding" /><path transform="matrix(1 0 0 -1 0 841)" d="M69.029 304.0479L69.77932 304.0479L69.77932 304.0479L69.77932 281.5381L69.77932 281.5381L69.029 281.5381z" stroke="none" fill="#DDDDDD" fill-rule="winding" /></g><g transform="matrix(0.2399193 0 0 0.2399322 0 -14.78003)"><g transform="matrix(1 0 0 1 0 0)"><image x="0" y="0" xlink:href="img_02.png" width="2480" height="295" /></g></g><g transform="matrix(0.4798387 0 0 0.4798876 0 798.29)"><g transform="matrix(1 0 0 1 0 0)"><image x="0" y="0" xlink:href="img_03.png" width="1240" height="89" /></g></g></g></g></g></svg>