<svg xmlns="http://www.w3.org/2000/svg" xmlns:xlink="http://www.w3.org/1999/xlink" id="body_1" preserveAspectRatio="xMinYMin meet" viewBox="0 0 793 1121"><defs><clipPath id="1"><path d="M0 841L0 0L0 0L595 0L595 0L595 841L595 841L0 841z" /></clipPath><clipPath id="2"><path d="M0 56L595 56L595 56L595 784.5561L595 784.5561L0 784.5561z" /></clipPath></defs><g transform="matrix(1.333333 0 0 1.333333 0 0)"><g><g clip-path="url(#1)"><g clip-path="url(#2)"><path transform="matrix(1 0 0 -1 0 841)" d="M0 785L595 785L595 785L595 -57192.61L595 -57192.61L0 -57192.61z" stroke="none" fill="#FFFFFF" fill-rule="winding" /><path transform="matrix(1 0 0 -1 0 841)" d="M0.7503152 784.2497L594.2497 784.2497L594.2497 784.2497L594.2497 57.19421L594.2497 57.19421L0.7503152 57.19421z" stroke="none" fill="#FFFFFF" fill-rule="winding" /><path transform="matrix(1 0 0 -1 0 841)" d="M48.02018 725.7251L546.9798 725.7251L546.9798 725.7251L546.9798 724.9748L546.9798 724.9748L48.02018 724.9748z" stroke="none" fill="#EEEEEE" fill-rule="winding" /><path transform="matrix(1 0 0 -1 0 841)" d="M62.27617 707.3423C 62.27617 706.8244 62.09303 706.3823 61.72676 706.016C 61.36049 705.6497 60.91836 705.4666 60.40038 705.4666C 59.88239 705.4666 59.44026 705.6497 59.07399 706.016C 58.70772 706.3823 58.52458 706.8244 58.52459 707.3423C 58.52458 707.8604 58.70772 708.3025 59.07399 708.6688C 59.44026 709.035 59.88239 709.2181 60.40038 709.2181C 60.91836 709.2181 61.36049 709.035 61.72676 708.6688C 62.09303 708.3025 62.27617 707.8604 62.27617 707.3423z" stroke="none" fill="#333333" fill-rule="winding" /><path transform="matrix(1 0 0 -1 0 841)" d="M62.27617 692.3361C 62.27617 691.8181 62.09303 691.376 61.72676 691.0097C 61.36049 690.6434 60.91836 690.4603 60.40038 690.4603C 59.88239 690.4603 59.44026 690.6434 59.07399 691.0097C 58.70772 691.376 58.52458 691.8181 58.52459 692.3361C 58.52458 692.8541 58.70772 693.2962 59.07399 693.6625C 59.44026 694.0287 59.88239 694.2119 60.40038 694.2119C 60.91836 694.2119 61.36049 694.0287 61.72676 693.6625C 62.09303 693.2962 62.27617 692.8541 62.27617 692.3361z" stroke="none" fill="#333333" fill-rule="winding" /><path transform="matrix(1 0 0 -1 0 841)" d="M62.27617 677.3298C 62.27617 676.8118 62.09303 676.3696 61.72676 676.0034C 61.36049 675.6371 60.91836 675.454 60.40038 675.454C 59.88239 675.454 59.44026 675.6371 59.07399 676.0034C 58.70772 676.3696 58.52458 676.8118 58.52459 677.3298C 58.52458 677.8478 58.70772 678.2899 59.07399 678.6561C 59.44026 679.0224 59.88239 679.2056 60.40038 679.2056C 60.91836 679.2056 61.36049 679.0224 61.72676 678.6561C 62.09303 678.2899 62.27617 677.8478 62.27617 677.3298z" stroke="none" fill="#333333" fill-rule="winding" /><path transform="matrix(1 0 0 -1 0 841)" d="M62.27617 662.3235C 62.27617 661.8055 62.09303 661.3633 61.72676 660.9971C 61.36049 660.6308 60.91836 660.4477 60.40038 660.4477C 59.88239 660.4477 59.44026 660.6308 59.07399 660.9971C 58.70772 661.3633 58.52458 661.8055 58.52459 662.3235C 58.52458 662.8414 58.70772 663.2836 59.07399 663.6498C 59.44026 664.0161 59.88239 664.1992 60.40038 664.1992C 60.91836 664.1992 61.36049 664.0161 61.72676 663.6498C 62.09303 663.2836 62.27617 662.8414 62.27617 662.3235z" stroke="none" fill="#333333" fill-rule="winding" /><path transform="matrix(1 0 0 -1 0 841)" d="M62.27617 647.3171C 62.27617 646.7992 62.09303 646.3571 61.72676 645.9908C 61.36049 645.6245 60.91836 645.4414 60.40038 645.4413C 59.88239 645.4414 59.44026 645.6245 59.07399 645.9908C 58.70772 646.3571 58.52458 646.7992 58.52459 647.3171C 58.52458 647.8351 58.70772 648.2773 59.07399 648.6436C 59.44026 649.0098 59.88239 649.1929 60.40038 649.1929C 60.91836 649.1929 61.36049 649.0098 61.72676 648.6436C 62.09303 648.2773 62.27617 647.8351 62.27617 647.3171z" stroke="none" fill="#333333" fill-rule="winding" /><path transform="matrix(1 0 0 -1 0 841)" d="M62.27617 632.3109C 62.27617 631.7928 62.09303 631.3507 61.72676 630.9845C 61.36049 630.6182 60.91836 630.4351 60.40038 630.4351C 59.88239 630.4351 59.44026 630.6182 59.07399 630.9845C 58.70772 631.3507 58.52458 631.7928 58.52459 632.3109C 58.52458 632.8289 58.70772 633.271 59.07399 633.6372C 59.44026 634.0035 59.88239 634.1866 60.40038 634.1866C 60.91836 634.1866 61.36049 634.0035 61.72676 633.6372C 62.09303 633.271 62.27617 632.8289 62.27617 632.3109z" stroke="none" fill="#333333" fill-rule="winding" /><path transform="matrix(1 0 0 -1 0 841)" d="M62.27617 617.3046C 62.27617 616.7866 62.09303 616.3444 61.72676 615.9781C 61.36049 615.6119 60.91836 615.4288 60.40038 615.4288C 59.88239 615.4288 59.44026 615.6119 59.07399 615.9781C 58.70772 616.3444 58.52458 616.7866 58.52459 617.3046C 58.52458 617.8225 58.70772 618.2646 59.07399 618.6309C 59.44026 618.9972 59.88239 619.1803 60.40038 619.1803C 60.91836 619.1803 61.36049 618.9972 61.72676 618.6309C 62.09303 618.2646 62.27617 617.8225 62.27617 617.3046z" stroke="none" fill="#333333" fill-rule="winding" /><path transform="matrix(1 0 0 -1 0 841)" d="M62.27617 602.2982C 62.27617 601.7803 62.09303 601.3381 61.72676 600.9719C 61.36049 600.6056 60.91836 600.4225 60.40038 600.4225C 59.88239 600.4225 59.44026 600.6056 59.07399 600.9719C 58.70772 601.3381 58.52458 601.7803 58.52459 602.2982C 58.52458 602.8162 58.70772 603.2584 59.07399 603.6246C 59.44026 603.9909 59.88239 604.174 60.40038 604.174C 60.91836 604.174 61.36049 603.9909 61.72676 603.6246C 62.09303 603.2584 62.27617 602.8162 62.27617 602.2982z" stroke="none" fill="#333333" fill-rule="winding" /><path transform="matrix(1 0 0 -1 0 841)" d="M48.02018 537.396L546.9798 537.396L546.9798 537.396L546.9798 536.6456L546.9798 536.6456L48.02018 536.6456z" stroke="none" fill="#EEEEEE" fill-rule="winding" /><g transform="matrix(0.5353644 0 0 0.5353526 48.02018 366.6305)"><g transform="matrix(1 0 0 1 0 0)"><image x="0" y="0" xlink:href="img_01.png" width="932" height="548" /></g></g></g><g transform="matrix(0.2399193 0 0 0.2399322 0 -14.78003)"><g transform="matrix(1 0 0 1 0 0)"><image x="0" y="0" xlink:href="img_02.png" width="2480" height="295" /></g></g><g transform="matrix(0.4798387 0 0 0.4798876 0 798.29)"><g transform="matrix(1 0 0 1 0 0)"><image x="0" y="0" xlink:href="img_03.png" width="1240" height="89" /></g></g></g></g></g></svg>