<svg xmlns="http://www.w3.org/2000/svg" xmlns:xlink="http://www.w3.org/1999/xlink" id="body_35" preserveAspectRatio="xMinYMin meet" viewBox="0 0 793 1121"><defs><clipPath id="1"><path d="M0 841L0 0L0 0L595 0L595 0L595 841L595 841L0 841z" /></clipPath><clipPath id="2"><path d="M0 56L595 56L595 56L595 784.5547L595 784.5547L0 784.5547z" /></clipPath><clipPath id="3"><path d="M48.77049 56L543.2282 56L543.2282 56L543.2282 353.125L543.2282 353.125L48.77049 353.125z" /></clipPath><clipPath id="4"><path d="M0 56L595 56L595 56L595 784.5547L595 784.5547L0 784.5547z" /></clipPath><clipPath id="5"><path d="M48.77049 402.6445L543.2282 402.6445L543.2282 402.6445L543.2282 416.1504L543.2282 416.1504L48.77049 416.1504z" /></clipPath><clipPath id="6"><path d="M48.77049 56L543.2282 56L543.2282 56L543.2282 353.125L543.2282 353.125L48.77049 353.125z" /></clipPath><clipPath id="7"><path d="M48.77049 402.6445L543.2282 402.6445L543.2282 402.6445L543.2282 416.1504L543.2282 416.1504L48.77049 416.1504z" /></clipPath></defs><g transform="matrix(1.333333 0 0 1.333333 0 0)"><g><g clip-path="url(#1)"><g clip-path="url(#2)"><path transform="matrix(1 0 0 -1 0 841)" d="M0 25555.91L595 25555.91L595 25555.91L595 -32421.7L595 -32421.7L0 -32421.7z" stroke="none" fill="#FFFFFF" fill-rule="winding" /><path transform="matrix(1 0 0 -1 0 841)" d="M48.39533 484.875L48.39533 866.7852C 48.39533 867.3027 48.57846 867.7461 48.94473 868.1133C 49.311 868.4785 49.75313 868.6602 50.27112 868.6602L50.27112 868.6602L544.7289 868.6602C 545.2468 868.6602 545.6889 868.4785 546.0552 868.1133C 546.4214 867.7461 546.6046 867.3027 546.6047 866.7852L546.6047 866.7852L546.6047 484.875C 546.6046 484.3594 546.4214 483.916 546.0552 483.5488C 545.6889 483.1836 545.2468 483.002 544.7289 482.998L544.7289 482.998L50.27112 482.998C 49.75313 483.002 49.311 483.1836 48.94473 483.5488C 48.57846 483.916 48.39533 484.3594 48.39533 484.875z" stroke="none" fill="#F8F8F8" fill-rule="winding" /><path transform="matrix(1 0 0 -1 0 841)" d="M48.39533 484.875L48.39533 866.7852C 48.39533 867.3027 48.57846 867.7461 48.94473 868.1133C 49.311 868.4785 49.75313 868.6602 50.27112 868.6602L50.27112 868.6602L544.7289 868.6602C 545.2468 868.6602 545.6889 868.4785 546.0552 868.1133C 546.4214 867.7461 546.6046 867.3027 546.6047 866.7852L546.6047 866.7852L546.6047 484.875C 546.6046 484.3594 546.4214 483.916 546.0552 483.5488C 545.6889 483.1836 545.2468 483.002 544.7289 482.998L544.7289 482.998L50.27112 482.998C 49.75313 483.002 49.311 483.1836 48.94473 483.5488C 48.57846 483.916 48.39533 484.3594 48.39533 484.875z" stroke="#E7EAED" stroke-width="0.7503152" fill="none" /></g><g clip-path="url(#3)"><path transform="matrix(1 0 0 -1 0 841)" d="M48.77049 862.2832L543.2282 862.2832L543.2282 862.2832L543.2282 487.875L543.2282 487.875L48.77049 487.875z" stroke="none" fill="#F8F8F8" fill-rule="winding" /></g><g clip-path="url(#4)"><path transform="matrix(1 0 0 -1 0 841)" d="M48.39533 421.8477L48.39533 442.8574C 48.39533 443.375 48.57846 443.8184 48.94473 444.1836C 49.311 444.5508 49.75313 444.7324 50.27112 444.7324L50.27112 444.7324L544.7289 444.7324C 545.2468 444.7324 545.6889 444.5508 546.0552 444.1836C 546.4214 443.8184 546.6046 443.375 546.6047 442.8574L546.6047 442.8574L546.6047 421.8477C 546.6046 421.332 546.4214 420.8887 546.0552 420.5234C 545.6889 420.1563 545.2468 419.9746 544.7289 419.9727L544.7289 419.9727L50.27112 419.9727C 49.75313 419.9746 49.311 420.1563 48.94473 420.5234C 48.57846 420.8887 48.39533 421.332 48.39533 421.8477z" stroke="none" fill="#F8F8F8" fill-rule="winding" /><path transform="matrix(1 0 0 -1 0 841)" d="M48.39533 421.8477L48.39533 442.8574C 48.39533 443.375 48.57846 443.8184 48.94473 444.1836C 49.311 444.5508 49.75313 444.7324 50.27112 444.7324L50.27112 444.7324L544.7289 444.7324C 545.2468 444.7324 545.6889 444.5508 546.0552 444.1836C 546.4214 443.8184 546.6046 443.375 546.6047 442.8574L546.6047 442.8574L546.6047 421.8477C 546.6046 421.332 546.4214 420.8887 546.0552 420.5234C 545.6889 420.1563 545.2468 419.9746 544.7289 419.9727L544.7289 419.9727L50.27112 419.9727C 49.75313 419.9746 49.311 420.1563 48.94473 420.5234C 48.57846 420.8887 48.39533 421.332 48.39533 421.8477z" stroke="#E7EAED" stroke-width="0.7503152" fill="none" /></g><g clip-path="url(#5)"><path transform="matrix(1 0 0 -1 0 841)" d="M48.77049 438.3555L543.2282 438.3555L543.2282 438.3555L543.2282 424.8496L543.2282 424.8496L48.77049 424.8496z" stroke="none" fill="#F8F8F8" fill-rule="winding" /></g><g clip-path="url(#6)"><path transform="matrix(1 0 0 -1 0 841)" d="M48.77049 862.2832L543.2282 862.2832L543.2282 862.2832L543.2282 487.875L543.2282 487.875L48.77049 487.875z" stroke="none" fill="#F8F8F8" fill-rule="winding" /><path transform="matrix(1 0 0 -1 0 841)" d="M48.77049 862.2832L75.78184 862.2832L75.78184 862.2832L75.78184 396.3379L75.78184 396.3379L48.77049 396.3379z" stroke="none" fill="#F8F8F8" fill-rule="winding" /><path transform="matrix(1 0 0 -1 0 841)" d="M75.03152 862.2832L75.78184 862.2832L75.78184 862.2832L75.78184 396.3379L75.78184 396.3379L75.03152 396.3379z" stroke="none" fill="#DDDDDD" fill-rule="winding" /></g><g clip-path="url(#7)"><path transform="matrix(1 0 0 -1 0 841)" d="M48.77049 438.3555L543.2282 438.3555L543.2282 438.3555L543.2282 424.8496L543.2282 424.8496L48.77049 424.8496z" stroke="none" fill="#F8F8F8" fill-rule="winding" /><path transform="matrix(1 0 0 -1 0 841)" d="M48.77049 438.3555L69.77932 438.3555L69.77932 438.3555L69.77932 415.8457L69.77932 415.8457L48.77049 415.8457z" stroke="none" fill="#F8F8F8" fill-rule="winding" /><path transform="matrix(1 0 0 -1 0 841)" d="M69.029 438.3555L69.77932 438.3555L69.77932 438.3555L69.77932 415.8457L69.77932 415.8457L69.029 415.8457z" stroke="none" fill="#DDDDDD" fill-rule="winding" /></g><g transform="matrix(0.2399193 0 0 0.2399322 0 -14.78003)"><g transform="matrix(1 0 0 1 0 0)"><image x="0" y="0" xlink:href="img_02.png" width="2480" height="295" /></g></g><g transform="matrix(0.4798387 0 0 0.4798876 0 798.29)"><g transform="matrix(1 0 0 1 0 0)"><image x="0" y="0" xlink:href="img_03.png" width="1240" height="89" /></g></g></g></g></g></svg>