<svg xmlns="http://www.w3.org/2000/svg" xmlns:xlink="http://www.w3.org/1999/xlink" id="body_12" preserveAspectRatio="xMinYMin meet" viewBox="0 0 793 1121"><defs><clipPath id="1"><path d="M0 841L0 0L0 0L595 0L595 0L595 841L595 841L0 841z" /></clipPath><clipPath id="2"><path d="M0 56L595 56L595 56L595 784.5557L595 784.5557L0 784.5557z" /></clipPath><clipPath id="3"><path d="M48.77049 62.75293L543.2282 62.75293L543.2282 62.75293L543.2282 211.3154L543.2282 211.3154L48.77049 211.3154z" /></clipPath><clipPath id="4"><path d="M0 56L595 56L595 56L595 784.5557L595 784.5557L0 784.5557z" /></clipPath><clipPath id="5"><path d="M48.77049 234.5752L543.2282 234.5752L543.2282 234.5752L543.2282 261.5859L543.2282 261.5859L48.77049 261.5859z" /></clipPath><clipPath id="6"><path d="M0 56L595 56L595 56L595 784.5557L595 784.5557L0 784.5557z" /></clipPath><clipPath id="7"><path d="M48.77049 62.75293L543.2282 62.75293L543.2282 62.75293L543.2282 211.3154L543.2282 211.3154L48.77049 211.3154z" /></clipPath><clipPath id="8"><path d="M48.77049 234.5752L543.2282 234.5752L543.2282 234.5752L543.2282 261.5859L543.2282 261.5859L48.77049 261.5859z" /></clipPath></defs><g transform="matrix(1.333333 0 0 1.333333 0 0)"><g><g clip-path="url(#1)"><g clip-path="url(#2)"><path transform="matrix(1 0 0 -1 0 841)" d="M0 8799.117L595 8799.117L595 8799.117L595 -23904.87L595 -23904.87L0 -23904.87z" stroke="none" fill="#FFFFFF" fill-rule="winding" /><path transform="matrix(1 0 0 -1 0 841)" d="M48.39533 626.6836L48.39533 782.749C 48.39533 783.2671 48.57846 783.7095 48.94473 784.0762C 49.311 784.4419 49.75313 784.625 50.27112 784.625L50.27112 784.625L544.7289 784.625C 545.2468 784.625 545.6889 784.4419 546.0552 784.0762C 546.4214 783.7095 546.6046 783.2671 546.6047 782.749L546.6047 782.749L546.6047 626.6836C 546.6046 626.166 546.4214 625.7241 546.0552 625.3579C 545.6889 624.9917 545.2468 624.8086 544.7289 624.8076L544.7289 624.8076L50.27112 624.8076C 49.75313 624.8086 49.311 624.9917 48.94473 625.3579C 48.57846 625.7241 48.39533 626.166 48.39533 626.6836z" stroke="none" fill="#F8F8F8" fill-rule="winding" /><path transform="matrix(1 0 0 -1 0 841)" d="M48.39533 626.6836L48.39533 782.749C 48.39533 783.2671 48.57846 783.7095 48.94473 784.0762C 49.311 784.4419 49.75313 784.625 50.27112 784.625L50.27112 784.625L544.7289 784.625C 545.2468 784.625 545.6889 784.4419 546.0552 784.0762C 546.4214 783.7095 546.6046 783.2671 546.6047 782.749L546.6047 782.749L546.6047 626.6836C 546.6046 626.166 546.4214 625.7241 546.0552 625.3579C 545.6889 624.9917 545.2468 624.8086 544.7289 624.8076L544.7289 624.8076L50.27112 624.8076C 49.75313 624.8086 49.311 624.9917 48.94473 625.3579C 48.57846 625.7241 48.39533 626.166 48.39533 626.6836z" stroke="#E7EAED" stroke-width="0.7503152" fill="none" /></g><g clip-path="url(#3)"><path transform="matrix(1 0 0 -1 0 841)" d="M48.77049 778.2471L543.2282 778.2471L543.2282 778.2471L543.2282 629.6846L543.2282 629.6846L48.77049 629.6846z" stroke="none" fill="#F8F8F8" fill-rule="winding" /></g><g clip-path="url(#4)"><path transform="matrix(1 0 0 -1 0 841)" d="M48.39533 576.4121L48.39533 610.9268C 48.39533 611.4448 48.57846 611.8877 48.94473 612.2539C 49.311 612.6196 49.75313 612.8027 50.27112 612.8027L50.27112 612.8027L544.7289 612.8027C 545.2468 612.8027 545.6889 612.6196 546.0552 612.2539C 546.4214 611.8877 546.6046 611.4448 546.6047 610.9268L546.6047 610.9268L546.6047 576.4121C 546.6046 575.8945 546.4214 575.4521 546.0552 575.0859C 545.6889 574.7207 545.2468 574.5371 544.7289 574.5361L544.7289 574.5361L50.27112 574.5361C 49.75313 574.5371 49.311 574.7207 48.94473 575.0859C 48.57846 575.4521 48.39533 575.8945 48.39533 576.4121z" stroke="none" fill="#F8F8F8" fill-rule="winding" /><path transform="matrix(1 0 0 -1 0 841)" d="M48.39533 576.4121L48.39533 610.9268C 48.39533 611.4448 48.57846 611.8877 48.94473 612.2539C 49.311 612.6196 49.75313 612.8027 50.27112 612.8027L50.27112 612.8027L544.7289 612.8027C 545.2468 612.8027 545.6889 612.6196 546.0552 612.2539C 546.4214 611.8877 546.6046 611.4448 546.6047 610.9268L546.6047 610.9268L546.6047 576.4121C 546.6046 575.8945 546.4214 575.4521 546.0552 575.0859C 545.6889 574.7207 545.2468 574.5371 544.7289 574.5361L544.7289 574.5361L50.27112 574.5361C 49.75313 574.5371 49.311 574.7207 48.94473 575.0859C 48.57846 575.4521 48.39533 575.8945 48.39533 576.4121z" stroke="#E7EAED" stroke-width="0.7503152" fill="none" /></g><g clip-path="url(#5)"><path transform="matrix(1 0 0 -1 0 841)" d="M48.77049 606.4248L543.2282 606.4248L543.2282 606.4248L543.2282 579.4141L543.2282 579.4141L48.77049 579.4141z" stroke="none" fill="#F8F8F8" fill-rule="winding" /></g><g clip-path="url(#6)"><g transform="matrix(0.534218 0 0 0.5336888 48.02018 278.0938)"><g transform="matrix(1 0 0 1 0 0)"><image x="0" y="0" xlink:href="img_23.png" width="934" height="381" /></g></g><g transform="matrix(0.4637171 0 0 0.4642028 48.02018 512.1914)"><g transform="matrix(1 0 0 1 0 0)"><image x="0" y="0" xlink:href="img_24.png" width="1076" height="257" /></g></g></g><g clip-path="url(#7)"><path transform="matrix(1 0 0 -1 0 841)" d="M48.77049 778.2471L543.2282 778.2471L543.2282 778.2471L543.2282 629.6846L543.2282 629.6846L48.77049 629.6846z" stroke="none" fill="#F8F8F8" fill-rule="winding" /><path transform="matrix(1 0 0 -1 0 841)" d="M48.77049 778.2471L75.78184 778.2471L75.78184 778.2471L75.78184 588.417L75.78184 588.417L48.77049 588.417z" stroke="none" fill="#F8F8F8" fill-rule="winding" /><path transform="matrix(1 0 0 -1 0 841)" d="M75.03152 778.2471L75.78184 778.2471L75.78184 778.2471L75.78184 588.417L75.78184 588.417L75.03152 588.417z" stroke="none" fill="#DDDDDD" fill-rule="winding" /></g><g clip-path="url(#8)"><path transform="matrix(1 0 0 -1 0 841)" d="M48.77049 606.4248L543.2282 606.4248L543.2282 606.4248L543.2282 579.4141L543.2282 579.4141L48.77049 579.4141z" stroke="none" fill="#F8F8F8" fill-rule="winding" /><path transform="matrix(1 0 0 -1 0 841)" d="M48.77049 606.4248L69.77932 606.4248L69.77932 606.4248L69.77932 571.9102L69.77932 571.9102L48.77049 571.9102z" stroke="none" fill="#F8F8F8" fill-rule="winding" /><path transform="matrix(1 0 0 -1 0 841)" d="M69.029 606.4248L69.77932 606.4248L69.77932 606.4248L69.77932 571.9102L69.77932 571.9102L69.029 571.9102z" stroke="none" fill="#DDDDDD" fill-rule="winding" /></g><g transform="matrix(0.2399193 0 0 0.2399322 0 -14.78003)"><g transform="matrix(1 0 0 1 0 0)"><image x="0" y="0" xlink:href="img_02.png" width="2480" height="295" /></g></g><g transform="matrix(0.4798387 0 0 0.4798876 0 798.29)"><g transform="matrix(1 0 0 1 0 0)"><image x="0" y="0" xlink:href="img_03.png" width="1240" height="89" /></g></g></g></g></g></svg>