<svg xmlns="http://www.w3.org/2000/svg" xmlns:xlink="http://www.w3.org/1999/xlink" id="body_23" preserveAspectRatio="xMinYMin meet" viewBox="0 0 793 1121"><defs><clipPath id="1"><path d="M0 841L0 0L0 0L595 0L595 0L595 841L595 841L0 841z" /></clipPath><clipPath id="2"><path d="M0 56L595 56L595 56L595 784.5566L595 784.5566L0 784.5566z" /></clipPath><clipPath id="3"><path d="M150.744 560.2109L157.5528 560.2109L157.5528 560.2109L157.5528 562.6875L157.5528 562.6875L150.744 562.6875L150.744 562.6875L150.744 560.2109zM63.49813 560.2109L60.7567 560.2109L60.7567 560.2109L60.7567 562.6875L60.7567 562.6875L63.49813 562.6875L63.49813 562.6875L63.49813 560.2109zM0 56L0 784.5566L0 784.5566L595 784.5566L595 784.5566L595 56L595 56L0 56z" /></clipPath><clipPath id="4"><path d="M0 56L595 56L595 56L595 784.5566L595 784.5566L0 784.5566z" /></clipPath></defs><g transform="matrix(1.333333 0 0 1.333333 0 0)"><g><g clip-path="url(#1)"><g clip-path="url(#2)"><path transform="matrix(1 0 0 -1 0 841)" d="M0 16813.23L595 16813.23L595 16813.23L595 -15890.76L595 -15890.76L0 -15890.76z" stroke="none" fill="#FFFFFF" fill-rule="winding" /><g transform="matrix(0.7503152 0 0 0.7503152 66.02774 56)"><g transform="matrix(1 0 0 1 0 0)"><image x="0" y="0" xlink:href="img_44.png" width="617" height="586" /></g></g></g><g clip-path="url(#3)"><path transform="matrix(1 0 0 -1 0 841)" d="M48.02018 280.0371L429.4382 280.0371L429.4382 280.0371L429.4382 279.2871L429.4382 279.2871L48.02018 279.2871z" stroke="none" fill="#4183C4" fill-rule="winding" /></g><g clip-path="url(#4)"><path transform="matrix(1 0 0 -1 0 841)" d="M48.02018 241.7715L546.9798 241.7715L546.9798 241.7715L546.9798 241.0215L546.9798 241.0215L48.02018 241.0215z" stroke="none" fill="#EEEEEE" fill-rule="winding" /><g transform="matrix(0.4059883 0 0 0.406342 48.02018 609.7324)"><g transform="matrix(1 0 0 1 0 0)"><image x="0" y="0" xlink:href="img_45.png" width="1229" height="397" /></g></g></g><g transform="matrix(0.2399193 0 0 0.2399322 0 -14.78003)"><g transform="matrix(1 0 0 1 0 0)"><image x="0" y="0" xlink:href="img_02.png" width="2480" height="295" /></g></g><g transform="matrix(0.4798387 0 0 0.4798876 0 798.29)"><g transform="matrix(1 0 0 1 0 0)"><image x="0" y="0" xlink:href="img_03.png" width="1240" height="89" /></g></g></g></g></g></svg>