<svg xmlns="http://www.w3.org/2000/svg" xmlns:xlink="http://www.w3.org/1999/xlink" id="body_29" preserveAspectRatio="xMinYMin meet" viewBox="0 0 793 1121"><defs><clipPath id="1"><path d="M0 841L0 0L0 0L595 0L595 0L595 841L595 841L0 841z" /></clipPath><clipPath id="2"><path d="M0 56L595 56L595 56L595 784.5566L595 784.5566L0 784.5566z" /></clipPath><clipPath id="3"><path d="M48.77049 515.1934L543.2282 515.1934L543.2282 515.1934L543.2282 784.5566L543.2282 784.5566L48.77049 784.5566z" /></clipPath></defs><g transform="matrix(1.333333 0 0 1.333333 0 0)"><g><g clip-path="url(#1)"><g clip-path="url(#2)"><path transform="matrix(1 0 0 -1 0 841)" d="M0 21184.57L595 21184.57L595 21184.57L595 -11519.42L595 -11519.42L0 -11519.42z" stroke="none" fill="#FFFFFF" fill-rule="winding" /><g transform="matrix(0.488697 0 0 0.4889093 48.02018 56)"><g transform="matrix(1 0 0 1 0 0)"><image x="0" y="0" xlink:href="img_59.png" width="1021" height="841" /></g></g><path transform="matrix(1 0 0 -1 0 841)" d="M48.39533 39.93555L48.39533 330.3086C 48.39533 330.8262 48.57846 331.2695 48.94473 331.6367C 49.311 332 49.75313 332.1836 50.27112 332.1836L50.27112 332.1836L544.7289 332.1836C 545.2468 332.1836 545.6889 332 546.0552 331.6367C 546.4214 331.2695 546.6046 330.8262 546.6047 330.3086L546.6047 330.3086L546.6047 39.93555C 546.6046 39.41992 546.4214 38.97852 546.0552 38.61133C 545.6889 38.24609 545.2468 38.0625 544.7289 38.0625L544.7289 38.0625L50.27112 38.0625C 49.75313 38.0625 49.311 38.24609 48.94473 38.61133C 48.57846 38.97852 48.39533 39.41992 48.39533 39.93555z" stroke="none" fill="#F8F8F8" fill-rule="winding" /><path transform="matrix(1 0 0 -1 0 841)" d="M48.39533 39.93555L48.39533 330.3086C 48.39533 330.8262 48.57846 331.2695 48.94473 331.6367C 49.311 332 49.75313 332.1836 50.27112 332.1836L50.27112 332.1836L544.7289 332.1836C 545.2468 332.1836 545.6889 332 546.0552 331.6367C 546.4214 331.2695 546.6046 330.8262 546.6047 330.3086L546.6047 330.3086L546.6047 39.93555C 546.6046 39.41992 546.4214 38.97852 546.0552 38.61133C 545.6889 38.24609 545.2468 38.0625 544.7289 38.0625L544.7289 38.0625L50.27112 38.0625C 49.75313 38.0625 49.311 38.24609 48.94473 38.61133C 48.57846 38.97852 48.39533 39.41992 48.39533 39.93555z" stroke="#E7EAED" stroke-width="0.7503152" fill="none" /></g><g clip-path="url(#3)"><path transform="matrix(1 0 0 -1 0 841)" d="M48.77049 325.8066L543.2282 325.8066L543.2282 325.8066L543.2282 42.9375L543.2282 42.9375L48.77049 42.9375z" stroke="none" fill="#F8F8F8" fill-rule="winding" /><path transform="matrix(1 0 0 -1 0 841)" d="M48.77049 325.8066L543.2282 325.8066L543.2282 325.8066L543.2282 42.9375L543.2282 42.9375L48.77049 42.9375z" stroke="none" fill="#F8F8F8" fill-rule="winding" /><path transform="matrix(1 0 0 -1 0 841)" d="M48.77049 325.8066L75.78184 325.8066L75.78184 325.8066L75.78184 -19.33789L75.78184 -19.33789L48.77049 -19.33789z" stroke="none" fill="#F8F8F8" fill-rule="winding" /><path transform="matrix(1 0 0 -1 0 841)" d="M75.03152 325.8066L75.78184 325.8066L75.78184 325.8066L75.78184 -19.33789L75.78184 -19.33789L75.03152 -19.33789z" stroke="none" fill="#DDDDDD" fill-rule="winding" /></g><g transform="matrix(0.2399193 0 0 0.2399322 0 -14.78003)"><g transform="matrix(1 0 0 1 0 0)"><image x="0" y="0" xlink:href="img_02.png" width="2480" height="295" /></g></g><g transform="matrix(0.4798387 0 0 0.4798876 0 798.29)"><g transform="matrix(1 0 0 1 0 0)"><image x="0" y="0" xlink:href="img_03.png" width="1240" height="89" /></g></g></g></g></g></svg>