<svg xmlns="http://www.w3.org/2000/svg" xmlns:xlink="http://www.w3.org/1999/xlink" id="body_40" preserveAspectRatio="xMinYMin meet" viewBox="0 0 793 1121"><defs><clipPath id="1"><path d="M0 841L0 0L0 0L595 0L595 0L595 841L595 841L0 841z" /></clipPath><clipPath id="2"><path d="M0 56L595 56L595 56L595 784.5566L595 784.5566L0 784.5566z" /></clipPath><clipPath id="3"><path d="M48.77049 62.75391L543.2282 62.75391L543.2282 62.75391L543.2282 305.8555L543.2282 305.8555L48.77049 305.8555z" /></clipPath><clipPath id="4"><path d="M0 56L595 56L595 56L595 784.5566L595 784.5566L0 784.5566z" /></clipPath><clipPath id="5"><path d="M48.77049 377.8867L543.2282 377.8867L543.2282 377.8867L543.2282 418.4023L543.2282 418.4023L48.77049 418.4023z" /></clipPath><clipPath id="6"><path d="M0 56L595 56L595 56L595 784.5566L595 784.5566L0 784.5566z" /></clipPath><clipPath id="7"><path d="M48.77049 473.1758L543.2282 473.1758L543.2282 473.1758L543.2282 675.7617L543.2282 675.7617L48.77049 675.7617z" /></clipPath><clipPath id="8"><path d="M0 56L595 56L595 56L595 784.5566L595 784.5566L0 784.5566z" /></clipPath><clipPath id="9"><path d="M48.77049 730.5332L543.2282 730.5332L543.2282 730.5332L543.2282 784.5566L543.2282 784.5566L48.77049 784.5566z" /></clipPath><clipPath id="10"><path d="M48.77049 62.75391L543.2282 62.75391L543.2282 62.75391L543.2282 305.8555L543.2282 305.8555L48.77049 305.8555z" /></clipPath><clipPath id="11"><path d="M48.77049 377.8867L543.2282 377.8867L543.2282 377.8867L543.2282 418.4023L543.2282 418.4023L48.77049 418.4023z" /></clipPath><clipPath id="12"><path d="M48.77049 473.1758L543.2282 473.1758L543.2282 473.1758L543.2282 675.7617L543.2282 675.7617L48.77049 675.7617z" /></clipPath><clipPath id="13"><path d="M48.77049 730.5332L543.2282 730.5332L543.2282 730.5332L543.2282 784.5566L543.2282 784.5566L48.77049 784.5566z" /></clipPath></defs><g transform="matrix(1.333333 0 0 1.333333 0 0)"><g><g clip-path="url(#1)"><g clip-path="url(#2)"><path transform="matrix(1 0 0 -1 0 841)" d="M0 29198.69L595 29198.69L595 29198.69L595 -3505.303L595 -3505.303L0 -3505.303z" stroke="none" fill="#FFFFFF" fill-rule="winding" /><path transform="matrix(1 0 0 -1 0 841)" d="M48.39533 532.1426L48.39533 782.748C 48.39533 783.2676 48.57846 783.709 48.94473 784.0762C 49.311 784.4434 49.75313 784.625 50.27112 784.625L50.27112 784.625L544.7289 784.625C 545.2468 784.625 545.6889 784.4434 546.0552 784.0762C 546.4214 783.709 546.6046 783.2676 546.6047 782.748L546.6047 782.748L546.6047 532.1426C 546.6046 531.627 546.4214 531.1855 546.0552 530.8184C 545.6889 530.4512 545.2468 530.2695 544.7289 530.2676L544.7289 530.2676L50.27112 530.2676C 49.75313 530.2695 49.311 530.4512 48.94473 530.8184C 48.57846 531.1855 48.39533 531.627 48.39533 532.1426z" stroke="none" fill="#F8F8F8" fill-rule="winding" /><path transform="matrix(1 0 0 -1 0 841)" d="M48.39533 532.1426L48.39533 782.748C 48.39533 783.2676 48.57846 783.709 48.94473 784.0762C 49.311 784.4434 49.75313 784.625 50.27112 784.625L50.27112 784.625L544.7289 784.625C 545.2468 784.625 545.6889 784.4434 546.0552 784.0762C 546.4214 783.709 546.6046 783.2676 546.6047 782.748L546.6047 782.748L546.6047 532.1426C 546.6046 531.627 546.4214 531.1855 546.0552 530.8184C 545.6889 530.4512 545.2468 530.2695 544.7289 530.2676L544.7289 530.2676L50.27112 530.2676C 49.75313 530.2695 49.311 530.4512 48.94473 530.8184C 48.57846 531.1855 48.39533 531.627 48.39533 532.1426z" stroke="#E7EAED" stroke-width="0.7503152" fill="none" /></g><g clip-path="url(#3)"><path transform="matrix(1 0 0 -1 0 841)" d="M48.77049 778.2461L543.2282 778.2461L543.2282 778.2461L543.2282 535.1445L543.2282 535.1445L48.77049 535.1445z" stroke="none" fill="#F8F8F8" fill-rule="winding" /></g><g clip-path="url(#4)"><path transform="matrix(1 0 0 -1 0 841)" d="M48.39533 419.5957L48.39533 467.6152C 48.39533 468.1348 48.57846 468.5781 48.94473 468.9434C 49.311 469.3105 49.75313 469.4922 50.27112 469.4922L50.27112 469.4922L544.7289 469.4922C 545.2468 469.4922 545.6889 469.3105 546.0552 468.9434C 546.4214 468.5781 546.6046 468.1348 546.6047 467.6152L546.6047 467.6152L546.6047 419.5957C 546.6046 419.0801 546.4214 418.6367 546.0552 418.2715C 545.6889 417.9043 545.2468 417.7227 544.7289 417.7207L544.7289 417.7207L50.27112 417.7207C 49.75313 417.7227 49.311 417.9043 48.94473 418.2715C 48.57846 418.6367 48.39533 419.0801 48.39533 419.5957z" stroke="none" fill="#F8F8F8" fill-rule="winding" /><path transform="matrix(1 0 0 -1 0 841)" d="M48.39533 419.5957L48.39533 467.6152C 48.39533 468.1348 48.57846 468.5781 48.94473 468.9434C 49.311 469.3105 49.75313 469.4922 50.27112 469.4922L50.27112 469.4922L544.7289 469.4922C 545.2468 469.4922 545.6889 469.3105 546.0552 468.9434C 546.4214 468.5781 546.6046 468.1348 546.6047 467.6152L546.6047 467.6152L546.6047 419.5957C 546.6046 419.0801 546.4214 418.6367 546.0552 418.2715C 545.6889 417.9043 545.2468 417.7227 544.7289 417.7207L544.7289 417.7207L50.27112 417.7207C 49.75313 417.7227 49.311 417.9043 48.94473 418.2715C 48.57846 418.6367 48.39533 419.0801 48.39533 419.5957z" stroke="#E7EAED" stroke-width="0.7503152" fill="none" /></g><g clip-path="url(#5)"><path transform="matrix(1 0 0 -1 0 841)" d="M48.77049 463.1133L543.2282 463.1133L543.2282 463.1133L543.2282 422.5977L543.2282 422.5977L48.77049 422.5977z" stroke="none" fill="#F8F8F8" fill-rule="winding" /></g><g clip-path="url(#6)"><path transform="matrix(1 0 0 -1 0 841)" d="M48.39533 162.2383L48.39533 372.3262C 48.39533 372.8438 48.57846 373.291 48.94473 373.6563C 49.311 374.0195 49.75313 374.2012 50.27112 374.2012L50.27112 374.2012L544.7289 374.2012C 545.2468 374.2012 545.6889 374.0195 546.0552 373.6563C 546.4214 373.291 546.6046 372.8438 546.6047 372.3262L546.6047 372.3262L546.6047 162.2383C 546.6046 161.7188 546.4214 161.2793 546.0552 160.9121C 545.6889 160.5469 545.2468 160.3652 544.7289 160.3613L544.7289 160.3613L50.27112 160.3613C 49.75313 160.3652 49.311 160.5469 48.94473 160.9121C 48.57846 161.2793 48.39533 161.7188 48.39533 162.2383z" stroke="none" fill="#F8F8F8" fill-rule="winding" /><path transform="matrix(1 0 0 -1 0 841)" d="M48.39533 162.2383L48.39533 372.3262C 48.39533 372.8438 48.57846 373.291 48.94473 373.6563C 49.311 374.0195 49.75313 374.2012 50.27112 374.2012L50.27112 374.2012L544.7289 374.2012C 545.2468 374.2012 545.6889 374.0195 546.0552 373.6563C 546.4214 373.291 546.6046 372.8438 546.6047 372.3262L546.6047 372.3262L546.6047 162.2383C 546.6046 161.7188 546.4214 161.2793 546.0552 160.9121C 545.6889 160.5469 545.2468 160.3652 544.7289 160.3613L544.7289 160.3613L50.27112 160.3613C 49.75313 160.3652 49.311 160.5469 48.94473 160.9121C 48.57846 161.2793 48.39533 161.7188 48.39533 162.2383z" stroke="#E7EAED" stroke-width="0.7503152" fill="none" /></g><g clip-path="url(#7)"><path transform="matrix(1 0 0 -1 0 841)" d="M48.77049 367.8242L543.2282 367.8242L543.2282 367.8242L543.2282 165.2383L543.2282 165.2383L48.77049 165.2383z" stroke="none" fill="#F8F8F8" fill-rule="winding" /></g><g clip-path="url(#8)"><path transform="matrix(1 0 0 -1 0 841)" d="M48.39533 -473.2793L48.39533 114.9688C 48.39533 115.4863 48.57846 115.9297 48.94473 116.2949C 49.311 116.6621 49.75313 116.8438 50.27112 116.8438L50.27112 116.8438L544.7289 116.8438C 545.2468 116.8438 545.6889 116.6621 546.0552 116.2949C 546.4214 115.9297 546.6046 115.4863 546.6047 114.9688L546.6047 114.9688L546.6047 -473.2793C 546.6046 -473.7988 546.4214 -474.2383 546.0552 -474.6035C 545.6889 -474.9707 545.2468 -475.1543 544.7289 -475.1543L544.7289 -475.1543L50.27112 -475.1543C 49.75313 -475.1543 49.311 -474.9707 48.94473 -474.6035C 48.57846 -474.2383 48.39533 -473.7988 48.39533 -473.2793z" stroke="none" fill="#F8F8F8" fill-rule="winding" /><path transform="matrix(1 0 0 -1 0 841)" d="M48.39533 -473.2793L48.39533 114.9688C 48.39533 115.4863 48.57846 115.9297 48.94473 116.2949C 49.311 116.6621 49.75313 116.8438 50.27112 116.8438L50.27112 116.8438L544.7289 116.8438C 545.2468 116.8438 545.6889 116.6621 546.0552 116.2949C 546.4214 115.9297 546.6046 115.4863 546.6047 114.9688L546.6047 114.9688L546.6047 -473.2793C 546.6046 -473.7988 546.4214 -474.2383 546.0552 -474.6035C 545.6889 -474.9707 545.2468 -475.1543 544.7289 -475.1543L544.7289 -475.1543L50.27112 -475.1543C 49.75313 -475.1543 49.311 -474.9707 48.94473 -474.6035C 48.57846 -474.2383 48.39533 -473.7988 48.39533 -473.2793z" stroke="#E7EAED" stroke-width="0.7503152" fill="none" /></g><g clip-path="url(#9)"><path transform="matrix(1 0 0 -1 0 841)" d="M48.77049 110.4668L543.2282 110.4668L543.2282 110.4668L543.2282 -470.2773L543.2282 -470.2773L48.77049 -470.2773z" stroke="none" fill="#F8F8F8" fill-rule="winding" /></g><g clip-path="url(#10)"><path transform="matrix(1 0 0 -1 0 841)" d="M48.77049 778.2461L543.2282 778.2461L543.2282 778.2461L543.2282 535.1445L543.2282 535.1445L48.77049 535.1445z" stroke="none" fill="#F8F8F8" fill-rule="winding" /><path transform="matrix(1 0 0 -1 0 841)" d="M48.77049 778.2461L69.77932 778.2461L69.77932 778.2461L69.77932 467.6152L69.77932 467.6152L48.77049 467.6152z" stroke="none" fill="#F8F8F8" fill-rule="winding" /><path transform="matrix(1 0 0 -1 0 841)" d="M69.029 778.2461L69.77932 778.2461L69.77932 778.2461L69.77932 467.6152L69.77932 467.6152L69.029 467.6152z" stroke="none" fill="#DDDDDD" fill-rule="winding" /></g><g clip-path="url(#11)"><path transform="matrix(1 0 0 -1 0 841)" d="M48.77049 463.1133L543.2282 463.1133L543.2282 463.1133L543.2282 422.5977L543.2282 422.5977L48.77049 422.5977z" stroke="none" fill="#F8F8F8" fill-rule="winding" /><path transform="matrix(1 0 0 -1 0 841)" d="M48.77049 463.1133L69.77932 463.1133L69.77932 463.1133L69.77932 411.3418L69.77932 411.3418L48.77049 411.3418z" stroke="none" fill="#F8F8F8" fill-rule="winding" /><path transform="matrix(1 0 0 -1 0 841)" d="M69.029 463.1133L69.77932 463.1133L69.77932 463.1133L69.77932 411.3418L69.77932 411.3418L69.029 411.3418z" stroke="none" fill="#DDDDDD" fill-rule="winding" /></g><g clip-path="url(#12)"><path transform="matrix(1 0 0 -1 0 841)" d="M48.77049 367.8242L543.2282 367.8242L543.2282 367.8242L543.2282 165.2383L543.2282 165.2383L48.77049 165.2383z" stroke="none" fill="#F8F8F8" fill-rule="winding" /><path transform="matrix(1 0 0 -1 0 841)" d="M48.77049 367.8242L75.78184 367.8242L75.78184 367.8242L75.78184 108.9648L75.78184 108.9648L48.77049 108.9648z" stroke="none" fill="#F8F8F8" fill-rule="winding" /><path transform="matrix(1 0 0 -1 0 841)" d="M75.03152 367.8242L75.78184 367.8242L75.78184 367.8242L75.78184 108.9648L75.78184 108.9648L75.03152 108.9648z" stroke="none" fill="#DDDDDD" fill-rule="winding" /></g><g clip-path="url(#13)"><path transform="matrix(1 0 0 -1 0 841)" d="M48.77049 110.4668L543.2282 110.4668L543.2282 110.4668L543.2282 -470.2773L543.2282 -470.2773L48.77049 -470.2773z" stroke="none" fill="#F8F8F8" fill-rule="winding" /><path transform="matrix(1 0 0 -1 0 841)" d="M48.77049 110.4668L75.78184 110.4668L75.78184 110.4668L75.78184 -614.3379L75.78184 -614.3379L48.77049 -614.3379z" stroke="none" fill="#F8F8F8" fill-rule="winding" /><path transform="matrix(1 0 0 -1 0 841)" d="M75.03152 110.4668L75.78184 110.4668L75.78184 110.4668L75.78184 -614.3379L75.78184 -614.3379L75.03152 -614.3379z" stroke="none" fill="#DDDDDD" fill-rule="winding" /></g><g transform="matrix(0.2399193 0 0 0.2399322 0 -14.78003)"><g transform="matrix(1 0 0 1 0 0)"><image x="0" y="0" xlink:href="img_02.png" width="2480" height="295" /></g></g><g transform="matrix(0.4798387 0 0 0.4798876 0 798.29)"><g transform="matrix(1 0 0 1 0 0)"><image x="0" y="0" xlink:href="img_03.png" width="1240" height="89" /></g></g></g></g></g></svg>