<svg xmlns="http://www.w3.org/2000/svg" xmlns:xlink="http://www.w3.org/1999/xlink" id="body_27" preserveAspectRatio="xMinYMin meet" viewBox="0 0 793 1121"><defs><clipPath id="1"><path d="M0 841L0 0L0 0L595 0L595 0L595 841L595 841L0 841z" /></clipPath><clipPath id="2"><path d="M0 56L595 56L595 56L595 784.5566L595 784.5566L0 784.5566z" /></clipPath><clipPath id="3"><path d="M48.77049 62.75195L543.2282 62.75195L543.2282 62.75195L543.2282 157.293L543.2282 157.293L48.77049 157.293z" /></clipPath><clipPath id="4"><path d="M0 56L595 56L595 56L595 784.5566L595 784.5566L0 784.5566z" /></clipPath><clipPath id="5"><path d="M48.77049 62.75195L543.2282 62.75195L543.2282 62.75195L543.2282 157.293L543.2282 157.293L48.77049 157.293z" /></clipPath></defs><g transform="matrix(1.333333 0 0 1.333333 0 0)"><g><g clip-path="url(#1)"><g clip-path="url(#2)"><path transform="matrix(1 0 0 -1 0 841)" d="M0 19727.46L595 19727.46L595 19727.46L595 -12976.53L595 -12976.53L0 -12976.53z" stroke="none" fill="#FFFFFF" fill-rule="winding" /><path transform="matrix(1 0 0 -1 0 841)" d="M48.39533 680.707L48.39533 782.75C 48.39533 783.2695 48.57846 783.7129 48.94473 784.0781C 49.311 784.4434 49.75313 784.625 50.27112 784.625L50.27112 784.625L544.7289 784.625C 545.2468 784.625 545.6889 784.4434 546.0552 784.0781C 546.4214 783.7129 546.6046 783.2695 546.6047 782.75L546.6047 782.75L546.6047 680.707C 546.6046 680.1895 546.4214 679.748 546.0552 679.3809C 545.6889 679.0156 545.2468 678.832 544.7289 678.8301L544.7289 678.8301L50.27112 678.8301C 49.75313 678.832 49.311 679.0156 48.94473 679.3809C 48.57846 679.748 48.39533 680.1895 48.39533 680.707z" stroke="none" fill="#F8F8F8" fill-rule="winding" /><path transform="matrix(1 0 0 -1 0 841)" d="M48.39533 680.707L48.39533 782.75C 48.39533 783.2695 48.57846 783.7129 48.94473 784.0781C 49.311 784.4434 49.75313 784.625 50.27112 784.625L50.27112 784.625L544.7289 784.625C 545.2468 784.625 545.6889 784.4434 546.0552 784.0781C 546.4214 783.7129 546.6046 783.2695 546.6047 782.75L546.6047 782.75L546.6047 680.707C 546.6046 680.1895 546.4214 679.748 546.0552 679.3809C 545.6889 679.0156 545.2468 678.832 544.7289 678.8301L544.7289 678.8301L50.27112 678.8301C 49.75313 678.832 49.311 679.0156 48.94473 679.3809C 48.57846 679.748 48.39533 680.1895 48.39533 680.707z" stroke="#E7EAED" stroke-width="0.7503152" fill="none" /></g><g clip-path="url(#3)"><path transform="matrix(1 0 0 -1 0 841)" d="M48.77049 778.248L543.2282 778.248L543.2282 778.248L543.2282 683.707L543.2282 683.707L48.77049 683.707z" stroke="none" fill="#F8F8F8" fill-rule="winding" /></g><g clip-path="url(#4)"><g transform="matrix(0.5055315 0 0 0.5059692 48.02018 196.3086)"><g transform="matrix(1 0 0 1 0 0)"><image x="0" y="0" xlink:href="img_54.png" width="987" height="608" /></g></g></g><g clip-path="url(#5)"><path transform="matrix(1 0 0 -1 0 841)" d="M48.77049 778.248L543.2282 778.248L543.2282 778.248L543.2282 683.707L543.2282 683.707L48.77049 683.707z" stroke="none" fill="#F8F8F8" fill-rule="winding" /><path transform="matrix(1 0 0 -1 0 841)" d="M48.77049 778.248L69.77932 778.248L69.77932 778.248L69.77932 657.4473L69.77932 657.4473L48.77049 657.4473z" stroke="none" fill="#F8F8F8" fill-rule="winding" /><path transform="matrix(1 0 0 -1 0 841)" d="M69.029 778.248L69.77932 778.248L69.77932 778.248L69.77932 657.4473L69.77932 657.4473L69.029 657.4473z" stroke="none" fill="#DDDDDD" fill-rule="winding" /></g><g transform="matrix(0.2399193 0 0 0.2399322 0 -14.78003)"><g transform="matrix(1 0 0 1 0 0)"><image x="0" y="0" xlink:href="img_02.png" width="2480" height="295" /></g></g><g transform="matrix(0.4798387 0 0 0.4798876 0 798.29)"><g transform="matrix(1 0 0 1 0 0)"><image x="0" y="0" xlink:href="img_03.png" width="1240" height="89" /></g></g></g></g></g></svg>