<svg xmlns="http://www.w3.org/2000/svg" xmlns:xlink="http://www.w3.org/1999/xlink" id="body_32" preserveAspectRatio="xMinYMin meet" viewBox="0 0 793 1121"><defs><clipPath id="1"><path d="M0 841L0 0L0 0L595 0L595 0L595 841L595 841L0 841z" /></clipPath><clipPath id="2"><path d="M0 56L595 56L595 56L595 784.5547L595 784.5547L0 784.5547z" /></clipPath></defs><g transform="matrix(1.333333 0 0 1.333333 0 0)"><g><g clip-path="url(#1)"><g clip-path="url(#2)"><path transform="matrix(1 0 0 -1 0 841)" d="M0 23370.24L595 23370.24L595 23370.24L595 -9333.75L595 -9333.75L0 -9333.75z" stroke="none" fill="#FFFFFF" fill-rule="winding" /><g transform="matrix(0.3922638 0 0 0.3922102 48.02018 56)"><g transform="matrix(1 0 0 1 0 0)"><image x="0" y="0" xlink:href="img_67.png" width="1272" height="572" /></g></g><g transform="matrix(0.4607199 0 0 0.4623564 48.02018 342.6191)"><g transform="matrix(1 0 0 1 0 0)"><image x="0" y="0" xlink:href="img_68.png" width="1083" height="370" /></g></g><path transform="matrix(1 0 0 -1 0 841)" d="M48.02018 292.7949L546.9798 292.7949L546.9798 292.7949L546.9798 292.043L546.9798 292.043L48.02018 292.043z" stroke="none" fill="#EEEEEE" fill-rule="winding" /><g transform="matrix(0.4275576 0 0 0.428517 48.02018 588.7227)"><g transform="matrix(1 0 0 1 0 0)"><image x="0" y="0" xlink:href="img_69.png" width="1167" height="457" /></g></g></g><g transform="matrix(0.2399193 0 0 0.2399322 0 -14.78003)"><g transform="matrix(1 0 0 1 0 0)"><image x="0" y="0" xlink:href="img_02.png" width="2480" height="295" /></g></g><g transform="matrix(0.4798387 0 0 0.4798876 0 798.29)"><g transform="matrix(1 0 0 1 0 0)"><image x="0" y="0" xlink:href="img_03.png" width="1240" height="89" /></g></g></g></g></g></svg>