<svg xmlns="http://www.w3.org/2000/svg" xmlns:xlink="http://www.w3.org/1999/xlink" id="body_4" preserveAspectRatio="xMinYMin meet" viewBox="0 0 793 1121"><defs><clipPath id="1"><path d="M0 841L0 0L0 0L595 0L595 0L595 841L595 841L0 841z" /></clipPath><clipPath id="2"><path d="M0 56L595 56L595 56L595 784.5562L595 784.5562L0 784.5562z" /></clipPath><clipPath id="3"><path d="M90.019 357.627L92.76043 357.627L92.76043 357.627L92.76043 360.103L92.76043 360.103L90.019 360.103L90.019 360.103L90.019 357.627zM0 784.5562L0 56L0 56L595 56L595 56L595 784.5562L595 784.5562L0 784.5562z" /></clipPath><clipPath id="4"><path d="M0 56L595 56L595 56L595 784.5562L595 784.5562L0 784.5562z" /></clipPath><clipPath id="5"><path d="M48.77049 716.2776L543.2282 716.2776L543.2282 716.2776L543.2282 784.5562L543.2282 784.5562L48.77049 784.5562z" /></clipPath></defs><g transform="matrix(1.333333 0 0 1.333333 0 0)"><g><g clip-path="url(#1)"><g clip-path="url(#2)"><path transform="matrix(1 0 0 -1 0 841)" d="M0 2970.668L595 2970.668L595 2970.668L595 -55006.94L595 -55006.94L0 -55006.94z" stroke="none" fill="#FFFFFF" fill-rule="winding" /><g transform="matrix(0.7503152 0 0 0.7503152 73.53089 56)"><g transform="matrix(1 0 0 1 0 0)"><image x="0" y="0" xlink:href="img_10.png" width="598" height="339" /></g></g></g><g clip-path="url(#3)"><path transform="matrix(1 0 0 -1 0 841)" d="M77.28247 482.6228L306.7852 482.6228L306.7852 482.6228L306.7852 481.8726L306.7852 481.8726L77.28247 481.8726z" stroke="none" fill="#4183C4" fill-rule="winding" /></g><g clip-path="url(#4)"><g transform="matrix(0.7503152 0 0 0.7503152 56.27364 368.8816)"><g transform="matrix(1 0 0 1 0 0)"><image x="0" y="0" xlink:href="img_11.png" width="643" height="373" /></g></g><path transform="matrix(1 0 0 -1 0 841)" d="M48.39533 -581.3242L48.39533 129.2244C 48.39533 129.7424 48.57846 130.1846 48.94473 130.5508C 49.311 130.917 49.75313 131.1001 50.27112 131.1001L50.27112 131.1001L544.7289 131.1001C 545.2468 131.1001 545.6889 130.917 546.0552 130.5508C 546.4214 130.1846 546.6046 129.7424 546.6047 129.2244L546.6047 129.2244L546.6047 -581.3242C 546.6046 -581.8418 546.4214 -582.2839 546.0552 -582.6501C 545.6889 -583.0164 545.2468 -583.1997 544.7289 -583.2L544.7289 -583.2L50.27112 -583.2C 49.75313 -583.1997 49.311 -583.0164 48.94473 -582.6501C 48.57846 -582.2839 48.39533 -581.8418 48.39533 -581.3242z" stroke="none" fill="#F8F8F8" fill-rule="winding" /><path transform="matrix(1 0 0 -1 0 841)" d="M48.39533 -581.3242L48.39533 129.2244C 48.39533 129.7424 48.57846 130.1846 48.94473 130.5508C 49.311 130.917 49.75313 131.1001 50.27112 131.1001L50.27112 131.1001L544.7289 131.1001C 545.2468 131.1001 545.6889 130.917 546.0552 130.5508C 546.4214 130.1846 546.6046 129.7424 546.6047 129.2244L546.6047 129.2244L546.6047 -581.3242C 546.6046 -581.8418 546.4214 -582.2839 546.0552 -582.6501C 545.6889 -583.0164 545.2468 -583.1997 544.7289 -583.2L544.7289 -583.2L50.27112 -583.2C 49.75313 -583.1997 49.311 -583.0164 48.94473 -582.6501C 48.57846 -582.2839 48.39533 -581.8418 48.39533 -581.3242z" stroke="#E7EAED" stroke-width="0.7503152" fill="none" /></g><g clip-path="url(#5)"><path transform="matrix(1 0 0 -1 0 841)" d="M48.77049 124.7224L543.2282 124.7224L543.2282 124.7224L543.2282 -578.323L543.2282 -578.323L48.77049 -578.323z" stroke="none" fill="#F8F8F8" fill-rule="winding" /><path transform="matrix(1 0 0 -1 0 841)" d="M48.77049 124.7224L543.2282 124.7224L543.2282 124.7224L543.2282 -578.323L543.2282 -578.323L48.77049 -578.323z" stroke="none" fill="#F8F8F8" fill-rule="winding" /><path transform="matrix(1 0 0 -1 0 841)" d="M48.77049 124.7224L75.78184 124.7224L75.78184 124.7224L75.78184 -772.6545L75.78184 -772.6545L48.77049 -772.6545z" stroke="none" fill="#F8F8F8" fill-rule="winding" /><path transform="matrix(1 0 0 -1 0 841)" d="M75.03152 124.7224L75.78184 124.7224L75.78184 124.7224L75.78184 -772.6545L75.78184 -772.6545L75.03152 -772.6545z" stroke="none" fill="#DDDDDD" fill-rule="winding" /></g><g transform="matrix(0.2399193 0 0 0.2399322 0 -14.78003)"><g transform="matrix(1 0 0 1 0 0)"><image x="0" y="0" xlink:href="img_02.png" width="2480" height="295" /></g></g><g transform="matrix(0.4798387 0 0 0.4798876 0 798.29)"><g transform="matrix(1 0 0 1 0 0)"><image x="0" y="0" xlink:href="img_03.png" width="1240" height="89" /></g></g></g></g></g></svg>