<svg xmlns="http://www.w3.org/2000/svg" xmlns:xlink="http://www.w3.org/1999/xlink" id="body_57" preserveAspectRatio="xMinYMin meet" viewBox="0 0 793 1121"><defs><clipPath id="1"><path d="M0 841L0 0L0 0L595 0L595 0L595 841L595 841L0 841z" /></clipPath><clipPath id="2"><path d="M0 56L595 56L595 56L595 784.5586L595 784.5586L0 784.5586z" /></clipPath><clipPath id="3"><path d="M48.77049 700.5234L543.2282 700.5234L543.2282 700.5234L543.2282 784.5586L543.2282 784.5586L48.77049 784.5586z" /></clipPath></defs><g transform="matrix(1.333333 0 0 1.333333 0 0)"><g><g clip-path="url(#1)"><g clip-path="url(#2)"><path transform="matrix(1 0 0 -1 0 841)" d="M0 41584.14L595 41584.14L595 41584.14L595 -16393.47L595 -16393.47L0 -16393.47z" stroke="none" fill="#FFFFFF" fill-rule="winding" /><path transform="matrix(1 0 0 -1 0 841)" d="M48.02018 317.5508L51.02144 317.5508L51.02144 317.5508L51.02144 241.7695L51.02144 241.7695L48.02018 241.7695z" stroke="none" fill="#DFE2E5" fill-rule="winding" /><g transform="matrix(0.7391995 0 0 0.7394586 48.02018 56)"><g transform="matrix(1 0 0 1 0 0)"><image x="0" y="0" xlink:href="img_105.png" width="675" height="622" /></g></g><path transform="matrix(1 0 0 -1 0 841)" d="M48.39533 -284.1992L48.39533 144.9805C 48.39533 145.5 48.57846 145.9453 48.94473 146.3086C 49.311 146.6719 49.75313 146.8555 50.27112 146.8555L50.27112 146.8555L544.7289 146.8555C 545.2468 146.8555 545.6889 146.6719 546.0552 146.3086C 546.4214 145.9453 546.6046 145.5 546.6047 144.9805L546.6047 144.9805L546.6047 -284.1992C 546.6046 -284.7148 546.4214 -285.1563 546.0552 -285.5234C 545.6889 -285.8906 545.2468 -286.0742 544.7289 -286.0781L544.7289 -286.0781L50.27112 -286.0781C 49.75313 -286.0742 49.311 -285.8906 48.94473 -285.5234C 48.57846 -285.1563 48.39533 -284.7148 48.39533 -284.1992z" stroke="none" fill="#F8F8F8" fill-rule="winding" /><path transform="matrix(1 0 0 -1 0 841)" d="M48.39533 -284.1992L48.39533 144.9805C 48.39533 145.5 48.57846 145.9453 48.94473 146.3086C 49.311 146.6719 49.75313 146.8555 50.27112 146.8555L50.27112 146.8555L544.7289 146.8555C 545.2468 146.8555 545.6889 146.6719 546.0552 146.3086C 546.4214 145.9453 546.6046 145.5 546.6047 144.9805L546.6047 144.9805L546.6047 -284.1992C 546.6046 -284.7148 546.4214 -285.1563 546.0552 -285.5234C 545.6889 -285.8906 545.2468 -286.0742 544.7289 -286.0781L544.7289 -286.0781L50.27112 -286.0781C 49.75313 -286.0742 49.311 -285.8906 48.94473 -285.5234C 48.57846 -285.1563 48.39533 -284.7148 48.39533 -284.1992z" stroke="#E7EAED" stroke-width="0.7503152" fill="none" /></g><g clip-path="url(#3)"><path transform="matrix(1 0 0 -1 0 841)" d="M48.77049 140.4766L543.2282 140.4766L543.2282 140.4766L543.2282 -281.1992L543.2282 -281.1992L48.77049 -281.1992z" stroke="none" fill="#F8F8F8" fill-rule="winding" /><path transform="matrix(1 0 0 -1 0 841)" d="M48.77049 140.4766L543.2282 140.4766L543.2282 140.4766L543.2282 -281.1992L543.2282 -281.1992L48.77049 -281.1992z" stroke="none" fill="#F8F8F8" fill-rule="winding" /><path transform="matrix(1 0 0 -1 0 841)" d="M48.77049 140.4766L75.78184 140.4766L75.78184 140.4766L75.78184 -394.4961L75.78184 -394.4961L48.77049 -394.4961z" stroke="none" fill="#F8F8F8" fill-rule="winding" /><path transform="matrix(1 0 0 -1 0 841)" d="M75.03152 140.4766L75.78184 140.4766L75.78184 140.4766L75.78184 -394.4961L75.78184 -394.4961L75.03152 -394.4961z" stroke="none" fill="#DDDDDD" fill-rule="winding" /></g><g transform="matrix(0.2399193 0 0 0.2399322 0 -14.78003)"><g transform="matrix(1 0 0 1 0 0)"><image x="0" y="0" xlink:href="img_02.png" width="2480" height="295" /></g></g><g transform="matrix(0.4798387 0 0 0.4798876 0 798.29)"><g transform="matrix(1 0 0 1 0 0)"><image x="0" y="0" xlink:href="img_03.png" width="1240" height="89" /></g></g></g></g></g></svg>