<svg xmlns="http://www.w3.org/2000/svg" xmlns:xlink="http://www.w3.org/1999/xlink" id="body_33" preserveAspectRatio="xMinYMin meet" viewBox="0 0 793 1121"><defs><clipPath id="1"><path d="M0 841L0 0L0 0L595 0L595 0L595 841L595 841L0 841z" /></clipPath><clipPath id="2"><path d="M0 56L595 56L595 56L595 784.5566L595 784.5566L0 784.5566z" /></clipPath><clipPath id="3"><path d="M48.77049 62.75391L543.2282 62.75391L543.2282 62.75391L543.2282 103.2695L543.2282 103.2695L48.77049 103.2695z" /></clipPath><clipPath id="4"><path d="M0 56L595 56L595 56L595 784.5566L595 784.5566L0 784.5566z" /></clipPath><clipPath id="5"><path d="M48.77049 167.7969L543.2282 167.7969L543.2282 167.7969L543.2282 181.3027L543.2282 181.3027L48.77049 181.3027z" /></clipPath><clipPath id="6"><path d="M0 56L595 56L595 56L595 784.5566L595 784.5566L0 784.5566z" /></clipPath><clipPath id="7"><path d="M48.77049 62.75391L543.2282 62.75391L543.2282 62.75391L543.2282 103.2695L543.2282 103.2695L48.77049 103.2695z" /></clipPath><clipPath id="8"><path d="M48.77049 167.7969L543.2282 167.7969L543.2282 167.7969L543.2282 181.3027L543.2282 181.3027L48.77049 181.3027z" /></clipPath></defs><g transform="matrix(1.333333 0 0 1.333333 0 0)"><g><g clip-path="url(#1)"><g clip-path="url(#2)"><path transform="matrix(1 0 0 -1 0 841)" d="M0 24098.79L595 24098.79L595 24098.79L595 -33878.81L595 -33878.81L0 -33878.81z" stroke="none" fill="#FFFFFF" fill-rule="winding" /><path transform="matrix(1 0 0 -1 0 841)" d="M48.02018 721.2227L51.02144 721.2227L51.02144 721.2227L51.02144 691.2109L51.02144 691.2109L48.02018 691.2109z" stroke="none" fill="#DFE2E5" fill-rule="winding" /><path transform="matrix(1 0 0 -1 0 841)" d="M48.02018 166.7402L51.02144 166.7402L51.02144 166.7402L51.02144 26.43164L51.02144 26.43164L48.02018 26.43164z" stroke="none" fill="#DFE2E5" fill-rule="winding" /><path transform="matrix(1 0 0 -1 0 841)" d="M48.39533 734.7285L48.39533 782.748C 48.39533 783.2695 48.57846 783.7109 48.94473 784.0762C 49.311 784.4414 49.75313 784.625 50.27112 784.625L50.27112 784.625L544.7289 784.625C 545.2468 784.625 545.6889 784.4414 546.0552 784.0762C 546.4214 783.7109 546.6046 783.2695 546.6047 782.748L546.6047 782.748L546.6047 734.7285C 546.6046 734.2109 546.4214 733.7676 546.0552 733.4023C 545.6889 733.0371 545.2468 732.8535 544.7289 732.8535L544.7289 732.8535L50.27112 732.8535C 49.75313 732.8535 49.311 733.0371 48.94473 733.4023C 48.57846 733.7676 48.39533 734.2109 48.39533 734.7285z" stroke="none" fill="#F8F8F8" fill-rule="winding" /><path transform="matrix(1 0 0 -1 0 841)" d="M48.39533 734.7285L48.39533 782.748C 48.39533 783.2695 48.57846 783.7109 48.94473 784.0762C 49.311 784.4414 49.75313 784.625 50.27112 784.625L50.27112 784.625L544.7289 784.625C 545.2468 784.625 545.6889 784.4414 546.0552 784.0762C 546.4214 783.7109 546.6046 783.2695 546.6047 782.748L546.6047 782.748L546.6047 734.7285C 546.6046 734.2109 546.4214 733.7676 546.0552 733.4023C 545.6889 733.0371 545.2468 732.8535 544.7289 732.8535L544.7289 732.8535L50.27112 732.8535C 49.75313 732.8535 49.311 733.0371 48.94473 733.4023C 48.57846 733.7676 48.39533 734.2109 48.39533 734.7285z" stroke="#E7EAED" stroke-width="0.7503152" fill="none" /></g><g clip-path="url(#3)"><path transform="matrix(1 0 0 -1 0 841)" d="M48.77049 778.2461L543.2282 778.2461L543.2282 778.2461L543.2282 737.7305L543.2282 737.7305L48.77049 737.7305z" stroke="none" fill="#F8F8F8" fill-rule="winding" /></g><g clip-path="url(#4)"><path transform="matrix(1 0 0 -1 0 841)" d="M48.39533 656.6953L48.39533 677.7051C 48.39533 678.2227 48.57846 678.666 48.94473 679.0313C 49.311 679.3965 49.75313 679.5801 50.27112 679.5801L50.27112 679.5801L544.7289 679.5801C 545.2468 679.5801 545.6889 679.3965 546.0552 679.0313C 546.4214 678.666 546.6046 678.2227 546.6047 677.7051L546.6047 677.7051L546.6047 656.6953C 546.6046 656.1777 546.4214 655.7363 546.0552 655.3691C 545.6889 655.0039 545.2468 654.8203 544.7289 654.8203L544.7289 654.8203L50.27112 654.8203C 49.75313 654.8203 49.311 655.0039 48.94473 655.3691C 48.57846 655.7363 48.39533 656.1777 48.39533 656.6953z" stroke="none" fill="#F8F8F8" fill-rule="winding" /><path transform="matrix(1 0 0 -1 0 841)" d="M48.39533 656.6953L48.39533 677.7051C 48.39533 678.2227 48.57846 678.666 48.94473 679.0313C 49.311 679.3965 49.75313 679.5801 50.27112 679.5801L50.27112 679.5801L544.7289 679.5801C 545.2468 679.5801 545.6889 679.3965 546.0552 679.0313C 546.4214 678.666 546.6046 678.2227 546.6047 677.7051L546.6047 677.7051L546.6047 656.6953C 546.6046 656.1777 546.4214 655.7363 546.0552 655.3691C 545.6889 655.0039 545.2468 654.8203 544.7289 654.8203L544.7289 654.8203L50.27112 654.8203C 49.75313 654.8203 49.311 655.0039 48.94473 655.3691C 48.57846 655.7363 48.39533 656.1777 48.39533 656.6953z" stroke="#E7EAED" stroke-width="0.7503152" fill="none" /></g><g clip-path="url(#5)"><path transform="matrix(1 0 0 -1 0 841)" d="M48.77049 673.2031L543.2282 673.2031L543.2282 673.2031L543.2282 659.6973L543.2282 659.6973L48.77049 659.6973z" stroke="none" fill="#F8F8F8" fill-rule="winding" /></g><g clip-path="url(#6)"><g transform="matrix(0.7503152 0 0 0.7503152 180.826 197.8105)"><g transform="matrix(1 0 0 1 0 0)"><image x="0" y="0" xlink:href="img_68.png" width="311" height="594" /></g></g></g><g clip-path="url(#7)"><path transform="matrix(1 0 0 -1 0 841)" d="M48.77049 778.2461L543.2282 778.2461L543.2282 778.2461L543.2282 737.7305L543.2282 737.7305L48.77049 737.7305z" stroke="none" fill="#F8F8F8" fill-rule="winding" /><path transform="matrix(1 0 0 -1 0 841)" d="M48.77049 778.2461L69.77932 778.2461L69.77932 778.2461L69.77932 726.4746L69.77932 726.4746L48.77049 726.4746z" stroke="none" fill="#F8F8F8" fill-rule="winding" /><path transform="matrix(1 0 0 -1 0 841)" d="M69.029 778.2461L69.77932 778.2461L69.77932 778.2461L69.77932 726.4746L69.77932 726.4746L69.029 726.4746z" stroke="none" fill="#DDDDDD" fill-rule="winding" /></g><g clip-path="url(#8)"><path transform="matrix(1 0 0 -1 0 841)" d="M48.77049 673.2031L543.2282 673.2031L543.2282 673.2031L543.2282 659.6973L543.2282 659.6973L48.77049 659.6973z" stroke="none" fill="#F8F8F8" fill-rule="winding" /><path transform="matrix(1 0 0 -1 0 841)" d="M48.77049 673.2031L69.77932 673.2031L69.77932 673.2031L69.77932 650.6934L69.77932 650.6934L48.77049 650.6934z" stroke="none" fill="#F8F8F8" fill-rule="winding" /><path transform="matrix(1 0 0 -1 0 841)" d="M69.029 673.2031L69.77932 673.2031L69.77932 673.2031L69.77932 650.6934L69.77932 650.6934L69.029 650.6934z" stroke="none" fill="#DDDDDD" fill-rule="winding" /></g><g transform="matrix(0.2399193 0 0 0.2399322 0 -14.78003)"><g transform="matrix(1 0 0 1 0 0)"><image x="0" y="0" xlink:href="img_02.png" width="2480" height="295" /></g></g><g transform="matrix(0.4798387 0 0 0.4798876 0 798.29)"><g transform="matrix(1 0 0 1 0 0)"><image x="0" y="0" xlink:href="img_03.png" width="1240" height="89" /></g></g></g></g></g></svg>