<svg xmlns="http://www.w3.org/2000/svg" xmlns:xlink="http://www.w3.org/1999/xlink" id="body_22" preserveAspectRatio="xMinYMin meet" viewBox="0 0 793 1121"><defs><clipPath id="1"><path d="M0 841L0 0L0 0L595 0L595 0L595 841L595 841L0 841z" /></clipPath><clipPath id="2"><path d="M0 56L595 56L595 56L595 784.5557L595 784.5557L0 784.5557z" /></clipPath><clipPath id="3"><path d="M48.77049 89.01367L543.2282 89.01367L543.2282 89.01367L543.2282 237.5762L543.2282 237.5762L48.77049 237.5762z" /></clipPath><clipPath id="4"><path d="M0 56L595 56L595 56L595 784.5557L595 784.5557L0 784.5557z" /></clipPath><clipPath id="5"><path d="M48.77049 702.0205L543.2282 702.0205L543.2282 702.0205L543.2282 784.5557L543.2282 784.5557L48.77049 784.5557z" /></clipPath><clipPath id="6"><path d="M48.77049 89.01367L543.2282 89.01367L543.2282 89.01367L543.2282 237.5762L543.2282 237.5762L48.77049 237.5762z" /></clipPath><clipPath id="7"><path d="M48.77049 702.0205L543.2282 702.0205L543.2282 702.0205L543.2282 784.5557L543.2282 784.5557L48.77049 784.5557z" /></clipPath></defs><g transform="matrix(1.333333 0 0 1.333333 0 0)"><g><g clip-path="url(#1)"><g clip-path="url(#2)"><path transform="matrix(1 0 0 -1 0 841)" d="M0 16084.68L595 16084.68L595 16084.68L595 -41892.93L595 -41892.93L0 -41892.93z" stroke="none" fill="#FFFFFF" fill-rule="winding" /><path transform="matrix(1 0 0 -1 0 841)" d="M48.39533 600.4229L48.39533 756.4883C 48.39533 757.0059 48.57846 757.4482 48.94473 757.8145C 49.311 758.1807 49.75313 758.3643 50.27112 758.3643L50.27112 758.3643L544.7289 758.3643C 545.2468 758.3643 545.6889 758.1807 546.0552 757.8145C 546.4214 757.4482 546.6046 757.0059 546.6047 756.4883L546.6047 756.4883L546.6047 600.4229C 546.6046 599.9053 546.4214 599.4648 546.0552 599.0977C 545.6889 598.7314 545.2468 598.5488 544.7289 598.5469L544.7289 598.5469L50.27112 598.5469C 49.75313 598.5488 49.311 598.7314 48.94473 599.0977C 48.57846 599.4648 48.39533 599.9053 48.39533 600.4229z" stroke="none" fill="#F8F8F8" fill-rule="winding" /><path transform="matrix(1 0 0 -1 0 841)" d="M48.39533 600.4229L48.39533 756.4883C 48.39533 757.0059 48.57846 757.4482 48.94473 757.8145C 49.311 758.1807 49.75313 758.3643 50.27112 758.3643L50.27112 758.3643L544.7289 758.3643C 545.2468 758.3643 545.6889 758.1807 546.0552 757.8145C 546.4214 757.4482 546.6046 757.0059 546.6047 756.4883L546.6047 756.4883L546.6047 600.4229C 546.6046 599.9053 546.4214 599.4648 546.0552 599.0977C 545.6889 598.7314 545.2468 598.5488 544.7289 598.5469L544.7289 598.5469L50.27112 598.5469C 49.75313 598.5488 49.311 598.7314 48.94473 599.0977C 48.57846 599.4648 48.39533 599.9053 48.39533 600.4229z" stroke="#E7EAED" stroke-width="0.7503152" fill="none" /></g><g clip-path="url(#3)"><path transform="matrix(1 0 0 -1 0 841)" d="M48.77049 751.9863L543.2282 751.9863L543.2282 751.9863L543.2282 603.4238L543.2282 603.4238L48.77049 603.4238z" stroke="none" fill="#F8F8F8" fill-rule="winding" /></g><g clip-path="url(#4)"><g transform="matrix(0.7503152 0 0 0.7503152 124.5523 276.5918)"><g transform="matrix(1 0 0 1 0 0)"><image x="0" y="0" xlink:href="img_47.png" width="462" height="391" /></g></g><path transform="matrix(1 0 0 -1 0 841)" d="M48.02018 212.5098L546.9798 212.5098L546.9798 212.5098L546.9798 211.7598L546.9798 211.7598L48.02018 211.7598z" stroke="none" fill="#EEEEEE" fill-rule="winding" /><path transform="matrix(1 0 0 -1 0 841)" d="M48.39533 -81.61328L48.39533 143.4805C 48.39533 144 48.57846 144.4424 48.94473 144.8086C 49.311 145.1738 49.75313 145.3564 50.27112 145.3564L50.27112 145.3564L544.7289 145.3564C 545.2468 145.3564 545.6889 145.1738 546.0552 144.8086C 546.4214 144.4424 546.6046 144 546.6047 143.4805L546.6047 143.4805L546.6047 -81.61328C 546.6046 -82.13086 546.4214 -82.57227 546.0552 -82.93848C 545.6889 -83.30469 545.2468 -83.48828 544.7289 -83.48828L544.7289 -83.48828L50.27112 -83.48828C 49.75313 -83.48828 49.311 -83.30469 48.94473 -82.93848C 48.57846 -82.57227 48.39533 -82.13086 48.39533 -81.61328z" stroke="none" fill="#F8F8F8" fill-rule="winding" /><path transform="matrix(1 0 0 -1 0 841)" d="M48.39533 -81.61328L48.39533 143.4805C 48.39533 144 48.57846 144.4424 48.94473 144.8086C 49.311 145.1738 49.75313 145.3564 50.27112 145.3564L50.27112 145.3564L544.7289 145.3564C 545.2468 145.3564 545.6889 145.1738 546.0552 144.8086C 546.4214 144.4424 546.6046 144 546.6047 143.4805L546.6047 143.4805L546.6047 -81.61328C 546.6046 -82.13086 546.4214 -82.57227 546.0552 -82.93848C 545.6889 -83.30469 545.2468 -83.48828 544.7289 -83.48828L544.7289 -83.48828L50.27112 -83.48828C 49.75313 -83.48828 49.311 -83.30469 48.94473 -82.93848C 48.57846 -82.57227 48.39533 -82.13086 48.39533 -81.61328z" stroke="#E7EAED" stroke-width="0.7503152" fill="none" /></g><g clip-path="url(#5)"><path transform="matrix(1 0 0 -1 0 841)" d="M48.77049 138.9795L543.2282 138.9795L543.2282 138.9795L543.2282 -78.6123L543.2282 -78.6123L48.77049 -78.6123z" stroke="none" fill="#F8F8F8" fill-rule="winding" /></g><g clip-path="url(#6)"><path transform="matrix(1 0 0 -1 0 841)" d="M48.77049 751.9863L543.2282 751.9863L543.2282 751.9863L543.2282 603.4238L543.2282 603.4238L48.77049 603.4238z" stroke="none" fill="#F8F8F8" fill-rule="winding" /><path transform="matrix(1 0 0 -1 0 841)" d="M48.77049 751.9863L75.78184 751.9863L75.78184 751.9863L75.78184 562.1572L75.78184 562.1572L48.77049 562.1572z" stroke="none" fill="#F8F8F8" fill-rule="winding" /><path transform="matrix(1 0 0 -1 0 841)" d="M75.03152 751.9863L75.78184 751.9863L75.78184 751.9863L75.78184 562.1572L75.78184 562.1572L75.03152 562.1572z" stroke="none" fill="#DDDDDD" fill-rule="winding" /></g><g clip-path="url(#7)"><path transform="matrix(1 0 0 -1 0 841)" d="M48.77049 138.9795L543.2282 138.9795L543.2282 138.9795L543.2282 -78.6123L543.2282 -78.6123L48.77049 -78.6123z" stroke="none" fill="#F8F8F8" fill-rule="winding" /><path transform="matrix(1 0 0 -1 0 841)" d="M48.77049 138.9795L75.78184 138.9795L75.78184 138.9795L75.78184 -137.1367L75.78184 -137.1367L48.77049 -137.1367z" stroke="none" fill="#F8F8F8" fill-rule="winding" /><path transform="matrix(1 0 0 -1 0 841)" d="M75.03152 138.9795L75.78184 138.9795L75.78184 138.9795L75.78184 -137.1367L75.78184 -137.1367L75.03152 -137.1367z" stroke="none" fill="#DDDDDD" fill-rule="winding" /></g><g transform="matrix(0.2399193 0 0 0.2399322 0 -14.78003)"><g transform="matrix(1 0 0 1 0 0)"><image x="0" y="0" xlink:href="img_02.png" width="2480" height="295" /></g></g><g transform="matrix(0.4798387 0 0 0.4798876 0 798.29)"><g transform="matrix(1 0 0 1 0 0)"><image x="0" y="0" xlink:href="img_03.png" width="1240" height="89" /></g></g></g></g></g></svg>