<svg xmlns="http://www.w3.org/2000/svg" xmlns:xlink="http://www.w3.org/1999/xlink" id="body_51" preserveAspectRatio="xMinYMin meet" viewBox="0 0 793 1121"><defs><clipPath id="1"><path d="M0 841L0 0L0 0L595 0L595 0L595 841L595 841L0 841z" /></clipPath><clipPath id="2"><path d="M0 56L595 56L595 56L595 784.5586L595 784.5586L0 784.5586z" /></clipPath><clipPath id="3"><path d="M48.77049 56L543.2282 56L543.2282 56L543.2282 596.2266L543.2282 596.2266L48.77049 596.2266z" /></clipPath><clipPath id="4"><path d="M0 56L595 56L595 56L595 784.5586L595 784.5586L0 784.5586z" /></clipPath><clipPath id="5"><path d="M48.77049 56L543.2282 56L543.2282 56L543.2282 596.2266L543.2282 596.2266L48.77049 596.2266z" /></clipPath></defs><g transform="matrix(1.333333 0 0 1.333333 0 0)"><g><g clip-path="url(#1)"><g clip-path="url(#2)"><path transform="matrix(1 0 0 -1 0 841)" d="M0 37212.8L595 37212.8L595 37212.8L595 -20764.8L595 -20764.8L0 -20764.8z" stroke="none" fill="#FFFFFF" fill-rule="winding" /><path transform="matrix(1 0 0 -1 0 841)" d="M48.39533 241.7695L48.39533 927.5586C 48.39533 928.0781 48.57846 928.5234 48.94473 928.8906C 49.311 929.2539 49.75313 929.4336 50.27112 929.4336L50.27112 929.4336L544.7289 929.4336C 545.2468 929.4336 545.6889 929.2539 546.0552 928.8906C 546.4214 928.5234 546.6046 928.0781 546.6047 927.5586L546.6047 927.5586L546.6047 241.7695C 546.6046 241.2539 546.4214 240.8125 546.0552 240.4453C 545.6889 240.0781 545.2468 239.8945 544.7289 239.8945L544.7289 239.8945L50.27112 239.8945C 49.75313 239.8945 49.311 240.0781 48.94473 240.4453C 48.57846 240.8125 48.39533 241.2539 48.39533 241.7695z" stroke="none" fill="#F8F8F8" fill-rule="winding" /><path transform="matrix(1 0 0 -1 0 841)" d="M48.39533 241.7695L48.39533 927.5586C 48.39533 928.0781 48.57846 928.5234 48.94473 928.8906C 49.311 929.2539 49.75313 929.4336 50.27112 929.4336L50.27112 929.4336L544.7289 929.4336C 545.2468 929.4336 545.6889 929.2539 546.0552 928.8906C 546.4214 928.5234 546.6046 928.0781 546.6047 927.5586L546.6047 927.5586L546.6047 241.7695C 546.6046 241.2539 546.4214 240.8125 546.0552 240.4453C 545.6889 240.0781 545.2468 239.8945 544.7289 239.8945L544.7289 239.8945L50.27112 239.8945C 49.75313 239.8945 49.311 240.0781 48.94473 240.4453C 48.57846 240.8125 48.39533 241.2539 48.39533 241.7695z" stroke="#E7EAED" stroke-width="0.7503152" fill="none" /></g><g clip-path="url(#3)"><path transform="matrix(1 0 0 -1 0 841)" d="M48.77049 923.0586L543.2282 923.0586L543.2282 923.0586L543.2282 244.7734L543.2282 244.7734L48.77049 244.7734z" stroke="none" fill="#F8F8F8" fill-rule="winding" /></g><g clip-path="url(#4)"></g><g clip-path="url(#5)"><path transform="matrix(1 0 0 -1 0 841)" d="M48.77049 923.0586L543.2282 923.0586L543.2282 923.0586L543.2282 244.7734L543.2282 244.7734L48.77049 244.7734z" stroke="none" fill="#F8F8F8" fill-rule="winding" /><path transform="matrix(1 0 0 -1 0 841)" d="M48.77049 923.0586L75.78184 923.0586L75.78184 923.0586L75.78184 60.19531L75.78184 60.19531L48.77049 60.19531z" stroke="none" fill="#F8F8F8" fill-rule="winding" /><path transform="matrix(1 0 0 -1 0 841)" d="M75.03152 923.0586L75.78184 923.0586L75.78184 923.0586L75.78184 60.19531L75.78184 60.19531L75.03152 60.19531z" stroke="none" fill="#DDDDDD" fill-rule="winding" /></g><g transform="matrix(0.2399193 0 0 0.2399322 0 -14.78003)"><g transform="matrix(1 0 0 1 0 0)"><image x="0" y="0" xlink:href="img_02.png" width="2480" height="295" /></g></g><g transform="matrix(0.4798387 0 0 0.4798876 0 798.29)"><g transform="matrix(1 0 0 1 0 0)"><image x="0" y="0" xlink:href="img_03.png" width="1240" height="89" /></g></g></g></g></g></svg>