<svg xmlns="http://www.w3.org/2000/svg" xmlns:xlink="http://www.w3.org/1999/xlink" id="body_47" preserveAspectRatio="xMinYMin meet" viewBox="0 0 793 1121"><defs><clipPath id="1"><path d="M0 841L0 0L0 0L595 0L595 0L595 841L595 841L0 841z" /></clipPath><clipPath id="2"><path d="M0 56L595 56L595 56L595 784.5547L595 784.5547L0 784.5547z" /></clipPath><clipPath id="3"><path d="M395.324 758.293L399.851 758.293L399.851 758.293L399.851 760.7695L399.851 760.7695L395.324 760.7695L395.324 760.7695L395.324 758.293zM235.0558 758.293L228.247 758.293L228.247 758.293L228.247 760.7695L228.247 760.7695L235.0558 760.7695L235.0558 760.7695L235.0558 758.293zM208.5102 758.293L211.2516 758.293L211.2516 758.293L211.2516 760.7695L211.2516 760.7695L208.5102 760.7695L208.5102 760.7695L208.5102 758.293zM0 784.5547L0 56L0 56L595 56L595 56L595 784.5547L595 784.5547L0 784.5547z" /></clipPath><clipPath id="4"><path d="M0 56L595 56L595 56L595 784.5547L595 784.5547L0 784.5547z" /></clipPath></defs><g transform="matrix(1.333333 0 0 1.333333 0 0)"><g><g clip-path="url(#1)"><g clip-path="url(#2)"><path transform="matrix(1 0 0 -1 0 841)" d="M0 34298.58L595 34298.58L595 34298.58L595 -23679.03L595 -23679.03L0 -23679.03z" stroke="none" fill="#FFFFFF" fill-rule="winding" /><path transform="matrix(1 0 0 -1 0 841)" d="M48.02018 214.7617L51.02144 214.7617L51.02144 214.7617L51.02144 102.2148L51.02144 102.2148L48.02018 102.2148z" stroke="none" fill="#DFE2E5" fill-rule="winding" /><g transform="matrix(0.7503152 0 0 0.7503153 182.3266 56)"><g transform="matrix(1 0 0 1 0 0)"><image x="0" y="0" xlink:href="img_92.png" width="308" height="535" /></g></g></g><g clip-path="url(#3)"><path transform="matrix(1 0 0 -1 0 841)" d="M195.7737 81.95703L423.635 81.95703L423.635 81.95703L423.635 81.20703L423.635 81.20703L195.7737 81.20703z" stroke="none" fill="#4183C4" fill-rule="winding" /></g><g clip-path="url(#4)"></g><g transform="matrix(0.2399193 0 0 0.2399322 0 -14.78003)"><g transform="matrix(1 0 0 1 0 0)"><image x="0" y="0" xlink:href="img_02.png" width="2480" height="295" /></g></g><g transform="matrix(0.4798387 0 0 0.4798876 0 798.29)"><g transform="matrix(1 0 0 1 0 0)"><image x="0" y="0" xlink:href="img_03.png" width="1240" height="89" /></g></g></g></g></g></svg>