<svg xmlns="http://www.w3.org/2000/svg" xmlns:xlink="http://www.w3.org/1999/xlink" id="body_8" preserveAspectRatio="xMinYMin meet" viewBox="0 0 793 1121"><defs><clipPath id="1"><path d="M0 841L0 0L0 0L595 0L595 0L595 841L595 841L0 841z" /></clipPath><clipPath id="2"><path d="M0 56L595 56L595 56L595 784.5562L595 784.5562L0 784.5562z" /></clipPath><clipPath id="3"><path d="M48.77049 473.9258L543.2282 473.9258L543.2282 473.9258L543.2282 690.0166L543.2282 690.0166L48.77049 690.0166z" /></clipPath></defs><g transform="matrix(1.333333 0 0 1.333333 0 0)"><g><g clip-path="url(#1)"><g clip-path="url(#2)"><path transform="matrix(1 0 0 -1 0 841)" d="M0 5884.893L595 5884.893L595 5884.893L595 -52092.72L595 -52092.72L0 -52092.72z" stroke="none" fill="#FFFFFF" fill-rule="winding" /><path transform="matrix(1 0 0 -1 0 841)" d="M48.02018 702.4653L51.02144 702.4653L51.02144 702.4653L51.02144 687.459L51.02144 687.459L48.02018 687.459z" stroke="none" fill="#DFE2E5" fill-rule="winding" /><path transform="matrix(1 0 0 -1 0 841)" d="M48.02018 641.6895L51.02144 641.6895L51.02144 641.6895L51.02144 626.6831L51.02144 626.6831L48.02018 626.6831z" stroke="none" fill="#DFE2E5" fill-rule="winding" /><path transform="matrix(1 0 0 -1 0 841)" d="M62.27617 777.1216C 62.27617 776.604 62.09303 776.1621 61.72676 775.7954C 61.36049 775.4297 60.91836 775.2461 60.40038 775.2461C 59.88239 775.2461 59.44026 775.4297 59.07399 775.7954C 58.70772 776.1621 58.52458 776.604 58.52459 777.1216C 58.52458 777.6401 58.70772 778.082 59.07399 778.4487C 59.44026 778.8145 59.88239 778.9971 60.40038 778.9971C 60.91836 778.9971 61.36049 778.8145 61.72676 778.4487C 62.09303 778.082 62.27617 777.6401 62.27617 777.1216z" stroke="none" fill="#333333" fill-rule="winding" /><path transform="matrix(1 0 0 -1 0 841)" d="M62.27617 747.1089C 62.27617 746.5913 62.09303 746.1489 61.72676 745.7827C 61.36049 745.4165 60.91836 745.2334 60.40038 745.2329C 59.88239 745.2334 59.44026 745.4165 59.07399 745.7827C 58.70772 746.1489 58.52458 746.5913 58.52459 747.1089C 58.52458 747.627 58.70772 748.0693 59.07399 748.4355C 59.44026 748.8018 59.88239 748.9849 60.40038 748.9849C 60.91836 748.9849 61.36049 748.8018 61.72676 748.4355C 62.09303 748.0693 62.27617 747.627 62.27617 747.1089z" stroke="none" fill="#333333" fill-rule="winding" /><path transform="matrix(1 0 0 -1 0 841)" d="M62.27617 732.1025C 62.27617 731.5845 62.09303 731.1426 61.72676 730.7764C 61.36049 730.4102 60.91836 730.2271 60.40038 730.2271C 59.88239 730.2271 59.44026 730.4102 59.07399 730.7764C 58.70772 731.1426 58.52458 731.5845 58.52459 732.1025C 58.52458 732.6211 58.70772 733.063 59.07399 733.4292C 59.44026 733.7954 59.88239 733.9785 60.40038 733.9785C 60.91836 733.9785 61.36049 733.7954 61.72676 733.4292C 62.09303 733.063 62.27617 732.6211 62.27617 732.1025z" stroke="none" fill="#333333" fill-rule="winding" /><path transform="matrix(1 0 0 -1 0 841)" d="M62.27617 671.3271C 62.27617 670.8096 62.09303 670.3672 61.72676 670.001C 61.36049 669.6343 60.91836 669.4512 60.40038 669.4512C 59.88239 669.4512 59.44026 669.6343 59.07399 670.001C 58.70772 670.3672 58.52458 670.8096 58.52459 671.3271C 58.52458 671.8457 58.70772 672.2876 59.07399 672.6538C 59.44026 673.02 59.88239 673.2026 60.40038 673.2026C 60.91836 673.2026 61.36049 673.02 61.72676 672.6538C 62.09303 672.2876 62.27617 671.8457 62.27617 671.3271z" stroke="none" fill="#333333" fill-rule="winding" /><path transform="matrix(1 0 0 -1 0 841)" d="M62.27617 610.5518C 62.27617 610.0337 62.09303 609.5918 61.72676 609.2251C 61.36049 608.8594 60.91836 608.6763 60.40038 608.6758C 59.88239 608.6763 59.44026 608.8594 59.07399 609.2251C 58.70772 609.5918 58.52458 610.0337 58.52459 610.5518C 58.52458 611.0693 58.70772 611.5117 59.07399 611.8779C 59.44026 612.2441 59.88239 612.4272 60.40038 612.4272C 60.91836 612.4272 61.36049 612.2441 61.72676 611.8779C 62.09303 611.5117 62.27617 611.0693 62.27617 610.5518z" stroke="none" fill="#333333" fill-rule="winding" /><path transform="matrix(1 0 0 -1 0 841)" d="M62.27617 580.5391C 62.27617 580.0215 62.09303 579.5791 61.72676 579.2129C 61.36049 578.8467 60.91836 578.6636 60.40038 578.6636C 59.88239 578.6636 59.44026 578.8467 59.07399 579.2129C 58.70772 579.5791 58.52458 580.0215 58.52459 580.5391C 58.52458 581.0571 58.70772 581.4995 59.07399 581.8657C 59.44026 582.2319 59.88239 582.4146 60.40038 582.4146C 60.91836 582.4146 61.36049 582.2319 61.72676 581.8657C 62.09303 581.4995 62.27617 581.0571 62.27617 580.5391z" stroke="none" fill="#333333" fill-rule="winding" /><path transform="matrix(1 0 0 -1 0 841)" d="M62.27617 565.5327C 62.27617 565.0151 62.09303 564.5732 61.72676 564.2065C 61.36049 563.8403 60.91836 563.6572 60.40038 563.6567C 59.88239 563.6572 59.44026 563.8403 59.07399 564.2065C 58.70772 564.5732 58.52458 565.0151 58.52459 565.5327C 58.52458 566.0513 58.70772 566.4932 59.07399 566.8594C 59.44026 567.2251 59.88239 567.4082 60.40038 567.4082C 60.91836 567.4082 61.36049 567.2251 61.72676 566.8594C 62.09303 566.4932 62.27617 566.0513 62.27617 565.5327z" stroke="none" fill="#333333" fill-rule="winding" /><path transform="matrix(1 0 0 -1 0 841)" d="M48.39533 147.9824L48.39533 371.5762C 48.39533 372.0947 48.57846 372.5366 48.94473 372.9028C 49.311 373.2686 49.75313 373.4521 50.27112 373.4521L50.27112 373.4521L544.7289 373.4521C 545.2468 373.4521 545.6889 373.2686 546.0552 372.9028C 546.4214 372.5366 546.6046 372.0947 546.6047 371.5762L546.6047 371.5762L546.6047 147.9824C 546.6046 147.4644 546.4214 147.0225 546.0552 146.6558C 545.6889 146.2896 545.2468 146.1064 544.7289 146.1064L544.7289 146.1064L50.27112 146.1064C 49.75313 146.1064 49.311 146.2896 48.94473 146.6558C 48.57846 147.0225 48.39533 147.4644 48.39533 147.9824z" stroke="none" fill="#F8F8F8" fill-rule="winding" /><path transform="matrix(1 0 0 -1 0 841)" d="M48.39533 147.9824L48.39533 371.5762C 48.39533 372.0947 48.57846 372.5366 48.94473 372.9028C 49.311 373.2686 49.75313 373.4521 50.27112 373.4521L50.27112 373.4521L544.7289 373.4521C 545.2468 373.4521 545.6889 373.2686 546.0552 372.9028C 546.4214 372.5366 546.6046 372.0947 546.6047 371.5762L546.6047 371.5762L546.6047 147.9824C 546.6046 147.4644 546.4214 147.0225 546.0552 146.6558C 545.6889 146.2896 545.2468 146.1064 544.7289 146.1064L544.7289 146.1064L50.27112 146.1064C 49.75313 146.1064 49.311 146.2896 48.94473 146.6558C 48.57846 147.0225 48.39533 147.4644 48.39533 147.9824z" stroke="#E7EAED" stroke-width="0.7503152" fill="none" /></g><g clip-path="url(#3)"><path transform="matrix(1 0 0 -1 0 841)" d="M48.77049 367.0742L543.2282 367.0742L543.2282 367.0742L543.2282 150.9834L543.2282 150.9834L48.77049 150.9834z" stroke="none" fill="#F8F8F8" fill-rule="winding" /><path transform="matrix(1 0 0 -1 0 841)" d="M48.77049 367.0742L543.2282 367.0742L543.2282 367.0742L543.2282 150.9834L543.2282 150.9834L48.77049 150.9834z" stroke="none" fill="#F8F8F8" fill-rule="winding" /><path transform="matrix(1 0 0 -1 0 841)" d="M48.77049 367.0742L75.78184 367.0742L75.78184 367.0742L75.78184 90.95801L75.78184 90.95801L48.77049 90.95801z" stroke="none" fill="#F8F8F8" fill-rule="winding" /><path transform="matrix(1 0 0 -1 0 841)" d="M75.03152 367.0742L75.78184 367.0742L75.78184 367.0742L75.78184 90.95801L75.78184 90.95801L75.03152 90.95801z" stroke="none" fill="#DDDDDD" fill-rule="winding" /></g><g transform="matrix(0.2399193 0 0 0.2399322 0 -14.78003)"><g transform="matrix(1 0 0 1 0 0)"><image x="0" y="0" xlink:href="img_02.png" width="2480" height="295" /></g></g><g transform="matrix(0.4798387 0 0 0.4798876 0 798.29)"><g transform="matrix(1 0 0 1 0 0)"><image x="0" y="0" xlink:href="img_03.png" width="1240" height="89" /></g></g></g></g></g></svg>