<svg xmlns="http://www.w3.org/2000/svg" xmlns:xlink="http://www.w3.org/1999/xlink" id="body_41" preserveAspectRatio="xMinYMin meet" viewBox="0 0 793 1121"><defs><clipPath id="1"><path d="M0 841L0 0L0 0L595 0L595 0L595 841L595 841L0 841z" /></clipPath><clipPath id="2"><path d="M0 56L595 56L595 56L595 784.5566L595 784.5566L0 784.5566z" /></clipPath><clipPath id="3"><path d="M48.77049 62.75391L543.2282 62.75391L543.2282 62.75391L543.2282 170.7988L543.2282 170.7988L48.77049 170.7988z" /></clipPath><clipPath id="4"><path d="M0 56L595 56L595 56L595 784.5566L595 784.5566L0 784.5566z" /></clipPath><clipPath id="5"><path d="M48.77049 337.3691L543.2282 337.3691L543.2282 337.3691L543.2282 485.9316L543.2282 485.9316L48.77049 485.9316z" /></clipPath><clipPath id="6"><path d="M48.77049 62.75391L543.2282 62.75391L543.2282 62.75391L543.2282 170.7988L543.2282 170.7988L48.77049 170.7988z" /></clipPath><clipPath id="7"><path d="M48.77049 337.3691L543.2282 337.3691L543.2282 337.3691L543.2282 485.9316L543.2282 485.9316L48.77049 485.9316z" /></clipPath></defs><g transform="matrix(1.333333 0 0 1.333333 0 0)"><g><g clip-path="url(#1)"><g clip-path="url(#2)"><path transform="matrix(1 0 0 -1 0 841)" d="M0 29927.24L595 29927.24L595 29927.24L595 -28050.37L595 -28050.37L0 -28050.37z" stroke="none" fill="#FFFFFF" fill-rule="winding" /><path transform="matrix(1 0 0 -1 0 841)" d="M48.39533 667.2012L48.39533 782.748C 48.39533 783.2676 48.57846 783.7109 48.94473 784.0762C 49.311 784.4434 49.75313 784.625 50.27112 784.625L50.27112 784.625L544.7289 784.625C 545.2468 784.625 545.6889 784.4434 546.0552 784.0762C 546.4214 783.7109 546.6046 783.2676 546.6047 782.748L546.6047 782.748L546.6047 667.2012C 546.6046 666.6816 546.4214 666.2422 546.0552 665.875C 545.6889 665.5098 545.2468 665.3242 544.7289 665.3242L544.7289 665.3242L50.27112 665.3242C 49.75313 665.3242 49.311 665.5098 48.94473 665.875C 48.57846 666.2422 48.39533 666.6816 48.39533 667.2012z" stroke="none" fill="#F8F8F8" fill-rule="winding" /><path transform="matrix(1 0 0 -1 0 841)" d="M48.39533 667.2012L48.39533 782.748C 48.39533 783.2676 48.57846 783.7109 48.94473 784.0762C 49.311 784.4434 49.75313 784.625 50.27112 784.625L50.27112 784.625L544.7289 784.625C 545.2468 784.625 545.6889 784.4434 546.0552 784.0762C 546.4214 783.7109 546.6046 783.2676 546.6047 782.748L546.6047 782.748L546.6047 667.2012C 546.6046 666.6816 546.4214 666.2422 546.0552 665.875C 545.6889 665.5098 545.2468 665.3242 544.7289 665.3242L544.7289 665.3242L50.27112 665.3242C 49.75313 665.3242 49.311 665.5098 48.94473 665.875C 48.57846 666.2422 48.39533 666.6816 48.39533 667.2012z" stroke="#E7EAED" stroke-width="0.7503152" fill="none" /></g><g clip-path="url(#3)"><path transform="matrix(1 0 0 -1 0 841)" d="M48.77049 778.2461L543.2282 778.2461L543.2282 778.2461L543.2282 670.2012L543.2282 670.2012L48.77049 670.2012z" stroke="none" fill="#F8F8F8" fill-rule="winding" /></g><g clip-path="url(#4)"><path transform="matrix(1 0 0 -1 0 841)" d="M48.02018 619.9297L48.02018 625.1836C 48.02017 625.8066 48.23994 626.3379 48.67946 626.7773C 49.11898 627.2129 49.64954 627.4336 50.27112 627.4336L50.27112 627.4336L60.77554 627.4336C 61.39711 627.4336 61.92767 627.2129 62.36719 626.7773C 62.80672 626.3379 63.02648 625.8066 63.02648 625.1836L63.02648 625.1836L63.02648 619.9297C 63.02648 619.3125 62.80672 618.7813 62.36719 618.3418C 61.92767 617.9023 61.39711 617.6816 60.77554 617.6797L60.77554 617.6797L50.27112 617.6797C 49.64954 617.6816 49.11898 617.9023 48.67946 618.3418C 48.23994 618.7813 48.02017 619.3125 48.02018 619.9297z" stroke="none" fill="#F3F4F4" fill-rule="winding" /><path transform="matrix(1 0 0 -1 0 841)" d="M48.39533 619.9297L48.39533 625.1836C 48.39533 625.7012 48.57846 626.1445 48.94473 626.5098C 49.311 626.877 49.75313 627.0586 50.27112 627.0586L50.27112 627.0586L60.77554 627.0586C 61.29351 627.0586 61.73564 626.877 62.10191 626.5098C 62.46818 626.1445 62.65132 625.7012 62.65132 625.1836L62.65132 625.1836L62.65132 619.9297C 62.65132 619.4121 62.46818 618.9727 62.10191 618.6055C 61.73564 618.2402 61.29351 618.0547 60.77554 618.0547L60.77554 618.0547L50.27112 618.0547C 49.75313 618.0547 49.311 618.2402 48.94473 618.6055C 48.57846 618.9727 48.39533 619.4121 48.39533 619.9297z" stroke="#E7EAED" stroke-width="0.7503152" fill="none" /><path transform="matrix(1 0 0 -1 0 841)" d="M48.02018 595.9199L48.02018 601.1719C 48.02017 601.7969 48.23994 602.3281 48.67946 602.7637C 49.11898 603.2031 49.64954 603.4238 50.27112 603.4238L50.27112 603.4238L66.02774 603.4238C 66.64932 603.4238 67.17987 603.2031 67.61939 602.7637C 68.05892 602.3281 68.27868 601.7969 68.27869 601.1719L68.27869 601.1719L68.27869 595.9199C 68.27868 595.2988 68.05892 594.7695 67.61939 594.3281C 67.17987 593.8887 66.64932 593.6699 66.02774 593.6699L66.02774 593.6699L50.27112 593.6699C 49.64954 593.6699 49.11898 593.8887 48.67946 594.3281C 48.23994 594.7695 48.02017 595.2988 48.02018 595.9199z" stroke="none" fill="#F3F4F4" fill-rule="winding" /><path transform="matrix(1 0 0 -1 0 841)" d="M48.39533 595.9199L48.39533 601.1719C 48.39533 601.6914 48.57846 602.1348 48.94473 602.5C 49.311 602.8672 49.75313 603.0488 50.27112 603.0488L50.27112 603.0488L66.02774 603.0488C 66.54572 603.0488 66.98785 602.8672 67.35412 602.5C 67.72039 602.1348 67.90353 601.6914 67.90353 601.1719L67.90353 601.1719L67.90353 595.9199C 67.90353 595.4043 67.72039 594.9629 67.35412 594.5957C 66.98785 594.2285 66.54572 594.0469 66.02774 594.0449L66.02774 594.0449L50.27112 594.0449C 49.75313 594.0469 49.311 594.2285 48.94473 594.5957C 48.57846 594.9629 48.39533 595.4043 48.39533 595.9199z" stroke="#E7EAED" stroke-width="0.7503152" fill="none" /><path transform="matrix(1 0 0 -1 0 841)" d="M48.02018 572.6602L48.02018 577.9121C 48.02017 578.5371 48.23994 579.0684 48.67946 579.5078C 49.11898 579.9434 49.64954 580.1641 50.27112 580.1641L50.27112 580.1641L60.77554 580.1641C 61.39711 580.1641 61.92767 579.9434 62.36719 579.5078C 62.80672 579.0684 63.02648 578.5371 63.02648 577.9121L63.02648 577.9121L63.02648 572.6602C 63.02648 572.043 62.80672 571.5117 62.36719 571.0723C 61.92767 570.6328 61.39711 570.4121 60.77554 570.4102L60.77554 570.4102L50.27112 570.4102C 49.64954 570.4121 49.11898 570.6328 48.67946 571.0723C 48.23994 571.5117 48.02017 572.043 48.02018 572.6602z" stroke="none" fill="#F3F4F4" fill-rule="winding" /><path transform="matrix(1 0 0 -1 0 841)" d="M48.39533 572.6602L48.39533 577.9121C 48.39533 578.4316 48.57846 578.875 48.94473 579.2402C 49.311 579.6074 49.75313 579.7891 50.27112 579.7891L50.27112 579.7891L60.77554 579.7891C 61.29351 579.7891 61.73564 579.6074 62.10191 579.2402C 62.46818 578.875 62.65132 578.4316 62.65132 577.9121L62.65132 577.9121L62.65132 572.6602C 62.65132 572.1445 62.46818 571.7031 62.10191 571.3359C 61.73564 570.9688 61.29351 570.7871 60.77554 570.7852L60.77554 570.7852L50.27112 570.7852C 49.75313 570.7871 49.311 570.9688 48.94473 571.3359C 48.57846 571.7031 48.39533 572.1445 48.39533 572.6602z" stroke="#E7EAED" stroke-width="0.7503152" fill="none" /><path transform="matrix(1 0 0 -1 0 841)" d="M48.02018 548.6504L48.02018 553.9023C 48.02017 554.5273 48.23994 555.0566 48.67946 555.498C 49.11898 555.9336 49.64954 556.1543 50.27112 556.1543L50.27112 556.1543L66.02774 556.1543C 66.64932 556.1543 67.17987 555.9336 67.61939 555.498C 68.05892 555.0566 68.27868 554.5273 68.27869 553.9023L68.27869 553.9023L68.27869 548.6504C 68.27868 548.0293 68.05892 547.498 67.61939 547.0586C 67.17987 546.6191 66.64932 546.4004 66.02774 546.4004L66.02774 546.4004L50.27112 546.4004C 49.64954 546.4004 49.11898 546.6191 48.67946 547.0586C 48.23994 547.498 48.02017 548.0293 48.02018 548.6504z" stroke="none" fill="#F3F4F4" fill-rule="winding" /><path transform="matrix(1 0 0 -1 0 841)" d="M48.39533 548.6504L48.39533 553.9023C 48.39533 554.4219 48.57846 554.8633 48.94473 555.2305C 49.311 555.5977 49.75313 555.7793 50.27112 555.7793L50.27112 555.7793L66.02774 555.7793C 66.54572 555.7793 66.98785 555.5977 67.35412 555.2305C 67.72039 554.8633 67.90353 554.4219 67.90353 553.9023L67.90353 553.9023L67.90353 548.6504C 67.90353 548.1348 67.72039 547.6914 67.35412 547.3262C 66.98785 546.959 66.54572 546.7773 66.02774 546.7754L66.02774 546.7754L50.27112 546.7754C 49.75313 546.7773 49.311 546.959 48.94473 547.3262C 48.57846 547.6914 48.39533 548.1348 48.39533 548.6504z" stroke="#E7EAED" stroke-width="0.7503152" fill="none" /><path transform="matrix(1 0 0 -1 0 841)" d="M48.39533 352.0684L48.39533 508.1328C 48.39533 508.6523 48.57846 509.0977 48.94473 509.4648C 49.311 509.8281 49.75313 510.0098 50.27112 510.0098L50.27112 510.0098L544.7289 510.0098C 545.2468 510.0098 545.6889 509.8281 546.0552 509.4648C 546.4214 509.0977 546.6046 508.6523 546.6047 508.1328L546.6047 508.1328L546.6047 352.0684C 546.6046 351.5488 546.4214 351.1094 546.0552 350.7441C 545.6889 350.377 545.2468 350.1914 544.7289 350.1914L544.7289 350.1914L50.27112 350.1914C 49.75313 350.1914 49.311 350.377 48.94473 350.7441C 48.57846 351.1094 48.39533 351.5488 48.39533 352.0684z" stroke="none" fill="#F8F8F8" fill-rule="winding" /><path transform="matrix(1 0 0 -1 0 841)" d="M48.39533 352.0684L48.39533 508.1328C 48.39533 508.6523 48.57846 509.0977 48.94473 509.4648C 49.311 509.8281 49.75313 510.0098 50.27112 510.0098L50.27112 510.0098L544.7289 510.0098C 545.2468 510.0098 545.6889 509.8281 546.0552 509.4648C 546.4214 509.0977 546.6046 508.6523 546.6047 508.1328L546.6047 508.1328L546.6047 352.0684C 546.6046 351.5488 546.4214 351.1094 546.0552 350.7441C 545.6889 350.377 545.2468 350.1914 544.7289 350.1914L544.7289 350.1914L50.27112 350.1914C 49.75313 350.1914 49.311 350.377 48.94473 350.7441C 48.57846 351.1094 48.39533 351.5488 48.39533 352.0684z" stroke="#E7EAED" stroke-width="0.7503152" fill="none" /></g><g clip-path="url(#5)"><path transform="matrix(1 0 0 -1 0 841)" d="M48.77049 503.6309L543.2282 503.6309L543.2282 503.6309L543.2282 355.0684L543.2282 355.0684L48.77049 355.0684z" stroke="none" fill="#F8F8F8" fill-rule="winding" /></g><g clip-path="url(#6)"><path transform="matrix(1 0 0 -1 0 841)" d="M48.77049 778.2461L543.2282 778.2461L543.2282 778.2461L543.2282 670.2012L543.2282 670.2012L48.77049 670.2012z" stroke="none" fill="#F8F8F8" fill-rule="winding" /><path transform="matrix(1 0 0 -1 0 841)" d="M48.77049 778.2461L69.77932 778.2461L69.77932 778.2461L69.77932 640.1895L69.77932 640.1895L48.77049 640.1895z" stroke="none" fill="#F8F8F8" fill-rule="winding" /><path transform="matrix(1 0 0 -1 0 841)" d="M69.029 778.2461L69.77932 778.2461L69.77932 778.2461L69.77932 640.1895L69.77932 640.1895L69.029 640.1895z" stroke="none" fill="#DDDDDD" fill-rule="winding" /></g><g clip-path="url(#7)"><path transform="matrix(1 0 0 -1 0 841)" d="M48.77049 503.6309L543.2282 503.6309L543.2282 503.6309L543.2282 355.0684L543.2282 355.0684L48.77049 355.0684z" stroke="none" fill="#F8F8F8" fill-rule="winding" /><path transform="matrix(1 0 0 -1 0 841)" d="M48.77049 503.6309L75.78184 503.6309L75.78184 503.6309L75.78184 313.8027L75.78184 313.8027L48.77049 313.8027z" stroke="none" fill="#F8F8F8" fill-rule="winding" /><path transform="matrix(1 0 0 -1 0 841)" d="M75.03152 503.6309L75.78184 503.6309L75.78184 503.6309L75.78184 313.8027L75.78184 313.8027L75.03152 313.8027z" stroke="none" fill="#DDDDDD" fill-rule="winding" /></g><g transform="matrix(0.2399193 0 0 0.2399322 0 -14.78003)"><g transform="matrix(1 0 0 1 0 0)"><image x="0" y="0" xlink:href="img_02.png" width="2480" height="295" /></g></g><g transform="matrix(0.4798387 0 0 0.4798876 0 798.29)"><g transform="matrix(1 0 0 1 0 0)"><image x="0" y="0" xlink:href="img_03.png" width="1240" height="89" /></g></g></g></g></g></svg>