<svg xmlns="http://www.w3.org/2000/svg" xmlns:xlink="http://www.w3.org/1999/xlink" id="body_67" preserveAspectRatio="xMinYMin meet" viewBox="0 0 793 1121"><defs><clipPath id="1"><path d="M0 841L0 0L0 0L595 0L595 0L595 841L595 841L0 841z" /></clipPath><clipPath id="2"><path d="M0 56L595 56L595 56L595 784.5547L595 784.5547L0 784.5547z" /></clipPath><clipPath id="3"><path d="M48.77049 584.9727L543.2282 584.9727L543.2282 584.9727L543.2282 598.4766L543.2282 598.4766L48.77049 598.4766z" /></clipPath><clipPath id="4"><path d="M0 56L595 56L595 56L595 784.5547L595 784.5547L0 784.5547z" /></clipPath><clipPath id="5"><path d="M48.77049 584.9727L543.2282 584.9727L543.2282 584.9727L543.2282 598.4766L543.2282 598.4766L48.77049 598.4766z" /></clipPath></defs><g transform="matrix(1.333333 0 0 1.333333 0 0)"><g><g clip-path="url(#1)"><g clip-path="url(#2)"><path transform="matrix(1 0 0 -1 0 841)" d="M0 48869.7L595 48869.7L595 48869.7L595 -9107.906L595 -9107.906L0 -9107.906z" stroke="none" fill="#FFFFFF" fill-rule="winding" /><g transform="matrix(0.5241173 0 0 0.5246267 48.02018 129.5313)"><g transform="matrix(1 0 0 1 0 0)"><image x="0" y="0" xlink:href="img_125.png" width="952" height="379" /></g></g><g transform="matrix(0.5181305 0 0 0.5177894 48.02018 381.6367)"><g transform="matrix(1 0 0 1 0 0)"><image x="0" y="0" xlink:href="img_126.png" width="963" height="313" /></g></g><path transform="matrix(1 0 0 -1 0 841)" d="M48.39533 239.5195L48.39533 260.5313C 48.39533 261.0508 48.57846 261.4922 48.94473 261.8594C 49.311 262.2227 49.75313 262.4063 50.27112 262.4063L50.27112 262.4063L544.7289 262.4063C 545.2468 262.4063 545.6889 262.2227 546.0552 261.8594C 546.4214 261.4922 546.6046 261.0508 546.6047 260.5313L546.6047 260.5313L546.6047 239.5195C 546.6046 239.0039 546.4214 238.5625 546.0552 238.1953C 545.6889 237.8281 545.2468 237.6445 544.7289 237.6445L544.7289 237.6445L50.27112 237.6445C 49.75313 237.6445 49.311 237.8281 48.94473 238.1953C 48.57846 238.5625 48.39533 239.0039 48.39533 239.5195z" stroke="none" fill="#F8F8F8" fill-rule="winding" /><path transform="matrix(1 0 0 -1 0 841)" d="M48.39533 239.5195L48.39533 260.5313C 48.39533 261.0508 48.57846 261.4922 48.94473 261.8594C 49.311 262.2227 49.75313 262.4063 50.27112 262.4063L50.27112 262.4063L544.7289 262.4063C 545.2468 262.4063 545.6889 262.2227 546.0552 261.8594C 546.4214 261.4922 546.6046 261.0508 546.6047 260.5313L546.6047 260.5313L546.6047 239.5195C 546.6046 239.0039 546.4214 238.5625 546.0552 238.1953C 545.6889 237.8281 545.2468 237.6445 544.7289 237.6445L544.7289 237.6445L50.27112 237.6445C 49.75313 237.6445 49.311 237.8281 48.94473 238.1953C 48.57846 238.5625 48.39533 239.0039 48.39533 239.5195z" stroke="#E7EAED" stroke-width="0.7503152" fill="none" /></g><g clip-path="url(#3)"><path transform="matrix(1 0 0 -1 0 841)" d="M48.77049 256.0273L543.2282 256.0273L543.2282 256.0273L543.2282 242.5234L543.2282 242.5234L48.77049 242.5234z" stroke="none" fill="#F8F8F8" fill-rule="winding" /></g><g clip-path="url(#4)"></g><g clip-path="url(#5)"><path transform="matrix(1 0 0 -1 0 841)" d="M48.77049 256.0273L543.2282 256.0273L543.2282 256.0273L543.2282 242.5234L543.2282 242.5234L48.77049 242.5234z" stroke="none" fill="#F8F8F8" fill-rule="winding" /><path transform="matrix(1 0 0 -1 0 841)" d="M48.77049 256.0273L69.77932 256.0273L69.77932 256.0273L69.77932 233.5195L69.77932 233.5195L48.77049 233.5195z" stroke="none" fill="#F8F8F8" fill-rule="winding" /><path transform="matrix(1 0 0 -1 0 841)" d="M69.029 256.0273L69.77932 256.0273L69.77932 256.0273L69.77932 233.5195L69.77932 233.5195L69.029 233.5195z" stroke="none" fill="#DDDDDD" fill-rule="winding" /></g><g transform="matrix(0.2399193 0 0 0.2399322 0 -14.78003)"><g transform="matrix(1 0 0 1 0 0)"><image x="0" y="0" xlink:href="img_02.png" width="2480" height="295" /></g></g><g transform="matrix(0.4798387 0 0 0.4798876 0 798.29)"><g transform="matrix(1 0 0 1 0 0)"><image x="0" y="0" xlink:href="img_03.png" width="1240" height="89" /></g></g></g></g></g></svg>