<svg xmlns="http://www.w3.org/2000/svg" xmlns:xlink="http://www.w3.org/1999/xlink" id="body_56" preserveAspectRatio="xMinYMin meet" viewBox="0 0 793 1121"><defs><clipPath id="1"><path d="M0 841L0 0L0 0L595 0L595 0L595 841L595 841L0 841z" /></clipPath><clipPath id="2"><path d="M0 56L595 56L595 56L595 784.5547L595 784.5547L0 784.5547z" /></clipPath><clipPath id="3"><path d="M48.77049 143.7852L543.2282 143.7852L543.2282 143.7852L543.2282 548.957L543.2282 548.957L48.77049 548.957z" /></clipPath><clipPath id="4"><path d="M0 56L595 56L595 56L595 784.5547L595 784.5547L0 784.5547z" /></clipPath><clipPath id="5"><path d="M48.77049 143.7852L543.2282 143.7852L543.2282 143.7852L543.2282 548.957L543.2282 548.957L48.77049 548.957z" /></clipPath></defs><g transform="matrix(1.333333 0 0 1.333333 0 0)"><g><g clip-path="url(#1)"><g clip-path="url(#2)"><path transform="matrix(1 0 0 -1 0 841)" d="M0 40855.59L595 40855.59L595 40855.59L595 -17122.02L595 -17122.02L0 -17122.02z" stroke="none" fill="#FFFFFF" fill-rule="winding" /><path transform="matrix(1 0 0 -1 0 841)" d="M48.02018 785L51.02144 785L51.02144 785L51.02144 769.9922L51.02144 769.9922L48.02018 769.9922z" stroke="none" fill="#DFE2E5" fill-rule="winding" /><path transform="matrix(1 0 0 -1 0 841)" d="M48.02018 275.5352L51.02144 275.5352L51.02144 275.5352L51.02144 238.0195L51.02144 238.0195L48.02018 238.0195z" stroke="none" fill="#DFE2E5" fill-rule="winding" /><path transform="matrix(1 0 0 -1 0 841)" d="M48.39533 289.043L48.39533 701.7148C 48.39533 702.2344 48.57846 702.6797 48.94473 703.0469C 49.311 703.4102 49.75313 703.5898 50.27112 703.5898L50.27112 703.5898L544.7289 703.5898C 545.2468 703.5898 545.6889 703.4102 546.0552 703.0469C 546.4214 702.6797 546.6046 702.2344 546.6047 701.7148L546.6047 701.7148L546.6047 289.043C 546.6046 288.5273 546.4214 288.082 546.0552 287.7188C 545.6889 287.3516 545.2468 287.168 544.7289 287.1641L544.7289 287.1641L50.27112 287.1641C 49.75313 287.168 49.311 287.3516 48.94473 287.7188C 48.57846 288.082 48.39533 288.5273 48.39533 289.043z" stroke="none" fill="#F8F8F8" fill-rule="winding" /><path transform="matrix(1 0 0 -1 0 841)" d="M48.39533 289.043L48.39533 701.7148C 48.39533 702.2344 48.57846 702.6797 48.94473 703.0469C 49.311 703.4102 49.75313 703.5898 50.27112 703.5898L50.27112 703.5898L544.7289 703.5898C 545.2468 703.5898 545.6889 703.4102 546.0552 703.0469C 546.4214 702.6797 546.6046 702.2344 546.6047 701.7148L546.6047 701.7148L546.6047 289.043C 546.6046 288.5273 546.4214 288.082 546.0552 287.7188C 545.6889 287.3516 545.2468 287.168 544.7289 287.1641L544.7289 287.1641L50.27112 287.1641C 49.75313 287.168 49.311 287.3516 48.94473 287.7188C 48.57846 288.082 48.39533 288.5273 48.39533 289.043z" stroke="#E7EAED" stroke-width="0.7503152" fill="none" /></g><g clip-path="url(#3)"><path transform="matrix(1 0 0 -1 0 841)" d="M48.77049 697.2148L543.2282 697.2148L543.2282 697.2148L543.2282 292.043L543.2282 292.043L48.77049 292.043z" stroke="none" fill="#F8F8F8" fill-rule="winding" /></g><g clip-path="url(#4)"></g><g clip-path="url(#5)"><path transform="matrix(1 0 0 -1 0 841)" d="M48.77049 697.2148L543.2282 697.2148L543.2282 697.2148L543.2282 292.043L543.2282 292.043L48.77049 292.043z" stroke="none" fill="#F8F8F8" fill-rule="winding" /><path transform="matrix(1 0 0 -1 0 841)" d="M48.77049 697.2148L75.78184 697.2148L75.78184 697.2148L75.78184 179.4961L75.78184 179.4961L48.77049 179.4961z" stroke="none" fill="#F8F8F8" fill-rule="winding" /><path transform="matrix(1 0 0 -1 0 841)" d="M75.03152 697.2148L75.78184 697.2148L75.78184 697.2148L75.78184 179.4961L75.78184 179.4961L75.03152 179.4961z" stroke="none" fill="#DDDDDD" fill-rule="winding" /></g><g transform="matrix(0.2399193 0 0 0.2399322 0 -14.78003)"><g transform="matrix(1 0 0 1 0 0)"><image x="0" y="0" xlink:href="img_02.png" width="2480" height="295" /></g></g><g transform="matrix(0.4798387 0 0 0.4798876 0 798.29)"><g transform="matrix(1 0 0 1 0 0)"><image x="0" y="0" xlink:href="img_03.png" width="1240" height="89" /></g></g></g></g></g></svg>