<svg xmlns="http://www.w3.org/2000/svg" xmlns:xlink="http://www.w3.org/1999/xlink" id="body_41" preserveAspectRatio="xMinYMin meet" viewBox="0 0 793 1121"><defs><clipPath id="1"><path d="M0 841L0 0L0 0L595 0L595 0L595 841L595 841L0 841z" /></clipPath><clipPath id="2"><path d="M0 56L595 56L595 56L595 784.5566L595 784.5566L0 784.5566z" /></clipPath><clipPath id="3"><path d="M48.77049 56L543.2282 56L543.2282 56L543.2282 582.7207L543.2282 582.7207L48.77049 582.7207z" /></clipPath><clipPath id="4"><path d="M0 56L595 56L595 56L595 784.5566L595 784.5566L0 784.5566z" /></clipPath><clipPath id="5"><path d="M48.77049 662.2539L543.2282 662.2539L543.2282 662.2539L543.2282 729.7832L543.2282 729.7832L48.77049 729.7832z" /></clipPath><clipPath id="6"><path d="M0 56L595 56L595 56L595 784.5566L595 784.5566L0 784.5566z" /></clipPath><clipPath id="7"><path d="M48.77049 56L543.2282 56L543.2282 56L543.2282 582.7207L543.2282 582.7207L48.77049 582.7207z" /></clipPath><clipPath id="8"><path d="M48.77049 662.2539L543.2282 662.2539L543.2282 662.2539L543.2282 729.7832L543.2282 729.7832L48.77049 729.7832z" /></clipPath></defs><g transform="matrix(1.333333 0 0 1.333333 0 0)"><g><g clip-path="url(#1)"><g clip-path="url(#2)"><path transform="matrix(1 0 0 -1 0 841)" d="M0 29927.24L595 29927.24L595 29927.24L595 -2776.746L595 -2776.746L0 -2776.746z" stroke="none" fill="#FFFFFF" fill-rule="winding" /><path transform="matrix(1 0 0 -1 0 841)" d="M48.39533 255.2773L48.39533 843.5254C 48.39533 844.043 48.57846 844.4863 48.94473 844.8516C 49.311 845.2188 49.75313 845.4004 50.27112 845.4004L50.27112 845.4004L544.7289 845.4004C 545.2468 845.4004 545.6889 845.2188 546.0552 844.8516C 546.4214 844.4863 546.6046 844.043 546.6047 843.5254L546.6047 843.5254L546.6047 255.2773C 546.6046 254.7578 546.4214 254.3184 546.0552 253.9531C 545.6889 253.5859 545.2468 253.4023 544.7289 253.4023L544.7289 253.4023L50.27112 253.4023C 49.75313 253.4023 49.311 253.5859 48.94473 253.9531C 48.57846 254.3184 48.39533 254.7578 48.39533 255.2773z" stroke="none" fill="#F8F8F8" fill-rule="winding" /><path transform="matrix(1 0 0 -1 0 841)" d="M48.39533 255.2773L48.39533 843.5254C 48.39533 844.043 48.57846 844.4863 48.94473 844.8516C 49.311 845.2188 49.75313 845.4004 50.27112 845.4004L50.27112 845.4004L544.7289 845.4004C 545.2468 845.4004 545.6889 845.2188 546.0552 844.8516C 546.4214 844.4863 546.6046 844.043 546.6047 843.5254L546.6047 843.5254L546.6047 255.2773C 546.6046 254.7578 546.4214 254.3184 546.0552 253.9531C 545.6889 253.5859 545.2468 253.4023 544.7289 253.4023L544.7289 253.4023L50.27112 253.4023C 49.75313 253.4023 49.311 253.5859 48.94473 253.9531C 48.57846 254.3184 48.39533 254.7578 48.39533 255.2773z" stroke="#E7EAED" stroke-width="0.7503152" fill="none" /></g><g clip-path="url(#3)"><path transform="matrix(1 0 0 -1 0 841)" d="M48.77049 839.0234L543.2282 839.0234L543.2282 839.0234L543.2282 258.2793L543.2282 258.2793L48.77049 258.2793z" stroke="none" fill="#F8F8F8" fill-rule="winding" /></g><g clip-path="url(#4)"><path transform="matrix(1 0 0 -1 0 841)" d="M48.39533 108.2148L48.39533 183.2461C 48.39533 183.7656 48.57846 184.209 48.94473 184.5742C 49.311 184.9414 49.75313 185.123 50.27112 185.123L50.27112 185.123L544.7289 185.123C 545.2468 185.123 545.6889 184.9414 546.0552 184.5742C 546.4214 184.209 546.6046 183.7656 546.6047 183.2461L546.6047 183.2461L546.6047 108.2148C 546.6046 107.6973 546.4214 107.2539 546.0552 106.8887C 545.6889 106.5215 545.2468 106.3398 544.7289 106.3398L544.7289 106.3398L50.27112 106.3398C 49.75313 106.3398 49.311 106.5215 48.94473 106.8887C 48.57846 107.2539 48.39533 107.6973 48.39533 108.2148z" stroke="none" fill="#F8F8F8" fill-rule="winding" /><path transform="matrix(1 0 0 -1 0 841)" d="M48.39533 108.2148L48.39533 183.2461C 48.39533 183.7656 48.57846 184.209 48.94473 184.5742C 49.311 184.9414 49.75313 185.123 50.27112 185.123L50.27112 185.123L544.7289 185.123C 545.2468 185.123 545.6889 184.9414 546.0552 184.5742C 546.4214 184.209 546.6046 183.7656 546.6047 183.2461L546.6047 183.2461L546.6047 108.2148C 546.6046 107.6973 546.4214 107.2539 546.0552 106.8887C 545.6889 106.5215 545.2468 106.3398 544.7289 106.3398L544.7289 106.3398L50.27112 106.3398C 49.75313 106.3398 49.311 106.5215 48.94473 106.8887C 48.57846 107.2539 48.39533 107.6973 48.39533 108.2148z" stroke="#E7EAED" stroke-width="0.7503152" fill="none" /></g><g clip-path="url(#5)"><path transform="matrix(1 0 0 -1 0 841)" d="M48.77049 178.7461L543.2282 178.7461L543.2282 178.7461L543.2282 111.2168L543.2282 111.2168L48.77049 111.2168z" stroke="none" fill="#F8F8F8" fill-rule="winding" /></g><g clip-path="url(#6)"></g><g clip-path="url(#7)"><path transform="matrix(1 0 0 -1 0 841)" d="M48.77049 839.0234L543.2282 839.0234L543.2282 839.0234L543.2282 258.2793L543.2282 258.2793L48.77049 258.2793z" stroke="none" fill="#F8F8F8" fill-rule="winding" /><path transform="matrix(1 0 0 -1 0 841)" d="M48.77049 839.0234L75.78184 839.0234L75.78184 839.0234L75.78184 114.2188L75.78184 114.2188L48.77049 114.2188z" stroke="none" fill="#F8F8F8" fill-rule="winding" /><path transform="matrix(1 0 0 -1 0 841)" d="M75.03152 839.0234L75.78184 839.0234L75.78184 839.0234L75.78184 114.2188L75.78184 114.2188L75.03152 114.2188z" stroke="none" fill="#DDDDDD" fill-rule="winding" /></g><g clip-path="url(#8)"><path transform="matrix(1 0 0 -1 0 841)" d="M48.77049 178.7461L543.2282 178.7461L543.2282 178.7461L543.2282 111.2168L543.2282 111.2168L48.77049 111.2168z" stroke="none" fill="#F8F8F8" fill-rule="winding" /><path transform="matrix(1 0 0 -1 0 841)" d="M48.77049 178.7461L69.77932 178.7461L69.77932 178.7461L69.77932 92.45898L69.77932 92.45898L48.77049 92.45898z" stroke="none" fill="#F8F8F8" fill-rule="winding" /><path transform="matrix(1 0 0 -1 0 841)" d="M69.029 178.7461L69.77932 178.7461L69.77932 178.7461L69.77932 92.45898L69.77932 92.45898L69.029 92.45898z" stroke="none" fill="#DDDDDD" fill-rule="winding" /></g><g transform="matrix(0.2399193 0 0 0.2399322 0 -14.78003)"><g transform="matrix(1 0 0 1 0 0)"><image x="0" y="0" xlink:href="img_02.png" width="2480" height="295" /></g></g><g transform="matrix(0.4798387 0 0 0.4798876 0 798.29)"><g transform="matrix(1 0 0 1 0 0)"><image x="0" y="0" xlink:href="img_03.png" width="1240" height="89" /></g></g></g></g></g></svg>