<svg xmlns="http://www.w3.org/2000/svg" xmlns:xlink="http://www.w3.org/1999/xlink" id="body_19" preserveAspectRatio="xMinYMin meet" viewBox="0 0 793 1121"><defs><clipPath id="1"><path d="M0 841L0 0L0 0L595 0L595 0L595 841L595 841L0 841z" /></clipPath><clipPath id="2"><path d="M0 56L595 56L595 56L595 784.5566L595 784.5566L0 784.5566z" /></clipPath><clipPath id="3"><path d="M48.77049 367.3809L543.2282 367.3809L543.2282 367.3809L543.2282 784.5566L543.2282 784.5566L48.77049 784.5566z" /></clipPath></defs><g transform="matrix(1.333333 0 0 1.333333 0 0)"><g><g clip-path="url(#1)"><g clip-path="url(#2)"><path transform="matrix(1 0 0 -1 0 841)" d="M0 13899.01L595 13899.01L595 13899.01L595 -18804.98L595 -18804.98L0 -18804.98z" stroke="none" fill="#FFFFFF" fill-rule="winding" /><g transform="matrix(0.4925565 0 0 0.49201 48.02018 56)"><g transform="matrix(1 0 0 1 0 0)"><image x="0" y="0" xlink:href="img_38.png" width="1013" height="549" /></g></g><path transform="matrix(1 0 0 -1 0 841)" d="M48.39533 -81.61426L48.39533 478.1211C 48.39533 478.6396 48.57846 479.082 48.94473 479.4482C 49.311 479.8135 49.75313 479.9971 50.27112 479.9971L50.27112 479.9971L544.7289 479.9971C 545.2468 479.9971 545.6889 479.8135 546.0552 479.4482C 546.4214 479.082 546.6046 478.6396 546.6047 478.1211L546.6047 478.1211L546.6047 -81.61426C 546.6046 -82.13184 546.4214 -82.57422 546.0552 -82.94043C 545.6889 -83.30664 545.2468 -83.49023 544.7289 -83.49023L544.7289 -83.49023L50.27112 -83.49023C 49.75313 -83.49023 49.311 -83.30664 48.94473 -82.94043C 48.57846 -82.57422 48.39533 -82.13184 48.39533 -81.61426z" stroke="none" fill="#F8F8F8" fill-rule="winding" /><path transform="matrix(1 0 0 -1 0 841)" d="M48.39533 -81.61426L48.39533 478.1211C 48.39533 478.6396 48.57846 479.082 48.94473 479.4482C 49.311 479.8135 49.75313 479.9971 50.27112 479.9971L50.27112 479.9971L544.7289 479.9971C 545.2468 479.9971 545.6889 479.8135 546.0552 479.4482C 546.4214 479.082 546.6046 478.6396 546.6047 478.1211L546.6047 478.1211L546.6047 -81.61426C 546.6046 -82.13184 546.4214 -82.57422 546.0552 -82.94043C 545.6889 -83.30664 545.2468 -83.49023 544.7289 -83.49023L544.7289 -83.49023L50.27112 -83.49023C 49.75313 -83.49023 49.311 -83.30664 48.94473 -82.94043C 48.57846 -82.57422 48.39533 -82.13184 48.39533 -81.61426z" stroke="#E7EAED" stroke-width="0.7503152" fill="none" /></g><g clip-path="url(#3)"><path transform="matrix(1 0 0 -1 0 841)" d="M48.77049 473.6191L543.2282 473.6191L543.2282 473.6191L543.2282 -78.61328L543.2282 -78.61328L48.77049 -78.61328z" stroke="none" fill="#F8F8F8" fill-rule="winding" /><path transform="matrix(1 0 0 -1 0 841)" d="M48.77049 473.6191L543.2282 473.6191L543.2282 473.6191L543.2282 -78.61328L543.2282 -78.61328L48.77049 -78.61328z" stroke="none" fill="#F8F8F8" fill-rule="winding" /><path transform="matrix(1 0 0 -1 0 841)" d="M48.77049 473.6191L75.78184 473.6191L75.78184 473.6191L75.78184 -216.6709L75.78184 -216.6709L48.77049 -216.6709z" stroke="none" fill="#F8F8F8" fill-rule="winding" /><path transform="matrix(1 0 0 -1 0 841)" d="M75.03152 473.6191L75.78184 473.6191L75.78184 473.6191L75.78184 -216.6709L75.78184 -216.6709L75.03152 -216.6709z" stroke="none" fill="#DDDDDD" fill-rule="winding" /></g><g transform="matrix(0.2399193 0 0 0.2399322 0 -14.78003)"><g transform="matrix(1 0 0 1 0 0)"><image x="0" y="0" xlink:href="img_02.png" width="2480" height="295" /></g></g><g transform="matrix(0.4798387 0 0 0.4798876 0 798.29)"><g transform="matrix(1 0 0 1 0 0)"><image x="0" y="0" xlink:href="img_03.png" width="1240" height="89" /></g></g></g></g></g></svg>