<svg xmlns="http://www.w3.org/2000/svg" xmlns:xlink="http://www.w3.org/1999/xlink" id="body_35" preserveAspectRatio="xMinYMin meet" viewBox="0 0 793 1121"><defs><clipPath id="1"><path d="M0 841L0 0L0 0L595 0L595 0L595 841L595 841L0 841z" /></clipPath><clipPath id="2"><path d="M0 56L595 56L595 56L595 784.5547L595 784.5547L0 784.5547z" /></clipPath><clipPath id="3"><path d="M48.77049 732.7832L543.2282 732.7832L543.2282 732.7832L543.2282 746.2891L543.2282 746.2891L48.77049 746.2891z" /></clipPath><clipPath id="4"><path d="M0 56L595 56L595 56L595 784.5547L595 784.5547L0 784.5547z" /></clipPath><clipPath id="5"><path d="M48.77049 732.7832L543.2282 732.7832L543.2282 732.7832L543.2282 746.2891L543.2282 746.2891L48.77049 746.2891z" /></clipPath></defs><g transform="matrix(1.333333 0 0 1.333333 0 0)"><g><g clip-path="url(#1)"><g clip-path="url(#2)"><path transform="matrix(1 0 0 -1 0 841)" d="M0 25555.91L595 25555.91L595 25555.91L595 -7148.082L595 -7148.082L0 -7148.082z" stroke="none" fill="#FFFFFF" fill-rule="winding" /><path transform="matrix(1 0 0 -1 0 841)" d="M62.27617 777.123C 62.27617 776.6035 62.09303 776.1641 61.72676 775.7969C 61.36049 775.4316 60.91836 775.2461 60.40038 775.2461C 59.88239 775.2461 59.44026 775.4316 59.07399 775.7969C 58.70772 776.1641 58.52458 776.6035 58.52459 777.123C 58.52458 777.6406 58.70772 778.084 59.07399 778.4492C 59.44026 778.8164 59.88239 778.998 60.40038 778.998C 60.91836 778.998 61.36049 778.8164 61.72676 778.4492C 62.09303 778.084 62.27617 777.6406 62.27617 777.123z" stroke="none" fill="#333333" fill-rule="winding" /><path transform="matrix(1 0 0 -1 0 841)" d="M62.27617 762.1152C 62.27617 761.5977 62.09303 761.1582 61.72676 760.791C 61.36049 760.4258 60.91836 760.2422 60.40038 760.2402C 59.88239 760.2422 59.44026 760.4258 59.07399 760.791C 58.70772 761.1582 58.52458 761.5977 58.52459 762.1152C 58.52458 762.6348 58.70772 763.0781 59.07399 763.4434C 59.44026 763.8105 59.88239 763.9922 60.40038 763.9922C 60.91836 763.9922 61.36049 763.8105 61.72676 763.4434C 62.09303 763.0781 62.27617 762.6348 62.27617 762.1152z" stroke="none" fill="#333333" fill-rule="winding" /><g transform="matrix(0.4350128 0 0 0.4353069 48.02018 108.5215)"><g transform="matrix(1 0 0 1 0 0)"><image x="0" y="0" xlink:href="img_77.png" width="1147" height="605" /></g></g><g transform="matrix(0.4581815 0 0 0.4575093 48.02018 431.1563)"><g transform="matrix(1 0 0 1 0 0)"><image x="0" y="0" xlink:href="img_78.png" width="1089" height="410" /></g></g><path transform="matrix(1 0 0 -1 0 841)" d="M48.39533 91.70898L48.39533 112.7188C 48.39533 113.2363 48.57846 113.6797 48.94473 114.0449C 49.311 114.4121 49.75313 114.5938 50.27112 114.5938L50.27112 114.5938L544.7289 114.5938C 545.2468 114.5938 545.6889 114.4121 546.0552 114.0449C 546.4214 113.6797 546.6046 113.2363 546.6047 112.7188L546.6047 112.7188L546.6047 91.70898C 546.6046 91.19336 546.4214 90.75 546.0552 90.38477C 545.6889 90.01758 545.2468 89.83594 544.7289 89.83398L544.7289 89.83398L50.27112 89.83398C 49.75313 89.83594 49.311 90.01758 48.94473 90.38477C 48.57846 90.75 48.39533 91.19336 48.39533 91.70898z" stroke="none" fill="#F8F8F8" fill-rule="winding" /><path transform="matrix(1 0 0 -1 0 841)" d="M48.39533 91.70898L48.39533 112.7188C 48.39533 113.2363 48.57846 113.6797 48.94473 114.0449C 49.311 114.4121 49.75313 114.5938 50.27112 114.5938L50.27112 114.5938L544.7289 114.5938C 545.2468 114.5938 545.6889 114.4121 546.0552 114.0449C 546.4214 113.6797 546.6046 113.2363 546.6047 112.7188L546.6047 112.7188L546.6047 91.70898C 546.6046 91.19336 546.4214 90.75 546.0552 90.38477C 545.6889 90.01758 545.2468 89.83594 544.7289 89.83398L544.7289 89.83398L50.27112 89.83398C 49.75313 89.83594 49.311 90.01758 48.94473 90.38477C 48.57846 90.75 48.39533 91.19336 48.39533 91.70898z" stroke="#E7EAED" stroke-width="0.7503152" fill="none" /></g><g clip-path="url(#3)"><path transform="matrix(1 0 0 -1 0 841)" d="M48.77049 108.2168L543.2282 108.2168L543.2282 108.2168L543.2282 94.71094L543.2282 94.71094L48.77049 94.71094z" stroke="none" fill="#F8F8F8" fill-rule="winding" /></g><g clip-path="url(#4)"></g><g clip-path="url(#5)"><path transform="matrix(1 0 0 -1 0 841)" d="M48.77049 108.2168L543.2282 108.2168L543.2282 108.2168L543.2282 94.71094L543.2282 94.71094L48.77049 94.71094z" stroke="none" fill="#F8F8F8" fill-rule="winding" /><path transform="matrix(1 0 0 -1 0 841)" d="M48.77049 108.2168L69.77932 108.2168L69.77932 108.2168L69.77932 85.70703L69.77932 85.70703L48.77049 85.70703z" stroke="none" fill="#F8F8F8" fill-rule="winding" /><path transform="matrix(1 0 0 -1 0 841)" d="M69.029 108.2168L69.77932 108.2168L69.77932 108.2168L69.77932 85.70703L69.77932 85.70703L69.029 85.70703z" stroke="none" fill="#DDDDDD" fill-rule="winding" /></g><g transform="matrix(0.2399193 0 0 0.2399322 0 -14.78003)"><g transform="matrix(1 0 0 1 0 0)"><image x="0" y="0" xlink:href="img_02.png" width="2480" height="295" /></g></g><g transform="matrix(0.4798387 0 0 0.4798876 0 798.29)"><g transform="matrix(1 0 0 1 0 0)"><image x="0" y="0" xlink:href="img_03.png" width="1240" height="89" /></g></g></g></g></g></svg>