<svg xmlns="http://www.w3.org/2000/svg" xmlns:xlink="http://www.w3.org/1999/xlink" id="body_39" preserveAspectRatio="xMinYMin meet" viewBox="0 0 793 1121"><defs><clipPath id="1"><path d="M0 841L0 0L0 0L595 0L595 0L595 841L595 841L0 841z" /></clipPath><clipPath id="2"><path d="M0 56L595 56L595 56L595 784.5547L595 784.5547L0 784.5547z" /></clipPath><clipPath id="3"><path d="M48.77049 166.2949L543.2282 166.2949L543.2282 166.2949L543.2282 693.0176L543.2282 693.0176L48.77049 693.0176z" /></clipPath><clipPath id="4"><path d="M0 56L595 56L595 56L595 784.5547L595 784.5547L0 784.5547z" /></clipPath><clipPath id="5"><path d="M48.77049 166.2949L543.2282 166.2949L543.2282 166.2949L543.2282 693.0176L543.2282 693.0176L48.77049 693.0176z" /></clipPath></defs><g transform="matrix(1.333333 0 0 1.333333 0 0)"><g><g clip-path="url(#1)"><g clip-path="url(#2)"><path transform="matrix(1 0 0 -1 0 841)" d="M0 28470.13L595 28470.13L595 28470.13L595 -4233.857L595 -4233.857L0 -4233.857z" stroke="none" fill="#FFFFFF" fill-rule="winding" /><path transform="matrix(1 0 0 -1 0 841)" d="M48.02018 785L51.02144 785L51.02144 785L51.02144 769.9941L51.02144 769.9941L48.02018 769.9941z" stroke="none" fill="#DFE2E5" fill-rule="winding" /><path transform="matrix(1 0 0 -1 0 841)" d="M48.39533 144.9824L48.39533 679.207C 48.39533 679.7246 48.57846 680.168 48.94473 680.5332C 49.311 680.9004 49.75313 681.082 50.27112 681.082L50.27112 681.082L544.7289 681.082C 545.2468 681.082 545.6889 680.9004 546.0552 680.5332C 546.4214 680.168 546.6046 679.7246 546.6047 679.207L546.6047 679.207L546.6047 144.9824C 546.6046 144.4629 546.4214 144.0234 546.0552 143.6563C 545.6889 143.291 545.2468 143.1055 544.7289 143.1055L544.7289 143.1055L50.27112 143.1055C 49.75313 143.1055 49.311 143.291 48.94473 143.6563C 48.57846 144.0234 48.39533 144.4629 48.39533 144.9824z" stroke="none" fill="#F8F8F8" fill-rule="winding" /><path transform="matrix(1 0 0 -1 0 841)" d="M48.39533 144.9824L48.39533 679.207C 48.39533 679.7246 48.57846 680.168 48.94473 680.5332C 49.311 680.9004 49.75313 681.082 50.27112 681.082L50.27112 681.082L544.7289 681.082C 545.2468 681.082 545.6889 680.9004 546.0552 680.5332C 546.4214 680.168 546.6046 679.7246 546.6047 679.207L546.6047 679.207L546.6047 144.9824C 546.6046 144.4629 546.4214 144.0234 546.0552 143.6563C 545.6889 143.291 545.2468 143.1055 544.7289 143.1055L544.7289 143.1055L50.27112 143.1055C 49.75313 143.1055 49.311 143.291 48.94473 143.6563C 48.57846 144.0234 48.39533 144.4629 48.39533 144.9824z" stroke="#E7EAED" stroke-width="0.7503152" fill="none" /></g><g clip-path="url(#3)"><path transform="matrix(1 0 0 -1 0 841)" d="M48.77049 674.7051L543.2282 674.7051L543.2282 674.7051L543.2282 147.9824L543.2282 147.9824L48.77049 147.9824z" stroke="none" fill="#F8F8F8" fill-rule="winding" /></g><g clip-path="url(#4)"></g><g clip-path="url(#5)"><path transform="matrix(1 0 0 -1 0 841)" d="M48.77049 674.7051L543.2282 674.7051L543.2282 674.7051L543.2282 147.9824L543.2282 147.9824L48.77049 147.9824z" stroke="none" fill="#F8F8F8" fill-rule="winding" /><path transform="matrix(1 0 0 -1 0 841)" d="M48.77049 674.7051L75.78184 674.7051L75.78184 674.7051L75.78184 1.671875L75.78184 1.671875L48.77049 1.671875z" stroke="none" fill="#F8F8F8" fill-rule="winding" /><path transform="matrix(1 0 0 -1 0 841)" d="M75.03152 674.7051L75.78184 674.7051L75.78184 674.7051L75.78184 1.671875L75.78184 1.671875L75.03152 1.671875z" stroke="none" fill="#DDDDDD" fill-rule="winding" /></g><g transform="matrix(0.2399193 0 0 0.2399322 0 -14.78003)"><g transform="matrix(1 0 0 1 0 0)"><image x="0" y="0" xlink:href="img_02.png" width="2480" height="295" /></g></g><g transform="matrix(0.4798387 0 0 0.4798876 0 798.29)"><g transform="matrix(1 0 0 1 0 0)"><image x="0" y="0" xlink:href="img_03.png" width="1240" height="89" /></g></g></g></g></g></svg>