<svg xmlns="http://www.w3.org/2000/svg" xmlns:xlink="http://www.w3.org/1999/xlink" id="body_30" preserveAspectRatio="xMinYMin meet" viewBox="0 0 793 1121"><defs><clipPath id="1"><path d="M0 841L0 0L0 0L595 0L595 0L595 841L595 841L0 841z" /></clipPath><clipPath id="2"><path d="M0 56L595 56L595 56L595 784.5566L595 784.5566L0 784.5566z" /></clipPath><clipPath id="3"><path d="M48.77049 56L543.2282 56L543.2282 56L543.2282 69.50586L543.2282 69.50586L48.77049 69.50586z" /></clipPath><clipPath id="4"><path d="M0 56L595 56L595 56L595 784.5566L595 784.5566L0 784.5566z" /></clipPath><clipPath id="5"><path d="M48.77049 56L543.2282 56L543.2282 56L543.2282 69.50586L543.2282 69.50586L48.77049 69.50586z" /></clipPath></defs><g transform="matrix(1.333333 0 0 1.333333 0 0)"><g><g clip-path="url(#1)"><g clip-path="url(#2)"><path transform="matrix(1 0 0 -1 0 841)" d="M0 21913.13L595 21913.13L595 21913.13L595 -10790.86L595 -10790.86L0 -10790.86z" stroke="none" fill="#FFFFFF" fill-rule="winding" /><path transform="matrix(1 0 0 -1 0 841)" d="M48.39533 768.4922L48.39533 1058.865C 48.39533 1059.383 48.57846 1059.826 48.94473 1060.193C 49.311 1060.557 49.75313 1060.74 50.27112 1060.74L50.27112 1060.74L544.7289 1060.74C 545.2468 1060.74 545.6889 1060.557 546.0552 1060.193C 546.4214 1059.826 546.6046 1059.383 546.6047 1058.865L546.6047 1058.865L546.6047 768.4922C 546.6046 767.9766 546.4214 767.5352 546.0552 767.168C 545.6889 766.8027 545.2468 766.6191 544.7289 766.6191L544.7289 766.6191L50.27112 766.6191C 49.75313 766.6191 49.311 766.8027 48.94473 767.168C 48.57846 767.5352 48.39533 767.9766 48.39533 768.4922z" stroke="none" fill="#F8F8F8" fill-rule="winding" /><path transform="matrix(1 0 0 -1 0 841)" d="M48.39533 768.4922L48.39533 1058.865C 48.39533 1059.383 48.57846 1059.826 48.94473 1060.193C 49.311 1060.557 49.75313 1060.74 50.27112 1060.74L50.27112 1060.74L544.7289 1060.74C 545.2468 1060.74 545.6889 1060.557 546.0552 1060.193C 546.4214 1059.826 546.6046 1059.383 546.6047 1058.865L546.6047 1058.865L546.6047 768.4922C 546.6046 767.9766 546.4214 767.5352 546.0552 767.168C 545.6889 766.8027 545.2468 766.6191 544.7289 766.6191L544.7289 766.6191L50.27112 766.6191C 49.75313 766.6191 49.311 766.8027 48.94473 767.168C 48.57846 767.5352 48.39533 767.9766 48.39533 768.4922z" stroke="#E7EAED" stroke-width="0.7503152" fill="none" /></g><g clip-path="url(#3)"><path transform="matrix(1 0 0 -1 0 841)" d="M48.77049 1054.363L543.2282 1054.363L543.2282 1054.363L543.2282 771.4941L543.2282 771.4941L48.77049 771.4941z" stroke="none" fill="#F8F8F8" fill-rule="winding" /></g><g clip-path="url(#4)"><g transform="matrix(0.4920706 0 0 0.4922181 48.02018 108.5215)"><g transform="matrix(1 0 0 1 0 0)"><image x="0" y="0" xlink:href="img_61.png" width="1014" height="532" /></g></g><g transform="matrix(0.3956857 0 0 0.395056 48.02018 378.6347)"><g transform="matrix(1 0 0 1 0 0)"><image x="0" y="0" xlink:href="img_62.png" width="1261" height="773" /></g></g></g><g clip-path="url(#5)"><path transform="matrix(1 0 0 -1 0 841)" d="M48.77049 1054.363L543.2282 1054.363L543.2282 1054.363L543.2282 771.4941L543.2282 771.4941L48.77049 771.4941z" stroke="none" fill="#F8F8F8" fill-rule="winding" /><path transform="matrix(1 0 0 -1 0 841)" d="M48.77049 1054.363L75.78184 1054.363L75.78184 1054.363L75.78184 709.2188L75.78184 709.2188L48.77049 709.2188z" stroke="none" fill="#F8F8F8" fill-rule="winding" /><path transform="matrix(1 0 0 -1 0 841)" d="M75.03152 1054.363L75.78184 1054.363L75.78184 1054.363L75.78184 709.2188L75.78184 709.2188L75.03152 709.2188z" stroke="none" fill="#DDDDDD" fill-rule="winding" /></g><g transform="matrix(0.2399193 0 0 0.2399322 0 -14.78003)"><g transform="matrix(1 0 0 1 0 0)"><image x="0" y="0" xlink:href="img_02.png" width="2480" height="295" /></g></g><g transform="matrix(0.4798387 0 0 0.4798876 0 798.29)"><g transform="matrix(1 0 0 1 0 0)"><image x="0" y="0" xlink:href="img_03.png" width="1240" height="89" /></g></g></g></g></g></svg>