<svg xmlns="http://www.w3.org/2000/svg" xmlns:xlink="http://www.w3.org/1999/xlink" id="body_37" preserveAspectRatio="xMinYMin meet" viewBox="0 0 793 1121"><defs><clipPath id="1"><path d="M0 841L0 0L0 0L595 0L595 0L595 841L595 841L0 841z" /></clipPath><clipPath id="2"><path d="M0 56L595 56L595 56L595 784.5566L595 784.5566L0 784.5566z" /></clipPath><clipPath id="3"><path d="M48.77049 56L543.2282 56L543.2282 56L543.2282 339.6191L543.2282 339.6191L48.77049 339.6191z" /></clipPath><clipPath id="4"><path d="M0 56L595 56L595 56L595 784.5566L595 784.5566L0 784.5566z" /></clipPath><clipPath id="5"><path d="M48.77049 56L543.2282 56L543.2282 56L543.2282 339.6191L543.2282 339.6191L48.77049 339.6191z" /></clipPath></defs><g transform="matrix(1.333333 0 0 1.333333 0 0)"><g><g clip-path="url(#1)"><g clip-path="url(#2)"><path transform="matrix(1 0 0 -1 0 841)" d="M0 27013.02L595 27013.02L595 27013.02L595 -5690.971L595 -5690.971L0 -5690.971z" stroke="none" fill="#FFFFFF" fill-rule="winding" /><path transform="matrix(1 0 0 -1 0 841)" d="M48.39533 498.3789L48.39533 857.0293C 48.39533 857.5488 48.57846 857.9922 48.94473 858.3574C 49.311 858.7246 49.75313 858.9063 50.27112 858.9063L50.27112 858.9063L544.7289 858.9063C 545.2468 858.9063 545.6889 858.7246 546.0552 858.3574C 546.4214 857.9922 546.6046 857.5488 546.6047 857.0293L546.6047 857.0293L546.6047 498.3789C 546.6046 497.8613 546.4214 497.4199 546.0552 497.0547C 545.6889 496.6875 545.2468 496.5039 544.7289 496.5039L544.7289 496.5039L50.27112 496.5039C 49.75313 496.5039 49.311 496.6875 48.94473 497.0547C 48.57846 497.4199 48.39533 497.8613 48.39533 498.3789z" stroke="none" fill="#F8F8F8" fill-rule="winding" /><path transform="matrix(1 0 0 -1 0 841)" d="M48.39533 498.3789L48.39533 857.0293C 48.39533 857.5488 48.57846 857.9922 48.94473 858.3574C 49.311 858.7246 49.75313 858.9063 50.27112 858.9063L50.27112 858.9063L544.7289 858.9063C 545.2468 858.9063 545.6889 858.7246 546.0552 858.3574C 546.4214 857.9922 546.6046 857.5488 546.6047 857.0293L546.6047 857.0293L546.6047 498.3789C 546.6046 497.8613 546.4214 497.4199 546.0552 497.0547C 545.6889 496.6875 545.2468 496.5039 544.7289 496.5039L544.7289 496.5039L50.27112 496.5039C 49.75313 496.5039 49.311 496.6875 48.94473 497.0547C 48.57846 497.4199 48.39533 497.8613 48.39533 498.3789z" stroke="#E7EAED" stroke-width="0.7503152" fill="none" /></g><g clip-path="url(#3)"><path transform="matrix(1 0 0 -1 0 841)" d="M48.77049 852.5273L543.2282 852.5273L543.2282 852.5273L543.2282 501.3809L543.2282 501.3809L48.77049 501.3809z" stroke="none" fill="#F8F8F8" fill-rule="winding" /></g><g clip-path="url(#4)"><g transform="matrix(0.7503152 0 0 0.7503152 195.8323 378.6367)"><g transform="matrix(1 0 0 1 0 0)"><image x="0" y="0" xlink:href="img_81.png" width="272" height="443" /></g></g></g><g clip-path="url(#5)"><path transform="matrix(1 0 0 -1 0 841)" d="M48.77049 852.5273L543.2282 852.5273L543.2282 852.5273L543.2282 501.3809L543.2282 501.3809L48.77049 501.3809z" stroke="none" fill="#F8F8F8" fill-rule="winding" /><path transform="matrix(1 0 0 -1 0 841)" d="M48.77049 852.5273L75.78184 852.5273L75.78184 852.5273L75.78184 403.8398L75.78184 403.8398L48.77049 403.8398z" stroke="none" fill="#F8F8F8" fill-rule="winding" /><path transform="matrix(1 0 0 -1 0 841)" d="M75.03152 852.5273L75.78184 852.5273L75.78184 852.5273L75.78184 403.8398L75.78184 403.8398L75.03152 403.8398z" stroke="none" fill="#DDDDDD" fill-rule="winding" /></g><g transform="matrix(0.2399193 0 0 0.2399322 0 -14.78003)"><g transform="matrix(1 0 0 1 0 0)"><image x="0" y="0" xlink:href="img_02.png" width="2480" height="295" /></g></g><g transform="matrix(0.4798387 0 0 0.4798876 0 798.29)"><g transform="matrix(1 0 0 1 0 0)"><image x="0" y="0" xlink:href="img_03.png" width="1240" height="89" /></g></g></g></g></g></svg>