<svg xmlns="http://www.w3.org/2000/svg" xmlns:xlink="http://www.w3.org/1999/xlink" id="body_10" preserveAspectRatio="xMinYMin meet" viewBox="0 0 793 1121"><defs><clipPath id="1"><path d="M0 841L0 0L0 0L595 0L595 0L595 841L595 841L0 841z" /></clipPath><clipPath id="2"><path d="M0 56L595 56L595 56L595 784.5562L595 784.5562L0 784.5562z" /></clipPath></defs><g transform="matrix(1.333333 0 0 1.333333 0 0)"><g><g clip-path="url(#1)"><g clip-path="url(#2)"><path transform="matrix(1 0 0 -1 0 841)" d="M0 7342.005L595 7342.005L595 7342.005L595 -25361.98L595 -25361.98L0 -25361.98z" stroke="none" fill="#FFFFFF" fill-rule="winding" /><g transform="matrix(0.7503152 0 0 0.7503152 59.27491 56)"><g transform="matrix(1 0 0 1 0 0)"><image x="0" y="0" xlink:href="img_20.png" width="635" height="601" /></g></g><path transform="matrix(1 0 0 -1 0 841)" d="M62.27617 263.9058C 62.27617 263.3882 62.09303 262.9463 61.72676 262.5796C 61.36049 262.2134 60.91836 262.0303 60.40038 262.0303C 59.88239 262.0303 59.44026 262.2134 59.07399 262.5796C 58.70772 262.9463 58.52458 263.3882 58.52459 263.9058C 58.52458 264.4238 58.70772 264.8667 59.07399 265.2324C 59.44026 265.5986 59.88239 265.7817 60.40038 265.7817C 60.91836 265.7817 61.36049 265.5986 61.72676 265.2324C 62.09303 264.8667 62.27617 264.4238 62.27617 263.9058z" stroke="none" fill="#333333" fill-rule="winding" /><path transform="matrix(1 0 0 -1 0 841)" d="M84.78562 243.6475C 84.78562 243.1294 84.60249 242.6875 84.23622 242.3213C 83.86995 241.9556 83.42782 241.7725 82.90984 241.7715C 82.39185 241.7725 81.94971 241.9556 81.58344 242.3213C 81.21717 242.6875 81.03404 243.1294 81.03405 243.6475C 81.03404 244.1655 81.21717 244.6079 81.58344 244.9736C 81.94971 245.3398 82.39185 245.5234 82.90984 245.5234C 83.42782 245.5234 83.86995 245.3398 84.23622 244.9736C 84.60249 244.6079 84.78562 244.1655 84.78562 243.6475z" stroke="#333333" stroke-width="0.7503152" fill="none" /><path transform="matrix(1 0 0 -1 0 841)" d="M84.78562 228.6411C 84.78562 228.123 84.60249 227.6812 84.23622 227.3149C 83.86995 226.9487 83.42782 226.7651 82.90984 226.7651C 82.39185 226.7651 81.94971 226.9487 81.58344 227.3149C 81.21717 227.6812 81.03404 228.123 81.03405 228.6411C 81.03404 229.1592 81.21717 229.6016 81.58344 229.9683C 81.94971 230.334 82.39185 230.5171 82.90984 230.5171C 83.42782 230.5171 83.86995 230.334 84.23622 229.9683C 84.60249 229.6016 84.78562 229.1592 84.78562 228.6411z" stroke="#333333" stroke-width="0.7503152" fill="none" /><path transform="matrix(1 0 0 -1 0 841)" d="M62.27617 213.6348C 62.27617 213.1167 62.09303 212.6748 61.72676 212.3086C 61.36049 211.9429 60.91836 211.7598 60.40038 211.7593C 59.88239 211.7598 59.44026 211.9429 59.07399 212.3086C 58.70772 212.6748 58.52458 213.1167 58.52459 213.6348C 58.52458 214.1528 58.70772 214.5957 59.07399 214.9619C 59.44026 215.3276 59.88239 215.5107 60.40038 215.5107C 60.91836 215.5107 61.36049 215.3276 61.72676 214.9619C 62.09303 214.5957 62.27617 214.1528 62.27617 213.6348z" stroke="none" fill="#333333" fill-rule="winding" /><path transform="matrix(1 0 0 -1 0 841)" d="M84.78562 194.1265C 84.78562 193.6084 84.60249 193.167 84.23622 192.8003C 83.86995 192.4346 83.42782 192.2515 82.90984 192.251C 82.39185 192.2515 81.94971 192.4346 81.58344 192.8003C 81.21717 193.167 81.03404 193.6084 81.03405 194.1265C 81.03404 194.6445 81.21717 195.0874 81.58344 195.4536C 81.94971 195.8193 82.39185 196.0024 82.90984 196.0024C 83.42782 196.0024 83.86995 195.8193 84.23622 195.4536C 84.60249 195.0874 84.78562 194.6445 84.78562 194.1265z" stroke="#333333" stroke-width="0.7503152" fill="none" /><path transform="matrix(1 0 0 -1 0 841)" d="M84.78562 179.1201C 84.78562 178.603 84.60249 178.1611 84.23622 177.7949C 83.86995 177.4287 83.42782 177.2451 82.90984 177.2446C 82.39185 177.2451 81.94971 177.4287 81.58344 177.7949C 81.21717 178.1611 81.03404 178.603 81.03405 179.1201C 81.03404 179.6382 81.21717 180.0811 81.58344 180.4473C 81.94971 180.813 82.39185 180.9961 82.90984 180.9961C 83.42782 180.9961 83.86995 180.813 84.23622 180.4473C 84.60249 180.0811 84.78562 179.6382 84.78562 179.1201z" stroke="#333333" stroke-width="0.7503152" fill="none" /><path transform="matrix(1 0 0 -1 0 841)" d="M84.78562 164.1143C 84.78562 163.5962 84.60249 163.1543 84.23622 162.7876C 83.86995 162.4224 83.42782 162.2388 82.90984 162.2383C 82.39185 162.2388 81.94971 162.4224 81.58344 162.7876C 81.21717 163.1543 81.03404 163.5962 81.03405 164.1143C 81.03404 164.6323 81.21717 165.0747 81.58344 165.4409C 81.94971 165.8066 82.39185 165.9897 82.90984 165.9897C 83.42782 165.9897 83.86995 165.8066 84.23622 165.4409C 84.60249 165.0747 84.78562 164.6323 84.78562 164.1143z" stroke="#333333" stroke-width="0.7503152" fill="none" /><path transform="matrix(1 0 0 -1 0 841)" d="M62.27617 149.1079C 62.27617 148.5898 62.09303 148.1479 61.72676 147.7817C 61.36049 147.415 60.91836 147.2319 60.40038 147.2319C 59.88239 147.2319 59.44026 147.415 59.07399 147.7817C 58.70772 148.1479 58.52458 148.5898 58.52459 149.1079C 58.52458 149.626 58.70772 150.0684 59.07399 150.4346C 59.44026 150.8003 59.88239 150.9834 60.40038 150.9834C 60.91836 150.9834 61.36049 150.8003 61.72676 150.4346C 62.09303 150.0684 62.27617 149.626 62.27617 149.1079z" stroke="none" fill="#333333" fill-rule="winding" /><path transform="matrix(1 0 0 -1 0 841)" d="M84.78562 128.8491C 84.78562 128.3311 84.60249 127.8892 84.23622 127.5229C 83.86995 127.1567 83.42782 126.9736 82.90984 126.9736C 82.39185 126.9736 81.94971 127.1567 81.58344 127.5229C 81.21717 127.8892 81.03404 128.3311 81.03405 128.8491C 81.03404 129.3672 81.21717 129.8101 81.58344 130.1753C 81.94971 130.542 82.39185 130.7251 82.90984 130.7251C 83.42782 130.7251 83.86995 130.542 84.23622 130.1753C 84.60249 129.8101 84.78562 129.3672 84.78562 128.8491z" stroke="#333333" stroke-width="0.7503152" fill="none" /><path transform="matrix(1 0 0 -1 0 841)" d="M84.78562 113.8428C 84.78562 113.3257 84.60249 112.8838 84.23622 112.5176C 83.86995 112.1509 83.42782 111.9678 82.90984 111.9673C 82.39185 111.9678 81.94971 112.1509 81.58344 112.5176C 81.21717 112.8838 81.03404 113.3257 81.03405 113.8428C 81.03404 114.3618 81.21717 114.8042 81.58344 115.1699C 81.94971 115.5356 82.39185 115.7188 82.90984 115.7188C 83.42782 115.7188 83.86995 115.5356 84.23622 115.1699C 84.60249 114.8042 84.78562 114.3618 84.78562 113.8428z" stroke="#333333" stroke-width="0.7503152" fill="none" /><path transform="matrix(1 0 0 -1 0 841)" d="M84.78562 98.83643C 84.78562 98.31934 84.60249 97.87744 84.23622 97.51123C 83.86995 97.14453 83.42782 96.96143 82.90984 96.96094C 82.39185 96.96143 81.94971 97.14453 81.58344 97.51123C 81.21717 97.87744 81.03404 98.31934 81.03405 98.83643C 81.03404 99.35449 81.21717 99.79736 81.58344 100.1636C 81.94971 100.5293 82.39185 100.7124 82.90984 100.7124C 83.42782 100.7124 83.86995 100.5293 84.23622 100.1636C 84.60249 99.79736 84.78562 99.35449 84.78562 98.83643z" stroke="#333333" stroke-width="0.7503152" fill="none" /></g><g transform="matrix(0.2399193 0 0 0.2399322 0 -14.78003)"><g transform="matrix(1 0 0 1 0 0)"><image x="0" y="0" xlink:href="img_02.png" width="2480" height="295" /></g></g><g transform="matrix(0.4798387 0 0 0.4798876 0 798.29)"><g transform="matrix(1 0 0 1 0 0)"><image x="0" y="0" xlink:href="img_03.png" width="1240" height="89" /></g></g></g></g></g></svg>