<svg xmlns="http://www.w3.org/2000/svg" xmlns:xlink="http://www.w3.org/1999/xlink" id="body_15" preserveAspectRatio="xMinYMin meet" viewBox="0 0 793 1121"><defs><clipPath id="1"><path d="M0 841L0 0L0 0L595 0L595 0L595 841L595 841L0 841z" /></clipPath><clipPath id="2"><path d="M0 56L595 56L595 56L595 784.5566L595 784.5566L0 784.5566z" /></clipPath><clipPath id="3"><path d="M48.77049 56L543.2282 56L543.2282 56L543.2282 191.0566L543.2282 191.0566L48.77049 191.0566z" /></clipPath><clipPath id="4"><path d="M0 56L595 56L595 56L595 784.5566L595 784.5566L0 784.5566z" /></clipPath><clipPath id="5"><path d="M48.77049 242.0781L543.2282 242.0781L543.2282 242.0781L543.2282 444.6641L543.2282 444.6641L48.77049 444.6641z" /></clipPath><clipPath id="6"><path d="M0 56L595 56L595 56L595 784.5566L595 784.5566L0 784.5566z" /></clipPath><clipPath id="7"><path d="M48.77049 495.6855L543.2282 495.6855L543.2282 495.6855L543.2282 698.2705L543.2282 698.2705L48.77049 698.2705z" /></clipPath><clipPath id="8"><path d="M48.77049 56L543.2282 56L543.2282 56L543.2282 191.0566L543.2282 191.0566L48.77049 191.0566z" /></clipPath><clipPath id="9"><path d="M48.77049 242.0781L543.2282 242.0781L543.2282 242.0781L543.2282 444.6641L543.2282 444.6641L48.77049 444.6641z" /></clipPath><clipPath id="10"><path d="M48.77049 495.6855L543.2282 495.6855L543.2282 495.6855L543.2282 698.2705L543.2282 698.2705L48.77049 698.2705z" /></clipPath></defs><g transform="matrix(1.333333 0 0 1.333333 0 0)"><g><g clip-path="url(#1)"><g clip-path="url(#2)"><path transform="matrix(1 0 0 -1 0 841)" d="M0 10984.79L595 10984.79L595 10984.79L595 -21719.21L595 -21719.21L0 -21719.21z" stroke="none" fill="#FFFFFF" fill-rule="winding" /><path transform="matrix(1 0 0 -1 0 841)" d="M48.39533 646.9414L48.39533 906.5508C 48.39533 907.0693 48.57846 907.5117 48.94473 907.8779C 49.311 908.2432 49.75313 908.4268 50.27112 908.4268L50.27112 908.4268L544.7289 908.4268C 545.2468 908.4268 545.6889 908.2432 546.0552 907.8779C 546.4214 907.5117 546.6046 907.0693 546.6047 906.5508L546.6047 906.5508L546.6047 646.9414C 546.6046 646.4238 546.4214 645.9814 546.0552 645.6162C 545.6889 645.25 545.2468 645.0664 544.7289 645.0654L544.7289 645.0654L50.27112 645.0654C 49.75313 645.0664 49.311 645.25 48.94473 645.6162C 48.57846 645.9814 48.39533 646.4238 48.39533 646.9414z" stroke="none" fill="#F8F8F8" fill-rule="winding" /><path transform="matrix(1 0 0 -1 0 841)" d="M48.39533 646.9414L48.39533 906.5508C 48.39533 907.0693 48.57846 907.5117 48.94473 907.8779C 49.311 908.2432 49.75313 908.4268 50.27112 908.4268L50.27112 908.4268L544.7289 908.4268C 545.2468 908.4268 545.6889 908.2432 546.0552 907.8779C 546.4214 907.5117 546.6046 907.0693 546.6047 906.5508L546.6047 906.5508L546.6047 646.9414C 546.6046 646.4238 546.4214 645.9814 546.0552 645.6162C 545.6889 645.25 545.2468 645.0664 544.7289 645.0654L544.7289 645.0654L50.27112 645.0654C 49.75313 645.0664 49.311 645.25 48.94473 645.6162C 48.57846 645.9814 48.39533 646.4238 48.39533 646.9414z" stroke="#E7EAED" stroke-width="0.7503152" fill="none" /></g><g clip-path="url(#3)"><path transform="matrix(1 0 0 -1 0 841)" d="M48.77049 902.0488L543.2282 902.0488L543.2282 902.0488L543.2282 649.9434L543.2282 649.9434L48.77049 649.9434z" stroke="none" fill="#F8F8F8" fill-rule="winding" /></g><g clip-path="url(#4)"><path transform="matrix(1 0 0 -1 0 841)" d="M48.39533 393.335L48.39533 603.4238C 48.39533 603.9414 48.57846 604.3838 48.94473 604.75C 49.311 605.1162 49.75313 605.2988 50.27112 605.2988L50.27112 605.2988L544.7289 605.2988C 545.2468 605.2988 545.6889 605.1162 546.0552 604.75C 546.4214 604.3838 546.6046 603.9414 546.6047 603.4238L546.6047 603.4238L546.6047 393.335C 546.6046 392.8174 546.4214 392.375 546.0552 392.0098C 545.6889 391.6436 545.2468 391.46 544.7289 391.46L544.7289 391.46L50.27112 391.46C 49.75313 391.46 49.311 391.6436 48.94473 392.0098C 48.57846 392.375 48.39533 392.8174 48.39533 393.335z" stroke="none" fill="#F8F8F8" fill-rule="winding" /><path transform="matrix(1 0 0 -1 0 841)" d="M48.39533 393.335L48.39533 603.4238C 48.39533 603.9414 48.57846 604.3838 48.94473 604.75C 49.311 605.1162 49.75313 605.2988 50.27112 605.2988L50.27112 605.2988L544.7289 605.2988C 545.2468 605.2988 545.6889 605.1162 546.0552 604.75C 546.4214 604.3838 546.6046 603.9414 546.6047 603.4238L546.6047 603.4238L546.6047 393.335C 546.6046 392.8174 546.4214 392.375 546.0552 392.0098C 545.6889 391.6436 545.2468 391.46 544.7289 391.46L544.7289 391.46L50.27112 391.46C 49.75313 391.46 49.311 391.6436 48.94473 392.0098C 48.57846 392.375 48.39533 392.8174 48.39533 393.335z" stroke="#E7EAED" stroke-width="0.7503152" fill="none" /></g><g clip-path="url(#5)"><path transform="matrix(1 0 0 -1 0 841)" d="M48.77049 598.9219L543.2282 598.9219L543.2282 598.9219L543.2282 396.3359L543.2282 396.3359L48.77049 396.3359z" stroke="none" fill="#F8F8F8" fill-rule="winding" /></g><g clip-path="url(#6)"><path transform="matrix(1 0 0 -1 0 841)" d="M48.39533 139.7285L48.39533 349.8164C 48.39533 350.335 48.57846 350.7773 48.94473 351.1436C 49.311 351.5098 49.75313 351.6924 50.27112 351.6924L50.27112 351.6924L544.7289 351.6924C 545.2468 351.6924 545.6889 351.5098 546.0552 351.1436C 546.4214 350.7773 546.6046 350.335 546.6047 349.8164L546.6047 349.8164L546.6047 139.7285C 546.6046 139.2109 546.4214 138.7695 546.0552 138.4033C 545.6889 138.0371 545.2468 137.8535 544.7289 137.8525L544.7289 137.8525L50.27112 137.8525C 49.75313 137.8535 49.311 138.0371 48.94473 138.4033C 48.57846 138.7695 48.39533 139.2109 48.39533 139.7285z" stroke="none" fill="#F8F8F8" fill-rule="winding" /><path transform="matrix(1 0 0 -1 0 841)" d="M48.39533 139.7285L48.39533 349.8164C 48.39533 350.335 48.57846 350.7773 48.94473 351.1436C 49.311 351.5098 49.75313 351.6924 50.27112 351.6924L50.27112 351.6924L544.7289 351.6924C 545.2468 351.6924 545.6889 351.5098 546.0552 351.1436C 546.4214 350.7773 546.6046 350.335 546.6047 349.8164L546.6047 349.8164L546.6047 139.7285C 546.6046 139.2109 546.4214 138.7695 546.0552 138.4033C 545.6889 138.0371 545.2468 137.8535 544.7289 137.8525L544.7289 137.8525L50.27112 137.8525C 49.75313 137.8535 49.311 138.0371 48.94473 138.4033C 48.57846 138.7695 48.39533 139.2109 48.39533 139.7285z" stroke="#E7EAED" stroke-width="0.7503152" fill="none" /></g><g clip-path="url(#7)"><path transform="matrix(1 0 0 -1 0 841)" d="M48.77049 345.3145L543.2282 345.3145L543.2282 345.3145L543.2282 142.7295L543.2282 142.7295L48.77049 142.7295z" stroke="none" fill="#F8F8F8" fill-rule="winding" /></g><g clip-path="url(#8)"><path transform="matrix(1 0 0 -1 0 841)" d="M48.77049 902.0488L543.2282 902.0488L543.2282 902.0488L543.2282 649.9434L543.2282 649.9434L48.77049 649.9434z" stroke="none" fill="#F8F8F8" fill-rule="winding" /><path transform="matrix(1 0 0 -1 0 841)" d="M48.77049 902.0488L75.78184 902.0488L75.78184 902.0488L75.78184 591.418L75.78184 591.418L48.77049 591.418z" stroke="none" fill="#F8F8F8" fill-rule="winding" /><path transform="matrix(1 0 0 -1 0 841)" d="M75.03152 902.0488L75.78184 902.0488L75.78184 902.0488L75.78184 591.418L75.78184 591.418L75.03152 591.418z" stroke="none" fill="#DDDDDD" fill-rule="winding" /></g><g clip-path="url(#9)"><path transform="matrix(1 0 0 -1 0 841)" d="M48.77049 598.9219L543.2282 598.9219L543.2282 598.9219L543.2282 396.3359L543.2282 396.3359L48.77049 396.3359z" stroke="none" fill="#F8F8F8" fill-rule="winding" /><path transform="matrix(1 0 0 -1 0 841)" d="M48.77049 598.9219L75.78184 598.9219L75.78184 598.9219L75.78184 340.0625L75.78184 340.0625L48.77049 340.0625z" stroke="none" fill="#F8F8F8" fill-rule="winding" /><path transform="matrix(1 0 0 -1 0 841)" d="M75.03152 598.9219L75.78184 598.9219L75.78184 598.9219L75.78184 340.0625L75.78184 340.0625L75.03152 340.0625z" stroke="none" fill="#DDDDDD" fill-rule="winding" /></g><g clip-path="url(#10)"><path transform="matrix(1 0 0 -1 0 841)" d="M48.77049 345.3145L543.2282 345.3145L543.2282 345.3145L543.2282 142.7295L543.2282 142.7295L48.77049 142.7295z" stroke="none" fill="#F8F8F8" fill-rule="winding" /><path transform="matrix(1 0 0 -1 0 841)" d="M48.77049 345.3145L75.78184 345.3145L75.78184 345.3145L75.78184 86.45605L75.78184 86.45605L48.77049 86.45605z" stroke="none" fill="#F8F8F8" fill-rule="winding" /><path transform="matrix(1 0 0 -1 0 841)" d="M75.03152 345.3145L75.78184 345.3145L75.78184 345.3145L75.78184 86.45605L75.78184 86.45605L75.03152 86.45605z" stroke="none" fill="#DDDDDD" fill-rule="winding" /></g><g transform="matrix(0.2399193 0 0 0.2399322 0 -14.78003)"><g transform="matrix(1 0 0 1 0 0)"><image x="0" y="0" xlink:href="img_02.png" width="2480" height="295" /></g></g><g transform="matrix(0.4798387 0 0 0.4798876 0 798.29)"><g transform="matrix(1 0 0 1 0 0)"><image x="0" y="0" xlink:href="img_03.png" width="1240" height="89" /></g></g></g></g></g></svg>