<svg xmlns="http://www.w3.org/2000/svg" xmlns:xlink="http://www.w3.org/1999/xlink" id="body_75" preserveAspectRatio="xMinYMin meet" viewBox="0 0 793 1121"><defs><clipPath id="1"><path d="M0 841L0 0L0 0L595 0L595 0L595 841L595 841L0 841z" /></clipPath><clipPath id="2"><path d="M0 56L595 56L595 56L595 784.5547L595 784.5547L0 784.5547z" /></clipPath><clipPath id="3"><path d="M48.77049 56L543.2282 56L543.2282 56L543.2282 784.5547L543.2282 784.5547L48.77049 784.5547z" /></clipPath></defs><g transform="matrix(1.333333 0 0 1.333333 0 0)"><g><g clip-path="url(#1)"><g clip-path="url(#2)"><path transform="matrix(1 0 0 -1 0 841)" d="M0 54698.15L595 54698.15L595 54698.15L595 -3279.457L595 -3279.457L0 -3279.457z" stroke="none" fill="#FFFFFF" fill-rule="winding" /><path transform="matrix(1 0 0 -1 0 841)" d="M48.39533 -41.09766L48.39533 1318.473C 48.39533 1318.996 48.57846 1319.438 48.94473 1319.805C 49.311 1320.168 49.75313 1320.352 50.27112 1320.352L50.27112 1320.352L544.7289 1320.352C 545.2468 1320.352 545.6889 1320.168 546.0552 1319.805C 546.4214 1319.438 546.6046 1318.996 546.6047 1318.473L546.6047 1318.473L546.6047 -41.09766C 546.6046 -41.61328 546.4214 -42.05078 546.0552 -42.42188C 545.6889 -42.78516 545.2468 -42.96484 544.7289 -42.97266L544.7289 -42.97266L50.27112 -42.97266C 49.75313 -42.96484 49.311 -42.78516 48.94473 -42.42188C 48.57846 -42.05078 48.39533 -41.61328 48.39533 -41.09766z" stroke="none" fill="#F8F8F8" fill-rule="winding" /><path transform="matrix(1 0 0 -1 0 841)" d="M48.39533 -41.09766L48.39533 1318.473C 48.39533 1318.996 48.57846 1319.438 48.94473 1319.805C 49.311 1320.168 49.75313 1320.352 50.27112 1320.352L50.27112 1320.352L544.7289 1320.352C 545.2468 1320.352 545.6889 1320.168 546.0552 1319.805C 546.4214 1319.438 546.6046 1318.996 546.6047 1318.473L546.6047 1318.473L546.6047 -41.09766C 546.6046 -41.61328 546.4214 -42.05078 546.0552 -42.42188C 545.6889 -42.78516 545.2468 -42.96484 544.7289 -42.97266L544.7289 -42.97266L50.27112 -42.97266C 49.75313 -42.96484 49.311 -42.78516 48.94473 -42.42188C 48.57846 -42.05078 48.39533 -41.61328 48.39533 -41.09766z" stroke="#E7EAED" stroke-width="0.7503152" fill="none" /></g><g clip-path="url(#3)"><path transform="matrix(1 0 0 -1 0 841)" d="M48.77049 1313.973L543.2282 1313.973L543.2282 1313.973L543.2282 -38.09375L543.2282 -38.09375L48.77049 -38.09375z" stroke="none" fill="#F8F8F8" fill-rule="winding" /><path transform="matrix(1 0 0 -1 0 841)" d="M48.77049 1313.973L543.2282 1313.973L543.2282 1313.973L543.2282 -38.09375L543.2282 -38.09375L48.77049 -38.09375z" stroke="none" fill="#F8F8F8" fill-rule="winding" /><path transform="matrix(1 0 0 -1 0 841)" d="M48.77049 1313.973L75.78184 1313.973L75.78184 1313.973L75.78184 -394.4961L75.78184 -394.4961L48.77049 -394.4961z" stroke="none" fill="#F8F8F8" fill-rule="winding" /><path transform="matrix(1 0 0 -1 0 841)" d="M75.03152 1313.973L75.78184 1313.973L75.78184 1313.973L75.78184 -394.4961L75.78184 -394.4961L75.03152 -394.4961z" stroke="none" fill="#DDDDDD" fill-rule="winding" /></g><g transform="matrix(0.2399193 0 0 0.2399322 0 -14.78003)"><g transform="matrix(1 0 0 1 0 0)"><image x="0" y="0" xlink:href="img_02.png" width="2480" height="295" /></g></g><g transform="matrix(0.4798387 0 0 0.4798876 0 798.29)"><g transform="matrix(1 0 0 1 0 0)"><image x="0" y="0" xlink:href="img_03.png" width="1240" height="89" /></g></g></g></g></g></svg>