<svg xmlns="http://www.w3.org/2000/svg" xmlns:xlink="http://www.w3.org/1999/xlink" id="body_21" preserveAspectRatio="xMinYMin meet" viewBox="0 0 793 1121"><defs><clipPath id="1"><path d="M0 841L0 0L0 0L595 0L595 0L595 841L595 841L0 841z" /></clipPath><clipPath id="2"><path d="M0 56L595 56L595 56L595 784.5566L595 784.5566L0 784.5566z" /></clipPath><clipPath id="3"><path d="M48.77049 56L543.2282 56L543.2282 56L543.2282 164.0459L543.2282 164.0459L48.77049 164.0459z" /></clipPath><clipPath id="4"><path d="M0 56L595 56L595 56L595 784.5566L595 784.5566L0 784.5566z" /></clipPath><clipPath id="5"><path d="M48.77049 56L543.2282 56L543.2282 56L543.2282 164.0459L543.2282 164.0459L48.77049 164.0459z" /></clipPath></defs><g transform="matrix(1.333333 0 0 1.333333 0 0)"><g><g clip-path="url(#1)"><g clip-path="url(#2)"><path transform="matrix(1 0 0 -1 0 841)" d="M0 15356.12L595 15356.12L595 15356.12L595 -42621.49L595 -42621.49L0 -42621.49z" stroke="none" fill="#FFFFFF" fill-rule="winding" /><path transform="matrix(1 0 0 -1 0 841)" d="M48.39533 673.9531L48.39533 876.5381C 48.39533 877.0576 48.57846 877.5 48.94473 877.8662C 49.311 878.2314 49.75313 878.4141 50.27112 878.4141L50.27112 878.4141L544.7289 878.4141C 545.2468 878.4141 545.6889 878.2314 546.0552 877.8662C 546.4214 877.5 546.6046 877.0576 546.6047 876.5381L546.6047 876.5381L546.6047 673.9531C 546.6046 673.4355 546.4214 672.9932 546.0552 672.627C 545.6889 672.2617 545.2468 672.0791 544.7289 672.0771L544.7289 672.0771L50.27112 672.0771C 49.75313 672.0791 49.311 672.2617 48.94473 672.627C 48.57846 672.9932 48.39533 673.4355 48.39533 673.9531z" stroke="none" fill="#F8F8F8" fill-rule="winding" /><path transform="matrix(1 0 0 -1 0 841)" d="M48.39533 673.9531L48.39533 876.5381C 48.39533 877.0576 48.57846 877.5 48.94473 877.8662C 49.311 878.2314 49.75313 878.4141 50.27112 878.4141L50.27112 878.4141L544.7289 878.4141C 545.2468 878.4141 545.6889 878.2314 546.0552 877.8662C 546.4214 877.5 546.6046 877.0576 546.6047 876.5381L546.6047 876.5381L546.6047 673.9531C 546.6046 673.4355 546.4214 672.9932 546.0552 672.627C 545.6889 672.2617 545.2468 672.0791 544.7289 672.0771L544.7289 672.0771L50.27112 672.0771C 49.75313 672.0791 49.311 672.2617 48.94473 672.627C 48.57846 672.9932 48.39533 673.4355 48.39533 673.9531z" stroke="#E7EAED" stroke-width="0.7503152" fill="none" /></g><g clip-path="url(#3)"><path transform="matrix(1 0 0 -1 0 841)" d="M48.77049 872.0361L543.2282 872.0361L543.2282 872.0361L543.2282 676.9541L543.2282 676.9541L48.77049 676.9541z" stroke="none" fill="#F8F8F8" fill-rule="winding" /></g><g clip-path="url(#4)"><g transform="matrix(0.7503152 0 0 0.7503152 101.2926 180.5527)"><g transform="matrix(1 0 0 1 0 0)"><image x="0" y="0" xlink:href="img_45.png" width="524" height="741" /></g></g></g><g clip-path="url(#5)"><path transform="matrix(1 0 0 -1 0 841)" d="M48.77049 872.0361L543.2282 872.0361L543.2282 872.0361L543.2282 676.9541L543.2282 676.9541L48.77049 676.9541z" stroke="none" fill="#F8F8F8" fill-rule="winding" /><path transform="matrix(1 0 0 -1 0 841)" d="M48.77049 872.0361L75.78184 872.0361L75.78184 872.0361L75.78184 630.4346L75.78184 630.4346L48.77049 630.4346z" stroke="none" fill="#F8F8F8" fill-rule="winding" /><path transform="matrix(1 0 0 -1 0 841)" d="M75.03152 872.0361L75.78184 872.0361L75.78184 872.0361L75.78184 630.4346L75.78184 630.4346L75.03152 630.4346z" stroke="none" fill="#DDDDDD" fill-rule="winding" /></g><g transform="matrix(0.2399193 0 0 0.2399322 0 -14.78003)"><g transform="matrix(1 0 0 1 0 0)"><image x="0" y="0" xlink:href="img_02.png" width="2480" height="295" /></g></g><g transform="matrix(0.4798387 0 0 0.4798876 0 798.29)"><g transform="matrix(1 0 0 1 0 0)"><image x="0" y="0" xlink:href="img_03.png" width="1240" height="89" /></g></g></g></g></g></svg>