<svg xmlns="http://www.w3.org/2000/svg" xmlns:xlink="http://www.w3.org/1999/xlink" id="body_14" preserveAspectRatio="xMinYMin meet" viewBox="0 0 793 1121"><defs><clipPath id="1"><path d="M0 841L0 0L0 0L595 0L595 0L595 841L595 841L0 841z" /></clipPath><clipPath id="2"><path d="M0 56L595 56L595 56L595 784.5557L595 784.5557L0 784.5557z" /></clipPath><clipPath id="3"><path d="M48.77049 635.9932L543.2282 635.9932L543.2282 635.9932L543.2282 784.5557L543.2282 784.5557L48.77049 784.5557z" /></clipPath></defs><g transform="matrix(1.333333 0 0 1.333333 0 0)"><g><g clip-path="url(#1)"><g clip-path="url(#2)"><path transform="matrix(1 0 0 -1 0 841)" d="M0 10256.23L595 10256.23L595 10256.23L595 -47721.38L595 -47721.38L0 -47721.38z" stroke="none" fill="#FFFFFF" fill-rule="winding" /><path transform="matrix(1 0 0 -1 0 841)" d="M48.02018 327.3076L51.02144 327.3076L51.02144 327.3076L51.02144 274.0352L51.02144 274.0352L48.02018 274.0352z" stroke="none" fill="#DFE2E5" fill-rule="winding" /><path transform="matrix(1 0 0 -1 0 841)" d="M48.02018 238.0205L51.02144 238.0205L51.02144 238.0205L51.02144 223.0137L51.02144 223.0137L48.02018 223.0137z" stroke="none" fill="#DFE2E5" fill-rule="winding" /><g transform="matrix(0.7503152 0 0 0.7503152 119.3001 56)"><g transform="matrix(1 0 0 1 0 0)"><image x="0" y="0" xlink:href="img_32.png" width="475" height="600" /></g></g><path transform="matrix(1 0 0 -1 0 841)" d="M48.39533 -14.08594L48.39533 209.5088C 48.39533 210.0273 48.57846 210.4697 48.94473 210.8359C 49.311 211.2012 49.75313 211.3838 50.27112 211.3838L50.27112 211.3838L544.7289 211.3838C 545.2468 211.3838 545.6889 211.2012 546.0552 210.8359C 546.4214 210.4697 546.6046 210.0273 546.6047 209.5088L546.6047 209.5088L546.6047 -14.08594C 546.6046 -14.60254 546.4214 -15.04492 546.0552 -15.41113C 545.6889 -15.77734 545.2468 -15.96094 544.7289 -15.96094L544.7289 -15.96094L50.27112 -15.96094C 49.75313 -15.96094 49.311 -15.77734 48.94473 -15.41113C 48.57846 -15.04492 48.39533 -14.60254 48.39533 -14.08594z" stroke="none" fill="#F8F8F8" fill-rule="winding" /><path transform="matrix(1 0 0 -1 0 841)" d="M48.39533 -14.08594L48.39533 209.5088C 48.39533 210.0273 48.57846 210.4697 48.94473 210.8359C 49.311 211.2012 49.75313 211.3838 50.27112 211.3838L50.27112 211.3838L544.7289 211.3838C 545.2468 211.3838 545.6889 211.2012 546.0552 210.8359C 546.4214 210.4697 546.6046 210.0273 546.6047 209.5088L546.6047 209.5088L546.6047 -14.08594C 546.6046 -14.60254 546.4214 -15.04492 546.0552 -15.41113C 545.6889 -15.77734 545.2468 -15.96094 544.7289 -15.96094L544.7289 -15.96094L50.27112 -15.96094C 49.75313 -15.96094 49.311 -15.77734 48.94473 -15.41113C 48.57846 -15.04492 48.39533 -14.60254 48.39533 -14.08594z" stroke="#E7EAED" stroke-width="0.7503152" fill="none" /></g><g clip-path="url(#3)"><path transform="matrix(1 0 0 -1 0 841)" d="M48.77049 205.0068L543.2282 205.0068L543.2282 205.0068L543.2282 -11.08398L543.2282 -11.08398L48.77049 -11.08398z" stroke="none" fill="#F8F8F8" fill-rule="winding" /><path transform="matrix(1 0 0 -1 0 841)" d="M48.77049 205.0068L543.2282 205.0068L543.2282 205.0068L543.2282 -11.08398L543.2282 -11.08398L48.77049 -11.08398z" stroke="none" fill="#F8F8F8" fill-rule="winding" /><path transform="matrix(1 0 0 -1 0 841)" d="M48.77049 205.0068L75.78184 205.0068L75.78184 205.0068L75.78184 -71.10938L75.78184 -71.10938L48.77049 -71.10938z" stroke="none" fill="#F8F8F8" fill-rule="winding" /><path transform="matrix(1 0 0 -1 0 841)" d="M75.03152 205.0068L75.78184 205.0068L75.78184 205.0068L75.78184 -71.10938L75.78184 -71.10938L75.03152 -71.10938z" stroke="none" fill="#DDDDDD" fill-rule="winding" /></g><g transform="matrix(0.2399193 0 0 0.2399322 0 -14.78003)"><g transform="matrix(1 0 0 1 0 0)"><image x="0" y="0" xlink:href="img_02.png" width="2480" height="295" /></g></g><g transform="matrix(0.4798387 0 0 0.4798876 0 798.29)"><g transform="matrix(1 0 0 1 0 0)"><image x="0" y="0" xlink:href="img_03.png" width="1240" height="89" /></g></g></g></g></g></svg>