<svg xmlns="http://www.w3.org/2000/svg" xmlns:xlink="http://www.w3.org/1999/xlink" id="body_54" preserveAspectRatio="xMinYMin meet" viewBox="0 0 793 1121"><defs><clipPath id="1"><path d="M0 841L0 0L0 0L595 0L595 0L595 841L595 841L0 841z" /></clipPath><clipPath id="2"><path d="M0 56L595 56L595 56L595 784.5586L595 784.5586L0 784.5586z" /></clipPath><clipPath id="3"><path d="M48.77049 56L543.2282 56L543.2282 56L543.2282 96.51953L543.2282 96.51953L48.77049 96.51953z" /></clipPath><clipPath id="4"><path d="M0 56L595 56L595 56L595 784.5586L595 784.5586L0 784.5586z" /></clipPath><clipPath id="5"><path d="M48.77049 206.8125L543.2282 206.8125L543.2282 206.8125L543.2282 422.9063L543.2282 422.9063L48.77049 422.9063z" /></clipPath><clipPath id="6"><path d="M0 56L595 56L595 56L595 784.5586L595 784.5586L0 784.5586z" /></clipPath><clipPath id="7"><path d="M48.77049 56L543.2282 56L543.2282 56L543.2282 96.51953L543.2282 96.51953L48.77049 96.51953z" /></clipPath><clipPath id="8"><path d="M48.77049 206.8125L543.2282 206.8125L543.2282 206.8125L543.2282 422.9063L543.2282 422.9063L48.77049 422.9063z" /></clipPath></defs><g transform="matrix(1.333333 0 0 1.333333 0 0)"><g><g clip-path="url(#1)"><g clip-path="url(#2)"><path transform="matrix(1 0 0 -1 0 841)" d="M0 39398.47L595 39398.47L595 39398.47L595 -18579.14L595 -18579.14L0 -18579.14z" stroke="none" fill="#FFFFFF" fill-rule="winding" /><path transform="matrix(1 0 0 -1 0 841)" d="M48.39533 741.4805L48.39533 1908.223C 48.39533 1908.738 48.57846 1909.184 48.94473 1909.547C 49.311 1909.914 49.75313 1910.098 50.27112 1910.098L50.27112 1910.098L544.7289 1910.098C 545.2468 1910.098 545.6889 1909.914 546.0552 1909.547C 546.4214 1909.184 546.6046 1908.738 546.6047 1908.223L546.6047 1908.223L546.6047 741.4805C 546.6046 740.9648 546.4214 740.5234 546.0552 740.1563C 545.6889 739.7891 545.2468 739.6094 544.7289 739.6055L544.7289 739.6055L50.27112 739.6055C 49.75313 739.6094 49.311 739.7891 48.94473 740.1563C 48.57846 740.5234 48.39533 740.9648 48.39533 741.4805z" stroke="none" fill="#F8F8F8" fill-rule="winding" /><path transform="matrix(1 0 0 -1 0 841)" d="M48.39533 741.4805L48.39533 1908.223C 48.39533 1908.738 48.57846 1909.184 48.94473 1909.547C 49.311 1909.914 49.75313 1910.098 50.27112 1910.098L50.27112 1910.098L544.7289 1910.098C 545.2468 1910.098 545.6889 1909.914 546.0552 1909.547C 546.4214 1909.184 546.6046 1908.738 546.6047 1908.223L546.6047 1908.223L546.6047 741.4805C 546.6046 740.9648 546.4214 740.5234 546.0552 740.1563C 545.6889 739.7891 545.2468 739.6094 544.7289 739.6055L544.7289 739.6055L50.27112 739.6055C 49.75313 739.6094 49.311 739.7891 48.94473 740.1563C 48.57846 740.5234 48.39533 740.9648 48.39533 741.4805z" stroke="#E7EAED" stroke-width="0.7503152" fill="none" /></g><g clip-path="url(#3)"><path transform="matrix(1 0 0 -1 0 841)" d="M48.77049 1903.719L543.2282 1903.719L543.2282 1903.719L543.2282 744.4805L543.2282 744.4805L48.77049 744.4805z" stroke="none" fill="#F8F8F8" fill-rule="winding" /></g><g clip-path="url(#4)"><path transform="matrix(1 0 0 -1 0 841)" d="M48.39533 415.0938L48.39533 638.6875C 48.39533 639.207 48.57846 639.6523 48.94473 640.0195C 49.311 640.3828 49.75313 640.5625 50.27112 640.5625L50.27112 640.5625L544.7289 640.5625C 545.2468 640.5625 545.6889 640.3828 546.0552 640.0195C 546.4214 639.6523 546.6046 639.207 546.6047 638.6875L546.6047 638.6875L546.6047 415.0938C 546.6046 414.5781 546.4214 414.1367 546.0552 413.7734C 545.6889 413.4063 545.2468 413.2227 544.7289 413.2188L544.7289 413.2188L50.27112 413.2188C 49.75313 413.2227 49.311 413.4063 48.94473 413.7734C 48.57846 414.1367 48.39533 414.5781 48.39533 415.0938z" stroke="none" fill="#F8F8F8" fill-rule="winding" /><path transform="matrix(1 0 0 -1 0 841)" d="M48.39533 415.0938L48.39533 638.6875C 48.39533 639.207 48.57846 639.6523 48.94473 640.0195C 49.311 640.3828 49.75313 640.5625 50.27112 640.5625L50.27112 640.5625L544.7289 640.5625C 545.2468 640.5625 545.6889 640.3828 546.0552 640.0195C 546.4214 639.6523 546.6046 639.207 546.6047 638.6875L546.6047 638.6875L546.6047 415.0938C 546.6046 414.5781 546.4214 414.1367 546.0552 413.7734C 545.6889 413.4063 545.2468 413.2227 544.7289 413.2188L544.7289 413.2188L50.27112 413.2188C 49.75313 413.2227 49.311 413.4063 48.94473 413.7734C 48.57846 414.1367 48.39533 414.5781 48.39533 415.0938z" stroke="#E7EAED" stroke-width="0.7503152" fill="none" /></g><g clip-path="url(#5)"><path transform="matrix(1 0 0 -1 0 841)" d="M48.77049 634.1875L543.2282 634.1875L543.2282 634.1875L543.2282 418.0938L543.2282 418.0938L48.77049 418.0938z" stroke="none" fill="#F8F8F8" fill-rule="winding" /></g><g clip-path="url(#6)"><g transform="matrix(0.7348448 0 0 0.7342657 48.02018 461.9218)"><g transform="matrix(1 0 0 1 0 0)"><image x="0" y="0" xlink:href="img_101.png" width="679" height="374" /></g></g></g><g clip-path="url(#7)"><path transform="matrix(1 0 0 -1 0 841)" d="M48.77049 1903.719L543.2282 1903.719L543.2282 1903.719L543.2282 744.4805L543.2282 744.4805L48.77049 744.4805z" stroke="none" fill="#F8F8F8" fill-rule="winding" /><path transform="matrix(1 0 0 -1 0 841)" d="M48.77049 1903.719L75.78184 1903.719L75.78184 1903.719L75.78184 454.1094L75.78184 454.1094L48.77049 454.1094z" stroke="none" fill="#F8F8F8" fill-rule="winding" /><path transform="matrix(1 0 0 -1 0 841)" d="M75.03152 1903.719L75.78184 1903.719L75.78184 1903.719L75.78184 454.1094L75.78184 454.1094L75.03152 454.1094z" stroke="none" fill="#DDDDDD" fill-rule="winding" /></g><g clip-path="url(#8)"><path transform="matrix(1 0 0 -1 0 841)" d="M48.77049 634.1875L543.2282 634.1875L543.2282 634.1875L543.2282 418.0938L543.2282 418.0938L48.77049 418.0938z" stroke="none" fill="#F8F8F8" fill-rule="winding" /><path transform="matrix(1 0 0 -1 0 841)" d="M48.77049 634.1875L75.78184 634.1875L75.78184 634.1875L75.78184 358.0703L75.78184 358.0703L48.77049 358.0703z" stroke="none" fill="#F8F8F8" fill-rule="winding" /><path transform="matrix(1 0 0 -1 0 841)" d="M75.03152 634.1875L75.78184 634.1875L75.78184 634.1875L75.78184 358.0703L75.78184 358.0703L75.03152 358.0703z" stroke="none" fill="#DDDDDD" fill-rule="winding" /></g><g transform="matrix(0.2399193 0 0 0.2399322 0 -14.78003)"><g transform="matrix(1 0 0 1 0 0)"><image x="0" y="0" xlink:href="img_02.png" width="2480" height="295" /></g></g><g transform="matrix(0.4798387 0 0 0.4798876 0 798.29)"><g transform="matrix(1 0 0 1 0 0)"><image x="0" y="0" xlink:href="img_03.png" width="1240" height="89" /></g></g></g></g></g></svg>