<svg xmlns="http://www.w3.org/2000/svg" xmlns:xlink="http://www.w3.org/1999/xlink" id="body_37" preserveAspectRatio="xMinYMin meet" viewBox="0 0 793 1121"><defs><clipPath id="1"><path d="M0 841L0 0L0 0L595 0L595 0L595 841L595 841L0 841z" /></clipPath><clipPath id="2"><path d="M0 56L595 56L595 56L595 784.5566L595 784.5566L0 784.5566z" /></clipPath><clipPath id="3"><path d="M48.77049 89.01367L543.2282 89.01367L543.2282 89.01367L543.2282 197.0605L543.2282 197.0605L48.77049 197.0605z" /></clipPath></defs><g transform="matrix(1.333333 0 0 1.333333 0 0)"><g><g clip-path="url(#1)"><g clip-path="url(#2)"><path transform="matrix(1 0 0 -1 0 841)" d="M0 27013.02L595 27013.02L595 27013.02L595 -30964.59L595 -30964.59L0 -30964.59z" stroke="none" fill="#FFFFFF" fill-rule="winding" /><path transform="matrix(1 0 0 -1 0 841)" d="M48.39533 640.9395L48.39533 756.4883C 48.39533 757.0059 48.57846 757.4492 48.94473 757.8145C 49.311 758.1816 49.75313 758.3633 50.27112 758.3633L50.27112 758.3633L544.7289 758.3633C 545.2468 758.3633 545.6889 758.1816 546.0552 757.8145C 546.4214 757.4492 546.6046 757.0059 546.6047 756.4883L546.6047 756.4883L546.6047 640.9395C 546.6046 640.4238 546.4214 639.9805 546.0552 639.6152C 545.6889 639.248 545.2468 639.0664 544.7289 639.0625L544.7289 639.0625L50.27112 639.0625C 49.75313 639.0664 49.311 639.248 48.94473 639.6152C 48.57846 639.9805 48.39533 640.4238 48.39533 640.9395z" stroke="none" fill="#F8F8F8" fill-rule="winding" /><path transform="matrix(1 0 0 -1 0 841)" d="M48.39533 640.9395L48.39533 756.4883C 48.39533 757.0059 48.57846 757.4492 48.94473 757.8145C 49.311 758.1816 49.75313 758.3633 50.27112 758.3633L50.27112 758.3633L544.7289 758.3633C 545.2468 758.3633 545.6889 758.1816 546.0552 757.8145C 546.4214 757.4492 546.6046 757.0059 546.6047 756.4883L546.6047 756.4883L546.6047 640.9395C 546.6046 640.4238 546.4214 639.9805 546.0552 639.6152C 545.6889 639.248 545.2468 639.0664 544.7289 639.0625L544.7289 639.0625L50.27112 639.0625C 49.75313 639.0664 49.311 639.248 48.94473 639.6152C 48.57846 639.9805 48.39533 640.4238 48.39533 640.9395z" stroke="#E7EAED" stroke-width="0.7503152" fill="none" /></g><g clip-path="url(#3)"><path transform="matrix(1 0 0 -1 0 841)" d="M48.77049 751.9863L543.2282 751.9863L543.2282 751.9863L543.2282 643.9395L543.2282 643.9395L48.77049 643.9395z" stroke="none" fill="#F8F8F8" fill-rule="winding" /><path transform="matrix(1 0 0 -1 0 841)" d="M48.77049 751.9863L543.2282 751.9863L543.2282 751.9863L543.2282 643.9395L543.2282 643.9395L48.77049 643.9395z" stroke="none" fill="#F8F8F8" fill-rule="winding" /><path transform="matrix(1 0 0 -1 0 841)" d="M48.77049 751.9863L69.77932 751.9863L69.77932 751.9863L69.77932 613.9277L69.77932 613.9277L48.77049 613.9277z" stroke="none" fill="#F8F8F8" fill-rule="winding" /><path transform="matrix(1 0 0 -1 0 841)" d="M69.029 751.9863L69.77932 751.9863L69.77932 751.9863L69.77932 613.9277L69.77932 613.9277L69.029 613.9277z" stroke="none" fill="#DDDDDD" fill-rule="winding" /></g><g transform="matrix(0.2399193 0 0 0.2399322 0 -14.78003)"><g transform="matrix(1 0 0 1 0 0)"><image x="0" y="0" xlink:href="img_02.png" width="2480" height="295" /></g></g><g transform="matrix(0.4798387 0 0 0.4798876 0 798.29)"><g transform="matrix(1 0 0 1 0 0)"><image x="0" y="0" xlink:href="img_03.png" width="1240" height="89" /></g></g></g></g></g></svg>