<svg xmlns="http://www.w3.org/2000/svg" xmlns:xlink="http://www.w3.org/1999/xlink" id="body_79" preserveAspectRatio="xMinYMin meet" viewBox="0 0 793 1121"><defs><clipPath id="1"><path d="M0 841L0 0L0 0L595 0L595 0L595 841L595 841L0 841z" /></clipPath><clipPath id="2"><path d="M0 56L595 56L595 56L595 784.5586L595 784.5586L0 784.5586z" /></clipPath><clipPath id="3"><path d="M48.77049 56L543.2282 56L543.2282 56L543.2282 784.5586L543.2282 784.5586L48.77049 784.5586z" /></clipPath></defs><g transform="matrix(1.333333 0 0 1.333333 0 0)"><g><g clip-path="url(#1)"><g clip-path="url(#2)"><path transform="matrix(1 0 0 -1 0 841)" d="M0 57612.38L595 57612.38L595 57612.38L595 -365.2344L595 -365.2344L0 -365.2344z" stroke="none" fill="#FFFFFF" fill-rule="winding" /><path transform="matrix(1 0 0 -1 0 841)" d="M48.39533 -351.7305L48.39533 2656.285C 48.39533 2656.805 48.57846 2657.246 48.94473 2657.617C 49.311 2657.98 49.75313 2658.16 50.27112 2658.16L50.27112 2658.16L544.7289 2658.16C 545.2468 2658.16 545.6889 2657.98 546.0552 2657.617C 546.4214 2657.246 546.6046 2656.805 546.6047 2656.285L546.6047 2656.285L546.6047 -351.7305C 546.6046 -352.2461 546.4214 -352.6836 546.0552 -353.0547C 545.6889 -353.4219 545.2468 -353.6055 544.7289 -353.6055L544.7289 -353.6055L50.27112 -353.6055C 49.75313 -353.6055 49.311 -353.4219 48.94473 -353.0547C 48.57846 -352.6836 48.39533 -352.2461 48.39533 -351.7305z" stroke="none" fill="#F8F8F8" fill-rule="winding" /><path transform="matrix(1 0 0 -1 0 841)" d="M48.39533 -351.7305L48.39533 2656.285C 48.39533 2656.805 48.57846 2657.246 48.94473 2657.617C 49.311 2657.98 49.75313 2658.16 50.27112 2658.16L50.27112 2658.16L544.7289 2658.16C 545.2468 2658.16 545.6889 2657.98 546.0552 2657.617C 546.4214 2657.246 546.6046 2656.805 546.6047 2656.285L546.6047 2656.285L546.6047 -351.7305C 546.6046 -352.2461 546.4214 -352.6836 546.0552 -353.0547C 545.6889 -353.4219 545.2468 -353.6055 544.7289 -353.6055L544.7289 -353.6055L50.27112 -353.6055C 49.75313 -353.6055 49.311 -353.4219 48.94473 -353.0547C 48.57846 -352.6836 48.39533 -352.2461 48.39533 -351.7305z" stroke="#E7EAED" stroke-width="0.7503152" fill="none" /></g><g clip-path="url(#3)"><path transform="matrix(1 0 0 -1 0 841)" d="M48.77049 2651.781L543.2282 2651.781L543.2282 2651.781L543.2282 -348.7266L543.2282 -348.7266L48.77049 -348.7266z" stroke="none" fill="#F8F8F8" fill-rule="winding" /><path transform="matrix(1 0 0 -1 0 841)" d="M48.77049 2651.781L543.2282 2651.781L543.2282 2651.781L543.2282 -348.7266L543.2282 -348.7266L48.77049 -348.7266z" stroke="none" fill="#F8F8F8" fill-rule="winding" /><path transform="matrix(1 0 0 -1 0 841)" d="M48.77049 2651.781L82.53468 2651.781L82.53468 2651.781L82.53468 -1127.555L82.53468 -1127.555L48.77049 -1127.555z" stroke="none" fill="#F8F8F8" fill-rule="winding" /><path transform="matrix(1 0 0 -1 0 841)" d="M81.78436 2651.781L82.53468 2651.781L82.53468 2651.781L82.53468 -1127.555L82.53468 -1127.555L81.78436 -1127.555z" stroke="none" fill="#DDDDDD" fill-rule="winding" /></g><g transform="matrix(0.2399193 0 0 0.2399322 0 -14.78003)"><g transform="matrix(1 0 0 1 0 0)"><image x="0" y="0" xlink:href="img_02.png" width="2480" height="295" /></g></g><g transform="matrix(0.4798387 0 0 0.4798876 0 798.29)"><g transform="matrix(1 0 0 1 0 0)"><image x="0" y="0" xlink:href="img_03.png" width="1240" height="89" /></g></g></g></g></g></svg>