<svg xmlns="http://www.w3.org/2000/svg" xmlns:xlink="http://www.w3.org/1999/xlink" id="body_42" preserveAspectRatio="xMinYMin meet" viewBox="0 0 793 1121"><defs><clipPath id="1"><path d="M0 841L0 0L0 0L595 0L595 0L595 841L595 841L0 841z" /></clipPath><clipPath id="2"><path d="M0 56L595 56L595 56L595 784.5566L595 784.5566L0 784.5566z" /></clipPath><clipPath id="3"><path d="M48.77049 701.2715L543.2282 701.2715L543.2282 701.2715L543.2282 768.7988L543.2282 768.7988L48.77049 768.7988z" /></clipPath></defs><g transform="matrix(1.333333 0 0 1.333333 0 0)"><g><g clip-path="url(#1)"><g clip-path="url(#2)"><path transform="matrix(1 0 0 -1 0 841)" d="M0 30655.8L595 30655.8L595 30655.8L595 -27321.81L595 -27321.81L0 -27321.81z" stroke="none" fill="#FFFFFF" fill-rule="winding" /><g transform="matrix(0.7503152 0 0 0.7503152 120.8008 56)"><g transform="matrix(1 0 0 1 0 0)"><image x="0" y="0" xlink:href="img_83.png" width="472" height="767" /></g></g><path transform="matrix(1 0 0 -1 0 841)" d="M48.02018 162.2383L48.02018 167.4902C 48.02017 168.1152 48.23994 168.6465 48.67946 169.0859C 49.11898 169.5215 49.64954 169.7422 50.27112 169.7422L50.27112 169.7422L81.78436 169.7422C 82.40594 169.7422 82.93649 169.5215 83.37601 169.0859C 83.81554 168.6465 84.0353 168.1152 84.03531 167.4902L84.03531 167.4902L84.03531 162.2383C 84.0353 161.6172 83.81554 161.0859 83.37601 160.6504C 82.93649 160.2109 82.40594 159.9902 81.78436 159.9883L81.78436 159.9883L50.27112 159.9883C 49.64954 159.9902 49.11898 160.2109 48.67946 160.6504C 48.23994 161.0859 48.02017 161.6172 48.02018 162.2383z" stroke="none" fill="#F3F4F4" fill-rule="winding" /><path transform="matrix(1 0 0 -1 0 841)" d="M48.39533 162.2383L48.39533 167.4902C 48.39533 168.0098 48.57846 168.4531 48.94473 168.8184C 49.311 169.1855 49.75313 169.3672 50.27112 169.3672L50.27112 169.3672L81.78436 169.3672C 82.30235 169.3672 82.74448 169.1855 83.11074 168.8184C 83.47701 168.4531 83.66014 168.0098 83.66015 167.4902L83.66015 167.4902L83.66015 162.2383C 83.66014 161.7207 83.47701 161.2813 83.11074 160.9141C 82.74448 160.5469 82.30235 160.3633 81.78436 160.3633L81.78436 160.3633L50.27112 160.3633C 49.75313 160.3633 49.311 160.5469 48.94473 160.9141C 48.57846 161.2813 48.39533 161.7207 48.39533 162.2383z" stroke="#E7EAED" stroke-width="0.7503152" fill="none" /><path transform="matrix(1 0 0 -1 0 841)" d="M436.6835 162.2383L436.6835 167.4902C 436.6834 168.1152 436.9032 168.6465 437.3427 169.0859C 437.7823 169.5215 438.3128 169.7422 438.9344 169.7422L438.9344 169.7422L475.6999 169.7422C 476.3214 169.7422 476.852 169.5215 477.2915 169.0859C 477.731 168.6465 477.9508 168.1152 477.9508 167.4902L477.9508 167.4902L477.9508 162.2383C 477.9508 161.6172 477.731 161.0859 477.2915 160.6504C 476.852 160.2109 476.3214 159.9902 475.6999 159.9883L475.6999 159.9883L438.9344 159.9883C 438.3128 159.9902 437.7823 160.2109 437.3427 160.6504C 436.9032 161.0859 436.6834 161.6172 436.6835 162.2383z" stroke="none" fill="#F3F4F4" fill-rule="winding" /><path transform="matrix(1 0 0 -1 0 841)" d="M437.0586 162.2383L437.0586 167.4902C 437.0586 168.0098 437.2417 168.4531 437.608 168.8184C 437.9743 169.1855 438.4164 169.3672 438.9344 169.3672L438.9344 169.3672L475.6999 169.3672C 476.2179 169.3672 476.66 169.1855 477.0262 168.8184C 477.3925 168.4531 477.5757 168.0098 477.5757 167.4902L477.5757 167.4902L477.5757 162.2383C 477.5757 161.7207 477.3925 161.2813 477.0262 160.9141C 476.66 160.5469 476.2179 160.3633 475.6999 160.3633L475.6999 160.3633L438.9344 160.3633C 438.4164 160.3633 437.9743 160.5469 437.608 160.9141C 437.2417 161.2813 437.0586 161.7207 437.0586 162.2383z" stroke="#E7EAED" stroke-width="0.7503152" fill="none" /><path transform="matrix(1 0 0 -1 0 841)" d="M48.39533 69.19922L48.39533 144.2305C 48.39533 144.75 48.57846 145.1953 48.94473 145.5625C 49.311 145.9258 49.75313 146.1074 50.27112 146.1074L50.27112 146.1074L544.7289 146.1074C 545.2468 146.1074 545.6889 145.9258 546.0552 145.5625C 546.4214 145.1953 546.6046 144.75 546.6047 144.2305L546.6047 144.2305L546.6047 69.19922C 546.6046 68.68164 546.4214 68.24219 546.0552 67.875C 545.6889 67.50781 545.2468 67.32617 544.7289 67.32422L544.7289 67.32422L50.27112 67.32422C 49.75313 67.32617 49.311 67.50781 48.94473 67.875C 48.57846 68.24219 48.39533 68.68164 48.39533 69.19922z" stroke="none" fill="#F8F8F8" fill-rule="winding" /><path transform="matrix(1 0 0 -1 0 841)" d="M48.39533 69.19922L48.39533 144.2305C 48.39533 144.75 48.57846 145.1953 48.94473 145.5625C 49.311 145.9258 49.75313 146.1074 50.27112 146.1074L50.27112 146.1074L544.7289 146.1074C 545.2468 146.1074 545.6889 145.9258 546.0552 145.5625C 546.4214 145.1953 546.6046 144.75 546.6047 144.2305L546.6047 144.2305L546.6047 69.19922C 546.6046 68.68164 546.4214 68.24219 546.0552 67.875C 545.6889 67.50781 545.2468 67.32617 544.7289 67.32422L544.7289 67.32422L50.27112 67.32422C 49.75313 67.32617 49.311 67.50781 48.94473 67.875C 48.57846 68.24219 48.39533 68.68164 48.39533 69.19922z" stroke="#E7EAED" stroke-width="0.7503152" fill="none" /></g><g clip-path="url(#3)"><path transform="matrix(1 0 0 -1 0 841)" d="M48.77049 139.7285L543.2282 139.7285L543.2282 139.7285L543.2282 72.20117L543.2282 72.20117L48.77049 72.20117z" stroke="none" fill="#F8F8F8" fill-rule="winding" /><path transform="matrix(1 0 0 -1 0 841)" d="M48.77049 139.7285L543.2282 139.7285L543.2282 139.7285L543.2282 72.20117L543.2282 72.20117L48.77049 72.20117z" stroke="none" fill="#F8F8F8" fill-rule="winding" /><path transform="matrix(1 0 0 -1 0 841)" d="M48.77049 139.7285L69.77932 139.7285L69.77932 139.7285L69.77932 53.44336L69.77932 53.44336L48.77049 53.44336z" stroke="none" fill="#F8F8F8" fill-rule="winding" /><path transform="matrix(1 0 0 -1 0 841)" d="M69.029 139.7285L69.77932 139.7285L69.77932 139.7285L69.77932 53.44336L69.77932 53.44336L69.029 53.44336z" stroke="none" fill="#DDDDDD" fill-rule="winding" /></g><g transform="matrix(0.2399193 0 0 0.2399322 0 -14.78003)"><g transform="matrix(1 0 0 1 0 0)"><image x="0" y="0" xlink:href="img_02.png" width="2480" height="295" /></g></g><g transform="matrix(0.4798387 0 0 0.4798876 0 798.29)"><g transform="matrix(1 0 0 1 0 0)"><image x="0" y="0" xlink:href="img_03.png" width="1240" height="89" /></g></g></g></g></g></svg>