<svg xmlns="http://www.w3.org/2000/svg" xmlns:xlink="http://www.w3.org/1999/xlink" id="body_31" preserveAspectRatio="xMinYMin meet" viewBox="0 0 793 1121"><defs><clipPath id="1"><path d="M0 841L0 0L0 0L595 0L595 0L595 841L595 841L0 841z" /></clipPath><clipPath id="2"><path d="M0 56L595 56L595 56L595 784.5566L595 784.5566L0 784.5566z" /></clipPath><clipPath id="3"><path d="M48.77049 359.127L543.2282 359.127L543.2282 359.127L543.2282 784.5566L543.2282 784.5566L48.77049 784.5566z" /></clipPath></defs><g transform="matrix(1.333333 0 0 1.333333 0 0)"><g><g clip-path="url(#1)"><g clip-path="url(#2)"><path transform="matrix(1 0 0 -1 0 841)" d="M0 22641.68L595 22641.68L595 22641.68L595 -35335.93L595 -35335.93L0 -35335.93z" stroke="none" fill="#FFFFFF" fill-rule="winding" /><g transform="matrix(0.7503153 0 0 0.7503152 117.0492 56)"><g transform="matrix(1 0 0 1 0 0)"><image x="0" y="0" xlink:href="img_65.png" width="482" height="380" /></g></g><path transform="matrix(1 0 0 -1 0 841)" d="M48.39533 -297.7051L48.39533 486.375C 48.39533 486.8945 48.57846 487.3379 48.94473 487.7031C 49.311 488.0684 49.75313 488.25 50.27112 488.25L50.27112 488.25L544.7289 488.25C 545.2468 488.25 545.6889 488.0684 546.0552 487.7031C 546.4214 487.3379 546.6046 486.8945 546.6047 486.375L546.6047 486.375L546.6047 -297.7051C 546.6046 -298.2207 546.4214 -298.6621 546.0552 -299.0273C 545.6889 -299.3945 545.2468 -299.5781 544.7289 -299.5801L544.7289 -299.5801L50.27112 -299.5801C 49.75313 -299.5781 49.311 -299.3945 48.94473 -299.0273C 48.57846 -298.6621 48.39533 -298.2207 48.39533 -297.7051z" stroke="none" fill="#F8F8F8" fill-rule="winding" /><path transform="matrix(1 0 0 -1 0 841)" d="M48.39533 -297.7051L48.39533 486.375C 48.39533 486.8945 48.57846 487.3379 48.94473 487.7031C 49.311 488.0684 49.75313 488.25 50.27112 488.25L50.27112 488.25L544.7289 488.25C 545.2468 488.25 545.6889 488.0684 546.0552 487.7031C 546.4214 487.3379 546.6046 486.8945 546.6047 486.375L546.6047 486.375L546.6047 -297.7051C 546.6046 -298.2207 546.4214 -298.6621 546.0552 -299.0273C 545.6889 -299.3945 545.2468 -299.5781 544.7289 -299.5801L544.7289 -299.5801L50.27112 -299.5801C 49.75313 -299.5781 49.311 -299.3945 48.94473 -299.0273C 48.57846 -298.6621 48.39533 -298.2207 48.39533 -297.7051z" stroke="#E7EAED" stroke-width="0.7503152" fill="none" /></g><g clip-path="url(#3)"><path transform="matrix(1 0 0 -1 0 841)" d="M48.77049 481.873L543.2282 481.873L543.2282 481.873L543.2282 -294.7031L543.2282 -294.7031L48.77049 -294.7031z" stroke="none" fill="#F8F8F8" fill-rule="winding" /><path transform="matrix(1 0 0 -1 0 841)" d="M48.77049 481.873L543.2282 481.873L543.2282 481.873L543.2282 -294.7031L543.2282 -294.7031L48.77049 -294.7031z" stroke="none" fill="#F8F8F8" fill-rule="winding" /><path transform="matrix(1 0 0 -1 0 841)" d="M48.77049 481.873L75.78184 481.873L75.78184 481.873L75.78184 -501.791L75.78184 -501.791L48.77049 -501.791z" stroke="none" fill="#F8F8F8" fill-rule="winding" /><path transform="matrix(1 0 0 -1 0 841)" d="M75.03152 481.873L75.78184 481.873L75.78184 481.873L75.78184 -501.791L75.78184 -501.791L75.03152 -501.791z" stroke="none" fill="#DDDDDD" fill-rule="winding" /></g><g transform="matrix(0.2399193 0 0 0.2399322 0 -14.78003)"><g transform="matrix(1 0 0 1 0 0)"><image x="0" y="0" xlink:href="img_02.png" width="2480" height="295" /></g></g><g transform="matrix(0.4798387 0 0 0.4798876 0 798.29)"><g transform="matrix(1 0 0 1 0 0)"><image x="0" y="0" xlink:href="img_03.png" width="1240" height="89" /></g></g></g></g></g></svg>