<svg xmlns="http://www.w3.org/2000/svg" xmlns:xlink="http://www.w3.org/1999/xlink" id="body_7" preserveAspectRatio="xMinYMin meet" viewBox="0 0 793 1121"><defs><clipPath id="1"><path d="M0 841L0 0L0 0L595 0L595 0L595 841L595 841L0 841z" /></clipPath><clipPath id="2"><path d="M0 56L595 56L595 56L595 784.5562L595 784.5562L0 784.5562z" /></clipPath><clipPath id="3"><path d="M48.77049 56L543.2282 56L543.2282 56L543.2282 717.7783L543.2282 717.7783L48.77049 717.7783z" /></clipPath><clipPath id="4"><path d="M0 56L595 56L595 56L595 784.5562L595 784.5562L0 784.5562z" /></clipPath><clipPath id="5"><path d="M48.77049 56L543.2282 56L543.2282 56L543.2282 717.7783L543.2282 717.7783L48.77049 717.7783z" /></clipPath></defs><g transform="matrix(1.333333 0 0 1.333333 0 0)"><g><g clip-path="url(#1)"><g clip-path="url(#2)"><path transform="matrix(1 0 0 -1 0 841)" d="M0 5156.336L595 5156.336L595 5156.336L595 -27547.65L595 -27547.65L0 -27547.65z" stroke="none" fill="#FFFFFF" fill-rule="winding" /><path transform="matrix(1 0 0 -1 0 841)" d="M48.39533 120.2207L48.39533 1112.137C 48.39533 1112.656 48.57846 1113.098 48.94473 1113.464C 49.311 1113.83 49.75313 1114.013 50.27112 1114.013L50.27112 1114.013L544.7289 1114.013C 545.2468 1114.013 545.6889 1113.83 546.0552 1113.464C 546.4214 1113.098 546.6046 1112.656 546.6047 1112.137L546.6047 1112.137L546.6047 120.2207C 546.6046 119.7026 546.4214 119.2607 546.0552 118.8945C 545.6889 118.5283 545.2468 118.3452 544.7289 118.3447L544.7289 118.3447L50.27112 118.3447C 49.75313 118.3452 49.311 118.5283 48.94473 118.8945C 48.57846 119.2607 48.39533 119.7026 48.39533 120.2207z" stroke="none" fill="#F8F8F8" fill-rule="winding" /><path transform="matrix(1 0 0 -1 0 841)" d="M48.39533 120.2207L48.39533 1112.137C 48.39533 1112.656 48.57846 1113.098 48.94473 1113.464C 49.311 1113.83 49.75313 1114.013 50.27112 1114.013L50.27112 1114.013L544.7289 1114.013C 545.2468 1114.013 545.6889 1113.83 546.0552 1113.464C 546.4214 1113.098 546.6046 1112.656 546.6047 1112.137L546.6047 1112.137L546.6047 120.2207C 546.6046 119.7026 546.4214 119.2607 546.0552 118.8945C 545.6889 118.5283 545.2468 118.3452 544.7289 118.3447L544.7289 118.3447L50.27112 118.3447C 49.75313 118.3452 49.311 118.5283 48.94473 118.8945C 48.57846 119.2607 48.39533 119.7026 48.39533 120.2207z" stroke="#E7EAED" stroke-width="0.7503152" fill="none" /></g><g clip-path="url(#3)"><path transform="matrix(1 0 0 -1 0 841)" d="M48.77049 1107.635L543.2282 1107.635L543.2282 1107.635L543.2282 123.2217L543.2282 123.2217L48.77049 123.2217z" stroke="none" fill="#F8F8F8" fill-rule="winding" /></g><g clip-path="url(#4)"></g><g clip-path="url(#5)"><path transform="matrix(1 0 0 -1 0 841)" d="M48.77049 1107.635L543.2282 1107.635L543.2282 1107.635L543.2282 123.2217L543.2282 123.2217L48.77049 123.2217z" stroke="none" fill="#F8F8F8" fill-rule="winding" /><path transform="matrix(1 0 0 -1 0 841)" d="M48.77049 1107.635L75.78184 1107.635L75.78184 1107.635L75.78184 -134.8867L75.78184 -134.8867L48.77049 -134.8867z" stroke="none" fill="#F8F8F8" fill-rule="winding" /><path transform="matrix(1 0 0 -1 0 841)" d="M75.03152 1107.635L75.78184 1107.635L75.78184 1107.635L75.78184 -134.8867L75.78184 -134.8867L75.03152 -134.8867z" stroke="none" fill="#DDDDDD" fill-rule="winding" /></g><g transform="matrix(0.2399193 0 0 0.2399322 0 -14.78003)"><g transform="matrix(1 0 0 1 0 0)"><image x="0" y="0" xlink:href="img_02.png" width="2480" height="295" /></g></g><g transform="matrix(0.4798387 0 0 0.4798876 0 798.29)"><g transform="matrix(1 0 0 1 0 0)"><image x="0" y="0" xlink:href="img_03.png" width="1240" height="89" /></g></g></g></g></g></svg>