<svg xmlns="http://www.w3.org/2000/svg" xmlns:xlink="http://www.w3.org/1999/xlink" id="body_17" preserveAspectRatio="xMinYMin meet" viewBox="0 0 793 1121"><defs><clipPath id="1"><path d="M0 841L0 0L0 0L595 0L595 0L595 841L595 841L0 841z" /></clipPath><clipPath id="2"><path d="M0 56L595 56L595 56L595 784.5566L595 784.5566L0 784.5566z" /></clipPath></defs><g transform="matrix(1.333333 0 0 1.333333 0 0)"><g><g clip-path="url(#1)"><g clip-path="url(#2)"><path transform="matrix(1 0 0 -1 0 841)" d="M0 12441.9L595 12441.9L595 12441.9L595 -20262.09L595 -20262.09L0 -20262.09z" stroke="none" fill="#FFFFFF" fill-rule="winding" /><g transform="matrix(0.7503152 0 0 0.7503152 199.5839 56)"><g transform="matrix(1 0 0 1 0 0)"><image x="0" y="0" xlink:href="img_33.png" width="262" height="589" /></g></g><path transform="matrix(1 0 0 -1 0 841)" d="M48.02018 307.7988L546.9798 307.7988L546.9798 307.7988L546.9798 307.0488L546.9798 307.0488L48.02018 307.0488z" stroke="none" fill="#EEEEEE" fill-rule="winding" /><g transform="matrix(0.5968417 0 0 0.5970497 48.02018 543.7051)"><g transform="matrix(1 0 0 1 0 0)"><image x="0" y="0" xlink:href="img_34.png" width="836" height="328" /></g></g><path transform="matrix(1 0 0 -1 0 841)" d="M62.27617 86.08105C 62.27617 85.56348 62.09303 85.12109 61.72676 84.75488C 61.36049 84.38867 60.91836 84.20508 60.40038 84.20508C 59.88239 84.20508 59.44026 84.38867 59.07399 84.75488C 58.70772 85.12109 58.52458 85.56348 58.52459 86.08105C 58.52458 86.59961 58.70772 87.04199 59.07399 87.40918C 59.44026 87.77344 59.88239 87.95703 60.40038 87.95703C 60.91836 87.95703 61.36049 87.77344 61.72676 87.40918C 62.09303 87.04199 62.27617 86.59961 62.27617 86.08105z" stroke="none" fill="#333333" fill-rule="winding" /><path transform="matrix(1 0 0 -1 0 841)" d="M62.27617 71.0752C 62.27617 70.55762 62.09303 70.11523 61.72676 69.74902C 61.36049 69.38184 60.91836 69.19922 60.40038 69.19922C 59.88239 69.19922 59.44026 69.38184 59.07399 69.74902C 58.70772 70.11523 58.52458 70.55762 58.52459 71.0752C 58.52458 71.5918 58.70772 72.03516 59.07399 72.40137C 59.44026 72.76758 59.88239 72.9502 60.40038 72.9502C 60.91836 72.9502 61.36049 72.76758 61.72676 72.40137C 62.09303 72.03516 62.27617 71.5918 62.27617 71.0752z" stroke="none" fill="#333333" fill-rule="winding" /></g><g transform="matrix(0.2399193 0 0 0.2399322 0 -14.78003)"><g transform="matrix(1 0 0 1 0 0)"><image x="0" y="0" xlink:href="img_02.png" width="2480" height="295" /></g></g><g transform="matrix(0.4798387 0 0 0.4798876 0 798.29)"><g transform="matrix(1 0 0 1 0 0)"><image x="0" y="0" xlink:href="img_03.png" width="1240" height="89" /></g></g></g></g></g></svg>