<svg xmlns="http://www.w3.org/2000/svg" xmlns:xlink="http://www.w3.org/1999/xlink" id="body_20" preserveAspectRatio="xMinYMin meet" viewBox="0 0 793 1121"><defs><clipPath id="1"><path d="M0 841L0 0L0 0L595 0L595 0L595 841L595 841L0 841z" /></clipPath><clipPath id="2"><path d="M0 56L595 56L595 56L595 784.5557L595 784.5557L0 784.5557z" /></clipPath><clipPath id="3"><path d="M48.77049 56L543.2282 56L543.2282 56L543.2282 191.0566L543.2282 191.0566L48.77049 191.0566z" /></clipPath><clipPath id="4"><path d="M0 56L595 56L595 56L595 784.5557L595 784.5557L0 784.5557z" /></clipPath><clipPath id="5"><path d="M48.77049 245.8291L543.2282 245.8291L543.2282 245.8291L543.2282 784.5557L543.2282 784.5557L48.77049 784.5557z" /></clipPath><clipPath id="6"><path d="M48.77049 56L543.2282 56L543.2282 56L543.2282 191.0566L543.2282 191.0566L48.77049 191.0566z" /></clipPath><clipPath id="7"><path d="M48.77049 245.8291L543.2282 245.8291L543.2282 245.8291L543.2282 784.5557L543.2282 784.5557L48.77049 784.5557z" /></clipPath></defs><g transform="matrix(1.333333 0 0 1.333333 0 0)"><g><g clip-path="url(#1)"><g clip-path="url(#2)"><path transform="matrix(1 0 0 -1 0 841)" d="M0 14627.57L595 14627.57L595 14627.57L595 -18076.42L595 -18076.42L0 -18076.42z" stroke="none" fill="#FFFFFF" fill-rule="winding" /><path transform="matrix(1 0 0 -1 0 841)" d="M48.39533 646.9424L48.39533 1206.678C 48.39533 1207.196 48.57846 1207.639 48.94473 1208.005C 49.311 1208.37 49.75313 1208.554 50.27112 1208.554L50.27112 1208.554L544.7289 1208.554C 545.2468 1208.554 545.6889 1208.37 546.0552 1208.005C 546.4214 1207.639 546.6046 1207.196 546.6047 1206.678L546.6047 1206.678L546.6047 646.9424C 546.6046 646.4248 546.4214 645.9824 546.0552 645.6162C 545.6889 645.25 545.2468 645.0664 544.7289 645.0664L544.7289 645.0664L50.27112 645.0664C 49.75313 645.0664 49.311 645.25 48.94473 645.6162C 48.57846 645.9824 48.39533 646.4248 48.39533 646.9424z" stroke="none" fill="#F8F8F8" fill-rule="winding" /><path transform="matrix(1 0 0 -1 0 841)" d="M48.39533 646.9424L48.39533 1206.678C 48.39533 1207.196 48.57846 1207.639 48.94473 1208.005C 49.311 1208.37 49.75313 1208.554 50.27112 1208.554L50.27112 1208.554L544.7289 1208.554C 545.2468 1208.554 545.6889 1208.37 546.0552 1208.005C 546.4214 1207.639 546.6046 1207.196 546.6047 1206.678L546.6047 1206.678L546.6047 646.9424C 546.6046 646.4248 546.4214 645.9824 546.0552 645.6162C 545.6889 645.25 545.2468 645.0664 544.7289 645.0664L544.7289 645.0664L50.27112 645.0664C 49.75313 645.0664 49.311 645.25 48.94473 645.6162C 48.57846 645.9824 48.39533 646.4248 48.39533 646.9424z" stroke="#E7EAED" stroke-width="0.7503152" fill="none" /></g><g clip-path="url(#3)"><path transform="matrix(1 0 0 -1 0 841)" d="M48.77049 1202.176L543.2282 1202.176L543.2282 1202.176L543.2282 649.9434L543.2282 649.9434L48.77049 649.9434z" stroke="none" fill="#F8F8F8" fill-rule="winding" /></g><g clip-path="url(#4)"><path transform="matrix(1 0 0 -1 0 841)" d="M48.39533 39.9375L48.39533 599.6729C 48.39533 600.1914 48.57846 600.6338 48.94473 601C 49.311 601.3652 49.75313 601.5479 50.27112 601.5479L50.27112 601.5479L544.7289 601.5479C 545.2468 601.5479 545.6889 601.3652 546.0552 601C 546.4214 600.6338 546.6046 600.1914 546.6047 599.6729L546.6047 599.6729L546.6047 39.9375C 546.6046 39.41992 546.4214 38.97852 546.0552 38.6123C 545.6889 38.24609 545.2468 38.06348 544.7289 38.06152L544.7289 38.06152L50.27112 38.06152C 49.75313 38.06348 49.311 38.24609 48.94473 38.6123C 48.57846 38.97852 48.39533 39.41992 48.39533 39.9375z" stroke="none" fill="#F8F8F8" fill-rule="winding" /><path transform="matrix(1 0 0 -1 0 841)" d="M48.39533 39.9375L48.39533 599.6729C 48.39533 600.1914 48.57846 600.6338 48.94473 601C 49.311 601.3652 49.75313 601.5479 50.27112 601.5479L50.27112 601.5479L544.7289 601.5479C 545.2468 601.5479 545.6889 601.3652 546.0552 601C 546.4214 600.6338 546.6046 600.1914 546.6047 599.6729L546.6047 599.6729L546.6047 39.9375C 546.6046 39.41992 546.4214 38.97852 546.0552 38.6123C 545.6889 38.24609 545.2468 38.06348 544.7289 38.06152L544.7289 38.06152L50.27112 38.06152C 49.75313 38.06348 49.311 38.24609 48.94473 38.6123C 48.57846 38.97852 48.39533 39.41992 48.39533 39.9375z" stroke="#E7EAED" stroke-width="0.7503152" fill="none" /></g><g clip-path="url(#5)"><path transform="matrix(1 0 0 -1 0 841)" d="M48.77049 595.1709L543.2282 595.1709L543.2282 595.1709L543.2282 42.93848L543.2282 42.93848L48.77049 42.93848z" stroke="none" fill="#F8F8F8" fill-rule="winding" /></g><g clip-path="url(#6)"><path transform="matrix(1 0 0 -1 0 841)" d="M48.77049 1202.176L543.2282 1202.176L543.2282 1202.176L543.2282 649.9434L543.2282 649.9434L48.77049 649.9434z" stroke="none" fill="#F8F8F8" fill-rule="winding" /><path transform="matrix(1 0 0 -1 0 841)" d="M48.77049 1202.176L75.78184 1202.176L75.78184 1202.176L75.78184 511.8857L75.78184 511.8857L48.77049 511.8857z" stroke="none" fill="#F8F8F8" fill-rule="winding" /><path transform="matrix(1 0 0 -1 0 841)" d="M75.03152 1202.176L75.78184 1202.176L75.78184 1202.176L75.78184 511.8857L75.78184 511.8857L75.03152 511.8857z" stroke="none" fill="#DDDDDD" fill-rule="winding" /></g><g clip-path="url(#7)"><path transform="matrix(1 0 0 -1 0 841)" d="M48.77049 595.1709L543.2282 595.1709L543.2282 595.1709L543.2282 42.93848L543.2282 42.93848L48.77049 42.93848z" stroke="none" fill="#F8F8F8" fill-rule="winding" /><path transform="matrix(1 0 0 -1 0 841)" d="M48.77049 595.1709L75.78184 595.1709L75.78184 595.1709L75.78184 -95.11914L75.78184 -95.11914L48.77049 -95.11914z" stroke="none" fill="#F8F8F8" fill-rule="winding" /><path transform="matrix(1 0 0 -1 0 841)" d="M75.03152 595.1709L75.78184 595.1709L75.78184 595.1709L75.78184 -95.11914L75.78184 -95.11914L75.03152 -95.11914z" stroke="none" fill="#DDDDDD" fill-rule="winding" /></g><g transform="matrix(0.2399193 0 0 0.2399322 0 -14.78003)"><g transform="matrix(1 0 0 1 0 0)"><image x="0" y="0" xlink:href="img_02.png" width="2480" height="295" /></g></g><g transform="matrix(0.4798387 0 0 0.4798876 0 798.29)"><g transform="matrix(1 0 0 1 0 0)"><image x="0" y="0" xlink:href="img_03.png" width="1240" height="89" /></g></g></g></g></g></svg>