<svg xmlns="http://www.w3.org/2000/svg" xmlns:xlink="http://www.w3.org/1999/xlink" id="body_36" preserveAspectRatio="xMinYMin meet" viewBox="0 0 793 1121"><defs><clipPath id="1"><path d="M0 841L0 0L0 0L595 0L595 0L595 841L595 841L0 841z" /></clipPath><clipPath id="2"><path d="M0 56L595 56L595 56L595 784.5566L595 784.5566L0 784.5566z" /></clipPath><clipPath id="3"><path d="M48.77049 90.51563L543.2282 90.51563L543.2282 90.51563L543.2282 333.6172L543.2282 333.6172L48.77049 333.6172z" /></clipPath><clipPath id="4"><path d="M0 56L595 56L595 56L595 784.5566L595 784.5566L0 784.5566z" /></clipPath><clipPath id="5"><path d="M48.77049 384.6387L543.2282 384.6387L543.2282 384.6387L543.2282 641.2461L543.2282 641.2461L48.77049 641.2461z" /></clipPath><clipPath id="6"><path d="M0 56L595 56L595 56L595 784.5566L595 784.5566L0 784.5566z" /></clipPath><clipPath id="7"><path d="M48.77049 717.0293L543.2282 717.0293L543.2282 717.0293L543.2282 784.5566L543.2282 784.5566L48.77049 784.5566z" /></clipPath><clipPath id="8"><path d="M48.77049 90.51563L543.2282 90.51563L543.2282 90.51563L543.2282 333.6172L543.2282 333.6172L48.77049 333.6172z" /></clipPath><clipPath id="9"><path d="M48.77049 384.6387L543.2282 384.6387L543.2282 384.6387L543.2282 641.2461L543.2282 641.2461L48.77049 641.2461z" /></clipPath><clipPath id="10"><path d="M48.77049 717.0293L543.2282 717.0293L543.2282 717.0293L543.2282 784.5566L543.2282 784.5566L48.77049 784.5566z" /></clipPath></defs><g transform="matrix(1.333333 0 0 1.333333 0 0)"><g><g clip-path="url(#1)"><g clip-path="url(#2)"><path transform="matrix(1 0 0 -1 0 841)" d="M0 26284.46L595 26284.46L595 26284.46L595 -6419.527L595 -6419.527L0 -6419.527z" stroke="none" fill="#FFFFFF" fill-rule="winding" /><path transform="matrix(1 0 0 -1 0 841)" d="M48.39533 504.3809L48.39533 754.9863C 48.39533 755.5059 48.57846 755.9473 48.94473 756.3145C 49.311 756.6797 49.75313 756.8633 50.27112 756.8633L50.27112 756.8633L544.7289 756.8633C 545.2468 756.8633 545.6889 756.6797 546.0552 756.3145C 546.4214 755.9473 546.6046 755.5059 546.6047 754.9863L546.6047 754.9863L546.6047 504.3809C 546.6046 503.8633 546.4214 503.4219 546.0552 503.0566C 545.6889 502.6895 545.2468 502.5059 544.7289 502.5059L544.7289 502.5059L50.27112 502.5059C 49.75313 502.5059 49.311 502.6895 48.94473 503.0566C 48.57846 503.4219 48.39533 503.8633 48.39533 504.3809z" stroke="none" fill="#F8F8F8" fill-rule="winding" /><path transform="matrix(1 0 0 -1 0 841)" d="M48.39533 504.3809L48.39533 754.9863C 48.39533 755.5059 48.57846 755.9473 48.94473 756.3145C 49.311 756.6797 49.75313 756.8633 50.27112 756.8633L50.27112 756.8633L544.7289 756.8633C 545.2468 756.8633 545.6889 756.6797 546.0552 756.3145C 546.4214 755.9473 546.6046 755.5059 546.6047 754.9863L546.6047 754.9863L546.6047 504.3809C 546.6046 503.8633 546.4214 503.4219 546.0552 503.0566C 545.6889 502.6895 545.2468 502.5059 544.7289 502.5059L544.7289 502.5059L50.27112 502.5059C 49.75313 502.5059 49.311 502.6895 48.94473 503.0566C 48.57846 503.4219 48.39533 503.8633 48.39533 504.3809z" stroke="#E7EAED" stroke-width="0.7503152" fill="none" /></g><g clip-path="url(#3)"><path transform="matrix(1 0 0 -1 0 841)" d="M48.77049 750.4844L543.2282 750.4844L543.2282 750.4844L543.2282 507.3828L543.2282 507.3828L48.77049 507.3828z" stroke="none" fill="#F8F8F8" fill-rule="winding" /></g><g clip-path="url(#4)"><path transform="matrix(1 0 0 -1 0 841)" d="M48.39533 196.752L48.39533 460.8633C 48.39533 461.3809 48.57846 461.8242 48.94473 462.1914C 49.311 462.5566 49.75313 462.7383 50.27112 462.7383L50.27112 462.7383L544.7289 462.7383C 545.2468 462.7383 545.6889 462.5566 546.0552 462.1914C 546.4214 461.8242 546.6046 461.3809 546.6047 460.8633L546.6047 460.8633L546.6047 196.752C 546.6046 196.2324 546.4214 195.793 546.0552 195.4277C 545.6889 195.0605 545.2468 194.877 544.7289 194.877L544.7289 194.877L50.27112 194.877C 49.75313 194.877 49.311 195.0605 48.94473 195.4277C 48.57846 195.793 48.39533 196.2324 48.39533 196.752z" stroke="none" fill="#F8F8F8" fill-rule="winding" /><path transform="matrix(1 0 0 -1 0 841)" d="M48.39533 196.752L48.39533 460.8633C 48.39533 461.3809 48.57846 461.8242 48.94473 462.1914C 49.311 462.5566 49.75313 462.7383 50.27112 462.7383L50.27112 462.7383L544.7289 462.7383C 545.2468 462.7383 545.6889 462.5566 546.0552 462.1914C 546.4214 461.8242 546.6046 461.3809 546.6047 460.8633L546.6047 460.8633L546.6047 196.752C 546.6046 196.2324 546.4214 195.793 546.0552 195.4277C 545.6889 195.0605 545.2468 194.877 544.7289 194.877L544.7289 194.877L50.27112 194.877C 49.75313 194.877 49.311 195.0605 48.94473 195.4277C 48.57846 195.793 48.39533 196.2324 48.39533 196.752z" stroke="#E7EAED" stroke-width="0.7503152" fill="none" /></g><g clip-path="url(#5)"><path transform="matrix(1 0 0 -1 0 841)" d="M48.77049 456.3613L543.2282 456.3613L543.2282 456.3613L543.2282 199.7539L543.2282 199.7539L48.77049 199.7539z" stroke="none" fill="#F8F8F8" fill-rule="winding" /></g><g clip-path="url(#6)"><path transform="matrix(1 0 0 -1 0 841)" d="M48.39533 -230.1777L48.39533 128.4727C 48.39533 128.9922 48.57846 129.4355 48.94473 129.8008C 49.311 130.168 49.75313 130.3496 50.27112 130.3496L50.27112 130.3496L544.7289 130.3496C 545.2468 130.3496 545.6889 130.168 546.0552 129.8008C 546.4214 129.4355 546.6046 128.9922 546.6047 128.4727L546.6047 128.4727L546.6047 -230.1777C 546.6046 -230.6953 546.4214 -231.1367 546.0552 -231.502C 545.6889 -231.8691 545.2468 -232.0527 544.7289 -232.0527L544.7289 -232.0527L50.27112 -232.0527C 49.75313 -232.0527 49.311 -231.8691 48.94473 -231.502C 48.57846 -231.1367 48.39533 -230.6953 48.39533 -230.1777z" stroke="none" fill="#F8F8F8" fill-rule="winding" /><path transform="matrix(1 0 0 -1 0 841)" d="M48.39533 -230.1777L48.39533 128.4727C 48.39533 128.9922 48.57846 129.4355 48.94473 129.8008C 49.311 130.168 49.75313 130.3496 50.27112 130.3496L50.27112 130.3496L544.7289 130.3496C 545.2468 130.3496 545.6889 130.168 546.0552 129.8008C 546.4214 129.4355 546.6046 128.9922 546.6047 128.4727L546.6047 128.4727L546.6047 -230.1777C 546.6046 -230.6953 546.4214 -231.1367 546.0552 -231.502C 545.6889 -231.8691 545.2468 -232.0527 544.7289 -232.0527L544.7289 -232.0527L50.27112 -232.0527C 49.75313 -232.0527 49.311 -231.8691 48.94473 -231.502C 48.57846 -231.1367 48.39533 -230.6953 48.39533 -230.1777z" stroke="#E7EAED" stroke-width="0.7503152" fill="none" /></g><g clip-path="url(#7)"><path transform="matrix(1 0 0 -1 0 841)" d="M48.77049 123.9707L543.2282 123.9707L543.2282 123.9707L543.2282 -227.1758L543.2282 -227.1758L48.77049 -227.1758z" stroke="none" fill="#F8F8F8" fill-rule="winding" /></g><g clip-path="url(#8)"><path transform="matrix(1 0 0 -1 0 841)" d="M48.77049 750.4844L543.2282 750.4844L543.2282 750.4844L543.2282 507.3828L543.2282 507.3828L48.77049 507.3828z" stroke="none" fill="#F8F8F8" fill-rule="winding" /><path transform="matrix(1 0 0 -1 0 841)" d="M48.77049 750.4844L75.78184 750.4844L75.78184 750.4844L75.78184 439.8535L75.78184 439.8535L48.77049 439.8535z" stroke="none" fill="#F8F8F8" fill-rule="winding" /><path transform="matrix(1 0 0 -1 0 841)" d="M75.03152 750.4844L75.78184 750.4844L75.78184 750.4844L75.78184 439.8535L75.78184 439.8535L75.03152 439.8535z" stroke="none" fill="#DDDDDD" fill-rule="winding" /></g><g clip-path="url(#9)"><path transform="matrix(1 0 0 -1 0 841)" d="M48.77049 456.3613L543.2282 456.3613L543.2282 456.3613L543.2282 199.7539L543.2282 199.7539L48.77049 199.7539z" stroke="none" fill="#F8F8F8" fill-rule="winding" /><path transform="matrix(1 0 0 -1 0 841)" d="M48.77049 456.3613L75.78184 456.3613L75.78184 456.3613L75.78184 128.4727L75.78184 128.4727L48.77049 128.4727z" stroke="none" fill="#F8F8F8" fill-rule="winding" /><path transform="matrix(1 0 0 -1 0 841)" d="M75.03152 456.3613L75.78184 456.3613L75.78184 456.3613L75.78184 128.4727L75.78184 128.4727L75.03152 128.4727z" stroke="none" fill="#DDDDDD" fill-rule="winding" /></g><g clip-path="url(#10)"><path transform="matrix(1 0 0 -1 0 841)" d="M48.77049 123.9707L543.2282 123.9707L543.2282 123.9707L543.2282 -227.1758L543.2282 -227.1758L48.77049 -227.1758z" stroke="none" fill="#F8F8F8" fill-rule="winding" /><path transform="matrix(1 0 0 -1 0 841)" d="M48.77049 123.9707L75.78184 123.9707L75.78184 123.9707L75.78184 -324.7168L75.78184 -324.7168L48.77049 -324.7168z" stroke="none" fill="#F8F8F8" fill-rule="winding" /><path transform="matrix(1 0 0 -1 0 841)" d="M75.03152 123.9707L75.78184 123.9707L75.78184 123.9707L75.78184 -324.7168L75.78184 -324.7168L75.03152 -324.7168z" stroke="none" fill="#DDDDDD" fill-rule="winding" /></g><g transform="matrix(0.2399193 0 0 0.2399322 0 -14.78003)"><g transform="matrix(1 0 0 1 0 0)"><image x="0" y="0" xlink:href="img_02.png" width="2480" height="295" /></g></g><g transform="matrix(0.4798387 0 0 0.4798876 0 798.29)"><g transform="matrix(1 0 0 1 0 0)"><image x="0" y="0" xlink:href="img_03.png" width="1240" height="89" /></g></g></g></g></g></svg>