<svg xmlns="http://www.w3.org/2000/svg" xmlns:xlink="http://www.w3.org/1999/xlink" id="body_11" preserveAspectRatio="xMinYMin meet" viewBox="0 0 793 1121"><defs><clipPath id="1"><path d="M0 841L0 0L0 0L595 0L595 0L595 841L595 841L0 841z" /></clipPath><clipPath id="2"><path d="M0 56L595 56L595 56L595 784.5562L595 784.5562L0 784.5562z" /></clipPath><clipPath id="3"><path d="M48.77049 141.5361L543.2282 141.5361L543.2282 141.5361L543.2282 695.2686L543.2282 695.2686L48.77049 695.2686z" /></clipPath><clipPath id="4"><path d="M0 56L595 56L595 56L595 784.5562L595 784.5562L0 784.5562z" /></clipPath><clipPath id="5"><path d="M48.77049 141.5361L543.2282 141.5361L543.2282 141.5361L543.2282 695.2686L543.2282 695.2686L48.77049 695.2686z" /></clipPath></defs><g transform="matrix(1.333333 0 0 1.333333 0 0)"><g><g clip-path="url(#1)"><g clip-path="url(#2)"><path transform="matrix(1 0 0 -1 0 841)" d="M0 8070.561L595 8070.561L595 8070.561L595 -24633.43L595 -24633.43L0 -24633.43z" stroke="none" fill="#FFFFFF" fill-rule="winding" /><path transform="matrix(1 0 0 -1 0 841)" d="M84.78562 777.1216C 84.78562 776.6035 84.60249 776.1616 84.23622 775.7954C 83.86995 775.4297 83.42782 775.2466 82.90984 775.2461C 82.39185 775.2466 81.94971 775.4297 81.58344 775.7954C 81.21717 776.1616 81.03404 776.6035 81.03405 777.1216C 81.03404 777.6396 81.21717 778.082 81.58344 778.4487C 81.94971 778.8145 82.39185 778.9976 82.90984 778.9976C 83.42782 778.9976 83.86995 778.8145 84.23622 778.4487C 84.60249 778.082 84.78562 777.6396 84.78562 777.1216z" stroke="#333333" stroke-width="0.7503152" fill="none" /><path transform="matrix(1 0 0 -1 0 841)" d="M84.78562 747.1089C 84.78562 746.5908 84.60249 746.1494 84.23622 745.7827C 83.86995 745.4165 83.42782 745.2334 82.90984 745.2334C 82.39185 745.2334 81.94971 745.4165 81.58344 745.7827C 81.21717 746.1494 81.03404 746.5908 81.03405 747.1089C 81.03404 747.627 81.21717 748.0698 81.58344 748.436C 81.94971 748.8018 82.39185 748.9849 82.90984 748.9849C 83.42782 748.9849 83.86995 748.8018 84.23622 748.436C 84.60249 748.0698 84.78562 747.627 84.78562 747.1089z" stroke="#333333" stroke-width="0.7503152" fill="none" /><path transform="matrix(1 0 0 -1 0 841)" d="M48.39533 142.73L48.39533 703.9658C 48.39533 704.4849 48.57846 704.9272 48.94473 705.293C 49.311 705.6587 49.75313 705.8418 50.27112 705.8418L50.27112 705.8418L544.7289 705.8418C 545.2468 705.8418 545.6889 705.6587 546.0552 705.293C 546.4214 704.9272 546.6046 704.4849 546.6047 703.9658L546.6047 703.9658L546.6047 142.73C 546.6046 142.2119 546.4214 141.77 546.0552 141.4038C 545.6889 141.0376 545.2468 140.8545 544.7289 140.8545L544.7289 140.8545L50.27112 140.8545C 49.75313 140.8545 49.311 141.0376 48.94473 141.4038C 48.57846 141.77 48.39533 142.2119 48.39533 142.73z" stroke="none" fill="#F8F8F8" fill-rule="winding" /><path transform="matrix(1 0 0 -1 0 841)" d="M48.39533 142.73L48.39533 703.9658C 48.39533 704.4849 48.57846 704.9272 48.94473 705.293C 49.311 705.6587 49.75313 705.8418 50.27112 705.8418L50.27112 705.8418L544.7289 705.8418C 545.2468 705.8418 545.6889 705.6587 546.0552 705.293C 546.4214 704.9272 546.6046 704.4849 546.6047 703.9658L546.6047 703.9658L546.6047 142.73C 546.6046 142.2119 546.4214 141.77 546.0552 141.4038C 545.6889 141.0376 545.2468 140.8545 544.7289 140.8545L544.7289 140.8545L50.27112 140.8545C 49.75313 140.8545 49.311 141.0376 48.94473 141.4038C 48.57846 141.77 48.39533 142.2119 48.39533 142.73z" stroke="#E7EAED" stroke-width="0.7503152" fill="none" /></g><g clip-path="url(#3)"><path transform="matrix(1 0 0 -1 0 841)" d="M48.77049 699.4639L543.2282 699.4639L543.2282 699.4639L543.2282 145.7314L543.2282 145.7314L48.77049 145.7314z" stroke="none" fill="#F8F8F8" fill-rule="winding" /></g><g clip-path="url(#4)"></g><g clip-path="url(#5)"><path transform="matrix(1 0 0 -1 0 841)" d="M48.77049 699.4639L543.2282 699.4639L543.2282 699.4639L543.2282 145.7314L543.2282 145.7314L48.77049 145.7314z" stroke="none" fill="#F8F8F8" fill-rule="winding" /><path transform="matrix(1 0 0 -1 0 841)" d="M48.77049 699.4639L75.78184 699.4639L75.78184 699.4639L75.78184 -8.083008L75.78184 -8.083008L48.77049 -8.083008z" stroke="none" fill="#F8F8F8" fill-rule="winding" /><path transform="matrix(1 0 0 -1 0 841)" d="M75.03152 699.4639L75.78184 699.4639L75.78184 699.4639L75.78184 -8.083008L75.78184 -8.083008L75.03152 -8.083008z" stroke="none" fill="#DDDDDD" fill-rule="winding" /></g><g transform="matrix(0.2399193 0 0 0.2399322 0 -14.78003)"><g transform="matrix(1 0 0 1 0 0)"><image x="0" y="0" xlink:href="img_02.png" width="2480" height="295" /></g></g><g transform="matrix(0.4798387 0 0 0.4798876 0 798.29)"><g transform="matrix(1 0 0 1 0 0)"><image x="0" y="0" xlink:href="img_03.png" width="1240" height="89" /></g></g></g></g></g></svg>