<svg xmlns="http://www.w3.org/2000/svg" xmlns:xlink="http://www.w3.org/1999/xlink" id="body_2" preserveAspectRatio="xMinYMin meet" viewBox="0 0 793 1121"><defs><clipPath id="1"><path d="M0 841L0 0L0 0L595 0L595 0L595 841L595 841L0 841z" /></clipPath><clipPath id="2"><path d="M0 56L595 56L595 56L595 784.5561L595 784.5561L0 784.5561z" /></clipPath><clipPath id="3"><path d="M48.77049 62.75287L543.2282 62.75287L543.2282 62.75287L543.2282 211.3152L543.2282 211.3152L48.77049 211.3152z" /></clipPath><clipPath id="4"><path d="M0 56L595 56L595 56L595 784.5561L595 784.5561L0 784.5561z" /></clipPath><clipPath id="5"><path d="M194.8708 756.0441L197.6122 756.0441L197.6122 756.0441L197.6122 758.5202L197.6122 758.5202L194.8708 758.5202L194.8708 758.5202L194.8708 756.0441zM92.76043 756.0441L90.019 756.0441L90.019 756.0441L90.019 758.5202L90.019 758.5202L92.76043 758.5202L92.76043 758.5202L92.76043 756.0441zM0 56L0 784.5561L0 784.5561L595 784.5561L595 784.5561L595 56L595 56L0 56z" /></clipPath><clipPath id="6"><path d="M0 56L595 56L595 56L595 784.5561L595 784.5561L0 784.5561z" /></clipPath><clipPath id="7"><path d="M48.77049 62.75287L543.2282 62.75287L543.2282 62.75287L543.2282 211.3152L543.2282 211.3152L48.77049 211.3152z" /></clipPath></defs><g transform="matrix(1.333333 0 0 1.333333 0 0)"><g><g clip-path="url(#1)"><g clip-path="url(#2)"><path transform="matrix(1 0 0 -1 0 841)" d="M0 1513.556L595 1513.556L595 1513.556L595 -31190.43L595 -31190.43L0 -31190.43z" stroke="none" fill="#FFFFFF" fill-rule="winding" /><path transform="matrix(1 0 0 -1 0 841)" d="M48.39533 626.6834L48.39533 782.749C 48.39533 783.267 48.57846 783.7091 48.94473 784.0754C 49.311 784.4417 49.75313 784.6248 50.27112 784.6248L50.27112 784.6248L544.7289 784.6248C 545.2468 784.6248 545.6889 784.4417 546.0552 784.0754C 546.4214 783.7091 546.6046 783.267 546.6047 782.749L546.6047 782.749L546.6047 626.6834C 546.6046 626.1655 546.4214 625.7233 546.0552 625.3571C 545.6889 624.9908 545.2468 624.8077 544.7289 624.8076L544.7289 624.8076L50.27112 624.8076C 49.75313 624.8077 49.311 624.9908 48.94473 625.3571C 48.57846 625.7233 48.39533 626.1655 48.39533 626.6834z" stroke="none" fill="#F8F8F8" fill-rule="winding" /><path transform="matrix(1 0 0 -1 0 841)" d="M48.39533 626.6834L48.39533 782.749C 48.39533 783.267 48.57846 783.7091 48.94473 784.0754C 49.311 784.4417 49.75313 784.6248 50.27112 784.6248L50.27112 784.6248L544.7289 784.6248C 545.2468 784.6248 545.6889 784.4417 546.0552 784.0754C 546.4214 783.7091 546.6046 783.267 546.6047 782.749L546.6047 782.749L546.6047 626.6834C 546.6046 626.1655 546.4214 625.7233 546.0552 625.3571C 545.6889 624.9908 545.2468 624.8077 544.7289 624.8076L544.7289 624.8076L50.27112 624.8076C 49.75313 624.8077 49.311 624.9908 48.94473 625.3571C 48.57846 625.7233 48.39533 626.1655 48.39533 626.6834z" stroke="#E7EAED" stroke-width="0.7503152" fill="none" /></g><g clip-path="url(#3)"><path transform="matrix(1 0 0 -1 0 841)" d="M48.77049 778.2471L543.2282 778.2471L543.2282 778.2471L543.2282 629.6847L543.2282 629.6847L48.77049 629.6847z" stroke="none" fill="#F8F8F8" fill-rule="winding" /></g><g clip-path="url(#4)"><g transform="matrix(0.4279242 0 0 0.4265905 48.02018 227.8222)"><g transform="matrix(1 0 0 1 0 0)"><image x="0" y="0" xlink:href="img_05.png" width="1166" height="248" /></g></g><path transform="matrix(1 0 0 -1 0 841)" d="M48.02018 472.1184L546.9798 472.1184L546.9798 472.1184L546.9798 471.3682L546.9798 471.3682L48.02018 471.3682z" stroke="none" fill="#EEEEEE" fill-rule="winding" /><g transform="matrix(0.6062693 0 0 0.6063668 48.02018 379.386)"><g transform="matrix(1 0 0 1 0 0)"><image x="0" y="0" xlink:href="img_06.png" width="823" height="589" /></g></g></g><g clip-path="url(#5)"><path transform="matrix(1 0 0 -1 0 841)" d="M77.28247 84.20544L263.9117 84.20544L263.9117 84.20544L263.9117 83.4552L263.9117 83.4552L77.28247 83.4552z" stroke="none" fill="#4183C4" fill-rule="winding" /></g><g clip-path="url(#6)"></g><g clip-path="url(#7)"><path transform="matrix(1 0 0 -1 0 841)" d="M48.77049 778.2471L543.2282 778.2471L543.2282 778.2471L543.2282 629.6847L543.2282 629.6847L48.77049 629.6847z" stroke="none" fill="#F8F8F8" fill-rule="winding" /><path transform="matrix(1 0 0 -1 0 841)" d="M48.77049 778.2471L75.78184 778.2471L75.78184 778.2471L75.78184 588.4174L75.78184 588.4174L48.77049 588.4174z" stroke="none" fill="#F8F8F8" fill-rule="winding" /><path transform="matrix(1 0 0 -1 0 841)" d="M75.03152 778.2471L75.78184 778.2471L75.78184 778.2471L75.78184 588.4174L75.78184 588.4174L75.03152 588.4174z" stroke="none" fill="#DDDDDD" fill-rule="winding" /></g><g transform="matrix(0.2399193 0 0 0.2399322 0 -14.78003)"><g transform="matrix(1 0 0 1 0 0)"><image x="0" y="0" xlink:href="img_02.png" width="2480" height="295" /></g></g><g transform="matrix(0.4798387 0 0 0.4798876 0 798.29)"><g transform="matrix(1 0 0 1 0 0)"><image x="0" y="0" xlink:href="img_03.png" width="1240" height="89" /></g></g></g></g></g></svg>