<svg xmlns="http://www.w3.org/2000/svg" xmlns:xlink="http://www.w3.org/1999/xlink" id="body_21" preserveAspectRatio="xMinYMin meet" viewBox="0 0 793 1121"><defs><clipPath id="1"><path d="M0 841L0 0L0 0L595 0L595 0L595 841L595 841L0 841z" /></clipPath><clipPath id="2"><path d="M0 56L595 56L595 56L595 784.5566L595 784.5566L0 784.5566z" /></clipPath><clipPath id="3"><path d="M48.77049 56L543.2282 56L543.2282 56L543.2282 69.50586L543.2282 69.50586L48.77049 69.50586z" /></clipPath><clipPath id="4"><path d="M0 56L595 56L595 56L595 784.5566L595 784.5566L0 784.5566z" /></clipPath><clipPath id="5"><path d="M48.77049 175.2998L543.2282 175.2998L543.2282 175.2998L543.2282 391.3906L543.2282 391.3906L48.77049 391.3906z" /></clipPath><clipPath id="6"><path d="M0 56L595 56L595 56L595 784.5566L595 784.5566L0 784.5566z" /></clipPath><clipPath id="7"><path d="M48.77049 56L543.2282 56L543.2282 56L543.2282 69.50586L543.2282 69.50586L48.77049 69.50586z" /></clipPath><clipPath id="8"><path d="M48.77049 175.2998L543.2282 175.2998L543.2282 175.2998L543.2282 391.3906L543.2282 391.3906L48.77049 391.3906z" /></clipPath></defs><g transform="matrix(1.333333 0 0 1.333333 0 0)"><g><g clip-path="url(#1)"><g clip-path="url(#2)"><path transform="matrix(1 0 0 -1 0 841)" d="M0 15356.12L595 15356.12L595 15356.12L595 -17347.87L595 -17347.87L0 -17347.87z" stroke="none" fill="#FFFFFF" fill-rule="winding" /><path transform="matrix(1 0 0 -1 0 841)" d="M48.39533 768.4932L48.39533 1328.229C 48.39533 1328.747 48.57846 1329.189 48.94473 1329.556C 49.311 1329.921 49.75313 1330.104 50.27112 1330.104L50.27112 1330.104L544.7289 1330.104C 545.2468 1330.104 545.6889 1329.921 546.0552 1329.556C 546.4214 1329.189 546.6046 1328.747 546.6047 1328.229L546.6047 1328.229L546.6047 768.4932C 546.6046 767.9756 546.4214 767.5342 546.0552 767.168C 545.6889 766.8018 545.2468 766.6191 544.7289 766.6172L544.7289 766.6172L50.27112 766.6172C 49.75313 766.6191 49.311 766.8018 48.94473 767.168C 48.57846 767.5342 48.39533 767.9756 48.39533 768.4932z" stroke="none" fill="#F8F8F8" fill-rule="winding" /><path transform="matrix(1 0 0 -1 0 841)" d="M48.39533 768.4932L48.39533 1328.229C 48.39533 1328.747 48.57846 1329.189 48.94473 1329.556C 49.311 1329.921 49.75313 1330.104 50.27112 1330.104L50.27112 1330.104L544.7289 1330.104C 545.2468 1330.104 545.6889 1329.921 546.0552 1329.556C 546.4214 1329.189 546.6046 1328.747 546.6047 1328.229L546.6047 1328.229L546.6047 768.4932C 546.6046 767.9756 546.4214 767.5342 546.0552 767.168C 545.6889 766.8018 545.2468 766.6191 544.7289 766.6172L544.7289 766.6172L50.27112 766.6172C 49.75313 766.6191 49.311 766.8018 48.94473 767.168C 48.57846 767.5342 48.39533 767.9756 48.39533 768.4932z" stroke="#E7EAED" stroke-width="0.7503152" fill="none" /></g><g clip-path="url(#3)"><path transform="matrix(1 0 0 -1 0 841)" d="M48.77049 1323.727L543.2282 1323.727L543.2282 1323.727L543.2282 771.4941L543.2282 771.4941L48.77049 771.4941z" stroke="none" fill="#F8F8F8" fill-rule="winding" /></g><g clip-path="url(#4)"><path transform="matrix(1 0 0 -1 0 841)" d="M48.39533 446.6074L48.39533 670.2021C 48.39533 670.7207 48.57846 671.1631 48.94473 671.5293C 49.311 671.8945 49.75313 672.0771 50.27112 672.0771L50.27112 672.0771L544.7289 672.0771C 545.2468 672.0771 545.6889 671.8945 546.0552 671.5293C 546.4214 671.1631 546.6046 670.7207 546.6047 670.2021L546.6047 670.2021L546.6047 446.6074C 546.6046 446.0908 546.4214 445.6475 546.0552 445.2813C 545.6889 444.915 545.2468 444.7324 544.7289 444.7324L544.7289 444.7324L50.27112 444.7324C 49.75313 444.7324 49.311 444.915 48.94473 445.2813C 48.57846 445.6475 48.39533 446.0908 48.39533 446.6074z" stroke="none" fill="#F8F8F8" fill-rule="winding" /><path transform="matrix(1 0 0 -1 0 841)" d="M48.39533 446.6074L48.39533 670.2021C 48.39533 670.7207 48.57846 671.1631 48.94473 671.5293C 49.311 671.8945 49.75313 672.0771 50.27112 672.0771L50.27112 672.0771L544.7289 672.0771C 545.2468 672.0771 545.6889 671.8945 546.0552 671.5293C 546.4214 671.1631 546.6046 670.7207 546.6047 670.2021L546.6047 670.2021L546.6047 446.6074C 546.6046 446.0908 546.4214 445.6475 546.0552 445.2813C 545.6889 444.915 545.2468 444.7324 544.7289 444.7324L544.7289 444.7324L50.27112 444.7324C 49.75313 444.7324 49.311 444.915 48.94473 445.2813C 48.57846 445.6475 48.39533 446.0908 48.39533 446.6074z" stroke="#E7EAED" stroke-width="0.7503152" fill="none" /></g><g clip-path="url(#5)"><path transform="matrix(1 0 0 -1 0 841)" d="M48.77049 665.7002L543.2282 665.7002L543.2282 665.7002L543.2282 449.6094L543.2282 449.6094L48.77049 449.6094z" stroke="none" fill="#F8F8F8" fill-rule="winding" /></g><g clip-path="url(#6)"><g transform="matrix(0.7503152 0 0 0.7503152 118.5498 430.4072)"><g transform="matrix(1 0 0 1 0 0)"><image x="0" y="0" xlink:href="img_41.png" width="477" height="146" /></g></g><path transform="matrix(1 0 0 -1 0 841)" d="M62.27617 262.4053C 62.27617 261.8877 62.09303 261.4453 61.72676 261.0811C 61.36049 260.7139 60.91836 260.5313 60.40038 260.5293C 59.88239 260.5313 59.44026 260.7139 59.07399 261.0811C 58.70772 261.4453 58.52458 261.8877 58.52459 262.4053C 58.52458 262.9238 58.70772 263.3672 59.07399 263.7334C 59.44026 264.0977 59.88239 264.2813 60.40038 264.2813C 60.91836 264.2813 61.36049 264.0977 61.72676 263.7334C 62.09303 263.3672 62.27617 262.9238 62.27617 262.4053z" stroke="none" fill="#333333" fill-rule="winding" /><path transform="matrix(1 0 0 -1 0 841)" d="M62.27617 242.1465C 62.27617 241.6299 62.09303 241.1865 61.72676 240.8203C 61.36049 240.4541 60.91836 240.2715 60.40038 240.2715C 59.88239 240.2715 59.44026 240.4541 59.07399 240.8203C 58.70772 241.1865 58.52458 241.6299 58.52459 242.1465C 58.52458 242.666 58.70772 243.1084 59.07399 243.4746C 59.44026 243.8398 59.88239 244.0225 60.40038 244.0225C 60.91836 244.0225 61.36049 243.8398 61.72676 243.4746C 62.09303 243.1084 62.27617 242.666 62.27617 242.1465z" stroke="none" fill="#333333" fill-rule="winding" /><path transform="matrix(1 0 0 -1 0 841)" d="M84.78562 222.6387C 84.78562 222.1211 84.60249 221.6787 84.23622 221.3135C 83.86995 220.9473 83.42782 220.7646 82.90984 220.7627C 82.39185 220.7646 81.94971 220.9473 81.58344 221.3135C 81.21717 221.6787 81.03404 222.1211 81.03405 222.6387C 81.03404 223.1572 81.21717 223.5996 81.58344 223.9668C 81.94971 224.3311 82.39185 224.5146 82.90984 224.5146C 83.42782 224.5146 83.86995 224.3311 84.23622 223.9668C 84.60249 223.5996 84.78562 223.1572 84.78562 222.6387z" stroke="#333333" stroke-width="0.7503152" fill="none" /><path transform="matrix(1 0 0 -1 0 841)" d="M84.78562 207.6328C 84.78562 207.1152 84.60249 206.6738 84.23622 206.3076C 83.86995 205.9414 83.42782 205.7578 82.90984 205.7568C 82.39185 205.7578 81.94971 205.9414 81.58344 206.3076C 81.21717 206.6738 81.03404 207.1152 81.03405 207.6328C 81.03404 208.1514 81.21717 208.5938 81.58344 208.96C 81.94971 209.3252 82.39185 209.5078 82.90984 209.5078C 83.42782 209.5078 83.86995 209.3252 84.23622 208.96C 84.60249 208.5938 84.78562 208.1514 84.78562 207.6328z" stroke="#333333" stroke-width="0.7503152" fill="none" /><path transform="matrix(1 0 0 -1 0 841)" d="M84.78562 192.626C 84.78562 192.1084 84.60249 191.666 84.23622 191.2998C 83.86995 190.9336 83.42782 190.75 82.90984 190.75C 82.39185 190.75 81.94971 190.9336 81.58344 191.2998C 81.21717 191.666 81.03404 192.1084 81.03405 192.626C 81.03404 193.1436 81.21717 193.5859 81.58344 193.9521C 81.94971 194.3184 82.39185 194.502 82.90984 194.502C 83.42782 194.502 83.86995 194.3184 84.23622 193.9521C 84.60249 193.5859 84.78562 193.1436 84.78562 192.626z" stroke="#333333" stroke-width="0.7503152" fill="none" /><path transform="matrix(1 0 0 -1 0 841)" d="M84.78562 177.6201C 84.78562 177.1025 84.60249 176.6611 84.23622 176.2949C 83.86995 175.9287 83.42782 175.7451 82.90984 175.7441C 82.39185 175.7451 81.94971 175.9287 81.58344 176.2949C 81.21717 176.6611 81.03404 177.1025 81.03405 177.6201C 81.03404 178.1387 81.21717 178.5811 81.58344 178.9473C 81.94971 179.3125 82.39185 179.4951 82.90984 179.4951C 83.42782 179.4951 83.86995 179.3125 84.23622 178.9473C 84.60249 178.5811 84.78562 178.1387 84.78562 177.6201z" stroke="#333333" stroke-width="0.7503152" fill="none" /><path transform="matrix(1 0 0 -1 0 841)" d="M62.27617 162.6133C 62.27617 162.0957 62.09303 161.6533 61.72676 161.2871C 61.36049 160.9209 60.91836 160.7373 60.40038 160.7373C 59.88239 160.7373 59.44026 160.9209 59.07399 161.2871C 58.70772 161.6533 58.52458 162.0957 58.52459 162.6133C 58.52458 163.1318 58.70772 163.5752 59.07399 163.9414C 59.44026 164.3057 59.88239 164.4893 60.40038 164.4893C 60.91836 164.4893 61.36049 164.3057 61.72676 163.9414C 62.09303 163.5752 62.27617 163.1318 62.27617 162.6133z" stroke="none" fill="#333333" fill-rule="winding" /><path transform="matrix(1 0 0 -1 0 841)" d="M84.78562 142.3545C 84.78562 141.8379 84.60249 141.3965 84.23622 141.0303C 83.86995 140.6641 83.42782 140.4805 82.90984 140.4795C 82.39185 140.4805 81.94971 140.6641 81.58344 141.0303C 81.21717 141.3965 81.03404 141.8379 81.03405 142.3545C 81.03404 142.874 81.21717 143.3164 81.58344 143.6826C 81.94971 144.0479 82.39185 144.2305 82.90984 144.2305C 83.42782 144.2305 83.86995 144.0479 84.23622 143.6826C 84.60249 143.3164 84.78562 142.874 84.78562 142.3545z" stroke="#333333" stroke-width="0.7503152" fill="none" /><path transform="matrix(1 0 0 -1 0 841)" d="M84.78562 127.3486C 84.78562 126.8311 84.60249 126.3887 84.23622 126.0225C 83.86995 125.6563 83.42782 125.4727 82.90984 125.4727C 82.39185 125.4727 81.94971 125.6563 81.58344 126.0225C 81.21717 126.3887 81.03404 126.8311 81.03405 127.3486C 81.03404 127.8672 81.21717 128.3096 81.58344 128.6768C 81.94971 129.041 82.39185 129.2246 82.90984 129.2246C 83.42782 129.2246 83.86995 129.041 84.23622 128.6768C 84.60249 128.3096 84.78562 127.8672 84.78562 127.3486z" stroke="#333333" stroke-width="0.7503152" fill="none" /><path transform="matrix(1 0 0 -1 0 841)" d="M84.78562 112.3428C 84.78562 111.8252 84.60249 111.3828 84.23622 111.0156C 83.86995 110.6494 83.42782 110.4668 82.90984 110.4668C 82.39185 110.4668 81.94971 110.6494 81.58344 111.0156C 81.21717 111.3828 81.03404 111.8252 81.03405 112.3428C 81.03404 112.8613 81.21717 113.3037 81.58344 113.6689C 81.94971 114.0352 82.39185 114.2178 82.90984 114.2178C 83.42782 114.2178 83.86995 114.0352 84.23622 113.6689C 84.60249 113.3037 84.78562 112.8613 84.78562 112.3428z" stroke="#333333" stroke-width="0.7503152" fill="none" /></g><g clip-path="url(#7)"><path transform="matrix(1 0 0 -1 0 841)" d="M48.77049 1323.727L543.2282 1323.727L543.2282 1323.727L543.2282 771.4941L543.2282 771.4941L48.77049 771.4941z" stroke="none" fill="#F8F8F8" fill-rule="winding" /><path transform="matrix(1 0 0 -1 0 841)" d="M48.77049 1323.727L75.78184 1323.727L75.78184 1323.727L75.78184 633.4365L75.78184 633.4365L48.77049 633.4365z" stroke="none" fill="#F8F8F8" fill-rule="winding" /><path transform="matrix(1 0 0 -1 0 841)" d="M75.03152 1323.727L75.78184 1323.727L75.78184 1323.727L75.78184 633.4365L75.78184 633.4365L75.03152 633.4365z" stroke="none" fill="#DDDDDD" fill-rule="winding" /></g><g clip-path="url(#8)"><path transform="matrix(1 0 0 -1 0 841)" d="M48.77049 665.7002L543.2282 665.7002L543.2282 665.7002L543.2282 449.6094L543.2282 449.6094L48.77049 449.6094z" stroke="none" fill="#F8F8F8" fill-rule="winding" /><path transform="matrix(1 0 0 -1 0 841)" d="M48.77049 665.7002L75.78184 665.7002L75.78184 665.7002L75.78184 389.584L75.78184 389.584L48.77049 389.584z" stroke="none" fill="#F8F8F8" fill-rule="winding" /><path transform="matrix(1 0 0 -1 0 841)" d="M75.03152 665.7002L75.78184 665.7002L75.78184 665.7002L75.78184 389.584L75.78184 389.584L75.03152 389.584z" stroke="none" fill="#DDDDDD" fill-rule="winding" /></g><g transform="matrix(0.2399193 0 0 0.2399322 0 -14.78003)"><g transform="matrix(1 0 0 1 0 0)"><image x="0" y="0" xlink:href="img_02.png" width="2480" height="295" /></g></g><g transform="matrix(0.4798387 0 0 0.4798876 0 798.29)"><g transform="matrix(1 0 0 1 0 0)"><image x="0" y="0" xlink:href="img_03.png" width="1240" height="89" /></g></g></g></g></g></svg>