<svg xmlns="http://www.w3.org/2000/svg" xmlns:xlink="http://www.w3.org/1999/xlink" id="body_14" preserveAspectRatio="xMinYMin meet" viewBox="0 0 793 1121"><defs><clipPath id="1"><path d="M0 841L0 0L0 0L595 0L595 0L595 841L595 841L0 841z" /></clipPath><clipPath id="2"><path d="M0 56L595 56L595 56L595 784.5557L595 784.5557L0 784.5557z" /></clipPath><clipPath id="3"><path d="M48.77049 56L543.2282 56L543.2282 56L543.2282 218.0684L543.2282 218.0684L48.77049 218.0684z" /></clipPath><clipPath id="4"><path d="M0 56L595 56L595 56L595 784.5557L595 784.5557L0 784.5557z" /></clipPath><clipPath id="5"><path d="M48.77049 267.5889L543.2282 267.5889L543.2282 267.5889L543.2282 591.7246L543.2282 591.7246L48.77049 591.7246z" /></clipPath><clipPath id="6"><path d="M0 56L595 56L595 56L595 784.5557L595 784.5557L0 784.5557z" /></clipPath><clipPath id="7"><path d="M48.77049 667.5068L543.2282 667.5068L543.2282 667.5068L543.2282 784.5557L543.2282 784.5557L48.77049 784.5557z" /></clipPath><clipPath id="8"><path d="M48.77049 56L543.2282 56L543.2282 56L543.2282 218.0684L543.2282 218.0684L48.77049 218.0684z" /></clipPath><clipPath id="9"><path d="M48.77049 267.5889L543.2282 267.5889L543.2282 267.5889L543.2282 591.7246L543.2282 591.7246L48.77049 591.7246z" /></clipPath><clipPath id="10"><path d="M48.77049 667.5068L543.2282 667.5068L543.2282 667.5068L543.2282 784.5557L543.2282 784.5557L48.77049 784.5557z" /></clipPath></defs><g transform="matrix(1.333333 0 0 1.333333 0 0)"><g><g clip-path="url(#1)"><g clip-path="url(#2)"><path transform="matrix(1 0 0 -1 0 841)" d="M0 10256.23L595 10256.23L595 10256.23L595 -22447.76L595 -22447.76L0 -22447.76z" stroke="none" fill="#FFFFFF" fill-rule="winding" /><path transform="matrix(1 0 0 -1 0 841)" d="M48.39533 619.9307L48.39533 953.0703C 48.39533 953.5898 48.57846 954.0322 48.94473 954.3975C 49.311 954.7637 49.75313 954.9463 50.27112 954.9463L50.27112 954.9463L544.7289 954.9463C 545.2468 954.9463 545.6889 954.7637 546.0552 954.3975C 546.4214 954.0322 546.6046 953.5898 546.6047 953.0703L546.6047 953.0703L546.6047 619.9307C 546.6046 619.4131 546.4214 618.9707 546.0552 618.6045C 545.6889 618.2393 545.2468 618.0557 544.7289 618.0547L544.7289 618.0547L50.27112 618.0547C 49.75313 618.0557 49.311 618.2393 48.94473 618.6045C 48.57846 618.9707 48.39533 619.4131 48.39533 619.9307z" stroke="none" fill="#F8F8F8" fill-rule="winding" /><path transform="matrix(1 0 0 -1 0 841)" d="M48.39533 619.9307L48.39533 953.0703C 48.39533 953.5898 48.57846 954.0322 48.94473 954.3975C 49.311 954.7637 49.75313 954.9463 50.27112 954.9463L50.27112 954.9463L544.7289 954.9463C 545.2468 954.9463 545.6889 954.7637 546.0552 954.3975C 546.4214 954.0322 546.6046 953.5898 546.6047 953.0703L546.6047 953.0703L546.6047 619.9307C 546.6046 619.4131 546.4214 618.9707 546.0552 618.6045C 545.6889 618.2393 545.2468 618.0557 544.7289 618.0547L544.7289 618.0547L50.27112 618.0547C 49.75313 618.0557 49.311 618.2393 48.94473 618.6045C 48.57846 618.9707 48.39533 619.4131 48.39533 619.9307z" stroke="#E7EAED" stroke-width="0.7503152" fill="none" /></g><g clip-path="url(#3)"><path transform="matrix(1 0 0 -1 0 841)" d="M48.77049 948.5684L543.2282 948.5684L543.2282 948.5684L543.2282 622.9316L543.2282 622.9316L48.77049 622.9316z" stroke="none" fill="#F8F8F8" fill-rule="winding" /></g><g clip-path="url(#4)"><path transform="matrix(1 0 0 -1 0 841)" d="M48.39533 246.2734L48.39533 577.9131C 48.39533 578.4307 48.57846 578.874 48.94473 579.2402C 49.311 579.6055 49.75313 579.7891 50.27112 579.7891L50.27112 579.7891L544.7289 579.7891C 545.2468 579.7891 545.6889 579.6055 546.0552 579.2402C 546.4214 578.874 546.6046 578.4307 546.6047 577.9131L546.6047 577.9131L546.6047 246.2734C 546.6046 245.7559 546.4214 245.3135 546.0552 244.9482C 545.6889 244.582 545.2468 244.3984 544.7289 244.3984L544.7289 244.3984L50.27112 244.3984C 49.75313 244.3984 49.311 244.582 48.94473 244.9482C 48.57846 245.3135 48.39533 245.7559 48.39533 246.2734z" stroke="none" fill="#F8F8F8" fill-rule="winding" /><path transform="matrix(1 0 0 -1 0 841)" d="M48.39533 246.2734L48.39533 577.9131C 48.39533 578.4307 48.57846 578.874 48.94473 579.2402C 49.311 579.6055 49.75313 579.7891 50.27112 579.7891L50.27112 579.7891L544.7289 579.7891C 545.2468 579.7891 545.6889 579.6055 546.0552 579.2402C 546.4214 578.874 546.6046 578.4307 546.6047 577.9131L546.6047 577.9131L546.6047 246.2734C 546.6046 245.7559 546.4214 245.3135 546.0552 244.9482C 545.6889 244.582 545.2468 244.3984 544.7289 244.3984L544.7289 244.3984L50.27112 244.3984C 49.75313 244.3984 49.311 244.582 48.94473 244.9482C 48.57846 245.3135 48.39533 245.7559 48.39533 246.2734z" stroke="#E7EAED" stroke-width="0.7503152" fill="none" /></g><g clip-path="url(#5)"><path transform="matrix(1 0 0 -1 0 841)" d="M48.77049 573.4111L543.2282 573.4111L543.2282 573.4111L543.2282 249.2754L543.2282 249.2754L48.77049 249.2754z" stroke="none" fill="#F8F8F8" fill-rule="winding" /></g><g clip-path="url(#6)"><path transform="matrix(1 0 0 -1 0 841)" d="M48.39533 -81.61426L48.39533 177.9951C 48.39533 178.5137 48.57846 178.9561 48.94473 179.3223C 49.311 179.6875 49.75313 179.8711 50.27112 179.8711L50.27112 179.8711L544.7289 179.8711C 545.2468 179.8711 545.6889 179.6875 546.0552 179.3223C 546.4214 178.9561 546.6046 178.5137 546.6047 177.9951L546.6047 177.9951L546.6047 -81.61426C 546.6046 -82.13184 546.4214 -82.57422 546.0552 -82.93945C 545.6889 -83.30566 545.2468 -83.48926 544.7289 -83.49023L544.7289 -83.49023L50.27112 -83.49023C 49.75313 -83.48926 49.311 -83.30566 48.94473 -82.93945C 48.57846 -82.57422 48.39533 -82.13184 48.39533 -81.61426z" stroke="none" fill="#F8F8F8" fill-rule="winding" /><path transform="matrix(1 0 0 -1 0 841)" d="M48.39533 -81.61426L48.39533 177.9951C 48.39533 178.5137 48.57846 178.9561 48.94473 179.3223C 49.311 179.6875 49.75313 179.8711 50.27112 179.8711L50.27112 179.8711L544.7289 179.8711C 545.2468 179.8711 545.6889 179.6875 546.0552 179.3223C 546.4214 178.9561 546.6046 178.5137 546.6047 177.9951L546.6047 177.9951L546.6047 -81.61426C 546.6046 -82.13184 546.4214 -82.57422 546.0552 -82.93945C 545.6889 -83.30566 545.2468 -83.48926 544.7289 -83.49023L544.7289 -83.49023L50.27112 -83.49023C 49.75313 -83.48926 49.311 -83.30566 48.94473 -82.93945C 48.57846 -82.57422 48.39533 -82.13184 48.39533 -81.61426z" stroke="#E7EAED" stroke-width="0.7503152" fill="none" /></g><g clip-path="url(#7)"><path transform="matrix(1 0 0 -1 0 841)" d="M48.77049 173.4932L543.2282 173.4932L543.2282 173.4932L543.2282 -78.6123L543.2282 -78.6123L48.77049 -78.6123z" stroke="none" fill="#F8F8F8" fill-rule="winding" /></g><g clip-path="url(#8)"><path transform="matrix(1 0 0 -1 0 841)" d="M48.77049 948.5684L543.2282 948.5684L543.2282 948.5684L543.2282 622.9316L543.2282 622.9316L48.77049 622.9316z" stroke="none" fill="#F8F8F8" fill-rule="winding" /><path transform="matrix(1 0 0 -1 0 841)" d="M48.77049 948.5684L75.78184 948.5684L75.78184 948.5684L75.78184 534.3945L75.78184 534.3945L48.77049 534.3945z" stroke="none" fill="#F8F8F8" fill-rule="winding" /><path transform="matrix(1 0 0 -1 0 841)" d="M75.03152 948.5684L75.78184 948.5684L75.78184 948.5684L75.78184 534.3945L75.78184 534.3945L75.03152 534.3945z" stroke="none" fill="#DDDDDD" fill-rule="winding" /></g><g clip-path="url(#9)"><path transform="matrix(1 0 0 -1 0 841)" d="M48.77049 573.4111L543.2282 573.4111L543.2282 573.4111L543.2282 249.2754L543.2282 249.2754L48.77049 249.2754z" stroke="none" fill="#F8F8F8" fill-rule="winding" /><path transform="matrix(1 0 0 -1 0 841)" d="M48.77049 573.4111L75.78184 573.4111L75.78184 573.4111L75.78184 159.2373L75.78184 159.2373L48.77049 159.2373z" stroke="none" fill="#F8F8F8" fill-rule="winding" /><path transform="matrix(1 0 0 -1 0 841)" d="M75.03152 573.4111L75.78184 573.4111L75.78184 573.4111L75.78184 159.2373L75.78184 159.2373L75.03152 159.2373z" stroke="none" fill="#DDDDDD" fill-rule="winding" /></g><g clip-path="url(#10)"><path transform="matrix(1 0 0 -1 0 841)" d="M48.77049 173.4932L543.2282 173.4932L543.2282 173.4932L543.2282 -78.6123L543.2282 -78.6123L48.77049 -78.6123z" stroke="none" fill="#F8F8F8" fill-rule="winding" /><path transform="matrix(1 0 0 -1 0 841)" d="M48.77049 173.4932L75.78184 173.4932L75.78184 173.4932L75.78184 -137.1377L75.78184 -137.1377L48.77049 -137.1377z" stroke="none" fill="#F8F8F8" fill-rule="winding" /><path transform="matrix(1 0 0 -1 0 841)" d="M75.03152 173.4932L75.78184 173.4932L75.78184 173.4932L75.78184 -137.1377L75.78184 -137.1377L75.03152 -137.1377z" stroke="none" fill="#DDDDDD" fill-rule="winding" /></g><g transform="matrix(0.2399193 0 0 0.2399322 0 -14.78003)"><g transform="matrix(1 0 0 1 0 0)"><image x="0" y="0" xlink:href="img_02.png" width="2480" height="295" /></g></g><g transform="matrix(0.4798387 0 0 0.4798876 0 798.29)"><g transform="matrix(1 0 0 1 0 0)"><image x="0" y="0" xlink:href="img_03.png" width="1240" height="89" /></g></g></g></g></g></svg>