<svg xmlns="http://www.w3.org/2000/svg" xmlns:xlink="http://www.w3.org/1999/xlink" id="body_5" preserveAspectRatio="xMinYMin meet" viewBox="0 0 793 1121"><defs><clipPath id="1"><path d="M0 841L0 0L0 0L595 0L595 0L595 841L595 841L0 841z" /></clipPath><clipPath id="2"><path d="M0 56L595 56L595 56L595 784.5562L595 784.5562L0 784.5562z" /></clipPath><clipPath id="3"><path d="M334.4342 497.1855L337.1756 497.1855L337.1756 497.1855L337.1756 499.6614L337.1756 499.6614L334.4342 499.6614L334.4342 499.6614L334.4342 497.1855zM0 784.5562L0 56L0 56L595 56L595 56L595 784.5562L595 784.5562L0 784.5562z" /></clipPath><clipPath id="4"><path d="M0 56L595 56L595 56L595 784.5562L595 784.5562L0 784.5562z" /></clipPath><clipPath id="5"><path d="M48.77049 518.9446L543.2282 518.9446L543.2282 518.9446L543.2282 784.5562L543.2282 784.5562L48.77049 784.5562z" /></clipPath></defs><g transform="matrix(1.333333 0 0 1.333333 0 0)"><g><g clip-path="url(#1)"><g clip-path="url(#2)"><path transform="matrix(1 0 0 -1 0 841)" d="M0 3699.224L595 3699.224L595 3699.224L595 -29004.77L595 -29004.77L0 -29004.77z" stroke="none" fill="#FFFFFF" fill-rule="winding" /><g transform="matrix(0.5308082 0 0 0.5308353 48.02018 56)"><g transform="matrix(1 0 0 1 0 0)"><image x="0" y="0" xlink:href="img_13.png" width="940" height="735" /></g></g></g><g clip-path="url(#3)"><path transform="matrix(1 0 0 -1 0 841)" d="M321.6977 343.0642L503.4146 343.0642L503.4146 343.0642L503.4146 342.314L503.4146 342.314L321.6977 342.314z" stroke="none" fill="#4183C4" fill-rule="winding" /></g><g clip-path="url(#4)"><path transform="matrix(1 0 0 -1 0 841)" d="M48.39533 -297.7051L48.39533 326.5574C 48.39533 327.0754 48.57846 327.5176 48.94473 327.884C 49.311 328.25 49.75313 328.4331 50.27112 328.4331L50.27112 328.4331L544.7289 328.4331C 545.2468 328.4331 545.6889 328.25 546.0552 327.884C 546.4214 327.5176 546.6046 327.0754 546.6047 326.5574L546.6047 326.5574L546.6047 -297.7051C 546.6046 -298.2227 546.4214 -298.6648 546.0552 -299.0308C 545.6889 -299.3972 545.2468 -299.5803 544.7289 -299.5808L544.7289 -299.5808L50.27112 -299.5808C 49.75313 -299.5803 49.311 -299.3972 48.94473 -299.0308C 48.57846 -298.6648 48.39533 -298.2227 48.39533 -297.7051z" stroke="none" fill="#F8F8F8" fill-rule="winding" /><path transform="matrix(1 0 0 -1 0 841)" d="M48.39533 -297.7051L48.39533 326.5574C 48.39533 327.0754 48.57846 327.5176 48.94473 327.884C 49.311 328.25 49.75313 328.4331 50.27112 328.4331L50.27112 328.4331L544.7289 328.4331C 545.2468 328.4331 545.6889 328.25 546.0552 327.884C 546.4214 327.5176 546.6046 327.0754 546.6047 326.5574L546.6047 326.5574L546.6047 -297.7051C 546.6046 -298.2227 546.4214 -298.6648 546.0552 -299.0308C 545.6889 -299.3972 545.2468 -299.5803 544.7289 -299.5808L544.7289 -299.5808L50.27112 -299.5808C 49.75313 -299.5803 49.311 -299.3972 48.94473 -299.0308C 48.57846 -298.6648 48.39533 -298.2227 48.39533 -297.7051z" stroke="#E7EAED" stroke-width="0.7503152" fill="none" /></g><g clip-path="url(#5)"><path transform="matrix(1 0 0 -1 0 841)" d="M48.77049 322.0554L543.2282 322.0554L543.2282 322.0554L543.2282 -294.7036L543.2282 -294.7036L48.77049 -294.7036z" stroke="none" fill="#F8F8F8" fill-rule="winding" /><path transform="matrix(1 0 0 -1 0 841)" d="M48.77049 322.0554L543.2282 322.0554L543.2282 322.0554L543.2282 -294.7036L543.2282 -294.7036L48.77049 -294.7036z" stroke="none" fill="#F8F8F8" fill-rule="winding" /><path transform="matrix(1 0 0 -1 0 841)" d="M48.77049 322.0554L75.78184 322.0554L75.78184 322.0554L75.78184 -454.5208L75.78184 -454.5208L48.77049 -454.5208z" stroke="none" fill="#F8F8F8" fill-rule="winding" /><path transform="matrix(1 0 0 -1 0 841)" d="M75.03152 322.0554L75.78184 322.0554L75.78184 322.0554L75.78184 -454.5208L75.78184 -454.5208L75.03152 -454.5208z" stroke="none" fill="#DDDDDD" fill-rule="winding" /></g><g transform="matrix(0.2399193 0 0 0.2399322 0 -14.78003)"><g transform="matrix(1 0 0 1 0 0)"><image x="0" y="0" xlink:href="img_02.png" width="2480" height="295" /></g></g><g transform="matrix(0.4798387 0 0 0.4798876 0 798.29)"><g transform="matrix(1 0 0 1 0 0)"><image x="0" y="0" xlink:href="img_03.png" width="1240" height="89" /></g></g></g></g></g></svg>