<svg xmlns="http://www.w3.org/2000/svg" xmlns:xlink="http://www.w3.org/1999/xlink" id="body_9" preserveAspectRatio="xMinYMin meet" viewBox="0 0 793 1121"><defs><clipPath id="1"><path d="M0 841L0 0L0 0L595 0L595 0L595 841L595 841L0 841z" /></clipPath><clipPath id="2"><path d="M0 56L595 56L595 56L595 784.5562L595 784.5562L0 784.5562z" /></clipPath><clipPath id="3"><path d="M48.77049 94.26611L543.2282 94.26611L543.2282 94.26611L543.2282 283.3457L543.2282 283.3457L48.77049 283.3457z" /></clipPath><clipPath id="4"><path d="M0 56L595 56L595 56L595 784.5562L595 784.5562L0 784.5562z" /></clipPath><clipPath id="5"><path d="M48.77049 94.26611L543.2282 94.26611L543.2282 94.26611L543.2282 283.3457L543.2282 283.3457L48.77049 283.3457z" /></clipPath></defs><g transform="matrix(1.333333 0 0 1.333333 0 0)"><g><g clip-path="url(#1)"><g clip-path="url(#2)"><path transform="matrix(1 0 0 -1 0 841)" d="M0 6613.449L595 6613.449L595 6613.449L595 -26090.54L595 -26090.54L0 -26090.54z" stroke="none" fill="#FFFFFF" fill-rule="winding" /><path transform="matrix(1 0 0 -1 0 841)" d="M48.39533 554.6533L48.39533 751.2358C 48.39533 751.7539 48.57846 752.1963 48.94473 752.5625C 49.311 752.9282 49.75313 753.1113 50.27112 753.1113L50.27112 753.1113L544.7289 753.1113C 545.2468 753.1113 545.6889 752.9282 546.0552 752.5625C 546.4214 752.1963 546.6046 751.7539 546.6047 751.2358L546.6047 751.2358L546.6047 554.6533C 546.6046 554.1353 546.4214 553.6934 546.0552 553.3271C 545.6889 552.9614 545.2468 552.7778 544.7289 552.7778L544.7289 552.7778L50.27112 552.7778C 49.75313 552.7778 49.311 552.9614 48.94473 553.3271C 48.57846 553.6934 48.39533 554.1353 48.39533 554.6533z" stroke="none" fill="#F8F8F8" fill-rule="winding" /><path transform="matrix(1 0 0 -1 0 841)" d="M48.39533 554.6533L48.39533 751.2358C 48.39533 751.7539 48.57846 752.1963 48.94473 752.5625C 49.311 752.9282 49.75313 753.1113 50.27112 753.1113L50.27112 753.1113L544.7289 753.1113C 545.2468 753.1113 545.6889 752.9282 546.0552 752.5625C 546.4214 752.1963 546.6046 751.7539 546.6047 751.2358L546.6047 751.2358L546.6047 554.6533C 546.6046 554.1353 546.4214 553.6934 546.0552 553.3271C 545.6889 552.9614 545.2468 552.7778 544.7289 552.7778L544.7289 552.7778L50.27112 552.7778C 49.75313 552.7778 49.311 552.9614 48.94473 553.3271C 48.57846 553.6934 48.39533 554.1353 48.39533 554.6533z" stroke="#E7EAED" stroke-width="0.7503152" fill="none" /></g><g clip-path="url(#3)"><path transform="matrix(1 0 0 -1 0 841)" d="M48.77049 746.7339L543.2282 746.7339L543.2282 746.7339L543.2282 557.6543L543.2282 557.6543L48.77049 557.6543z" stroke="none" fill="#F8F8F8" fill-rule="winding" /></g><g clip-path="url(#4)"><g transform="matrix(0.7503152 0 0 0.7503152 169.5712 322.3618)"><g transform="matrix(1 0 0 1 0 0)"><image x="0" y="0" xlink:href="img_18.png" width="341" height="301" /></g></g></g><g clip-path="url(#5)"><path transform="matrix(1 0 0 -1 0 841)" d="M48.77049 746.7339L543.2282 746.7339L543.2282 746.7339L543.2282 557.6543L543.2282 557.6543L48.77049 557.6543z" stroke="none" fill="#F8F8F8" fill-rule="winding" /><path transform="matrix(1 0 0 -1 0 841)" d="M48.77049 746.7339L75.78184 746.7339L75.78184 746.7339L75.78184 505.1323L75.78184 505.1323L48.77049 505.1323z" stroke="none" fill="#F8F8F8" fill-rule="winding" /><path transform="matrix(1 0 0 -1 0 841)" d="M75.03152 746.7339L75.78184 746.7339L75.78184 746.7339L75.78184 505.1323L75.78184 505.1323L75.03152 505.1323z" stroke="none" fill="#DDDDDD" fill-rule="winding" /></g><g transform="matrix(0.2399193 0 0 0.2399322 0 -14.78003)"><g transform="matrix(1 0 0 1 0 0)"><image x="0" y="0" xlink:href="img_02.png" width="2480" height="295" /></g></g><g transform="matrix(0.4798387 0 0 0.4798876 0 798.29)"><g transform="matrix(1 0 0 1 0 0)"><image x="0" y="0" xlink:href="img_03.png" width="1240" height="89" /></g></g></g></g></g></svg>