<svg xmlns="http://www.w3.org/2000/svg" xmlns:xlink="http://www.w3.org/1999/xlink" id="body_3" preserveAspectRatio="xMinYMin meet" viewBox="0 0 793 1121"><defs><clipPath id="1"><path d="M0 841L0 0L0 0L595 0L595 0L595 841L595 841L0 841z" /></clipPath><clipPath id="2"><path d="M0 56L595 56L595 56L595 784.556L595 784.556L0 784.556z" /></clipPath></defs><g transform="matrix(1.333333 0 0 1.333333 0 0)"><g><g clip-path="url(#1)"><g clip-path="url(#2)"><path transform="matrix(1 0 0 -1 0 841)" d="M0 2242.112L595 2242.112L595 2242.112L595 -30461.88L595 -30461.88L0 -30461.88z" stroke="none" fill="#FFFFFF" fill-rule="winding" /><g transform="matrix(0.6626291 0 0 0.6620429 48.02018 56)"><g transform="matrix(1 0 0 1 0 0)"><image x="0" y="0" xlink:href="img_08.png" width="753" height="357" /></g></g><g transform="matrix(0.4491086 0 0 0.4479283 48.02018 315.6091)"><g transform="matrix(1 0 0 1 0 0)"><image x="0" y="0" xlink:href="img_09.png" width="1111" height="531" /></g></g><path transform="matrix(1 0 0 -1 0 841)" d="M48.02018 252.276L546.9798 252.276L546.9798 252.276L546.9798 251.5258L546.9798 251.5258L48.02018 251.5258z" stroke="none" fill="#EEEEEE" fill-rule="winding" /></g><g transform="matrix(0.2399193 0 0 0.2399322 0 -14.78003)"><g transform="matrix(1 0 0 1 0 0)"><image x="0" y="0" xlink:href="img_02.png" width="2480" height="295" /></g></g><g transform="matrix(0.4798387 0 0 0.4798876 0 798.29)"><g transform="matrix(1 0 0 1 0 0)"><image x="0" y="0" xlink:href="img_03.png" width="1240" height="89" /></g></g></g></g></g></svg>