<svg xmlns="http://www.w3.org/2000/svg" xmlns:xlink="http://www.w3.org/1999/xlink" id="body_8" preserveAspectRatio="xMinYMin meet" viewBox="0 0 793 1121"><defs><clipPath id="1"><path d="M0 841L0 0L0 0L595 0L595 0L595 841L595 841L0 841z" /></clipPath><clipPath id="2"><path d="M0 56L595 56L595 56L595 784.5562L595 784.5562L0 784.5562z" /></clipPath><clipPath id="3"><path d="M48.77049 62.75293L543.2282 62.75293L543.2282 62.75293L543.2282 778.5537L543.2282 778.5537L48.77049 778.5537z" /></clipPath></defs><g transform="matrix(1.333333 0 0 1.333333 0 0)"><g><g clip-path="url(#1)"><g clip-path="url(#2)"><path transform="matrix(1 0 0 -1 0 841)" d="M0 5884.893L595 5884.893L595 5884.893L595 -26819.1L595 -26819.1L0 -26819.1z" stroke="none" fill="#FFFFFF" fill-rule="winding" /><path transform="matrix(1 0 0 -1 0 841)" d="M48.39533 59.44482L48.39533 782.749C 48.39533 783.2671 48.57846 783.709 48.94473 784.0757C 49.311 784.4414 49.75313 784.6245 50.27112 784.6245L50.27112 784.6245L544.7289 784.6245C 545.2468 784.6245 545.6889 784.4414 546.0552 784.0757C 546.4214 783.709 546.6046 783.2671 546.6047 782.749L546.6047 782.749L546.6047 59.44482C 546.6046 58.92725 546.4214 58.48535 546.0552 58.11914C 545.6889 57.75293 545.2468 57.56934 544.7289 57.56934L544.7289 57.56934L50.27112 57.56934C 49.75313 57.56934 49.311 57.75293 48.94473 58.11914C 48.57846 58.48535 48.39533 58.92725 48.39533 59.44482z" stroke="none" fill="#F8F8F8" fill-rule="winding" /><path transform="matrix(1 0 0 -1 0 841)" d="M48.39533 59.44482L48.39533 782.749C 48.39533 783.2671 48.57846 783.709 48.94473 784.0757C 49.311 784.4414 49.75313 784.6245 50.27112 784.6245L50.27112 784.6245L544.7289 784.6245C 545.2468 784.6245 545.6889 784.4414 546.0552 784.0757C 546.4214 783.709 546.6046 783.2671 546.6047 782.749L546.6047 782.749L546.6047 59.44482C 546.6046 58.92725 546.4214 58.48535 546.0552 58.11914C 545.6889 57.75293 545.2468 57.56934 544.7289 57.56934L544.7289 57.56934L50.27112 57.56934C 49.75313 57.56934 49.311 57.75293 48.94473 58.11914C 48.57846 58.48535 48.39533 58.92725 48.39533 59.44482z" stroke="#E7EAED" stroke-width="0.7503152" fill="none" /></g><g clip-path="url(#3)"><path transform="matrix(1 0 0 -1 0 841)" d="M48.77049 778.2471L543.2282 778.2471L543.2282 778.2471L543.2282 62.44629L543.2282 62.44629L48.77049 62.44629z" stroke="none" fill="#F8F8F8" fill-rule="winding" /><path transform="matrix(1 0 0 -1 0 841)" d="M48.77049 778.2471L543.2282 778.2471L543.2282 778.2471L543.2282 62.44629L543.2282 62.44629L48.77049 62.44629z" stroke="none" fill="#F8F8F8" fill-rule="winding" /><path transform="matrix(1 0 0 -1 0 841)" d="M48.77049 778.2471L75.78184 778.2471L75.78184 778.2471L75.78184 -136.3872L75.78184 -136.3872L48.77049 -136.3872z" stroke="none" fill="#F8F8F8" fill-rule="winding" /><path transform="matrix(1 0 0 -1 0 841)" d="M75.03152 778.2471L75.78184 778.2471L75.78184 778.2471L75.78184 -136.3872L75.78184 -136.3872L75.03152 -136.3872z" stroke="none" fill="#DDDDDD" fill-rule="winding" /></g><g transform="matrix(0.2399193 0 0 0.2399322 0 -14.78003)"><g transform="matrix(1 0 0 1 0 0)"><image x="0" y="0" xlink:href="img_02.png" width="2480" height="295" /></g></g><g transform="matrix(0.4798387 0 0 0.4798876 0 798.29)"><g transform="matrix(1 0 0 1 0 0)"><image x="0" y="0" xlink:href="img_03.png" width="1240" height="89" /></g></g></g></g></g></svg>