<svg xmlns="http://www.w3.org/2000/svg" xmlns:xlink="http://www.w3.org/1999/xlink" id="body_24" preserveAspectRatio="xMinYMin meet" viewBox="0 0 793 1121"><defs><clipPath id="1"><path d="M0 841L0 0L0 0L595 0L595 0L595 841L595 841L0 841z" /></clipPath><clipPath id="2"><path d="M0 56L595 56L595 56L595 784.5547L595 784.5547L0 784.5547z" /></clipPath><clipPath id="3"><path d="M48.77049 425.1543L543.2282 425.1543L543.2282 425.1543L543.2282 600.7285L543.2282 600.7285L48.77049 600.7285z" /></clipPath><clipPath id="4"><path d="M0 56L595 56L595 56L595 784.5547L595 784.5547L0 784.5547z" /></clipPath><clipPath id="5"><path d="M48.77049 650.25L543.2282 650.25L543.2282 650.25L543.2282 663.7539L543.2282 663.7539L48.77049 663.7539z" /></clipPath><clipPath id="6"><path d="M48.77049 425.1543L543.2282 425.1543L543.2282 425.1543L543.2282 600.7285L543.2282 600.7285L48.77049 600.7285z" /></clipPath><clipPath id="7"><path d="M48.77049 650.25L543.2282 650.25L543.2282 650.25L543.2282 663.7539L543.2282 663.7539L48.77049 663.7539z" /></clipPath></defs><g transform="matrix(1.333333 0 0 1.333333 0 0)"><g><g clip-path="url(#1)"><g clip-path="url(#2)"><path transform="matrix(1 0 0 -1 0 841)" d="M0 17541.79L595 17541.79L595 17541.79L595 -40435.82L595 -40435.82L0 -40435.82z" stroke="none" fill="#FFFFFF" fill-rule="winding" /><g transform="matrix(0.7503152 0 0 0.7503152 87.78688 104.7695)"><g transform="matrix(1 0 0 1 0 0)"><image x="0" y="0" xlink:href="img_50.png" width="560" height="335" /></g></g><path transform="matrix(1 0 0 -1 0 841)" d="M48.39533 237.2695L48.39533 420.3477C 48.39533 420.8652 48.57846 421.3086 48.94473 421.6738C 49.311 422.0391 49.75313 422.2227 50.27112 422.2227L50.27112 422.2227L544.7289 422.2227C 545.2468 422.2227 545.6889 422.0391 546.0552 421.6738C 546.4214 421.3086 546.6046 420.8652 546.6047 420.3477L546.6047 420.3477L546.6047 237.2695C 546.6046 236.7539 546.4214 236.3105 546.0552 235.9434C 545.6889 235.5781 545.2468 235.3945 544.7289 235.3945L544.7289 235.3945L50.27112 235.3945C 49.75313 235.3945 49.311 235.5781 48.94473 235.9434C 48.57846 236.3105 48.39533 236.7539 48.39533 237.2695z" stroke="none" fill="#F8F8F8" fill-rule="winding" /><path transform="matrix(1 0 0 -1 0 841)" d="M48.39533 237.2695L48.39533 420.3477C 48.39533 420.8652 48.57846 421.3086 48.94473 421.6738C 49.311 422.0391 49.75313 422.2227 50.27112 422.2227L50.27112 422.2227L544.7289 422.2227C 545.2468 422.2227 545.6889 422.0391 546.0552 421.6738C 546.4214 421.3086 546.6046 420.8652 546.6047 420.3477L546.6047 420.3477L546.6047 237.2695C 546.6046 236.7539 546.4214 236.3105 546.0552 235.9434C 545.6889 235.5781 545.2468 235.3945 544.7289 235.3945L544.7289 235.3945L50.27112 235.3945C 49.75313 235.3945 49.311 235.5781 48.94473 235.9434C 48.57846 236.3105 48.39533 236.7539 48.39533 237.2695z" stroke="#E7EAED" stroke-width="0.7503152" fill="none" /></g><g clip-path="url(#3)"><path transform="matrix(1 0 0 -1 0 841)" d="M48.77049 415.8457L543.2282 415.8457L543.2282 415.8457L543.2282 240.2715L543.2282 240.2715L48.77049 240.2715z" stroke="none" fill="#F8F8F8" fill-rule="winding" /></g><g clip-path="url(#4)"><path transform="matrix(1 0 0 -1 0 841)" d="M48.39533 174.2441L48.39533 195.252C 48.39533 195.7695 48.57846 196.2129 48.94473 196.5781C 49.311 196.9453 49.75313 197.1289 50.27112 197.1289L50.27112 197.1289L544.7289 197.1289C 545.2468 197.1289 545.6889 196.9453 546.0552 196.5781C 546.4214 196.2129 546.6046 195.7695 546.6047 195.252L546.6047 195.252L546.6047 174.2441C 546.6046 173.7266 546.4214 173.2852 546.0552 172.9199C 545.6889 172.5527 545.2468 172.3691 544.7289 172.3672L544.7289 172.3672L50.27112 172.3672C 49.75313 172.3691 49.311 172.5527 48.94473 172.9199C 48.57846 173.2852 48.39533 173.7266 48.39533 174.2441z" stroke="none" fill="#F8F8F8" fill-rule="winding" /><path transform="matrix(1 0 0 -1 0 841)" d="M48.39533 174.2441L48.39533 195.252C 48.39533 195.7695 48.57846 196.2129 48.94473 196.5781C 49.311 196.9453 49.75313 197.1289 50.27112 197.1289L50.27112 197.1289L544.7289 197.1289C 545.2468 197.1289 545.6889 196.9453 546.0552 196.5781C 546.4214 196.2129 546.6046 195.7695 546.6047 195.252L546.6047 195.252L546.6047 174.2441C 546.6046 173.7266 546.4214 173.2852 546.0552 172.9199C 545.6889 172.5527 545.2468 172.3691 544.7289 172.3672L544.7289 172.3672L50.27112 172.3672C 49.75313 172.3691 49.311 172.5527 48.94473 172.9199C 48.57846 173.2852 48.39533 173.7266 48.39533 174.2441z" stroke="#E7EAED" stroke-width="0.7503152" fill="none" /></g><g clip-path="url(#5)"><path transform="matrix(1 0 0 -1 0 841)" d="M48.77049 190.75L543.2282 190.75L543.2282 190.75L543.2282 177.2461L543.2282 177.2461L48.77049 177.2461z" stroke="none" fill="#F8F8F8" fill-rule="winding" /></g><g clip-path="url(#6)"><path transform="matrix(1 0 0 -1 0 841)" d="M48.77049 415.8457L543.2282 415.8457L543.2282 415.8457L543.2282 240.2715L543.2282 240.2715L48.77049 240.2715z" stroke="none" fill="#F8F8F8" fill-rule="winding" /><path transform="matrix(1 0 0 -1 0 841)" d="M48.77049 415.8457L75.78184 415.8457L75.78184 415.8457L75.78184 191.502L75.78184 191.502L48.77049 191.502z" stroke="none" fill="#F8F8F8" fill-rule="winding" /><path transform="matrix(1 0 0 -1 0 841)" d="M75.03152 415.8457L75.78184 415.8457L75.78184 415.8457L75.78184 191.502L75.78184 191.502L75.03152 191.502z" stroke="none" fill="#DDDDDD" fill-rule="winding" /></g><g clip-path="url(#7)"><path transform="matrix(1 0 0 -1 0 841)" d="M48.77049 190.75L543.2282 190.75L543.2282 190.75L543.2282 177.2461L543.2282 177.2461L48.77049 177.2461z" stroke="none" fill="#F8F8F8" fill-rule="winding" /><path transform="matrix(1 0 0 -1 0 841)" d="M48.77049 190.75L69.77932 190.75L69.77932 190.75L69.77932 168.2422L69.77932 168.2422L48.77049 168.2422z" stroke="none" fill="#F8F8F8" fill-rule="winding" /><path transform="matrix(1 0 0 -1 0 841)" d="M69.029 190.75L69.77932 190.75L69.77932 190.75L69.77932 168.2422L69.77932 168.2422L69.029 168.2422z" stroke="none" fill="#DDDDDD" fill-rule="winding" /></g><g transform="matrix(0.2399193 0 0 0.2399322 0 -14.78003)"><g transform="matrix(1 0 0 1 0 0)"><image x="0" y="0" xlink:href="img_02.png" width="2480" height="295" /></g></g><g transform="matrix(0.4798387 0 0 0.4798876 0 798.29)"><g transform="matrix(1 0 0 1 0 0)"><image x="0" y="0" xlink:href="img_03.png" width="1240" height="89" /></g></g></g></g></g></svg>