<svg xmlns="http://www.w3.org/2000/svg" xmlns:xlink="http://www.w3.org/1999/xlink" id="body_45" preserveAspectRatio="xMinYMin meet" viewBox="0 0 793 1121"><defs><clipPath id="1"><path d="M0 841L0 0L0 0L595 0L595 0L595 841L595 841L0 841z" /></clipPath><clipPath id="2"><path d="M0 56L595 56L595 56L595 784.5547L595 784.5547L0 784.5547z" /></clipPath></defs><g transform="matrix(1.333333 0 0 1.333333 0 0)"><g><g clip-path="url(#1)"><g clip-path="url(#2)"><path transform="matrix(1 0 0 -1 0 841)" d="M0 32841.47L595 32841.47L595 32841.47L595 -25136.14L595 -25136.14L0 -25136.14z" stroke="none" fill="#FFFFFF" fill-rule="winding" /><path transform="matrix(1 0 0 -1 0 841)" d="M48.02018 331.0586L51.02144 331.0586L51.02144 331.0586L51.02144 316.0527L51.02144 316.0527L48.02018 316.0527z" stroke="none" fill="#DFE2E5" fill-rule="winding" /><path transform="matrix(1 0 0 -1 0 841)" d="M48.02018 165.2402L51.02144 165.2402L51.02144 165.2402L51.02144 127.7246L51.02144 127.7246L48.02018 127.7246z" stroke="none" fill="#DFE2E5" fill-rule="winding" /><g transform="matrix(0.7503152 0 0 0.7503152 158.3165 56)"><g transform="matrix(1 0 0 1 0 0)"><image x="0" y="0" xlink:href="img_88.png" width="372" height="595" /></g></g><path transform="matrix(1 0 0 -1 0 841)" d="M62.27617 299.9219C 62.27617 299.4023 62.09303 298.9629 61.72676 298.5957C 61.36049 298.2305 60.91836 298.0449 60.40038 298.0449C 59.88239 298.0449 59.44026 298.2305 59.07399 298.5957C 58.70772 298.9629 58.52458 299.4023 58.52459 299.9219C 58.52458 300.4395 58.70772 300.8848 59.07399 301.252C 59.44026 301.6152 59.88239 301.7969 60.40038 301.7969C 60.91836 301.7969 61.36049 301.6152 61.72676 301.252C 62.09303 300.8848 62.27617 300.4395 62.27617 299.9219z" stroke="none" fill="#333333" fill-rule="winding" /><path transform="matrix(1 0 0 -1 0 841)" d="M62.27617 280.4121C 62.27617 279.8965 62.09303 279.4551 61.72676 279.0879C 61.36049 278.7227 60.91836 278.541 60.40038 278.5371C 59.88239 278.541 59.44026 278.7227 59.07399 279.0879C 58.70772 279.4551 58.52458 279.8965 58.52459 280.4121C 58.52458 280.9316 58.70772 281.377 59.07399 281.7441C 59.44026 282.1074 59.88239 282.2891 60.40038 282.2891C 60.91836 282.2891 61.36049 282.1074 61.72676 281.7441C 62.09303 281.377 62.27617 280.9316 62.27617 280.4121z" stroke="none" fill="#333333" fill-rule="winding" /><path transform="matrix(1 0 0 -1 0 841)" d="M84.78562 260.1543C 84.78562 259.6367 84.60249 259.1953 84.23622 258.8301C 83.86995 258.4629 83.42782 258.2793 82.90984 258.2793C 82.39185 258.2793 81.94971 258.4629 81.58344 258.8301C 81.21717 259.1953 81.03404 259.6367 81.03405 260.1543C 81.03404 260.6738 81.21717 261.1191 81.58344 261.4844C 81.94971 261.8477 82.39185 262.0313 82.90984 262.0313C 83.42782 262.0313 83.86995 261.8477 84.23622 261.4844C 84.60249 261.1191 84.78562 260.6738 84.78562 260.1543z" stroke="#333333" stroke-width="0.7503152" fill="none" /><path transform="matrix(1 0 0 -1 0 841)" d="M62.27617 230.1426C 62.27617 229.627 62.09303 229.1836 61.72676 228.8164C 61.36049 228.4512 60.91836 228.2695 60.40038 228.2656C 59.88239 228.2695 59.44026 228.4512 59.07399 228.8164C 58.70772 229.1836 58.52458 229.627 58.52459 230.1426C 58.52458 230.6641 58.70772 231.1055 59.07399 231.4727C 59.44026 231.8359 59.88239 232.0176 60.40038 232.0176C 60.91836 232.0176 61.36049 231.8359 61.72676 231.4727C 62.09303 231.1055 62.27617 230.6641 62.27617 230.1426z" stroke="none" fill="#333333" fill-rule="winding" /><path transform="matrix(1 0 0 -1 0 841)" d="M62.27617 195.627C 62.27617 195.1113 62.09303 194.6719 61.72676 194.3047C 61.36049 193.9395 60.91836 193.7539 60.40038 193.752C 59.88239 193.7539 59.44026 193.9395 59.07399 194.3047C 58.70772 194.6719 58.52458 195.1113 58.52459 195.627C 58.52458 196.1465 58.70772 196.5879 59.07399 196.9551C 59.44026 197.3223 59.88239 197.5039 60.40038 197.5039C 60.91836 197.5039 61.36049 197.3223 61.72676 196.9551C 62.09303 196.5879 62.27617 196.1465 62.27617 195.627z" stroke="none" fill="#333333" fill-rule="winding" /><path transform="matrix(1 0 0 -1 0 841)" d="M48.02018 92.45898L546.9798 92.45898L546.9798 92.45898L546.9798 91.70898L546.9798 91.70898L48.02018 91.70898z" stroke="none" fill="#EEEEEE" fill-rule="winding" /></g><g transform="matrix(0.2399193 0 0 0.2399322 0 -14.78003)"><g transform="matrix(1 0 0 1 0 0)"><image x="0" y="0" xlink:href="img_02.png" width="2480" height="295" /></g></g><g transform="matrix(0.4798387 0 0 0.4798876 0 798.29)"><g transform="matrix(1 0 0 1 0 0)"><image x="0" y="0" xlink:href="img_03.png" width="1240" height="89" /></g></g></g></g></g></svg>