<svg xmlns="http://www.w3.org/2000/svg" xmlns:xlink="http://www.w3.org/1999/xlink" id="body_52" preserveAspectRatio="xMinYMin meet" viewBox="0 0 793 1121"><defs><clipPath id="1"><path d="M0 841L0 0L0 0L595 0L595 0L595 841L595 841L0 841z" /></clipPath><clipPath id="2"><path d="M0 56L595 56L595 56L595 784.5547L595 784.5547L0 784.5547z" /></clipPath><clipPath id="3"><path d="M48.77049 169.2969L543.2282 169.2969L543.2282 169.2969L543.2282 344.8711L543.2282 344.8711L48.77049 344.8711z" /></clipPath><clipPath id="4"><path d="M0 56L595 56L595 56L595 784.5547L595 784.5547L0 784.5547z" /></clipPath><clipPath id="5"><path d="M48.77049 394.3906L543.2282 394.3906L543.2282 394.3906L543.2282 784.5547L543.2282 784.5547L48.77049 784.5547z" /></clipPath><clipPath id="6"><path d="M48.77049 169.2969L543.2282 169.2969L543.2282 169.2969L543.2282 344.8711L543.2282 344.8711L48.77049 344.8711z" /></clipPath><clipPath id="7"><path d="M48.77049 394.3906L543.2282 394.3906L543.2282 394.3906L543.2282 784.5547L543.2282 784.5547L48.77049 784.5547z" /></clipPath></defs><g transform="matrix(1.333333 0 0 1.333333 0 0)"><g><g clip-path="url(#1)"><g clip-path="url(#2)"><path transform="matrix(1 0 0 -1 0 841)" d="M0 37941.36L595 37941.36L595 37941.36L595 -20036.25L595 -20036.25L0 -20036.25z" stroke="none" fill="#FFFFFF" fill-rule="winding" /><path transform="matrix(1 0 0 -1 0 841)" d="M48.39533 493.1289L48.39533 676.207C 48.39533 676.7266 48.57846 677.168 48.94473 677.5352C 49.311 677.8984 49.75313 678.082 50.27112 678.082L50.27112 678.082L544.7289 678.082C 545.2468 678.082 545.6889 677.8984 546.0552 677.5352C 546.4214 677.168 546.6046 676.7266 546.6047 676.207L546.6047 676.207L546.6047 493.1289C 546.6046 492.6094 546.4214 492.1719 546.0552 491.8047C 545.6889 491.4375 545.2468 491.2578 544.7289 491.2539L544.7289 491.2539L50.27112 491.2539C 49.75313 491.2578 49.311 491.4375 48.94473 491.8047C 48.57846 492.1719 48.39533 492.6094 48.39533 493.1289z" stroke="none" fill="#F8F8F8" fill-rule="winding" /><path transform="matrix(1 0 0 -1 0 841)" d="M48.39533 493.1289L48.39533 676.207C 48.39533 676.7266 48.57846 677.168 48.94473 677.5352C 49.311 677.8984 49.75313 678.082 50.27112 678.082L50.27112 678.082L544.7289 678.082C 545.2468 678.082 545.6889 677.8984 546.0552 677.5352C 546.4214 677.168 546.6046 676.7266 546.6047 676.207L546.6047 676.207L546.6047 493.1289C 546.6046 492.6094 546.4214 492.1719 546.0552 491.8047C 545.6889 491.4375 545.2468 491.2578 544.7289 491.2539L544.7289 491.2539L50.27112 491.2539C 49.75313 491.2578 49.311 491.4375 48.94473 491.8047C 48.57846 492.1719 48.39533 492.6094 48.39533 493.1289z" stroke="#E7EAED" stroke-width="0.7503152" fill="none" /></g><g clip-path="url(#3)"><path transform="matrix(1 0 0 -1 0 841)" d="M48.77049 671.7031L543.2282 671.7031L543.2282 671.7031L543.2282 496.1289L543.2282 496.1289L48.77049 496.1289z" stroke="none" fill="#F8F8F8" fill-rule="winding" /></g><g clip-path="url(#4)"><path transform="matrix(1 0 0 -1 0 841)" d="M48.39533 -715.6289L48.39533 451.1133C 48.39533 451.6289 48.57846 452.0742 48.94473 452.4375C 49.311 452.8047 49.75313 452.9883 50.27112 452.9883L50.27112 452.9883L544.7289 452.9883C 545.2468 452.9883 545.6889 452.8047 546.0552 452.4375C 546.4214 452.0742 546.6046 451.6289 546.6047 451.1133L546.6047 451.1133L546.6047 -715.6289C 546.6046 -716.1445 546.4214 -716.5859 546.0552 -716.9531C 545.6889 -717.3203 545.2468 -717.5 544.7289 -717.5039L544.7289 -717.5039L50.27112 -717.5039C 49.75313 -717.5 49.311 -717.3203 48.94473 -716.9531C 48.57846 -716.5859 48.39533 -716.1445 48.39533 -715.6289z" stroke="none" fill="#F8F8F8" fill-rule="winding" /><path transform="matrix(1 0 0 -1 0 841)" d="M48.39533 -715.6289L48.39533 451.1133C 48.39533 451.6289 48.57846 452.0742 48.94473 452.4375C 49.311 452.8047 49.75313 452.9883 50.27112 452.9883L50.27112 452.9883L544.7289 452.9883C 545.2468 452.9883 545.6889 452.8047 546.0552 452.4375C 546.4214 452.0742 546.6046 451.6289 546.6047 451.1133L546.6047 451.1133L546.6047 -715.6289C 546.6046 -716.1445 546.4214 -716.5859 546.0552 -716.9531C 545.6889 -717.3203 545.2468 -717.5 544.7289 -717.5039L544.7289 -717.5039L50.27112 -717.5039C 49.75313 -717.5 49.311 -717.3203 48.94473 -716.9531C 48.57846 -716.5859 48.39533 -716.1445 48.39533 -715.6289z" stroke="#E7EAED" stroke-width="0.7503152" fill="none" /></g><g clip-path="url(#5)"><path transform="matrix(1 0 0 -1 0 841)" d="M48.77049 446.6094L543.2282 446.6094L543.2282 446.6094L543.2282 -712.6289L543.2282 -712.6289L48.77049 -712.6289z" stroke="none" fill="#F8F8F8" fill-rule="winding" /></g><g clip-path="url(#6)"><path transform="matrix(1 0 0 -1 0 841)" d="M48.77049 671.7031L543.2282 671.7031L543.2282 671.7031L543.2282 496.1289L543.2282 496.1289L48.77049 496.1289z" stroke="none" fill="#F8F8F8" fill-rule="winding" /><path transform="matrix(1 0 0 -1 0 841)" d="M48.77049 671.7031L75.78184 671.7031L75.78184 671.7031L75.78184 447.3594L75.78184 447.3594L48.77049 447.3594z" stroke="none" fill="#F8F8F8" fill-rule="winding" /><path transform="matrix(1 0 0 -1 0 841)" d="M75.03152 671.7031L75.78184 671.7031L75.78184 671.7031L75.78184 447.3594L75.78184 447.3594L75.03152 447.3594z" stroke="none" fill="#DDDDDD" fill-rule="winding" /></g><g clip-path="url(#7)"><path transform="matrix(1 0 0 -1 0 841)" d="M48.77049 446.6094L543.2282 446.6094L543.2282 446.6094L543.2282 -712.6289L543.2282 -712.6289L48.77049 -712.6289z" stroke="none" fill="#F8F8F8" fill-rule="winding" /><path transform="matrix(1 0 0 -1 0 841)" d="M48.77049 446.6094L75.78184 446.6094L75.78184 446.6094L75.78184 -1003L75.78184 -1003L48.77049 -1003z" stroke="none" fill="#F8F8F8" fill-rule="winding" /><path transform="matrix(1 0 0 -1 0 841)" d="M75.03152 446.6094L75.78184 446.6094L75.78184 446.6094L75.78184 -1003L75.78184 -1003L75.03152 -1003z" stroke="none" fill="#DDDDDD" fill-rule="winding" /></g><g transform="matrix(0.2399193 0 0 0.2399322 0 -14.78003)"><g transform="matrix(1 0 0 1 0 0)"><image x="0" y="0" xlink:href="img_02.png" width="2480" height="295" /></g></g><g transform="matrix(0.4798387 0 0 0.4798876 0 798.29)"><g transform="matrix(1 0 0 1 0 0)"><image x="0" y="0" xlink:href="img_03.png" width="1240" height="89" /></g></g></g></g></g></svg>