<svg xmlns="http://www.w3.org/2000/svg" xmlns:xlink="http://www.w3.org/1999/xlink" id="body_23" preserveAspectRatio="xMinYMin meet" viewBox="0 0 793 1121"><defs><clipPath id="1"><path d="M0 841L0 0L0 0L595 0L595 0L595 841L595 841L0 841z" /></clipPath><clipPath id="2"><path d="M0 56L595 56L595 56L595 784.5566L595 784.5566L0 784.5566z" /></clipPath><clipPath id="3"><path d="M48.77049 56L543.2282 56L543.2282 56L543.2282 191.0566L543.2282 191.0566L48.77049 191.0566z" /></clipPath><clipPath id="4"><path d="M0 56L595 56L595 56L595 784.5566L595 784.5566L0 784.5566z" /></clipPath><clipPath id="5"><path d="M48.77049 56L543.2282 56L543.2282 56L543.2282 191.0566L543.2282 191.0566L48.77049 191.0566z" /></clipPath></defs><g transform="matrix(1.333333 0 0 1.333333 0 0)"><g><g clip-path="url(#1)"><g clip-path="url(#2)"><path transform="matrix(1 0 0 -1 0 841)" d="M0 16813.23L595 16813.23L595 16813.23L595 -41164.38L595 -41164.38L0 -41164.38z" stroke="none" fill="#FFFFFF" fill-rule="winding" /><path transform="matrix(1 0 0 -1 0 841)" d="M48.02018 610.9268L51.02144 610.9268L51.02144 610.9268L51.02144 595.9209L51.02144 595.9209L48.02018 595.9209z" stroke="none" fill="#DFE2E5" fill-rule="winding" /><path transform="matrix(1 0 0 -1 0 841)" d="M48.02018 561.4063L219.8424 561.4063L219.8424 561.4063L219.8424 536.6455L219.8424 536.6455L48.02018 536.6455z" stroke="none" fill="#F8F8F8" fill-rule="winding" /><path transform="matrix(1 0 0 -1 0 841)" d="M219.8424 561.4063L546.2295 561.4063L546.2295 561.4063L546.2295 536.6455L546.2295 536.6455L219.8424 536.6455z" stroke="none" fill="#F8F8F8" fill-rule="winding" /><path transform="matrix(1 0 0 -1 0 841)" d="M48.02018 511.1348L219.8424 511.1348L219.8424 511.1348L219.8424 485.624L219.8424 485.624L48.02018 485.624z" stroke="none" fill="#F8F8F8" fill-rule="winding" /><path transform="matrix(1 0 0 -1 0 841)" d="M219.8424 511.1348L546.2295 511.1348L546.2295 511.1348L546.2295 485.624L546.2295 485.624L219.8424 485.624z" stroke="none" fill="#F8F8F8" fill-rule="winding" /><path transform="matrix(1 0 0 -1 0 841)" d="M219.8424 460.1133L546.9798 460.1133L546.9798 460.1133L546.9798 459.3633L546.9798 459.3633L219.8424 459.3633z" stroke="none" fill="#DFE2E5" fill-rule="winding" /><path transform="matrix(1 0 0 -1 0 841)" d="M546.2295 485.624L546.9798 485.624L546.9798 485.624L546.9798 459.3633L546.9798 459.3633L546.2295 459.3633z" stroke="none" fill="#DFE2E5" fill-rule="winding" /><path transform="matrix(1 0 0 -1 0 841)" d="M48.02018 460.1133L220.5927 460.1133L220.5927 460.1133L220.5927 459.3633L220.5927 459.3633L48.02018 459.3633z" stroke="none" fill="#DFE2E5" fill-rule="winding" /><path transform="matrix(1 0 0 -1 0 841)" d="M48.02018 485.624L48.77049 485.624L48.77049 485.624L48.77049 459.3633L48.77049 459.3633L48.02018 459.3633z" stroke="none" fill="#DFE2E5" fill-rule="winding" /><path transform="matrix(1 0 0 -1 0 841)" d="M219.8424 485.624L220.5927 485.624L220.5927 485.624L220.5927 459.3633L220.5927 459.3633L219.8424 459.3633z" stroke="none" fill="#DFE2E5" fill-rule="winding" /><path transform="matrix(1 0 0 -1 0 841)" d="M219.8424 485.624L546.9798 485.624L546.9798 485.624L546.9798 484.874L546.9798 484.874L219.8424 484.874z" stroke="none" fill="#DFE2E5" fill-rule="winding" /><path transform="matrix(1 0 0 -1 0 841)" d="M546.2295 511.1348L546.9798 511.1348L546.9798 511.1348L546.9798 484.874L546.9798 484.874L546.2295 484.874z" stroke="none" fill="#DFE2E5" fill-rule="winding" /><path transform="matrix(1 0 0 -1 0 841)" d="M48.02018 485.624L220.5927 485.624L220.5927 485.624L220.5927 484.874L220.5927 484.874L48.02018 484.874z" stroke="none" fill="#DFE2E5" fill-rule="winding" /><path transform="matrix(1 0 0 -1 0 841)" d="M48.02018 511.1348L48.77049 511.1348L48.77049 511.1348L48.77049 484.874L48.77049 484.874L48.02018 484.874z" stroke="none" fill="#DFE2E5" fill-rule="winding" /><path transform="matrix(1 0 0 -1 0 841)" d="M219.8424 511.1348L220.5927 511.1348L220.5927 511.1348L220.5927 484.874L220.5927 484.874L219.8424 484.874z" stroke="none" fill="#DFE2E5" fill-rule="winding" /><path transform="matrix(1 0 0 -1 0 841)" d="M219.8424 511.1348L546.9798 511.1348L546.9798 511.1348L546.9798 510.3848L546.9798 510.3848L219.8424 510.3848z" stroke="none" fill="#DFE2E5" fill-rule="winding" /><path transform="matrix(1 0 0 -1 0 841)" d="M546.2295 536.6455L546.9798 536.6455L546.9798 536.6455L546.9798 510.3848L546.9798 510.3848L546.2295 510.3848z" stroke="none" fill="#DFE2E5" fill-rule="winding" /><path transform="matrix(1 0 0 -1 0 841)" d="M48.02018 511.1348L220.5927 511.1348L220.5927 511.1348L220.5927 510.3848L220.5927 510.3848L48.02018 510.3848z" stroke="none" fill="#DFE2E5" fill-rule="winding" /><path transform="matrix(1 0 0 -1 0 841)" d="M48.02018 536.6455L48.77049 536.6455L48.77049 536.6455L48.77049 510.3848L48.77049 510.3848L48.02018 510.3848z" stroke="none" fill="#DFE2E5" fill-rule="winding" /><path transform="matrix(1 0 0 -1 0 841)" d="M219.8424 536.6455L220.5927 536.6455L220.5927 536.6455L220.5927 510.3848L220.5927 510.3848L219.8424 510.3848z" stroke="none" fill="#DFE2E5" fill-rule="winding" /><path transform="matrix(1 0 0 -1 0 841)" d="M219.8424 561.4063L546.9798 561.4063L546.9798 561.4063L546.9798 560.6563L546.9798 560.6563L219.8424 560.6563z" stroke="none" fill="#DFE2E5" fill-rule="winding" /><path transform="matrix(1 0 0 -1 0 841)" d="M219.8424 536.6455L546.9798 536.6455L546.9798 536.6455L546.9798 535.8955L546.9798 535.8955L219.8424 535.8955z" stroke="none" fill="#DFE2E5" fill-rule="winding" /><path transform="matrix(1 0 0 -1 0 841)" d="M546.2295 561.4063L546.9798 561.4063L546.9798 561.4063L546.9798 535.8955L546.9798 535.8955L546.2295 535.8955z" stroke="none" fill="#DFE2E5" fill-rule="winding" /><path transform="matrix(1 0 0 -1 0 841)" d="M48.02018 561.4063L220.5927 561.4063L220.5927 561.4063L220.5927 560.6563L220.5927 560.6563L48.02018 560.6563z" stroke="none" fill="#DFE2E5" fill-rule="winding" /><path transform="matrix(1 0 0 -1 0 841)" d="M48.02018 536.6455L220.5927 536.6455L220.5927 536.6455L220.5927 535.8955L220.5927 535.8955L48.02018 535.8955z" stroke="none" fill="#DFE2E5" fill-rule="winding" /><path transform="matrix(1 0 0 -1 0 841)" d="M48.02018 561.4063L48.77049 561.4063L48.77049 561.4063L48.77049 535.8955L48.77049 535.8955L48.02018 535.8955z" stroke="none" fill="#DFE2E5" fill-rule="winding" /><path transform="matrix(1 0 0 -1 0 841)" d="M219.8424 561.4063L220.5927 561.4063L220.5927 561.4063L220.5927 535.8955L220.5927 535.8955L219.8424 535.8955z" stroke="none" fill="#DFE2E5" fill-rule="winding" /><path transform="matrix(1 0 0 -1 0 841)" d="M48.02018 447.3584L51.02144 447.3584L51.02144 447.3584L51.02144 432.3516L51.02144 432.3516L48.02018 432.3516z" stroke="none" fill="#DFE2E5" fill-rule="winding" /><path transform="matrix(1 0 0 -1 0 841)" d="M48.02018 401.5898L51.02144 401.5898L51.02144 401.5898L51.02144 334.0605L51.02144 334.0605L48.02018 334.0605z" stroke="none" fill="#DFE2E5" fill-rule="winding" /><path transform="matrix(1 0 0 -1 0 841)" d="M48.02018 325.8066L51.02144 325.8066L51.02144 325.8066L51.02144 310.8008L51.02144 310.8008L48.02018 310.8008z" stroke="none" fill="#DFE2E5" fill-rule="winding" /><path transform="matrix(1 0 0 -1 0 841)" d="M48.02018 165.9902L51.02144 165.9902L51.02144 165.9902L51.02144 150.9844L51.02144 150.9844L48.02018 150.9844z" stroke="none" fill="#DFE2E5" fill-rule="winding" /><path transform="matrix(1 0 0 -1 0 841)" d="M58.52459 520.1387L58.52459 525.3906C 58.52458 526.0137 58.74435 526.5459 59.18388 526.9854C 59.6234 527.4238 60.15395 527.6416 60.77554 527.6416L60.77554 527.6416L92.28877 527.6416C 92.91035 527.6416 93.44091 527.4238 93.88043 526.9854C 94.31995 526.5459 94.53972 526.0137 94.53972 525.3906L94.53972 525.3906L94.53972 520.1387C 94.53972 519.5176 94.31995 518.9873 93.88043 518.5469C 93.44091 518.1094 92.91035 517.8896 92.28877 517.8877L92.28877 517.8877L60.77554 517.8877C 60.15395 517.8896 59.6234 518.1094 59.18388 518.5469C 58.74435 518.9873 58.52458 519.5176 58.52459 520.1387z" stroke="none" fill="#F3F4F4" fill-rule="winding" /><path transform="matrix(1 0 0 -1 0 841)" d="M58.89975 520.1387L58.89975 525.3906C 58.89974 525.9102 59.08288 526.3525 59.44915 526.7188C 59.81541 527.084 60.25755 527.2666 60.77554 527.2666L60.77554 527.2666L92.28877 527.2666C 92.80676 527.2666 93.24888 527.084 93.61515 526.7188C 93.98142 526.3525 94.16456 525.9102 94.16456 525.3906L94.16456 525.3906L94.16456 520.1387C 94.16456 519.6211 93.98142 519.1807 93.61515 518.8145C 93.24888 518.4473 92.80676 518.2646 92.28877 518.2627L92.28877 518.2627L60.77554 518.2627C 60.25755 518.2646 59.81541 518.4473 59.44915 518.8145C 59.08288 519.1807 58.89974 519.6211 58.89975 520.1387z" stroke="#E7EAED" stroke-width="0.7503152" fill="none" /><path transform="matrix(1 0 0 -1 0 841)" d="M58.52459 494.6279L58.52459 499.8799C 58.52458 500.5029 58.74435 501.0332 59.18388 501.4736C 59.6234 501.9111 60.15395 502.1309 60.77554 502.1309L60.77554 502.1309L87.03657 502.1309C 87.65815 502.1309 88.1887 501.9111 88.62823 501.4736C 89.06775 501.0332 89.28751 500.5029 89.28751 499.8799L89.28751 499.8799L89.28751 494.6279C 89.28751 494.0078 89.06775 493.4775 88.62823 493.0381C 88.1887 492.5986 87.65815 492.3789 87.03657 492.377L87.03657 492.377L60.77554 492.377C 60.15395 492.3789 59.6234 492.5986 59.18388 493.0381C 58.74435 493.4775 58.52458 494.0078 58.52459 494.6279z" stroke="none" fill="#F3F4F4" fill-rule="winding" /><path transform="matrix(1 0 0 -1 0 841)" d="M58.89975 494.6279L58.89975 499.8799C 58.89974 500.3994 59.08288 500.8418 59.44915 501.208C 59.81541 501.5732 60.25755 501.7559 60.77554 501.7559L60.77554 501.7559L87.03657 501.7559C 87.55454 501.7559 87.99667 501.5732 88.36294 501.208C 88.72921 500.8418 88.91235 500.3994 88.91235 499.8799L88.91235 499.8799L88.91235 494.6279C 88.91235 494.1104 88.72921 493.6699 88.36294 493.3037C 87.99667 492.9365 87.55454 492.7539 87.03657 492.7539L87.03657 492.7539L60.77554 492.7539C 60.25755 492.7539 59.81541 492.9365 59.44915 493.3037C 59.08288 493.6699 58.89974 494.1104 58.89975 494.6279z" stroke="#E7EAED" stroke-width="0.7503152" fill="none" /><path transform="matrix(1 0 0 -1 0 841)" d="M58.52459 469.1172L58.52459 474.3691C 58.52458 474.9922 58.74435 475.5225 59.18388 475.9629C 59.6234 476.4004 60.15395 476.6201 60.77554 476.6201L60.77554 476.6201L76.53216 476.6201C 77.15373 476.6201 77.68429 476.4004 78.12381 475.9629C 78.56333 475.5225 78.7831 474.9922 78.7831 474.3691L78.7831 474.3691L78.7831 469.1172C 78.7831 468.4971 78.56333 467.9668 78.12381 467.5273C 77.68429 467.0879 77.15373 466.8682 76.53216 466.8662L76.53216 466.8662L60.77554 466.8662C 60.15395 466.8682 59.6234 467.0879 59.18388 467.5273C 58.74435 467.9668 58.52458 468.4971 58.52459 469.1172z" stroke="none" fill="#F3F4F4" fill-rule="winding" /><path transform="matrix(1 0 0 -1 0 841)" d="M58.89975 469.1172L58.89975 474.3691C 58.89974 474.8887 59.08288 475.3311 59.44915 475.6973C 59.81541 476.0625 60.25755 476.2451 60.77554 476.2451L60.77554 476.2451L76.53216 476.2451C 77.05013 476.2451 77.49226 476.0625 77.85854 475.6973C 78.2248 475.3311 78.40794 474.8887 78.40794 474.3691L78.40794 474.3691L78.40794 469.1172C 78.40794 468.5996 78.2248 468.1572 77.85854 467.791C 77.49226 467.4248 77.05013 467.2412 76.53216 467.2412L76.53216 467.2412L60.77554 467.2412C 60.25755 467.2412 59.81541 467.4248 59.44915 467.791C 59.08288 468.1572 58.89974 468.5996 58.89975 469.1172z" stroke="#E7EAED" stroke-width="0.7503152" fill="none" /><path transform="matrix(1 0 0 -1 0 841)" d="M48.39533 646.9424L48.39533 872.0361C 48.39533 872.5557 48.57846 872.998 48.94473 873.3643C 49.311 873.7295 49.75313 873.9121 50.27112 873.9121L50.27112 873.9121L544.7289 873.9121C 545.2468 873.9121 545.6889 873.7295 546.0552 873.3643C 546.4214 872.998 546.6046 872.5557 546.6047 872.0361L546.6047 872.0361L546.6047 646.9424C 546.6046 646.4248 546.4214 645.9834 546.0552 645.6172C 545.6889 645.251 545.2468 645.0674 544.7289 645.0674L544.7289 645.0674L50.27112 645.0674C 49.75313 645.0674 49.311 645.251 48.94473 645.6172C 48.57846 645.9834 48.39533 646.4248 48.39533 646.9424z" stroke="none" fill="#F8F8F8" fill-rule="winding" /><path transform="matrix(1 0 0 -1 0 841)" d="M48.39533 646.9424L48.39533 872.0361C 48.39533 872.5557 48.57846 872.998 48.94473 873.3643C 49.311 873.7295 49.75313 873.9121 50.27112 873.9121L50.27112 873.9121L544.7289 873.9121C 545.2468 873.9121 545.6889 873.7295 546.0552 873.3643C 546.4214 872.998 546.6046 872.5557 546.6047 872.0361L546.6047 872.0361L546.6047 646.9424C 546.6046 646.4248 546.4214 645.9834 546.0552 645.6172C 545.6889 645.251 545.2468 645.0674 544.7289 645.0674L544.7289 645.0674L50.27112 645.0674C 49.75313 645.0674 49.311 645.251 48.94473 645.6172C 48.57846 645.9834 48.39533 646.4248 48.39533 646.9424z" stroke="#E7EAED" stroke-width="0.7503152" fill="none" /></g><g clip-path="url(#3)"><path transform="matrix(1 0 0 -1 0 841)" d="M48.77049 867.5352L543.2282 867.5352L543.2282 867.5352L543.2282 649.9434L543.2282 649.9434L48.77049 649.9434z" stroke="none" fill="#F8F8F8" fill-rule="winding" /></g><g clip-path="url(#4)"><path transform="matrix(1 0 0 -1 0 841)" d="M282.8688 277.0371L282.8688 282.2891C 282.8688 282.9121 283.0886 283.4414 283.5281 283.8809C 283.9676 284.3203 284.4982 284.5391 285.1198 284.5391L285.1198 284.5391L306.1286 284.5391C 306.7502 284.5391 307.2807 284.3203 307.7202 283.8809C 308.1598 283.4414 308.3795 282.9121 308.3796 282.2891L308.3796 282.2891L308.3796 277.0371C 308.3795 276.416 308.1598 275.8867 307.7202 275.4473C 307.2807 275.0078 306.7502 274.7871 306.1286 274.7852L306.1286 274.7852L285.1198 274.7852C 284.4982 274.7871 283.9676 275.0078 283.5281 275.4473C 283.0886 275.8867 282.8688 276.416 282.8688 277.0371z" stroke="none" fill="#F3F4F4" fill-rule="winding" /><path transform="matrix(1 0 0 -1 0 841)" d="M283.244 277.0371L283.244 282.2891C 283.244 282.8066 283.4271 283.248 283.7934 283.6152C 284.1597 283.9805 284.6018 284.1641 285.1198 284.1641L285.1198 284.1641L306.1286 284.1641C 306.6466 284.1641 307.0887 283.9805 307.455 283.6152C 307.8213 283.248 308.0044 282.8066 308.0044 282.2891L308.0044 282.2891L308.0044 277.0371C 308.0044 276.5195 307.8213 276.0762 307.455 275.7109C 307.0887 275.3438 306.6466 275.1602 306.1286 275.1602L306.1286 275.1602L285.1198 275.1602C 284.6018 275.1602 284.1597 275.3438 283.7934 275.7109C 283.4271 276.0762 283.244 276.5195 283.244 277.0371z" stroke="#E7EAED" stroke-width="0.7503152" fill="none" /><path transform="matrix(1 0 0 -1 0 841)" d="M48.02018 177.9941L48.02018 183.248C 48.02017 183.8691 48.23994 184.3984 48.67946 184.8379C 49.11898 185.2793 49.64954 185.498 50.27112 185.498L50.27112 185.498L76.53216 185.498C 77.15373 185.498 77.68429 185.2793 78.12381 184.8379C 78.56333 184.3984 78.7831 183.8691 78.7831 183.248L78.7831 183.248L78.7831 177.9941C 78.7831 177.373 78.56333 176.8438 78.12381 176.4043C 77.68429 175.9629 77.15373 175.7441 76.53216 175.7441L76.53216 175.7441L50.27112 175.7441C 49.64954 175.7441 49.11898 175.9629 48.67946 176.4043C 48.23994 176.8438 48.02017 177.373 48.02018 177.9941z" stroke="none" fill="#F3F4F4" fill-rule="winding" /><path transform="matrix(1 0 0 -1 0 841)" d="M48.39533 177.9941L48.39533 183.248C 48.39533 183.7656 48.57846 184.209 48.94473 184.5742C 49.311 184.9395 49.75313 185.123 50.27112 185.123L50.27112 185.123L76.53216 185.123C 77.05013 185.123 77.49226 184.9395 77.85854 184.5742C 78.2248 184.209 78.40794 183.7656 78.40794 183.248L78.40794 183.248L78.40794 177.9941C 78.40794 177.4785 78.2248 177.0371 77.85854 176.6699C 77.49226 176.3047 77.05013 176.1211 76.53216 176.1191L76.53216 176.1191L50.27112 176.1191C 49.75313 176.1211 49.311 176.3047 48.94473 176.6699C 48.57846 177.0371 48.39533 177.4785 48.39533 177.9941z" stroke="#E7EAED" stroke-width="0.7503152" fill="none" /><path transform="matrix(1 0 0 -1 0 841)" d="M351.8979 177.9941L351.8979 183.248C 351.8978 183.8691 352.1176 184.3984 352.5571 184.8379C 352.9966 185.2793 353.5272 185.498 354.1488 185.498L354.1488 185.498L375.1576 185.498C 375.7792 185.498 376.3097 185.2793 376.7492 184.8379C 377.1888 184.3984 377.4085 183.8691 377.4086 183.248L377.4086 183.248L377.4086 177.9941C 377.4085 177.373 377.1888 176.8438 376.7492 176.4043C 376.3097 175.9629 375.7792 175.7441 375.1576 175.7441L375.1576 175.7441L354.1488 175.7441C 353.5272 175.7441 352.9966 175.9629 352.5571 176.4043C 352.1176 176.8438 351.8978 177.373 351.8979 177.9941z" stroke="none" fill="#F3F4F4" fill-rule="winding" /><path transform="matrix(1 0 0 -1 0 841)" d="M352.273 177.9941L352.273 183.248C 352.273 183.7656 352.4561 184.209 352.8224 184.5742C 353.1887 184.9395 353.6308 185.123 354.1488 185.123L354.1488 185.123L375.1576 185.123C 375.6756 185.123 376.1177 184.9395 376.484 184.5742C 376.8503 184.209 377.0334 183.7656 377.0334 183.248L377.0334 183.248L377.0334 177.9941C 377.0334 177.4785 376.8503 177.0371 376.484 176.6699C 376.1177 176.3047 375.6756 176.1211 375.1576 176.1191L375.1576 176.1191L354.1488 176.1191C 353.6308 176.1211 353.1887 176.3047 352.8224 176.6699C 352.4561 177.0371 352.273 177.4785 352.273 177.9941z" stroke="#E7EAED" stroke-width="0.7503152" fill="none" /><path transform="matrix(1 0 0 -1 0 841)" d="M164.319 131.4746L164.319 136.7285C 164.319 137.3496 164.5388 137.8809 164.9783 138.3184C 165.4178 138.7578 165.9484 138.9785 166.57 138.9785L166.57 138.9785L198.0832 138.9785C 198.7048 138.9785 199.2353 138.7578 199.6749 138.3184C 200.1144 137.8809 200.3342 137.3496 200.3342 136.7285L200.3342 136.7285L200.3342 131.4746C 200.3342 130.8535 200.1144 130.3242 199.6749 129.8848C 199.2353 129.4453 198.7048 129.2266 198.0832 129.2246L198.0832 129.2246L166.57 129.2246C 165.9484 129.2266 165.4178 129.4453 164.9783 129.8848C 164.5388 130.3242 164.319 130.8535 164.319 131.4746z" stroke="none" fill="#F3F4F4" fill-rule="winding" /><path transform="matrix(1 0 0 -1 0 841)" d="M164.6942 131.4746L164.6942 136.7285C 164.6942 137.2461 164.8773 137.6895 165.2436 138.0547C 165.6099 138.4199 166.052 138.6035 166.57 138.6035L166.57 138.6035L198.0832 138.6035C 198.6012 138.6035 199.0433 138.4199 199.4096 138.0547C 199.7759 137.6895 199.959 137.2461 199.959 136.7285L199.959 136.7285L199.959 131.4746C 199.959 130.959 199.7759 130.5156 199.4096 130.1484C 199.0433 129.7832 198.6012 129.5996 198.0832 129.5996L198.0832 129.5996L166.57 129.5996C 166.052 129.5996 165.6099 129.7832 165.2436 130.1484C 164.8773 130.5156 164.6942 130.959 164.6942 131.4746z" stroke="#E7EAED" stroke-width="0.7503152" fill="none" /><path transform="matrix(1 0 0 -1 0 841)" d="M210.0883 131.4746L210.0883 136.7285C 210.0882 137.3496 210.308 137.8809 210.7475 138.3184C 211.1871 138.7578 211.7176 138.9785 212.3392 138.9785L212.3392 138.9785L239.3506 138.9785C 239.9721 138.9785 240.5027 138.7578 240.9422 138.3184C 241.3817 137.8809 241.6015 137.3496 241.6015 136.7285L241.6015 136.7285L241.6015 131.4746C 241.6015 130.8535 241.3817 130.3242 240.9422 129.8848C 240.5027 129.4453 239.9721 129.2266 239.3506 129.2246L239.3506 129.2246L212.3392 129.2246C 211.7176 129.2266 211.1871 129.4453 210.7475 129.8848C 210.308 130.3242 210.0882 130.8535 210.0883 131.4746z" stroke="none" fill="#F3F4F4" fill-rule="winding" /><path transform="matrix(1 0 0 -1 0 841)" d="M210.4634 131.4746L210.4634 136.7285C 210.4634 137.2461 210.6465 137.6895 211.0128 138.0547C 211.3791 138.4199 211.8212 138.6035 212.3392 138.6035L212.3392 138.6035L239.3506 138.6035C 239.8685 138.6035 240.3107 138.4199 240.6769 138.0547C 241.0432 137.6895 241.2263 137.2461 241.2263 136.7285L241.2263 136.7285L241.2263 131.4746C 241.2263 130.959 241.0432 130.5156 240.6769 130.1484C 240.3107 129.7832 239.8685 129.5996 239.3506 129.5996L239.3506 129.5996L212.3392 129.5996C 211.8212 129.5996 211.3791 129.7832 211.0128 130.1484C 210.6465 130.5156 210.4634 130.959 210.4634 131.4746z" stroke="#E7EAED" stroke-width="0.7503152" fill="none" /><path transform="matrix(1 0 0 -1 0 841)" d="M126.053 115.7188L126.053 120.9707C 126.053 121.5938 126.2727 122.125 126.7122 122.5645C 127.1518 123.002 127.6823 123.2227 128.3039 123.2227L128.3039 123.2227L144.0605 123.2227C 144.6821 123.2227 145.2126 123.002 145.6522 122.5645C 146.0917 122.125 146.3115 121.5938 146.3115 120.9707L146.3115 120.9707L146.3115 115.7188C 146.3115 115.0996 146.0917 114.5684 145.6522 114.1289C 145.2126 113.6895 144.6821 113.4688 144.0605 113.4688L144.0605 113.4688L128.3039 113.4688C 127.6823 113.4688 127.1518 113.6895 126.7122 114.1289C 126.2727 114.5684 126.053 115.0996 126.053 115.7188z" stroke="none" fill="#F3F4F4" fill-rule="winding" /><path transform="matrix(1 0 0 -1 0 841)" d="M126.4281 115.7188L126.4281 120.9707C 126.4281 121.4922 126.6112 121.9336 126.9775 122.3008C 127.3438 122.666 127.7859 122.8477 128.3039 122.8477L128.3039 122.8477L144.0605 122.8477C 144.5785 122.8477 145.0206 122.666 145.3869 122.3008C 145.7532 121.9336 145.9363 121.4922 145.9363 120.9707L145.9363 120.9707L145.9363 115.7188C 145.9363 115.2012 145.7532 114.7598 145.3869 114.3926C 145.0206 114.0273 144.5785 113.8438 144.0605 113.8438L144.0605 113.8438L128.3039 113.8438C 127.7859 113.8438 127.3438 114.0273 126.9775 114.3926C 126.6112 114.7598 126.4281 115.2012 126.4281 115.7188z" stroke="#E7EAED" stroke-width="0.7503152" fill="none" /></g><g clip-path="url(#5)"><path transform="matrix(1 0 0 -1 0 841)" d="M48.77049 867.5352L543.2282 867.5352L543.2282 867.5352L543.2282 649.9434L543.2282 649.9434L48.77049 649.9434z" stroke="none" fill="#F8F8F8" fill-rule="winding" /><path transform="matrix(1 0 0 -1 0 841)" d="M48.77049 867.5352L75.78184 867.5352L75.78184 867.5352L75.78184 591.4189L75.78184 591.4189L48.77049 591.4189z" stroke="none" fill="#F8F8F8" fill-rule="winding" /><path transform="matrix(1 0 0 -1 0 841)" d="M75.03152 867.5352L75.78184 867.5352L75.78184 867.5352L75.78184 591.4189L75.78184 591.4189L75.03152 591.4189z" stroke="none" fill="#DDDDDD" fill-rule="winding" /></g><g transform="matrix(0.2399193 0 0 0.2399322 0 -14.78003)"><g transform="matrix(1 0 0 1 0 0)"><image x="0" y="0" xlink:href="img_02.png" width="2480" height="295" /></g></g><g transform="matrix(0.4798387 0 0 0.4798876 0 798.29)"><g transform="matrix(1 0 0 1 0 0)"><image x="0" y="0" xlink:href="img_03.png" width="1240" height="89" /></g></g></g></g></g></svg>