<svg xmlns="http://www.w3.org/2000/svg" xmlns:xlink="http://www.w3.org/1999/xlink" id="body_71" preserveAspectRatio="xMinYMin meet" viewBox="0 0 793 1121"><defs><clipPath id="1"><path d="M0 841L0 0L0 0L595 0L595 0L595 841L595 841L0 841z" /></clipPath><clipPath id="2"><path d="M0 56L595 56L595 56L595 784.5586L595 784.5586L0 784.5586z" /></clipPath></defs><g transform="matrix(1.333333 0 0 1.333333 0 0)"><g><g clip-path="url(#1)"><g clip-path="url(#2)"><path transform="matrix(1 0 0 -1 0 841)" d="M0 51783.93L595 51783.93L595 51783.93L595 -6193.684L595 -6193.684L0 -6193.684z" stroke="none" fill="#FFFFFF" fill-rule="winding" /><path transform="matrix(1 0 0 -1 0 841)" d="M48.02018 444.3555L51.02144 444.3555L51.02144 444.3555L51.02144 429.3477L51.02144 429.3477L48.02018 429.3477z" stroke="none" fill="#DFE2E5" fill-rule="winding" /><g transform="matrix(0.6652795 0 0 0.66571 48.02018 56)"><g transform="matrix(1 0 0 1 0 0)"><image x="0" y="0" xlink:href="img_136.png" width="750" height="337" /></g></g><path transform="matrix(1 0 0 -1 0 841)" d="M138.8083 518.6367L138.8083 523.8867C 138.8083 524.5156 139.0281 525.043 139.4676 525.4844C 139.9071 525.9219 140.4377 526.1406 141.0593 526.1406L141.0593 526.1406L207.8373 526.1406C 208.4589 526.1406 208.9895 525.9219 209.429 525.4844C 209.8685 525.043 210.0882 524.5156 210.0883 523.8867L210.0883 523.8867L210.0883 518.6367C 210.0882 518.0195 209.8685 517.4883 209.429 517.0469C 208.9895 516.6094 208.4589 516.3906 207.8373 516.3867L207.8373 516.3867L141.0593 516.3867C 140.4377 516.3906 139.9071 516.6094 139.4676 517.0469C 139.0281 517.4883 138.8083 518.0195 138.8083 518.6367z" stroke="none" fill="#F3F4F4" fill-rule="winding" /><path transform="matrix(1 0 0 -1 0 841)" d="M139.1835 518.6367L139.1835 523.8867C 139.1835 524.4102 139.3666 524.8516 139.7329 525.2188C 140.0991 525.582 140.5413 525.7656 141.0593 525.7656L141.0593 525.7656L207.8373 525.7656C 208.3553 525.7656 208.7974 525.582 209.1637 525.2188C 209.53 524.8516 209.7131 524.4102 209.7131 523.8867L209.7131 523.8867L209.7131 518.6367C 209.7131 518.1211 209.53 517.6797 209.1637 517.3125C 208.7974 516.9492 208.3553 516.7656 207.8373 516.7617L207.8373 516.7617L141.0593 516.7617C 140.5413 516.7656 140.0991 516.9492 139.7329 517.3125C 139.3666 517.6797 139.1835 518.1211 139.1835 518.6367z" stroke="#E7EAED" stroke-width="0.7503152" fill="none" /><path transform="matrix(1 0 0 -1 0 841)" d="M239.3506 518.6367L239.3506 523.8867C 239.3506 524.5156 239.5703 525.043 240.0098 525.4844C 240.4494 525.9219 240.9799 526.1406 241.6015 526.1406L241.6015 526.1406L273.1147 526.1406C 273.7363 526.1406 274.2669 525.9219 274.7064 525.4844C 275.1459 525.043 275.3657 524.5156 275.3657 523.8867L275.3657 523.8867L275.3657 518.6367C 275.3657 518.0195 275.1459 517.4883 274.7064 517.0469C 274.2669 516.6094 273.7363 516.3906 273.1147 516.3867L273.1147 516.3867L241.6015 516.3867C 240.9799 516.3906 240.4494 516.6094 240.0098 517.0469C 239.5703 517.4883 239.3506 518.0195 239.3506 518.6367z" stroke="none" fill="#F3F4F4" fill-rule="winding" /><path transform="matrix(1 0 0 -1 0 841)" d="M239.7257 518.6367L239.7257 523.8867C 239.7257 524.4102 239.9088 524.8516 240.2751 525.2188C 240.6414 525.582 241.0835 525.7656 241.6015 525.7656L241.6015 525.7656L273.1147 525.7656C 273.6327 525.7656 274.0749 525.582 274.4411 525.2188C 274.8074 524.8516 274.9905 524.4102 274.9905 523.8867L274.9905 523.8867L274.9905 518.6367C 274.9905 518.1211 274.8074 517.6797 274.4411 517.3125C 274.0749 516.9492 273.6327 516.7656 273.1147 516.7617L273.1147 516.7617L241.6015 516.7617C 241.0835 516.7656 240.6414 516.9492 240.2751 517.3125C 239.9088 517.6797 239.7257 518.1211 239.7257 518.6367z" stroke="#E7EAED" stroke-width="0.7503152" fill="none" /><path transform="matrix(1 0 0 -1 0 841)" d="M278.3669 518.6367L278.3669 523.8867C 278.3669 524.5156 278.5867 525.043 279.0262 525.4844C 279.4658 525.9219 279.9963 526.1406 280.6179 526.1406L280.6179 526.1406L312.1311 526.1406C 312.7527 526.1406 313.2832 525.9219 313.7228 525.4844C 314.1623 525.043 314.3821 524.5156 314.3821 523.8867L314.3821 523.8867L314.3821 518.6367C 314.3821 518.0195 314.1623 517.4883 313.7228 517.0469C 313.2832 516.6094 312.7527 516.3906 312.1311 516.3867L312.1311 516.3867L280.6179 516.3867C 279.9963 516.3906 279.4658 516.6094 279.0262 517.0469C 278.5867 517.4883 278.3669 518.0195 278.3669 518.6367z" stroke="none" fill="#F3F4F4" fill-rule="winding" /><path transform="matrix(1 0 0 -1 0 841)" d="M278.7421 518.6367L278.7421 523.8867C 278.7421 524.4102 278.9253 524.8516 279.2915 525.2188C 279.6578 525.582 280.0999 525.7656 280.6179 525.7656L280.6179 525.7656L312.1311 525.7656C 312.6491 525.7656 313.0912 525.582 313.4575 525.2188C 313.8238 524.8516 314.0069 524.4102 314.0069 523.8867L314.0069 523.8867L314.0069 518.6367C 314.0069 518.1211 313.8238 517.6797 313.4575 517.3125C 313.0912 516.9492 312.6491 516.7656 312.1311 516.7617L312.1311 516.7617L280.6179 516.7617C 280.0999 516.7656 279.6578 516.9492 279.2915 517.3125C 278.9253 517.6797 278.7421 518.1211 278.7421 518.6367z" stroke="#E7EAED" stroke-width="0.7503152" fill="none" /><path transform="matrix(1 0 0 -1 0 841)" d="M392.4149 518.6367L392.4149 523.8867C 392.4148 524.5156 392.6346 525.043 393.0742 525.4844C 393.5136 525.9219 394.0443 526.1406 394.6658 526.1406L394.6658 526.1406L441.9357 526.1406C 442.5572 526.1406 443.0878 525.9219 443.5273 525.4844C 443.9668 525.043 444.1866 524.5156 444.1866 523.8867L444.1866 523.8867L444.1866 518.6367C 444.1866 518.0195 443.9668 517.4883 443.5273 517.0469C 443.0878 516.6094 442.5572 516.3906 441.9357 516.3867L441.9357 516.3867L394.6658 516.3867C 394.0443 516.3906 393.5136 516.6094 393.0742 517.0469C 392.6346 517.4883 392.4148 518.0195 392.4149 518.6367z" stroke="none" fill="#F3F4F4" fill-rule="winding" /><path transform="matrix(1 0 0 -1 0 841)" d="M392.79 518.6367L392.79 523.8867C 392.79 524.4102 392.9732 524.8516 393.3394 525.2188C 393.7057 525.582 394.1478 525.7656 394.6658 525.7656L394.6658 525.7656L441.9357 525.7656C 442.4537 525.7656 442.8958 525.582 443.2621 525.2188C 443.6283 524.8516 443.8114 524.4102 443.8115 523.8867L443.8115 523.8867L443.8115 518.6367C 443.8114 518.1211 443.6283 517.6797 443.2621 517.3125C 442.8958 516.9492 442.4537 516.7656 441.9357 516.7617L441.9357 516.7617L394.6658 516.7617C 394.1478 516.7656 393.7057 516.9492 393.3394 517.3125C 392.9732 517.6797 392.79 518.1211 392.79 518.6367z" stroke="#E7EAED" stroke-width="0.7503152" fill="none" /><path transform="matrix(1 0 0 -1 0 841)" d="M70.52963 502.8789L70.52963 508.1328C 70.52962 508.7578 70.74939 509.2852 71.18891 509.7266C 71.62843 510.168 72.15899 510.3828 72.78058 510.3828L72.78058 510.3828L104.2938 510.3828C 104.9154 510.3828 105.4459 510.168 105.8855 509.7266C 106.325 509.2852 106.5448 508.7578 106.5448 508.1328L106.5448 508.1328L106.5448 502.8789C 106.5448 502.2656 106.325 501.7305 105.8855 501.293C 105.4459 500.8516 104.9154 500.6328 104.2938 500.6289L104.2938 500.6289L72.78058 500.6289C 72.15899 500.6328 71.62843 500.8516 71.18891 501.293C 70.74939 501.7305 70.52962 502.2656 70.52963 502.8789z" stroke="none" fill="#F3F4F4" fill-rule="winding" /><path transform="matrix(1 0 0 -1 0 841)" d="M70.90479 502.8789L70.90479 508.1328C 70.90479 508.6523 71.08793 509.0938 71.45419 509.4609C 71.82047 509.8242 72.26259 510.0078 72.78058 510.0078L72.78058 510.0078L104.2938 510.0078C 104.8118 510.0078 105.2539 509.8242 105.6202 509.4609C 105.9865 509.0938 106.1696 508.6523 106.1696 508.1328L106.1696 508.1328L106.1696 502.8789C 106.1696 502.3633 105.9865 501.9258 105.6202 501.5547C 105.2539 501.1914 104.8118 501.0117 104.2938 501.0039L104.2938 501.0039L72.78058 501.0039C 72.26259 501.0117 71.82047 501.1914 71.45419 501.5547C 71.08793 501.9258 70.90479 502.3633 70.90479 502.8789z" stroke="#E7EAED" stroke-width="0.7503152" fill="none" /><path transform="matrix(1 0 0 -1 0 841)" d="M119.3001 487.125L119.3001 492.375C 119.3001 492.9961 119.5199 493.5313 119.9594 493.9688C 120.3989 494.4102 120.9295 494.625 121.5511 494.625L121.5511 494.625L168.8209 494.625C 169.4425 494.625 169.9731 494.4102 170.4126 493.9688C 170.8521 493.5313 171.0719 492.9961 171.0719 492.375L171.0719 492.375L171.0719 487.125C 171.0719 486.5 170.8521 485.9727 170.4126 485.5352C 169.9731 485.0938 169.4425 484.8789 168.8209 484.8711L168.8209 484.8711L121.5511 484.8711C 120.9295 484.8789 120.3989 485.0938 119.9594 485.5352C 119.5199 485.9727 119.3001 486.5 119.3001 487.125z" stroke="none" fill="#F3F4F4" fill-rule="winding" /><path transform="matrix(1 0 0 -1 0 841)" d="M119.6753 487.125L119.6753 492.375C 119.6753 492.8984 119.8584 493.3359 120.2247 493.707C 120.591 494.0703 121.0331 494.25 121.5511 494.25L121.5511 494.25L168.8209 494.25C 169.3389 494.25 169.781 494.0703 170.1473 493.707C 170.5136 493.3359 170.6967 492.8984 170.6967 492.375L170.6967 492.375L170.6967 487.125C 170.6967 486.6055 170.5136 486.168 170.1473 485.8047C 169.781 485.4336 169.3389 485.2539 168.8209 485.2461L168.8209 485.2461L121.5511 485.2461C 121.0331 485.2539 120.591 485.4336 120.2247 485.8047C 119.8584 486.168 119.6753 486.6055 119.6753 487.125z" stroke="#E7EAED" stroke-width="0.7503152" fill="none" /><path transform="matrix(1 0 0 -1 0 841)" d="M426.9294 471.3672L426.9294 476.6172C 426.9293 477.2461 427.1491 477.7734 427.5887 478.2148C 428.0281 478.6523 428.5587 478.8711 429.1803 478.8711L429.1803 478.8711L460.6936 478.8711C 461.3152 478.8711 461.8457 478.6523 462.2852 478.2148C 462.7247 477.7734 462.9445 477.2461 462.9445 476.6172L462.9445 476.6172L462.9445 471.3672C 462.9445 470.75 462.7247 470.2188 462.2852 469.7773C 461.8457 469.3398 461.3152 469.1211 460.6936 469.1172L460.6936 469.1172L429.1803 469.1172C 428.5587 469.1211 428.0281 469.3398 427.5887 469.7773C 427.1491 470.2188 426.9293 470.75 426.9294 471.3672z" stroke="none" fill="#F3F4F4" fill-rule="winding" /><path transform="matrix(1 0 0 -1 0 841)" d="M427.3045 471.3672L427.3045 476.6172C 427.3045 477.1406 427.4876 477.582 427.8539 477.9492C 428.2202 478.3125 428.6623 478.4961 429.1803 478.4961L429.1803 478.4961L460.6936 478.4961C 461.2115 478.4961 461.6537 478.3125 462.0199 477.9492C 462.3862 477.582 462.5693 477.1406 462.5693 476.6172L462.5693 476.6172L462.5693 471.3672C 462.5693 470.8516 462.3862 470.4102 462.0199 470.043C 461.6537 469.6719 461.2115 469.4922 460.6936 469.4922L460.6936 469.4922L429.1803 469.4922C 428.6623 469.4922 428.2202 469.6719 427.8539 470.043C 427.4876 470.4102 427.3045 470.8516 427.3045 471.3672z" stroke="#E7EAED" stroke-width="0.7503152" fill="none" /><path transform="matrix(1 0 0 -1 0 841)" d="M472.6986 471.3672L472.6986 476.6172C 472.6986 477.2461 472.9184 477.7734 473.3579 478.2148C 473.7974 478.6523 474.328 478.8711 474.9496 478.8711L474.9496 478.8711L507.2131 478.8711C 507.8347 478.8711 508.3652 478.6523 508.8047 478.2148C 509.2442 477.7734 509.464 477.2461 509.464 476.6172L509.464 476.6172L509.464 471.3672C 509.464 470.75 509.2442 470.2188 508.8047 469.7773C 508.3652 469.3398 507.8347 469.1211 507.2131 469.1172L507.2131 469.1172L474.9496 469.1172C 474.328 469.1211 473.7974 469.3398 473.3579 469.7773C 472.9184 470.2188 472.6986 470.75 472.6986 471.3672z" stroke="none" fill="#F3F4F4" fill-rule="winding" /><path transform="matrix(1 0 0 -1 0 841)" d="M473.0738 471.3672L473.0738 476.6172C 473.0737 477.1406 473.2569 477.582 473.6231 477.9492C 473.9894 478.3125 474.4315 478.4961 474.9496 478.4961L474.9496 478.4961L507.2131 478.4961C 507.7311 478.4961 508.1732 478.3125 508.5395 477.9492C 508.9058 477.582 509.0889 477.1406 509.0889 476.6172L509.0889 476.6172L509.0889 471.3672C 509.0889 470.8516 508.9058 470.4102 508.5395 470.043C 508.1732 469.6719 507.7311 469.4922 507.2131 469.4922L507.2131 469.4922L474.9496 469.4922C 474.4315 469.4922 473.9894 469.6719 473.6231 470.043C 473.2569 470.4102 473.0737 470.8516 473.0738 471.3672z" stroke="#E7EAED" stroke-width="0.7503152" fill="none" /><g transform="matrix(0.6652795 0 0 0.66571 48.02018 419.1523)"><g transform="matrix(1 0 0 1 0 0)"><image x="0" y="0" xlink:href="img_137.png" width="750" height="337" /></g></g><path transform="matrix(1 0 0 -1 0 841)" d="M341.3934 155.4844L341.3934 160.7344C 341.3934 161.3633 341.6132 161.8906 342.0527 162.332C 342.4922 162.7695 343.0228 162.9883 343.6444 162.9883L343.6444 162.9883L359.401 162.9883C 360.0226 162.9883 360.5531 162.7695 360.9926 162.332C 361.4322 161.8906 361.6519 161.3633 361.6519 160.7344L361.6519 160.7344L361.6519 155.4844C 361.6519 154.8672 361.4322 154.3359 360.9926 153.8945C 360.5531 153.457 360.0226 153.2383 359.401 153.2344L359.401 153.2344L343.6444 153.2344C 343.0228 153.2383 342.4922 153.457 342.0527 153.8945C 341.6132 154.3359 341.3934 154.8672 341.3934 155.4844z" stroke="none" fill="#F3F4F4" fill-rule="winding" /><path transform="matrix(1 0 0 -1 0 841)" d="M341.7686 155.4844L341.7686 160.7344C 341.7686 161.2578 341.9517 161.6992 342.318 162.0664C 342.6843 162.4297 343.1264 162.6133 343.6444 162.6133L343.6444 162.6133L359.401 162.6133C 359.919 162.6133 360.3611 162.4297 360.7274 162.0664C 361.0936 161.6992 361.2768 161.2578 361.2768 160.7344L361.2768 160.7344L361.2768 155.4844C 361.2768 154.9688 361.0936 154.5273 360.7274 154.1602C 360.3611 153.7969 359.919 153.6133 359.401 153.6094L359.401 153.6094L343.6444 153.6094C 343.1264 153.6133 342.6843 153.7969 342.318 154.1602C 341.9517 154.5273 341.7686 154.9688 341.7686 155.4844z" stroke="#E7EAED" stroke-width="0.7503152" fill="none" /><path transform="matrix(1 0 0 -1 0 841)" d="M234.9775 141.7514L239.2164 141.7514L239.2164 141.7514L239.7537 143.3326L239.7537 143.3326L236.4103 143.3326L236.4103 143.3326L236.6498 144.0375L236.6498 144.0375L239.9933 144.0375L239.9933 144.0375L240.5242 145.5997L240.5242 145.5997L236.5711 145.5997L236.5711 145.5997L236.8106 146.3045L236.8106 146.3045L240.7637 146.3045L240.7637 146.3045L241.2849 147.8381L241.2849 147.8381L242.085 147.8381L242.085 147.8381L241.5639 146.3045L241.5639 146.3045L245.5169 146.3045L245.5169 146.3045L245.2774 145.5997L245.2774 145.5997L241.3243 145.5997L241.3243 145.5997L240.7934 144.0375L240.7934 144.0375L244.1273 144.0375L244.1273 144.0375L243.8878 143.3326L243.8878 143.3326L240.5539 143.3326L240.5539 143.3326L240.0165 141.7514L240.0165 141.7514L244.2553 141.7514L244.2553 141.7514L244.0158 141.0465L244.0158 141.0465L239.7769 141.0465L239.7769 141.0465L238.8867 138.427L238.8867 138.427L238.0865 138.427L238.0865 138.427L238.9768 141.0465L238.9768 141.0465L234.738 141.0465L234.738 141.0465L234.9775 141.7514z" stroke="none" fill="#333333" fill-rule="winding" /><path transform="matrix(1 0 0 -1 0 841)" d="M252.3097 141.599L249.6617 141.599L249.6617 141.599L249.3929 140.8083L249.3929 140.8083L252.041 140.8083L252.041 140.8083L252.3097 141.599zM246.059 140.8083L248.7071 140.8083L248.7071 140.8083L248.9758 141.599L248.9758 141.599L246.3277 141.599L246.3277 141.599L246.059 140.8083zM248.9365 139.4652L251.5846 139.4652L251.5846 139.4652L251.8533 140.2559L251.8533 140.2559L249.2052 140.2559L249.2052 140.2559L248.9365 139.4652zM245.6026 139.4652L248.2507 139.4652L248.2507 139.4652L248.5193 140.2559L248.5193 140.2559L245.8712 140.2559L245.8712 140.2559L245.6026 139.4652zM252.3033 144.0184L247.9787 144.0184L247.9787 144.0184L247.7456 143.3326L247.7456 143.3326L252.0702 143.3326L252.0702 143.3326L252.3033 144.0184zM247.6593 145.6854L253.7461 145.6854L253.7461 145.6854L253.5583 145.1329L253.5583 145.1329L247.4715 145.1329L247.4715 145.1329L247.6593 145.6854zM246.7778 146.8475L250.8118 146.8475C 250.7542 147.0888 250.6853 147.3301 250.6054 147.5714L250.6054 147.5714L251.376 147.9048C 251.4861 147.5746 251.5822 147.2222 251.6644 146.8475L251.6644 146.8475L255.4174 146.8475L255.4174 146.8475L254.7635 144.9233L254.7635 144.9233L254.0491 144.9233L254.0491 144.9233L254.5023 146.2569L254.5023 146.2569L247.2915 146.2569L247.2915 146.2569L246.8383 144.9233L246.8383 144.9233L246.1239 144.9233L246.1239 144.9233L246.7778 146.8475zM247.4997 144.5709L253.1578 144.5709L253.1578 144.5709L252.4586 142.5134L252.4586 142.5134L251.7918 142.5134L251.7918 142.5134L251.8824 142.7801L251.8824 142.7801L247.5579 142.7801L247.5579 142.7801L247.4672 142.5134L247.4672 142.5134L246.8004 142.5134L246.8004 142.5134L247.4997 144.5709zM245.8361 142.1705L253.1898 142.1705L253.1898 142.1705L251.9532 138.5317L251.9532 138.5317L251.2674 138.5317L251.2674 138.5317L251.3904 138.8937L251.3904 138.8937L245.4084 138.8937L245.4084 138.8937L245.2854 138.5317L245.2854 138.5317L244.5995 138.5317L244.5995 138.5317L245.8361 142.1705z" stroke="none" fill="#333333" fill-rule="winding" /><path transform="matrix(1 0 0 -1 0 841)" d="M258.61 138.0507C 257.8973 139.289 257.8398 140.7877 258.4376 142.5467C 259.0429 144.328 260.1255 145.8457 261.6853 147.0999L261.6853 147.0999L262.5045 147.0999C 260.9402 145.814 259.8619 144.2994 259.2696 142.5563C 258.6858 140.8385 258.7358 139.3366 259.4196 138.0507L259.4196 138.0507L258.61 138.0507z" stroke="none" fill="#333333" fill-rule="winding" /><path transform="matrix(1 0 0 -1 0 841)" d="M293.678 138.0507L292.8588 138.0507C 294.422 139.3335 295.5013 140.8512 296.097 142.6039C 296.6819 144.3248 296.6308 145.8235 295.9437 147.0999L295.9437 147.0999L296.7534 147.0999C 297.463 145.8711 297.5172 144.3725 296.9162 142.6039C 296.3087 140.8163 295.2293 139.2985 293.678 138.0507z" stroke="none" fill="#333333" fill-rule="winding" /><path transform="matrix(1 0 0 -1 0 841)" d="M48.02018 85.70313L546.9798 85.70313L546.9798 85.70313L546.9798 84.95313L546.9798 84.95313L48.02018 84.95313z" stroke="none" fill="#EEEEEE" fill-rule="winding" /></g><g transform="matrix(0.2399193 0 0 0.2399322 0 -14.78003)"><g transform="matrix(1 0 0 1 0 0)"><image x="0" y="0" xlink:href="img_02.png" width="2480" height="295" /></g></g><g transform="matrix(0.4798387 0 0 0.4798876 0 798.29)"><g transform="matrix(1 0 0 1 0 0)"><image x="0" y="0" xlink:href="img_03.png" width="1240" height="89" /></g></g></g></g></g></svg>