<svg xmlns="http://www.w3.org/2000/svg" xmlns:xlink="http://www.w3.org/1999/xlink" id="body_26" preserveAspectRatio="xMinYMin meet" viewBox="0 0 793 1121"><defs><clipPath id="1"><path d="M0 841L0 0L0 0L595 0L595 0L595 841L595 841L0 841z" /></clipPath><clipPath id="2"><path d="M0 56L595 56L595 56L595 784.5566L595 784.5566L0 784.5566z" /></clipPath><clipPath id="3"><path d="M48.77049 62.75391L543.2282 62.75391L543.2282 62.75391L543.2282 76.25977L543.2282 76.25977L48.77049 76.25977z" /></clipPath><clipPath id="4"><path d="M0 56L595 56L595 56L595 784.5566L595 784.5566L0 784.5566z" /></clipPath><clipPath id="5"><path d="M48.77049 383.1387L543.2282 383.1387L543.2282 383.1387L543.2282 450.666L543.2282 450.666L48.77049 450.666z" /></clipPath><clipPath id="6"><path d="M0 56L595 56L595 56L595 784.5566L595 784.5566L0 784.5566z" /></clipPath><clipPath id="7"><path d="M48.77049 62.75391L543.2282 62.75391L543.2282 62.75391L543.2282 76.25977L543.2282 76.25977L48.77049 76.25977z" /></clipPath><clipPath id="8"><path d="M48.77049 383.1387L543.2282 383.1387L543.2282 383.1387L543.2282 450.666L543.2282 450.666L48.77049 450.666z" /></clipPath></defs><g transform="matrix(1.333333 0 0 1.333333 0 0)"><g><g clip-path="url(#1)"><g clip-path="url(#2)"><path transform="matrix(1 0 0 -1 0 841)" d="M0 18998.9L595 18998.9L595 18998.9L595 -38978.71L595 -38978.71L0 -38978.71z" stroke="none" fill="#FFFFFF" fill-rule="winding" /><path transform="matrix(1 0 0 -1 0 841)" d="M48.02018 586.916L51.02144 586.916L51.02144 586.916L51.02144 556.9043L51.02144 556.9043L48.02018 556.9043z" stroke="none" fill="#DFE2E5" fill-rule="winding" /><path transform="matrix(1 0 0 -1 0 841)" d="M48.39533 761.7402L48.39533 782.748C 48.39533 783.2676 48.57846 783.7109 48.94473 784.0762C 49.311 784.4414 49.75313 784.625 50.27112 784.625L50.27112 784.625L544.7289 784.625C 545.2468 784.625 545.6889 784.4414 546.0552 784.0762C 546.4214 783.7109 546.6046 783.2676 546.6047 782.748L546.6047 782.748L546.6047 761.7402C 546.6046 761.2227 546.4214 760.7813 546.0552 760.416C 545.6889 760.0488 545.2468 759.8652 544.7289 759.8633L544.7289 759.8633L50.27112 759.8633C 49.75313 759.8652 49.311 760.0488 48.94473 760.416C 48.57846 760.7813 48.39533 761.2227 48.39533 761.7402z" stroke="none" fill="#F8F8F8" fill-rule="winding" /><path transform="matrix(1 0 0 -1 0 841)" d="M48.39533 761.7402L48.39533 782.748C 48.39533 783.2676 48.57846 783.7109 48.94473 784.0762C 49.311 784.4414 49.75313 784.625 50.27112 784.625L50.27112 784.625L544.7289 784.625C 545.2468 784.625 545.6889 784.4414 546.0552 784.0762C 546.4214 783.7109 546.6046 783.2676 546.6047 782.748L546.6047 782.748L546.6047 761.7402C 546.6046 761.2227 546.4214 760.7813 546.0552 760.416C 545.6889 760.0488 545.2468 759.8652 544.7289 759.8633L544.7289 759.8633L50.27112 759.8633C 49.75313 759.8652 49.311 760.0488 48.94473 760.416C 48.57846 760.7813 48.39533 761.2227 48.39533 761.7402z" stroke="#E7EAED" stroke-width="0.7503152" fill="none" /></g><g clip-path="url(#3)"><path transform="matrix(1 0 0 -1 0 841)" d="M48.77049 778.2461L543.2282 778.2461L543.2282 778.2461L543.2282 764.7402L543.2282 764.7402L48.77049 764.7402z" stroke="none" fill="#F8F8F8" fill-rule="winding" /></g><g clip-path="url(#4)"><g transform="matrix(0.7503152 0 0 0.7503152 73.53089 92.76563)"><g transform="matrix(1 0 0 1 0 0)"><image x="0" y="0" xlink:href="img_56.png" width="598" height="205" /></g></g><path transform="matrix(1 0 0 -1 0 841)" d="M48.39533 387.332L48.39533 462.3633C 48.39533 462.8828 48.57846 463.3262 48.94473 463.6914C 49.311 464.0566 49.75313 464.2402 50.27112 464.2402L50.27112 464.2402L544.7289 464.2402C 545.2468 464.2402 545.6889 464.0566 546.0552 463.6914C 546.4214 463.3262 546.6046 462.8828 546.6047 462.3633L546.6047 462.3633L546.6047 387.332C 546.6046 386.8145 546.4214 386.375 546.0552 386.0078C 545.6889 385.6406 545.2468 385.459 544.7289 385.457L544.7289 385.457L50.27112 385.457C 49.75313 385.459 49.311 385.6406 48.94473 386.0078C 48.57846 386.375 48.39533 386.8145 48.39533 387.332z" stroke="none" fill="#F8F8F8" fill-rule="winding" /><path transform="matrix(1 0 0 -1 0 841)" d="M48.39533 387.332L48.39533 462.3633C 48.39533 462.8828 48.57846 463.3262 48.94473 463.6914C 49.311 464.0566 49.75313 464.2402 50.27112 464.2402L50.27112 464.2402L544.7289 464.2402C 545.2468 464.2402 545.6889 464.0566 546.0552 463.6914C 546.4214 463.3262 546.6046 462.8828 546.6047 462.3633L546.6047 462.3633L546.6047 387.332C 546.6046 386.8145 546.4214 386.375 546.0552 386.0078C 545.6889 385.6406 545.2468 385.459 544.7289 385.457L544.7289 385.457L50.27112 385.457C 49.75313 385.459 49.311 385.6406 48.94473 386.0078C 48.57846 386.375 48.39533 386.8145 48.39533 387.332z" stroke="#E7EAED" stroke-width="0.7503152" fill="none" /></g><g clip-path="url(#5)"><path transform="matrix(1 0 0 -1 0 841)" d="M48.77049 457.8613L543.2282 457.8613L543.2282 457.8613L543.2282 390.334L543.2282 390.334L48.77049 390.334z" stroke="none" fill="#F8F8F8" fill-rule="winding" /></g><g clip-path="url(#6)"></g><g clip-path="url(#7)"><path transform="matrix(1 0 0 -1 0 841)" d="M48.77049 778.2461L543.2282 778.2461L543.2282 778.2461L543.2282 764.7402L543.2282 764.7402L48.77049 764.7402z" stroke="none" fill="#F8F8F8" fill-rule="winding" /><path transform="matrix(1 0 0 -1 0 841)" d="M48.77049 778.2461L69.77932 778.2461L69.77932 778.2461L69.77932 755.7383L69.77932 755.7383L48.77049 755.7383z" stroke="none" fill="#F8F8F8" fill-rule="winding" /><path transform="matrix(1 0 0 -1 0 841)" d="M69.029 778.2461L69.77932 778.2461L69.77932 778.2461L69.77932 755.7383L69.77932 755.7383L69.029 755.7383z" stroke="none" fill="#DDDDDD" fill-rule="winding" /></g><g clip-path="url(#8)"><path transform="matrix(1 0 0 -1 0 841)" d="M48.77049 457.8613L543.2282 457.8613L543.2282 457.8613L543.2282 390.334L543.2282 390.334L48.77049 390.334z" stroke="none" fill="#F8F8F8" fill-rule="winding" /><path transform="matrix(1 0 0 -1 0 841)" d="M48.77049 457.8613L69.77932 457.8613L69.77932 457.8613L69.77932 371.5762L69.77932 371.5762L48.77049 371.5762z" stroke="none" fill="#F8F8F8" fill-rule="winding" /><path transform="matrix(1 0 0 -1 0 841)" d="M69.029 457.8613L69.77932 457.8613L69.77932 457.8613L69.77932 371.5762L69.77932 371.5762L69.029 371.5762z" stroke="none" fill="#DDDDDD" fill-rule="winding" /></g><g transform="matrix(0.2399193 0 0 0.2399322 0 -14.78003)"><g transform="matrix(1 0 0 1 0 0)"><image x="0" y="0" xlink:href="img_02.png" width="2480" height="295" /></g></g><g transform="matrix(0.4798387 0 0 0.4798876 0 798.29)"><g transform="matrix(1 0 0 1 0 0)"><image x="0" y="0" xlink:href="img_03.png" width="1240" height="89" /></g></g></g></g></g></svg>