<svg xmlns="http://www.w3.org/2000/svg" xmlns:xlink="http://www.w3.org/1999/xlink" id="body_36" preserveAspectRatio="xMinYMin meet" viewBox="0 0 793 1121"><defs><clipPath id="1"><path d="M0 841L0 0L0 0L595 0L595 0L595 841L595 841L0 841z" /></clipPath><clipPath id="2"><path d="M0 56L595 56L595 56L595 784.5566L595 784.5566L0 784.5566z" /></clipPath><clipPath id="3"><path d="M48.77049 464.9219L543.2282 464.9219L543.2282 464.9219L543.2282 640.4961L543.2282 640.4961L48.77049 640.4961z" /></clipPath><clipPath id="4"><path d="M0 56L595 56L595 56L595 784.5566L595 784.5566L0 784.5566z" /></clipPath><clipPath id="5"><path d="M48.77049 464.9219L543.2282 464.9219L543.2282 464.9219L543.2282 640.4961L543.2282 640.4961L48.77049 640.4961z" /></clipPath></defs><g transform="matrix(1.333333 0 0 1.333333 0 0)"><g><g clip-path="url(#1)"><g clip-path="url(#2)"><path transform="matrix(1 0 0 -1 0 841)" d="M0 26284.46L595 26284.46L595 26284.46L595 -31693.15L595 -31693.15L0 -31693.15z" stroke="none" fill="#FFFFFF" fill-rule="winding" /><g transform="matrix(0.7503152 0 0 0.7503153 136.5574 56)"><g transform="matrix(1 0 0 1 0 0)"><image x="0" y="0" xlink:href="img_72.png" width="430" height="491" /></g></g><path transform="matrix(1 0 0 -1 0 841)" d="M48.39533 197.502L48.39533 380.5801C 48.39533 381.0977 48.57846 381.541 48.94473 381.9063C 49.311 382.2734 49.75313 382.4551 50.27112 382.4551L50.27112 382.4551L544.7289 382.4551C 545.2468 382.4551 545.6889 382.2734 546.0552 381.9063C 546.4214 381.541 546.6046 381.0977 546.6047 380.5801L546.6047 380.5801L546.6047 197.502C 546.6046 196.9863 546.4214 196.543 546.0552 196.1777C 545.6889 195.8105 545.2468 195.6289 544.7289 195.627L544.7289 195.627L50.27112 195.627C 49.75313 195.6289 49.311 195.8105 48.94473 196.1777C 48.57846 196.543 48.39533 196.9863 48.39533 197.502z" stroke="none" fill="#F8F8F8" fill-rule="winding" /><path transform="matrix(1 0 0 -1 0 841)" d="M48.39533 197.502L48.39533 380.5801C 48.39533 381.0977 48.57846 381.541 48.94473 381.9063C 49.311 382.2734 49.75313 382.4551 50.27112 382.4551L50.27112 382.4551L544.7289 382.4551C 545.2468 382.4551 545.6889 382.2734 546.0552 381.9063C 546.4214 381.541 546.6046 381.0977 546.6047 380.5801L546.6047 380.5801L546.6047 197.502C 546.6046 196.9863 546.4214 196.543 546.0552 196.1777C 545.6889 195.8105 545.2468 195.6289 544.7289 195.627L544.7289 195.627L50.27112 195.627C 49.75313 195.6289 49.311 195.8105 48.94473 196.1777C 48.57846 196.543 48.39533 196.9863 48.39533 197.502z" stroke="#E7EAED" stroke-width="0.7503152" fill="none" /></g><g clip-path="url(#3)"><path transform="matrix(1 0 0 -1 0 841)" d="M48.77049 376.0781L543.2282 376.0781L543.2282 376.0781L543.2282 200.5039L543.2282 200.5039L48.77049 200.5039z" stroke="none" fill="#F8F8F8" fill-rule="winding" /></g><g clip-path="url(#4)"><g transform="matrix(0.5982729 0 0 0.5986558 48.02018 657.0039)"><g transform="matrix(1 0 0 1 0 0)"><image x="0" y="0" xlink:href="img_73.png" width="834" height="188" /></g></g></g><g clip-path="url(#5)"><path transform="matrix(1 0 0 -1 0 841)" d="M48.77049 376.0781L543.2282 376.0781L543.2282 376.0781L543.2282 200.5039L543.2282 200.5039L48.77049 200.5039z" stroke="none" fill="#F8F8F8" fill-rule="winding" /><path transform="matrix(1 0 0 -1 0 841)" d="M48.77049 376.0781L75.78184 376.0781L75.78184 376.0781L75.78184 151.7324L75.78184 151.7324L48.77049 151.7324z" stroke="none" fill="#F8F8F8" fill-rule="winding" /><path transform="matrix(1 0 0 -1 0 841)" d="M75.03152 376.0781L75.78184 376.0781L75.78184 376.0781L75.78184 151.7324L75.78184 151.7324L75.03152 151.7324z" stroke="none" fill="#DDDDDD" fill-rule="winding" /></g><g transform="matrix(0.2399193 0 0 0.2399322 0 -14.78003)"><g transform="matrix(1 0 0 1 0 0)"><image x="0" y="0" xlink:href="img_02.png" width="2480" height="295" /></g></g><g transform="matrix(0.4798387 0 0 0.4798876 0 798.29)"><g transform="matrix(1 0 0 1 0 0)"><image x="0" y="0" xlink:href="img_03.png" width="1240" height="89" /></g></g></g></g></g></svg>