<svg xmlns="http://www.w3.org/2000/svg" xmlns:xlink="http://www.w3.org/1999/xlink" id="body_78" preserveAspectRatio="xMinYMin meet" viewBox="0 0 793 1121"><defs><clipPath id="1"><path d="M0 841L0 0L0 0L595 0L595 0L595 841L595 841L0 841z" /></clipPath><clipPath id="2"><path d="M0 56L595 56L595 56L595 784.5547L595 784.5547L0 784.5547z" /></clipPath><clipPath id="3"><path d="M48.77049 56L543.2282 56L543.2282 56L543.2282 784.5547L543.2282 784.5547L48.77049 784.5547z" /></clipPath></defs><g transform="matrix(1.333333 0 0 1.333333 0 0)"><g><g clip-path="url(#1)"><g clip-path="url(#2)"><path transform="matrix(1 0 0 -1 0 841)" d="M0 56883.82L595 56883.82L595 56883.82L595 -1093.789L595 -1093.789L0 -1093.789z" stroke="none" fill="#FFFFFF" fill-rule="winding" /><path transform="matrix(1 0 0 -1 0 841)" d="M48.39533 -1080.285L48.39533 1927.73C 48.39533 1928.25 48.57846 1928.691 48.94473 1929.063C 49.311 1929.426 49.75313 1929.605 50.27112 1929.605L50.27112 1929.605L544.7289 1929.605C 545.2468 1929.605 545.6889 1929.426 546.0552 1929.063C 546.4214 1928.691 546.6046 1928.25 546.6047 1927.73L546.6047 1927.73L546.6047 -1080.285C 546.6046 -1080.801 546.4214 -1081.238 546.0552 -1081.609C 545.6889 -1081.977 545.2468 -1082.16 544.7289 -1082.16L544.7289 -1082.16L50.27112 -1082.16C 49.75313 -1082.16 49.311 -1081.977 48.94473 -1081.609C 48.57846 -1081.238 48.39533 -1080.801 48.39533 -1080.285z" stroke="none" fill="#F8F8F8" fill-rule="winding" /><path transform="matrix(1 0 0 -1 0 841)" d="M48.39533 -1080.285L48.39533 1927.73C 48.39533 1928.25 48.57846 1928.691 48.94473 1929.063C 49.311 1929.426 49.75313 1929.605 50.27112 1929.605L50.27112 1929.605L544.7289 1929.605C 545.2468 1929.605 545.6889 1929.426 546.0552 1929.063C 546.4214 1928.691 546.6046 1928.25 546.6047 1927.73L546.6047 1927.73L546.6047 -1080.285C 546.6046 -1080.801 546.4214 -1081.238 546.0552 -1081.609C 545.6889 -1081.977 545.2468 -1082.16 544.7289 -1082.16L544.7289 -1082.16L50.27112 -1082.16C 49.75313 -1082.16 49.311 -1081.977 48.94473 -1081.609C 48.57846 -1081.238 48.39533 -1080.801 48.39533 -1080.285z" stroke="#E7EAED" stroke-width="0.7503152" fill="none" /></g><g clip-path="url(#3)"><path transform="matrix(1 0 0 -1 0 841)" d="M48.77049 1923.227L543.2282 1923.227L543.2282 1923.227L543.2282 -1077.281L543.2282 -1077.281L48.77049 -1077.281z" stroke="none" fill="#F8F8F8" fill-rule="winding" /><path transform="matrix(1 0 0 -1 0 841)" d="M48.77049 1923.227L543.2282 1923.227L543.2282 1923.227L543.2282 -1077.281L543.2282 -1077.281L48.77049 -1077.281z" stroke="none" fill="#F8F8F8" fill-rule="winding" /><path transform="matrix(1 0 0 -1 0 841)" d="M48.77049 1923.227L82.53468 1923.227L82.53468 1923.227L82.53468 -1856.109L82.53468 -1856.109L48.77049 -1856.109z" stroke="none" fill="#F8F8F8" fill-rule="winding" /><path transform="matrix(1 0 0 -1 0 841)" d="M81.78436 1923.227L82.53468 1923.227L82.53468 1923.227L82.53468 -1856.109L82.53468 -1856.109L81.78436 -1856.109z" stroke="none" fill="#DDDDDD" fill-rule="winding" /></g><g transform="matrix(0.2399193 0 0 0.2399322 0 -14.78003)"><g transform="matrix(1 0 0 1 0 0)"><image x="0" y="0" xlink:href="img_02.png" width="2480" height="295" /></g></g><g transform="matrix(0.4798387 0 0 0.4798876 0 798.29)"><g transform="matrix(1 0 0 1 0 0)"><image x="0" y="0" xlink:href="img_03.png" width="1240" height="89" /></g></g></g></g></g></svg>