<svg xmlns="http://www.w3.org/2000/svg" xmlns:xlink="http://www.w3.org/1999/xlink" id="body_80" preserveAspectRatio="xMinYMin meet" viewBox="0 0 793 1121"><defs><clipPath id="1"><path d="M0 841L0 0L0 0L595 0L595 0L595 841L595 841L0 841z" /></clipPath><clipPath id="2"><path d="M0 56L595 56L595 56L595 784.5547L595 784.5547L0 784.5547z" /></clipPath><clipPath id="3"><path d="M48.77049 56L543.2282 56L543.2282 56L543.2282 461.168L543.2282 461.168L48.77049 461.168z" /></clipPath></defs><g transform="matrix(1.333333 0 0 1.333333 0 0)"><g><g clip-path="url(#1)"><g clip-path="url(#2)"><path transform="matrix(1 0 0 -1 0 841)" d="M0 58340.93L595 58340.93L595 58340.93L595 363.3242L595 363.3242L0 363.3242z" stroke="none" fill="#FFFFFF" fill-rule="winding" /><path transform="matrix(1 0 0 -1 0 841)" d="M48.39533 376.8281L48.39533 3384.844C 48.39533 3385.363 48.57846 3385.805 48.94473 3386.176C 49.311 3386.539 49.75313 3386.719 50.27112 3386.719L50.27112 3386.719L544.7289 3386.719C 545.2468 3386.719 545.6889 3386.539 546.0552 3386.176C 546.4214 3385.805 546.6046 3385.363 546.6047 3384.844L546.6047 3384.844L546.6047 376.8281C 546.6046 376.3125 546.4214 375.875 546.0552 375.5039C 545.6889 375.1367 545.2468 374.9531 544.7289 374.9531L544.7289 374.9531L50.27112 374.9531C 49.75313 374.9531 49.311 375.1367 48.94473 375.5039C 48.57846 375.875 48.39533 376.3125 48.39533 376.8281z" stroke="none" fill="#F8F8F8" fill-rule="winding" /><path transform="matrix(1 0 0 -1 0 841)" d="M48.39533 376.8281L48.39533 3384.844C 48.39533 3385.363 48.57846 3385.805 48.94473 3386.176C 49.311 3386.539 49.75313 3386.719 50.27112 3386.719L50.27112 3386.719L544.7289 3386.719C 545.2468 3386.719 545.6889 3386.539 546.0552 3386.176C 546.4214 3385.805 546.6046 3385.363 546.6047 3384.844L546.6047 3384.844L546.6047 376.8281C 546.6046 376.3125 546.4214 375.875 546.0552 375.5039C 545.6889 375.1367 545.2468 374.9531 544.7289 374.9531L544.7289 374.9531L50.27112 374.9531C 49.75313 374.9531 49.311 375.1367 48.94473 375.5039C 48.57846 375.875 48.39533 376.3125 48.39533 376.8281z" stroke="#E7EAED" stroke-width="0.7503152" fill="none" /></g><g clip-path="url(#3)"><path transform="matrix(1 0 0 -1 0 841)" d="M48.77049 3380.34L543.2282 3380.34L543.2282 3380.34L543.2282 379.832L543.2282 379.832L48.77049 379.832z" stroke="none" fill="#F8F8F8" fill-rule="winding" /><path transform="matrix(1 0 0 -1 0 841)" d="M48.77049 3380.34L543.2282 3380.34L543.2282 3380.34L543.2282 379.832L543.2282 379.832L48.77049 379.832z" stroke="none" fill="#F8F8F8" fill-rule="winding" /><path transform="matrix(1 0 0 -1 0 841)" d="M48.77049 3380.34L82.53468 3380.34L82.53468 3380.34L82.53468 -398.9961L82.53468 -398.9961L48.77049 -398.9961z" stroke="none" fill="#F8F8F8" fill-rule="winding" /><path transform="matrix(1 0 0 -1 0 841)" d="M81.78436 3380.34L82.53468 3380.34L82.53468 3380.34L82.53468 -398.9961L82.53468 -398.9961L81.78436 -398.9961z" stroke="none" fill="#DDDDDD" fill-rule="winding" /></g><g transform="matrix(0.2399193 0 0 0.2399322 0 -14.78003)"><g transform="matrix(1 0 0 1 0 0)"><image x="0" y="0" xlink:href="img_02.png" width="2480" height="295" /></g></g><g transform="matrix(0.4798387 0 0 0.4798876 0 798.29)"><g transform="matrix(1 0 0 1 0 0)"><image x="0" y="0" xlink:href="img_03.png" width="1240" height="89" /></g></g></g></g></g></svg>