<svg xmlns="http://www.w3.org/2000/svg" xmlns:xlink="http://www.w3.org/1999/xlink" id="body_18" preserveAspectRatio="xMinYMin meet" viewBox="0 0 793 1121"><defs><clipPath id="1"><path d="M0 841L0 0L0 0L595 0L595 0L595 841L595 841L0 841z" /></clipPath><clipPath id="2"><path d="M0 56L595 56L595 56L595 784.5557L595 784.5557L0 784.5557z" /></clipPath><clipPath id="3"><path d="M48.77049 693.0176L543.2282 693.0176L543.2282 693.0176L543.2282 784.5557L543.2282 784.5557L48.77049 784.5557z" /></clipPath></defs><g transform="matrix(1.333333 0 0 1.333333 0 0)"><g><g clip-path="url(#1)"><g clip-path="url(#2)"><path transform="matrix(1 0 0 -1 0 841)" d="M0 13170.45L595 13170.45L595 13170.45L595 -44807.16L595 -44807.16L0 -44807.16z" stroke="none" fill="#FFFFFF" fill-rule="winding" /><path transform="matrix(1 0 0 -1 0 841)" d="M48.02018 331.8096L51.02144 331.8096L51.02144 331.8096L51.02144 316.8037L51.02144 316.8037L48.02018 316.8037z" stroke="none" fill="#DFE2E5" fill-rule="winding" /><g transform="matrix(0.7503152 0 0 0.7503152 171.8222 56)"><g transform="matrix(1 0 0 1 0 0)"><image x="0" y="0" xlink:href="img_38.png" width="335" height="594" /></g></g><g transform="matrix(0.7491887 0 0 0.7503152 48.02018 554.959)"><g transform="matrix(1 0 0 1 0 0)"><image x="0" y="0" xlink:href="img_39.png" width="666" height="160" /></g></g><path transform="matrix(1 0 0 -1 0 841)" d="M48.39533 -135.6367L48.39533 152.4844C 48.39533 153.0029 48.57846 153.4463 48.94473 153.8125C 49.311 154.1768 49.75313 154.3604 50.27112 154.3604L50.27112 154.3604L544.7289 154.3604C 545.2468 154.3604 545.6889 154.1768 546.0552 153.8125C 546.4214 153.4463 546.6046 153.0029 546.6047 152.4844L546.6047 152.4844L546.6047 -135.6367C 546.6046 -136.1543 546.4214 -136.5967 546.0552 -136.9629C 545.6889 -137.3291 545.2468 -137.5127 544.7289 -137.5127L544.7289 -137.5127L50.27112 -137.5127C 49.75313 -137.5127 49.311 -137.3291 48.94473 -136.9629C 48.57846 -136.5967 48.39533 -136.1543 48.39533 -135.6367z" stroke="none" fill="#F8F8F8" fill-rule="winding" /><path transform="matrix(1 0 0 -1 0 841)" d="M48.39533 -135.6367L48.39533 152.4844C 48.39533 153.0029 48.57846 153.4463 48.94473 153.8125C 49.311 154.1768 49.75313 154.3604 50.27112 154.3604L50.27112 154.3604L544.7289 154.3604C 545.2468 154.3604 545.6889 154.1768 546.0552 153.8125C 546.4214 153.4463 546.6046 153.0029 546.6047 152.4844L546.6047 152.4844L546.6047 -135.6367C 546.6046 -136.1543 546.4214 -136.5967 546.0552 -136.9629C 545.6889 -137.3291 545.2468 -137.5127 544.7289 -137.5127L544.7289 -137.5127L50.27112 -137.5127C 49.75313 -137.5127 49.311 -137.3291 48.94473 -136.9629C 48.57846 -136.5967 48.39533 -136.1543 48.39533 -135.6367z" stroke="#E7EAED" stroke-width="0.7503152" fill="none" /></g><g clip-path="url(#3)"><path transform="matrix(1 0 0 -1 0 841)" d="M48.77049 147.9824L543.2282 147.9824L543.2282 147.9824L543.2282 -132.6357L543.2282 -132.6357L48.77049 -132.6357z" stroke="none" fill="#F8F8F8" fill-rule="winding" /><path transform="matrix(1 0 0 -1 0 841)" d="M48.77049 147.9824L543.2282 147.9824L543.2282 147.9824L543.2282 -132.6357L543.2282 -132.6357L48.77049 -132.6357z" stroke="none" fill="#F8F8F8" fill-rule="winding" /><path transform="matrix(1 0 0 -1 0 841)" d="M48.77049 147.9824L75.78184 147.9824L75.78184 147.9824L75.78184 -197.1621L75.78184 -197.1621L48.77049 -197.1621z" stroke="none" fill="#F8F8F8" fill-rule="winding" /><path transform="matrix(1 0 0 -1 0 841)" d="M75.03152 147.9824L75.78184 147.9824L75.78184 147.9824L75.78184 -197.1621L75.78184 -197.1621L75.03152 -197.1621z" stroke="none" fill="#DDDDDD" fill-rule="winding" /></g><g transform="matrix(0.2399193 0 0 0.2399322 0 -14.78003)"><g transform="matrix(1 0 0 1 0 0)"><image x="0" y="0" xlink:href="img_02.png" width="2480" height="295" /></g></g><g transform="matrix(0.4798387 0 0 0.4798876 0 798.29)"><g transform="matrix(1 0 0 1 0 0)"><image x="0" y="0" xlink:href="img_03.png" width="1240" height="89" /></g></g></g></g></g></svg>