<svg xmlns="http://www.w3.org/2000/svg" xmlns:xlink="http://www.w3.org/1999/xlink" id="body_49" preserveAspectRatio="xMinYMin meet" viewBox="0 0 793 1121"><defs><clipPath id="1"><path d="M0 841L0 0L0 0L595 0L595 0L595 841L595 841L0 841z" /></clipPath><clipPath id="2"><path d="M0 56L595 56L595 56L595 784.5586L595 784.5586L0 784.5586z" /></clipPath><clipPath id="3"><path d="M48.77049 56L543.2282 56L543.2282 56L543.2282 164.0469L543.2282 164.0469L48.77049 164.0469z" /></clipPath><clipPath id="4"><path d="M0 56L595 56L595 56L595 784.5586L595 784.5586L0 784.5586z" /></clipPath><clipPath id="5"><path d="M48.77049 371.8828L543.2282 371.8828L543.2282 371.8828L543.2282 750.043L543.2282 750.043L48.77049 750.043z" /></clipPath><clipPath id="6"><path d="M0 56L595 56L595 56L595 784.5586L595 784.5586L0 784.5586z" /></clipPath><clipPath id="7"><path d="M48.77049 56L543.2282 56L543.2282 56L543.2282 164.0469L543.2282 164.0469L48.77049 164.0469z" /></clipPath><clipPath id="8"><path d="M48.77049 371.8828L543.2282 371.8828L543.2282 371.8828L543.2282 750.043L543.2282 750.043L48.77049 750.043z" /></clipPath></defs><g transform="matrix(1.333333 0 0 1.333333 0 0)"><g><g clip-path="url(#1)"><g clip-path="url(#2)"><path transform="matrix(1 0 0 -1 0 841)" d="M0 35755.69L595 35755.69L595 35755.69L595 -22221.92L595 -22221.92L0 -22221.92z" stroke="none" fill="#FFFFFF" fill-rule="winding" /><path transform="matrix(1 0 0 -1 0 841)" d="M48.39533 673.9531L48.39533 1209.676C 48.39533 1210.195 48.57846 1210.637 48.94473 1211.004C 49.311 1211.371 49.75313 1211.551 50.27112 1211.551L50.27112 1211.551L544.7289 1211.551C 545.2468 1211.551 545.6889 1211.371 546.0552 1211.004C 546.4214 1210.637 546.6046 1210.195 546.6047 1209.676L546.6047 1209.676L546.6047 673.9531C 546.6046 673.4375 546.4214 672.9961 546.0552 672.6289C 545.6889 672.2617 545.2468 672.0781 544.7289 672.0742L544.7289 672.0742L50.27112 672.0742C 49.75313 672.0781 49.311 672.2617 48.94473 672.6289C 48.57846 672.9961 48.39533 673.4375 48.39533 673.9531z" stroke="none" fill="#F8F8F8" fill-rule="winding" /><path transform="matrix(1 0 0 -1 0 841)" d="M48.39533 673.9531L48.39533 1209.676C 48.39533 1210.195 48.57846 1210.637 48.94473 1211.004C 49.311 1211.371 49.75313 1211.551 50.27112 1211.551L50.27112 1211.551L544.7289 1211.551C 545.2468 1211.551 545.6889 1211.371 546.0552 1211.004C 546.4214 1210.637 546.6046 1210.195 546.6047 1209.676L546.6047 1209.676L546.6047 673.9531C 546.6046 673.4375 546.4214 672.9961 546.0552 672.6289C 545.6889 672.2617 545.2468 672.0781 544.7289 672.0742L544.7289 672.0742L50.27112 672.0742C 49.75313 672.0781 49.311 672.2617 48.94473 672.6289C 48.57846 672.9961 48.39533 673.4375 48.39533 673.9531z" stroke="#E7EAED" stroke-width="0.7503152" fill="none" /></g><g clip-path="url(#3)"><path transform="matrix(1 0 0 -1 0 841)" d="M48.77049 1205.176L543.2282 1205.176L543.2282 1205.176L543.2282 676.9531L543.2282 676.9531L48.77049 676.9531z" stroke="none" fill="#F8F8F8" fill-rule="winding" /></g><g clip-path="url(#4)"><path transform="matrix(1 0 0 -1 0 841)" d="M48.02018 610.1758L546.9798 610.1758L546.9798 610.1758L546.9798 609.4258L546.9798 609.4258L48.02018 609.4258z" stroke="none" fill="#EEEEEE" fill-rule="winding" /><path transform="matrix(1 0 0 -1 0 841)" d="M62.27617 569.2813C 62.27617 568.7656 62.09303 568.3281 61.72676 567.9609C 61.36049 567.5938 60.91836 567.4102 60.40038 567.4063C 59.88239 567.4102 59.44026 567.5938 59.07399 567.9609C 58.70772 568.3281 58.52458 568.7656 58.52459 569.2813C 58.52458 569.8008 58.70772 570.2422 59.07399 570.6094C 59.44026 570.9766 59.88239 571.1602 60.40038 571.1602C 60.91836 571.1602 61.36049 570.9766 61.72676 570.6094C 62.09303 570.2422 62.27617 569.8008 62.27617 569.2813z" stroke="none" fill="#333333" fill-rule="winding" /><path transform="matrix(1 0 0 -1 0 841)" d="M62.27617 539.2695C 62.27617 538.7578 62.09303 538.3164 61.72676 537.9492C 61.36049 537.582 60.91836 537.3984 60.40038 537.3945C 59.88239 537.3984 59.44026 537.582 59.07399 537.9492C 58.70772 538.3164 58.52458 538.7578 58.52459 539.2695C 58.52458 539.7891 58.70772 540.2344 59.07399 540.6016C 59.44026 540.9648 59.88239 541.1445 60.40038 541.1445C 60.91836 541.1445 61.36049 540.9648 61.72676 540.6016C 62.09303 540.2344 62.27617 539.7891 62.27617 539.2695z" stroke="none" fill="#333333" fill-rule="winding" /><path transform="matrix(1 0 0 -1 0 841)" d="M48.39533 87.95703L48.39533 473.6172C 48.39533 474.1367 48.57846 474.5781 48.94473 474.9453C 49.311 475.3125 49.75313 475.4922 50.27112 475.4922L50.27112 475.4922L544.7289 475.4922C 545.2468 475.4922 545.6889 475.3125 546.0552 474.9453C 546.4214 474.5781 546.6046 474.1367 546.6047 473.6172L546.6047 473.6172L546.6047 87.95703C 546.6046 87.44141 546.4214 87 546.0552 86.63281C 545.6889 86.26563 545.2468 86.08203 544.7289 86.07813L544.7289 86.07813L50.27112 86.07813C 49.75313 86.08203 49.311 86.26563 48.94473 86.63281C 48.57846 87 48.39533 87.44141 48.39533 87.95703z" stroke="none" fill="#F8F8F8" fill-rule="winding" /><path transform="matrix(1 0 0 -1 0 841)" d="M48.39533 87.95703L48.39533 473.6172C 48.39533 474.1367 48.57846 474.5781 48.94473 474.9453C 49.311 475.3125 49.75313 475.4922 50.27112 475.4922L50.27112 475.4922L544.7289 475.4922C 545.2468 475.4922 545.6889 475.3125 546.0552 474.9453C 546.4214 474.5781 546.6046 474.1367 546.6047 473.6172L546.6047 473.6172L546.6047 87.95703C 546.6046 87.44141 546.4214 87 546.0552 86.63281C 545.6889 86.26563 545.2468 86.08203 544.7289 86.07813L544.7289 86.07813L50.27112 86.07813C 49.75313 86.08203 49.311 86.26563 48.94473 86.63281C 48.57846 87 48.39533 87.44141 48.39533 87.95703z" stroke="#E7EAED" stroke-width="0.7503152" fill="none" /></g><g clip-path="url(#5)"><path transform="matrix(1 0 0 -1 0 841)" d="M48.77049 469.1172L543.2282 469.1172L543.2282 469.1172L543.2282 90.95703L543.2282 90.95703L48.77049 90.95703z" stroke="none" fill="#F8F8F8" fill-rule="winding" /></g><g clip-path="url(#6)"></g><g clip-path="url(#7)"><path transform="matrix(1 0 0 -1 0 841)" d="M48.77049 1205.176L543.2282 1205.176L543.2282 1205.176L543.2282 676.9531L543.2282 676.9531L48.77049 676.9531z" stroke="none" fill="#F8F8F8" fill-rule="winding" /><path transform="matrix(1 0 0 -1 0 841)" d="M48.77049 1205.176L75.78184 1205.176L75.78184 1205.176L75.78184 532.1406L75.78184 532.1406L48.77049 532.1406z" stroke="none" fill="#F8F8F8" fill-rule="winding" /><path transform="matrix(1 0 0 -1 0 841)" d="M75.03152 1205.176L75.78184 1205.176L75.78184 1205.176L75.78184 532.1406L75.78184 532.1406L75.03152 532.1406z" stroke="none" fill="#DDDDDD" fill-rule="winding" /></g><g clip-path="url(#8)"><path transform="matrix(1 0 0 -1 0 841)" d="M48.77049 469.1172L543.2282 469.1172L543.2282 469.1172L543.2282 90.95703L543.2282 90.95703L48.77049 90.95703z" stroke="none" fill="#F8F8F8" fill-rule="winding" /><path transform="matrix(1 0 0 -1 0 841)" d="M48.77049 469.1172L75.78184 469.1172L75.78184 469.1172L75.78184 -14.08594L75.78184 -14.08594L48.77049 -14.08594z" stroke="none" fill="#F8F8F8" fill-rule="winding" /><path transform="matrix(1 0 0 -1 0 841)" d="M75.03152 469.1172L75.78184 469.1172L75.78184 469.1172L75.78184 -14.08594L75.78184 -14.08594L75.03152 -14.08594z" stroke="none" fill="#DDDDDD" fill-rule="winding" /></g><g transform="matrix(0.2399193 0 0 0.2399322 0 -14.78003)"><g transform="matrix(1 0 0 1 0 0)"><image x="0" y="0" xlink:href="img_02.png" width="2480" height="295" /></g></g><g transform="matrix(0.4798387 0 0 0.4798876 0 798.29)"><g transform="matrix(1 0 0 1 0 0)"><image x="0" y="0" xlink:href="img_03.png" width="1240" height="89" /></g></g></g></g></g></svg>