<svg xmlns="http://www.w3.org/2000/svg" xmlns:xlink="http://www.w3.org/1999/xlink" id="body_59" preserveAspectRatio="xMinYMin meet" viewBox="0 0 793 1121"><defs><clipPath id="1"><path d="M0 841L0 0L0 0L595 0L595 0L595 841L595 841L0 841z" /></clipPath><clipPath id="2"><path d="M0 56L595 56L595 56L595 784.5547L595 784.5547L0 784.5547z" /></clipPath><clipPath id="3"><path d="M48.77049 609.7344L543.2282 609.7344L543.2282 609.7344L543.2282 784.5547L543.2282 784.5547L48.77049 784.5547z" /></clipPath></defs><g transform="matrix(1.333333 0 0 1.333333 0 0)"><g><g clip-path="url(#1)"><g clip-path="url(#2)"><path transform="matrix(1 0 0 -1 0 841)" d="M0 43041.25L595 43041.25L595 43041.25L595 -14936.36L595 -14936.36L0 -14936.36z" stroke="none" fill="#FFFFFF" fill-rule="winding" /><path transform="matrix(1 0 0 -1 0 841)" d="M48.02018 264.2813L51.02144 264.2813L51.02144 264.2813L51.02144 249.2734L51.02144 249.2734L48.02018 249.2734z" stroke="none" fill="#DFE2E5" fill-rule="winding" /><g transform="matrix(0.7348448 0 0 0.7346586 48.02018 56)"><g transform="matrix(1 0 0 1 0 0)"><image x="0" y="0" xlink:href="img_108.png" width="679" height="623" /></g></g><path transform="matrix(1 0 0 -1 0 841)" d="M48.39533 -297.707L48.39533 235.7695C 48.39533 236.2891 48.57846 236.7344 48.94473 237.0977C 49.311 237.4648 49.75313 237.6445 50.27112 237.6445L50.27112 237.6445L544.7289 237.6445C 545.2468 237.6445 545.6889 237.4648 546.0552 237.0977C 546.4214 236.7344 546.6046 236.2891 546.6047 235.7695L546.6047 235.7695L546.6047 -297.707C 546.6046 -298.2227 546.4214 -298.6602 546.0552 -299.0273C 545.6889 -299.3945 545.2468 -299.5781 544.7289 -299.582L544.7289 -299.582L50.27112 -299.582C 49.75313 -299.5781 49.311 -299.3945 48.94473 -299.0273C 48.57846 -298.6602 48.39533 -298.2227 48.39533 -297.707z" stroke="none" fill="#F8F8F8" fill-rule="winding" /><path transform="matrix(1 0 0 -1 0 841)" d="M48.39533 -297.707L48.39533 235.7695C 48.39533 236.2891 48.57846 236.7344 48.94473 237.0977C 49.311 237.4648 49.75313 237.6445 50.27112 237.6445L50.27112 237.6445L544.7289 237.6445C 545.2468 237.6445 545.6889 237.4648 546.0552 237.0977C 546.4214 236.7344 546.6046 236.2891 546.6047 235.7695L546.6047 235.7695L546.6047 -297.707C 546.6046 -298.2227 546.4214 -298.6602 546.0552 -299.0273C 545.6889 -299.3945 545.2468 -299.5781 544.7289 -299.582L544.7289 -299.582L50.27112 -299.582C 49.75313 -299.5781 49.311 -299.3945 48.94473 -299.0273C 48.57846 -298.6602 48.39533 -298.2227 48.39533 -297.707z" stroke="#E7EAED" stroke-width="0.7503152" fill="none" /></g><g clip-path="url(#3)"><path transform="matrix(1 0 0 -1 0 841)" d="M48.77049 231.2656L543.2282 231.2656L543.2282 231.2656L543.2282 -294.7031L543.2282 -294.7031L48.77049 -294.7031z" stroke="none" fill="#F8F8F8" fill-rule="winding" /><path transform="matrix(1 0 0 -1 0 841)" d="M48.77049 231.2656L543.2282 231.2656L543.2282 231.2656L543.2282 -294.7031L543.2282 -294.7031L48.77049 -294.7031z" stroke="none" fill="#F8F8F8" fill-rule="winding" /><path transform="matrix(1 0 0 -1 0 841)" d="M48.77049 231.2656L75.78184 231.2656L75.78184 231.2656L75.78184 -424.5078L75.78184 -424.5078L48.77049 -424.5078z" stroke="none" fill="#F8F8F8" fill-rule="winding" /><path transform="matrix(1 0 0 -1 0 841)" d="M75.03152 231.2656L75.78184 231.2656L75.78184 231.2656L75.78184 -424.5078L75.78184 -424.5078L75.03152 -424.5078z" stroke="none" fill="#DDDDDD" fill-rule="winding" /></g><g transform="matrix(0.2399193 0 0 0.2399322 0 -14.78003)"><g transform="matrix(1 0 0 1 0 0)"><image x="0" y="0" xlink:href="img_02.png" width="2480" height="295" /></g></g><g transform="matrix(0.4798387 0 0 0.4798876 0 798.29)"><g transform="matrix(1 0 0 1 0 0)"><image x="0" y="0" xlink:href="img_03.png" width="1240" height="89" /></g></g></g></g></g></svg>