<svg xmlns="http://www.w3.org/2000/svg" xmlns:xlink="http://www.w3.org/1999/xlink" id="body_77" preserveAspectRatio="xMinYMin meet" viewBox="0 0 793 1121"><defs><clipPath id="1"><path d="M0 841L0 0L0 0L595 0L595 0L595 841L595 841L0 841z" /></clipPath><clipPath id="2"><path d="M0 56L595 56L595 56L595 784.5547L595 784.5547L0 784.5547z" /></clipPath><clipPath id="3"><path d="M48.77049 56L543.2282 56L543.2282 56L543.2282 784.5547L543.2282 784.5547L48.77049 784.5547z" /></clipPath></defs><g transform="matrix(1.333333 0 0 1.333333 0 0)"><g><g clip-path="url(#1)"><g clip-path="url(#2)"><path transform="matrix(1 0 0 -1 0 841)" d="M0 56155.27L595 56155.27L595 56155.27L595 -1822.344L595 -1822.344L0 -1822.344z" stroke="none" fill="#FFFFFF" fill-rule="winding" /><path transform="matrix(1 0 0 -1 0 841)" d="M48.39533 -1808.84L48.39533 1199.176C 48.39533 1199.695 48.57846 1200.137 48.94473 1200.508C 49.311 1200.871 49.75313 1201.051 50.27112 1201.051L50.27112 1201.051L544.7289 1201.051C 545.2468 1201.051 545.6889 1200.871 546.0552 1200.508C 546.4214 1200.137 546.6046 1199.695 546.6047 1199.176L546.6047 1199.176L546.6047 -1808.84C 546.6046 -1809.355 546.4214 -1809.793 546.0552 -1810.164C 545.6889 -1810.531 545.2468 -1810.715 544.7289 -1810.715L544.7289 -1810.715L50.27112 -1810.715C 49.75313 -1810.715 49.311 -1810.531 48.94473 -1810.164C 48.57846 -1809.793 48.39533 -1809.355 48.39533 -1808.84z" stroke="none" fill="#F8F8F8" fill-rule="winding" /><path transform="matrix(1 0 0 -1 0 841)" d="M48.39533 -1808.84L48.39533 1199.176C 48.39533 1199.695 48.57846 1200.137 48.94473 1200.508C 49.311 1200.871 49.75313 1201.051 50.27112 1201.051L50.27112 1201.051L544.7289 1201.051C 545.2468 1201.051 545.6889 1200.871 546.0552 1200.508C 546.4214 1200.137 546.6046 1199.695 546.6047 1199.176L546.6047 1199.176L546.6047 -1808.84C 546.6046 -1809.355 546.4214 -1809.793 546.0552 -1810.164C 545.6889 -1810.531 545.2468 -1810.715 544.7289 -1810.715L544.7289 -1810.715L50.27112 -1810.715C 49.75313 -1810.715 49.311 -1810.531 48.94473 -1810.164C 48.57846 -1809.793 48.39533 -1809.355 48.39533 -1808.84z" stroke="#E7EAED" stroke-width="0.7503152" fill="none" /></g><g clip-path="url(#3)"><path transform="matrix(1 0 0 -1 0 841)" d="M48.77049 1194.672L543.2282 1194.672L543.2282 1194.672L543.2282 -1805.836L543.2282 -1805.836L48.77049 -1805.836z" stroke="none" fill="#F8F8F8" fill-rule="winding" /><path transform="matrix(1 0 0 -1 0 841)" d="M48.77049 1194.672L543.2282 1194.672L543.2282 1194.672L543.2282 -1805.836L543.2282 -1805.836L48.77049 -1805.836z" stroke="none" fill="#F8F8F8" fill-rule="winding" /><path transform="matrix(1 0 0 -1 0 841)" d="M48.77049 1194.672L82.53468 1194.672L82.53468 1194.672L82.53468 -2584.664L82.53468 -2584.664L48.77049 -2584.664z" stroke="none" fill="#F8F8F8" fill-rule="winding" /><path transform="matrix(1 0 0 -1 0 841)" d="M81.78436 1194.672L82.53468 1194.672L82.53468 1194.672L82.53468 -2584.664L82.53468 -2584.664L81.78436 -2584.664z" stroke="none" fill="#DDDDDD" fill-rule="winding" /></g><g transform="matrix(0.2399193 0 0 0.2399322 0 -14.78003)"><g transform="matrix(1 0 0 1 0 0)"><image x="0" y="0" xlink:href="img_02.png" width="2480" height="295" /></g></g><g transform="matrix(0.4798387 0 0 0.4798876 0 798.29)"><g transform="matrix(1 0 0 1 0 0)"><image x="0" y="0" xlink:href="img_03.png" width="1240" height="89" /></g></g></g></g></g></svg>