<svg xmlns="http://www.w3.org/2000/svg" xmlns:xlink="http://www.w3.org/1999/xlink" id="body_65" preserveAspectRatio="xMinYMin meet" viewBox="0 0 793 1121"><defs><clipPath id="1"><path d="M0 841L0 0L0 0L595 0L595 0L595 841L595 841L0 841z" /></clipPath><clipPath id="2"><path d="M0 56L595 56L595 56L595 784.5586L595 784.5586L0 784.5586z" /></clipPath><clipPath id="3"><path d="M48.77049 56L543.2282 56L543.2282 56L543.2282 272.0898L543.2282 272.0898L48.77049 272.0898z" /></clipPath><clipPath id="4"><path d="M0 56L595 56L595 56L595 784.5586L595 784.5586L0 784.5586z" /></clipPath><clipPath id="5"><path d="M48.77049 56L543.2282 56L543.2282 56L543.2282 272.0898L543.2282 272.0898L48.77049 272.0898z" /></clipPath></defs><g transform="matrix(1.333333 0 0 1.333333 0 0)"><g><g clip-path="url(#1)"><g clip-path="url(#2)"><path transform="matrix(1 0 0 -1 0 841)" d="M0 47412.59L595 47412.59L595 47412.59L595 -10565.02L595 -10565.02L0 -10565.02z" stroke="none" fill="#FFFFFF" fill-rule="winding" /><path transform="matrix(1 0 0 -1 0 841)" d="M48.02018 525.3906L148.5624 525.3906L148.5624 525.3906L148.5624 500.6289L148.5624 500.6289L48.02018 500.6289z" stroke="none" fill="#F8F8F8" fill-rule="winding" /><path transform="matrix(1 0 0 -1 0 841)" d="M148.5624 525.3906L546.2295 525.3906L546.2295 525.3906L546.2295 500.6289L546.2295 500.6289L148.5624 500.6289z" stroke="none" fill="#F8F8F8" fill-rule="winding" /><path transform="matrix(1 0 0 -1 0 841)" d="M48.02018 475.1172L148.5624 475.1172L148.5624 475.1172L148.5624 449.6094L148.5624 449.6094L48.02018 449.6094z" stroke="none" fill="#F8F8F8" fill-rule="winding" /><path transform="matrix(1 0 0 -1 0 841)" d="M148.5624 475.1172L546.2295 475.1172L546.2295 475.1172L546.2295 449.6094L546.2295 449.6094L148.5624 449.6094z" stroke="none" fill="#F8F8F8" fill-rule="winding" /><path transform="matrix(1 0 0 -1 0 841)" d="M148.5624 424.0977L546.9798 424.0977L546.9798 424.0977L546.9798 423.3477L546.9798 423.3477L148.5624 423.3477z" stroke="none" fill="#DFE2E5" fill-rule="winding" /><path transform="matrix(1 0 0 -1 0 841)" d="M546.2295 449.6094L546.9798 449.6094L546.9798 449.6094L546.9798 423.3477L546.9798 423.3477L546.2295 423.3477z" stroke="none" fill="#DFE2E5" fill-rule="winding" /><path transform="matrix(1 0 0 -1 0 841)" d="M48.02018 424.0977L149.3127 424.0977L149.3127 424.0977L149.3127 423.3477L149.3127 423.3477L48.02018 423.3477z" stroke="none" fill="#DFE2E5" fill-rule="winding" /><path transform="matrix(1 0 0 -1 0 841)" d="M48.02018 449.6094L48.77049 449.6094L48.77049 449.6094L48.77049 423.3477L48.77049 423.3477L48.02018 423.3477z" stroke="none" fill="#DFE2E5" fill-rule="winding" /><path transform="matrix(1 0 0 -1 0 841)" d="M148.5624 449.6094L149.3127 449.6094L149.3127 449.6094L149.3127 423.3477L149.3127 423.3477L148.5624 423.3477z" stroke="none" fill="#DFE2E5" fill-rule="winding" /><path transform="matrix(1 0 0 -1 0 841)" d="M148.5624 449.6094L546.9798 449.6094L546.9798 449.6094L546.9798 448.8594L546.9798 448.8594L148.5624 448.8594z" stroke="none" fill="#DFE2E5" fill-rule="winding" /><path transform="matrix(1 0 0 -1 0 841)" d="M546.2295 475.1172L546.9798 475.1172L546.9798 475.1172L546.9798 448.8594L546.9798 448.8594L546.2295 448.8594z" stroke="none" fill="#DFE2E5" fill-rule="winding" /><path transform="matrix(1 0 0 -1 0 841)" d="M48.02018 449.6094L149.3127 449.6094L149.3127 449.6094L149.3127 448.8594L149.3127 448.8594L48.02018 448.8594z" stroke="none" fill="#DFE2E5" fill-rule="winding" /><path transform="matrix(1 0 0 -1 0 841)" d="M48.02018 475.1172L48.77049 475.1172L48.77049 475.1172L48.77049 448.8594L48.77049 448.8594L48.02018 448.8594z" stroke="none" fill="#DFE2E5" fill-rule="winding" /><path transform="matrix(1 0 0 -1 0 841)" d="M148.5624 475.1172L149.3127 475.1172L149.3127 475.1172L149.3127 448.8594L149.3127 448.8594L148.5624 448.8594z" stroke="none" fill="#DFE2E5" fill-rule="winding" /><path transform="matrix(1 0 0 -1 0 841)" d="M148.5624 475.1172L546.9798 475.1172L546.9798 475.1172L546.9798 474.3672L546.9798 474.3672L148.5624 474.3672z" stroke="none" fill="#DFE2E5" fill-rule="winding" /><path transform="matrix(1 0 0 -1 0 841)" d="M546.2295 500.6289L546.9798 500.6289L546.9798 500.6289L546.9798 474.3672L546.9798 474.3672L546.2295 474.3672z" stroke="none" fill="#DFE2E5" fill-rule="winding" /><path transform="matrix(1 0 0 -1 0 841)" d="M48.02018 475.1172L149.3127 475.1172L149.3127 475.1172L149.3127 474.3672L149.3127 474.3672L48.02018 474.3672z" stroke="none" fill="#DFE2E5" fill-rule="winding" /><path transform="matrix(1 0 0 -1 0 841)" d="M48.02018 500.6289L48.77049 500.6289L48.77049 500.6289L48.77049 474.3672L48.77049 474.3672L48.02018 474.3672z" stroke="none" fill="#DFE2E5" fill-rule="winding" /><path transform="matrix(1 0 0 -1 0 841)" d="M148.5624 500.6289L149.3127 500.6289L149.3127 500.6289L149.3127 474.3672L149.3127 474.3672L148.5624 474.3672z" stroke="none" fill="#DFE2E5" fill-rule="winding" /><path transform="matrix(1 0 0 -1 0 841)" d="M148.5624 525.3906L546.9798 525.3906L546.9798 525.3906L546.9798 524.6406L546.9798 524.6406L148.5624 524.6406z" stroke="none" fill="#DFE2E5" fill-rule="winding" /><path transform="matrix(1 0 0 -1 0 841)" d="M148.5624 500.6289L546.9798 500.6289L546.9798 500.6289L546.9798 499.8789L546.9798 499.8789L148.5624 499.8789z" stroke="none" fill="#DFE2E5" fill-rule="winding" /><path transform="matrix(1 0 0 -1 0 841)" d="M546.2295 525.3906L546.9798 525.3906L546.9798 525.3906L546.9798 499.8789L546.9798 499.8789L546.2295 499.8789z" stroke="none" fill="#DFE2E5" fill-rule="winding" /><path transform="matrix(1 0 0 -1 0 841)" d="M48.02018 525.3906L149.3127 525.3906L149.3127 525.3906L149.3127 524.6406L149.3127 524.6406L48.02018 524.6406z" stroke="none" fill="#DFE2E5" fill-rule="winding" /><path transform="matrix(1 0 0 -1 0 841)" d="M48.02018 500.6289L149.3127 500.6289L149.3127 500.6289L149.3127 499.8789L149.3127 499.8789L48.02018 499.8789z" stroke="none" fill="#DFE2E5" fill-rule="winding" /><path transform="matrix(1 0 0 -1 0 841)" d="M48.02018 525.3906L48.77049 525.3906L48.77049 525.3906L48.77049 499.8789L48.77049 499.8789L48.02018 499.8789z" stroke="none" fill="#DFE2E5" fill-rule="winding" /><path transform="matrix(1 0 0 -1 0 841)" d="M148.5624 525.3906L149.3127 525.3906L149.3127 525.3906L149.3127 499.8789L149.3127 499.8789L148.5624 499.8789z" stroke="none" fill="#DFE2E5" fill-rule="winding" /><path transform="matrix(1 0 0 -1 0 841)" d="M58.52459 484.1211L58.52459 489.375C 58.52458 490 58.74435 490.5313 59.18388 490.9688C 59.6234 491.4063 60.15395 491.625 60.77554 491.625L60.77554 491.625L87.03657 491.625C 87.65815 491.625 88.1887 491.4063 88.62823 490.9688C 89.06775 490.5313 89.28751 490 89.28751 489.375L89.28751 489.375L89.28751 484.1211C 89.28751 483.5039 89.06775 482.9766 88.62823 482.5352C 88.1887 482.0977 87.65815 481.875 87.03657 481.875L87.03657 481.875L60.77554 481.875C 60.15395 481.875 59.6234 482.0977 59.18388 482.5352C 58.74435 482.9766 58.52458 483.5039 58.52459 484.1211z" stroke="none" fill="#F3F4F4" fill-rule="winding" /><path transform="matrix(1 0 0 -1 0 841)" d="M58.89975 484.1211L58.89975 489.375C 58.89974 489.8945 59.08288 490.3398 59.44915 490.707C 59.81541 491.0703 60.25755 491.25 60.77554 491.25L60.77554 491.25L87.03657 491.25C 87.55454 491.25 87.99667 491.0703 88.36294 490.707C 88.72921 490.3398 88.91235 489.8945 88.91235 489.375L88.91235 489.375L88.91235 484.1211C 88.91235 483.6055 88.72921 483.1641 88.36294 482.7969C 87.99667 482.4297 87.55454 482.2461 87.03657 482.2461L87.03657 482.2461L60.77554 482.2461C 60.25755 482.2461 59.81541 482.4297 59.44915 482.7969C 59.08288 483.1641 58.89974 483.6055 58.89975 484.1211z" stroke="#E7EAED" stroke-width="0.7503152" fill="none" /><path transform="matrix(1 0 0 -1 0 841)" d="M58.52459 458.6133L58.52459 463.8633C 58.52458 464.4844 58.74435 465.0156 59.18388 465.457C 59.6234 465.8945 60.15395 466.1133 60.77554 466.1133L60.77554 466.1133L92.28877 466.1133C 92.91035 466.1133 93.44091 465.8945 93.88043 465.457C 94.31995 465.0156 94.53972 464.4844 94.53972 463.8633L94.53972 463.8633L94.53972 458.6133C 94.53972 457.9922 94.31995 457.4648 93.88043 457.0234C 93.44091 456.582 92.91035 456.3633 92.28877 456.3594L92.28877 456.3594L60.77554 456.3594C 60.15395 456.3633 59.6234 456.582 59.18388 457.0234C 58.74435 457.4648 58.52458 457.9922 58.52459 458.6133z" stroke="none" fill="#F3F4F4" fill-rule="winding" /><path transform="matrix(1 0 0 -1 0 841)" d="M58.89975 458.6133L58.89975 463.8633C 58.89974 464.3867 59.08288 464.8281 59.44915 465.1953C 59.81541 465.5586 60.25755 465.7383 60.77554 465.7383L60.77554 465.7383L92.28877 465.7383C 92.80676 465.7383 93.24888 465.5586 93.61515 465.1953C 93.98142 464.8281 94.16456 464.3867 94.16456 463.8633L94.16456 463.8633L94.16456 458.6133C 94.16456 458.0977 93.98142 457.6563 93.61515 457.2891C 93.24888 456.9219 92.80676 456.7383 92.28877 456.7344L92.28877 456.7344L60.77554 456.7344C 60.25755 456.7383 59.81541 456.9219 59.44915 457.2891C 59.08288 457.6563 58.89974 458.0977 58.89975 458.6133z" stroke="#E7EAED" stroke-width="0.7503152" fill="none" /><path transform="matrix(1 0 0 -1 0 841)" d="M58.52459 433.1016L58.52459 438.3516C 58.52458 438.9766 58.74435 439.5117 59.18388 439.9492C 59.6234 440.3867 60.15395 440.6055 60.77554 440.6055L60.77554 440.6055L76.53216 440.6055C 77.15373 440.6055 77.68429 440.3867 78.12381 439.9492C 78.56333 439.5117 78.7831 438.9766 78.7831 438.3516L78.7831 438.3516L78.7831 433.1016C 78.7831 432.4805 78.56333 431.9492 78.12381 431.5078C 77.68429 431.0703 77.15373 430.8516 76.53216 430.8516L76.53216 430.8516L60.77554 430.8516C 60.15395 430.8516 59.6234 431.0703 59.18388 431.5078C 58.74435 431.9492 58.52458 432.4805 58.52459 433.1016z" stroke="none" fill="#F3F4F4" fill-rule="winding" /><path transform="matrix(1 0 0 -1 0 841)" d="M58.89975 433.1016L58.89975 438.3516C 58.89974 438.8711 59.08288 439.3164 59.44915 439.6836C 59.81541 440.0469 60.25755 440.2305 60.77554 440.2305L60.77554 440.2305L76.53216 440.2305C 77.05013 440.2305 77.49226 440.0469 77.85854 439.6836C 78.2248 439.3164 78.40794 438.8711 78.40794 438.3516L78.40794 438.3516L78.40794 433.1016C 78.40794 432.5859 78.2248 432.1445 77.85854 431.7813C 77.49226 431.4141 77.05013 431.2266 76.53216 431.2266L76.53216 431.2266L60.77554 431.2266C 60.25755 431.2266 59.81541 431.4141 59.44915 431.7813C 59.08288 432.1445 58.89974 432.5859 58.89975 433.1016z" stroke="#E7EAED" stroke-width="0.7503152" fill="none" /><path transform="matrix(1 0 0 -1 0 841)" d="M48.39533 565.9063L48.39533 811.2617C 48.39533 811.7813 48.57846 812.2227 48.94473 812.5898C 49.311 812.9531 49.75313 813.1367 50.27112 813.1367L50.27112 813.1367L544.7289 813.1367C 545.2468 813.1367 545.6889 812.9531 546.0552 812.5898C 546.4214 812.2227 546.6046 811.7813 546.6047 811.2617L546.6047 811.2617L546.6047 565.9063C 546.6046 565.3906 546.4214 564.9492 546.0552 564.582C 545.6889 564.2148 545.2468 564.0352 544.7289 564.0313L544.7289 564.0313L50.27112 564.0313C 49.75313 564.0352 49.311 564.2148 48.94473 564.582C 48.57846 564.9492 48.39533 565.3906 48.39533 565.9063z" stroke="none" fill="#F8F8F8" fill-rule="winding" /><path transform="matrix(1 0 0 -1 0 841)" d="M48.39533 565.9063L48.39533 811.2617C 48.39533 811.7813 48.57846 812.2227 48.94473 812.5898C 49.311 812.9531 49.75313 813.1367 50.27112 813.1367L50.27112 813.1367L544.7289 813.1367C 545.2468 813.1367 545.6889 812.9531 546.0552 812.5898C 546.4214 812.2227 546.6046 811.7813 546.6047 811.2617L546.6047 811.2617L546.6047 565.9063C 546.6046 565.3906 546.4214 564.9492 546.0552 564.582C 545.6889 564.2148 545.2468 564.0352 544.7289 564.0313L544.7289 564.0313L50.27112 564.0313C 49.75313 564.0352 49.311 564.2148 48.94473 564.582C 48.57846 564.9492 48.39533 565.3906 48.39533 565.9063z" stroke="#E7EAED" stroke-width="0.7503152" fill="none" /></g><g clip-path="url(#3)"><path transform="matrix(1 0 0 -1 0 841)" d="M48.77049 806.7578L543.2282 806.7578L543.2282 806.7578L543.2282 568.9102L543.2282 568.9102L48.77049 568.9102z" stroke="none" fill="#F8F8F8" fill-rule="winding" /></g><g clip-path="url(#4)"><path transform="matrix(1 0 0 -1 0 841)" d="M62.27617 335.9336C 62.27617 335.418 62.09303 334.9805 61.72676 334.6133C 61.36049 334.2461 60.91836 334.0625 60.40038 334.0625C 59.88239 334.0625 59.44026 334.2461 59.07399 334.6133C 58.70772 334.9805 58.52458 335.418 58.52459 335.9336C 58.52458 336.457 58.70772 336.8984 59.07399 337.2656C 59.44026 337.6289 59.88239 337.8125 60.40038 337.8125C 60.91836 337.8125 61.36049 337.6289 61.72676 337.2656C 62.09303 336.8984 62.27617 336.457 62.27617 335.9336z" stroke="none" fill="#333333" fill-rule="winding" /><path transform="matrix(1 0 0 -1 0 841)" d="M62.27617 320.9297C 62.27617 320.4141 62.09303 319.9727 61.72676 319.6055C 61.36049 319.2422 60.91836 319.0547 60.40038 319.0547C 59.88239 319.0547 59.44026 319.2422 59.07399 319.6055C 58.70772 319.9727 58.52458 320.4141 58.52459 320.9297C 58.52458 321.4492 58.70772 321.8945 59.07399 322.2578C 59.44026 322.625 59.88239 322.8047 60.40038 322.8047C 60.91836 322.8047 61.36049 322.625 61.72676 322.2578C 62.09303 321.8945 62.27617 321.4492 62.27617 320.9297z" stroke="none" fill="#333333" fill-rule="winding" /><path transform="matrix(1 0 0 -1 0 841)" d="M62.27617 290.918C 62.27617 290.4023 62.09303 289.957 61.72676 289.5898C 61.36049 289.2266 60.91836 289.043 60.40038 289.043C 59.88239 289.043 59.44026 289.2266 59.07399 289.5898C 58.70772 289.957 58.52458 290.4023 58.52459 290.918C 58.52458 291.4336 58.70772 291.8789 59.07399 292.2461C 59.44026 292.6094 59.88239 292.793 60.40038 292.793C 60.91836 292.793 61.36049 292.6094 61.72676 292.2461C 62.09303 291.8789 62.27617 291.4336 62.27617 290.918z" stroke="none" fill="#333333" fill-rule="winding" /><path transform="matrix(1 0 0 -1 0 841)" d="M62.27617 275.9102C 62.27617 275.3945 62.09303 274.9531 61.72676 274.5859C 61.36049 274.2188 60.91836 274.0391 60.40038 274.0352C 59.88239 274.0391 59.44026 274.2188 59.07399 274.5859C 58.70772 274.9531 58.52458 275.3945 58.52459 275.9102C 58.52458 276.4297 58.70772 276.875 59.07399 277.2422C 59.44026 277.6055 59.88239 277.7852 60.40038 277.7852C 60.91836 277.7852 61.36049 277.6055 61.72676 277.2422C 62.09303 276.875 62.27617 276.4297 62.27617 275.9102z" stroke="none" fill="#333333" fill-rule="winding" /><path transform="matrix(1 0 0 -1 0 841)" d="M62.27617 260.9023C 62.27617 260.3867 62.09303 259.9492 61.72676 259.582C 61.36049 259.2148 60.91836 259.0313 60.40038 259.0273C 59.88239 259.0313 59.44026 259.2148 59.07399 259.582C 58.70772 259.9492 58.52458 260.3867 58.52459 260.9023C 58.52458 261.4219 58.70772 261.8633 59.07399 262.2305C 59.44026 262.5977 59.88239 262.7813 60.40038 262.7813C 60.91836 262.7813 61.36049 262.5977 61.72676 262.2305C 62.09303 261.8633 62.27617 261.4219 62.27617 260.9023z" stroke="none" fill="#333333" fill-rule="winding" /><path transform="matrix(1 0 0 -1 0 841)" d="M62.27617 230.8906C 62.27617 230.375 62.09303 229.9375 61.72676 229.5703C 61.36049 229.2031 60.91836 229.0195 60.40038 229.0156C 59.88239 229.0195 59.44026 229.2031 59.07399 229.5703C 58.70772 229.9375 58.52458 230.375 58.52459 230.8906C 58.52458 231.4102 58.70772 231.8516 59.07399 232.2188C 59.44026 232.5859 59.88239 232.7656 60.40038 232.7656C 60.91836 232.7656 61.36049 232.5859 61.72676 232.2188C 62.09303 231.8516 62.27617 231.4102 62.27617 230.8906z" stroke="none" fill="#333333" fill-rule="winding" /></g><g clip-path="url(#5)"><path transform="matrix(1 0 0 -1 0 841)" d="M48.77049 806.7578L543.2282 806.7578L543.2282 806.7578L543.2282 568.9102L543.2282 568.9102L48.77049 568.9102z" stroke="none" fill="#F8F8F8" fill-rule="winding" /><path transform="matrix(1 0 0 -1 0 841)" d="M48.77049 806.7578L75.78184 806.7578L75.78184 806.7578L75.78184 513.3867L75.78184 513.3867L48.77049 513.3867z" stroke="none" fill="#F8F8F8" fill-rule="winding" /><path transform="matrix(1 0 0 -1 0 841)" d="M75.03152 806.7578L75.78184 806.7578L75.78184 806.7578L75.78184 513.3867L75.78184 513.3867L75.03152 513.3867z" stroke="none" fill="#DDDDDD" fill-rule="winding" /></g><g transform="matrix(0.2399193 0 0 0.2399322 0 -14.78003)"><g transform="matrix(1 0 0 1 0 0)"><image x="0" y="0" xlink:href="img_02.png" width="2480" height="295" /></g></g><g transform="matrix(0.4798387 0 0 0.4798876 0 798.29)"><g transform="matrix(1 0 0 1 0 0)"><image x="0" y="0" xlink:href="img_03.png" width="1240" height="89" /></g></g></g></g></g></svg>