<svg xmlns="http://www.w3.org/2000/svg" xmlns:xlink="http://www.w3.org/1999/xlink" id="body_76" preserveAspectRatio="xMinYMin meet" viewBox="0 0 793 1121"><defs><clipPath id="1"><path d="M0 841L0 0L0 0L595 0L595 0L595 841L595 841L0 841z" /></clipPath><clipPath id="2"><path d="M0 56L595 56L595 56L595 784.5586L595 784.5586L0 784.5586z" /></clipPath><clipPath id="3"><path d="M48.77049 56L543.2282 56L543.2282 56L543.2282 150.5391L543.2282 150.5391L48.77049 150.5391z" /></clipPath><clipPath id="4"><path d="M0 56L595 56L595 56L595 784.5586L595 784.5586L0 784.5586z" /></clipPath><clipPath id="5"><path d="M48.77049 256.3359L543.2282 256.3359L543.2282 256.3359L543.2282 323.8633L543.2282 323.8633L48.77049 323.8633z" /></clipPath><clipPath id="6"><path d="M0 56L595 56L595 56L595 784.5586L595 784.5586L0 784.5586z" /></clipPath><clipPath id="7"><path d="M48.77049 374.8867L543.2282 374.8867L543.2282 374.8867L543.2282 784.5586L543.2282 784.5586L48.77049 784.5586z" /></clipPath><clipPath id="8"><path d="M48.77049 56L543.2282 56L543.2282 56L543.2282 150.5391L543.2282 150.5391L48.77049 150.5391z" /></clipPath><clipPath id="9"><path d="M48.77049 256.3359L543.2282 256.3359L543.2282 256.3359L543.2282 323.8633L543.2282 323.8633L48.77049 323.8633z" /></clipPath><clipPath id="10"><path d="M48.77049 374.8867L543.2282 374.8867L543.2282 374.8867L543.2282 784.5586L543.2282 784.5586L48.77049 784.5586z" /></clipPath></defs><g transform="matrix(1.333333 0 0 1.333333 0 0)"><g><g clip-path="url(#1)"><g clip-path="url(#2)"><path transform="matrix(1 0 0 -1 0 841)" d="M0 55426.71L595 55426.71L595 55426.71L595 -2550.902L595 -2550.902L0 -2550.902z" stroke="none" fill="#FFFFFF" fill-rule="winding" /><path transform="matrix(1 0 0 -1 0 841)" d="M48.39533 687.457L48.39533 2047.027C 48.39533 2047.551 48.57846 2047.992 48.94473 2048.359C 49.311 2048.723 49.75313 2048.906 50.27112 2048.906L50.27112 2048.906L544.7289 2048.906C 545.2468 2048.906 545.6889 2048.723 546.0552 2048.359C 546.4214 2047.992 546.6046 2047.551 546.6047 2047.027L546.6047 2047.027L546.6047 687.457C 546.6046 686.9414 546.4214 686.5039 546.0552 686.1328C 545.6889 685.7695 545.2468 685.5898 544.7289 685.582L544.7289 685.582L50.27112 685.582C 49.75313 685.5898 49.311 685.7695 48.94473 686.1328C 48.57846 686.5039 48.39533 686.9414 48.39533 687.457z" stroke="none" fill="#F8F8F8" fill-rule="winding" /><path transform="matrix(1 0 0 -1 0 841)" d="M48.39533 687.457L48.39533 2047.027C 48.39533 2047.551 48.57846 2047.992 48.94473 2048.359C 49.311 2048.723 49.75313 2048.906 50.27112 2048.906L50.27112 2048.906L544.7289 2048.906C 545.2468 2048.906 545.6889 2048.723 546.0552 2048.359C 546.4214 2047.992 546.6046 2047.551 546.6047 2047.027L546.6047 2047.027L546.6047 687.457C 546.6046 686.9414 546.4214 686.5039 546.0552 686.1328C 545.6889 685.7695 545.2468 685.5898 544.7289 685.582L544.7289 685.582L50.27112 685.582C 49.75313 685.5898 49.311 685.7695 48.94473 686.1328C 48.57846 686.5039 48.39533 686.9414 48.39533 687.457z" stroke="#E7EAED" stroke-width="0.7503152" fill="none" /></g><g clip-path="url(#3)"><path transform="matrix(1 0 0 -1 0 841)" d="M48.77049 2042.527L543.2282 2042.527L543.2282 2042.527L543.2282 690.4609L543.2282 690.4609L48.77049 690.4609z" stroke="none" fill="#F8F8F8" fill-rule="winding" /></g><g clip-path="url(#4)"><path transform="matrix(1 0 0 -1 0 841)" d="M48.39533 514.1367L48.39533 589.168C 48.39533 589.6875 48.57846 590.1289 48.94473 590.4961C 49.311 590.8594 49.75313 591.043 50.27112 591.043L50.27112 591.043L544.7289 591.043C 545.2468 591.043 545.6889 590.8594 546.0552 590.4961C 546.4214 590.1289 546.6046 589.6875 546.6047 589.168L546.6047 589.168L546.6047 514.1367C 546.6046 513.625 546.4214 513.1875 546.0552 512.8164C 545.6889 512.4453 545.2468 512.2656 544.7289 512.2578L544.7289 512.2578L50.27112 512.2578C 49.75313 512.2656 49.311 512.4453 48.94473 512.8164C 48.57846 513.1875 48.39533 513.625 48.39533 514.1367z" stroke="none" fill="#F8F8F8" fill-rule="winding" /><path transform="matrix(1 0 0 -1 0 841)" d="M48.39533 514.1367L48.39533 589.168C 48.39533 589.6875 48.57846 590.1289 48.94473 590.4961C 49.311 590.8594 49.75313 591.043 50.27112 591.043L50.27112 591.043L544.7289 591.043C 545.2468 591.043 545.6889 590.8594 546.0552 590.4961C 546.4214 590.1289 546.6046 589.6875 546.6047 589.168L546.6047 589.168L546.6047 514.1367C 546.6046 513.625 546.4214 513.1875 546.0552 512.8164C 545.6889 512.4453 545.2468 512.2656 544.7289 512.2578L544.7289 512.2578L50.27112 512.2578C 49.75313 512.2656 49.311 512.4453 48.94473 512.8164C 48.57846 513.1875 48.39533 513.625 48.39533 514.1367z" stroke="#E7EAED" stroke-width="0.7503152" fill="none" /></g><g clip-path="url(#5)"><path transform="matrix(1 0 0 -1 0 841)" d="M48.77049 584.6641L543.2282 584.6641L543.2282 584.6641L543.2282 517.1367L543.2282 517.1367L48.77049 517.1367z" stroke="none" fill="#F8F8F8" fill-rule="winding" /></g><g clip-path="url(#6)"><path transform="matrix(1 0 0 -1 0 841)" d="M48.39533 -2537.398L48.39533 470.6172C 48.39533 471.1367 48.57846 471.5781 48.94473 471.9492C 49.311 472.3125 49.75313 472.4922 50.27112 472.4922L50.27112 472.4922L544.7289 472.4922C 545.2468 472.4922 545.6889 472.3125 546.0552 471.9492C 546.4214 471.5781 546.6046 471.1367 546.6047 470.6172L546.6047 470.6172L546.6047 -2537.398C 546.6046 -2537.914 546.4214 -2538.352 546.0552 -2538.723C 545.6889 -2539.09 545.2468 -2539.273 544.7289 -2539.273L544.7289 -2539.273L50.27112 -2539.273C 49.75313 -2539.273 49.311 -2539.09 48.94473 -2538.723C 48.57846 -2538.352 48.39533 -2537.914 48.39533 -2537.398z" stroke="none" fill="#F8F8F8" fill-rule="winding" /><path transform="matrix(1 0 0 -1 0 841)" d="M48.39533 -2537.398L48.39533 470.6172C 48.39533 471.1367 48.57846 471.5781 48.94473 471.9492C 49.311 472.3125 49.75313 472.4922 50.27112 472.4922L50.27112 472.4922L544.7289 472.4922C 545.2468 472.4922 545.6889 472.3125 546.0552 471.9492C 546.4214 471.5781 546.6046 471.1367 546.6047 470.6172L546.6047 470.6172L546.6047 -2537.398C 546.6046 -2537.914 546.4214 -2538.352 546.0552 -2538.723C 545.6889 -2539.09 545.2468 -2539.273 544.7289 -2539.273L544.7289 -2539.273L50.27112 -2539.273C 49.75313 -2539.273 49.311 -2539.09 48.94473 -2538.723C 48.57846 -2538.352 48.39533 -2537.914 48.39533 -2537.398z" stroke="#E7EAED" stroke-width="0.7503152" fill="none" /></g><g clip-path="url(#7)"><path transform="matrix(1 0 0 -1 0 841)" d="M48.77049 466.1133L543.2282 466.1133L543.2282 466.1133L543.2282 -2534.395L543.2282 -2534.395L48.77049 -2534.395z" stroke="none" fill="#F8F8F8" fill-rule="winding" /></g><g clip-path="url(#8)"><path transform="matrix(1 0 0 -1 0 841)" d="M48.77049 2042.527L543.2282 2042.527L543.2282 2042.527L543.2282 690.4609L543.2282 690.4609L48.77049 690.4609z" stroke="none" fill="#F8F8F8" fill-rule="winding" /><path transform="matrix(1 0 0 -1 0 841)" d="M48.77049 2042.527L75.78184 2042.527L75.78184 2042.527L75.78184 334.0586L75.78184 334.0586L48.77049 334.0586z" stroke="none" fill="#F8F8F8" fill-rule="winding" /><path transform="matrix(1 0 0 -1 0 841)" d="M75.03152 2042.527L75.78184 2042.527L75.78184 2042.527L75.78184 334.0586L75.78184 334.0586L75.03152 334.0586z" stroke="none" fill="#DDDDDD" fill-rule="winding" /></g><g clip-path="url(#9)"><path transform="matrix(1 0 0 -1 0 841)" d="M48.77049 584.6641L543.2282 584.6641L543.2282 584.6641L543.2282 517.1367L543.2282 517.1367L48.77049 517.1367z" stroke="none" fill="#F8F8F8" fill-rule="winding" /><path transform="matrix(1 0 0 -1 0 841)" d="M48.77049 584.6641L69.77932 584.6641L69.77932 584.6641L69.77932 498.3789L69.77932 498.3789L48.77049 498.3789z" stroke="none" fill="#F8F8F8" fill-rule="winding" /><path transform="matrix(1 0 0 -1 0 841)" d="M69.029 584.6641L69.77932 584.6641L69.77932 584.6641L69.77932 498.3789L69.77932 498.3789L69.029 498.3789z" stroke="none" fill="#DDDDDD" fill-rule="winding" /></g><g clip-path="url(#10)"><path transform="matrix(1 0 0 -1 0 841)" d="M48.77049 466.1133L543.2282 466.1133L543.2282 466.1133L543.2282 -2534.395L543.2282 -2534.395L48.77049 -2534.395z" stroke="none" fill="#F8F8F8" fill-rule="winding" /><path transform="matrix(1 0 0 -1 0 841)" d="M48.77049 466.1133L82.53468 466.1133L82.53468 466.1133L82.53468 -3313.223L82.53468 -3313.223L48.77049 -3313.223z" stroke="none" fill="#F8F8F8" fill-rule="winding" /><path transform="matrix(1 0 0 -1 0 841)" d="M81.78436 466.1133L82.53468 466.1133L82.53468 466.1133L82.53468 -3313.223L82.53468 -3313.223L81.78436 -3313.223z" stroke="none" fill="#DDDDDD" fill-rule="winding" /></g><g transform="matrix(0.2399193 0 0 0.2399322 0 -14.78003)"><g transform="matrix(1 0 0 1 0 0)"><image x="0" y="0" xlink:href="img_02.png" width="2480" height="295" /></g></g><g transform="matrix(0.4798387 0 0 0.4798876 0 798.29)"><g transform="matrix(1 0 0 1 0 0)"><image x="0" y="0" xlink:href="img_03.png" width="1240" height="89" /></g></g></g></g></g></svg>