<svg xmlns="http://www.w3.org/2000/svg" xmlns:xlink="http://www.w3.org/1999/xlink" id="body_9" preserveAspectRatio="xMinYMin meet" viewBox="0 0 793 1121"><defs><clipPath id="1"><path d="M0 841L0 0L0 0L595 0L595 0L595 841L595 841L0 841z" /></clipPath><clipPath id="2"><path d="M0 56L595 56L595 56L595 784.5562L595 784.5562L0 784.5562z" /></clipPath><clipPath id="3"><path d="M48.77049 339.6191L543.2282 339.6191L543.2282 339.6191L543.2282 663.7554L543.2282 663.7554L48.77049 663.7554z" /></clipPath></defs><g transform="matrix(1.333333 0 0 1.333333 0 0)"><g><g clip-path="url(#1)"><g clip-path="url(#2)"><path transform="matrix(1 0 0 -1 0 841)" d="M0 6613.449L595 6613.449L595 6613.449L595 -51364.16L595 -51364.16L0 -51364.16z" stroke="none" fill="#FFFFFF" fill-rule="winding" /><path transform="matrix(1 0 0 -1 0 841)" d="M48.02018 556.9038L51.02144 556.9038L51.02144 556.9038L51.02144 519.3882L51.02144 519.3882L48.02018 519.3882z" stroke="none" fill="#DFE2E5" fill-rule="winding" /><g transform="matrix(0.7503152 0 0 0.7503152 85.53594 56.00006)"><g transform="matrix(1 0 0 1 0 0)"><image x="0" y="0" xlink:href="img_19.png" width="565" height="256" /></g></g><path transform="matrix(1 0 0 -1 0 841)" d="M48.39533 174.2432L48.39533 505.8828C 48.39533 506.4009 48.57846 506.8428 48.94473 507.209C 49.311 507.5752 49.75313 507.7583 50.27112 507.7583L50.27112 507.7583L544.7289 507.7583C 545.2468 507.7583 545.6889 507.5752 546.0552 507.209C 546.4214 506.8428 546.6046 506.4009 546.6047 505.8828L546.6047 505.8828L546.6047 174.2432C 546.6046 173.7251 546.4214 173.2832 546.0552 172.917C 545.6889 172.5513 545.2468 172.3682 544.7289 172.3677L544.7289 172.3677L50.27112 172.3677C 49.75313 172.3682 49.311 172.5513 48.94473 172.917C 48.57846 173.2832 48.39533 173.7251 48.39533 174.2432z" stroke="none" fill="#F8F8F8" fill-rule="winding" /><path transform="matrix(1 0 0 -1 0 841)" d="M48.39533 174.2432L48.39533 505.8828C 48.39533 506.4009 48.57846 506.8428 48.94473 507.209C 49.311 507.5752 49.75313 507.7583 50.27112 507.7583L50.27112 507.7583L544.7289 507.7583C 545.2468 507.7583 545.6889 507.5752 546.0552 507.209C 546.4214 506.8428 546.6046 506.4009 546.6047 505.8828L546.6047 505.8828L546.6047 174.2432C 546.6046 173.7251 546.4214 173.2832 546.0552 172.917C 545.6889 172.5513 545.2468 172.3682 544.7289 172.3677L544.7289 172.3677L50.27112 172.3677C 49.75313 172.3682 49.311 172.5513 48.94473 172.917C 48.57846 173.2832 48.39533 173.7251 48.39533 174.2432z" stroke="#E7EAED" stroke-width="0.7503152" fill="none" /></g><g clip-path="url(#3)"><path transform="matrix(1 0 0 -1 0 841)" d="M48.77049 501.3809L543.2282 501.3809L543.2282 501.3809L543.2282 177.2446L543.2282 177.2446L48.77049 177.2446z" stroke="none" fill="#F8F8F8" fill-rule="winding" /><path transform="matrix(1 0 0 -1 0 841)" d="M48.77049 501.3809L543.2282 501.3809L543.2282 501.3809L543.2282 177.2446L543.2282 177.2446L48.77049 177.2446z" stroke="none" fill="#F8F8F8" fill-rule="winding" /><path transform="matrix(1 0 0 -1 0 841)" d="M48.77049 501.3809L75.78184 501.3809L75.78184 501.3809L75.78184 87.20654L75.78184 87.20654L48.77049 87.20654z" stroke="none" fill="#F8F8F8" fill-rule="winding" /><path transform="matrix(1 0 0 -1 0 841)" d="M75.03152 501.3809L75.78184 501.3809L75.78184 501.3809L75.78184 87.20654L75.78184 87.20654L75.03152 87.20654z" stroke="none" fill="#DDDDDD" fill-rule="winding" /></g><g transform="matrix(0.2399193 0 0 0.2399322 0 -14.78003)"><g transform="matrix(1 0 0 1 0 0)"><image x="0" y="0" xlink:href="img_02.png" width="2480" height="295" /></g></g><g transform="matrix(0.4798387 0 0 0.4798876 0 798.29)"><g transform="matrix(1 0 0 1 0 0)"><image x="0" y="0" xlink:href="img_03.png" width="1240" height="89" /></g></g></g></g></g></svg>