<svg xmlns="http://www.w3.org/2000/svg" xmlns:xlink="http://www.w3.org/1999/xlink" id="body_62" preserveAspectRatio="xMinYMin meet" viewBox="0 0 793 1121"><defs><clipPath id="1"><path d="M0 841L0 0L0 0L595 0L595 0L595 841L595 841L0 841z" /></clipPath><clipPath id="2"><path d="M0 56L595 56L595 56L595 784.5586L595 784.5586L0 784.5586z" /></clipPath></defs><g transform="matrix(1.333333 0 0 1.333333 0 0)"><g><g clip-path="url(#1)"><g clip-path="url(#2)"><path transform="matrix(1 0 0 -1 0 841)" d="M0 45226.92L595 45226.92L595 45226.92L595 -12750.69L595 -12750.69L0 -12750.69z" stroke="none" fill="#FFFFFF" fill-rule="winding" /><g transform="matrix(0.743606 0 0 0.7440833 48.02018 56)"><g transform="matrix(1 0 0 1 0 0)"><image x="0" y="0" xlink:href="img_113.png" width="671" height="602" /></g></g><path transform="matrix(1 0 0 -1 0 841)" d="M48.02018 302.5469L546.9798 302.5469L546.9798 302.5469L546.9798 301.7969L546.9798 301.7969L48.02018 301.7969z" stroke="none" fill="#EEEEEE" fill-rule="winding" /><path transform="matrix(1 0 0 -1 0 841)" d="M62.27617 193.375C 62.27617 192.8594 62.09303 192.4219 61.72676 192.0547C 61.36049 191.6875 60.91836 191.5039 60.40038 191.5039C 59.88239 191.5039 59.44026 191.6875 59.07399 192.0547C 58.70772 192.4219 58.52458 192.8594 58.52459 193.375C 58.52458 193.8984 58.70772 194.3398 59.07399 194.707C 59.44026 195.0703 59.88239 195.25 60.40038 195.25C 60.91836 195.25 61.36049 195.0703 61.72676 194.707C 62.09303 194.3398 62.27617 193.8984 62.27617 193.375z" stroke="none" fill="#333333" fill-rule="winding" /><path transform="matrix(1 0 0 -1 0 841)" d="M84.78562 173.1172C 84.78562 172.6016 84.60249 172.1602 84.23622 171.793C 83.86995 171.4258 83.42782 171.2461 82.90984 171.2422C 82.39185 171.2461 81.94971 171.4258 81.58344 171.793C 81.21717 172.1602 81.03404 172.6016 81.03405 173.1172C 81.03404 173.6406 81.21717 174.082 81.58344 174.4492C 81.94971 174.8125 82.39185 174.9922 82.90984 174.9922C 83.42782 174.9922 83.86995 174.8125 84.23622 174.4492C 84.60249 174.082 84.78562 173.6406 84.78562 173.1172z" stroke="#333333" stroke-width="0.7503152" fill="none" /><path transform="matrix(1 0 0 -1 0 841)" d="M84.78562 158.1094C 84.78562 157.5938 84.60249 157.1563 84.23622 156.7891C 83.86995 156.4219 83.42782 156.2383 82.90984 156.2383C 82.39185 156.2383 81.94971 156.4219 81.58344 156.7891C 81.21717 157.1563 81.03404 157.5938 81.03405 158.1094C 81.03404 158.6328 81.21717 159.0742 81.58344 159.4414C 81.94971 159.8047 82.39185 159.9883 82.90984 159.9883C 83.42782 159.9883 83.86995 159.8047 84.23622 159.4414C 84.60249 159.0742 84.78562 158.6328 84.78562 158.1094z" stroke="#333333" stroke-width="0.7503152" fill="none" /><path transform="matrix(1 0 0 -1 0 841)" d="M62.27617 143.1055C 62.27617 142.5859 62.09303 142.1445 61.72676 141.7813C 61.36049 141.4141 60.91836 141.2305 60.40038 141.2305C 59.88239 141.2305 59.44026 141.4141 59.07399 141.7813C 58.70772 142.1445 58.52458 142.5859 58.52459 143.1055C 58.52458 143.625 58.70772 144.0664 59.07399 144.4336C 59.44026 144.7969 59.88239 144.9805 60.40038 144.9805C 60.91836 144.9805 61.36049 144.7969 61.72676 144.4336C 62.09303 144.0664 62.27617 143.625 62.27617 143.1055z" stroke="none" fill="#333333" fill-rule="winding" /><path transform="matrix(1 0 0 -1 0 841)" d="M84.78562 123.5977C 84.78562 123.082 84.60249 122.6406 84.23622 122.2734C 83.86995 121.9102 83.42782 121.7227 82.90984 121.7188C 82.39185 121.7227 81.94971 121.9102 81.58344 122.2734C 81.21717 122.6406 81.03404 123.082 81.03405 123.5977C 81.03404 124.1172 81.21717 124.5625 81.58344 124.9258C 81.94971 125.2891 82.39185 125.4727 82.90984 125.4727C 83.42782 125.4727 83.86995 125.2891 84.23622 124.9258C 84.60249 124.5625 84.78562 124.1172 84.78562 123.5977z" stroke="#333333" stroke-width="0.7503152" fill="none" /><path transform="matrix(1 0 0 -1 0 841)" d="M84.78562 108.5898C 84.78562 108.0742 84.60249 107.6328 84.23622 107.2656C 83.86995 106.8984 83.42782 106.7188 82.90984 106.7188C 82.39185 106.7188 81.94971 106.8984 81.58344 107.2656C 81.21717 107.6328 81.03404 108.0742 81.03405 108.5898C 81.03404 109.1094 81.21717 109.5547 81.58344 109.9219C 81.94971 110.2852 82.39185 110.4648 82.90984 110.4648C 83.42782 110.4648 83.86995 110.2852 84.23622 109.9219C 84.60249 109.5547 84.78562 109.1094 84.78562 108.5898z" stroke="#333333" stroke-width="0.7503152" fill="none" /><path transform="matrix(1 0 0 -1 0 841)" d="M62.27617 93.58203C 62.27617 93.06641 62.09303 92.625 61.72676 92.25781C 61.36049 91.89453 60.91836 91.71094 60.40038 91.70703C 59.88239 91.71094 59.44026 91.89453 59.07399 92.25781C 58.70772 92.625 58.52458 93.06641 58.52459 93.58203C 58.52458 94.10547 58.70772 94.54688 59.07399 94.91406C 59.44026 95.27734 59.88239 95.46094 60.40038 95.46094C 60.91836 95.46094 61.36049 95.27734 61.72676 94.91406C 62.09303 94.54688 62.27617 94.10547 62.27617 93.58203z" stroke="none" fill="#333333" fill-rule="winding" /><path transform="matrix(1 0 0 -1 0 841)" d="M84.78562 73.32422C 84.78562 72.8125 84.60249 72.37109 84.23622 72.00391C 83.86995 71.63672 83.42782 71.45313 82.90984 71.44922C 82.39185 71.45313 81.94971 71.63672 81.58344 72.00391C 81.21717 72.37109 81.03404 72.8125 81.03405 73.32422C 81.03404 73.84375 81.21717 74.28906 81.58344 74.65625C 81.94971 75.01953 82.39185 75.19922 82.90984 75.19922C 83.42782 75.19922 83.86995 75.01953 84.23622 74.65625C 84.60249 74.28906 84.78562 73.84375 84.78562 73.32422z" stroke="#333333" stroke-width="0.7503152" fill="none" /></g><g transform="matrix(0.2399193 0 0 0.2399322 0 -14.78003)"><g transform="matrix(1 0 0 1 0 0)"><image x="0" y="0" xlink:href="img_02.png" width="2480" height="295" /></g></g><g transform="matrix(0.4798387 0 0 0.4798876 0 798.29)"><g transform="matrix(1 0 0 1 0 0)"><image x="0" y="0" xlink:href="img_03.png" width="1240" height="89" /></g></g></g></g></g></svg>