<svg xmlns="http://www.w3.org/2000/svg" xmlns:xlink="http://www.w3.org/1999/xlink" id="body_66" preserveAspectRatio="xMinYMin meet" viewBox="0 0 793 1121"><defs><clipPath id="1"><path d="M0 841L0 0L0 0L595 0L595 0L595 841L595 841L0 841z" /></clipPath><clipPath id="2"><path d="M0 56L595 56L595 56L595 784.5547L595 784.5547L0 784.5547z" /></clipPath><clipPath id="3"><path d="M48.77049 540.7031L543.2282 540.7031L543.2282 540.7031L543.2282 554.207L543.2282 554.207L48.77049 554.207z" /></clipPath><clipPath id="4"><path d="M0 56L595 56L595 56L595 784.5547L595 784.5547L0 784.5547z" /></clipPath><clipPath id="5"><path d="M48.77049 540.7031L543.2282 540.7031L543.2282 540.7031L543.2282 554.207L543.2282 554.207L48.77049 554.207z" /></clipPath></defs><g transform="matrix(1.333333 0 0 1.333333 0 0)"><g><g clip-path="url(#1)"><g clip-path="url(#2)"><path transform="matrix(1 0 0 -1 0 841)" d="M0 48141.15L595 48141.15L595 48141.15L595 -9836.461L595 -9836.461L0 -9836.461z" stroke="none" fill="#FFFFFF" fill-rule="winding" /><g transform="matrix(0.5291196 0 0 0.5299846 48.02018 56)"><g transform="matrix(1 0 0 1 0 0)"><image x="0" y="0" xlink:href="img_121.png" width="943" height="378" /></g></g><path transform="matrix(1 0 0 -1 0 841)" d="M62.27617 546.7773C 62.27617 546.2617 62.09303 545.8203 61.72676 545.4531C 61.36049 545.0898 60.91836 544.9023 60.40038 544.9023C 59.88239 544.9023 59.44026 545.0898 59.07399 545.4531C 58.70772 545.8203 58.52458 546.2617 58.52459 546.7773C 58.52458 547.2969 58.70772 547.7422 59.07399 548.1055C 59.44026 548.4688 59.88239 548.6523 60.40038 548.6523C 60.91836 548.6523 61.36049 548.4688 61.72676 548.1055C 62.09303 547.7422 62.27617 547.2969 62.27617 546.7773z" stroke="none" fill="#333333" fill-rule="winding" /><g transform="matrix(0.5213789 0 0 0.521247 48.02018 332.1133)"><g transform="matrix(1 0 0 1 0 0)"><image x="0" y="0" xlink:href="img_122.png" width="957" height="321" /></g></g><path transform="matrix(1 0 0 -1 0 841)" d="M48.39533 283.7891L48.39533 304.8008C 48.39533 305.3203 48.57846 305.7617 48.94473 306.1289C 49.311 306.4922 49.75313 306.6758 50.27112 306.6758L50.27112 306.6758L544.7289 306.6758C 545.2468 306.6758 545.6889 306.4922 546.0552 306.1289C 546.4214 305.7617 546.6046 305.3203 546.6047 304.8008L546.6047 304.8008L546.6047 283.7891C 546.6046 283.2734 546.4214 282.8359 546.0552 282.4688C 545.6889 282.1016 545.2468 281.918 544.7289 281.9141L544.7289 281.9141L50.27112 281.9141C 49.75313 281.918 49.311 282.1016 48.94473 282.4688C 48.57846 282.8359 48.39533 283.2734 48.39533 283.7891z" stroke="none" fill="#F8F8F8" fill-rule="winding" /><path transform="matrix(1 0 0 -1 0 841)" d="M48.39533 283.7891L48.39533 304.8008C 48.39533 305.3203 48.57846 305.7617 48.94473 306.1289C 49.311 306.4922 49.75313 306.6758 50.27112 306.6758L50.27112 306.6758L544.7289 306.6758C 545.2468 306.6758 545.6889 306.4922 546.0552 306.1289C 546.4214 305.7617 546.6046 305.3203 546.6047 304.8008L546.6047 304.8008L546.6047 283.7891C 546.6046 283.2734 546.4214 282.8359 546.0552 282.4688C 545.6889 282.1016 545.2468 281.918 544.7289 281.9141L544.7289 281.9141L50.27112 281.9141C 49.75313 281.918 49.311 282.1016 48.94473 282.4688C 48.57846 282.8359 48.39533 283.2734 48.39533 283.7891z" stroke="#E7EAED" stroke-width="0.7503152" fill="none" /></g><g clip-path="url(#3)"><path transform="matrix(1 0 0 -1 0 841)" d="M48.77049 300.2969L543.2282 300.2969L543.2282 300.2969L543.2282 286.793L543.2282 286.793L48.77049 286.793z" stroke="none" fill="#F8F8F8" fill-rule="winding" /></g><g clip-path="url(#4)"><g transform="matrix(0.5279997 0 0 0.5272486 48.02018 570.7148)"><g transform="matrix(1 0 0 1 0 0)"><image x="0" y="0" xlink:href="img_123.png" width="945" height="370" /></g></g></g><g clip-path="url(#5)"><path transform="matrix(1 0 0 -1 0 841)" d="M48.77049 300.2969L543.2282 300.2969L543.2282 300.2969L543.2282 286.793L543.2282 286.793L48.77049 286.793z" stroke="none" fill="#F8F8F8" fill-rule="winding" /><path transform="matrix(1 0 0 -1 0 841)" d="M48.77049 300.2969L69.77932 300.2969L69.77932 300.2969L69.77932 277.7891L69.77932 277.7891L48.77049 277.7891z" stroke="none" fill="#F8F8F8" fill-rule="winding" /><path transform="matrix(1 0 0 -1 0 841)" d="M69.029 300.2969L69.77932 300.2969L69.77932 300.2969L69.77932 277.7891L69.77932 277.7891L69.029 277.7891z" stroke="none" fill="#DDDDDD" fill-rule="winding" /></g><g transform="matrix(0.2399193 0 0 0.2399322 0 -14.78003)"><g transform="matrix(1 0 0 1 0 0)"><image x="0" y="0" xlink:href="img_02.png" width="2480" height="295" /></g></g><g transform="matrix(0.4798387 0 0 0.4798876 0 798.29)"><g transform="matrix(1 0 0 1 0 0)"><image x="0" y="0" xlink:href="img_03.png" width="1240" height="89" /></g></g></g></g></g></svg>