<svg xmlns="http://www.w3.org/2000/svg" xmlns:xlink="http://www.w3.org/1999/xlink" id="body_64" preserveAspectRatio="xMinYMin meet" viewBox="0 0 793 1121"><defs><clipPath id="1"><path d="M0 841L0 0L0 0L595 0L595 0L595 841L595 841L0 841z" /></clipPath><clipPath id="2"><path d="M0 56L595 56L595 56L595 784.5547L595 784.5547L0 784.5547z" /></clipPath><clipPath id="3"><path d="M48.77049 56L543.2282 56L543.2282 56L543.2282 69.50391L543.2282 69.50391L48.77049 69.50391z" /></clipPath><clipPath id="4"><path d="M0 56L595 56L595 56L595 784.5547L595 784.5547L0 784.5547z" /></clipPath><clipPath id="5"><path d="M48.77049 762.7969L543.2282 762.7969L543.2282 762.7969L543.2282 784.5547L543.2282 784.5547L48.77049 784.5547z" /></clipPath><clipPath id="6"><path d="M48.77049 56L543.2282 56L543.2282 56L543.2282 69.50391L543.2282 69.50391L48.77049 69.50391z" /></clipPath><clipPath id="7"><path d="M48.77049 762.7969L543.2282 762.7969L543.2282 762.7969L543.2282 784.5547L543.2282 784.5547L48.77049 784.5547z" /></clipPath></defs><g transform="matrix(1.333333 0 0 1.333333 0 0)"><g><g clip-path="url(#1)"><g clip-path="url(#2)"><path transform="matrix(1 0 0 -1 0 841)" d="M0 46684.04L595 46684.04L595 46684.04L595 -11293.57L595 -11293.57L0 -11293.57z" stroke="none" fill="#FFFFFF" fill-rule="winding" /><path transform="matrix(1 0 0 -1 0 841)" d="M48.39533 768.4922L48.39533 1389.754C 48.39533 1390.273 48.57846 1390.715 48.94473 1391.082C 49.311 1391.449 49.75313 1391.629 50.27112 1391.629L50.27112 1391.629L544.7289 1391.629C 545.2468 1391.629 545.6889 1391.449 546.0552 1391.082C 546.4214 1390.715 546.6046 1390.273 546.6047 1389.754L546.6047 1389.754L546.6047 768.4922C 546.6046 767.9766 546.4214 767.5352 546.0552 767.168C 545.6889 766.8008 545.2468 766.6172 544.7289 766.6172L544.7289 766.6172L50.27112 766.6172C 49.75313 766.6172 49.311 766.8008 48.94473 767.168C 48.57846 767.5352 48.39533 767.9766 48.39533 768.4922z" stroke="none" fill="#F8F8F8" fill-rule="winding" /><path transform="matrix(1 0 0 -1 0 841)" d="M48.39533 768.4922L48.39533 1389.754C 48.39533 1390.273 48.57846 1390.715 48.94473 1391.082C 49.311 1391.449 49.75313 1391.629 50.27112 1391.629L50.27112 1391.629L544.7289 1391.629C 545.2468 1391.629 545.6889 1391.449 546.0552 1391.082C 546.4214 1390.715 546.6046 1390.273 546.6047 1389.754L546.6047 1389.754L546.6047 768.4922C 546.6046 767.9766 546.4214 767.5352 546.0552 767.168C 545.6889 766.8008 545.2468 766.6172 544.7289 766.6172L544.7289 766.6172L50.27112 766.6172C 49.75313 766.6172 49.311 766.8008 48.94473 767.168C 48.57846 767.5352 48.39533 767.9766 48.39533 768.4922z" stroke="#E7EAED" stroke-width="0.7503152" fill="none" /></g><g clip-path="url(#3)"><path transform="matrix(1 0 0 -1 0 841)" d="M48.77049 1385.254L543.2282 1385.254L543.2282 1385.254L543.2282 771.4961L543.2282 771.4961L48.77049 771.4961z" stroke="none" fill="#F8F8F8" fill-rule="winding" /></g><g clip-path="url(#4)"><g transform="matrix(0.5219243 0 0 0.5227196 48.02018 108.5234)"><g transform="matrix(1 0 0 1 0 0)"><image x="0" y="0" xlink:href="img_116.png" width="956" height="300" /></g></g><g transform="matrix(0.7503152 0 0 0.7503153 127.5536 296.1016)"><g transform="matrix(1 0 0 1 0 0)"><image x="0" y="0" xlink:href="img_117.png" width="454" height="180" /></g></g><g transform="matrix(0.6863269 0 0 0.6869642 48.02018 438.6601)"><g transform="matrix(1 0 0 1 0 0)"><image x="0" y="0" xlink:href="img_118.png" width="727" height="379" /></g></g><path transform="matrix(1 0 0 -1 0 841)" d="M48.39533 -162.6484L48.39533 82.70703C 48.39533 83.22656 48.57846 83.66797 48.94473 84.03516C 49.311 84.39844 49.75313 84.58203 50.27112 84.58203L50.27112 84.58203L544.7289 84.58203C 545.2468 84.58203 545.6889 84.39844 546.0552 84.03516C 546.4214 83.66797 546.6046 83.22656 546.6047 82.70703L546.6047 82.70703L546.6047 -162.6484C 546.6046 -163.1641 546.4214 -163.6055 546.0552 -163.9727C 545.6889 -164.3398 545.2468 -164.5195 544.7289 -164.5234L544.7289 -164.5234L50.27112 -164.5234C 49.75313 -164.5195 49.311 -164.3398 48.94473 -163.9727C 48.57846 -163.6055 48.39533 -163.1641 48.39533 -162.6484z" stroke="none" fill="#F8F8F8" fill-rule="winding" /><path transform="matrix(1 0 0 -1 0 841)" d="M48.39533 -162.6484L48.39533 82.70703C 48.39533 83.22656 48.57846 83.66797 48.94473 84.03516C 49.311 84.39844 49.75313 84.58203 50.27112 84.58203L50.27112 84.58203L544.7289 84.58203C 545.2468 84.58203 545.6889 84.39844 546.0552 84.03516C 546.4214 83.66797 546.6046 83.22656 546.6047 82.70703L546.6047 82.70703L546.6047 -162.6484C 546.6046 -163.1641 546.4214 -163.6055 546.0552 -163.9727C 545.6889 -164.3398 545.2468 -164.5195 544.7289 -164.5234L544.7289 -164.5234L50.27112 -164.5234C 49.75313 -164.5195 49.311 -164.3398 48.94473 -163.9727C 48.57846 -163.6055 48.39533 -163.1641 48.39533 -162.6484z" stroke="#E7EAED" stroke-width="0.7503152" fill="none" /></g><g clip-path="url(#5)"><path transform="matrix(1 0 0 -1 0 841)" d="M48.77049 78.20313L543.2282 78.20313L543.2282 78.20313L543.2282 -159.6445L543.2282 -159.6445L48.77049 -159.6445z" stroke="none" fill="#F8F8F8" fill-rule="winding" /></g><g clip-path="url(#6)"><path transform="matrix(1 0 0 -1 0 841)" d="M48.77049 1385.254L543.2282 1385.254L543.2282 1385.254L543.2282 771.4961L543.2282 771.4961L48.77049 771.4961z" stroke="none" fill="#F8F8F8" fill-rule="winding" /><path transform="matrix(1 0 0 -1 0 841)" d="M48.77049 1385.254L75.78184 1385.254L75.78184 1385.254L75.78184 556.9063L75.78184 556.9063L48.77049 556.9063z" stroke="none" fill="#F8F8F8" fill-rule="winding" /><path transform="matrix(1 0 0 -1 0 841)" d="M75.03152 1385.254L75.78184 1385.254L75.78184 1385.254L75.78184 556.9063L75.78184 556.9063L75.03152 556.9063z" stroke="none" fill="#DDDDDD" fill-rule="winding" /></g><g clip-path="url(#7)"><path transform="matrix(1 0 0 -1 0 841)" d="M48.77049 78.20313L543.2282 78.20313L543.2282 78.20313L543.2282 -159.6445L543.2282 -159.6445L48.77049 -159.6445z" stroke="none" fill="#F8F8F8" fill-rule="winding" /><path transform="matrix(1 0 0 -1 0 841)" d="M48.77049 78.20313L75.78184 78.20313L75.78184 78.20313L75.78184 -215.168L75.78184 -215.168L48.77049 -215.168z" stroke="none" fill="#F8F8F8" fill-rule="winding" /><path transform="matrix(1 0 0 -1 0 841)" d="M75.03152 78.20313L75.78184 78.20313L75.78184 78.20313L75.78184 -215.168L75.78184 -215.168L75.03152 -215.168z" stroke="none" fill="#DDDDDD" fill-rule="winding" /></g><g transform="matrix(0.2399193 0 0 0.2399322 0 -14.78003)"><g transform="matrix(1 0 0 1 0 0)"><image x="0" y="0" xlink:href="img_02.png" width="2480" height="295" /></g></g><g transform="matrix(0.4798387 0 0 0.4798876 0 798.29)"><g transform="matrix(1 0 0 1 0 0)"><image x="0" y="0" xlink:href="img_03.png" width="1240" height="89" /></g></g></g></g></g></svg>