<svg xmlns="http://www.w3.org/2000/svg" xmlns:xlink="http://www.w3.org/1999/xlink" id="body_40" preserveAspectRatio="xMinYMin meet" viewBox="0 0 793 1121"><defs><clipPath id="1"><path d="M0 841L0 0L0 0L595 0L595 0L595 841L595 841L0 841z" /></clipPath><clipPath id="2"><path d="M0 56L595 56L595 56L595 784.5566L595 784.5566L0 784.5566z" /></clipPath><clipPath id="3"><path d="M48.77049 62.75391L543.2282 62.75391L543.2282 62.75391L543.2282 170.7988L543.2282 170.7988L48.77049 170.7988z" /></clipPath><clipPath id="4"><path d="M0 56L595 56L595 56L595 784.5566L595 784.5566L0 784.5566z" /></clipPath><clipPath id="5"><path d="M48.77049 62.75391L543.2282 62.75391L543.2282 62.75391L543.2282 170.7988L543.2282 170.7988L48.77049 170.7988z" /></clipPath></defs><g transform="matrix(1.333333 0 0 1.333333 0 0)"><g><g clip-path="url(#1)"><g clip-path="url(#2)"><path transform="matrix(1 0 0 -1 0 841)" d="M0 29198.69L595 29198.69L595 29198.69L595 -28778.92L595 -28778.92L0 -28778.92z" stroke="none" fill="#FFFFFF" fill-rule="winding" /><path transform="matrix(1 0 0 -1 0 841)" d="M48.39533 667.1992L48.39533 782.748C 48.39533 783.2676 48.57846 783.709 48.94473 784.0762C 49.311 784.4434 49.75313 784.625 50.27112 784.625L50.27112 784.625L544.7289 784.625C 545.2468 784.625 545.6889 784.4434 546.0552 784.0762C 546.4214 783.709 546.6046 783.2676 546.6047 782.748L546.6047 782.748L546.6047 667.1992C 546.6046 666.6816 546.4214 666.2422 546.0552 665.875C 545.6889 665.5078 545.2468 665.3242 544.7289 665.3242L544.7289 665.3242L50.27112 665.3242C 49.75313 665.3242 49.311 665.5078 48.94473 665.875C 48.57846 666.2422 48.39533 666.6816 48.39533 667.1992z" stroke="none" fill="#F8F8F8" fill-rule="winding" /><path transform="matrix(1 0 0 -1 0 841)" d="M48.39533 667.1992L48.39533 782.748C 48.39533 783.2676 48.57846 783.709 48.94473 784.0762C 49.311 784.4434 49.75313 784.625 50.27112 784.625L50.27112 784.625L544.7289 784.625C 545.2468 784.625 545.6889 784.4434 546.0552 784.0762C 546.4214 783.709 546.6046 783.2676 546.6047 782.748L546.6047 782.748L546.6047 667.1992C 546.6046 666.6816 546.4214 666.2422 546.0552 665.875C 545.6889 665.5078 545.2468 665.3242 544.7289 665.3242L544.7289 665.3242L50.27112 665.3242C 49.75313 665.3242 49.311 665.5078 48.94473 665.875C 48.57846 666.2422 48.39533 666.6816 48.39533 667.1992z" stroke="#E7EAED" stroke-width="0.7503152" fill="none" /></g><g clip-path="url(#3)"><path transform="matrix(1 0 0 -1 0 841)" d="M48.77049 778.2461L543.2282 778.2461L543.2282 778.2461L543.2282 670.2012L543.2282 670.2012L48.77049 670.2012z" stroke="none" fill="#F8F8F8" fill-rule="winding" /></g><g clip-path="url(#4)"><g transform="matrix(0.7503152 0 0 0.7503152 118.5498 187.3066)"><g transform="matrix(1 0 0 1 0 0)"><image x="0" y="0" xlink:href="img_80.png" width="478" height="607" /></g></g><path transform="matrix(1 0 0 -1 0 841)" d="M48.02018 150.9824L48.02018 156.2344C 48.02017 156.8594 48.23994 157.3906 48.67946 157.8301C 49.11898 158.2656 49.64954 158.4863 50.27112 158.4863L50.27112 158.4863L76.53216 158.4863C 77.15373 158.4863 77.68429 158.2656 78.12381 157.8301C 78.56333 157.3906 78.7831 156.8594 78.7831 156.2344L78.7831 156.2344L78.7831 150.9824C 78.7831 150.3613 78.56333 149.832 78.12381 149.3906C 77.68429 148.9512 77.15373 148.7324 76.53216 148.7324L76.53216 148.7324L50.27112 148.7324C 49.64954 148.7324 49.11898 148.9512 48.67946 149.3906C 48.23994 149.832 48.02017 150.3613 48.02018 150.9824z" stroke="none" fill="#F3F4F4" fill-rule="winding" /><path transform="matrix(1 0 0 -1 0 841)" d="M48.39533 150.9824L48.39533 156.2344C 48.39533 156.7539 48.57846 157.1934 48.94473 157.5605C 49.311 157.9258 49.75313 158.1113 50.27112 158.1113L50.27112 158.1113L76.53216 158.1113C 77.05013 158.1113 77.49226 157.9258 77.85854 157.5605C 78.2248 157.1934 78.40794 156.7539 78.40794 156.2344L78.40794 156.2344L78.40794 150.9824C 78.40794 150.4648 78.2248 150.0254 77.85854 149.6582C 77.49226 149.291 77.05013 149.1074 76.53216 149.1074L76.53216 149.1074L50.27112 149.1074C 49.75313 149.1074 49.311 149.291 48.94473 149.6582C 48.57846 150.0254 48.39533 150.4648 48.39533 150.9824z" stroke="#E7EAED" stroke-width="0.7503152" fill="none" /></g><g clip-path="url(#5)"><path transform="matrix(1 0 0 -1 0 841)" d="M48.77049 778.2461L543.2282 778.2461L543.2282 778.2461L543.2282 670.2012L543.2282 670.2012L48.77049 670.2012z" stroke="none" fill="#F8F8F8" fill-rule="winding" /><path transform="matrix(1 0 0 -1 0 841)" d="M48.77049 778.2461L69.77932 778.2461L69.77932 778.2461L69.77932 640.1895L69.77932 640.1895L48.77049 640.1895z" stroke="none" fill="#F8F8F8" fill-rule="winding" /><path transform="matrix(1 0 0 -1 0 841)" d="M69.029 778.2461L69.77932 778.2461L69.77932 778.2461L69.77932 640.1895L69.77932 640.1895L69.029 640.1895z" stroke="none" fill="#DDDDDD" fill-rule="winding" /></g><g transform="matrix(0.2399193 0 0 0.2399322 0 -14.78003)"><g transform="matrix(1 0 0 1 0 0)"><image x="0" y="0" xlink:href="img_02.png" width="2480" height="295" /></g></g><g transform="matrix(0.4798387 0 0 0.4798876 0 798.29)"><g transform="matrix(1 0 0 1 0 0)"><image x="0" y="0" xlink:href="img_03.png" width="1240" height="89" /></g></g></g></g></g></svg>