<svg xmlns="http://www.w3.org/2000/svg" xmlns:xlink="http://www.w3.org/1999/xlink" id="body_10" preserveAspectRatio="xMinYMin meet" viewBox="0 0 793 1121"><defs><clipPath id="1"><path d="M0 841L0 0L0 0L595 0L595 0L595 841L595 841L0 841z" /></clipPath><clipPath id="2"><path d="M0 56L595 56L595 56L595 784.5562L595 784.5562L0 784.5562z" /></clipPath><clipPath id="3"><path d="M48.77049 310.3569L543.2282 310.3569L543.2282 310.3569L543.2282 404.8965L543.2282 404.8965L48.77049 404.8965z" /></clipPath><clipPath id="4"><path d="M0 56L595 56L595 56L595 784.5562L595 784.5562L0 784.5562z" /></clipPath><clipPath id="5"><path d="M48.77049 598.478L543.2282 598.478L543.2282 598.478L543.2282 720.0293L543.2282 720.0293L48.77049 720.0293z" /></clipPath><clipPath id="6"><path d="M0 56L595 56L595 56L595 784.5562L595 784.5562L0 784.5562z" /></clipPath><clipPath id="7"><path d="M48.77049 310.3569L543.2282 310.3569L543.2282 310.3569L543.2282 404.8965L543.2282 404.8965L48.77049 404.8965z" /></clipPath><clipPath id="8"><path d="M48.77049 598.478L543.2282 598.478L543.2282 598.478L543.2282 720.0293L543.2282 720.0293L48.77049 720.0293z" /></clipPath></defs><g transform="matrix(1.333333 0 0 1.333333 0 0)"><g><g clip-path="url(#1)"><g clip-path="url(#2)"><path transform="matrix(1 0 0 -1 0 841)" d="M0 7342.005L595 7342.005L595 7342.005L595 -50635.61L595 -50635.61L0 -50635.61z" stroke="none" fill="#FFFFFF" fill-rule="winding" /><path transform="matrix(1 0 0 -1 0 841)" d="M48.02018 586.1665L51.02144 586.1665L51.02144 586.1665L51.02144 571.1602L51.02144 571.1602L48.02018 571.1602z" stroke="none" fill="#DFE2E5" fill-rule="winding" /><g transform="matrix(0.5489105 0 0 0.5498 48.02018 56.00006)"><g transform="matrix(1 0 0 1 0 0)"><image x="0" y="0" xlink:href="img_21.png" width="909" height="348" /></g></g><path transform="matrix(1 0 0 -1 0 841)" d="M48.39533 433.1021L48.39533 535.145C 48.39533 535.6631 48.57846 536.1055 48.94473 536.4712C 49.311 536.8374 49.75313 537.0205 50.27112 537.0205L50.27112 537.0205L544.7289 537.0205C 545.2468 537.0205 545.6889 536.8374 546.0552 536.4712C 546.4214 536.1055 546.6046 535.6631 546.6047 535.145L546.6047 535.145L546.6047 433.1021C 546.6046 432.584 546.4214 432.1421 546.0552 431.7764C 545.6889 431.4102 545.2468 431.2271 544.7289 431.2261L544.7289 431.2261L50.27112 431.2261C 49.75313 431.2271 49.311 431.4102 48.94473 431.7764C 48.57846 432.1421 48.39533 432.584 48.39533 433.1021z" stroke="none" fill="#F8F8F8" fill-rule="winding" /><path transform="matrix(1 0 0 -1 0 841)" d="M48.39533 433.1021L48.39533 535.145C 48.39533 535.6631 48.57846 536.1055 48.94473 536.4712C 49.311 536.8374 49.75313 537.0205 50.27112 537.0205L50.27112 537.0205L544.7289 537.0205C 545.2468 537.0205 545.6889 536.8374 546.0552 536.4712C 546.4214 536.1055 546.6046 535.6631 546.6047 535.145L546.6047 535.145L546.6047 433.1021C 546.6046 432.584 546.4214 432.1421 546.0552 431.7764C 545.6889 431.4102 545.2468 431.2271 544.7289 431.2261L544.7289 431.2261L50.27112 431.2261C 49.75313 431.2271 49.311 431.4102 48.94473 431.7764C 48.57846 432.1421 48.39533 432.584 48.39533 433.1021z" stroke="#E7EAED" stroke-width="0.7503152" fill="none" /></g><g clip-path="url(#3)"><path transform="matrix(1 0 0 -1 0 841)" d="M48.77049 530.6431L543.2282 530.6431L543.2282 530.6431L543.2282 436.1035L543.2282 436.1035L48.77049 436.1035z" stroke="none" fill="#F8F8F8" fill-rule="winding" /></g><g clip-path="url(#4)"><g transform="matrix(0.7127995 0 0 0.7155324 48.02018 421.4038)"><g transform="matrix(1 0 0 1 0 0)"><image x="0" y="0" xlink:href="img_22.png" width="700" height="151" /></g></g><path transform="matrix(1 0 0 -1 0 841)" d="M48.39533 117.9697L48.39533 247.0239C 48.39533 247.542 48.57846 247.9844 48.94473 248.3511C 49.311 248.7163 49.75313 248.8999 50.27112 248.8999L50.27112 248.8999L544.7289 248.8999C 545.2468 248.8999 545.6889 248.7163 546.0552 248.3511C 546.4214 247.9844 546.6046 247.542 546.6047 247.0239L546.6047 247.0239L546.6047 117.9697C 546.6046 117.4521 546.4214 117.0107 546.0552 116.644C 545.6889 116.2778 545.2468 116.0947 544.7289 116.0938L544.7289 116.0938L50.27112 116.0938C 49.75313 116.0947 49.311 116.2778 48.94473 116.644C 48.57846 117.0107 48.39533 117.4521 48.39533 117.9697z" stroke="none" fill="#F8F8F8" fill-rule="winding" /><path transform="matrix(1 0 0 -1 0 841)" d="M48.39533 117.9697L48.39533 247.0239C 48.39533 247.542 48.57846 247.9844 48.94473 248.3511C 49.311 248.7163 49.75313 248.8999 50.27112 248.8999L50.27112 248.8999L544.7289 248.8999C 545.2468 248.8999 545.6889 248.7163 546.0552 248.3511C 546.4214 247.9844 546.6046 247.542 546.6047 247.0239L546.6047 247.0239L546.6047 117.9697C 546.6046 117.4521 546.4214 117.0107 546.0552 116.644C 545.6889 116.2778 545.2468 116.0947 544.7289 116.0938L544.7289 116.0938L50.27112 116.0938C 49.75313 116.0947 49.311 116.2778 48.94473 116.644C 48.57846 117.0107 48.39533 117.4521 48.39533 117.9697z" stroke="#E7EAED" stroke-width="0.7503152" fill="none" /></g><g clip-path="url(#5)"><path transform="matrix(1 0 0 -1 0 841)" d="M48.77049 242.522L543.2282 242.522L543.2282 242.522L543.2282 120.9707L543.2282 120.9707L48.77049 120.9707z" stroke="none" fill="#F8F8F8" fill-rule="winding" /></g><g clip-path="url(#6)"></g><g clip-path="url(#7)"><path transform="matrix(1 0 0 -1 0 841)" d="M48.77049 530.6431L543.2282 530.6431L543.2282 530.6431L543.2282 436.1035L543.2282 436.1035L48.77049 436.1035z" stroke="none" fill="#F8F8F8" fill-rule="winding" /><path transform="matrix(1 0 0 -1 0 841)" d="M48.77049 530.6431L69.77932 530.6431L69.77932 530.6431L69.77932 409.8423L69.77932 409.8423L48.77049 409.8423z" stroke="none" fill="#F8F8F8" fill-rule="winding" /><path transform="matrix(1 0 0 -1 0 841)" d="M69.029 530.6431L69.77932 530.6431L69.77932 530.6431L69.77932 409.8423L69.77932 409.8423L69.029 409.8423z" stroke="none" fill="#DDDDDD" fill-rule="winding" /></g><g clip-path="url(#8)"><path transform="matrix(1 0 0 -1 0 841)" d="M48.77049 242.522L543.2282 242.522L543.2282 242.522L543.2282 120.9707L543.2282 120.9707L48.77049 120.9707z" stroke="none" fill="#F8F8F8" fill-rule="winding" /><path transform="matrix(1 0 0 -1 0 841)" d="M48.77049 242.522L69.77932 242.522L69.77932 242.522L69.77932 87.20654L69.77932 87.20654L48.77049 87.20654z" stroke="none" fill="#F8F8F8" fill-rule="winding" /><path transform="matrix(1 0 0 -1 0 841)" d="M69.029 242.522L69.77932 242.522L69.77932 242.522L69.77932 87.20654L69.77932 87.20654L69.029 87.20654z" stroke="none" fill="#DDDDDD" fill-rule="winding" /></g><g transform="matrix(0.2399193 0 0 0.2399322 0 -14.78003)"><g transform="matrix(1 0 0 1 0 0)"><image x="0" y="0" xlink:href="img_02.png" width="2480" height="295" /></g></g><g transform="matrix(0.4798387 0 0 0.4798876 0 798.29)"><g transform="matrix(1 0 0 1 0 0)"><image x="0" y="0" xlink:href="img_03.png" width="1240" height="89" /></g></g></g></g></g></svg>