<svg xmlns="http://www.w3.org/2000/svg" xmlns:xlink="http://www.w3.org/1999/xlink" id="body_27" preserveAspectRatio="xMinYMin meet" viewBox="0 0 793 1121"><defs><clipPath id="1"><path d="M0 841L0 0L0 0L595 0L595 0L595 841L595 841L0 841z" /></clipPath><clipPath id="2"><path d="M0 56L595 56L595 56L595 784.5566L595 784.5566L0 784.5566z" /></clipPath><clipPath id="3"><path d="M48.77049 573.7168L543.2282 573.7168L543.2282 573.7168L543.2282 641.2461L543.2282 641.2461L48.77049 641.2461z" /></clipPath><clipPath id="4"><path d="M0 56L595 56L595 56L595 784.5566L595 784.5566L0 784.5566z" /></clipPath><clipPath id="5"><path d="M48.77049 573.7168L543.2282 573.7168L543.2282 573.7168L543.2282 641.2461L543.2282 641.2461L48.77049 641.2461z" /></clipPath></defs><g transform="matrix(1.333333 0 0 1.333333 0 0)"><g><g clip-path="url(#1)"><g clip-path="url(#2)"><path transform="matrix(1 0 0 -1 0 841)" d="M0 19727.46L595 19727.46L595 19727.46L595 -38250.15L595 -38250.15L0 -38250.15z" stroke="none" fill="#FFFFFF" fill-rule="winding" /><g transform="matrix(0.7503153 0 0 0.7503152 174.8235 56)"><g transform="matrix(1 0 0 1 0 0)"><image x="0" y="0" xlink:href="img_58.png" width="327" height="636" /></g></g><path transform="matrix(1 0 0 -1 0 841)" d="M48.39533 196.7539L48.39533 271.7852C 48.39533 272.3027 48.57846 272.7461 48.94473 273.1113C 49.311 273.4766 49.75313 273.6602 50.27112 273.6602L50.27112 273.6602L544.7289 273.6602C 545.2468 273.6602 545.6889 273.4766 546.0552 273.1113C 546.4214 272.7461 546.6046 272.3027 546.6047 271.7852L546.6047 271.7852L546.6047 196.7539C 546.6046 196.2363 546.4214 195.793 546.0552 195.4277C 545.6889 195.0625 545.2468 194.8789 544.7289 194.877L544.7289 194.877L50.27112 194.877C 49.75313 194.8789 49.311 195.0625 48.94473 195.4277C 48.57846 195.793 48.39533 196.2363 48.39533 196.7539z" stroke="none" fill="#F8F8F8" fill-rule="winding" /><path transform="matrix(1 0 0 -1 0 841)" d="M48.39533 196.7539L48.39533 271.7852C 48.39533 272.3027 48.57846 272.7461 48.94473 273.1113C 49.311 273.4766 49.75313 273.6602 50.27112 273.6602L50.27112 273.6602L544.7289 273.6602C 545.2468 273.6602 545.6889 273.4766 546.0552 273.1113C 546.4214 272.7461 546.6046 272.3027 546.6047 271.7852L546.6047 271.7852L546.6047 196.7539C 546.6046 196.2363 546.4214 195.793 546.0552 195.4277C 545.6889 195.0625 545.2468 194.8789 544.7289 194.877L544.7289 194.877L50.27112 194.877C 49.75313 194.8789 49.311 195.0625 48.94473 195.4277C 48.57846 195.793 48.39533 196.2363 48.39533 196.7539z" stroke="#E7EAED" stroke-width="0.7503152" fill="none" /></g><g clip-path="url(#3)"><path transform="matrix(1 0 0 -1 0 841)" d="M48.77049 267.2832L543.2282 267.2832L543.2282 267.2832L543.2282 199.7539L543.2282 199.7539L48.77049 199.7539z" stroke="none" fill="#F8F8F8" fill-rule="winding" /></g><g clip-path="url(#4)"></g><g clip-path="url(#5)"><path transform="matrix(1 0 0 -1 0 841)" d="M48.77049 267.2832L543.2282 267.2832L543.2282 267.2832L543.2282 199.7539L543.2282 199.7539L48.77049 199.7539z" stroke="none" fill="#F8F8F8" fill-rule="winding" /><path transform="matrix(1 0 0 -1 0 841)" d="M48.77049 267.2832L69.77932 267.2832L69.77932 267.2832L69.77932 180.9961L69.77932 180.9961L48.77049 180.9961z" stroke="none" fill="#F8F8F8" fill-rule="winding" /><path transform="matrix(1 0 0 -1 0 841)" d="M69.029 267.2832L69.77932 267.2832L69.77932 267.2832L69.77932 180.9961L69.77932 180.9961L69.029 180.9961z" stroke="none" fill="#DDDDDD" fill-rule="winding" /></g><g transform="matrix(0.2399193 0 0 0.2399322 0 -14.78003)"><g transform="matrix(1 0 0 1 0 0)"><image x="0" y="0" xlink:href="img_02.png" width="2480" height="295" /></g></g><g transform="matrix(0.4798387 0 0 0.4798876 0 798.29)"><g transform="matrix(1 0 0 1 0 0)"><image x="0" y="0" xlink:href="img_03.png" width="1240" height="89" /></g></g></g></g></g></svg>