<svg xmlns="http://www.w3.org/2000/svg" xmlns:xlink="http://www.w3.org/1999/xlink" id="body_25" preserveAspectRatio="xMinYMin meet" viewBox="0 0 793 1121"><defs><clipPath id="1"><path d="M0 841L0 0L0 0L595 0L595 0L595 841L595 841L0 841z" /></clipPath><clipPath id="2"><path d="M0 56L595 56L595 56L595 784.5566L595 784.5566L0 784.5566z" /></clipPath><clipPath id="3"><path d="M48.77049 301.3535L543.2282 301.3535L543.2282 301.3535L543.2282 314.8594L543.2282 314.8594L48.77049 314.8594z" /></clipPath><clipPath id="4"><path d="M0 56L595 56L595 56L595 784.5566L595 784.5566L0 784.5566z" /></clipPath><clipPath id="5"><path d="M48.77049 564.7148L543.2282 564.7148L543.2282 564.7148L543.2282 578.2207L543.2282 578.2207L48.77049 578.2207z" /></clipPath><clipPath id="6"><path d="M0 56L595 56L595 56L595 784.5566L595 784.5566L0 784.5566z" /></clipPath><clipPath id="7"><path d="M48.77049 301.3535L543.2282 301.3535L543.2282 301.3535L543.2282 314.8594L543.2282 314.8594L48.77049 314.8594z" /></clipPath><clipPath id="8"><path d="M48.77049 564.7148L543.2282 564.7148L543.2282 564.7148L543.2282 578.2207L543.2282 578.2207L48.77049 578.2207z" /></clipPath></defs><g transform="matrix(1.333333 0 0 1.333333 0 0)"><g><g clip-path="url(#1)"><g clip-path="url(#2)"><path transform="matrix(1 0 0 -1 0 841)" d="M0 18270.35L595 18270.35L595 18270.35L595 -39707.27L595 -39707.27L0 -39707.27z" stroke="none" fill="#FFFFFF" fill-rule="winding" /><g transform="matrix(0.7503152 0 0 0.7503152 161.3178 56)"><g transform="matrix(1 0 0 1 0 0)"><image x="0" y="0" xlink:href="img_52.png" width="363" height="273" /></g></g><path transform="matrix(1 0 0 -1 0 841)" d="M48.39533 523.1387L48.39533 544.1484C 48.39533 544.666 48.57846 545.1094 48.94473 545.4766C 49.311 545.8398 49.75313 546.0234 50.27112 546.0234L50.27112 546.0234L544.7289 546.0234C 545.2468 546.0234 545.6889 545.8398 546.0552 545.4766C 546.4214 545.1094 546.6046 544.666 546.6047 544.1484L546.6047 544.1484L546.6047 523.1387C 546.6046 522.6211 546.4214 522.1797 546.0552 521.8145C 545.6889 521.4473 545.2468 521.2656 544.7289 521.2637L544.7289 521.2637L50.27112 521.2637C 49.75313 521.2656 49.311 521.4473 48.94473 521.8145C 48.57846 522.1797 48.39533 522.6211 48.39533 523.1387z" stroke="none" fill="#F8F8F8" fill-rule="winding" /><path transform="matrix(1 0 0 -1 0 841)" d="M48.39533 523.1387L48.39533 544.1484C 48.39533 544.666 48.57846 545.1094 48.94473 545.4766C 49.311 545.8398 49.75313 546.0234 50.27112 546.0234L50.27112 546.0234L544.7289 546.0234C 545.2468 546.0234 545.6889 545.8398 546.0552 545.4766C 546.4214 545.1094 546.6046 544.666 546.6047 544.1484L546.6047 544.1484L546.6047 523.1387C 546.6046 522.6211 546.4214 522.1797 546.0552 521.8145C 545.6889 521.4473 545.2468 521.2656 544.7289 521.2637L544.7289 521.2637L50.27112 521.2637C 49.75313 521.2656 49.311 521.4473 48.94473 521.8145C 48.57846 522.1797 48.39533 522.6211 48.39533 523.1387z" stroke="#E7EAED" stroke-width="0.7503152" fill="none" /></g><g clip-path="url(#3)"><path transform="matrix(1 0 0 -1 0 841)" d="M48.77049 539.6465L543.2282 539.6465L543.2282 539.6465L543.2282 526.1406L543.2282 526.1406L48.77049 526.1406z" stroke="none" fill="#F8F8F8" fill-rule="winding" /></g><g clip-path="url(#4)"><g transform="matrix(0.7503152 0 0 0.7503152 164.319 331.3672)"><g transform="matrix(1 0 0 1 0 0)"><image x="0" y="0" xlink:href="img_53.png" width="355" height="214" /></g></g><path transform="matrix(1 0 0 -1 0 841)" d="M48.39533 259.7793L48.39533 280.7871C 48.39533 281.3066 48.57846 281.748 48.94473 282.1152C 49.311 282.4805 49.75313 282.6621 50.27112 282.6621L50.27112 282.6621L544.7289 282.6621C 545.2468 282.6621 545.6889 282.4805 546.0552 282.1152C 546.4214 281.748 546.6046 281.3066 546.6047 280.7871L546.6047 280.7871L546.6047 259.7793C 546.6046 259.2617 546.4214 258.8203 546.0552 258.4531C 545.6889 258.0879 545.2468 257.9043 544.7289 257.9023L544.7289 257.9023L50.27112 257.9023C 49.75313 257.9043 49.311 258.0879 48.94473 258.4531C 48.57846 258.8203 48.39533 259.2617 48.39533 259.7793z" stroke="none" fill="#F8F8F8" fill-rule="winding" /><path transform="matrix(1 0 0 -1 0 841)" d="M48.39533 259.7793L48.39533 280.7871C 48.39533 281.3066 48.57846 281.748 48.94473 282.1152C 49.311 282.4805 49.75313 282.6621 50.27112 282.6621L50.27112 282.6621L544.7289 282.6621C 545.2468 282.6621 545.6889 282.4805 546.0552 282.1152C 546.4214 281.748 546.6046 281.3066 546.6047 280.7871L546.6047 280.7871L546.6047 259.7793C 546.6046 259.2617 546.4214 258.8203 546.0552 258.4531C 545.6889 258.0879 545.2468 257.9043 544.7289 257.9023L544.7289 257.9023L50.27112 257.9023C 49.75313 257.9043 49.311 258.0879 48.94473 258.4531C 48.57846 258.8203 48.39533 259.2617 48.39533 259.7793z" stroke="#E7EAED" stroke-width="0.7503152" fill="none" /></g><g clip-path="url(#5)"><path transform="matrix(1 0 0 -1 0 841)" d="M48.77049 276.2852L543.2282 276.2852L543.2282 276.2852L543.2282 262.7793L543.2282 262.7793L48.77049 262.7793z" stroke="none" fill="#F8F8F8" fill-rule="winding" /></g><g clip-path="url(#6)"><g transform="matrix(0.7503152 0 0 0.7503152 105.7944 594.7266)"><g transform="matrix(1 0 0 1 0 0)"><image x="0" y="0" xlink:href="img_54.png" width="511" height="211" /></g></g></g><g clip-path="url(#7)"><path transform="matrix(1 0 0 -1 0 841)" d="M48.77049 539.6465L543.2282 539.6465L543.2282 539.6465L543.2282 526.1406L543.2282 526.1406L48.77049 526.1406z" stroke="none" fill="#F8F8F8" fill-rule="winding" /><path transform="matrix(1 0 0 -1 0 841)" d="M48.77049 539.6465L69.77932 539.6465L69.77932 539.6465L69.77932 517.1367L69.77932 517.1367L48.77049 517.1367z" stroke="none" fill="#F8F8F8" fill-rule="winding" /><path transform="matrix(1 0 0 -1 0 841)" d="M69.029 539.6465L69.77932 539.6465L69.77932 539.6465L69.77932 517.1367L69.77932 517.1367L69.029 517.1367z" stroke="none" fill="#DDDDDD" fill-rule="winding" /></g><g clip-path="url(#8)"><path transform="matrix(1 0 0 -1 0 841)" d="M48.77049 276.2852L543.2282 276.2852L543.2282 276.2852L543.2282 262.7793L543.2282 262.7793L48.77049 262.7793z" stroke="none" fill="#F8F8F8" fill-rule="winding" /><path transform="matrix(1 0 0 -1 0 841)" d="M48.77049 276.2852L69.77932 276.2852L69.77932 276.2852L69.77932 253.7754L69.77932 253.7754L48.77049 253.7754z" stroke="none" fill="#F8F8F8" fill-rule="winding" /><path transform="matrix(1 0 0 -1 0 841)" d="M69.029 276.2852L69.77932 276.2852L69.77932 276.2852L69.77932 253.7754L69.77932 253.7754L69.029 253.7754z" stroke="none" fill="#DDDDDD" fill-rule="winding" /></g><g transform="matrix(0.2399193 0 0 0.2399322 0 -14.78003)"><g transform="matrix(1 0 0 1 0 0)"><image x="0" y="0" xlink:href="img_02.png" width="2480" height="295" /></g></g><g transform="matrix(0.4798387 0 0 0.4798876 0 798.29)"><g transform="matrix(1 0 0 1 0 0)"><image x="0" y="0" xlink:href="img_03.png" width="1240" height="89" /></g></g></g></g></g></svg>