<svg xmlns="http://www.w3.org/2000/svg" xmlns:xlink="http://www.w3.org/1999/xlink" id="body_70" preserveAspectRatio="xMinYMin meet" viewBox="0 0 793 1121"><defs><clipPath id="1"><path d="M0 841L0 0L0 0L595 0L595 0L595 841L595 841L0 841z" /></clipPath><clipPath id="2"><path d="M0 56L595 56L595 56L595 784.5547L595 784.5547L0 784.5547z" /></clipPath></defs><g transform="matrix(1.333333 0 0 1.333333 0 0)"><g><g clip-path="url(#1)"><g clip-path="url(#2)"><path transform="matrix(1 0 0 -1 0 841)" d="M0 51055.37L595 51055.37L595 51055.37L595 -6922.238L595 -6922.238L0 -6922.238z" stroke="none" fill="#FFFFFF" fill-rule="winding" /><path transform="matrix(1 0 0 -1 0 841)" d="M48.02018 295.043L51.02144 295.043L51.02144 295.043L51.02144 280.0391L51.02144 280.0391L48.02018 280.0391z" stroke="none" fill="#DFE2E5" fill-rule="winding" /><g transform="matrix(0.6652795 0 0 0.6672546 48.02018 129.5313)"><g transform="matrix(1 0 0 1 0 0)"><image x="0" y="0" xlink:href="img_134.png" width="750" height="271" /></g></g><path transform="matrix(1 0 0 -1 0 841)" d="M109.546 489.375L109.546 494.6289C 109.546 495.2539 109.7658 495.7813 110.2053 496.2227C 110.6448 496.6602 111.1754 496.8789 111.797 496.8789L111.797 496.8789L143.3102 496.8789C 143.9318 496.8789 144.4623 496.6602 144.9019 496.2227C 145.3414 495.7813 145.5611 495.2539 145.5612 494.6289L145.5612 494.6289L145.5612 489.375C 145.5611 488.7539 145.3414 488.2266 144.9019 487.7852C 144.4623 487.3477 143.9318 487.125 143.3102 487.125L143.3102 487.125L111.797 487.125C 111.1754 487.125 110.6448 487.3477 110.2053 487.7852C 109.7658 488.2266 109.546 488.7539 109.546 489.375z" stroke="none" fill="#F3F4F4" fill-rule="winding" /><path transform="matrix(1 0 0 -1 0 841)" d="M109.9212 489.375L109.9212 494.6289C 109.9212 495.1484 110.1043 495.5898 110.4706 495.957C 110.8369 496.3203 111.279 496.5039 111.797 496.5039L111.797 496.5039L143.3102 496.5039C 143.8282 496.5039 144.2703 496.3203 144.6366 495.957C 145.0029 495.5898 145.186 495.1484 145.186 494.6289L145.186 494.6289L145.186 489.375C 145.186 488.8594 145.0029 488.4219 144.6366 488.0508C 144.2703 487.6875 143.8282 487.5039 143.3102 487.5L143.3102 487.5L111.797 487.5C 111.279 487.5039 110.8369 487.6875 110.4706 488.0508C 110.1043 488.4219 109.9212 488.8594 109.9212 489.375z" stroke="#E7EAED" stroke-width="0.7503152" fill="none" /><path transform="matrix(1 0 0 -1 0 841)" d="M138.8083 473.6172L138.8083 478.8711C 138.8083 479.4922 139.0281 480.0273 139.4676 480.4648C 139.9071 480.9063 140.4377 481.1211 141.0593 481.1211L141.0593 481.1211L156.8159 481.1211C 157.4375 481.1211 157.968 480.9063 158.4075 480.4648C 158.847 480.0273 159.0668 479.4922 159.0668 478.8711L159.0668 478.8711L159.0668 473.6172C 159.0668 473.0039 158.847 472.4688 158.4075 472.0313C 157.968 471.5898 157.4375 471.375 156.8159 471.3672L156.8159 471.3672L141.0593 471.3672C 140.4377 471.375 139.9071 471.5898 139.4676 472.0313C 139.0281 472.4688 138.8083 473.0039 138.8083 473.6172z" stroke="none" fill="#F3F4F4" fill-rule="winding" /><path transform="matrix(1 0 0 -1 0 841)" d="M139.1835 473.6172L139.1835 478.8711C 139.1835 479.3945 139.3666 479.832 139.7329 480.2031C 140.0991 480.5664 140.5413 480.7461 141.0593 480.7461L141.0593 480.7461L156.8159 480.7461C 157.3339 480.7461 157.776 480.5664 158.1423 480.2031C 158.5085 479.832 158.6917 479.3945 158.6917 478.8711L158.6917 478.8711L158.6917 473.6172C 158.6917 473.1016 158.5085 472.6641 158.1423 472.293C 157.776 471.9297 157.3339 471.75 156.8159 471.7422L156.8159 471.7422L141.0593 471.7422C 140.5413 471.75 140.0991 471.9297 139.7329 472.293C 139.3666 472.6641 139.1835 473.1016 139.1835 473.6172z" stroke="#E7EAED" stroke-width="0.7503152" fill="none" /><path transform="matrix(1 0 0 -1 0 841)" d="M237.0996 473.6172L237.0996 478.8711C 237.0996 479.4922 237.3194 480.0273 237.7589 480.4648C 238.1984 480.9063 238.729 481.1211 239.3506 481.1211L239.3506 481.1211L244.6028 481.1211C 245.2243 481.1211 245.7549 480.9063 246.1944 480.4648C 246.6339 480.0273 246.8537 479.4922 246.8537 478.8711L246.8537 478.8711L246.8537 473.6172C 246.8537 473.0039 246.6339 472.4688 246.1944 472.0313C 245.7549 471.5898 245.2243 471.375 244.6028 471.3672L244.6028 471.3672L239.3506 471.3672C 238.729 471.375 238.1984 471.5898 237.7589 472.0313C 237.3194 472.4688 237.0996 473.0039 237.0996 473.6172z" stroke="none" fill="#F3F4F4" fill-rule="winding" /><path transform="matrix(1 0 0 -1 0 841)" d="M237.4748 473.6172L237.4748 478.8711C 237.4748 479.3945 237.6579 479.832 238.0242 480.2031C 238.3904 480.5664 238.8326 480.7461 239.3506 480.7461L239.3506 480.7461L244.6028 480.7461C 245.1207 480.7461 245.5629 480.5664 245.9291 480.2031C 246.2954 479.832 246.4785 479.3945 246.4786 478.8711L246.4786 478.8711L246.4786 473.6172C 246.4785 473.1016 246.2954 472.6641 245.9291 472.293C 245.5629 471.9297 245.1207 471.75 244.6028 471.7422L244.6028 471.7422L239.3506 471.7422C 238.8326 471.75 238.3904 471.9297 238.0242 472.293C 237.6579 472.6641 237.4748 473.1016 237.4748 473.6172z" stroke="#E7EAED" stroke-width="0.7503152" fill="none" /><path transform="matrix(1 0 0 -1 0 841)" d="M276.116 473.6172L276.116 478.8711C 276.116 479.4922 276.3358 480.0273 276.7753 480.4648C 277.2148 480.9063 277.7454 481.1211 278.3669 481.1211L278.3669 481.1211L283.6192 481.1211C 284.2408 481.1211 284.7713 480.9063 285.2108 480.4648C 285.6503 480.0273 285.8701 479.4922 285.8701 478.8711L285.8701 478.8711L285.8701 473.6172C 285.8701 473.0039 285.6503 472.4688 285.2108 472.0313C 284.7713 471.5898 284.2408 471.375 283.6192 471.3672L283.6192 471.3672L278.3669 471.3672C 277.7454 471.375 277.2148 471.5898 276.7753 472.0313C 276.3358 472.4688 276.116 473.0039 276.116 473.6172z" stroke="none" fill="#F3F4F4" fill-rule="winding" /><path transform="matrix(1 0 0 -1 0 841)" d="M276.4912 473.6172L276.4912 478.8711C 276.4911 479.3945 276.6743 479.832 277.0406 480.2031C 277.4068 480.5664 277.849 480.7461 278.3669 480.7461L278.3669 480.7461L283.6192 480.7461C 284.1371 480.7461 284.5793 480.5664 284.9456 480.2031C 285.3118 479.832 285.4949 479.3945 285.495 478.8711L285.495 478.8711L285.495 473.6172C 285.4949 473.1016 285.3118 472.6641 284.9456 472.293C 284.5793 471.9297 284.1371 471.75 283.6192 471.7422L283.6192 471.7422L278.3669 471.7422C 277.849 471.75 277.4068 471.9297 277.0406 472.293C 276.6743 472.6641 276.4911 473.1016 276.4912 473.6172z" stroke="#E7EAED" stroke-width="0.7503152" fill="none" /><path transform="matrix(1 0 0 -1 0 841)" d="M70.52963 457.8633L70.52963 463.1133C 70.52962 463.7422 70.74939 464.2695 71.18891 464.707C 71.62843 465.1484 72.15899 465.3672 72.78058 465.3672L72.78058 465.3672L104.2938 465.3672C 104.9154 465.3672 105.4459 465.1484 105.8855 464.707C 106.325 464.2695 106.5448 463.7422 106.5448 463.1133L106.5448 463.1133L106.5448 457.8633C 106.5448 457.2422 106.325 456.7148 105.8855 456.2734C 105.4459 455.8359 104.9154 455.6172 104.2938 455.6133L104.2938 455.6133L72.78058 455.6133C 72.15899 455.6172 71.62843 455.8359 71.18891 456.2734C 70.74939 456.7148 70.52962 457.2422 70.52963 457.8633z" stroke="none" fill="#F3F4F4" fill-rule="winding" /><path transform="matrix(1 0 0 -1 0 841)" d="M70.90479 457.8633L70.90479 463.1133C 70.90479 463.6367 71.08793 464.0742 71.45419 464.4453C 71.82047 464.8086 72.26259 464.9922 72.78058 464.9922L72.78058 464.9922L104.2938 464.9922C 104.8118 464.9922 105.2539 464.8086 105.6202 464.4453C 105.9865 464.0742 106.1696 463.6367 106.1696 463.1133L106.1696 463.1133L106.1696 457.8633C 106.1696 457.3477 105.9865 456.9063 105.6202 456.5391C 105.2539 456.168 104.8118 455.9883 104.2938 455.9883L104.2938 455.9883L72.78058 455.9883C 72.26259 455.9883 71.82047 456.168 71.45419 456.5391C 71.08793 456.9063 70.90479 457.3477 70.90479 457.8633z" stroke="#E7EAED" stroke-width="0.7503152" fill="none" /><path transform="matrix(1 0 0 -1 0 841)" d="M70.52963 442.1055L70.52963 447.3594C 70.52962 447.9844 70.74939 448.5117 71.18891 448.9531C 71.62843 449.3906 72.15899 449.6094 72.78058 449.6094L72.78058 449.6094L104.2938 449.6094C 104.9154 449.6094 105.4459 449.3906 105.8855 448.9531C 106.325 448.5117 106.5448 447.9844 106.5448 447.3594L106.5448 447.3594L106.5448 442.1055C 106.5448 441.4844 106.325 440.957 105.8855 440.5156C 105.4459 440.0781 104.9154 439.8555 104.2938 439.8555L104.2938 439.8555L72.78058 439.8555C 72.15899 439.8555 71.62843 440.0781 71.18891 440.5156C 70.74939 440.957 70.52962 441.4844 70.52963 442.1055z" stroke="none" fill="#F3F4F4" fill-rule="winding" /><path transform="matrix(1 0 0 -1 0 841)" d="M70.90479 442.1055L70.90479 447.3594C 70.90479 447.8789 71.08793 448.3203 71.45419 448.6875C 71.82047 449.0508 72.26259 449.2344 72.78058 449.2344L72.78058 449.2344L104.2938 449.2344C 104.8118 449.2344 105.2539 449.0508 105.6202 448.6875C 105.9865 448.3203 106.1696 447.8789 106.1696 447.3594L106.1696 447.3594L106.1696 442.1055C 106.1696 441.5898 105.9865 441.1484 105.6202 440.7852C 105.2539 440.418 104.8118 440.2344 104.2938 440.2305L104.2938 440.2305L72.78058 440.2305C 72.26259 440.2344 71.82047 440.418 71.45419 440.7852C 71.08793 441.1484 70.90479 441.5898 70.90479 442.1055z" stroke="#E7EAED" stroke-width="0.7503152" fill="none" /><path transform="matrix(1 0 0 -1 0 841)" d="M207.8373 442.1055L207.8373 447.3594C 207.8373 447.9844 208.0571 448.5117 208.4966 448.9531C 208.9361 449.3906 209.4667 449.6094 210.0883 449.6094L210.0883 449.6094L241.6015 449.6094C 242.2231 449.6094 242.7536 449.3906 243.1932 448.9531C 243.6327 448.5117 243.8524 447.9844 243.8525 447.3594L243.8525 447.3594L243.8525 442.1055C 243.8524 441.4844 243.6327 440.957 243.1932 440.5156C 242.7536 440.0781 242.2231 439.8555 241.6015 439.8555L241.6015 439.8555L210.0883 439.8555C 209.4667 439.8555 208.9361 440.0781 208.4966 440.5156C 208.0571 440.957 207.8373 441.4844 207.8373 442.1055z" stroke="none" fill="#F3F4F4" fill-rule="winding" /><path transform="matrix(1 0 0 -1 0 841)" d="M208.2125 442.1055L208.2125 447.3594C 208.2125 447.8789 208.3956 448.3203 208.7619 448.6875C 209.1281 449.0508 209.5703 449.2344 210.0883 449.2344L210.0883 449.2344L241.6015 449.2344C 242.1195 449.2344 242.5616 449.0508 242.9279 448.6875C 243.2942 448.3203 243.4773 447.8789 243.4773 447.3594L243.4773 447.3594L243.4773 442.1055C 243.4773 441.5898 243.2942 441.1484 242.9279 440.7852C 242.5616 440.418 242.1195 440.2344 241.6015 440.2305L241.6015 440.2305L210.0883 440.2305C 209.5703 440.2344 209.1281 440.418 208.7619 440.7852C 208.3956 441.1484 208.2125 441.5898 208.2125 442.1055z" stroke="#E7EAED" stroke-width="0.7503152" fill="none" /></g><g transform="matrix(0.2399193 0 0 0.2399322 0 -14.78003)"><g transform="matrix(1 0 0 1 0 0)"><image x="0" y="0" xlink:href="img_02.png" width="2480" height="295" /></g></g><g transform="matrix(0.4798387 0 0 0.4798876 0 798.29)"><g transform="matrix(1 0 0 1 0 0)"><image x="0" y="0" xlink:href="img_03.png" width="1240" height="89" /></g></g></g></g></g></svg>