<svg xmlns="http://www.w3.org/2000/svg" xmlns:xlink="http://www.w3.org/1999/xlink" id="body_33" preserveAspectRatio="xMinYMin meet" viewBox="0 0 793 1121"><defs><clipPath id="1"><path d="M0 841L0 0L0 0L595 0L595 0L595 841L595 841L0 841z" /></clipPath><clipPath id="2"><path d="M0 56L595 56L595 56L595 784.5566L595 784.5566L0 784.5566z" /></clipPath><clipPath id="3"><path d="M48.77049 521.1953L543.2282 521.1953L543.2282 521.1953L543.2282 629.2422L543.2282 629.2422L48.77049 629.2422z" /></clipPath><clipPath id="4"><path d="M0 56L595 56L595 56L595 784.5566L595 784.5566L0 784.5566z" /></clipPath><clipPath id="5"><path d="M48.77049 521.1953L543.2282 521.1953L543.2282 521.1953L543.2282 629.2422L543.2282 629.2422L48.77049 629.2422z" /></clipPath></defs><g transform="matrix(1.333333 0 0 1.333333 0 0)"><g><g clip-path="url(#1)"><g clip-path="url(#2)"><path transform="matrix(1 0 0 -1 0 841)" d="M0 24098.79L595 24098.79L595 24098.79L595 -8605.195L595 -8605.195L0 -8605.195z" stroke="none" fill="#FFFFFF" fill-rule="winding" /><g transform="matrix(0.6380558 0 0 0.6381186 48.02018 78.50977)"><g transform="matrix(1 0 0 1 0 0)"><image x="0" y="0" xlink:href="img_71.png" width="782" height="428" /></g></g><g transform="matrix(0.4581815 0 0 0.4600698 48.02018 391.3906)"><g transform="matrix(1 0 0 1 0 0)"><image x="0" y="0" xlink:href="img_72.png" width="1089" height="243" /></g></g><path transform="matrix(1 0 0 -1 0 841)" d="M48.39533 208.7578L48.39533 324.3066C 48.39533 324.8242 48.57846 325.2676 48.94473 325.6328C 49.311 325.998 49.75313 326.1816 50.27112 326.1816L50.27112 326.1816L544.7289 326.1816C 545.2468 326.1816 545.6889 325.998 546.0552 325.6328C 546.4214 325.2676 546.6046 324.8242 546.6047 324.3066L546.6047 324.3066L546.6047 208.7578C 546.6046 208.2402 546.4214 207.7988 546.0552 207.4336C 545.6889 207.0664 545.2468 206.8828 544.7289 206.8809L544.7289 206.8809L50.27112 206.8809C 49.75313 206.8828 49.311 207.0664 48.94473 207.4336C 48.57846 207.7988 48.39533 208.2402 48.39533 208.7578z" stroke="none" fill="#F8F8F8" fill-rule="winding" /><path transform="matrix(1 0 0 -1 0 841)" d="M48.39533 208.7578L48.39533 324.3066C 48.39533 324.8242 48.57846 325.2676 48.94473 325.6328C 49.311 325.998 49.75313 326.1816 50.27112 326.1816L50.27112 326.1816L544.7289 326.1816C 545.2468 326.1816 545.6889 325.998 546.0552 325.6328C 546.4214 325.2676 546.6046 324.8242 546.6047 324.3066L546.6047 324.3066L546.6047 208.7578C 546.6046 208.2402 546.4214 207.7988 546.0552 207.4336C 545.6889 207.0664 545.2468 206.8828 544.7289 206.8809L544.7289 206.8809L50.27112 206.8809C 49.75313 206.8828 49.311 207.0664 48.94473 207.4336C 48.57846 207.7988 48.39533 208.2402 48.39533 208.7578z" stroke="#E7EAED" stroke-width="0.7503152" fill="none" /></g><g clip-path="url(#3)"><path transform="matrix(1 0 0 -1 0 841)" d="M48.77049 319.8047L543.2282 319.8047L543.2282 319.8047L543.2282 211.7578L543.2282 211.7578L48.77049 211.7578z" stroke="none" fill="#F8F8F8" fill-rule="winding" /></g><g clip-path="url(#4)"></g><g clip-path="url(#5)"><path transform="matrix(1 0 0 -1 0 841)" d="M48.77049 319.8047L543.2282 319.8047L543.2282 319.8047L543.2282 211.7578L543.2282 211.7578L48.77049 211.7578z" stroke="none" fill="#F8F8F8" fill-rule="winding" /><path transform="matrix(1 0 0 -1 0 841)" d="M48.77049 319.8047L69.77932 319.8047L69.77932 319.8047L69.77932 181.7461L69.77932 181.7461L48.77049 181.7461z" stroke="none" fill="#F8F8F8" fill-rule="winding" /><path transform="matrix(1 0 0 -1 0 841)" d="M69.029 319.8047L69.77932 319.8047L69.77932 319.8047L69.77932 181.7461L69.77932 181.7461L69.029 181.7461z" stroke="none" fill="#DDDDDD" fill-rule="winding" /></g><g transform="matrix(0.2399193 0 0 0.2399322 0 -14.78003)"><g transform="matrix(1 0 0 1 0 0)"><image x="0" y="0" xlink:href="img_02.png" width="2480" height="295" /></g></g><g transform="matrix(0.4798387 0 0 0.4798876 0 798.29)"><g transform="matrix(1 0 0 1 0 0)"><image x="0" y="0" xlink:href="img_03.png" width="1240" height="89" /></g></g></g></g></g></svg>