<svg xmlns="http://www.w3.org/2000/svg" xmlns:xlink="http://www.w3.org/1999/xlink" id="body_18" preserveAspectRatio="xMinYMin meet" viewBox="0 0 793 1121"><defs><clipPath id="1"><path d="M0 841L0 0L0 0L595 0L595 0L595 841L595 841L0 841z" /></clipPath><clipPath id="2"><path d="M0 56L595 56L595 56L595 784.5557L595 784.5557L0 784.5557z" /></clipPath><clipPath id="3"><path d="M48.77049 468.6729L543.2282 468.6729L543.2282 468.6729L543.2282 725.2813L543.2282 725.2813L48.77049 725.2813z" /></clipPath><clipPath id="4"><path d="M0 56L595 56L595 56L595 784.5557L595 784.5557L0 784.5557z" /></clipPath><clipPath id="5"><path d="M48.77049 468.6729L543.2282 468.6729L543.2282 468.6729L543.2282 725.2813L543.2282 725.2813L48.77049 725.2813z" /></clipPath></defs><g transform="matrix(1.333333 0 0 1.333333 0 0)"><g><g clip-path="url(#1)"><g clip-path="url(#2)"><path transform="matrix(1 0 0 -1 0 841)" d="M0 13170.45L595 13170.45L595 13170.45L595 -19533.54L595 -19533.54L0 -19533.54z" stroke="none" fill="#FFFFFF" fill-rule="winding" /><path transform="matrix(1 0 0 -1 0 841)" d="M62.27617 724.5996C 62.27617 724.083 62.09303 723.6396 61.72676 723.2734C 61.36049 722.9072 60.91836 722.7246 60.40038 722.7246C 59.88239 722.7246 59.44026 722.9072 59.07399 723.2734C 58.70772 723.6396 58.52458 724.083 58.52459 724.5996C 58.52458 725.1172 58.70772 725.5596 59.07399 725.9258C 59.44026 726.293 59.88239 726.4756 60.40038 726.4756C 60.91836 726.4756 61.36049 726.293 61.72676 725.9258C 62.09303 725.5596 62.27617 725.1172 62.27617 724.5996z" stroke="none" fill="#333333" fill-rule="winding" /><path transform="matrix(1 0 0 -1 0 841)" d="M84.78562 704.3418C 84.78562 703.8242 84.60249 703.3828 84.23622 703.0166C 83.86995 702.6504 83.42782 702.4668 82.90984 702.4658C 82.39185 702.4668 81.94971 702.6504 81.58344 703.0166C 81.21717 703.3828 81.03404 703.8242 81.03405 704.3418C 81.03404 704.8604 81.21717 705.3027 81.58344 705.6689C 81.94971 706.0342 82.39185 706.2168 82.90984 706.2168C 83.42782 706.2168 83.86995 706.0342 84.23622 705.6689C 84.60249 705.3027 84.78562 704.8604 84.78562 704.3418z" stroke="#333333" stroke-width="0.7503152" fill="none" /><path transform="matrix(1 0 0 -1 0 841)" d="M62.27617 689.335C 62.27617 688.8174 62.09303 688.375 61.72676 688.0088C 61.36049 687.6426 60.91836 687.459 60.40038 687.459C 59.88239 687.459 59.44026 687.6426 59.07399 688.0088C 58.70772 688.375 58.52458 688.8174 58.52459 689.335C 58.52458 689.8535 58.70772 690.2969 59.07399 690.6631C 59.44026 691.0273 59.88239 691.2109 60.40038 691.2109C 60.91836 691.2109 61.36049 691.0273 61.72676 690.6631C 62.09303 690.2969 62.27617 689.8535 62.27617 689.335z" stroke="none" fill="#333333" fill-rule="winding" /><path transform="matrix(1 0 0 -1 0 841)" d="M84.78562 669.8271C 84.78562 669.3096 84.60249 668.8682 84.23622 668.502C 83.86995 668.1357 83.42782 667.9521 82.90984 667.9512C 82.39185 667.9521 81.94971 668.1357 81.58344 668.502C 81.21717 668.8682 81.03404 669.3096 81.03405 669.8271C 81.03404 670.3457 81.21717 670.7881 81.58344 671.1543C 81.94971 671.5195 82.39185 671.7031 82.90984 671.7031C 83.42782 671.7031 83.86995 671.5195 84.23622 671.1543C 84.60249 670.7881 84.78562 670.3457 84.78562 669.8271z" stroke="#333333" stroke-width="0.7503152" fill="none" /><g transform="matrix(0.5644341 0 0 0.5657457 48.02018 209.0645)"><g transform="matrix(1 0 0 1 0 0)"><image x="0" y="0" xlink:href="img_36.png" width="884" height="374" /></g></g><path transform="matrix(1 0 0 -1 0 841)" d="M48.39533 112.7178L48.39533 376.8291C 48.39533 377.3477 48.57846 377.79 48.94473 378.1563C 49.311 378.5215 49.75313 378.7041 50.27112 378.7041L50.27112 378.7041L544.7289 378.7041C 545.2468 378.7041 545.6889 378.5215 546.0552 378.1563C 546.4214 377.79 546.6046 377.3477 546.6047 376.8291L546.6047 376.8291L546.6047 112.7178C 546.6046 112.2002 546.4214 111.7578 546.0552 111.3926C 545.6889 111.0264 545.2468 110.8438 544.7289 110.8418L544.7289 110.8418L50.27112 110.8418C 49.75313 110.8438 49.311 111.0264 48.94473 111.3926C 48.57846 111.7578 48.39533 112.2002 48.39533 112.7178z" stroke="none" fill="#F8F8F8" fill-rule="winding" /><path transform="matrix(1 0 0 -1 0 841)" d="M48.39533 112.7178L48.39533 376.8291C 48.39533 377.3477 48.57846 377.79 48.94473 378.1563C 49.311 378.5215 49.75313 378.7041 50.27112 378.7041L50.27112 378.7041L544.7289 378.7041C 545.2468 378.7041 545.6889 378.5215 546.0552 378.1563C 546.4214 377.79 546.6046 377.3477 546.6047 376.8291L546.6047 376.8291L546.6047 112.7178C 546.6046 112.2002 546.4214 111.7578 546.0552 111.3926C 545.6889 111.0264 545.2468 110.8438 544.7289 110.8418L544.7289 110.8418L50.27112 110.8418C 49.75313 110.8438 49.311 111.0264 48.94473 111.3926C 48.57846 111.7578 48.39533 112.2002 48.39533 112.7178z" stroke="#E7EAED" stroke-width="0.7503152" fill="none" /></g><g clip-path="url(#3)"><path transform="matrix(1 0 0 -1 0 841)" d="M48.77049 372.3271L543.2282 372.3271L543.2282 372.3271L543.2282 115.7188L543.2282 115.7188L48.77049 115.7188z" stroke="none" fill="#F8F8F8" fill-rule="winding" /></g><g clip-path="url(#4)"></g><g clip-path="url(#5)"><path transform="matrix(1 0 0 -1 0 841)" d="M48.77049 372.3271L543.2282 372.3271L543.2282 372.3271L543.2282 115.7188L543.2282 115.7188L48.77049 115.7188z" stroke="none" fill="#F8F8F8" fill-rule="winding" /><path transform="matrix(1 0 0 -1 0 841)" d="M48.77049 372.3271L75.78184 372.3271L75.78184 372.3271L75.78184 44.43945L75.78184 44.43945L48.77049 44.43945z" stroke="none" fill="#F8F8F8" fill-rule="winding" /><path transform="matrix(1 0 0 -1 0 841)" d="M75.03152 372.3271L75.78184 372.3271L75.78184 372.3271L75.78184 44.43945L75.78184 44.43945L75.03152 44.43945z" stroke="none" fill="#DDDDDD" fill-rule="winding" /></g><g transform="matrix(0.2399193 0 0 0.2399322 0 -14.78003)"><g transform="matrix(1 0 0 1 0 0)"><image x="0" y="0" xlink:href="img_02.png" width="2480" height="295" /></g></g><g transform="matrix(0.4798387 0 0 0.4798876 0 798.29)"><g transform="matrix(1 0 0 1 0 0)"><image x="0" y="0" xlink:href="img_03.png" width="1240" height="89" /></g></g></g></g></g></svg>