<svg xmlns="http://www.w3.org/2000/svg" xmlns:xlink="http://www.w3.org/1999/xlink" id="body_6" preserveAspectRatio="xMinYMin meet" viewBox="0 0 793 1121"><defs><clipPath id="1"><path d="M0 841L0 0L0 0L595 0L595 0L595 841L595 841L0 841z" /></clipPath><clipPath id="2"><path d="M0 56L595 56L595 56L595 784.5559L595 784.5559L0 784.5559z" /></clipPath><clipPath id="3"><path d="M48.77049 56L543.2282 56L543.2282 56L543.2282 407.1475L543.2282 407.1475L48.77049 407.1475z" /></clipPath><clipPath id="4"><path d="M0 56L595 56L595 56L595 784.5559L595 784.5559L0 784.5559z" /></clipPath><clipPath id="5"><path d="M48.77049 461.9207L543.2282 461.9207L543.2282 461.9207L543.2282 784.5559L543.2282 784.5559L48.77049 784.5559z" /></clipPath><clipPath id="6"><path d="M48.77049 56L543.2282 56L543.2282 56L543.2282 407.1475L543.2282 407.1475L48.77049 407.1475z" /></clipPath><clipPath id="7"><path d="M48.77049 461.9207L543.2282 461.9207L543.2282 461.9207L543.2282 784.5559L543.2282 784.5559L48.77049 784.5559z" /></clipPath></defs><g transform="matrix(1.333333 0 0 1.333333 0 0)"><g><g clip-path="url(#1)"><g clip-path="url(#2)"><path transform="matrix(1 0 0 -1 0 841)" d="M0 4427.78L595 4427.78L595 4427.78L595 -28276.21L595 -28276.21L0 -28276.21z" stroke="none" fill="#FFFFFF" fill-rule="winding" /><path transform="matrix(1 0 0 -1 0 841)" d="M48.39533 430.8508L48.39533 1055.113C 48.39533 1055.631 48.57846 1056.073 48.94473 1056.44C 49.311 1056.806 49.75313 1056.989 50.27112 1056.989L50.27112 1056.989L544.7289 1056.989C 545.2468 1056.989 545.6889 1056.806 546.0552 1056.44C 546.4214 1056.073 546.6046 1055.631 546.6047 1055.113L546.6047 1055.113L546.6047 430.8508C 546.6046 430.3333 546.4214 429.8911 546.0552 429.5251C 545.6889 429.1587 545.2468 428.9756 544.7289 428.9751L544.7289 428.9751L50.27112 428.9751C 49.75313 428.9756 49.311 429.1587 48.94473 429.5251C 48.57846 429.8911 48.39533 430.3333 48.39533 430.8508z" stroke="none" fill="#F8F8F8" fill-rule="winding" /><path transform="matrix(1 0 0 -1 0 841)" d="M48.39533 430.8508L48.39533 1055.113C 48.39533 1055.631 48.57846 1056.073 48.94473 1056.44C 49.311 1056.806 49.75313 1056.989 50.27112 1056.989L50.27112 1056.989L544.7289 1056.989C 545.2468 1056.989 545.6889 1056.806 546.0552 1056.44C 546.4214 1056.073 546.6046 1055.631 546.6047 1055.113L546.6047 1055.113L546.6047 430.8508C 546.6046 430.3333 546.4214 429.8911 546.0552 429.5251C 545.6889 429.1587 545.2468 428.9756 544.7289 428.9751L544.7289 428.9751L50.27112 428.9751C 49.75313 428.9756 49.311 429.1587 48.94473 429.5251C 48.57846 429.8911 48.39533 430.3333 48.39533 430.8508z" stroke="#E7EAED" stroke-width="0.7503152" fill="none" /></g><g clip-path="url(#3)"><path transform="matrix(1 0 0 -1 0 841)" d="M48.77049 1050.611L543.2282 1050.611L543.2282 1050.611L543.2282 433.8523L543.2282 433.8523L48.77049 433.8523z" stroke="none" fill="#F8F8F8" fill-rule="winding" /></g><g clip-path="url(#4)"><path transform="matrix(1 0 0 -1 0 841)" d="M48.39533 -608.3354L48.39533 383.5811C 48.39533 384.0996 48.57846 384.5417 48.94473 384.908C 49.311 385.2742 49.75313 385.4568 50.27112 385.4568L50.27112 385.4568L544.7289 385.4568C 545.2468 385.4568 545.6889 385.2742 546.0552 384.908C 546.4214 384.5417 546.6046 384.0996 546.6047 383.5811L546.6047 383.5811L546.6047 -608.3354C 546.6046 -608.8535 546.4214 -609.2954 546.0552 -609.6616C 545.6889 -610.0278 545.2468 -610.2109 544.7289 -610.2114L544.7289 -610.2114L50.27112 -610.2114C 49.75313 -610.2109 49.311 -610.0278 48.94473 -609.6616C 48.57846 -609.2954 48.39533 -608.8535 48.39533 -608.3354z" stroke="none" fill="#F8F8F8" fill-rule="winding" /><path transform="matrix(1 0 0 -1 0 841)" d="M48.39533 -608.3354L48.39533 383.5811C 48.39533 384.0996 48.57846 384.5417 48.94473 384.908C 49.311 385.2742 49.75313 385.4568 50.27112 385.4568L50.27112 385.4568L544.7289 385.4568C 545.2468 385.4568 545.6889 385.2742 546.0552 384.908C 546.4214 384.5417 546.6046 384.0996 546.6047 383.5811L546.6047 383.5811L546.6047 -608.3354C 546.6046 -608.8535 546.4214 -609.2954 546.0552 -609.6616C 545.6889 -610.0278 545.2468 -610.2109 544.7289 -610.2114L544.7289 -610.2114L50.27112 -610.2114C 49.75313 -610.2109 49.311 -610.0278 48.94473 -609.6616C 48.57846 -609.2954 48.39533 -608.8535 48.39533 -608.3354z" stroke="#E7EAED" stroke-width="0.7503152" fill="none" /></g><g clip-path="url(#5)"><path transform="matrix(1 0 0 -1 0 841)" d="M48.77049 379.0791L543.2282 379.0791L543.2282 379.0791L543.2282 -605.3345L543.2282 -605.3345L48.77049 -605.3345z" stroke="none" fill="#F8F8F8" fill-rule="winding" /></g><g clip-path="url(#6)"><path transform="matrix(1 0 0 -1 0 841)" d="M48.77049 1050.611L543.2282 1050.611L543.2282 1050.611L543.2282 433.8523L543.2282 433.8523L48.77049 433.8523z" stroke="none" fill="#F8F8F8" fill-rule="winding" /><path transform="matrix(1 0 0 -1 0 841)" d="M48.77049 1050.611L75.78184 1050.611L75.78184 1050.611L75.78184 274.0352L75.78184 274.0352L48.77049 274.0352z" stroke="none" fill="#F8F8F8" fill-rule="winding" /><path transform="matrix(1 0 0 -1 0 841)" d="M75.03152 1050.611L75.78184 1050.611L75.78184 1050.611L75.78184 274.0352L75.78184 274.0352L75.03152 274.0352z" stroke="none" fill="#DDDDDD" fill-rule="winding" /></g><g clip-path="url(#7)"><path transform="matrix(1 0 0 -1 0 841)" d="M48.77049 379.0791L543.2282 379.0791L543.2282 379.0791L543.2282 -605.3345L543.2282 -605.3345L48.77049 -605.3345z" stroke="none" fill="#F8F8F8" fill-rule="winding" /><path transform="matrix(1 0 0 -1 0 841)" d="M48.77049 379.0791L75.78184 379.0791L75.78184 379.0791L75.78184 -863.4429L75.78184 -863.4429L48.77049 -863.4429z" stroke="none" fill="#F8F8F8" fill-rule="winding" /><path transform="matrix(1 0 0 -1 0 841)" d="M75.03152 379.0791L75.78184 379.0791L75.78184 379.0791L75.78184 -863.4429L75.78184 -863.4429L75.03152 -863.4429z" stroke="none" fill="#DDDDDD" fill-rule="winding" /></g><g transform="matrix(0.2399193 0 0 0.2399322 0 -14.78003)"><g transform="matrix(1 0 0 1 0 0)"><image x="0" y="0" xlink:href="img_02.png" width="2480" height="295" /></g></g><g transform="matrix(0.4798387 0 0 0.4798876 0 798.29)"><g transform="matrix(1 0 0 1 0 0)"><image x="0" y="0" xlink:href="img_03.png" width="1240" height="89" /></g></g></g></g></g></svg>