<svg xmlns="http://www.w3.org/2000/svg" xmlns:xlink="http://www.w3.org/1999/xlink" id="body_16" preserveAspectRatio="xMinYMin meet" viewBox="0 0 793 1121"><defs><clipPath id="1"><path d="M0 841L0 0L0 0L595 0L595 0L595 841L595 841L0 841z" /></clipPath><clipPath id="2"><path d="M0 56L595 56L595 56L595 784.5557L595 784.5557L0 784.5557z" /></clipPath><clipPath id="3"><path d="M150.744 588.7236L157.5528 588.7236L157.5528 588.7236L157.5528 591.1992L157.5528 591.1992L150.744 591.1992L150.744 591.1992L150.744 588.7236zM63.49813 588.7236L60.7567 588.7236L60.7567 588.7236L60.7567 591.1992L60.7567 591.1992L63.49813 591.1992L63.49813 591.1992L63.49813 588.7236zM0 56L0 784.5557L0 784.5557L595 784.5557L595 784.5557L595 56L595 56L0 56z" /></clipPath><clipPath id="4"><path d="M0 56L595 56L595 56L595 784.5557L595 784.5557L0 784.5557z" /></clipPath></defs><g transform="matrix(1.333333 0 0 1.333333 0 0)"><g><g clip-path="url(#1)"><g clip-path="url(#2)"><path transform="matrix(1 0 0 -1 0 841)" d="M0 11713.34L595 11713.34L595 11713.34L595 -20990.65L595 -20990.65L0 -20990.65z" stroke="none" fill="#FFFFFF" fill-rule="winding" /><g transform="matrix(0.4607199 0 0 0.4599693 48.02018 56)"><g transform="matrix(1 0 0 1 0 0)"><image x="0" y="0" xlink:href="img_30.png" width="1083" height="491" /></g></g><g transform="matrix(0.7503153 0 0 0.7503152 90.03783 312.6074)"><g transform="matrix(1 0 0 1 0 0)"><image x="0" y="0" xlink:href="img_31.png" width="553" height="312" /></g></g></g><g clip-path="url(#3)"><path transform="matrix(1 0 0 -1 0 841)" d="M48.02018 251.5264L398.6988 251.5264L398.6988 251.5264L398.6988 250.7754L398.6988 250.7754L48.02018 250.7754z" stroke="none" fill="#4183C4" fill-rule="winding" /></g><g clip-path="url(#4)"></g><g transform="matrix(0.2399193 0 0 0.2399322 0 -14.78003)"><g transform="matrix(1 0 0 1 0 0)"><image x="0" y="0" xlink:href="img_02.png" width="2480" height="295" /></g></g><g transform="matrix(0.4798387 0 0 0.4798876 0 798.29)"><g transform="matrix(1 0 0 1 0 0)"><image x="0" y="0" xlink:href="img_03.png" width="1240" height="89" /></g></g></g></g></g></svg>