<svg xmlns="http://www.w3.org/2000/svg" xmlns:xlink="http://www.w3.org/1999/xlink" id="body_22" preserveAspectRatio="xMinYMin meet" viewBox="0 0 793 1121"><defs><clipPath id="1"><path d="M0 841L0 0L0 0L595 0L595 0L595 841L595 841L0 841z" /></clipPath><clipPath id="2"><path d="M0 56L595 56L595 56L595 784.5557L595 784.5557L0 784.5557z" /></clipPath><clipPath id="3"><path d="M48.77049 62.75195L543.2282 62.75195L543.2282 62.75195L543.2282 427.4053L543.2282 427.4053L48.77049 427.4053z" /></clipPath><clipPath id="4"><path d="M0 56L595 56L595 56L595 784.5557L595 784.5557L0 784.5557z" /></clipPath><clipPath id="5"><path d="M48.77049 62.75195L543.2282 62.75195L543.2282 62.75195L543.2282 427.4053L543.2282 427.4053L48.77049 427.4053z" /></clipPath></defs><g transform="matrix(1.333333 0 0 1.333333 0 0)"><g><g clip-path="url(#1)"><g clip-path="url(#2)"><path transform="matrix(1 0 0 -1 0 841)" d="M0 16084.68L595 16084.68L595 16084.68L595 -16619.31L595 -16619.31L0 -16619.31z" stroke="none" fill="#FFFFFF" fill-rule="winding" /><path transform="matrix(1 0 0 -1 0 841)" d="M48.39533 410.5928L48.39533 782.75C 48.39533 783.2686 48.57846 783.7109 48.94473 784.0762C 49.311 784.4424 49.75313 784.625 50.27112 784.625L50.27112 784.625L544.7289 784.625C 545.2468 784.625 545.6889 784.4424 546.0552 784.0762C 546.4214 783.7109 546.6046 783.2686 546.6047 782.75L546.6047 782.75L546.6047 410.5928C 546.6046 410.0762 546.4214 409.6348 546.0552 409.2686C 545.6889 408.9023 545.2468 408.7188 544.7289 408.7178L544.7289 408.7178L50.27112 408.7178C 49.75313 408.7188 49.311 408.9023 48.94473 409.2686C 48.57846 409.6348 48.39533 410.0762 48.39533 410.5928z" stroke="none" fill="#F8F8F8" fill-rule="winding" /><path transform="matrix(1 0 0 -1 0 841)" d="M48.39533 410.5928L48.39533 782.75C 48.39533 783.2686 48.57846 783.7109 48.94473 784.0762C 49.311 784.4424 49.75313 784.625 50.27112 784.625L50.27112 784.625L544.7289 784.625C 545.2468 784.625 545.6889 784.4424 546.0552 784.0762C 546.4214 783.7109 546.6046 783.2686 546.6047 782.75L546.6047 782.75L546.6047 410.5928C 546.6046 410.0762 546.4214 409.6348 546.0552 409.2686C 545.6889 408.9023 545.2468 408.7188 544.7289 408.7178L544.7289 408.7178L50.27112 408.7178C 49.75313 408.7188 49.311 408.9023 48.94473 409.2686C 48.57846 409.6348 48.39533 410.0762 48.39533 410.5928z" stroke="#E7EAED" stroke-width="0.7503152" fill="none" /></g><g clip-path="url(#3)"><path transform="matrix(1 0 0 -1 0 841)" d="M48.77049 778.248L543.2282 778.248L543.2282 778.248L543.2282 413.5947L543.2282 413.5947L48.77049 413.5947z" stroke="none" fill="#F8F8F8" fill-rule="winding" /></g><g clip-path="url(#4)"></g><g clip-path="url(#5)"><path transform="matrix(1 0 0 -1 0 841)" d="M48.77049 778.248L543.2282 778.248L543.2282 778.248L543.2282 413.5947L543.2282 413.5947L48.77049 413.5947z" stroke="none" fill="#F8F8F8" fill-rule="winding" /><path transform="matrix(1 0 0 -1 0 841)" d="M48.77049 778.248L75.78184 778.248L75.78184 778.248L75.78184 312.3018L75.78184 312.3018L48.77049 312.3018z" stroke="none" fill="#F8F8F8" fill-rule="winding" /><path transform="matrix(1 0 0 -1 0 841)" d="M75.03152 778.248L75.78184 778.248L75.78184 778.248L75.78184 312.3018L75.78184 312.3018L75.03152 312.3018z" stroke="none" fill="#DDDDDD" fill-rule="winding" /></g><g transform="matrix(0.2399193 0 0 0.2399322 0 -14.78003)"><g transform="matrix(1 0 0 1 0 0)"><image x="0" y="0" xlink:href="img_02.png" width="2480" height="295" /></g></g><g transform="matrix(0.4798387 0 0 0.4798876 0 798.29)"><g transform="matrix(1 0 0 1 0 0)"><image x="0" y="0" xlink:href="img_03.png" width="1240" height="89" /></g></g></g></g></g></svg>