<svg xmlns="http://www.w3.org/2000/svg" xmlns:xlink="http://www.w3.org/1999/xlink" id="body_38" preserveAspectRatio="xMinYMin meet" viewBox="0 0 793 1121"><defs><clipPath id="1"><path d="M0 841L0 0L0 0L595 0L595 0L595 841L595 841L0 841z" /></clipPath><clipPath id="2"><path d="M0 56L595 56L595 56L595 784.5566L595 784.5566L0 784.5566z" /></clipPath></defs><g transform="matrix(1.333333 0 0 1.333333 0 0)"><g><g clip-path="url(#1)"><g clip-path="url(#2)"><path transform="matrix(1 0 0 -1 0 841)" d="M0 27741.58L595 27741.58L595 27741.58L595 -4962.414L595 -4962.414L0 -4962.414z" stroke="none" fill="#FFFFFF" fill-rule="winding" /><g transform="matrix(0.4935308 0 0 0.4930643 48.02018 56)"><g transform="matrix(1 0 0 1 0 0)"><image x="0" y="0" xlink:href="img_83.png" width="1011" height="630" /></g></g><path transform="matrix(1 0 0 -1 0 841)" d="M48.02018 439.1055L546.9798 439.1055L546.9798 439.1055L546.9798 438.3555L546.9798 438.3555L48.02018 438.3555z" stroke="none" fill="#EEEEEE" fill-rule="winding" /><g transform="matrix(0.5477054 0 0 0.5481026 48.02018 482.1797)"><g transform="matrix(1 0 0 1 0 0)"><image x="0" y="0" xlink:href="img_84.png" width="911" height="282" /></g></g><path transform="matrix(1 0 0 -1 0 841)" d="M62.27617 188.875C 62.27617 188.3594 62.09303 187.916 61.72676 187.5508C 61.36049 187.1836 60.91836 187.002 60.40038 186.998C 59.88239 187.002 59.44026 187.1836 59.07399 187.5508C 58.70772 187.916 58.52458 188.3594 58.52459 188.875C 58.52458 189.3926 58.70772 189.8359 59.07399 190.2031C 59.44026 190.5684 59.88239 190.75 60.40038 190.75C 60.91836 190.75 61.36049 190.5684 61.72676 190.2031C 62.09303 189.8359 62.27617 189.3926 62.27617 188.875z" stroke="none" fill="#333333" fill-rule="winding" /><path transform="matrix(1 0 0 -1 0 841)" d="M84.78562 168.6172C 84.78562 168.0977 84.60249 167.6582 84.23622 167.291C 83.86995 166.9258 83.42782 166.7402 82.90984 166.7402C 82.39185 166.7402 81.94971 166.9258 81.58344 167.291C 81.21717 167.6582 81.03404 168.0977 81.03405 168.6172C 81.03404 169.1348 81.21717 169.5781 81.58344 169.9434C 81.94971 170.3105 82.39185 170.4922 82.90984 170.4922C 83.42782 170.4922 83.86995 170.3105 84.23622 169.9434C 84.60249 169.5781 84.78562 169.1348 84.78562 168.6172z" stroke="#333333" stroke-width="0.7503152" fill="none" /><path transform="matrix(1 0 0 -1 0 841)" d="M84.78562 138.6035C 84.78562 138.0879 84.60249 137.6445 84.23622 137.2793C 83.86995 136.9121 83.42782 136.7305 82.90984 136.7285C 82.39185 136.7305 81.94971 136.9121 81.58344 137.2793C 81.21717 137.6445 81.03404 138.0879 81.03405 138.6035C 81.03404 139.123 81.21717 139.5645 81.58344 139.9316C 81.94971 140.2969 82.39185 140.4785 82.90984 140.4785C 83.42782 140.4785 83.86995 140.2969 84.23622 139.9316C 84.60249 139.5645 84.78562 139.123 84.78562 138.6035z" stroke="#333333" stroke-width="0.7503152" fill="none" /><path transform="matrix(1 0 0 -1 0 841)" d="M62.27617 123.5977C 62.27617 123.082 62.09303 122.6387 61.72676 122.2734C 61.36049 121.9063 60.91836 121.7246 60.40038 121.7207C 59.88239 121.7246 59.44026 121.9063 59.07399 122.2734C 58.70772 122.6387 58.52458 123.082 58.52459 123.5977C 58.52458 124.1152 58.70772 124.5586 59.07399 124.9258C 59.44026 125.291 59.88239 125.4727 60.40038 125.4727C 60.91836 125.4727 61.36049 125.291 61.72676 124.9258C 62.09303 124.5586 62.27617 124.1152 62.27617 123.5977z" stroke="none" fill="#333333" fill-rule="winding" /><path transform="matrix(1 0 0 -1 0 841)" d="M62.27617 104.0898C 62.27617 103.5742 62.09303 103.1309 61.72676 102.7637C 61.36049 102.3984 60.91836 102.2168 60.40038 102.2129C 59.88239 102.2168 59.44026 102.3984 59.07399 102.7637C 58.70772 103.1309 58.52458 103.5742 58.52459 104.0898C 58.52458 104.6074 58.70772 105.0508 59.07399 105.416C 59.44026 105.7832 59.88239 105.9648 60.40038 105.9648C 60.91836 105.9648 61.36049 105.7832 61.72676 105.416C 62.09303 105.0508 62.27617 104.6074 62.27617 104.0898z" stroke="none" fill="#333333" fill-rule="winding" /><path transform="matrix(1 0 0 -1 0 841)" d="M62.27617 83.83008C 62.27617 83.31445 62.09303 82.87305 61.72676 82.50586C 61.36049 82.13867 60.91836 81.95703 60.40038 81.95508C 59.88239 81.95703 59.44026 82.13867 59.07399 82.50586C 58.70772 82.87305 58.52458 83.31445 58.52459 83.83008C 58.52458 84.34961 58.70772 84.79102 59.07399 85.1582C 59.44026 85.52539 59.88239 85.70703 60.40038 85.70703C 60.91836 85.70703 61.36049 85.52539 61.72676 85.1582C 62.09303 84.79102 62.27617 84.34961 62.27617 83.83008z" stroke="none" fill="#333333" fill-rule="winding" /></g><g transform="matrix(0.2399193 0 0 0.2399322 0 -14.78003)"><g transform="matrix(1 0 0 1 0 0)"><image x="0" y="0" xlink:href="img_02.png" width="2480" height="295" /></g></g><g transform="matrix(0.4798387 0 0 0.4798876 0 798.29)"><g transform="matrix(1 0 0 1 0 0)"><image x="0" y="0" xlink:href="img_03.png" width="1240" height="89" /></g></g></g></g></g></svg>