<svg xmlns="http://www.w3.org/2000/svg" xmlns:xlink="http://www.w3.org/1999/xlink" id="body_34" preserveAspectRatio="xMinYMin meet" viewBox="0 0 793 1121"><defs><clipPath id="1"><path d="M0 841L0 0L0 0L595 0L595 0L595 841L595 841L0 841z" /></clipPath><clipPath id="2"><path d="M0 56L595 56L595 56L595 784.5566L595 784.5566L0 784.5566z" /></clipPath><clipPath id="3"><path d="M48.77049 311.1074L543.2282 311.1074L543.2282 311.1074L543.2282 459.6699L543.2282 459.6699L48.77049 459.6699z" /></clipPath><clipPath id="4"><path d="M0 56L595 56L595 56L595 784.5566L595 784.5566L0 784.5566z" /></clipPath><clipPath id="5"><path d="M48.77049 311.1074L543.2282 311.1074L543.2282 311.1074L543.2282 459.6699L543.2282 459.6699L48.77049 459.6699z" /></clipPath></defs><g transform="matrix(1.333333 0 0 1.333333 0 0)"><g><g clip-path="url(#1)"><g clip-path="url(#2)"><path transform="matrix(1 0 0 -1 0 841)" d="M0 24827.35L595 24827.35L595 24827.35L595 -7876.639L595 -7876.639L0 -7876.639z" stroke="none" fill="#FFFFFF" fill-rule="winding" /><g transform="matrix(0.7503152 0 0 0.7503152 69.77932 56)"><g transform="matrix(1 0 0 1 0 0)"><image x="0" y="0" xlink:href="img_74.png" width="607" height="243" /></g></g><path transform="matrix(1 0 0 -1 0 841)" d="M48.39533 378.3301L48.39533 534.3945C 48.39533 534.9141 48.57846 535.3574 48.94473 535.7246C 49.311 536.0879 49.75313 536.2715 50.27112 536.2715L50.27112 536.2715L544.7289 536.2715C 545.2468 536.2715 545.6889 536.0879 546.0552 535.7246C 546.4214 535.3574 546.6046 534.9141 546.6047 534.3945L546.6047 534.3945L546.6047 378.3301C 546.6046 377.8125 546.4214 377.3691 546.0552 377.0039C 545.6889 376.6387 545.2468 376.4551 544.7289 376.4551L544.7289 376.4551L50.27112 376.4551C 49.75313 376.4551 49.311 376.6387 48.94473 377.0039C 48.57846 377.3691 48.39533 377.8125 48.39533 378.3301z" stroke="none" fill="#F8F8F8" fill-rule="winding" /><path transform="matrix(1 0 0 -1 0 841)" d="M48.39533 378.3301L48.39533 534.3945C 48.39533 534.9141 48.57846 535.3574 48.94473 535.7246C 49.311 536.0879 49.75313 536.2715 50.27112 536.2715L50.27112 536.2715L544.7289 536.2715C 545.2468 536.2715 545.6889 536.0879 546.0552 535.7246C 546.4214 535.3574 546.6046 534.9141 546.6047 534.3945L546.6047 534.3945L546.6047 378.3301C 546.6046 377.8125 546.4214 377.3691 546.0552 377.0039C 545.6889 376.6387 545.2468 376.4551 544.7289 376.4551L544.7289 376.4551L50.27112 376.4551C 49.75313 376.4551 49.311 376.6387 48.94473 377.0039C 48.57846 377.3691 48.39533 377.8125 48.39533 378.3301z" stroke="#E7EAED" stroke-width="0.7503152" fill="none" /></g><g clip-path="url(#3)"><path transform="matrix(1 0 0 -1 0 841)" d="M48.77049 529.8926L543.2282 529.8926L543.2282 529.8926L543.2282 381.3301L543.2282 381.3301L48.77049 381.3301z" stroke="none" fill="#F8F8F8" fill-rule="winding" /></g><g clip-path="url(#4)"><path transform="matrix(1 0 0 -1 0 841)" d="M62.27617 330.6836C 62.27617 330.166 62.09303 329.7266 61.72676 329.3594C 61.36049 328.9922 60.91836 328.8105 60.40038 328.8086C 59.88239 328.8105 59.44026 328.9922 59.07399 329.3594C 58.70772 329.7266 58.52458 330.166 58.52459 330.6836C 58.52458 331.2031 58.70772 331.6445 59.07399 332.0117C 59.44026 332.377 59.88239 332.5605 60.40038 332.5605C 60.91836 332.5605 61.36049 332.377 61.72676 332.0117C 62.09303 331.6445 62.27617 331.2031 62.27617 330.6836z" stroke="none" fill="#333333" fill-rule="winding" /><path transform="matrix(1 0 0 -1 0 841)" d="M62.27617 315.6777C 62.27617 315.1621 62.09303 314.7207 61.72676 314.3555C 61.36049 313.9883 60.91836 313.8027 60.40038 313.8027C 59.88239 313.8027 59.44026 313.9883 59.07399 314.3555C 58.70772 314.7207 58.52458 315.1621 58.52459 315.6777C 58.52458 316.1973 58.70772 316.6387 59.07399 317.0059C 59.44026 317.3711 59.88239 317.5527 60.40038 317.5527C 60.91836 317.5527 61.36049 317.3711 61.72676 317.0059C 62.09303 316.6387 62.27617 316.1973 62.27617 315.6777z" stroke="none" fill="#333333" fill-rule="winding" /><g transform="matrix(0.4742962 0 0 0.4748831 48.02018 554.959)"><g transform="matrix(1 0 0 1 0 0)"><image x="0" y="0" xlink:href="img_75.png" width="1052" height="395" /></g></g></g><g clip-path="url(#5)"><path transform="matrix(1 0 0 -1 0 841)" d="M48.77049 529.8926L543.2282 529.8926L543.2282 529.8926L543.2282 381.3301L543.2282 381.3301L48.77049 381.3301z" stroke="none" fill="#F8F8F8" fill-rule="winding" /><path transform="matrix(1 0 0 -1 0 841)" d="M48.77049 529.8926L75.78184 529.8926L75.78184 529.8926L75.78184 340.0625L75.78184 340.0625L48.77049 340.0625z" stroke="none" fill="#F8F8F8" fill-rule="winding" /><path transform="matrix(1 0 0 -1 0 841)" d="M75.03152 529.8926L75.78184 529.8926L75.78184 529.8926L75.78184 340.0625L75.78184 340.0625L75.03152 340.0625z" stroke="none" fill="#DDDDDD" fill-rule="winding" /></g><g transform="matrix(0.2399193 0 0 0.2399322 0 -14.78003)"><g transform="matrix(1 0 0 1 0 0)"><image x="0" y="0" xlink:href="img_02.png" width="2480" height="295" /></g></g><g transform="matrix(0.4798387 0 0 0.4798876 0 798.29)"><g transform="matrix(1 0 0 1 0 0)"><image x="0" y="0" xlink:href="img_03.png" width="1240" height="89" /></g></g></g></g></g></svg>