<svg xmlns="http://www.w3.org/2000/svg" xmlns:xlink="http://www.w3.org/1999/xlink" id="body_13" preserveAspectRatio="xMinYMin meet" viewBox="0 0 793 1121"><defs><clipPath id="1"><path d="M0 841L0 0L0 0L595 0L595 0L595 841L595 841L0 841z" /></clipPath><clipPath id="2"><path d="M0 56L595 56L595 56L595 784.5566L595 784.5566L0 784.5566z" /></clipPath><clipPath id="3"><path d="M48.77049 620.9883L543.2282 620.9883L543.2282 620.9883L543.2282 784.5566L543.2282 784.5566L48.77049 784.5566z" /></clipPath></defs><g transform="matrix(1.333333 0 0 1.333333 0 0)"><g><g clip-path="url(#1)"><g clip-path="url(#2)"><path transform="matrix(1 0 0 -1 0 841)" d="M0 9527.673L595 9527.673L595 9527.673L595 -23176.32L595 -23176.32L0 -23176.32z" stroke="none" fill="#FFFFFF" fill-rule="winding" /><g transform="matrix(0.7503153 0 0 0.7503152 61.52585 56)"><g transform="matrix(1 0 0 1 0 0)"><image x="0" y="0" xlink:href="img_26.png" width="629" height="586" /></g></g><path transform="matrix(1 0 0 -1 0 841)" d="M48.39533 -108.626L48.39533 224.5137C 48.39533 225.0332 48.57846 225.4756 48.94473 225.8408C 49.311 226.207 49.75313 226.3896 50.27112 226.3896L50.27112 226.3896L544.7289 226.3896C 545.2468 226.3896 545.6889 226.207 546.0552 225.8408C 546.4214 225.4756 546.6046 225.0332 546.6047 224.5137L546.6047 224.5137L546.6047 -108.626C 546.6046 -109.1436 546.4214 -109.5859 546.0552 -109.9521C 545.6889 -110.3174 545.2468 -110.501 544.7289 -110.502L544.7289 -110.502L50.27112 -110.502C 49.75313 -110.501 49.311 -110.3174 48.94473 -109.9521C 48.57846 -109.5859 48.39533 -109.1436 48.39533 -108.626z" stroke="none" fill="#F8F8F8" fill-rule="winding" /><path transform="matrix(1 0 0 -1 0 841)" d="M48.39533 -108.626L48.39533 224.5137C 48.39533 225.0332 48.57846 225.4756 48.94473 225.8408C 49.311 226.207 49.75313 226.3896 50.27112 226.3896L50.27112 226.3896L544.7289 226.3896C 545.2468 226.3896 545.6889 226.207 546.0552 225.8408C 546.4214 225.4756 546.6046 225.0332 546.6047 224.5137L546.6047 224.5137L546.6047 -108.626C 546.6046 -109.1436 546.4214 -109.5859 546.0552 -109.9521C 545.6889 -110.3174 545.2468 -110.501 544.7289 -110.502L544.7289 -110.502L50.27112 -110.502C 49.75313 -110.501 49.311 -110.3174 48.94473 -109.9521C 48.57846 -109.5859 48.39533 -109.1436 48.39533 -108.626z" stroke="#E7EAED" stroke-width="0.7503152" fill="none" /></g><g clip-path="url(#3)"><path transform="matrix(1 0 0 -1 0 841)" d="M48.77049 220.0117L543.2282 220.0117L543.2282 220.0117L543.2282 -105.625L543.2282 -105.625L48.77049 -105.625z" stroke="none" fill="#F8F8F8" fill-rule="winding" /><path transform="matrix(1 0 0 -1 0 841)" d="M48.77049 220.0117L543.2282 220.0117L543.2282 220.0117L543.2282 -105.625L543.2282 -105.625L48.77049 -105.625z" stroke="none" fill="#F8F8F8" fill-rule="winding" /><path transform="matrix(1 0 0 -1 0 841)" d="M48.77049 220.0117L75.78184 220.0117L75.78184 220.0117L75.78184 -194.1621L75.78184 -194.1621L48.77049 -194.1621z" stroke="none" fill="#F8F8F8" fill-rule="winding" /><path transform="matrix(1 0 0 -1 0 841)" d="M75.03152 220.0117L75.78184 220.0117L75.78184 220.0117L75.78184 -194.1621L75.78184 -194.1621L75.03152 -194.1621z" stroke="none" fill="#DDDDDD" fill-rule="winding" /></g><g transform="matrix(0.2399193 0 0 0.2399322 0 -14.78003)"><g transform="matrix(1 0 0 1 0 0)"><image x="0" y="0" xlink:href="img_02.png" width="2480" height="295" /></g></g><g transform="matrix(0.4798387 0 0 0.4798876 0 798.29)"><g transform="matrix(1 0 0 1 0 0)"><image x="0" y="0" xlink:href="img_03.png" width="1240" height="89" /></g></g></g></g></g></svg>