<svg xmlns="http://www.w3.org/2000/svg" xmlns:xlink="http://www.w3.org/1999/xlink" id="body_24" preserveAspectRatio="xMinYMin meet" viewBox="0 0 793 1121"><defs><clipPath id="1"><path d="M0 841L0 0L0 0L595 0L595 0L595 841L595 841L0 841z" /></clipPath><clipPath id="2"><path d="M0 56L595 56L595 56L595 784.5547L595 784.5547L0 784.5547z" /></clipPath><clipPath id="3"><path d="M194.8708 119.7754L197.6122 119.7754L197.6122 119.7754L197.6122 122.252L197.6122 122.252L194.8708 122.252L194.8708 122.252L194.8708 119.7754zM92.76043 119.7754L90.019 119.7754L90.019 119.7754L90.019 122.252L90.019 122.252L92.76043 122.252L92.76043 122.252L92.76043 119.7754zM0 56L0 784.5547L0 784.5547L595 784.5547L595 784.5547L595 56L595 56L0 56z" /></clipPath><clipPath id="4"><path d="M0 56L595 56L595 56L595 784.5547L595 784.5547L0 784.5547z" /></clipPath><clipPath id="5"><path d="M48.77049 171.5488L543.2282 171.5488L543.2282 171.5488L543.2282 360.627L543.2282 360.627L48.77049 360.627z" /></clipPath><clipPath id="6"><path d="M0 56L595 56L595 56L595 784.5547L595 784.5547L0 784.5547z" /></clipPath><clipPath id="7"><path d="M48.77049 171.5488L543.2282 171.5488L543.2282 171.5488L543.2282 360.627L543.2282 360.627L48.77049 360.627z" /></clipPath></defs><g transform="matrix(1.333333 0 0 1.333333 0 0)"><g><g clip-path="url(#1)"><g clip-path="url(#2)"><path transform="matrix(1 0 0 -1 0 841)" d="M0 17541.79L595 17541.79L595 17541.79L595 -15162.2L595 -15162.2L0 -15162.2z" stroke="none" fill="#FFFFFF" fill-rule="winding" /></g><g clip-path="url(#3)"><path transform="matrix(1 0 0 -1 0 841)" d="M77.28247 720.4727L269.3397 720.4727L269.3397 720.4727L269.3397 719.7227L269.3397 719.7227L77.28247 719.7227z" stroke="none" fill="#4183C4" fill-rule="winding" /></g><g clip-path="url(#4)"><path transform="matrix(1 0 0 -1 0 841)" d="M48.39533 477.3711L48.39533 673.9531C 48.39533 674.4727 48.57846 674.916 48.94473 675.2813C 49.311 675.6465 49.75313 675.8301 50.27112 675.8301L50.27112 675.8301L544.7289 675.8301C 545.2468 675.8301 545.6889 675.6465 546.0552 675.2813C 546.4214 674.916 546.6046 674.4727 546.6047 673.9531L546.6047 673.9531L546.6047 477.3711C 546.6046 476.8535 546.4214 476.4121 546.0552 476.0469C 545.6889 475.6797 545.2468 475.4961 544.7289 475.4961L544.7289 475.4961L50.27112 475.4961C 49.75313 475.4961 49.311 475.6797 48.94473 476.0469C 48.57846 476.4121 48.39533 476.8535 48.39533 477.3711z" stroke="none" fill="#F8F8F8" fill-rule="winding" /><path transform="matrix(1 0 0 -1 0 841)" d="M48.39533 477.3711L48.39533 673.9531C 48.39533 674.4727 48.57846 674.916 48.94473 675.2813C 49.311 675.6465 49.75313 675.8301 50.27112 675.8301L50.27112 675.8301L544.7289 675.8301C 545.2468 675.8301 545.6889 675.6465 546.0552 675.2813C 546.4214 674.916 546.6046 674.4727 546.6047 673.9531L546.6047 673.9531L546.6047 477.3711C 546.6046 476.8535 546.4214 476.4121 546.0552 476.0469C 545.6889 475.6797 545.2468 475.4961 544.7289 475.4961L544.7289 475.4961L50.27112 475.4961C 49.75313 475.4961 49.311 475.6797 48.94473 476.0469C 48.57846 476.4121 48.39533 476.8535 48.39533 477.3711z" stroke="#E7EAED" stroke-width="0.7503152" fill="none" /></g><g clip-path="url(#5)"><path transform="matrix(1 0 0 -1 0 841)" d="M48.77049 669.4512L543.2282 669.4512L543.2282 669.4512L543.2282 480.373L543.2282 480.373L48.77049 480.373z" stroke="none" fill="#F8F8F8" fill-rule="winding" /></g><g clip-path="url(#6)"><g transform="matrix(0.4235651 0 0 0.4238527 48.02018 377.1348)"><g transform="matrix(1 0 0 1 0 0)"><image x="0" y="0" xlink:href="img_47.png" width="1178" height="547" /></g></g></g><g clip-path="url(#7)"><path transform="matrix(1 0 0 -1 0 841)" d="M48.77049 669.4512L543.2282 669.4512L543.2282 669.4512L543.2282 480.373L543.2282 480.373L48.77049 480.373z" stroke="none" fill="#F8F8F8" fill-rule="winding" /><path transform="matrix(1 0 0 -1 0 841)" d="M48.77049 669.4512L75.78184 669.4512L75.78184 669.4512L75.78184 427.8496L75.78184 427.8496L48.77049 427.8496z" stroke="none" fill="#F8F8F8" fill-rule="winding" /><path transform="matrix(1 0 0 -1 0 841)" d="M75.03152 669.4512L75.78184 669.4512L75.78184 669.4512L75.78184 427.8496L75.78184 427.8496L75.03152 427.8496z" stroke="none" fill="#DDDDDD" fill-rule="winding" /></g><g transform="matrix(0.2399193 0 0 0.2399322 0 -14.78003)"><g transform="matrix(1 0 0 1 0 0)"><image x="0" y="0" xlink:href="img_02.png" width="2480" height="295" /></g></g><g transform="matrix(0.4798387 0 0 0.4798876 0 798.29)"><g transform="matrix(1 0 0 1 0 0)"><image x="0" y="0" xlink:href="img_03.png" width="1240" height="89" /></g></g></g></g></g></svg>