<svg xmlns="http://www.w3.org/2000/svg" xmlns:xlink="http://www.w3.org/1999/xlink" id="body_53" preserveAspectRatio="xMinYMin meet" viewBox="0 0 793 1121"><defs><clipPath id="1"><path d="M0 841L0 0L0 0L595 0L595 0L595 841L595 841L0 841z" /></clipPath><clipPath id="2"><path d="M0 56L595 56L595 56L595 784.5547L595 784.5547L0 784.5547z" /></clipPath><clipPath id="3"><path d="M48.77049 56L543.2282 56L543.2282 56L543.2282 784.5547L543.2282 784.5547L48.77049 784.5547z" /></clipPath></defs><g transform="matrix(1.333333 0 0 1.333333 0 0)"><g><g clip-path="url(#1)"><g clip-path="url(#2)"><path transform="matrix(1 0 0 -1 0 841)" d="M0 38669.92L595 38669.92L595 38669.92L595 -19307.69L595 -19307.69L0 -19307.69z" stroke="none" fill="#FFFFFF" fill-rule="winding" /><path transform="matrix(1 0 0 -1 0 841)" d="M48.39533 12.92578L48.39533 1179.668C 48.39533 1180.184 48.57846 1180.629 48.94473 1180.992C 49.311 1181.359 49.75313 1181.543 50.27112 1181.543L50.27112 1181.543L544.7289 1181.543C 545.2468 1181.543 545.6889 1181.359 546.0552 1180.992C 546.4214 1180.629 546.6046 1180.184 546.6047 1179.668L546.6047 1179.668L546.6047 12.92578C 546.6046 12.41016 546.4214 11.96875 546.0552 11.60156C 545.6889 11.23438 545.2468 11.05469 544.7289 11.05078L544.7289 11.05078L50.27112 11.05078C 49.75313 11.05469 49.311 11.23438 48.94473 11.60156C 48.57846 11.96875 48.39533 12.41016 48.39533 12.92578z" stroke="none" fill="#F8F8F8" fill-rule="winding" /><path transform="matrix(1 0 0 -1 0 841)" d="M48.39533 12.92578L48.39533 1179.668C 48.39533 1180.184 48.57846 1180.629 48.94473 1180.992C 49.311 1181.359 49.75313 1181.543 50.27112 1181.543L50.27112 1181.543L544.7289 1181.543C 545.2468 1181.543 545.6889 1181.359 546.0552 1180.992C 546.4214 1180.629 546.6046 1180.184 546.6047 1179.668L546.6047 1179.668L546.6047 12.92578C 546.6046 12.41016 546.4214 11.96875 546.0552 11.60156C 545.6889 11.23438 545.2468 11.05469 544.7289 11.05078L544.7289 11.05078L50.27112 11.05078C 49.75313 11.05469 49.311 11.23438 48.94473 11.60156C 48.57846 11.96875 48.39533 12.41016 48.39533 12.92578z" stroke="#E7EAED" stroke-width="0.7503152" fill="none" /></g><g clip-path="url(#3)"><path transform="matrix(1 0 0 -1 0 841)" d="M48.77049 1175.164L543.2282 1175.164L543.2282 1175.164L543.2282 15.92578L543.2282 15.92578L48.77049 15.92578z" stroke="none" fill="#F8F8F8" fill-rule="winding" /><path transform="matrix(1 0 0 -1 0 841)" d="M48.77049 1175.164L543.2282 1175.164L543.2282 1175.164L543.2282 15.92578L543.2282 15.92578L48.77049 15.92578z" stroke="none" fill="#F8F8F8" fill-rule="winding" /><path transform="matrix(1 0 0 -1 0 841)" d="M48.77049 1175.164L75.78184 1175.164L75.78184 1175.164L75.78184 -274.4453L75.78184 -274.4453L48.77049 -274.4453z" stroke="none" fill="#F8F8F8" fill-rule="winding" /><path transform="matrix(1 0 0 -1 0 841)" d="M75.03152 1175.164L75.78184 1175.164L75.78184 1175.164L75.78184 -274.4453L75.78184 -274.4453L75.03152 -274.4453z" stroke="none" fill="#DDDDDD" fill-rule="winding" /></g><g transform="matrix(0.2399193 0 0 0.2399322 0 -14.78003)"><g transform="matrix(1 0 0 1 0 0)"><image x="0" y="0" xlink:href="img_02.png" width="2480" height="295" /></g></g><g transform="matrix(0.4798387 0 0 0.4798876 0 798.29)"><g transform="matrix(1 0 0 1 0 0)"><image x="0" y="0" xlink:href="img_03.png" width="1240" height="89" /></g></g></g></g></g></svg>