<svg xmlns="http://www.w3.org/2000/svg" xmlns:xlink="http://www.w3.org/1999/xlink" id="body_17" preserveAspectRatio="xMinYMin meet" viewBox="0 0 793 1121"><defs><clipPath id="1"><path d="M0 841L0 0L0 0L595 0L595 0L595 841L595 841L0 841z" /></clipPath><clipPath id="2"><path d="M0 56L595 56L595 56L595 784.5566L595 784.5566L0 784.5566z" /></clipPath><clipPath id="3"><path d="M48.77049 592.4756L543.2282 592.4756L543.2282 592.4756L543.2282 727.5322L543.2282 727.5322L48.77049 727.5322z" /></clipPath><clipPath id="4"><path d="M0 56L595 56L595 56L595 784.5566L595 784.5566L0 784.5566z" /></clipPath><clipPath id="5"><path d="M48.77049 592.4756L543.2282 592.4756L543.2282 592.4756L543.2282 727.5322L543.2282 727.5322L48.77049 727.5322z" /></clipPath></defs><g transform="matrix(1.333333 0 0 1.333333 0 0)"><g><g clip-path="url(#1)"><g clip-path="url(#2)"><path transform="matrix(1 0 0 -1 0 841)" d="M0 12441.9L595 12441.9L595 12441.9L595 -45535.71L595 -45535.71L0 -45535.71z" stroke="none" fill="#FFFFFF" fill-rule="winding" /><g transform="matrix(0.7503152 0 0 0.7503152 163.5687 56)"><g transform="matrix(1 0 0 1 0 0)"><image x="0" y="0" xlink:href="img_36.png" width="358" height="593" /></g></g><path transform="matrix(1 0 0 -1 0 841)" d="M48.39533 110.4668L48.39533 253.0264C 48.39533 253.5449 48.57846 253.9873 48.94473 254.3535C 49.311 254.7188 49.75313 254.9023 50.27112 254.9023L50.27112 254.9023L544.7289 254.9023C 545.2468 254.9023 545.6889 254.7188 546.0552 254.3535C 546.4214 253.9873 546.6046 253.5449 546.6047 253.0264L546.6047 253.0264L546.6047 110.4668C 546.6046 109.9492 546.4214 109.5078 546.0552 109.1416C 545.6889 108.7754 545.2468 108.5918 544.7289 108.5908L544.7289 108.5908L50.27112 108.5908C 49.75313 108.5918 49.311 108.7754 48.94473 109.1416C 48.57846 109.5078 48.39533 109.9492 48.39533 110.4668z" stroke="none" fill="#F8F8F8" fill-rule="winding" /><path transform="matrix(1 0 0 -1 0 841)" d="M48.39533 110.4668L48.39533 253.0264C 48.39533 253.5449 48.57846 253.9873 48.94473 254.3535C 49.311 254.7188 49.75313 254.9023 50.27112 254.9023L50.27112 254.9023L544.7289 254.9023C 545.2468 254.9023 545.6889 254.7188 546.0552 254.3535C 546.4214 253.9873 546.6046 253.5449 546.6047 253.0264L546.6047 253.0264L546.6047 110.4668C 546.6046 109.9492 546.4214 109.5078 546.0552 109.1416C 545.6889 108.7754 545.2468 108.5918 544.7289 108.5908L544.7289 108.5908L50.27112 108.5908C 49.75313 108.5918 49.311 108.7754 48.94473 109.1416C 48.57846 109.5078 48.39533 109.9492 48.39533 110.4668z" stroke="#E7EAED" stroke-width="0.7503152" fill="none" /></g><g clip-path="url(#3)"><path transform="matrix(1 0 0 -1 0 841)" d="M48.77049 248.5244L543.2282 248.5244L543.2282 248.5244L543.2282 113.4678L543.2282 113.4678L48.77049 113.4678z" stroke="none" fill="#F8F8F8" fill-rule="winding" /></g><g clip-path="url(#4)"></g><g clip-path="url(#5)"><path transform="matrix(1 0 0 -1 0 841)" d="M48.77049 248.5244L543.2282 248.5244L543.2282 248.5244L543.2282 113.4678L543.2282 113.4678L48.77049 113.4678z" stroke="none" fill="#F8F8F8" fill-rule="winding" /><path transform="matrix(1 0 0 -1 0 841)" d="M48.77049 248.5244L75.78184 248.5244L75.78184 248.5244L75.78184 75.95215L75.78184 75.95215L48.77049 75.95215z" stroke="none" fill="#F8F8F8" fill-rule="winding" /><path transform="matrix(1 0 0 -1 0 841)" d="M75.03152 248.5244L75.78184 248.5244L75.78184 248.5244L75.78184 75.95215L75.78184 75.95215L75.03152 75.95215z" stroke="none" fill="#DDDDDD" fill-rule="winding" /></g><g transform="matrix(0.2399193 0 0 0.2399322 0 -14.78003)"><g transform="matrix(1 0 0 1 0 0)"><image x="0" y="0" xlink:href="img_02.png" width="2480" height="295" /></g></g><g transform="matrix(0.4798387 0 0 0.4798876 0 798.29)"><g transform="matrix(1 0 0 1 0 0)"><image x="0" y="0" xlink:href="img_03.png" width="1240" height="89" /></g></g></g></g></g></svg>