<svg xmlns="http://www.w3.org/2000/svg" xmlns:xlink="http://www.w3.org/1999/xlink" id="body_60" preserveAspectRatio="xMinYMin meet" viewBox="0 0 793 1121"><defs><clipPath id="1"><path d="M0 841L0 0L0 0L595 0L595 0L595 841L595 841L0 841z" /></clipPath><clipPath id="2"><path d="M0 56L595 56L595 56L595 784.5586L595 784.5586L0 784.5586z" /></clipPath><clipPath id="3"><path d="M48.77049 56L543.2282 56L543.2282 56L543.2282 407.1484L543.2282 407.1484L48.77049 407.1484z" /></clipPath><clipPath id="4"><path d="M0 56L595 56L595 56L595 784.5586L595 784.5586L0 784.5586z" /></clipPath><clipPath id="5"><path d="M48.77049 56L543.2282 56L543.2282 56L543.2282 407.1484L543.2282 407.1484L48.77049 407.1484z" /></clipPath></defs><g transform="matrix(1.333333 0 0 1.333333 0 0)"><g><g clip-path="url(#1)"><g clip-path="url(#2)"><path transform="matrix(1 0 0 -1 0 841)" d="M0 43769.81L595 43769.81L595 43769.81L595 -14207.8L595 -14207.8L0 -14207.8z" stroke="none" fill="#FFFFFF" fill-rule="winding" /><path transform="matrix(1 0 0 -1 0 841)" d="M48.39533 430.8477L48.39533 964.3242C 48.39533 964.8438 48.57846 965.2891 48.94473 965.6523C 49.311 966.0195 49.75313 966.1992 50.27112 966.1992L50.27112 966.1992L544.7289 966.1992C 545.2468 966.1992 545.6889 966.0195 546.0552 965.6523C 546.4214 965.2891 546.6046 964.8438 546.6047 964.3242L546.6047 964.3242L546.6047 430.8477C 546.6046 430.332 546.4214 429.8945 546.0552 429.5273C 545.6889 429.1602 545.2468 428.9766 544.7289 428.9727L544.7289 428.9727L50.27112 428.9727C 49.75313 428.9766 49.311 429.1602 48.94473 429.5273C 48.57846 429.8945 48.39533 430.332 48.39533 430.8477z" stroke="none" fill="#F8F8F8" fill-rule="winding" /><path transform="matrix(1 0 0 -1 0 841)" d="M48.39533 430.8477L48.39533 964.3242C 48.39533 964.8438 48.57846 965.2891 48.94473 965.6523C 49.311 966.0195 49.75313 966.1992 50.27112 966.1992L50.27112 966.1992L544.7289 966.1992C 545.2468 966.1992 545.6889 966.0195 546.0552 965.6523C 546.4214 965.2891 546.6046 964.8438 546.6047 964.3242L546.6047 964.3242L546.6047 430.8477C 546.6046 430.332 546.4214 429.8945 546.0552 429.5273C 545.6889 429.1602 545.2468 428.9766 544.7289 428.9727L544.7289 428.9727L50.27112 428.9727C 49.75313 428.9766 49.311 429.1602 48.94473 429.5273C 48.57846 429.8945 48.39533 430.332 48.39533 430.8477z" stroke="#E7EAED" stroke-width="0.7503152" fill="none" /></g><g clip-path="url(#3)"><path transform="matrix(1 0 0 -1 0 841)" d="M48.77049 959.8203L543.2282 959.8203L543.2282 959.8203L543.2282 433.8516L543.2282 433.8516L48.77049 433.8516z" stroke="none" fill="#F8F8F8" fill-rule="winding" /></g><g clip-path="url(#4)"></g><g clip-path="url(#5)"><path transform="matrix(1 0 0 -1 0 841)" d="M48.77049 959.8203L543.2282 959.8203L543.2282 959.8203L543.2282 433.8516L543.2282 433.8516L48.77049 433.8516z" stroke="none" fill="#F8F8F8" fill-rule="winding" /><path transform="matrix(1 0 0 -1 0 841)" d="M48.77049 959.8203L75.78184 959.8203L75.78184 959.8203L75.78184 304.0469L75.78184 304.0469L48.77049 304.0469z" stroke="none" fill="#F8F8F8" fill-rule="winding" /><path transform="matrix(1 0 0 -1 0 841)" d="M75.03152 959.8203L75.78184 959.8203L75.78184 959.8203L75.78184 304.0469L75.78184 304.0469L75.03152 304.0469z" stroke="none" fill="#DDDDDD" fill-rule="winding" /></g><g transform="matrix(0.2399193 0 0 0.2399322 0 -14.78003)"><g transform="matrix(1 0 0 1 0 0)"><image x="0" y="0" xlink:href="img_02.png" width="2480" height="295" /></g></g><g transform="matrix(0.4798387 0 0 0.4798876 0 798.29)"><g transform="matrix(1 0 0 1 0 0)"><image x="0" y="0" xlink:href="img_03.png" width="1240" height="89" /></g></g></g></g></g></svg>