<svg xmlns="http://www.w3.org/2000/svg" xmlns:xlink="http://www.w3.org/1999/xlink" id="body_69" preserveAspectRatio="xMinYMin meet" viewBox="0 0 793 1121"><defs><clipPath id="1"><path d="M0 841L0 0L0 0L595 0L595 0L595 841L595 841L0 841z" /></clipPath><clipPath id="2"><path d="M0 56L595 56L595 56L595 784.5547L595 784.5547L0 784.5547z" /></clipPath><clipPath id="3"><path d="M48.77049 303.6016L543.2282 303.6016L543.2282 303.6016L543.2282 317.1094L543.2282 317.1094L48.77049 317.1094z" /></clipPath><clipPath id="4"><path d="M0 56L595 56L595 56L595 784.5547L595 784.5547L0 784.5547z" /></clipPath><clipPath id="5"><path d="M48.77049 303.6016L543.2282 303.6016L543.2282 303.6016L543.2282 317.1094L543.2282 317.1094L48.77049 317.1094z" /></clipPath></defs><g transform="matrix(1.333333 0 0 1.333333 0 0)"><g><g clip-path="url(#1)"><g clip-path="url(#2)"><path transform="matrix(1 0 0 -1 0 841)" d="M0 50326.82L595 50326.82L595 50326.82L595 -7650.793L595 -7650.793L0 -7650.793z" stroke="none" fill="#FFFFFF" fill-rule="winding" /><path transform="matrix(1 0 0 -1 0 841)" d="M48.02018 507.3828L51.02144 507.3828L51.02144 507.3828L51.02144 462.3672L51.02144 462.3672L48.02018 462.3672z" stroke="none" fill="#DFE2E5" fill-rule="winding" /><g transform="matrix(0.5359395 0 0 0.5359395 48.02018 56)"><g transform="matrix(1 0 0 1 0 0)"><image x="0" y="0" xlink:href="img_131.png" width="931" height="343" /></g></g><path transform="matrix(1 0 0 -1 0 841)" d="M48.39533 520.8906L48.39533 541.8984C 48.39533 542.4219 48.57846 542.8594 48.94473 543.2305C 49.311 543.5938 49.75313 543.7734 50.27112 543.7734L50.27112 543.7734L544.7289 543.7734C 545.2468 543.7734 545.6889 543.5938 546.0552 543.2305C 546.4214 542.8594 546.6046 542.4219 546.6047 541.8984L546.6047 541.8984L546.6047 520.8906C 546.6046 520.375 546.4214 519.9336 546.0552 519.5664C 545.6889 519.2031 545.2468 519.0195 544.7289 519.0156L544.7289 519.0156L50.27112 519.0156C 49.75313 519.0195 49.311 519.2031 48.94473 519.5664C 48.57846 519.9336 48.39533 520.375 48.39533 520.8906z" stroke="none" fill="#F8F8F8" fill-rule="winding" /><path transform="matrix(1 0 0 -1 0 841)" d="M48.39533 520.8906L48.39533 541.8984C 48.39533 542.4219 48.57846 542.8594 48.94473 543.2305C 49.311 543.5938 49.75313 543.7734 50.27112 543.7734L50.27112 543.7734L544.7289 543.7734C 545.2468 543.7734 545.6889 543.5938 546.0552 543.2305C 546.4214 542.8594 546.6046 542.4219 546.6047 541.8984L546.6047 541.8984L546.6047 520.8906C 546.6046 520.375 546.4214 519.9336 546.0552 519.5664C 545.6889 519.2031 545.2468 519.0195 544.7289 519.0156L544.7289 519.0156L50.27112 519.0156C 49.75313 519.0195 49.311 519.2031 48.94473 519.5664C 48.57846 519.9336 48.39533 520.375 48.39533 520.8906z" stroke="#E7EAED" stroke-width="0.7503152" fill="none" /></g><g clip-path="url(#3)"><path transform="matrix(1 0 0 -1 0 841)" d="M48.77049 537.3984L543.2282 537.3984L543.2282 537.3984L543.2282 523.8906L543.2282 523.8906L48.77049 523.8906z" stroke="none" fill="#F8F8F8" fill-rule="winding" /></g><g clip-path="url(#4)"><path transform="matrix(1 0 0 -1 0 841)" d="M76.53216 499.5078C 76.53215 498.9922 76.34901 498.5508 75.98274 498.1797C 75.61648 497.8125 75.17435 497.6289 74.65636 497.6289C 74.13838 497.6289 73.69625 497.8125 73.32998 498.1797C 72.96371 498.5508 72.78057 498.9922 72.78058 499.5078C 72.78057 500.0273 72.96371 500.4688 73.32998 500.8359C 73.69625 501.1992 74.13838 501.3828 74.65636 501.3828C 75.17435 501.3828 75.61648 501.1992 75.98274 500.8359C 76.34901 500.4688 76.53215 500.0273 76.53216 499.5078z" stroke="none" fill="#777777" fill-rule="winding" /><path transform="matrix(1 0 0 -1 0 841)" d="M76.53216 484.5C 76.53215 483.9844 76.34901 483.543 75.98274 483.1758C 75.61648 482.8047 75.17435 482.625 74.65636 482.625C 74.13838 482.625 73.69625 482.8047 73.32998 483.1758C 72.96371 483.543 72.78057 483.9844 72.78058 484.5C 72.78057 485.0234 72.96371 485.4609 73.32998 485.832C 73.69625 486.1953 74.13838 486.375 74.65636 486.375C 75.17435 486.375 75.61648 486.1953 75.98274 485.832C 76.34901 485.4609 76.53215 485.0234 76.53216 484.5z" stroke="none" fill="#777777" fill-rule="winding" /><g transform="matrix(0.6652795 0 0 0.6634835 48.02018 460.418)"><g transform="matrix(1 0 0 1 0 0)"><image x="0" y="0" xlink:href="img_132.png" width="750" height="337" /></g></g><path transform="matrix(1 0 0 -1 0 841)" d="M109.546 114.9688L109.546 120.2227C 109.546 120.8477 109.7658 121.375 110.2053 121.8164C 110.6448 122.2578 111.1754 122.4727 111.797 122.4727L111.797 122.4727L143.3102 122.4727C 143.9318 122.4727 144.4623 122.2578 144.9019 121.8164C 145.3414 121.375 145.5611 120.8477 145.5612 120.2227L145.5612 120.2227L145.5612 114.9688C 145.5611 114.3477 145.3414 113.8203 144.9019 113.3828C 144.4623 112.9414 143.9318 112.7227 143.3102 112.7188L143.3102 112.7188L111.797 112.7188C 111.1754 112.7227 110.6448 112.9414 110.2053 113.3828C 109.7658 113.8203 109.546 114.3477 109.546 114.9688z" stroke="none" fill="#F3F4F4" fill-rule="winding" /><path transform="matrix(1 0 0 -1 0 841)" d="M109.9212 114.9688L109.9212 120.2227C 109.9212 120.7422 110.1043 121.1836 110.4706 121.5508C 110.8369 121.9141 111.279 122.0977 111.797 122.0977L111.797 122.0977L143.3102 122.0977C 143.8282 122.0977 144.2703 121.9141 144.6366 121.5508C 145.0029 121.1836 145.186 120.7422 145.186 120.2227L145.186 120.2227L145.186 114.9688C 145.186 114.4531 145.0029 114.0156 144.6366 113.6445C 144.2703 113.2773 143.8282 113.0938 143.3102 113.0938L143.3102 113.0938L111.797 113.0938C 111.279 113.0938 110.8369 113.2773 110.4706 113.6445C 110.1043 114.0156 109.9212 114.4531 109.9212 114.9688z" stroke="#E7EAED" stroke-width="0.7503152" fill="none" /><path transform="matrix(1 0 0 -1 0 841)" d="M138.8083 99.21484L138.8083 104.4648C 138.8083 105.0938 139.0281 105.6211 139.4676 106.0586C 139.9071 106.5 140.4377 106.7148 141.0593 106.7148L141.0593 106.7148L156.8159 106.7148C 157.4375 106.7148 157.968 106.5 158.4075 106.0586C 158.847 105.6211 159.0668 105.0938 159.0668 104.4648L159.0668 104.4648L159.0668 99.21484C 159.0668 98.58984 158.847 98.0625 158.4075 97.625C 157.968 97.18359 157.4375 96.96094 156.8159 96.96094L156.8159 96.96094L141.0593 96.96094C 140.4377 96.96094 139.9071 97.18359 139.4676 97.625C 139.0281 98.0625 138.8083 98.58984 138.8083 99.21484z" stroke="none" fill="#F3F4F4" fill-rule="winding" /><path transform="matrix(1 0 0 -1 0 841)" d="M139.1835 99.21484L139.1835 104.4648C 139.1835 104.9883 139.3666 105.4258 139.7329 105.7969C 140.0991 106.1602 140.5413 106.3398 141.0593 106.3398L141.0593 106.3398L156.8159 106.3398C 157.3339 106.3398 157.776 106.1602 158.1423 105.7969C 158.5085 105.4258 158.6917 104.9883 158.6917 104.4648L158.6917 104.4648L158.6917 99.21484C 158.6917 98.69531 158.5085 98.25781 158.1423 97.89453C 157.776 97.52344 157.3339 97.34375 156.8159 97.33594L156.8159 97.33594L141.0593 97.33594C 140.5413 97.34375 140.0991 97.52344 139.7329 97.89453C 139.3666 98.25781 139.1835 98.69531 139.1835 99.21484z" stroke="#E7EAED" stroke-width="0.7503152" fill="none" /><path transform="matrix(1 0 0 -1 0 841)" d="M237.0996 99.21484L237.0996 104.4648C 237.0996 105.0938 237.3194 105.6211 237.7589 106.0586C 238.1984 106.5 238.729 106.7148 239.3506 106.7148L239.3506 106.7148L244.6028 106.7148C 245.2243 106.7148 245.7549 106.5 246.1944 106.0586C 246.6339 105.6211 246.8537 105.0938 246.8537 104.4648L246.8537 104.4648L246.8537 99.21484C 246.8537 98.58984 246.6339 98.0625 246.1944 97.625C 245.7549 97.18359 245.2243 96.96094 244.6028 96.96094L244.6028 96.96094L239.3506 96.96094C 238.729 96.96094 238.1984 97.18359 237.7589 97.625C 237.3194 98.0625 237.0996 98.58984 237.0996 99.21484z" stroke="none" fill="#F3F4F4" fill-rule="winding" /><path transform="matrix(1 0 0 -1 0 841)" d="M237.4748 99.21484L237.4748 104.4648C 237.4748 104.9883 237.6579 105.4258 238.0242 105.7969C 238.3904 106.1602 238.8326 106.3398 239.3506 106.3398L239.3506 106.3398L244.6028 106.3398C 245.1207 106.3398 245.5629 106.1602 245.9291 105.7969C 246.2954 105.4258 246.4785 104.9883 246.4786 104.4648L246.4786 104.4648L246.4786 99.21484C 246.4785 98.69531 246.2954 98.25781 245.9291 97.89453C 245.5629 97.52344 245.1207 97.34375 244.6028 97.33594L244.6028 97.33594L239.3506 97.33594C 238.8326 97.34375 238.3904 97.52344 238.0242 97.89453C 237.6579 98.25781 237.4748 98.69531 237.4748 99.21484z" stroke="#E7EAED" stroke-width="0.7503152" fill="none" /><path transform="matrix(1 0 0 -1 0 841)" d="M315.1324 99.21484L315.1324 104.4648C 315.1324 105.0938 315.3521 105.6211 315.7917 106.0586C 316.2312 106.5 316.7618 106.7148 317.3834 106.7148L317.3834 106.7148L348.8966 106.7148C 349.5182 106.7148 350.0487 106.5 350.4882 106.0586C 350.9277 105.6211 351.1475 105.0938 351.1475 104.4648L351.1475 104.4648L351.1475 99.21484C 351.1475 98.58984 350.9277 98.0625 350.4882 97.625C 350.0487 97.18359 349.5182 96.96094 348.8966 96.96094L348.8966 96.96094L317.3834 96.96094C 316.7618 96.96094 316.2312 97.18359 315.7917 97.625C 315.3521 98.0625 315.1324 98.58984 315.1324 99.21484z" stroke="none" fill="#F3F4F4" fill-rule="winding" /><path transform="matrix(1 0 0 -1 0 841)" d="M315.5076 99.21484L315.5076 104.4648C 315.5075 104.9883 315.6907 105.4258 316.0569 105.7969C 316.4232 106.1602 316.8653 106.3398 317.3834 106.3398L317.3834 106.3398L348.8966 106.3398C 349.4146 106.3398 349.8567 106.1602 350.2229 105.7969C 350.5892 105.4258 350.7724 104.9883 350.7724 104.4648L350.7724 104.4648L350.7724 99.21484C 350.7724 98.69531 350.5892 98.25781 350.2229 97.89453C 349.8567 97.52344 349.4146 97.34375 348.8966 97.33594L348.8966 97.33594L317.3834 97.33594C 316.8653 97.34375 316.4232 97.52344 316.0569 97.89453C 315.6907 98.25781 315.5075 98.69531 315.5076 99.21484z" stroke="#E7EAED" stroke-width="0.7503152" fill="none" /><path transform="matrix(1 0 0 -1 0 841)" d="M380.4098 99.21484L380.4098 104.4648C 380.4098 105.0938 380.6296 105.6211 381.0691 106.0586C 381.5086 106.5 382.0392 106.7148 382.6608 106.7148L382.6608 106.7148L388.6633 106.7148C 389.2849 106.7148 389.8154 106.5 390.2549 106.0586C 390.6944 105.6211 390.9142 105.0938 390.9142 104.4648L390.9142 104.4648L390.9142 99.21484C 390.9142 98.58984 390.6944 98.0625 390.2549 97.625C 389.8154 97.18359 389.2849 96.96094 388.6633 96.96094L388.6633 96.96094L382.6608 96.96094C 382.0392 96.96094 381.5086 97.18359 381.0691 97.625C 380.6296 98.0625 380.4098 98.58984 380.4098 99.21484z" stroke="none" fill="#F3F4F4" fill-rule="winding" /><path transform="matrix(1 0 0 -1 0 841)" d="M380.785 99.21484L380.785 104.4648C 380.785 104.9883 380.9681 105.4258 381.3344 105.7969C 381.7007 106.1602 382.1428 106.3398 382.6608 106.3398L382.6608 106.3398L388.6633 106.3398C 389.1813 106.3398 389.6234 106.1602 389.9897 105.7969C 390.3559 105.4258 390.539 104.9883 390.5391 104.4648L390.5391 104.4648L390.5391 99.21484C 390.539 98.69531 390.3559 98.25781 389.9897 97.89453C 389.6234 97.52344 389.1813 97.34375 388.6633 97.33594L388.6633 97.33594L382.6608 97.33594C 382.1428 97.34375 381.7007 97.52344 381.3344 97.89453C 380.9681 98.25781 380.785 98.69531 380.785 99.21484z" stroke="#E7EAED" stroke-width="0.7503152" fill="none" /><path transform="matrix(1 0 0 -1 0 841)" d="M70.52963 83.45703L70.52963 88.70703C 70.52962 89.32813 70.74939 89.86328 71.18891 90.30469C 71.62843 90.74219 72.15899 90.96094 72.78058 90.96094L72.78058 90.96094L104.2938 90.96094C 104.9154 90.96094 105.4459 90.74219 105.8855 90.30469C 106.325 89.86328 106.5448 89.32813 106.5448 88.70703L106.5448 88.70703L106.5448 83.45703C 106.5448 82.83984 106.325 82.30859 105.8855 81.86719C 105.4459 81.42969 104.9154 81.21094 104.2938 81.20703L104.2938 81.20703L72.78058 81.20703C 72.15899 81.21094 71.62843 81.42969 71.18891 81.86719C 70.74939 82.30859 70.52962 82.83984 70.52963 83.45703z" stroke="none" fill="#F3F4F4" fill-rule="winding" /><path transform="matrix(1 0 0 -1 0 841)" d="M70.90479 83.45703L70.90479 88.70703C 70.90479 89.23047 71.08793 89.67188 71.45419 90.03906C 71.82047 90.40234 72.26259 90.58594 72.78058 90.58594L72.78058 90.58594L104.2938 90.58594C 104.8118 90.58594 105.2539 90.40234 105.6202 90.03906C 105.9865 89.67188 106.1696 89.23047 106.1696 88.70703L106.1696 88.70703L106.1696 83.45703C 106.1696 82.94141 105.9865 82.5 105.6202 82.13281C 105.2539 81.76953 104.8118 81.58594 104.2938 81.58203L104.2938 81.58203L72.78058 81.58203C 72.26259 81.58594 71.82047 81.76953 71.45419 82.13281C 71.08793 82.5 70.90479 82.94141 70.90479 83.45703z" stroke="#E7EAED" stroke-width="0.7503152" fill="none" /><path transform="matrix(1 0 0 -1 0 841)" d="M360.1513 83.45703L360.1513 88.70703C 360.1513 89.32813 360.3711 89.86328 360.8106 90.30469C 361.2501 90.74219 361.7807 90.96094 362.4023 90.96094L362.4023 90.96094L394.6658 90.96094C 395.2874 90.96094 395.8179 90.74219 396.2574 90.30469C 396.697 89.86328 396.9167 89.32813 396.9168 88.70703L396.9168 88.70703L396.9168 83.45703C 396.9167 82.83984 396.697 82.30859 396.2574 81.86719C 395.8179 81.42969 395.2874 81.21094 394.6658 81.20703L394.6658 81.20703L362.4023 81.20703C 361.7807 81.21094 361.2501 81.42969 360.8106 81.86719C 360.3711 82.30859 360.1513 82.83984 360.1513 83.45703z" stroke="none" fill="#F3F4F4" fill-rule="winding" /><path transform="matrix(1 0 0 -1 0 841)" d="M360.5265 83.45703L360.5265 88.70703C 360.5265 89.23047 360.7096 89.67188 361.0758 90.03906C 361.4421 90.40234 361.8842 90.58594 362.4023 90.58594L362.4023 90.58594L394.6658 90.58594C 395.1838 90.58594 395.6259 90.40234 395.9922 90.03906C 396.3584 89.67188 396.5416 89.23047 396.5416 88.70703L396.5416 88.70703L396.5416 83.45703C 396.5416 82.94141 396.3584 82.5 395.9922 82.13281C 395.6259 81.76953 395.1838 81.58594 394.6658 81.58203L394.6658 81.58203L362.4023 81.58203C 361.8842 81.58594 361.4421 81.76953 361.0758 82.13281C 360.7096 82.5 360.5265 82.94141 360.5265 83.45703z" stroke="#E7EAED" stroke-width="0.7503152" fill="none" /><path transform="matrix(1 0 0 -1 0 841)" d="M406.6709 83.45703L406.6709 88.70703C 406.6708 89.32813 406.8906 89.86328 407.3301 90.30469C 407.7697 90.74219 408.3002 90.96094 408.9218 90.96094L408.9218 90.96094L440.4351 90.96094C 441.0566 90.96094 441.5872 90.74219 442.0267 90.30469C 442.4662 89.86328 442.6859 89.32813 442.686 88.70703L442.686 88.70703L442.686 83.45703C 442.6859 82.83984 442.4662 82.30859 442.0267 81.86719C 441.5872 81.42969 441.0566 81.21094 440.4351 81.20703L440.4351 81.20703L408.9218 81.20703C 408.3002 81.21094 407.7697 81.42969 407.3301 81.86719C 406.8906 82.30859 406.6708 82.83984 406.6709 83.45703z" stroke="none" fill="#F3F4F4" fill-rule="winding" /><path transform="matrix(1 0 0 -1 0 841)" d="M407.046 83.45703L407.046 88.70703C 407.046 89.23047 407.2291 89.67188 407.5954 90.03906C 407.9617 90.40234 408.4038 90.58594 408.9218 90.58594L408.9218 90.58594L440.4351 90.58594C 440.953 90.58594 441.3951 90.40234 441.7614 90.03906C 442.1277 89.67188 442.3109 89.23047 442.3109 88.70703L442.3109 88.70703L442.3109 83.45703C 442.3109 82.94141 442.1277 82.5 441.7614 82.13281C 441.3951 81.76953 440.953 81.58594 440.4351 81.58203L440.4351 81.58203L408.9218 81.58203C 408.4038 81.58594 407.9617 81.76953 407.5954 82.13281C 407.2291 82.5 407.046 82.94141 407.046 83.45703z" stroke="#E7EAED" stroke-width="0.7503152" fill="none" /><path transform="matrix(1 0 0 -1 0 841)" d="M168.0706 67.69922L168.0706 72.95313C 168.0706 73.57813 168.2904 74.10547 168.7299 74.54688C 169.1694 74.98438 169.7 75.20313 170.3216 75.20313L170.3216 75.20313L201.8348 75.20313C 202.4564 75.20313 202.9869 74.98438 203.4265 74.54688C 203.866 74.10547 204.0857 73.57813 204.0858 72.95313L204.0858 72.95313L204.0858 67.69922C 204.0857 67.08594 203.866 66.55078 203.4265 66.10938C 202.9869 65.67188 202.4564 65.45313 201.8348 65.44922L201.8348 65.44922L170.3216 65.44922C 169.7 65.45313 169.1694 65.67188 168.7299 66.10938C 168.2904 66.55078 168.0706 67.08594 168.0706 67.69922z" stroke="none" fill="#F3F4F4" fill-rule="winding" /><path transform="matrix(1 0 0 -1 0 841)" d="M168.4458 67.69922L168.4458 72.95313C 168.4458 73.47266 168.6289 73.91406 168.9952 74.28125C 169.3615 74.64453 169.8036 74.82813 170.3216 74.82813L170.3216 74.82813L201.8348 74.82813C 202.3528 74.82813 202.7949 74.64453 203.1612 74.28125C 203.5274 73.91406 203.7106 73.47266 203.7106 72.95313L203.7106 72.95313L203.7106 67.69922C 203.7106 67.18359 203.5274 66.74609 203.1612 66.375C 202.7949 66.00391 202.3528 65.82422 201.8348 65.82422L201.8348 65.82422L170.3216 65.82422C 169.8036 65.82422 169.3615 66.00391 168.9952 66.375C 168.6289 66.74609 168.4458 67.18359 168.4458 67.69922z" stroke="#E7EAED" stroke-width="0.7503152" fill="none" /></g><g clip-path="url(#5)"><path transform="matrix(1 0 0 -1 0 841)" d="M48.77049 537.3984L543.2282 537.3984L543.2282 537.3984L543.2282 523.8906L543.2282 523.8906L48.77049 523.8906z" stroke="none" fill="#F8F8F8" fill-rule="winding" /><path transform="matrix(1 0 0 -1 0 841)" d="M48.77049 537.3984L69.77932 537.3984L69.77932 537.3984L69.77932 514.8867L69.77932 514.8867L48.77049 514.8867z" stroke="none" fill="#F8F8F8" fill-rule="winding" /><path transform="matrix(1 0 0 -1 0 841)" d="M69.029 537.3984L69.77932 537.3984L69.77932 537.3984L69.77932 514.8867L69.77932 514.8867L69.029 514.8867z" stroke="none" fill="#DDDDDD" fill-rule="winding" /></g><g transform="matrix(0.2399193 0 0 0.2399322 0 -14.78003)"><g transform="matrix(1 0 0 1 0 0)"><image x="0" y="0" xlink:href="img_02.png" width="2480" height="295" /></g></g><g transform="matrix(0.4798387 0 0 0.4798876 0 798.29)"><g transform="matrix(1 0 0 1 0 0)"><image x="0" y="0" xlink:href="img_03.png" width="1240" height="89" /></g></g></g></g></g></svg>