<svg xmlns="http://www.w3.org/2000/svg" xmlns:xlink="http://www.w3.org/1999/xlink" id="body_34" preserveAspectRatio="xMinYMin meet" viewBox="0 0 793 1121"><defs><clipPath id="1"><path d="M0 841L0 0L0 0L595 0L595 0L595 841L595 841L0 841z" /></clipPath><clipPath id="2"><path d="M0 56L595 56L595 56L595 784.5566L595 784.5566L0 784.5566z" /></clipPath><clipPath id="3"><path d="M48.77049 707.2734L543.2282 707.2734L543.2282 707.2734L543.2282 784.5566L543.2282 784.5566L48.77049 784.5566z" /></clipPath></defs><g transform="matrix(1.333333 0 0 1.333333 0 0)"><g><g clip-path="url(#1)"><g clip-path="url(#2)"><path transform="matrix(1 0 0 -1 0 841)" d="M0 24827.35L595 24827.35L595 24827.35L595 -33150.26L595 -33150.26L0 -33150.26z" stroke="none" fill="#FFFFFF" fill-rule="winding" /><path transform="matrix(1 0 0 -1 0 841)" d="M48.02018 895.2969L51.02144 895.2969L51.02144 895.2969L51.02144 754.9883L51.02144 754.9883L48.02018 754.9883z" stroke="none" fill="#DFE2E5" fill-rule="winding" /><path transform="matrix(1 0 0 -1 0 841)" d="M48.02018 650.6934L393.1652 650.6934L393.1652 650.6934L393.1652 625.9336L393.1652 625.9336L48.02018 625.9336z" stroke="none" fill="#F8F8F8" fill-rule="winding" /><path transform="matrix(1 0 0 -1 0 841)" d="M393.1652 650.6934L546.2295 650.6934L546.2295 650.6934L546.2295 625.9336L546.2295 625.9336L393.1652 625.9336z" stroke="none" fill="#F8F8F8" fill-rule="winding" /><path transform="matrix(1 0 0 -1 0 841)" d="M48.02018 600.4219L393.1652 600.4219L393.1652 600.4219L393.1652 574.9121L393.1652 574.9121L48.02018 574.9121z" stroke="none" fill="#F8F8F8" fill-rule="winding" /><path transform="matrix(1 0 0 -1 0 841)" d="M393.1652 600.4219L546.2295 600.4219L546.2295 600.4219L546.2295 574.9121L546.2295 574.9121L393.1652 574.9121z" stroke="none" fill="#F8F8F8" fill-rule="winding" /><path transform="matrix(1 0 0 -1 0 841)" d="M48.02018 549.4004L393.1652 549.4004L393.1652 549.4004L393.1652 523.8906L393.1652 523.8906L48.02018 523.8906z" stroke="none" fill="#F8F8F8" fill-rule="winding" /><path transform="matrix(1 0 0 -1 0 841)" d="M393.1652 549.4004L546.2295 549.4004L546.2295 549.4004L546.2295 523.8906L546.2295 523.8906L393.1652 523.8906z" stroke="none" fill="#F8F8F8" fill-rule="winding" /><path transform="matrix(1 0 0 -1 0 841)" d="M393.1652 498.3789L546.9798 498.3789L546.9798 498.3789L546.9798 497.6289L546.9798 497.6289L393.1652 497.6289z" stroke="none" fill="#DFE2E5" fill-rule="winding" /><path transform="matrix(1 0 0 -1 0 841)" d="M546.2295 523.8906L546.9798 523.8906L546.9798 523.8906L546.9798 497.6289L546.9798 497.6289L546.2295 497.6289z" stroke="none" fill="#DFE2E5" fill-rule="winding" /><path transform="matrix(1 0 0 -1 0 841)" d="M48.02018 498.3789L393.9155 498.3789L393.9155 498.3789L393.9155 497.6289L393.9155 497.6289L48.02018 497.6289z" stroke="none" fill="#DFE2E5" fill-rule="winding" /><path transform="matrix(1 0 0 -1 0 841)" d="M48.02018 523.8906L48.77049 523.8906L48.77049 523.8906L48.77049 497.6289L48.77049 497.6289L48.02018 497.6289z" stroke="none" fill="#DFE2E5" fill-rule="winding" /><path transform="matrix(1 0 0 -1 0 841)" d="M393.1652 523.8906L393.9155 523.8906L393.9155 523.8906L393.9155 497.6289L393.9155 497.6289L393.1652 497.6289z" stroke="none" fill="#DFE2E5" fill-rule="winding" /><path transform="matrix(1 0 0 -1 0 841)" d="M393.1652 523.8906L546.9798 523.8906L546.9798 523.8906L546.9798 523.1406L546.9798 523.1406L393.1652 523.1406z" stroke="none" fill="#DFE2E5" fill-rule="winding" /><path transform="matrix(1 0 0 -1 0 841)" d="M546.2295 549.4004L546.9798 549.4004L546.9798 549.4004L546.9798 523.1406L546.9798 523.1406L546.2295 523.1406z" stroke="none" fill="#DFE2E5" fill-rule="winding" /><path transform="matrix(1 0 0 -1 0 841)" d="M48.02018 523.8906L393.9155 523.8906L393.9155 523.8906L393.9155 523.1406L393.9155 523.1406L48.02018 523.1406z" stroke="none" fill="#DFE2E5" fill-rule="winding" /><path transform="matrix(1 0 0 -1 0 841)" d="M48.02018 549.4004L48.77049 549.4004L48.77049 549.4004L48.77049 523.1406L48.77049 523.1406L48.02018 523.1406z" stroke="none" fill="#DFE2E5" fill-rule="winding" /><path transform="matrix(1 0 0 -1 0 841)" d="M393.1652 549.4004L393.9155 549.4004L393.9155 549.4004L393.9155 523.1406L393.9155 523.1406L393.1652 523.1406z" stroke="none" fill="#DFE2E5" fill-rule="winding" /><path transform="matrix(1 0 0 -1 0 841)" d="M393.1652 549.4004L546.9798 549.4004L546.9798 549.4004L546.9798 548.6504L546.9798 548.6504L393.1652 548.6504z" stroke="none" fill="#DFE2E5" fill-rule="winding" /><path transform="matrix(1 0 0 -1 0 841)" d="M546.2295 574.9121L546.9798 574.9121L546.9798 574.9121L546.9798 548.6504L546.9798 548.6504L546.2295 548.6504z" stroke="none" fill="#DFE2E5" fill-rule="winding" /><path transform="matrix(1 0 0 -1 0 841)" d="M48.02018 549.4004L393.9155 549.4004L393.9155 549.4004L393.9155 548.6504L393.9155 548.6504L48.02018 548.6504z" stroke="none" fill="#DFE2E5" fill-rule="winding" /><path transform="matrix(1 0 0 -1 0 841)" d="M48.02018 574.9121L48.77049 574.9121L48.77049 574.9121L48.77049 548.6504L48.77049 548.6504L48.02018 548.6504z" stroke="none" fill="#DFE2E5" fill-rule="winding" /><path transform="matrix(1 0 0 -1 0 841)" d="M393.1652 574.9121L393.9155 574.9121L393.9155 574.9121L393.9155 548.6504L393.9155 548.6504L393.1652 548.6504z" stroke="none" fill="#DFE2E5" fill-rule="winding" /><path transform="matrix(1 0 0 -1 0 841)" d="M393.1652 574.9121L546.9798 574.9121L546.9798 574.9121L546.9798 574.1621L546.9798 574.1621L393.1652 574.1621z" stroke="none" fill="#DFE2E5" fill-rule="winding" /><path transform="matrix(1 0 0 -1 0 841)" d="M546.2295 600.4219L546.9798 600.4219L546.9798 600.4219L546.9798 574.1621L546.9798 574.1621L546.2295 574.1621z" stroke="none" fill="#DFE2E5" fill-rule="winding" /><path transform="matrix(1 0 0 -1 0 841)" d="M48.02018 574.9121L393.9155 574.9121L393.9155 574.9121L393.9155 574.1621L393.9155 574.1621L48.02018 574.1621z" stroke="none" fill="#DFE2E5" fill-rule="winding" /><path transform="matrix(1 0 0 -1 0 841)" d="M48.02018 600.4219L48.77049 600.4219L48.77049 600.4219L48.77049 574.1621L48.77049 574.1621L48.02018 574.1621z" stroke="none" fill="#DFE2E5" fill-rule="winding" /><path transform="matrix(1 0 0 -1 0 841)" d="M393.1652 600.4219L393.9155 600.4219L393.9155 600.4219L393.9155 574.1621L393.9155 574.1621L393.1652 574.1621z" stroke="none" fill="#DFE2E5" fill-rule="winding" /><path transform="matrix(1 0 0 -1 0 841)" d="M393.1652 600.4219L546.9798 600.4219L546.9798 600.4219L546.9798 599.6719L546.9798 599.6719L393.1652 599.6719z" stroke="none" fill="#DFE2E5" fill-rule="winding" /><path transform="matrix(1 0 0 -1 0 841)" d="M546.2295 625.9336L546.9798 625.9336L546.9798 625.9336L546.9798 599.6719L546.9798 599.6719L546.2295 599.6719z" stroke="none" fill="#DFE2E5" fill-rule="winding" /><path transform="matrix(1 0 0 -1 0 841)" d="M48.02018 600.4219L393.9155 600.4219L393.9155 600.4219L393.9155 599.6719L393.9155 599.6719L48.02018 599.6719z" stroke="none" fill="#DFE2E5" fill-rule="winding" /><path transform="matrix(1 0 0 -1 0 841)" d="M48.02018 625.9336L48.77049 625.9336L48.77049 625.9336L48.77049 599.6719L48.77049 599.6719L48.02018 599.6719z" stroke="none" fill="#DFE2E5" fill-rule="winding" /><path transform="matrix(1 0 0 -1 0 841)" d="M393.1652 625.9336L393.9155 625.9336L393.9155 625.9336L393.9155 599.6719L393.9155 599.6719L393.1652 599.6719z" stroke="none" fill="#DFE2E5" fill-rule="winding" /><path transform="matrix(1 0 0 -1 0 841)" d="M393.1652 650.6934L546.9798 650.6934L546.9798 650.6934L546.9798 649.9434L546.9798 649.9434L393.1652 649.9434z" stroke="none" fill="#DFE2E5" fill-rule="winding" /><path transform="matrix(1 0 0 -1 0 841)" d="M393.1652 625.9336L546.9798 625.9336L546.9798 625.9336L546.9798 625.1836L546.9798 625.1836L393.1652 625.1836z" stroke="none" fill="#DFE2E5" fill-rule="winding" /><path transform="matrix(1 0 0 -1 0 841)" d="M546.2295 650.6934L546.9798 650.6934L546.9798 650.6934L546.9798 625.1836L546.9798 625.1836L546.2295 625.1836z" stroke="none" fill="#DFE2E5" fill-rule="winding" /><path transform="matrix(1 0 0 -1 0 841)" d="M48.02018 650.6934L393.9155 650.6934L393.9155 650.6934L393.9155 649.9434L393.9155 649.9434L48.02018 649.9434z" stroke="none" fill="#DFE2E5" fill-rule="winding" /><path transform="matrix(1 0 0 -1 0 841)" d="M48.02018 625.9336L393.9155 625.9336L393.9155 625.9336L393.9155 625.1836L393.9155 625.1836L48.02018 625.1836z" stroke="none" fill="#DFE2E5" fill-rule="winding" /><path transform="matrix(1 0 0 -1 0 841)" d="M48.02018 650.6934L48.77049 650.6934L48.77049 650.6934L48.77049 625.1836L48.77049 625.1836L48.02018 625.1836z" stroke="none" fill="#DFE2E5" fill-rule="winding" /><path transform="matrix(1 0 0 -1 0 841)" d="M393.1652 650.6934L393.9155 650.6934L393.9155 650.6934L393.9155 625.1836L393.9155 625.1836L393.1652 625.1836z" stroke="none" fill="#DFE2E5" fill-rule="winding" /><path transform="matrix(1 0 0 -1 0 841)" d="M48.02018 459.3633L225.8449 459.3633L225.8449 459.3633L225.8449 434.6035L225.8449 434.6035L48.02018 434.6035z" stroke="none" fill="#F8F8F8" fill-rule="winding" /><path transform="matrix(1 0 0 -1 0 841)" d="M225.8449 459.3633L546.2295 459.3633L546.2295 459.3633L546.2295 434.6035L546.2295 434.6035L225.8449 434.6035z" stroke="none" fill="#F8F8F8" fill-rule="winding" /><path transform="matrix(1 0 0 -1 0 841)" d="M48.02018 409.0918L225.8449 409.0918L225.8449 409.0918L225.8449 383.582L225.8449 383.582L48.02018 383.582z" stroke="none" fill="#F8F8F8" fill-rule="winding" /><path transform="matrix(1 0 0 -1 0 841)" d="M225.8449 409.0918L546.2295 409.0918L546.2295 409.0918L546.2295 383.582L546.2295 383.582L225.8449 383.582z" stroke="none" fill="#F8F8F8" fill-rule="winding" /><path transform="matrix(1 0 0 -1 0 841)" d="M48.02018 358.0703L225.8449 358.0703L225.8449 358.0703L225.8449 332.5605L225.8449 332.5605L48.02018 332.5605z" stroke="none" fill="#F8F8F8" fill-rule="winding" /><path transform="matrix(1 0 0 -1 0 841)" d="M225.8449 358.0703L546.2295 358.0703L546.2295 358.0703L546.2295 332.5605L546.2295 332.5605L225.8449 332.5605z" stroke="none" fill="#F8F8F8" fill-rule="winding" /><path transform="matrix(1 0 0 -1 0 841)" d="M225.8449 307.0488L546.9798 307.0488L546.9798 307.0488L546.9798 306.2988L546.9798 306.2988L225.8449 306.2988z" stroke="none" fill="#DFE2E5" fill-rule="winding" /><path transform="matrix(1 0 0 -1 0 841)" d="M546.2295 332.5605L546.9798 332.5605L546.9798 332.5605L546.9798 306.2988L546.9798 306.2988L546.2295 306.2988z" stroke="none" fill="#DFE2E5" fill-rule="winding" /><path transform="matrix(1 0 0 -1 0 841)" d="M48.02018 307.0488L226.5952 307.0488L226.5952 307.0488L226.5952 306.2988L226.5952 306.2988L48.02018 306.2988z" stroke="none" fill="#DFE2E5" fill-rule="winding" /><path transform="matrix(1 0 0 -1 0 841)" d="M48.02018 332.5605L48.77049 332.5605L48.77049 332.5605L48.77049 306.2988L48.77049 306.2988L48.02018 306.2988z" stroke="none" fill="#DFE2E5" fill-rule="winding" /><path transform="matrix(1 0 0 -1 0 841)" d="M225.8449 332.5605L226.5952 332.5605L226.5952 332.5605L226.5952 306.2988L226.5952 306.2988L225.8449 306.2988z" stroke="none" fill="#DFE2E5" fill-rule="winding" /><path transform="matrix(1 0 0 -1 0 841)" d="M225.8449 332.5605L546.9798 332.5605L546.9798 332.5605L546.9798 331.8105L546.9798 331.8105L225.8449 331.8105z" stroke="none" fill="#DFE2E5" fill-rule="winding" /><path transform="matrix(1 0 0 -1 0 841)" d="M546.2295 358.0703L546.9798 358.0703L546.9798 358.0703L546.9798 331.8105L546.9798 331.8105L546.2295 331.8105z" stroke="none" fill="#DFE2E5" fill-rule="winding" /><path transform="matrix(1 0 0 -1 0 841)" d="M48.02018 332.5605L226.5952 332.5605L226.5952 332.5605L226.5952 331.8105L226.5952 331.8105L48.02018 331.8105z" stroke="none" fill="#DFE2E5" fill-rule="winding" /><path transform="matrix(1 0 0 -1 0 841)" d="M48.02018 358.0703L48.77049 358.0703L48.77049 358.0703L48.77049 331.8105L48.77049 331.8105L48.02018 331.8105z" stroke="none" fill="#DFE2E5" fill-rule="winding" /><path transform="matrix(1 0 0 -1 0 841)" d="M225.8449 358.0703L226.5952 358.0703L226.5952 358.0703L226.5952 331.8105L226.5952 331.8105L225.8449 331.8105z" stroke="none" fill="#DFE2E5" fill-rule="winding" /><path transform="matrix(1 0 0 -1 0 841)" d="M225.8449 358.0703L546.9798 358.0703L546.9798 358.0703L546.9798 357.3203L546.9798 357.3203L225.8449 357.3203z" stroke="none" fill="#DFE2E5" fill-rule="winding" /><path transform="matrix(1 0 0 -1 0 841)" d="M546.2295 383.582L546.9798 383.582L546.9798 383.582L546.9798 357.3203L546.9798 357.3203L546.2295 357.3203z" stroke="none" fill="#DFE2E5" fill-rule="winding" /><path transform="matrix(1 0 0 -1 0 841)" d="M48.02018 358.0703L226.5952 358.0703L226.5952 358.0703L226.5952 357.3203L226.5952 357.3203L48.02018 357.3203z" stroke="none" fill="#DFE2E5" fill-rule="winding" /><path transform="matrix(1 0 0 -1 0 841)" d="M48.02018 383.582L48.77049 383.582L48.77049 383.582L48.77049 357.3203L48.77049 357.3203L48.02018 357.3203z" stroke="none" fill="#DFE2E5" fill-rule="winding" /><path transform="matrix(1 0 0 -1 0 841)" d="M225.8449 383.582L226.5952 383.582L226.5952 383.582L226.5952 357.3203L226.5952 357.3203L225.8449 357.3203z" stroke="none" fill="#DFE2E5" fill-rule="winding" /><path transform="matrix(1 0 0 -1 0 841)" d="M225.8449 383.582L546.9798 383.582L546.9798 383.582L546.9798 382.832L546.9798 382.832L225.8449 382.832z" stroke="none" fill="#DFE2E5" fill-rule="winding" /><path transform="matrix(1 0 0 -1 0 841)" d="M546.2295 409.0918L546.9798 409.0918L546.9798 409.0918L546.9798 382.832L546.9798 382.832L546.2295 382.832z" stroke="none" fill="#DFE2E5" fill-rule="winding" /><path transform="matrix(1 0 0 -1 0 841)" d="M48.02018 383.582L226.5952 383.582L226.5952 383.582L226.5952 382.832L226.5952 382.832L48.02018 382.832z" stroke="none" fill="#DFE2E5" fill-rule="winding" /><path transform="matrix(1 0 0 -1 0 841)" d="M48.02018 409.0918L48.77049 409.0918L48.77049 409.0918L48.77049 382.832L48.77049 382.832L48.02018 382.832z" stroke="none" fill="#DFE2E5" fill-rule="winding" /><path transform="matrix(1 0 0 -1 0 841)" d="M225.8449 409.0918L226.5952 409.0918L226.5952 409.0918L226.5952 382.832L226.5952 382.832L225.8449 382.832z" stroke="none" fill="#DFE2E5" fill-rule="winding" /><path transform="matrix(1 0 0 -1 0 841)" d="M225.8449 409.0918L546.9798 409.0918L546.9798 409.0918L546.9798 408.3418L546.9798 408.3418L225.8449 408.3418z" stroke="none" fill="#DFE2E5" fill-rule="winding" /><path transform="matrix(1 0 0 -1 0 841)" d="M546.2295 434.6035L546.9798 434.6035L546.9798 434.6035L546.9798 408.3418L546.9798 408.3418L546.2295 408.3418z" stroke="none" fill="#DFE2E5" fill-rule="winding" /><path transform="matrix(1 0 0 -1 0 841)" d="M48.02018 409.0918L226.5952 409.0918L226.5952 409.0918L226.5952 408.3418L226.5952 408.3418L48.02018 408.3418z" stroke="none" fill="#DFE2E5" fill-rule="winding" /><path transform="matrix(1 0 0 -1 0 841)" d="M48.02018 434.6035L48.77049 434.6035L48.77049 434.6035L48.77049 408.3418L48.77049 408.3418L48.02018 408.3418z" stroke="none" fill="#DFE2E5" fill-rule="winding" /><path transform="matrix(1 0 0 -1 0 841)" d="M225.8449 434.6035L226.5952 434.6035L226.5952 434.6035L226.5952 408.3418L226.5952 408.3418L225.8449 408.3418z" stroke="none" fill="#DFE2E5" fill-rule="winding" /><path transform="matrix(1 0 0 -1 0 841)" d="M225.8449 459.3633L546.9798 459.3633L546.9798 459.3633L546.9798 458.6133L546.9798 458.6133L225.8449 458.6133z" stroke="none" fill="#DFE2E5" fill-rule="winding" /><path transform="matrix(1 0 0 -1 0 841)" d="M225.8449 434.6035L546.9798 434.6035L546.9798 434.6035L546.9798 433.8516L546.9798 433.8516L225.8449 433.8516z" stroke="none" fill="#DFE2E5" fill-rule="winding" /><path transform="matrix(1 0 0 -1 0 841)" d="M546.2295 459.3633L546.9798 459.3633L546.9798 459.3633L546.9798 433.8516L546.9798 433.8516L546.2295 433.8516z" stroke="none" fill="#DFE2E5" fill-rule="winding" /><path transform="matrix(1 0 0 -1 0 841)" d="M48.02018 459.3633L226.5952 459.3633L226.5952 459.3633L226.5952 458.6133L226.5952 458.6133L48.02018 458.6133z" stroke="none" fill="#DFE2E5" fill-rule="winding" /><path transform="matrix(1 0 0 -1 0 841)" d="M48.02018 434.6035L226.5952 434.6035L226.5952 434.6035L226.5952 433.8516L226.5952 433.8516L48.02018 433.8516z" stroke="none" fill="#DFE2E5" fill-rule="winding" /><path transform="matrix(1 0 0 -1 0 841)" d="M48.02018 459.3633L48.77049 459.3633L48.77049 459.3633L48.77049 433.8516L48.77049 433.8516L48.02018 433.8516z" stroke="none" fill="#DFE2E5" fill-rule="winding" /><path transform="matrix(1 0 0 -1 0 841)" d="M225.8449 459.3633L226.5952 459.3633L226.5952 459.3633L226.5952 433.8516L226.5952 433.8516L225.8449 433.8516z" stroke="none" fill="#DFE2E5" fill-rule="winding" /><path transform="matrix(1 0 0 -1 0 841)" d="M48.02018 294.293L51.02144 294.293L51.02144 294.293L51.02144 174.2441L51.02144 174.2441L48.02018 174.2441z" stroke="none" fill="#DFE2E5" fill-rule="winding" /><path transform="matrix(1 0 0 -1 0 841)" d="M101.2926 609.4258L101.2926 614.6777C 101.2925 615.3008 101.5123 615.832 101.9518 616.2715C 102.3914 616.709 102.9219 616.9297 103.5435 616.9297L103.5435 616.9297L124.5523 616.9297C 125.1739 616.9297 125.7045 616.709 126.144 616.2715C 126.5835 615.832 126.8033 615.3008 126.8033 614.6777L126.8033 614.6777L126.8033 609.4258C 126.8033 608.8066 126.5835 608.2754 126.144 607.8359C 125.7045 607.3965 125.1739 607.1777 124.5523 607.1777L124.5523 607.1777L103.5435 607.1777C 102.9219 607.1777 102.3914 607.3965 101.9518 607.8359C 101.5123 608.2754 101.2925 608.8066 101.2926 609.4258z" stroke="none" fill="#F3F4F4" fill-rule="winding" /><path transform="matrix(1 0 0 -1 0 841)" d="M101.6677 609.4258L101.6677 614.6777C 101.6677 615.1973 101.8508 615.6406 102.2171 616.0039C 102.5834 616.3711 103.0255 616.5547 103.5435 616.5547L103.5435 616.5547L124.5523 616.5547C 125.0703 616.5547 125.5124 616.3711 125.8787 616.0039C 126.245 615.6406 126.4281 615.1973 126.4281 614.6777L126.4281 614.6777L126.4281 609.4258C 126.4281 608.9082 126.245 608.4668 125.8787 608.0996C 125.5124 607.7344 125.0703 607.5527 124.5523 607.5508L124.5523 607.5508L103.5435 607.5508C 103.0255 607.5527 102.5834 607.7344 102.2171 608.0996C 101.8508 608.4668 101.6677 608.9082 101.6677 609.4258z" stroke="#E7EAED" stroke-width="0.7503152" fill="none" /><path transform="matrix(1 0 0 -1 0 841)" d="M141.8096 609.4258L141.8096 614.6777C 141.8096 615.3008 142.0293 615.832 142.4689 616.2715C 142.9084 616.709 143.4389 616.9297 144.0605 616.9297L144.0605 616.9297L170.3216 616.9297C 170.9431 616.9297 171.4737 616.709 171.9132 616.2715C 172.3527 615.832 172.5725 615.3008 172.5725 614.6777L172.5725 614.6777L172.5725 609.4258C 172.5725 608.8066 172.3527 608.2754 171.9132 607.8359C 171.4737 607.3965 170.9431 607.1777 170.3216 607.1777L170.3216 607.1777L144.0605 607.1777C 143.4389 607.1777 142.9084 607.3965 142.4689 607.8359C 142.0293 608.2754 141.8096 608.8066 141.8096 609.4258z" stroke="none" fill="#F3F4F4" fill-rule="winding" /><path transform="matrix(1 0 0 -1 0 841)" d="M142.1847 609.4258L142.1847 614.6777C 142.1847 615.1973 142.3679 615.6406 142.7341 616.0039C 143.1004 616.3711 143.5425 616.5547 144.0605 616.5547L144.0605 616.5547L170.3216 616.5547C 170.8395 616.5547 171.2817 616.3711 171.6479 616.0039C 172.0142 615.6406 172.1973 615.1973 172.1974 614.6777L172.1974 614.6777L172.1974 609.4258C 172.1973 608.9082 172.0142 608.4668 171.6479 608.0996C 171.2817 607.7344 170.8395 607.5527 170.3216 607.5508L170.3216 607.5508L144.0605 607.5508C 143.5425 607.5527 143.1004 607.7344 142.7341 608.0996C 142.3679 608.4668 142.1847 608.9082 142.1847 609.4258z" stroke="#E7EAED" stroke-width="0.7503152" fill="none" /><path transform="matrix(1 0 0 -1 0 841)" d="M403.6696 609.4258L403.6696 614.6777C 403.6696 615.3008 403.8894 615.832 404.3289 616.2715C 404.7684 616.709 405.299 616.9297 405.9206 616.9297L405.9206 616.9297L453.1904 616.9297C 453.812 616.9297 454.3425 616.709 454.7821 616.2715C 455.2216 615.832 455.4413 615.3008 455.4413 614.6777L455.4413 614.6777L455.4413 609.4258C 455.4413 608.8066 455.2216 608.2754 454.7821 607.8359C 454.3425 607.3965 453.812 607.1777 453.1904 607.1777L453.1904 607.1777L405.9206 607.1777C 405.299 607.1777 404.7684 607.3965 404.3289 607.8359C 403.8894 608.2754 403.6696 608.8066 403.6696 609.4258z" stroke="none" fill="#F3F4F4" fill-rule="winding" /><path transform="matrix(1 0 0 -1 0 841)" d="M404.0448 609.4258L404.0448 614.6777C 404.0447 615.1973 404.2278 615.6406 404.5941 616.0039C 404.9604 616.3711 405.4026 616.5547 405.9206 616.5547L405.9206 616.5547L453.1904 616.5547C 453.7083 616.5547 454.1505 616.3711 454.5168 616.0039C 454.883 615.6406 455.0662 615.1973 455.0662 614.6777L455.0662 614.6777L455.0662 609.4258C 455.0662 608.9082 454.883 608.4668 454.5168 608.0996C 454.1505 607.7344 453.7083 607.5527 453.1904 607.5508L453.1904 607.5508L405.9206 607.5508C 405.4026 607.5527 404.9604 607.7344 404.5941 608.0996C 404.2278 608.4668 404.0447 608.9082 404.0448 609.4258z" stroke="#E7EAED" stroke-width="0.7503152" fill="none" /><path transform="matrix(1 0 0 -1 0 841)" d="M131.3052 583.916L131.3052 589.168C 131.3052 589.791 131.5249 590.3203 131.9644 590.7598C 132.404 591.1992 132.9345 591.418 133.5561 591.418L133.5561 591.418L149.3127 591.418C 149.9343 591.418 150.4649 591.1992 150.9044 590.7598C 151.3439 590.3203 151.5637 589.791 151.5637 589.168L151.5637 589.168L151.5637 583.916C 151.5637 583.2949 151.3439 582.7676 150.9044 582.3262C 150.4649 581.8867 149.9343 581.666 149.3127 581.6641L149.3127 581.6641L133.5561 581.6641C 132.9345 581.666 132.404 581.8867 131.9644 582.3262C 131.5249 582.7676 131.3052 583.2949 131.3052 583.916z" stroke="none" fill="#F3F4F4" fill-rule="winding" /><path transform="matrix(1 0 0 -1 0 841)" d="M131.6803 583.916L131.6803 589.168C 131.6803 589.6875 131.8634 590.1289 132.2297 590.4961C 132.596 590.8613 133.0381 591.043 133.5561 591.043L133.5561 591.043L149.3127 591.043C 149.8307 591.043 150.2728 590.8613 150.6391 590.4961C 151.0054 590.1289 151.1885 589.6875 151.1885 589.168L151.1885 589.168L151.1885 583.916C 151.1885 583.3984 151.0054 582.957 150.6391 582.5898C 150.2728 582.2246 149.8307 582.041 149.3127 582.0391L149.3127 582.0391L133.5561 582.0391C 133.0381 582.041 132.596 582.2246 132.2297 582.5898C 131.8634 582.957 131.6803 583.3984 131.6803 583.916z" stroke="#E7EAED" stroke-width="0.7503152" fill="none" /><path transform="matrix(1 0 0 -1 0 841)" d="M403.6696 583.916L403.6696 589.168C 403.6696 589.791 403.8894 590.3203 404.3289 590.7598C 404.7684 591.1992 405.299 591.418 405.9206 591.418L405.9206 591.418L437.4338 591.418C 438.0554 591.418 438.5859 591.1992 439.0254 590.7598C 439.4649 590.3203 439.6847 589.791 439.6847 589.168L439.6847 589.168L439.6847 583.916C 439.6847 583.2949 439.4649 582.7676 439.0254 582.3262C 438.5859 581.8867 438.0554 581.666 437.4338 581.6641L437.4338 581.6641L405.9206 581.6641C 405.299 581.666 404.7684 581.8867 404.3289 582.3262C 403.8894 582.7676 403.6696 583.2949 403.6696 583.916z" stroke="none" fill="#F3F4F4" fill-rule="winding" /><path transform="matrix(1 0 0 -1 0 841)" d="M404.0448 583.916L404.0448 589.168C 404.0447 589.6875 404.2278 590.1289 404.5941 590.4961C 404.9604 590.8613 405.4026 591.043 405.9206 591.043L405.9206 591.043L437.4338 591.043C 437.9518 591.043 438.3939 590.8613 438.7601 590.4961C 439.1264 590.1289 439.3095 589.6875 439.3096 589.168L439.3096 589.168L439.3096 583.916C 439.3095 583.3984 439.1264 582.957 438.7601 582.5898C 438.3939 582.2246 437.9518 582.041 437.4338 582.0391L437.4338 582.0391L405.9206 582.0391C 405.4026 582.041 404.9604 582.2246 404.5941 582.5898C 404.2278 582.957 404.0447 583.3984 404.0448 583.916z" stroke="#E7EAED" stroke-width="0.7503152" fill="none" /><path transform="matrix(1 0 0 -1 0 841)" d="M126.053 558.4043L126.053 563.6563C 126.053 564.2793 126.2727 564.8125 126.7122 565.25C 127.1518 565.6875 127.6823 565.9082 128.3039 565.9082L128.3039 565.9082L159.8172 565.9082C 160.4387 565.9082 160.9693 565.6875 161.4088 565.25C 161.8483 564.8125 162.0681 564.2793 162.0681 563.6563L162.0681 563.6563L162.0681 558.4043C 162.0681 557.7832 161.8483 557.2539 161.4088 556.8125C 160.9693 556.373 160.4387 556.1543 159.8172 556.1543L159.8172 556.1543L128.3039 556.1543C 127.6823 556.1543 127.1518 556.373 126.7122 556.8125C 126.2727 557.2539 126.053 557.7832 126.053 558.4043z" stroke="none" fill="#F3F4F4" fill-rule="winding" /><path transform="matrix(1 0 0 -1 0 841)" d="M126.4281 558.4043L126.4281 563.6563C 126.4281 564.1777 126.6112 564.6191 126.9775 564.9863C 127.3438 565.3516 127.7859 565.5332 128.3039 565.5332L128.3039 565.5332L159.8172 565.5332C 160.3351 565.5332 160.7773 565.3516 161.1435 564.9863C 161.5098 564.6191 161.6929 564.1777 161.6929 563.6563L161.6929 563.6563L161.6929 558.4043C 161.6929 557.8867 161.5098 557.4473 161.1435 557.0801C 160.7773 556.7129 160.3351 556.5313 159.8172 556.5293L159.8172 556.5293L128.3039 556.5293C 127.7859 556.5313 127.3438 556.7129 126.9775 557.0801C 126.6112 557.4473 126.4281 557.8867 126.4281 558.4043z" stroke="#E7EAED" stroke-width="0.7503152" fill="none" /><path transform="matrix(1 0 0 -1 0 841)" d="M403.6696 558.4043L403.6696 563.6563C 403.6696 564.2793 403.8894 564.8125 404.3289 565.25C 404.7684 565.6875 405.299 565.9082 405.9206 565.9082L405.9206 565.9082L447.9382 565.9082C 448.5598 565.9082 449.0903 565.6875 449.5298 565.25C 449.9693 564.8125 450.1891 564.2793 450.1891 563.6563L450.1891 563.6563L450.1891 558.4043C 450.1891 557.7832 449.9693 557.2539 449.5298 556.8125C 449.0903 556.373 448.5598 556.1543 447.9382 556.1543L447.9382 556.1543L405.9206 556.1543C 405.299 556.1543 404.7684 556.373 404.3289 556.8125C 403.8894 557.2539 403.6696 557.7832 403.6696 558.4043z" stroke="none" fill="#F3F4F4" fill-rule="winding" /><path transform="matrix(1 0 0 -1 0 841)" d="M404.0448 558.4043L404.0448 563.6563C 404.0447 564.1777 404.2278 564.6191 404.5941 564.9863C 404.9604 565.3516 405.4026 565.5332 405.9206 565.5332L405.9206 565.5332L447.9382 565.5332C 448.4562 565.5332 448.8983 565.3516 449.2646 564.9863C 449.6308 564.6191 449.8139 564.1777 449.814 563.6563L449.814 563.6563L449.814 558.4043C 449.8139 557.8867 449.6308 557.4473 449.2646 557.0801C 448.8983 556.7129 448.4562 556.5313 447.9382 556.5293L447.9382 556.5293L405.9206 556.5293C 405.4026 556.5313 404.9604 556.7129 404.5941 557.0801C 404.2278 557.4473 404.0447 557.8867 404.0448 558.4043z" stroke="#E7EAED" stroke-width="0.7503152" fill="none" /><path transform="matrix(1 0 0 -1 0 841)" d="M139.5586 532.8945L139.5586 538.1465C 139.5586 538.7695 139.7784 539.2988 140.2179 539.7402C 140.6574 540.1777 141.188 540.3965 141.8096 540.3965L141.8096 540.3965L200.3342 540.3965C 200.9557 540.3965 201.4863 540.1777 201.9258 539.7402C 202.3653 539.2988 202.5851 538.7695 202.5851 538.1465L202.5851 538.1465L202.5851 532.8945C 202.5851 532.2734 202.3653 531.7441 201.9258 531.3047C 201.4863 530.8652 200.9557 530.6445 200.3342 530.6426L200.3342 530.6426L141.8096 530.6426C 141.188 530.6445 140.6574 530.8652 140.2179 531.3047C 139.7784 531.7441 139.5586 532.2734 139.5586 532.8945z" stroke="none" fill="#F3F4F4" fill-rule="winding" /><path transform="matrix(1 0 0 -1 0 841)" d="M139.9338 532.8945L139.9338 538.1465C 139.9338 538.6641 140.1169 539.1055 140.4832 539.4727C 140.8495 539.8398 141.2916 540.0215 141.8096 540.0215L141.8096 540.0215L200.3342 540.0215C 200.8521 540.0215 201.2943 539.8398 201.6606 539.4727C 202.0268 539.1055 202.2099 538.6641 202.21 538.1465L202.21 538.1465L202.21 532.8945C 202.2099 532.377 202.0268 531.9336 201.6606 531.5684C 201.2943 531.2031 200.8521 531.0195 200.3342 531.0195L200.3342 531.0195L141.8096 531.0195C 141.2916 531.0195 140.8495 531.2031 140.4832 531.5684C 140.1169 531.9336 139.9338 532.377 139.9338 532.8945z" stroke="#E7EAED" stroke-width="0.7503152" fill="none" /><path transform="matrix(1 0 0 -1 0 841)" d="M403.6696 532.8945L403.6696 538.1465C 403.6696 538.7695 403.8894 539.2988 404.3289 539.7402C 404.7684 540.1777 405.299 540.3965 405.9206 540.3965L405.9206 540.3965L437.4338 540.3965C 438.0554 540.3965 438.5859 540.1777 439.0254 539.7402C 439.4649 539.2988 439.6847 538.7695 439.6847 538.1465L439.6847 538.1465L439.6847 532.8945C 439.6847 532.2734 439.4649 531.7441 439.0254 531.3047C 438.5859 530.8652 438.0554 530.6445 437.4338 530.6426L437.4338 530.6426L405.9206 530.6426C 405.299 530.6445 404.7684 530.8652 404.3289 531.3047C 403.8894 531.7441 403.6696 532.2734 403.6696 532.8945z" stroke="none" fill="#F3F4F4" fill-rule="winding" /><path transform="matrix(1 0 0 -1 0 841)" d="M404.0448 532.8945L404.0448 538.1465C 404.0447 538.6641 404.2278 539.1055 404.5941 539.4727C 404.9604 539.8398 405.4026 540.0215 405.9206 540.0215L405.9206 540.0215L437.4338 540.0215C 437.9518 540.0215 438.3939 539.8398 438.7601 539.4727C 439.1264 539.1055 439.3095 538.6641 439.3096 538.1465L439.3096 538.1465L439.3096 532.8945C 439.3095 532.377 439.1264 531.9336 438.7601 531.5684C 438.3939 531.2031 437.9518 531.0195 437.4338 531.0195L437.4338 531.0195L405.9206 531.0195C 405.4026 531.0195 404.9604 531.2031 404.5941 531.5684C 404.2278 531.9336 404.0447 532.377 404.0448 532.8945z" stroke="#E7EAED" stroke-width="0.7503152" fill="none" /><path transform="matrix(1 0 0 -1 0 841)" d="M90.03783 507.3828L90.03783 512.6348C 90.03783 513.2578 90.25758 513.7891 90.69711 514.2285C 91.13663 514.666 91.66719 514.8867 92.28877 514.8867L92.28877 514.8867L140.3089 514.8867C 140.9305 514.8867 141.4611 514.666 141.9006 514.2285C 142.3401 513.7891 142.5599 513.2578 142.5599 512.6348L142.5599 512.6348L142.5599 507.3828C 142.5599 506.7637 142.3401 506.2344 141.9006 505.7949C 141.4611 505.3555 140.9305 505.1348 140.3089 505.1328L140.3089 505.1328L92.28877 505.1328C 91.66719 505.1348 91.13663 505.3555 90.69711 505.7949C 90.25758 506.2344 90.03783 506.7637 90.03783 507.3828z" stroke="none" fill="#F3F4F4" fill-rule="winding" /><path transform="matrix(1 0 0 -1 0 841)" d="M90.41299 507.3828L90.41299 512.6348C 90.41298 513.1543 90.59612 513.5977 90.96239 513.9629C 91.32865 514.3281 91.77079 514.5117 92.28877 514.5117L92.28877 514.5117L140.3089 514.5117C 140.8269 514.5117 141.2691 514.3281 141.6353 513.9629C 142.0016 513.5977 142.1847 513.1543 142.1847 512.6348L142.1847 512.6348L142.1847 507.3828C 142.1847 506.8652 142.0016 506.4258 141.6353 506.0586C 141.2691 505.6914 140.8269 505.5098 140.3089 505.5078L140.3089 505.5078L92.28877 505.5078C 91.77079 505.5098 91.32865 505.6914 90.96239 506.0586C 90.59612 506.4258 90.41298 506.8652 90.41299 507.3828z" stroke="#E7EAED" stroke-width="0.7503152" fill="none" /><path transform="matrix(1 0 0 -1 0 841)" d="M403.6696 507.3828L403.6696 512.6348C 403.6696 513.2578 403.8894 513.7891 404.3289 514.2285C 404.7684 514.666 405.299 514.8867 405.9206 514.8867L405.9206 514.8867L447.9382 514.8867C 448.5598 514.8867 449.0903 514.666 449.5298 514.2285C 449.9693 513.7891 450.1891 513.2578 450.1891 512.6348L450.1891 512.6348L450.1891 507.3828C 450.1891 506.7637 449.9693 506.2344 449.5298 505.7949C 449.0903 505.3555 448.5598 505.1348 447.9382 505.1328L447.9382 505.1328L405.9206 505.1328C 405.299 505.1348 404.7684 505.3555 404.3289 505.7949C 403.8894 506.2344 403.6696 506.7637 403.6696 507.3828z" stroke="none" fill="#F3F4F4" fill-rule="winding" /><path transform="matrix(1 0 0 -1 0 841)" d="M404.0448 507.3828L404.0448 512.6348C 404.0447 513.1543 404.2278 513.5977 404.5941 513.9629C 404.9604 514.3281 405.4026 514.5117 405.9206 514.5117L405.9206 514.5117L447.9382 514.5117C 448.4562 514.5117 448.8983 514.3281 449.2646 513.9629C 449.6308 513.5977 449.8139 513.1543 449.814 512.6348L449.814 512.6348L449.814 507.3828C 449.8139 506.8652 449.6308 506.4258 449.2646 506.0586C 448.8983 505.6914 448.4562 505.5098 447.9382 505.5078L447.9382 505.5078L405.9206 505.5078C 405.4026 505.5098 404.9604 505.6914 404.5941 506.0586C 404.2278 506.4258 404.0447 506.8652 404.0448 507.3828z" stroke="#E7EAED" stroke-width="0.7503152" fill="none" /><path transform="matrix(1 0 0 -1 0 841)" d="M236.3493 418.0957L236.3493 423.3477C 236.3493 423.9707 236.5691 424.502 237.0086 424.9434C 237.4481 425.3809 237.9787 425.5996 238.6003 425.5996L238.6003 425.5996L270.1135 425.5996C 270.735 425.5996 271.2656 425.3809 271.7051 424.9434C 272.1447 424.502 272.3644 423.9707 272.3644 423.3477L272.3644 423.3477L272.3644 418.0957C 272.3644 417.4766 272.1447 416.9453 271.7051 416.5059C 271.2656 416.0664 270.735 415.8457 270.1135 415.8457L270.1135 415.8457L238.6003 415.8457C 237.9787 415.8457 237.4481 416.0664 237.0086 416.5059C 236.5691 416.9453 236.3493 417.4766 236.3493 418.0957z" stroke="none" fill="#F3F4F4" fill-rule="winding" /><path transform="matrix(1 0 0 -1 0 841)" d="M236.7245 418.0957L236.7245 423.3477C 236.7244 423.8652 236.9076 424.3086 237.2738 424.6738C 237.6401 425.041 238.0822 425.2246 238.6003 425.2246L238.6003 425.2246L270.1135 425.2246C 270.6315 425.2246 271.0736 425.041 271.4398 424.6738C 271.8061 424.3086 271.9893 423.8652 271.9893 423.3477L271.9893 423.3477L271.9893 418.0957C 271.9893 417.5781 271.8061 417.1367 271.4398 416.7695C 271.0736 416.4043 270.6315 416.2207 270.1135 416.2207L270.1135 416.2207L238.6003 416.2207C 238.0822 416.2207 237.6401 416.4043 237.2738 416.7695C 236.9076 417.1367 236.7244 417.5781 236.7245 418.0957z" stroke="#E7EAED" stroke-width="0.7503152" fill="none" /><path transform="matrix(1 0 0 -1 0 841)" d="M274.6154 418.0957L274.6154 423.3477C 274.6154 423.9707 274.8351 424.502 275.2747 424.9434C 275.7142 425.3809 276.2448 425.5996 276.8663 425.5996L276.8663 425.5996L298.6255 425.5996C 299.247 425.5996 299.7776 425.3809 300.2171 424.9434C 300.6566 424.502 300.8764 423.9707 300.8764 423.3477L300.8764 423.3477L300.8764 418.0957C 300.8764 417.4766 300.6566 416.9453 300.2171 416.5059C 299.7776 416.0664 299.247 415.8457 298.6255 415.8457L298.6255 415.8457L276.8663 415.8457C 276.2448 415.8457 275.7142 416.0664 275.2747 416.5059C 274.8351 416.9453 274.6154 417.4766 274.6154 418.0957z" stroke="none" fill="#F3F4F4" fill-rule="winding" /><path transform="matrix(1 0 0 -1 0 841)" d="M274.9905 418.0957L274.9905 423.3477C 274.9905 423.8652 275.1737 424.3086 275.5399 424.6738C 275.9062 425.041 276.3483 425.2246 276.8663 425.2246L276.8663 425.2246L298.6255 425.2246C 299.1434 425.2246 299.5856 425.041 299.9518 424.6738C 300.3181 424.3086 300.5013 423.8652 300.5013 423.3477L300.5013 423.3477L300.5013 418.0957C 300.5013 417.5781 300.3181 417.1367 299.9518 416.7695C 299.5856 416.4043 299.1434 416.2207 298.6255 416.2207L298.6255 416.2207L276.8663 416.2207C 276.3483 416.2207 275.9062 416.4043 275.5399 416.7695C 275.1737 417.1367 274.9905 417.5781 274.9905 418.0957z" stroke="#E7EAED" stroke-width="0.7503152" fill="none" /><path transform="matrix(1 0 0 -1 0 841)" d="M303.1273 418.0957L303.1273 423.3477C 303.1273 423.9707 303.3471 424.502 303.7866 424.9434C 304.2262 425.3809 304.7567 425.5996 305.3783 425.5996L305.3783 425.5996L342.1438 425.5996C 342.7653 425.5996 343.2959 425.3809 343.7354 424.9434C 344.1749 424.502 344.3947 423.9707 344.3947 423.3477L344.3947 423.3477L344.3947 418.0957C 344.3947 417.4766 344.1749 416.9453 343.7354 416.5059C 343.2959 416.0664 342.7653 415.8457 342.1438 415.8457L342.1438 415.8457L305.3783 415.8457C 304.7567 415.8457 304.2262 416.0664 303.7866 416.5059C 303.3471 416.9453 303.1273 417.4766 303.1273 418.0957z" stroke="none" fill="#F3F4F4" fill-rule="winding" /><path transform="matrix(1 0 0 -1 0 841)" d="M303.5025 418.0957L303.5025 423.3477C 303.5025 423.8652 303.6856 424.3086 304.0519 424.6738C 304.4182 425.041 304.8603 425.2246 305.3783 425.2246L305.3783 425.2246L342.1438 425.2246C 342.6617 425.2246 343.1039 425.041 343.4701 424.6738C 343.8364 424.3086 344.0195 423.8652 344.0195 423.3477L344.0195 423.3477L344.0195 418.0957C 344.0195 417.5781 343.8364 417.1367 343.4701 416.7695C 343.1039 416.4043 342.6617 416.2207 342.1438 416.2207L342.1438 416.2207L305.3783 416.2207C 304.8603 416.2207 304.4182 416.4043 304.0519 416.7695C 303.6856 417.1367 303.5025 417.5781 303.5025 418.0957z" stroke="#E7EAED" stroke-width="0.7503152" fill="none" /><path transform="matrix(1 0 0 -1 0 841)" d="M236.3493 392.5859L236.3493 397.8379C 236.3493 398.4609 236.5691 398.9902 237.0086 399.4297C 237.4481 399.8691 237.9787 400.0879 238.6003 400.0879L238.6003 400.0879L259.6091 400.0879C 260.2307 400.0879 260.7612 399.8691 261.2007 399.4297C 261.6403 398.9902 261.86 398.4609 261.86 397.8379L261.86 397.8379L261.86 392.5859C 261.86 391.9648 261.6403 391.4355 261.2007 390.9961C 260.7612 390.5566 260.2307 390.3359 259.6091 390.334L259.6091 390.334L238.6003 390.334C 237.9787 390.3359 237.4481 390.5566 237.0086 390.9961C 236.5691 391.4355 236.3493 391.9648 236.3493 392.5859z" stroke="none" fill="#F3F4F4" fill-rule="winding" /><path transform="matrix(1 0 0 -1 0 841)" d="M236.7245 392.5859L236.7245 397.8379C 236.7244 398.3555 236.9076 398.7988 237.2738 399.166C 237.6401 399.5293 238.0822 399.7129 238.6003 399.7129L238.6003 399.7129L259.6091 399.7129C 260.127 399.7129 260.5692 399.5293 260.9354 399.166C 261.3017 398.7988 261.4848 398.3555 261.4848 397.8379L261.4848 397.8379L261.4848 392.5859C 261.4848 392.0684 261.3017 391.627 260.9354 391.2598C 260.5692 390.8945 260.127 390.7109 259.6091 390.709L259.6091 390.709L238.6003 390.709C 238.0822 390.7109 237.6401 390.8945 237.2738 391.2598C 236.9076 391.627 236.7244 392.0684 236.7245 392.5859z" stroke="#E7EAED" stroke-width="0.7503152" fill="none" /><path transform="matrix(1 0 0 -1 0 841)" d="M267.1122 392.5859L267.1122 397.8379C 267.1122 398.4609 267.332 398.9902 267.7715 399.4297C 268.211 399.8691 268.7416 400.0879 269.3632 400.0879L269.3632 400.0879L295.6242 400.0879C 296.2458 400.0879 296.7763 399.8691 297.2158 399.4297C 297.6554 398.9902 297.8751 398.4609 297.8752 397.8379L297.8752 397.8379L297.8752 392.5859C 297.8751 391.9648 297.6554 391.4355 297.2158 390.9961C 296.7763 390.5566 296.2458 390.3359 295.6242 390.334L295.6242 390.334L269.3632 390.334C 268.7416 390.3359 268.211 390.5566 267.7715 390.9961C 267.332 391.4355 267.1122 391.9648 267.1122 392.5859z" stroke="none" fill="#F3F4F4" fill-rule="winding" /><path transform="matrix(1 0 0 -1 0 841)" d="M267.4874 392.5859L267.4874 397.8379C 267.4874 398.3555 267.6705 398.7988 268.0368 399.166C 268.403 399.5293 268.8452 399.7129 269.3632 399.7129L269.3632 399.7129L295.6242 399.7129C 296.1422 399.7129 296.5843 399.5293 296.9506 399.166C 297.3168 398.7988 297.5 398.3555 297.5 397.8379L297.5 397.8379L297.5 392.5859C 297.5 392.0684 297.3168 391.627 296.9506 391.2598C 296.5843 390.8945 296.1422 390.7109 295.6242 390.709L295.6242 390.709L269.3632 390.709C 268.8452 390.7109 268.403 390.8945 268.0368 391.2598C 267.6705 391.627 267.4874 392.0684 267.4874 392.5859z" stroke="#E7EAED" stroke-width="0.7503152" fill="none" /><path transform="matrix(1 0 0 -1 0 841)" d="M303.1273 392.5859L303.1273 397.8379C 303.1273 398.4609 303.3471 398.9902 303.7866 399.4297C 304.2262 399.8691 304.7567 400.0879 305.3783 400.0879L305.3783 400.0879L342.1438 400.0879C 342.7653 400.0879 343.2959 399.8691 343.7354 399.4297C 344.1749 398.9902 344.3947 398.4609 344.3947 397.8379L344.3947 397.8379L344.3947 392.5859C 344.3947 391.9648 344.1749 391.4355 343.7354 390.9961C 343.2959 390.5566 342.7653 390.3359 342.1438 390.334L342.1438 390.334L305.3783 390.334C 304.7567 390.3359 304.2262 390.5566 303.7866 390.9961C 303.3471 391.4355 303.1273 391.9648 303.1273 392.5859z" stroke="none" fill="#F3F4F4" fill-rule="winding" /><path transform="matrix(1 0 0 -1 0 841)" d="M303.5025 392.5859L303.5025 397.8379C 303.5025 398.3555 303.6856 398.7988 304.0519 399.166C 304.4182 399.5293 304.8603 399.7129 305.3783 399.7129L305.3783 399.7129L342.1438 399.7129C 342.6617 399.7129 343.1039 399.5293 343.4701 399.166C 343.8364 398.7988 344.0195 398.3555 344.0195 397.8379L344.0195 397.8379L344.0195 392.5859C 344.0195 392.0684 343.8364 391.627 343.4701 391.2598C 343.1039 390.8945 342.6617 390.7109 342.1438 390.709L342.1438 390.709L305.3783 390.709C 304.8603 390.7109 304.4182 390.8945 304.0519 391.2598C 303.6856 391.627 303.5025 392.0684 303.5025 392.5859z" stroke="#E7EAED" stroke-width="0.7503152" fill="none" /><path transform="matrix(1 0 0 -1 0 841)" d="M348.8966 392.5859L348.8966 397.8379C 348.8966 398.4609 349.1163 398.9902 349.5559 399.4297C 349.9954 399.8691 350.5259 400.0879 351.1475 400.0879L351.1475 400.0879L372.9067 400.0879C 373.5282 400.0879 374.0588 399.8691 374.4983 399.4297C 374.9378 398.9902 375.1576 398.4609 375.1576 397.8379L375.1576 397.8379L375.1576 392.5859C 375.1576 391.9648 374.9378 391.4355 374.4983 390.9961C 374.0588 390.5566 373.5282 390.3359 372.9067 390.334L372.9067 390.334L351.1475 390.334C 350.5259 390.3359 349.9954 390.5566 349.5559 390.9961C 349.1163 391.4355 348.8966 391.9648 348.8966 392.5859z" stroke="none" fill="#F3F4F4" fill-rule="winding" /><path transform="matrix(1 0 0 -1 0 841)" d="M349.2718 392.5859L349.2718 397.8379C 349.2717 398.3555 349.4549 398.7988 349.8211 399.166C 350.1874 399.5293 350.6295 399.7129 351.1475 399.7129L351.1475 399.7129L372.9067 399.7129C 373.4247 399.7129 373.8668 399.5293 374.233 399.166C 374.5993 398.7988 374.7824 398.3555 374.7825 397.8379L374.7825 397.8379L374.7825 392.5859C 374.7824 392.0684 374.5993 391.627 374.233 391.2598C 373.8668 390.8945 373.4247 390.7109 372.9067 390.709L372.9067 390.709L351.1475 390.709C 350.6295 390.7109 350.1874 390.8945 349.8211 391.2598C 349.4549 391.627 349.2717 392.0684 349.2718 392.5859z" stroke="#E7EAED" stroke-width="0.7503152" fill="none" /><path transform="matrix(1 0 0 -1 0 841)" d="M236.3493 367.0742L236.3493 372.3262C 236.3493 372.9492 236.5691 373.4805 237.0086 373.9199C 237.4481 374.3574 237.9787 374.5781 238.6003 374.5781L238.6003 374.5781L264.8613 374.5781C 265.4828 374.5781 266.0134 374.3574 266.4529 373.9199C 266.8924 373.4805 267.1122 372.9492 267.1122 372.3262L267.1122 372.3262L267.1122 367.0742C 267.1122 366.4531 266.8924 365.9219 266.4529 365.4824C 266.0134 365.043 265.4828 364.8242 264.8613 364.8242L264.8613 364.8242L238.6003 364.8242C 237.9787 364.8242 237.4481 365.043 237.0086 365.4824C 236.5691 365.9219 236.3493 366.4531 236.3493 367.0742z" stroke="none" fill="#F3F4F4" fill-rule="winding" /><path transform="matrix(1 0 0 -1 0 841)" d="M236.7245 367.0742L236.7245 372.3262C 236.7244 372.8477 236.9076 373.2891 237.2738 373.6563C 237.6401 374.0215 238.0822 374.2031 238.6003 374.2031L238.6003 374.2031L264.8613 374.2031C 265.3792 374.2031 265.8214 374.0215 266.1877 373.6563C 266.5539 373.2891 266.7371 372.8477 266.7371 372.3262L266.7371 372.3262L266.7371 367.0742C 266.7371 366.5566 266.5539 366.1152 266.1877 365.75C 265.8214 365.3828 265.3792 365.1992 264.8613 365.1992L264.8613 365.1992L238.6003 365.1992C 238.0822 365.1992 237.6401 365.3828 237.2738 365.75C 236.9076 366.1152 236.7244 366.5566 236.7245 367.0742z" stroke="#E7EAED" stroke-width="0.7503152" fill="none" /><path transform="matrix(1 0 0 -1 0 841)" d="M272.3644 367.0742L272.3644 372.3262C 272.3644 372.9492 272.5842 373.4805 273.0237 373.9199C 273.4632 374.3574 273.9938 374.5781 274.6154 374.5781L274.6154 374.5781L306.1286 374.5781C 306.7502 374.5781 307.2807 374.3574 307.7202 373.9199C 308.1598 373.4805 308.3795 372.9492 308.3796 372.3262L308.3796 372.3262L308.3796 367.0742C 308.3795 366.4531 308.1598 365.9219 307.7202 365.4824C 307.2807 365.043 306.7502 364.8242 306.1286 364.8242L306.1286 364.8242L274.6154 364.8242C 273.9938 364.8242 273.4632 365.043 273.0237 365.4824C 272.5842 365.9219 272.3644 366.4531 272.3644 367.0742z" stroke="none" fill="#F3F4F4" fill-rule="winding" /><path transform="matrix(1 0 0 -1 0 841)" d="M272.7396 367.0742L272.7396 372.3262C 272.7396 372.8477 272.9227 373.2891 273.289 373.6563C 273.6552 374.0215 274.0974 374.2031 274.6154 374.2031L274.6154 374.2031L306.1286 374.2031C 306.6466 374.2031 307.0887 374.0215 307.455 373.6563C 307.8213 373.2891 308.0044 372.8477 308.0044 372.3262L308.0044 372.3262L308.0044 367.0742C 308.0044 366.5566 307.8213 366.1152 307.455 365.75C 307.0887 365.3828 306.6466 365.1992 306.1286 365.1992L306.1286 365.1992L274.6154 365.1992C 274.0974 365.1992 273.6552 365.3828 273.289 365.75C 272.9227 366.1152 272.7396 366.5566 272.7396 367.0742z" stroke="#E7EAED" stroke-width="0.7503152" fill="none" /><path transform="matrix(1 0 0 -1 0 841)" d="M236.3493 341.5645L236.3493 346.8164C 236.3493 347.4395 236.5691 347.9707 237.0086 348.4102C 237.4481 348.8477 237.9787 349.0664 238.6003 349.0664L238.6003 349.0664L275.3657 349.0664C 275.9872 349.0664 276.5178 348.8477 276.9573 348.4102C 277.3969 347.9707 277.6166 347.4395 277.6166 346.8164L277.6166 346.8164L277.6166 341.5645C 277.6166 340.9434 277.3969 340.4141 276.9573 339.9746C 276.5178 339.5332 275.9872 339.3145 275.3657 339.3125L275.3657 339.3125L238.6003 339.3125C 237.9787 339.3145 237.4481 339.5332 237.0086 339.9746C 236.5691 340.4141 236.3493 340.9434 236.3493 341.5645z" stroke="none" fill="#F3F4F4" fill-rule="winding" /><path transform="matrix(1 0 0 -1 0 841)" d="M236.7245 341.5645L236.7245 346.8164C 236.7244 347.3359 236.9076 347.7793 237.2738 348.1445C 237.6401 348.5078 238.0822 348.6914 238.6003 348.6914L238.6003 348.6914L275.3657 348.6914C 275.8837 348.6914 276.3258 348.5078 276.692 348.1445C 277.0583 347.7793 277.2415 347.3359 277.2415 346.8164L277.2415 346.8164L277.2415 341.5645C 277.2415 341.0469 277.0583 340.6035 276.692 340.2383C 276.3258 339.8711 275.8837 339.6875 275.3657 339.6875L275.3657 339.6875L238.6003 339.6875C 238.0822 339.6875 237.6401 339.8711 237.2738 340.2383C 236.9076 340.6035 236.7244 341.0469 236.7245 341.5645z" stroke="#E7EAED" stroke-width="0.7503152" fill="none" /><path transform="matrix(1 0 0 -1 0 841)" d="M236.3493 316.0527L236.3493 321.3047C 236.3493 321.9277 236.5691 322.459 237.0086 322.8984C 237.4481 323.3359 237.9787 323.5566 238.6003 323.5566L238.6003 323.5566L259.6091 323.5566C 260.2307 323.5566 260.7612 323.3359 261.2007 322.8984C 261.6403 322.459 261.86 321.9277 261.86 321.3047L261.86 321.3047L261.86 316.0527C 261.86 315.4336 261.6403 314.9043 261.2007 314.4648C 260.7612 314.0254 260.2307 313.8027 259.6091 313.8027L259.6091 313.8027L238.6003 313.8027C 237.9787 313.8027 237.4481 314.0254 237.0086 314.4648C 236.5691 314.9043 236.3493 315.4336 236.3493 316.0527z" stroke="none" fill="#F3F4F4" fill-rule="winding" /><path transform="matrix(1 0 0 -1 0 841)" d="M236.7245 316.0527L236.7245 321.3047C 236.7244 321.8242 236.9076 322.2656 237.2738 322.6328C 237.6401 322.998 238.0822 323.1816 238.6003 323.1816L238.6003 323.1816L259.6091 323.1816C 260.127 323.1816 260.5692 322.998 260.9354 322.6328C 261.3017 322.2656 261.4848 321.8242 261.4848 321.3047L261.4848 321.3047L261.4848 316.0527C 261.4848 315.5352 261.3017 315.0938 260.9354 314.7285C 260.5692 314.3613 260.127 314.1777 259.6091 314.1777L259.6091 314.1777L238.6003 314.1777C 238.0822 314.1777 237.6401 314.3613 237.2738 314.7285C 236.9076 315.0938 236.7244 315.5352 236.7245 316.0527z" stroke="#E7EAED" stroke-width="0.7503152" fill="none" /><path transform="matrix(1 0 0 -1 0 841)" d="M76.53216 286.416C 76.53215 285.8984 76.34901 285.457 75.98274 285.0898C 75.61648 284.7266 75.17435 284.541 74.65636 284.541C 74.13838 284.541 73.69625 284.7266 73.32998 285.0898C 72.96371 285.457 72.78057 285.8984 72.78058 286.416C 72.78057 286.9336 72.96371 287.375 73.32998 287.7422C 73.69625 288.1074 74.13838 288.291 74.65636 288.291C 75.17435 288.291 75.61648 288.1074 75.98274 287.7422C 76.34901 287.375 76.53215 286.9336 76.53216 286.416z" stroke="none" fill="#777777" fill-rule="winding" /><path transform="matrix(1 0 0 -1 0 841)" d="M76.53216 256.4023C 76.53215 255.8848 76.34901 255.4453 75.98274 255.0781C 75.61648 254.7109 75.17435 254.5293 74.65636 254.5273C 74.13838 254.5293 73.69625 254.7109 73.32998 255.0781C 72.96371 255.4453 72.78057 255.8848 72.78058 256.4023C 72.78057 256.9219 72.96371 257.3652 73.32998 257.7305C 73.69625 258.0957 74.13838 258.2793 74.65636 258.2793C 75.17435 258.2793 75.61648 258.0957 75.98274 257.7305C 76.34901 257.3652 76.53215 256.9219 76.53216 256.4023z" stroke="none" fill="#777777" fill-rule="winding" /><path transform="matrix(1 0 0 -1 0 841)" d="M76.53216 211.3848C 76.53215 210.8691 76.34901 210.4258 75.98274 210.0586C 75.61648 209.6934 75.17435 209.5117 74.65636 209.5078C 74.13838 209.5117 73.69625 209.6934 73.32998 210.0586C 72.96371 210.4258 72.78057 210.8691 72.78058 211.3848C 72.78057 211.9023 72.96371 212.3457 73.32998 212.7109C 73.69625 213.0781 74.13838 213.2598 74.65636 213.2598C 75.17435 213.2598 75.61648 213.0781 75.98274 212.7109C 76.34901 212.3457 76.53215 211.9023 76.53216 211.3848z" stroke="none" fill="#777777" fill-rule="winding" /><path transform="matrix(1 0 0 -1 0 841)" d="M48.39533 -243.6816L48.39533 138.2285C 48.39533 138.7461 48.57846 139.1895 48.94473 139.5566C 49.311 139.9219 49.75313 140.1035 50.27112 140.1035L50.27112 140.1035L544.7289 140.1035C 545.2468 140.1035 545.6889 139.9219 546.0552 139.5566C 546.4214 139.1895 546.6046 138.7461 546.6047 138.2285L546.6047 138.2285L546.6047 -243.6816C 546.6046 -244.1973 546.4214 -244.6406 546.0552 -245.0078C 545.6889 -245.373 545.2468 -245.5547 544.7289 -245.5586L544.7289 -245.5586L50.27112 -245.5586C 49.75313 -245.5547 49.311 -245.373 48.94473 -245.0078C 48.57846 -244.6406 48.39533 -244.1973 48.39533 -243.6816z" stroke="none" fill="#F8F8F8" fill-rule="winding" /><path transform="matrix(1 0 0 -1 0 841)" d="M48.39533 -243.6816L48.39533 138.2285C 48.39533 138.7461 48.57846 139.1895 48.94473 139.5566C 49.311 139.9219 49.75313 140.1035 50.27112 140.1035L50.27112 140.1035L544.7289 140.1035C 545.2468 140.1035 545.6889 139.9219 546.0552 139.5566C 546.4214 139.1895 546.6046 138.7461 546.6047 138.2285L546.6047 138.2285L546.6047 -243.6816C 546.6046 -244.1973 546.4214 -244.6406 546.0552 -245.0078C 545.6889 -245.373 545.2468 -245.5547 544.7289 -245.5586L544.7289 -245.5586L50.27112 -245.5586C 49.75313 -245.5547 49.311 -245.373 48.94473 -245.0078C 48.57846 -244.6406 48.39533 -244.1973 48.39533 -243.6816z" stroke="#E7EAED" stroke-width="0.7503152" fill="none" /></g><g clip-path="url(#3)"><path transform="matrix(1 0 0 -1 0 841)" d="M48.77049 133.7266L543.2282 133.7266L543.2282 133.7266L543.2282 -240.6816L543.2282 -240.6816L48.77049 -240.6816z" stroke="none" fill="#F8F8F8" fill-rule="winding" /><path transform="matrix(1 0 0 -1 0 841)" d="M48.77049 133.7266L543.2282 133.7266L543.2282 133.7266L543.2282 -240.6816L543.2282 -240.6816L48.77049 -240.6816z" stroke="none" fill="#F8F8F8" fill-rule="winding" /><path transform="matrix(1 0 0 -1 0 841)" d="M48.77049 133.7266L75.78184 133.7266L75.78184 133.7266L75.78184 -332.2188L75.78184 -332.2188L48.77049 -332.2188z" stroke="none" fill="#F8F8F8" fill-rule="winding" /><path transform="matrix(1 0 0 -1 0 841)" d="M75.03152 133.7266L75.78184 133.7266L75.78184 133.7266L75.78184 -332.2188L75.78184 -332.2188L75.03152 -332.2188z" stroke="none" fill="#DDDDDD" fill-rule="winding" /></g><g transform="matrix(0.2399193 0 0 0.2399322 0 -14.78003)"><g transform="matrix(1 0 0 1 0 0)"><image x="0" y="0" xlink:href="img_02.png" width="2480" height="295" /></g></g><g transform="matrix(0.4798387 0 0 0.4798876 0 798.29)"><g transform="matrix(1 0 0 1 0 0)"><image x="0" y="0" xlink:href="img_03.png" width="1240" height="89" /></g></g></g></g></g></svg>