<svg xmlns="http://www.w3.org/2000/svg" xmlns:xlink="http://www.w3.org/1999/xlink" id="body_44" preserveAspectRatio="xMinYMin meet" viewBox="0 0 793 1121"><defs><clipPath id="1"><path d="M0 841L0 0L0 0L595 0L595 0L595 841L595 841L0 841z" /></clipPath><clipPath id="2"><path d="M0 56L595 56L595 56L595 784.5566L595 784.5566L0 784.5566z" /></clipPath><clipPath id="3"><path d="M48.77049 62.75391L543.2282 62.75391L543.2282 62.75391L543.2282 116.7754L543.2282 116.7754L48.77049 116.7754z" /></clipPath><clipPath id="4"><path d="M0 56L595 56L595 56L595 784.5566L595 784.5566L0 784.5566z" /></clipPath><clipPath id="5"><path d="M48.77049 287.0977L543.2282 287.0977L543.2282 287.0977L543.2282 422.1543L543.2282 422.1543L48.77049 422.1543z" /></clipPath><clipPath id="6"><path d="M0 56L595 56L595 56L595 784.5566L595 784.5566L0 784.5566z" /></clipPath><clipPath id="7"><path d="M48.77049 524.1973L543.2282 524.1973L543.2282 524.1973L543.2282 686.2656L543.2282 686.2656L48.77049 686.2656z" /></clipPath><clipPath id="8"><path d="M0 56L595 56L595 56L595 784.5566L595 784.5566L0 784.5566z" /></clipPath><clipPath id="9"><path d="M48.77049 62.75391L543.2282 62.75391L543.2282 62.75391L543.2282 116.7754L543.2282 116.7754L48.77049 116.7754z" /></clipPath><clipPath id="10"><path d="M48.77049 287.0977L543.2282 287.0977L543.2282 287.0977L543.2282 422.1543L543.2282 422.1543L48.77049 422.1543z" /></clipPath><clipPath id="11"><path d="M48.77049 524.1973L543.2282 524.1973L543.2282 524.1973L543.2282 686.2656L543.2282 686.2656L48.77049 686.2656z" /></clipPath></defs><g transform="matrix(1.333333 0 0 1.333333 0 0)"><g><g clip-path="url(#1)"><g clip-path="url(#2)"><path transform="matrix(1 0 0 -1 0 841)" d="M0 32112.91L595 32112.91L595 32112.91L595 -25864.7L595 -25864.7L0 -25864.7z" stroke="none" fill="#FFFFFF" fill-rule="winding" /><path transform="matrix(1 0 0 -1 0 841)" d="M48.39533 721.2227L48.39533 782.748C 48.39533 783.2676 48.57846 783.7129 48.94473 784.0801C 49.311 784.4434 49.75313 784.625 50.27112 784.625L50.27112 784.625L544.7289 784.625C 545.2468 784.625 545.6889 784.4434 546.0552 784.0801C 546.4214 783.7129 546.6046 783.2676 546.6047 782.748L546.6047 782.748L546.6047 721.2227C 546.6046 720.7031 546.4214 720.2637 546.0552 719.8984C 545.6889 719.5313 545.2468 719.3477 544.7289 719.3477L544.7289 719.3477L50.27112 719.3477C 49.75313 719.3477 49.311 719.5313 48.94473 719.8984C 48.57846 720.2637 48.39533 720.7031 48.39533 721.2227z" stroke="none" fill="#F8F8F8" fill-rule="winding" /><path transform="matrix(1 0 0 -1 0 841)" d="M48.39533 721.2227L48.39533 782.748C 48.39533 783.2676 48.57846 783.7129 48.94473 784.0801C 49.311 784.4434 49.75313 784.625 50.27112 784.625L50.27112 784.625L544.7289 784.625C 545.2468 784.625 545.6889 784.4434 546.0552 784.0801C 546.4214 783.7129 546.6046 783.2676 546.6047 782.748L546.6047 782.748L546.6047 721.2227C 546.6046 720.7031 546.4214 720.2637 546.0552 719.8984C 545.6889 719.5313 545.2468 719.3477 544.7289 719.3477L544.7289 719.3477L50.27112 719.3477C 49.75313 719.3477 49.311 719.5313 48.94473 719.8984C 48.57846 720.2637 48.39533 720.7031 48.39533 721.2227z" stroke="#E7EAED" stroke-width="0.7503152" fill="none" /></g><g clip-path="url(#3)"><path transform="matrix(1 0 0 -1 0 841)" d="M48.77049 778.2461L543.2282 778.2461L543.2282 778.2461L543.2282 724.2246L543.2282 724.2246L48.77049 724.2246z" stroke="none" fill="#F8F8F8" fill-rule="winding" /></g><g clip-path="url(#4)"><path transform="matrix(1 0 0 -1 0 841)" d="M48.02018 670.2012L48.02018 675.4531C 48.02017 676.0781 48.23994 676.6074 48.67946 677.0488C 49.11898 677.4844 49.64954 677.7051 50.27112 677.7051L50.27112 677.7051L71.27995 677.7051C 71.90153 677.7051 72.43208 677.4844 72.8716 677.0488C 73.31113 676.6074 73.53089 676.0781 73.53089 675.4531L73.53089 675.4531L73.53089 670.2012C 73.53089 669.5801 73.31113 669.0488 72.8716 668.6094C 72.43208 668.1699 71.90153 667.9512 71.27995 667.9512L71.27995 667.9512L50.27112 667.9512C 49.64954 667.9512 49.11898 668.1699 48.67946 668.6094C 48.23994 669.0488 48.02017 669.5801 48.02018 670.2012z" stroke="none" fill="#F3F4F4" fill-rule="winding" /><path transform="matrix(1 0 0 -1 0 841)" d="M48.39533 670.2012L48.39533 675.4531C 48.39533 675.9727 48.57846 676.418 48.94473 676.7832C 49.311 677.1484 49.75313 677.3301 50.27112 677.3301L50.27112 677.3301L71.27995 677.3301C 71.79793 677.3301 72.24005 677.1484 72.60632 676.7832C 72.97259 676.418 73.15573 675.9727 73.15574 675.4531L73.15574 675.4531L73.15574 670.2012C 73.15573 669.6855 72.97259 669.2461 72.60632 668.8789C 72.24005 668.5137 71.79793 668.3281 71.27995 668.3262L71.27995 668.3262L50.27112 668.3262C 49.75313 668.3281 49.311 668.5137 48.94473 668.8789C 48.57846 669.2461 48.39533 669.6855 48.39533 670.2012z" stroke="#E7EAED" stroke-width="0.7503152" fill="none" /><path transform="matrix(1 0 0 -1 0 841)" d="M48.02018 646.9414L48.02018 652.1934C 48.02017 652.8184 48.23994 653.3477 48.67946 653.7891C 49.11898 654.2246 49.64954 654.4453 50.27112 654.4453L50.27112 654.4453L71.27995 654.4453C 71.90153 654.4453 72.43208 654.2246 72.8716 653.7891C 73.31113 653.3477 73.53089 652.8184 73.53089 652.1934L73.53089 652.1934L73.53089 646.9414C 73.53089 646.3203 73.31113 645.7891 72.8716 645.3496C 72.43208 644.9102 71.90153 644.6914 71.27995 644.6914L71.27995 644.6914L50.27112 644.6914C 49.64954 644.6914 49.11898 644.9102 48.67946 645.3496C 48.23994 645.7891 48.02017 646.3203 48.02018 646.9414z" stroke="none" fill="#F3F4F4" fill-rule="winding" /><path transform="matrix(1 0 0 -1 0 841)" d="M48.39533 646.9414L48.39533 652.1934C 48.39533 652.7129 48.57846 653.1543 48.94473 653.5215C 49.311 653.8887 49.75313 654.0703 50.27112 654.0703L50.27112 654.0703L71.27995 654.0703C 71.79793 654.0703 72.24005 653.8887 72.60632 653.5215C 72.97259 653.1543 73.15573 652.7129 73.15574 652.1934L73.15574 652.1934L73.15574 646.9414C 73.15573 646.4258 72.97259 645.9824 72.60632 645.6172C 72.24005 645.25 71.79793 645.0684 71.27995 645.0664L71.27995 645.0664L50.27112 645.0664C 49.75313 645.0684 49.311 645.25 48.94473 645.6172C 48.57846 645.9824 48.39533 646.4258 48.39533 646.9414z" stroke="#E7EAED" stroke-width="0.7503152" fill="none" /><path transform="matrix(1 0 0 -1 0 841)" d="M225.0946 646.9414L225.0946 652.1934C 225.0946 652.8184 225.3143 653.3477 225.7538 653.7891C 226.1934 654.2246 226.7239 654.4453 227.3455 654.4453L227.3455 654.4453L243.8525 654.4453C 244.474 654.4453 245.0046 654.2246 245.4441 653.7891C 245.8836 653.3477 246.1034 652.8184 246.1034 652.1934L246.1034 652.1934L246.1034 646.9414C 246.1034 646.3203 245.8836 645.7891 245.4441 645.3496C 245.0046 644.9102 244.474 644.6914 243.8525 644.6914L243.8525 644.6914L227.3455 644.6914C 226.7239 644.6914 226.1934 644.9102 225.7538 645.3496C 225.3143 645.7891 225.0946 646.3203 225.0946 646.9414z" stroke="none" fill="#F3F4F4" fill-rule="winding" /><path transform="matrix(1 0 0 -1 0 841)" d="M225.4697 646.9414L225.4697 652.1934C 225.4697 652.7129 225.6529 653.1543 226.0191 653.5215C 226.3854 653.8887 226.8275 654.0703 227.3455 654.0703L227.3455 654.0703L243.8525 654.0703C 244.3704 654.0703 244.8125 653.8887 245.1788 653.5215C 245.5451 653.1543 245.7282 652.7129 245.7282 652.1934L245.7282 652.1934L245.7282 646.9414C 245.7282 646.4258 245.5451 645.9824 245.1788 645.6172C 244.8125 645.25 244.3704 645.0684 243.8525 645.0664L243.8525 645.0664L227.3455 645.0664C 226.8275 645.0684 226.3854 645.25 226.0191 645.6172C 225.6529 645.9824 225.4697 646.4258 225.4697 646.9414z" stroke="#E7EAED" stroke-width="0.7503152" fill="none" /><path transform="matrix(1 0 0 -1 0 841)" d="M48.02018 622.9316L48.02018 628.1836C 48.02017 628.8086 48.23994 629.3379 48.67946 629.7773C 49.11898 630.2148 49.64954 630.4355 50.27112 630.4355L50.27112 630.4355L92.28877 630.4355C 92.91035 630.4355 93.44091 630.2148 93.88043 629.7773C 94.31995 629.3379 94.53972 628.8086 94.53972 628.1836L94.53972 628.1836L94.53972 622.9316C 94.53972 622.3105 94.31995 621.7793 93.88043 621.3398C 93.44091 620.9004 92.91035 620.6797 92.28877 620.6797L92.28877 620.6797L50.27112 620.6797C 49.64954 620.6797 49.11898 620.9004 48.67946 621.3398C 48.23994 621.7793 48.02017 622.3105 48.02018 622.9316z" stroke="none" fill="#F3F4F4" fill-rule="winding" /><path transform="matrix(1 0 0 -1 0 841)" d="M48.39533 622.9316L48.39533 628.1836C 48.39533 628.7031 48.57846 629.1484 48.94473 629.5137C 49.311 629.877 49.75313 630.0586 50.27112 630.0586L50.27112 630.0586L92.28877 630.0586C 92.80676 630.0586 93.24888 629.877 93.61515 629.5137C 93.98142 629.1484 94.16456 628.7031 94.16456 628.1836L94.16456 628.1836L94.16456 622.9316C 94.16456 622.416 93.98142 621.9766 93.61515 621.6094C 93.24888 621.2441 92.80676 621.0586 92.28877 621.0586L92.28877 621.0586L50.27112 621.0586C 49.75313 621.0586 49.311 621.2441 48.94473 621.6094C 48.57846 621.9766 48.39533 622.416 48.39533 622.9316z" stroke="#E7EAED" stroke-width="0.7503152" fill="none" /><path transform="matrix(1 0 0 -1 0 841)" d="M253.6066 622.9316L253.6066 628.1836C 253.6066 628.8086 253.8263 629.3379 254.2658 629.7773C 254.7054 630.2148 255.2359 630.4355 255.8575 630.4355L255.8575 630.4355L272.3644 630.4355C 272.986 630.4355 273.5166 630.2148 273.9561 629.7773C 274.3956 629.3379 274.6154 628.8086 274.6154 628.1836L274.6154 628.1836L274.6154 622.9316C 274.6154 622.3105 274.3956 621.7793 273.9561 621.3398C 273.5166 620.9004 272.986 620.6797 272.3644 620.6797L272.3644 620.6797L255.8575 620.6797C 255.2359 620.6797 254.7054 620.9004 254.2658 621.3398C 253.8263 621.7793 253.6066 622.3105 253.6066 622.9316z" stroke="none" fill="#F3F4F4" fill-rule="winding" /><path transform="matrix(1 0 0 -1 0 841)" d="M253.9817 622.9316L253.9817 628.1836C 253.9817 628.7031 254.1648 629.1484 254.5311 629.5137C 254.8974 629.877 255.3395 630.0586 255.8575 630.0586L255.8575 630.0586L272.3644 630.0586C 272.8824 630.0586 273.3245 629.877 273.6908 629.5137C 274.0571 629.1484 274.2402 628.7031 274.2402 628.1836L274.2402 628.1836L274.2402 622.9316C 274.2402 622.416 274.0571 621.9766 273.6908 621.6094C 273.3245 621.2441 272.8824 621.0586 272.3644 621.0586L272.3644 621.0586L255.8575 621.0586C 255.3395 621.0586 254.8974 621.2441 254.5311 621.6094C 254.1648 621.9766 253.9817 622.416 253.9817 622.9316z" stroke="#E7EAED" stroke-width="0.7503152" fill="none" /><path transform="matrix(1 0 0 -1 0 841)" d="M48.02018 599.6719L48.02018 604.9238C 48.02017 605.5488 48.23994 606.0781 48.67946 606.5176C 49.11898 606.9551 49.64954 607.1758 50.27112 607.1758L50.27112 607.1758L81.78436 607.1758C 82.40594 607.1758 82.93649 606.9551 83.37601 606.5176C 83.81554 606.0781 84.0353 605.5488 84.03531 604.9238L84.03531 604.9238L84.03531 599.6719C 84.0353 599.0508 83.81554 598.5195 83.37601 598.0801C 82.93649 597.6406 82.40594 597.4199 81.78436 597.4199L81.78436 597.4199L50.27112 597.4199C 49.64954 597.4199 49.11898 597.6406 48.67946 598.0801C 48.23994 598.5195 48.02017 599.0508 48.02018 599.6719z" stroke="none" fill="#F3F4F4" fill-rule="winding" /><path transform="matrix(1 0 0 -1 0 841)" d="M48.39533 599.6719L48.39533 604.9238C 48.39533 605.4434 48.57846 605.8848 48.94473 606.252C 49.311 606.6172 49.75313 606.7988 50.27112 606.7988L50.27112 606.7988L81.78436 606.7988C 82.30235 606.7988 82.74448 606.6172 83.11074 606.252C 83.47701 605.8848 83.66014 605.4434 83.66015 604.9238L83.66015 604.9238L83.66015 599.6719C 83.66014 599.1563 83.47701 598.7129 83.11074 598.3477C 82.74448 597.9805 82.30235 597.7988 81.78436 597.7949L81.78436 597.7949L50.27112 597.7949C 49.75313 597.7988 49.311 597.9805 48.94473 598.3477C 48.57846 598.7129 48.39533 599.1563 48.39533 599.6719z" stroke="#E7EAED" stroke-width="0.7503152" fill="none" /><path transform="matrix(1 0 0 -1 0 841)" d="M238.6003 599.6719L238.6003 604.9238C 238.6003 605.5488 238.82 606.0781 239.2595 606.5176C 239.6991 606.9551 240.2296 607.1758 240.8512 607.1758L240.8512 607.1758L251.3556 607.1758C 251.9772 607.1758 252.5077 606.9551 252.9472 606.5176C 253.3868 606.0781 253.6066 605.5488 253.6066 604.9238L253.6066 604.9238L253.6066 599.6719C 253.6066 599.0508 253.3868 598.5195 252.9472 598.0801C 252.5077 597.6406 251.9772 597.4199 251.3556 597.4199L251.3556 597.4199L240.8512 597.4199C 240.2296 597.4199 239.6991 597.6406 239.2595 598.0801C 238.82 598.5195 238.6003 599.0508 238.6003 599.6719z" stroke="none" fill="#F3F4F4" fill-rule="winding" /><path transform="matrix(1 0 0 -1 0 841)" d="M238.9754 599.6719L238.9754 604.9238C 238.9754 605.4434 239.1585 605.8848 239.5248 606.252C 239.8911 606.6172 240.3332 606.7988 240.8512 606.7988L240.8512 606.7988L251.3556 606.7988C 251.8736 606.7988 252.3157 606.6172 252.682 606.252C 253.0483 605.8848 253.2314 605.4434 253.2314 604.9238L253.2314 604.9238L253.2314 599.6719C 253.2314 599.1563 253.0483 598.7129 252.682 598.3477C 252.3157 597.9805 251.8736 597.7988 251.3556 597.7949L251.3556 597.7949L240.8512 597.7949C 240.3332 597.7988 239.8911 597.9805 239.5248 598.3477C 239.1585 598.7129 238.9754 599.1563 238.9754 599.6719z" stroke="#E7EAED" stroke-width="0.7503152" fill="none" /><path transform="matrix(1 0 0 -1 0 841)" d="M48.39533 415.8438L48.39533 558.4043C 48.39533 558.9238 48.57846 559.3652 48.94473 559.7324C 49.311 560.0977 49.75313 560.2793 50.27112 560.2793L50.27112 560.2793L544.7289 560.2793C 545.2468 560.2793 545.6889 560.0977 546.0552 559.7324C 546.4214 559.3652 546.6046 558.9238 546.6047 558.4043L546.6047 558.4043L546.6047 415.8438C 546.6046 415.3281 546.4214 414.8867 546.0552 414.5195C 545.6889 414.1523 545.2468 413.9707 544.7289 413.9688L544.7289 413.9688L50.27112 413.9688C 49.75313 413.9707 49.311 414.1523 48.94473 414.5195C 48.57846 414.8867 48.39533 415.3281 48.39533 415.8438z" stroke="none" fill="#F8F8F8" fill-rule="winding" /><path transform="matrix(1 0 0 -1 0 841)" d="M48.39533 415.8438L48.39533 558.4043C 48.39533 558.9238 48.57846 559.3652 48.94473 559.7324C 49.311 560.0977 49.75313 560.2793 50.27112 560.2793L50.27112 560.2793L544.7289 560.2793C 545.2468 560.2793 545.6889 560.0977 546.0552 559.7324C 546.4214 559.3652 546.6046 558.9238 546.6047 558.4043L546.6047 558.4043L546.6047 415.8438C 546.6046 415.3281 546.4214 414.8867 546.0552 414.5195C 545.6889 414.1523 545.2468 413.9707 544.7289 413.9688L544.7289 413.9688L50.27112 413.9688C 49.75313 413.9707 49.311 414.1523 48.94473 414.5195C 48.57846 414.8867 48.39533 415.3281 48.39533 415.8438z" stroke="#E7EAED" stroke-width="0.7503152" fill="none" /></g><g clip-path="url(#5)"><path transform="matrix(1 0 0 -1 0 841)" d="M48.77049 553.9023L543.2282 553.9023L543.2282 553.9023L543.2282 418.8457L543.2282 418.8457L48.77049 418.8457z" stroke="none" fill="#F8F8F8" fill-rule="winding" /></g><g clip-path="url(#6)"><path transform="matrix(1 0 0 -1 0 841)" d="M48.39533 151.7344L48.39533 321.3047C 48.39533 321.8242 48.57846 322.2656 48.94473 322.6328C 49.311 322.998 49.75313 323.1797 50.27112 323.1797L50.27112 323.1797L544.7289 323.1797C 545.2468 323.1797 545.6889 322.998 546.0552 322.6328C 546.4214 322.2656 546.6046 321.8242 546.6047 321.3047L546.6047 321.3047L546.6047 151.7344C 546.6046 151.2168 546.4214 150.7773 546.0552 150.4121C 545.6889 150.0449 545.2468 149.8613 544.7289 149.8574L544.7289 149.8574L50.27112 149.8574C 49.75313 149.8613 49.311 150.0449 48.94473 150.4121C 48.57846 150.7773 48.39533 151.2168 48.39533 151.7344z" stroke="none" fill="#F8F8F8" fill-rule="winding" /><path transform="matrix(1 0 0 -1 0 841)" d="M48.39533 151.7344L48.39533 321.3047C 48.39533 321.8242 48.57846 322.2656 48.94473 322.6328C 49.311 322.998 49.75313 323.1797 50.27112 323.1797L50.27112 323.1797L544.7289 323.1797C 545.2468 323.1797 545.6889 322.998 546.0552 322.6328C 546.4214 322.2656 546.6046 321.8242 546.6047 321.3047L546.6047 321.3047L546.6047 151.7344C 546.6046 151.2168 546.4214 150.7773 546.0552 150.4121C 545.6889 150.0449 545.2468 149.8613 544.7289 149.8574L544.7289 149.8574L50.27112 149.8574C 49.75313 149.8613 49.311 150.0449 48.94473 150.4121C 48.57846 150.7773 48.39533 151.2168 48.39533 151.7344z" stroke="#E7EAED" stroke-width="0.7503152" fill="none" /></g><g clip-path="url(#7)"><path transform="matrix(1 0 0 -1 0 841)" d="M48.77049 316.8027L543.2282 316.8027L543.2282 316.8027L543.2282 154.7344L543.2282 154.7344L48.77049 154.7344z" stroke="none" fill="#F8F8F8" fill-rule="winding" /></g><g clip-path="url(#8)"></g><g clip-path="url(#9)"><path transform="matrix(1 0 0 -1 0 841)" d="M48.77049 778.2461L543.2282 778.2461L543.2282 778.2461L543.2282 724.2246L543.2282 724.2246L48.77049 724.2246z" stroke="none" fill="#F8F8F8" fill-rule="winding" /><path transform="matrix(1 0 0 -1 0 841)" d="M48.77049 778.2461L69.77932 778.2461L69.77932 778.2461L69.77932 709.2168L69.77932 709.2168L48.77049 709.2168z" stroke="none" fill="#F8F8F8" fill-rule="winding" /><path transform="matrix(1 0 0 -1 0 841)" d="M69.029 778.2461L69.77932 778.2461L69.77932 778.2461L69.77932 709.2168L69.77932 709.2168L69.029 709.2168z" stroke="none" fill="#DDDDDD" fill-rule="winding" /></g><g clip-path="url(#10)"><path transform="matrix(1 0 0 -1 0 841)" d="M48.77049 553.9023L543.2282 553.9023L543.2282 553.9023L543.2282 418.8457L543.2282 418.8457L48.77049 418.8457z" stroke="none" fill="#F8F8F8" fill-rule="winding" /><path transform="matrix(1 0 0 -1 0 841)" d="M48.77049 553.9023L75.78184 553.9023L75.78184 553.9023L75.78184 381.3301L75.78184 381.3301L48.77049 381.3301z" stroke="none" fill="#F8F8F8" fill-rule="winding" /><path transform="matrix(1 0 0 -1 0 841)" d="M75.03152 553.9023L75.78184 553.9023L75.78184 553.9023L75.78184 381.3301L75.78184 381.3301L75.03152 381.3301z" stroke="none" fill="#DDDDDD" fill-rule="winding" /></g><g clip-path="url(#11)"><path transform="matrix(1 0 0 -1 0 841)" d="M48.77049 316.8027L543.2282 316.8027L543.2282 316.8027L543.2282 154.7344L543.2282 154.7344L48.77049 154.7344z" stroke="none" fill="#F8F8F8" fill-rule="winding" /><path transform="matrix(1 0 0 -1 0 841)" d="M48.77049 316.8027L75.78184 316.8027L75.78184 316.8027L75.78184 109.7148L75.78184 109.7148L48.77049 109.7148z" stroke="none" fill="#F8F8F8" fill-rule="winding" /><path transform="matrix(1 0 0 -1 0 841)" d="M75.03152 316.8027L75.78184 316.8027L75.78184 316.8027L75.78184 109.7148L75.78184 109.7148L75.03152 109.7148z" stroke="none" fill="#DDDDDD" fill-rule="winding" /></g><g transform="matrix(0.2399193 0 0 0.2399322 0 -14.78003)"><g transform="matrix(1 0 0 1 0 0)"><image x="0" y="0" xlink:href="img_02.png" width="2480" height="295" /></g></g><g transform="matrix(0.4798387 0 0 0.4798876 0 798.29)"><g transform="matrix(1 0 0 1 0 0)"><image x="0" y="0" xlink:href="img_03.png" width="1240" height="89" /></g></g></g></g></g></svg>