<svg xmlns="http://www.w3.org/2000/svg" xmlns:xlink="http://www.w3.org/1999/xlink" id="body_55" preserveAspectRatio="xMinYMin meet" viewBox="0 0 793 1121"><defs><clipPath id="1"><path d="M0 841L0 0L0 0L595 0L595 0L595 841L595 841L0 841z" /></clipPath><clipPath id="2"><path d="M0 56L595 56L595 56L595 784.5547L595 784.5547L0 784.5547z" /></clipPath><clipPath id="3"><path d="M48.77049 141.5352L543.2282 141.5352L543.2282 141.5352L543.2282 776.3008L543.2282 776.3008L48.77049 776.3008z" /></clipPath></defs><g transform="matrix(1.333333 0 0 1.333333 0 0)"><g><g clip-path="url(#1)"><g clip-path="url(#2)"><path transform="matrix(1 0 0 -1 0 841)" d="M0 40127.03L595 40127.03L595 40127.03L595 -17850.58L595 -17850.58L0 -17850.58z" stroke="none" fill="#FFFFFF" fill-rule="winding" /><path transform="matrix(1 0 0 -1 0 841)" d="M48.39533 61.69922L48.39533 703.9688C 48.39533 704.4883 48.57846 704.9336 48.94473 705.2969C 49.311 705.6602 49.75313 705.8438 50.27112 705.8438L50.27112 705.8438L544.7289 705.8438C 545.2468 705.8438 545.6889 705.6602 546.0552 705.2969C 546.4214 704.9336 546.6046 704.4883 546.6047 703.9688L546.6047 703.9688L546.6047 61.69922C 546.6046 61.17969 546.4214 60.73828 546.0552 60.37109C 545.6889 60.00781 545.2468 59.82031 544.7289 59.82031L544.7289 59.82031L50.27112 59.82031C 49.75313 59.82031 49.311 60.00781 48.94473 60.37109C 48.57846 60.73828 48.39533 61.17969 48.39533 61.69922z" stroke="none" fill="#F8F8F8" fill-rule="winding" /><path transform="matrix(1 0 0 -1 0 841)" d="M48.39533 61.69922L48.39533 703.9688C 48.39533 704.4883 48.57846 704.9336 48.94473 705.2969C 49.311 705.6602 49.75313 705.8438 50.27112 705.8438L50.27112 705.8438L544.7289 705.8438C 545.2468 705.8438 545.6889 705.6602 546.0552 705.2969C 546.4214 704.9336 546.6046 704.4883 546.6047 703.9688L546.6047 703.9688L546.6047 61.69922C 546.6046 61.17969 546.4214 60.73828 546.0552 60.37109C 545.6889 60.00781 545.2468 59.82031 544.7289 59.82031L544.7289 59.82031L50.27112 59.82031C 49.75313 59.82031 49.311 60.00781 48.94473 60.37109C 48.57846 60.73828 48.39533 61.17969 48.39533 61.69922z" stroke="#E7EAED" stroke-width="0.7503152" fill="none" /></g><g clip-path="url(#3)"><path transform="matrix(1 0 0 -1 0 841)" d="M48.77049 699.4648L543.2282 699.4648L543.2282 699.4648L543.2282 64.69922L543.2282 64.69922L48.77049 64.69922z" stroke="none" fill="#F8F8F8" fill-rule="winding" /><path transform="matrix(1 0 0 -1 0 841)" d="M48.77049 699.4648L543.2282 699.4648L543.2282 699.4648L543.2282 64.69922L543.2282 64.69922L48.77049 64.69922z" stroke="none" fill="#F8F8F8" fill-rule="winding" /><path transform="matrix(1 0 0 -1 0 841)" d="M48.77049 699.4648L75.78184 699.4648L75.78184 699.4648L75.78184 -111.625L75.78184 -111.625L48.77049 -111.625z" stroke="none" fill="#F8F8F8" fill-rule="winding" /><path transform="matrix(1 0 0 -1 0 841)" d="M75.03152 699.4648L75.78184 699.4648L75.78184 699.4648L75.78184 -111.625L75.78184 -111.625L75.03152 -111.625z" stroke="none" fill="#DDDDDD" fill-rule="winding" /></g><g transform="matrix(0.2399193 0 0 0.2399322 0 -14.78003)"><g transform="matrix(1 0 0 1 0 0)"><image x="0" y="0" xlink:href="img_02.png" width="2480" height="295" /></g></g><g transform="matrix(0.4798387 0 0 0.4798876 0 798.29)"><g transform="matrix(1 0 0 1 0 0)"><image x="0" y="0" xlink:href="img_03.png" width="1240" height="89" /></g></g></g></g></g></svg>