<svg xmlns="http://www.w3.org/2000/svg" xmlns:xlink="http://www.w3.org/1999/xlink" id="body_15" preserveAspectRatio="xMinYMin meet" viewBox="0 0 793 1121"><defs><clipPath id="1"><path d="M0 841L0 0L0 0L595 0L595 0L595 841L595 841L0 841z" /></clipPath><clipPath id="2"><path d="M0 56L595 56L595 56L595 784.5566L595 784.5566L0 784.5566z" /></clipPath><clipPath id="3"><path d="M48.77049 56L543.2282 56L543.2282 56L543.2282 123.5283L543.2282 123.5283L48.77049 123.5283z" /></clipPath><clipPath id="4"><path d="M0 56L595 56L595 56L595 784.5566L595 784.5566L0 784.5566z" /></clipPath><clipPath id="5"><path d="M48.77049 173.0498L543.2282 173.0498L543.2282 173.0498L543.2282 186.5557L543.2282 186.5557L48.77049 186.5557z" /></clipPath><clipPath id="6"><path d="M0 56L595 56L595 56L595 784.5566L595 784.5566L0 784.5566z" /></clipPath><clipPath id="7"><path d="M48.77049 236.0762L543.2282 236.0762L543.2282 236.0762L543.2282 784.5566L543.2282 784.5566L48.77049 784.5566z" /></clipPath><clipPath id="8"><path d="M48.77049 56L543.2282 56L543.2282 56L543.2282 123.5283L543.2282 123.5283L48.77049 123.5283z" /></clipPath><clipPath id="9"><path d="M48.77049 173.0498L543.2282 173.0498L543.2282 173.0498L543.2282 186.5557L543.2282 186.5557L48.77049 186.5557z" /></clipPath><clipPath id="10"><path d="M48.77049 236.0762L543.2282 236.0762L543.2282 236.0762L543.2282 784.5566L543.2282 784.5566L48.77049 784.5566z" /></clipPath></defs><g transform="matrix(1.333333 0 0 1.333333 0 0)"><g><g clip-path="url(#1)"><g clip-path="url(#2)"><path transform="matrix(1 0 0 -1 0 841)" d="M0 10984.79L595 10984.79L595 10984.79L595 -46992.82L595 -46992.82L0 -46992.82z" stroke="none" fill="#FFFFFF" fill-rule="winding" /><path transform="matrix(1 0 0 -1 0 841)" d="M48.02018 700.9639L51.02144 700.9639L51.02144 700.9639L51.02144 685.958L51.02144 685.958L48.02018 685.958z" stroke="none" fill="#DFE2E5" fill-rule="winding" /><path transform="matrix(1 0 0 -1 0 841)" d="M48.39533 714.4697L48.39533 938.0645C 48.39533 938.583 48.57846 939.0254 48.94473 939.3916C 49.311 939.7568 49.75313 939.9395 50.27112 939.9395L50.27112 939.9395L544.7289 939.9395C 545.2468 939.9395 545.6889 939.7568 546.0552 939.3916C 546.4214 939.0254 546.6046 938.583 546.6047 938.0645L546.6047 938.0645L546.6047 714.4697C 546.6046 713.9531 546.4214 713.5107 546.0552 713.1445C 545.6889 712.7783 545.2468 712.5947 544.7289 712.5947L544.7289 712.5947L50.27112 712.5947C 49.75313 712.5947 49.311 712.7783 48.94473 713.1445C 48.57846 713.5107 48.39533 713.9531 48.39533 714.4697z" stroke="none" fill="#F8F8F8" fill-rule="winding" /><path transform="matrix(1 0 0 -1 0 841)" d="M48.39533 714.4697L48.39533 938.0645C 48.39533 938.583 48.57846 939.0254 48.94473 939.3916C 49.311 939.7568 49.75313 939.9395 50.27112 939.9395L50.27112 939.9395L544.7289 939.9395C 545.2468 939.9395 545.6889 939.7568 546.0552 939.3916C 546.4214 939.0254 546.6046 938.583 546.6047 938.0645L546.6047 938.0645L546.6047 714.4697C 546.6046 713.9531 546.4214 713.5107 546.0552 713.1445C 545.6889 712.7783 545.2468 712.5947 544.7289 712.5947L544.7289 712.5947L50.27112 712.5947C 49.75313 712.5947 49.311 712.7783 48.94473 713.1445C 48.57846 713.5107 48.39533 713.9531 48.39533 714.4697z" stroke="#E7EAED" stroke-width="0.7503152" fill="none" /></g><g clip-path="url(#3)"><path transform="matrix(1 0 0 -1 0 841)" d="M48.77049 933.5625L543.2282 933.5625L543.2282 933.5625L543.2282 717.4717L543.2282 717.4717L48.77049 717.4717z" stroke="none" fill="#F8F8F8" fill-rule="winding" /></g><g clip-path="url(#4)"><path transform="matrix(1 0 0 -1 0 841)" d="M48.39533 651.4434L48.39533 672.4521C 48.39533 672.9707 48.57846 673.4141 48.94473 673.7803C 49.311 674.1455 49.75313 674.3281 50.27112 674.3281L50.27112 674.3281L544.7289 674.3281C 545.2468 674.3281 545.6889 674.1455 546.0552 673.7803C 546.4214 673.4141 546.6046 672.9707 546.6047 672.4521L546.6047 672.4521L546.6047 651.4434C 546.6046 650.9258 546.4214 650.4834 546.0552 650.1172C 545.6889 649.751 545.2468 649.5674 544.7289 649.5674L544.7289 649.5674L50.27112 649.5674C 49.75313 649.5674 49.311 649.751 48.94473 650.1172C 48.57846 650.4834 48.39533 650.9258 48.39533 651.4434z" stroke="none" fill="#F8F8F8" fill-rule="winding" /><path transform="matrix(1 0 0 -1 0 841)" d="M48.39533 651.4434L48.39533 672.4521C 48.39533 672.9707 48.57846 673.4141 48.94473 673.7803C 49.311 674.1455 49.75313 674.3281 50.27112 674.3281L50.27112 674.3281L544.7289 674.3281C 545.2468 674.3281 545.6889 674.1455 546.0552 673.7803C 546.4214 673.4141 546.6046 672.9707 546.6047 672.4521L546.6047 672.4521L546.6047 651.4434C 546.6046 650.9258 546.4214 650.4834 546.0552 650.1172C 545.6889 649.751 545.2468 649.5674 544.7289 649.5674L544.7289 649.5674L50.27112 649.5674C 49.75313 649.5674 49.311 649.751 48.94473 650.1172C 48.57846 650.4834 48.39533 650.9258 48.39533 651.4434z" stroke="#E7EAED" stroke-width="0.7503152" fill="none" /></g><g clip-path="url(#5)"><path transform="matrix(1 0 0 -1 0 841)" d="M48.77049 667.9502L543.2282 667.9502L543.2282 667.9502L543.2282 654.4443L543.2282 654.4443L48.77049 654.4443z" stroke="none" fill="#F8F8F8" fill-rule="winding" /></g><g clip-path="url(#6)"><path transform="matrix(1 0 0 -1 0 841)" d="M48.39533 -270.6943L48.39533 609.4258C 48.39533 609.9443 48.57846 610.3867 48.94473 610.7529C 49.311 611.1182 49.75313 611.3018 50.27112 611.3018L50.27112 611.3018L544.7289 611.3018C 545.2468 611.3018 545.6889 611.1182 546.0552 610.7529C 546.4214 610.3867 546.6046 609.9443 546.6047 609.4258L546.6047 609.4258L546.6047 -270.6943C 546.6046 -271.2109 546.4214 -271.6533 546.0552 -272.0195C 545.6889 -272.3857 545.2468 -272.5693 544.7289 -272.5693L544.7289 -272.5693L50.27112 -272.5693C 49.75313 -272.5693 49.311 -272.3857 48.94473 -272.0195C 48.57846 -271.6533 48.39533 -271.2109 48.39533 -270.6943z" stroke="none" fill="#F8F8F8" fill-rule="winding" /><path transform="matrix(1 0 0 -1 0 841)" d="M48.39533 -270.6943L48.39533 609.4258C 48.39533 609.9443 48.57846 610.3867 48.94473 610.7529C 49.311 611.1182 49.75313 611.3018 50.27112 611.3018L50.27112 611.3018L544.7289 611.3018C 545.2468 611.3018 545.6889 611.1182 546.0552 610.7529C 546.4214 610.3867 546.6046 609.9443 546.6047 609.4258L546.6047 609.4258L546.6047 -270.6943C 546.6046 -271.2109 546.4214 -271.6533 546.0552 -272.0195C 545.6889 -272.3857 545.2468 -272.5693 544.7289 -272.5693L544.7289 -272.5693L50.27112 -272.5693C 49.75313 -272.5693 49.311 -272.3857 48.94473 -272.0195C 48.57846 -271.6533 48.39533 -271.2109 48.39533 -270.6943z" stroke="#E7EAED" stroke-width="0.7503152" fill="none" /></g><g clip-path="url(#7)"><path transform="matrix(1 0 0 -1 0 841)" d="M48.77049 604.9238L543.2282 604.9238L543.2282 604.9238L543.2282 -267.6924L543.2282 -267.6924L48.77049 -267.6924z" stroke="none" fill="#F8F8F8" fill-rule="winding" /></g><g clip-path="url(#8)"><path transform="matrix(1 0 0 -1 0 841)" d="M48.77049 933.5625L543.2282 933.5625L543.2282 933.5625L543.2282 717.4717L543.2282 717.4717L48.77049 717.4717z" stroke="none" fill="#F8F8F8" fill-rule="winding" /><path transform="matrix(1 0 0 -1 0 841)" d="M48.77049 933.5625L75.78184 933.5625L75.78184 933.5625L75.78184 657.4463L75.78184 657.4463L48.77049 657.4463z" stroke="none" fill="#F8F8F8" fill-rule="winding" /><path transform="matrix(1 0 0 -1 0 841)" d="M75.03152 933.5625L75.78184 933.5625L75.78184 933.5625L75.78184 657.4463L75.78184 657.4463L75.03152 657.4463z" stroke="none" fill="#DDDDDD" fill-rule="winding" /></g><g clip-path="url(#9)"><path transform="matrix(1 0 0 -1 0 841)" d="M48.77049 667.9502L543.2282 667.9502L543.2282 667.9502L543.2282 654.4443L543.2282 654.4443L48.77049 654.4443z" stroke="none" fill="#F8F8F8" fill-rule="winding" /><path transform="matrix(1 0 0 -1 0 841)" d="M48.77049 667.9502L69.77932 667.9502L69.77932 667.9502L69.77932 645.4414L69.77932 645.4414L48.77049 645.4414z" stroke="none" fill="#F8F8F8" fill-rule="winding" /><path transform="matrix(1 0 0 -1 0 841)" d="M69.029 667.9502L69.77932 667.9502L69.77932 667.9502L69.77932 645.4414L69.77932 645.4414L69.029 645.4414z" stroke="none" fill="#DDDDDD" fill-rule="winding" /></g><g clip-path="url(#10)"><path transform="matrix(1 0 0 -1 0 841)" d="M48.77049 604.9238L543.2282 604.9238L543.2282 604.9238L543.2282 -267.6924L543.2282 -267.6924L48.77049 -267.6924z" stroke="none" fill="#F8F8F8" fill-rule="winding" /><path transform="matrix(1 0 0 -1 0 841)" d="M48.77049 604.9238L75.78184 604.9238L75.78184 604.9238L75.78184 -499.54L75.78184 -499.54L48.77049 -499.54z" stroke="none" fill="#F8F8F8" fill-rule="winding" /><path transform="matrix(1 0 0 -1 0 841)" d="M75.03152 604.9238L75.78184 604.9238L75.78184 604.9238L75.78184 -499.54L75.78184 -499.54L75.03152 -499.54z" stroke="none" fill="#DDDDDD" fill-rule="winding" /></g><g transform="matrix(0.2399193 0 0 0.2399322 0 -14.78003)"><g transform="matrix(1 0 0 1 0 0)"><image x="0" y="0" xlink:href="img_02.png" width="2480" height="295" /></g></g><g transform="matrix(0.4798387 0 0 0.4798876 0 798.29)"><g transform="matrix(1 0 0 1 0 0)"><image x="0" y="0" xlink:href="img_03.png" width="1240" height="89" /></g></g></g></g></g></svg>