<svg xmlns="http://www.w3.org/2000/svg" xmlns:xlink="http://www.w3.org/1999/xlink" id="body_11" preserveAspectRatio="xMinYMin meet" viewBox="0 0 793 1121"><defs><clipPath id="1"><path d="M0 841L0 0L0 0L595 0L595 0L595 841L595 841L0 841z" /></clipPath><clipPath id="2"><path d="M0 56L595 56L595 56L595 784.5562L595 784.5562L0 784.5562z" /></clipPath><clipPath id="3"><path d="M48.77049 635.9937L543.2282 635.9937L543.2282 635.9937L543.2282 757.5449L543.2282 757.5449L48.77049 757.5449z" /></clipPath></defs><g transform="matrix(1.333333 0 0 1.333333 0 0)"><g><g clip-path="url(#1)"><g clip-path="url(#2)"><path transform="matrix(1 0 0 -1 0 841)" d="M0 8070.561L595 8070.561L595 8070.561L595 -49907.05L595 -49907.05L0 -49907.05z" stroke="none" fill="#FFFFFF" fill-rule="winding" /><g transform="matrix(0.7503153 0 0 0.7503152 159.0668 56)"><g transform="matrix(1 0 0 1 0 0)"><image x="0" y="0" xlink:href="img_24.png" width="369" height="368" /></g></g><g transform="matrix(0.7252321 0 0 0.7277493 48.02018 339.6191)"><g transform="matrix(1 0 0 1 0 0)"><image x="0" y="0" xlink:href="img_25.png" width="688" height="133" /></g></g><path transform="matrix(1 0 0 -1 0 841)" d="M48.39533 80.4541L48.39533 209.5083C 48.39533 210.0264 48.57846 210.4688 48.94473 210.835C 49.311 211.2007 49.75313 211.3838 50.27112 211.3838L50.27112 211.3838L544.7289 211.3838C 545.2468 211.3838 545.6889 211.2007 546.0552 210.835C 546.4214 210.4688 546.6046 210.0264 546.6047 209.5083L546.6047 209.5083L546.6047 80.4541C 546.6046 79.93604 546.4214 79.49414 546.0552 79.12793C 545.6889 78.76221 545.2468 78.5791 544.7289 78.57813L544.7289 78.57813L50.27112 78.57813C 49.75313 78.5791 49.311 78.76221 48.94473 79.12793C 48.57846 79.49414 48.39533 79.93604 48.39533 80.4541z" stroke="none" fill="#F8F8F8" fill-rule="winding" /><path transform="matrix(1 0 0 -1 0 841)" d="M48.39533 80.4541L48.39533 209.5083C 48.39533 210.0264 48.57846 210.4688 48.94473 210.835C 49.311 211.2007 49.75313 211.3838 50.27112 211.3838L50.27112 211.3838L544.7289 211.3838C 545.2468 211.3838 545.6889 211.2007 546.0552 210.835C 546.4214 210.4688 546.6046 210.0264 546.6047 209.5083L546.6047 209.5083L546.6047 80.4541C 546.6046 79.93604 546.4214 79.49414 546.0552 79.12793C 545.6889 78.76221 545.2468 78.5791 544.7289 78.57813L544.7289 78.57813L50.27112 78.57813C 49.75313 78.5791 49.311 78.76221 48.94473 79.12793C 48.57846 79.49414 48.39533 79.93604 48.39533 80.4541z" stroke="#E7EAED" stroke-width="0.7503152" fill="none" /></g><g clip-path="url(#3)"><path transform="matrix(1 0 0 -1 0 841)" d="M48.77049 205.0063L543.2282 205.0063L543.2282 205.0063L543.2282 83.45508L543.2282 83.45508L48.77049 83.45508z" stroke="none" fill="#F8F8F8" fill-rule="winding" /><path transform="matrix(1 0 0 -1 0 841)" d="M48.77049 205.0063L543.2282 205.0063L543.2282 205.0063L543.2282 83.45508L543.2282 83.45508L48.77049 83.45508z" stroke="none" fill="#F8F8F8" fill-rule="winding" /><path transform="matrix(1 0 0 -1 0 841)" d="M48.77049 205.0063L69.77932 205.0063L69.77932 205.0063L69.77932 49.69092L69.77932 49.69092L48.77049 49.69092z" stroke="none" fill="#F8F8F8" fill-rule="winding" /><path transform="matrix(1 0 0 -1 0 841)" d="M69.029 205.0063L69.77932 205.0063L69.77932 205.0063L69.77932 49.69092L69.77932 49.69092L69.029 49.69092z" stroke="none" fill="#DDDDDD" fill-rule="winding" /></g><g transform="matrix(0.2399193 0 0 0.2399322 0 -14.78003)"><g transform="matrix(1 0 0 1 0 0)"><image x="0" y="0" xlink:href="img_02.png" width="2480" height="295" /></g></g><g transform="matrix(0.4798387 0 0 0.4798876 0 798.29)"><g transform="matrix(1 0 0 1 0 0)"><image x="0" y="0" xlink:href="img_03.png" width="1240" height="89" /></g></g></g></g></g></svg>