<svg xmlns="http://www.w3.org/2000/svg" xmlns:xlink="http://www.w3.org/1999/xlink" id="body_38" preserveAspectRatio="xMinYMin meet" viewBox="0 0 793 1121"><defs><clipPath id="1"><path d="M0 841L0 0L0 0L595 0L595 0L595 841L595 841L0 841z" /></clipPath><clipPath id="2"><path d="M0 56L595 56L595 56L595 784.5566L595 784.5566L0 784.5566z" /></clipPath></defs><g transform="matrix(1.333333 0 0 1.333333 0 0)"><g><g clip-path="url(#1)"><g clip-path="url(#2)"><path transform="matrix(1 0 0 -1 0 841)" d="M0 27741.58L595 27741.58L595 27741.58L595 -30236.03L595 -30236.03L0 -30236.03z" stroke="none" fill="#FFFFFF" fill-rule="winding" /><g transform="matrix(0.7503152 0 0 0.7503152 123.802 56)"><g transform="matrix(1 0 0 1 0 0)"><image x="0" y="0" xlink:href="img_76.png" width="464" height="772" /></g></g><path transform="matrix(1 0 0 -1 0 841)" d="M48.02018 128.4746L48.02018 133.7266C 48.02017 134.3477 48.23994 134.8789 48.67946 135.3184C 49.11898 135.7578 49.64954 135.9766 50.27112 135.9766L50.27112 135.9766L71.27995 135.9766C 71.90153 135.9766 72.43208 135.7578 72.8716 135.3184C 73.31113 134.8789 73.53089 134.3477 73.53089 133.7266L73.53089 133.7266L73.53089 128.4746C 73.53089 127.8555 73.31113 127.3262 72.8716 126.8867C 72.43208 126.4453 71.90153 126.2266 71.27995 126.2227L71.27995 126.2227L50.27112 126.2227C 49.64954 126.2266 49.11898 126.4453 48.67946 126.8867C 48.23994 127.3262 48.02017 127.8555 48.02018 128.4746z" stroke="none" fill="#F3F4F4" fill-rule="winding" /><path transform="matrix(1 0 0 -1 0 841)" d="M48.39533 128.4746L48.39533 133.7266C 48.39533 134.2461 48.57846 134.6875 48.94473 135.0547C 49.311 135.4199 49.75313 135.6016 50.27112 135.6016L50.27112 135.6016L71.27995 135.6016C 71.79793 135.6016 72.24005 135.4199 72.60632 135.0547C 72.97259 134.6875 73.15573 134.2461 73.15574 133.7266L73.15574 133.7266L73.15574 128.4746C 73.15573 127.959 72.97259 127.5156 72.60632 127.1504C 72.24005 126.7832 71.79793 126.6016 71.27995 126.5977L71.27995 126.5977L50.27112 126.5977C 49.75313 126.6016 49.311 126.7832 48.94473 127.1504C 48.57846 127.5156 48.39533 127.959 48.39533 128.4746z" stroke="#E7EAED" stroke-width="0.7503152" fill="none" /><path transform="matrix(1 0 0 -1 0 841)" d="M310.6305 128.4746L310.6305 133.7266C 310.6305 134.3477 310.8503 134.8789 311.2898 135.3184C 311.7293 135.7578 312.2599 135.9766 312.8815 135.9766L312.8815 135.9766L375.9079 135.9766C 376.5295 135.9766 377.0601 135.7578 377.4996 135.3184C 377.9391 134.8789 378.1589 134.3477 378.1589 133.7266L378.1589 133.7266L378.1589 128.4746C 378.1589 127.8555 377.9391 127.3262 377.4996 126.8867C 377.0601 126.4453 376.5295 126.2266 375.9079 126.2227L375.9079 126.2227L312.8815 126.2227C 312.2599 126.2266 311.7293 126.4453 311.2898 126.8867C 310.8503 127.3262 310.6305 127.8555 310.6305 128.4746z" stroke="none" fill="#F3F4F4" fill-rule="winding" /><path transform="matrix(1 0 0 -1 0 841)" d="M311.0057 128.4746L311.0057 133.7266C 311.0056 134.2461 311.1888 134.6875 311.5551 135.0547C 311.9213 135.4199 312.3635 135.6016 312.8815 135.6016L312.8815 135.6016L375.9079 135.6016C 376.4259 135.6016 376.868 135.4199 377.2343 135.0547C 377.6006 134.6875 377.7837 134.2461 377.7837 133.7266L377.7837 133.7266L377.7837 128.4746C 377.7837 127.959 377.6006 127.5156 377.2343 127.1504C 376.868 126.7832 376.4259 126.6016 375.9079 126.5977L375.9079 126.5977L312.8815 126.5977C 312.3635 126.6016 311.9213 126.7832 311.5551 127.1504C 311.1888 127.5156 311.0056 127.959 311.0057 128.4746z" stroke="#E7EAED" stroke-width="0.7503152" fill="none" /></g><g transform="matrix(0.2399193 0 0 0.2399322 0 -14.78003)"><g transform="matrix(1 0 0 1 0 0)"><image x="0" y="0" xlink:href="img_02.png" width="2480" height="295" /></g></g><g transform="matrix(0.4798387 0 0 0.4798876 0 798.29)"><g transform="matrix(1 0 0 1 0 0)"><image x="0" y="0" xlink:href="img_03.png" width="1240" height="89" /></g></g></g></g></g></svg>